<?xml version="1.0" standalone="no"?>
<!DOCTYPE svg PUBLIC "-//W3C//DTD SVG 1.1//EN" "http://www.w3.org/Graphics/SVG/1.1/DTD/svg11.dtd">
<svg style="stroke-linejoin:miter; stroke:black; stroke-width:2.5; text-anchor:middle; fill:none" xmlns="http://www.w3.org/2000/svg" font-family="Helvetica, Arial, FreeSans, Sans, sans, sans-serif" width="1000px" height="1000px" version="1.1" xmlns:xlink="http://www.w3.org/1999/xlink" viewBox="0 0 1000 1000">
<defs>
    <clipPath id="Histogram_0_clip">
        <rect x="120" y="50" width="830" height="870" />
    </clipPath>
    <clipPath id="Histogram_1_clip">
        <rect x="120" y="50" width="830" height="870" />
    </clipPath>
</defs>
<g id="whole_document">
<rect id="background" x="0" y="0" width="1000" height="1000" stroke="none" fill="white" />
<g id="Histogram_0" clip-path="url(#Histogram_0_clip)">
    <path d="M 120 920 L 120 920 L 128.3 920 L 128.3 913.032 L 136.6 913.032 L 136.6 920 L 144.9 920 L 144.9 913.032 L 153.2 913.032 L 153.2 909.547 L 161.5 909.547 L 161.5 902.579 L 169.8 902.579 L 169.8 909.547 L 178.1 909.547 L 178.1 916.516 L 186.4 916.516 L 186.4 920 L 194.7 920 L 194.7 913.032 L 203 913.032 L 203 913.032 L 211.3 913.032 L 211.3 899.095 L 219.6 899.095 L 219.6 906.063 L 227.9 906.063 L 227.9 916.516 L 236.2 916.516 L 236.2 916.516 L 244.5 916.516 L 244.5 909.547 L 252.8 909.547 L 252.8 913.032 L 261.1 913.032 L 261.1 895.611 L 269.4 895.611 L 269.4 899.095 L 277.7 899.095 L 277.7 885.158 L 286 885.158 L 286 888.642 L 294.3 888.642 L 294.3 899.095 L 302.6 899.095 L 302.6 860.769 L 310.9 860.769 L 310.9 857.285 L 319.2 857.285 L 319.2 871.221 L 327.5 871.221 L 327.5 857.285 L 335.8 857.285 L 335.8 843.348 L 344.1 843.348 L 344.1 857.285 L 352.4 857.285 L 352.4 853.801 L 360.7 853.801 L 360.7 794.569 L 369 794.569 L 369 825.927 L 377.3 825.927 L 377.3 780.633 L 385.6 780.633 L 385.6 770.18 L 393.9 770.18 L 393.9 794.569 L 402.2 794.569 L 402.2 777.149 L 410.5 777.149 L 410.5 749.275 L 418.8 749.275 L 418.8 728.37 L 427.1 728.37 L 427.1 780.633 L 435.4 780.633 L 435.4 745.791 L 443.7 745.791 L 443.7 717.918 L 452 717.918 L 452 690.044 L 460.3 690.044 L 460.3 644.75 L 468.6 644.75 L 468.6 690.044 L 476.9 690.044 L 476.9 658.686 L 485.2 658.686 L 485.2 582.034 L 493.5 582.034 L 493.5 606.424 L 501.8 606.424 L 501.8 554.161 L 510.1 554.161 L 510.1 526.288 L 518.4 526.288 L 518.4 613.392 L 526.7 613.392 L 526.7 512.351 L 535 512.351 L 535 453.12 L 543.3 453.12 L 543.3 439.183 L 551.6 439.183 L 551.6 400.857 L 559.9 400.857 L 559.9 366.015 L 568.2 366.015 L 568.2 449.636 L 576.5 449.636 L 576.5 460.088 L 584.8 460.088 L 584.8 366.015 L 593.1 366.015 L 593.1 435.699 L 601.4 435.699 L 601.4 324.205 L 609.7 324.205 L 609.7 285.879 L 618 285.879 L 618 289.363 L 626.3 289.363 L 626.3 338.142 L 634.6 338.142 L 634.6 282.395 L 642.9 282.395 L 642.9 226.648 L 651.2 226.648 L 651.2 233.616 L 659.5 233.616 L 659.5 198.775 L 667.8 198.775 L 667.8 226.648 L 676.1 226.648 L 676.1 209.227 L 684.4 209.227 L 684.4 237.101 L 692.7 237.101 L 692.7 188.322 L 701 188.322 L 701 129.091 L 709.3 129.091 L 709.3 320.721 L 717.6 320.721 L 717.6 216.195 L 725.9 216.195 L 725.9 170.901 L 734.2 170.901 L 734.2 230.132 L 742.5 230.132 L 742.5 345.11 L 750.8 345.11 L 750.8 181.354 L 759.1 181.354 L 759.1 334.658 L 767.4 334.658 L 767.4 303.3 L 775.7 303.3 L 775.7 251.037 L 784 251.037 L 784 299.816 L 792.3 299.816 L 792.3 331.173 L 800.6 331.173 L 800.6 376.468 L 808.9 376.468 L 808.9 362.531 L 817.2 362.531 L 817.2 366.015 L 825.5 366.015 L 825.5 501.898 L 833.8 501.898 L 833.8 449.636 L 842.1 449.636 L 842.1 355.563 L 850.4 355.563 L 850.4 449.636 L 858.7 449.636 L 858.7 561.129 L 867 561.129 L 867 522.803 L 875.3 522.803 L 875.3 543.708 L 883.6 543.708 L 883.6 519.319 L 891.9 519.319 L 891.9 519.319 L 900.2 519.319 L 900.2 599.455 L 908.5 599.455 L 908.5 508.867 L 916.8 508.867 L 916.8 599.455 L 925.1 599.455 L 925.1 714.433 L 933.4 714.433 L 933.4 683.076 L 941.7 683.076 L 941.7 745.791 L 950 745.791 L 950 920" stroke-width="3" stroke-dasharray="" stroke="black" stroke-opacity="1" fill="lightblue" fill-opacity="1" />
</g>
<g id="Histogram_1" clip-path="url(#Histogram_1_clip)">
    <path d="M 120 920 L 120 773.664 L 128.3 773.664 L 128.3 805.022 L 136.6 805.022 L 136.6 773.664 L 144.9 773.664 L 144.9 818.959 L 153.2 818.959 L 153.2 798.054 L 161.5 798.054 L 161.5 777.149 L 169.8 777.149 L 169.8 784.117 L 178.1 784.117 L 178.1 686.56 L 186.4 686.56 L 186.4 752.759 L 194.7 752.759 L 194.7 745.791 L 203 745.791 L 203 721.402 L 211.3 721.402 L 211.3 686.56 L 219.6 686.56 L 219.6 710.949 L 227.9 710.949 L 227.9 676.107 L 236.2 676.107 L 236.2 686.56 L 244.5 686.56 L 244.5 662.171 L 252.8 662.171 L 252.8 683.076 L 261.1 683.076 L 261.1 620.36 L 269.4 620.36 L 269.4 644.75 L 277.7 644.75 L 277.7 690.044 L 286 690.044 L 286 616.876 L 294.3 616.876 L 294.3 637.781 L 302.6 637.781 L 302.6 648.234 L 310.9 648.234 L 310.9 561.129 L 319.2 561.129 L 319.2 557.645 L 327.5 557.645 L 327.5 676.107 L 335.8 676.107 L 335.8 609.908 L 344.1 609.908 L 344.1 522.803 L 352.4 522.803 L 352.4 515.835 L 360.7 515.835 L 360.7 540.224 L 369 540.224 L 369 463.572 L 377.3 463.572 L 377.3 529.772 L 385.6 529.772 L 385.6 571.582 L 393.9 571.582 L 393.9 547.193 L 402.2 547.193 L 402.2 550.677 L 410.5 550.677 L 410.5 463.572 L 418.8 463.572 L 418.8 491.446 L 427.1 491.446 L 427.1 498.414 L 435.4 498.414 L 435.4 491.446 L 443.7 491.446 L 443.7 526.288 L 452 526.288 L 452 491.446 L 460.3 491.446 L 460.3 487.962 L 468.6 487.962 L 468.6 501.898 L 476.9 501.898 L 476.9 498.414 L 485.2 498.414 L 485.2 463.572 L 493.5 463.572 L 493.5 480.993 L 501.8 480.993 L 501.8 442.667 L 510.1 442.667 L 510.1 508.867 L 518.4 508.867 L 518.4 446.151 L 526.7 446.151 L 526.7 432.215 L 535 432.215 L 535 474.025 L 543.3 474.025 L 543.3 407.825 L 551.6 407.825 L 551.6 467.056 L 559.9 467.056 L 559.9 474.025 L 568.2 474.025 L 568.2 477.509 L 576.5 477.509 L 576.5 519.319 L 584.8 519.319 L 584.8 446.151 L 593.1 446.151 L 593.1 515.835 L 601.4 515.835 L 601.4 446.151 L 609.7 446.151 L 609.7 480.993 L 618 480.993 L 618 550.677 L 626.3 550.677 L 626.3 550.677 L 634.6 550.677 L 634.6 494.93 L 642.9 494.93 L 642.9 547.193 L 651.2 547.193 L 651.2 536.74 L 659.5 536.74 L 659.5 501.898 L 667.8 501.898 L 667.8 508.867 L 676.1 508.867 L 676.1 592.487 L 684.4 592.487 L 684.4 568.098 L 692.7 568.098 L 692.7 613.392 L 701 613.392 L 701 543.708 L 709.3 543.708 L 709.3 508.867 L 717.6 508.867 L 717.6 571.582 L 725.9 571.582 L 725.9 568.098 L 734.2 568.098 L 734.2 644.75 L 742.5 644.75 L 742.5 592.487 L 750.8 592.487 L 750.8 634.297 L 759.1 634.297 L 759.1 637.781 L 767.4 637.781 L 767.4 637.781 L 775.7 637.781 L 775.7 648.234 L 784 648.234 L 784 627.329 L 792.3 627.329 L 792.3 630.813 L 800.6 630.813 L 800.6 679.592 L 808.9 679.592 L 808.9 679.592 L 817.2 679.592 L 817.2 686.56 L 825.5 686.56 L 825.5 676.107 L 833.8 676.107 L 833.8 703.981 L 842.1 703.981 L 842.1 717.918 L 850.4 717.918 L 850.4 710.949 L 858.7 710.949 L 858.7 731.854 L 867 731.854 L 867 665.655 L 875.3 665.655 L 875.3 703.981 L 883.6 703.981 L 883.6 693.528 L 891.9 693.528 L 891.9 735.338 L 900.2 735.338 L 900.2 749.275 L 908.5 749.275 L 908.5 822.443 L 916.8 822.443 L 916.8 752.759 L 925.1 752.759 L 925.1 791.085 L 933.4 791.085 L 933.4 756.243 L 941.7 756.243 L 941.7 791.085 L 950 791.085 L 950 920" stroke-width="3" stroke-dasharray="" stroke="black" stroke-opacity="1" fill="#ff0000" fill-opacity="0.5" />
</g>
<g id="frame_0">
    <rect id="frame_0_border" x="120" y="50" width="830" height="870" />
    <g id="frame_0_bottomticks">
        <path d="M 535 920 L 535 910" />
        <path d="M 120 920 L 120 900" />
        <text font-size="30" transform="translate(120, 950)" text-anchor="middle" dominant-baseline="middle" stroke="none" fill="black">0</text>
        <path d="M 452 920 L 452 900" />
        <text font-size="30" transform="translate(452, 950)" text-anchor="middle" dominant-baseline="middle" stroke="none" fill="black">0.4</text>
        <path d="M 203 920 L 203 910" />
        <path d="M 950 920 L 950 900" />
        <text font-size="30" transform="translate(950, 950)" text-anchor="middle" dominant-baseline="middle" stroke="none" fill="black">1</text>
        <path d="M 286 920 L 286 900" />
        <text font-size="30" transform="translate(286, 950)" text-anchor="middle" dominant-baseline="middle" stroke="none" fill="black">0.2</text>
        <path d="M 618 920 L 618 900" />
        <text font-size="30" transform="translate(618, 950)" text-anchor="middle" dominant-baseline="middle" stroke="none" fill="black">0.6</text>
        <path d="M 369 920 L 369 910" />
        <path d="M 784 920 L 784 900" />
        <text font-size="30" transform="translate(784, 950)" text-anchor="middle" dominant-baseline="middle" stroke="none" fill="black">0.8</text>
        <path d="M 867 920 L 867 910" />
        <path d="M 701 920 L 701 910" />
    </g>
    <g id="frame_0_leftticks">
        <path d="M 120 920 L 140 920" />
        <text font-size="30" transform="translate(110, 930)" text-anchor="end" dominant-baseline="middle" stroke="none" fill="black">0</text>
        <path d="M 120 467.056 L 130 467.056" />
        <path d="M 120 676.107 L 130 676.107" />
        <path d="M 120 223.164 L 140 223.164" />
        <text font-size="30" transform="translate(110, 233.164)" text-anchor="end" dominant-baseline="middle" stroke="none" fill="black">200</text>
        <path d="M 120 885.158 L 130 885.158" />
        <path d="M 120 432.215 L 130 432.215" />
        <path d="M 120 641.266 L 130 641.266" />
        <path d="M 120 188.322 L 130 188.322" />
        <path d="M 120 850.316 L 130 850.316" />
        <path d="M 120 397.373 L 140 397.373" />
        <text font-size="30" transform="translate(110, 407.373)" text-anchor="end" dominant-baseline="middle" stroke="none" fill="black">150</text>
        <path d="M 120 606.424 L 130 606.424" />
        <path d="M 120 153.48 L 130 153.48" />
        <path d="M 120 815.475 L 130 815.475" />
        <path d="M 120 362.531 L 130 362.531" />
        <path d="M 120 571.582 L 140 571.582" />
        <text font-size="30" transform="translate(110, 581.582)" text-anchor="end" dominant-baseline="middle" stroke="none" fill="black">100</text>
        <path d="M 120 118.638 L 130 118.638" />
        <path d="M 120 780.633 L 130 780.633" />
        <path d="M 120 327.689 L 130 327.689" />
        <path d="M 120 536.74 L 130 536.74" />
        <path d="M 120 83.7966 L 130 83.7966" />
        <path d="M 120 745.791 L 140 745.791" />
        <text font-size="30" transform="translate(110, 755.791)" text-anchor="end" dominant-baseline="middle" stroke="none" fill="black">50</text>
        <path d="M 120 292.847 L 130 292.847" />
        <path d="M 120 501.898 L 130 501.898" />
        <path d="M 120 710.949 L 130 710.949" />
        <path d="M 120 258.006 L 130 258.006" />
    </g>
    <g id="frame_0_topticks">
        <path d="M 535 50 L 535 60" />
        <path d="M 120 50 L 120 70" />
        <path d="M 452 50 L 452 70" />
        <path d="M 203 50 L 203 60" />
        <path d="M 950 50 L 950 70" />
        <path d="M 286 50 L 286 70" />
        <path d="M 618 50 L 618 70" />
        <path d="M 369 50 L 369 60" />
        <path d="M 784 50 L 784 70" />
        <path d="M 867 50 L 867 60" />
        <path d="M 701 50 L 701 60" />
    </g>
    <g id="frame_0_rightticks">
        <path d="M 950 920 L 930 920" />
        <path d="M 950 467.056 L 940 467.056" />
        <path d="M 950 676.107 L 940 676.107" />
        <path d="M 950 223.164 L 930 223.164" />
        <path d="M 950 885.158 L 940 885.158" />
        <path d="M 950 432.215 L 940 432.215" />
        <path d="M 950 641.266 L 940 641.266" />
        <path d="M 950 188.322 L 940 188.322" />
        <path d="M 950 850.316 L 940 850.316" />
        <path d="M 950 397.373 L 930 397.373" />
        <path d="M 950 606.424 L 940 606.424" />
        <path d="M 950 153.48 L 940 153.48" />
        <path d="M 950 815.475 L 940 815.475" />
        <path d="M 950 362.531 L 940 362.531" />
        <path d="M 950 571.582 L 930 571.582" />
        <path d="M 950 118.638 L 940 118.638" />
        <path d="M 950 780.633 L 940 780.633" />
        <path d="M 950 327.689 L 940 327.689" />
        <path d="M 950 536.74 L 940 536.74" />
        <path d="M 950 83.7966 L 940 83.7966" />
        <path d="M 950 745.791 L 930 745.791" />
        <path d="M 950 292.847 L 940 292.847" />
        <path d="M 950 501.898 L 940 501.898" />
        <path d="M 950 710.949 L 940 710.949" />
        <path d="M 950 258.006 L 940 258.006" />
    </g>
</g>
</g>
</svg>
