<?xml version="1.0" standalone="no"?>
<!DOCTYPE svg PUBLIC "-//W3C//DTD SVG 1.1//EN" "http://www.w3.org/Graphics/SVG/1.1/DTD/svg11.dtd">
<svg style="stroke-linejoin:miter; stroke:black; stroke-width:2.5; text-anchor:middle; fill:none" xmlns="http://www.w3.org/2000/svg" font-family="Helvetica, Arial, FreeSans, Sans, sans, sans-serif" width="1000px" height="1000px" version="1.1" xmlns:xlink="http://www.w3.org/1999/xlink" viewBox="0 0 1000 1000">
<defs>
    <clipPath id="Scatter_0_clip">
        <rect x="120" y="50" width="830" height="870" />
    </clipPath>
    <clipPath id="Scatter_1_clip">
        <rect x="120" y="50" width="830" height="870" />
    </clipPath>
</defs>
<g id="whole_document">
<rect id="background" x="0" y="0" width="1000" height="1000" stroke="none" fill="white" />
<g id="Scatter_0" clip-path="url(#Scatter_0_clip)">
    <path d="M 189.167 847.5 L 189.859 846.774 L 190.551 846.049 L 191.244 845.323 L 191.936 844.597 L 192.628 843.871 L 193.321 843.146 L 194.013 842.42 L 194.706 841.694 L 195.398 840.968 L 196.09 840.243 L 196.783 839.517 L 197.475 838.791 L 198.167 838.066 L 198.86 837.34 L 199.552 836.614 L 200.244 835.888 L 200.937 835.163 L 201.629 834.437 L 202.321 833.711 L 203.014 832.985 L 203.706 832.26 L 204.399 831.534 L 205.091 830.808 L 205.783 830.083 L 206.476 829.357 L 207.168 828.631 L 207.86 827.905 L 208.553 827.18 L 209.245 826.454 L 209.937 825.728 L 210.63 825.003 L 211.322 824.277 L 212.015 823.551 L 212.707 822.825 L 213.399 822.1 L 214.092 821.374 L 214.784 820.648 L 215.476 819.922 L 216.169 819.197 L 216.861 818.471 L 217.553 817.745 L 218.246 817.02 L 218.938 816.294 L 219.63 815.568 L 220.323 814.842 L 221.015 814.117 L 221.708 813.391 L 222.4 812.665 L 223.092 811.939 L 223.785 811.214 L 224.477 810.488 L 225.169 809.762 L 225.862 809.037 L 226.554 808.311 L 227.246 807.585 L 227.939 806.859 L 228.631 806.134 L 229.323 805.408 L 230.016 804.682 L 230.708 803.956 L 231.401 803.231 L 232.093 802.505 L 232.785 801.779 L 233.478 801.054 L 234.17 800.328 L 234.862 799.602 L 235.555 798.876 L 236.247 798.151 L 236.939 797.425 L 237.632 796.699 L 238.324 795.973 L 239.017 795.248 L 239.709 794.522 L 240.401 793.796 L 241.094 793.071 L 241.786 792.345 L 242.478 791.619 L 243.171 790.893 L 243.863 790.168 L 244.555 789.442 L 245.248 788.716 L 245.94 787.99 L 246.632 787.265 L 247.325 786.539 L 248.017 785.813 L 248.71 785.088 L 249.402 784.362 L 250.094 783.636 L 250.787 782.91 L 251.479 782.185 L 252.171 781.459 L 252.864 780.733 L 253.556 780.008 L 254.248 779.282 L 254.941 778.556 L 255.633 777.83 L 256.325 777.105 L 257.018 776.379 L 257.71 775.653 L 258.403 774.927 L 259.095 774.202 L 259.787 773.476 L 260.48 772.75 L 261.172 772.025 L 261.864 771.299 L 262.557 770.573 L 263.249 769.847 L 263.941 769.122 L 264.634 768.396 L 265.326 767.67 L 266.019 766.944 L 266.711 766.219 L 267.403 765.493 L 268.096 764.767 L 268.788 764.042 L 269.48 763.316 L 270.173 762.59 L 270.865 761.864 L 271.557 761.139 L 272.25 760.413 L 272.942 759.687 L 273.634 758.961 L 274.327 758.236 L 275.019 757.51 L 275.712 756.784 L 276.404 756.059 L 277.096 755.333 L 277.789 754.607 L 278.481 753.881 L 279.173 753.156 L 279.866 752.43 L 280.558 751.704 L 281.25 750.978 L 281.943 750.253 L 282.635 749.527 L 283.327 748.801 L 284.02 748.076 L 284.712 747.35 L 285.405 746.624 L 286.097 745.898 L 286.789 745.173 L 287.482 744.447 L 288.174 743.721 L 288.866 742.995 L 289.559 742.27 L 290.251 741.544 L 290.943 740.818 L 291.636 740.093 L 292.328 739.367 L 293.021 738.641 L 293.713 737.915 L 294.405 737.19 L 295.098 736.464 L 295.79 735.738 L 296.482 735.013 L 297.175 734.287 L 297.867 733.561 L 298.559 732.835 L 299.252 732.11 L 299.944 731.384 L 300.636 730.658 L 301.329 729.932 L 302.021 729.207 L 302.714 728.481 L 303.406 727.755 L 304.098 727.03 L 304.791 726.304 L 305.483 725.578 L 306.175 724.852 L 306.868 724.127 L 307.56 723.401 L 308.252 722.675 L 308.945 721.949 L 309.637 721.224 L 310.329 720.498 L 311.022 719.772 L 311.714 719.047 L 312.407 718.321 L 313.099 717.595 L 313.791 716.869 L 314.484 716.144 L 315.176 715.418 L 315.868 714.692 L 316.561 713.966 L 317.253 713.241 L 317.945 712.515 L 318.638 711.789 L 319.33 711.064 L 320.023 710.338 L 320.715 709.612 L 321.407 708.886 L 322.1 708.161 L 322.792 707.435 L 323.484 706.709 L 324.177 705.983 L 324.869 705.258 L 325.561 704.532 L 326.254 703.806 L 326.946 703.081 L 327.638 702.355 L 328.331 701.629 L 329.023 700.903 L 329.716 700.178 L 330.408 699.452 L 331.1 698.726 L 331.793 698.001 L 332.485 697.275 L 333.177 696.549 L 333.87 695.823 L 334.562 695.098 L 335.254 694.372 L 335.947 693.646 L 336.639 692.92 L 337.331 692.195 L 338.024 691.469 L 338.716 690.743 L 339.409 690.018 L 340.101 689.292 L 340.793 688.566 L 341.486 687.84 L 342.178 687.115 L 342.87 686.389 L 343.563 685.663 L 344.255 684.937 L 344.947 684.212 L 345.64 683.486 L 346.332 682.76 L 347.025 682.035 L 347.717 681.309 L 348.409 680.583 L 349.102 679.857 L 349.794 679.132 L 350.486 678.406 L 351.179 677.68 L 351.871 676.954 L 352.563 676.229 L 353.256 675.503 L 353.948 674.777 L 354.64 674.052 L 355.333 673.326 L 356.025 672.6 L 356.718 671.874 L 357.41 671.149 L 358.102 670.423 L 358.795 669.697 L 359.487 668.971 L 360.179 668.246 L 360.872 667.52 L 361.564 666.794 L 362.256 666.069 L 362.949 665.343 L 363.641 664.617 L 364.334 663.891 L 365.026 663.166 L 365.718 662.44 L 366.411 661.714 L 367.103 660.988 L 367.795 660.263 L 368.488 659.537 L 369.18 658.811 L 369.872 658.086 L 370.565 657.36 L 371.257 656.634 L 371.949 655.908 L 372.642 655.183 L 373.334 654.457 L 374.027 653.731 L 374.719 653.006 L 375.411 652.28 L 376.104 651.554 L 376.796 650.828 L 377.488 650.103 L 378.181 649.377 L 378.873 648.651 L 379.565 647.925 L 380.258 647.2 L 380.95 646.474 L 381.642 645.748 L 382.335 645.023 L 383.027 644.297 L 383.72 643.571 L 384.412 642.845 L 385.104 642.12 L 385.797 641.394 L 386.489 640.668 L 387.181 639.942 L 387.874 639.217 L 388.566 638.491 L 389.258 637.765 L 389.951 637.04 L 390.643 636.314 L 391.336 635.588 L 392.028 634.862 L 392.72 634.137 L 393.413 633.411 L 394.105 632.685 L 394.797 631.959 L 395.49 631.234 L 396.182 630.508 L 396.874 629.782 L 397.567 629.057 L 398.259 628.331 L 398.951 627.605 L 399.644 626.879 L 400.336 626.154 L 401.029 625.428 L 401.721 624.702 L 402.413 623.976 L 403.106 623.251 L 403.798 622.525 L 404.49 621.799 L 405.183 621.074 L 405.875 620.348 L 406.567 619.622 L 407.26 618.896 L 407.952 618.171 L 408.644 617.445 L 409.337 616.719 L 410.029 615.993 L 410.722 615.268 L 411.414 614.542 L 412.106 613.816 L 412.799 613.091 L 413.491 612.365 L 414.183 611.639 L 414.876 610.913 L 415.568 610.188 L 416.26 609.462 L 416.953 608.736 L 417.645 608.011 L 418.338 607.285 L 419.03 606.559 L 419.722 605.833 L 420.415 605.108 L 421.107 604.382 L 421.799 603.656 L 422.492 602.93 L 423.184 602.205 L 423.876 601.479 L 424.569 600.753 L 425.261 600.028 L 425.953 599.302 L 426.646 598.576 L 427.338 597.85 L 428.031 597.125 L 428.723 596.399 L 429.415 595.673 L 430.108 594.947 L 430.8 594.222 L 431.492 593.496 L 432.185 592.77 L 432.877 592.045 L 433.569 591.319 L 434.262 590.593 L 434.954 589.867 L 435.646 589.142 L 436.339 588.416 L 437.031 587.69 L 437.724 586.964 L 438.416 586.239 L 439.108 585.513 L 439.801 584.787 L 440.493 584.062 L 441.185 583.336 L 441.878 582.61 L 442.57 581.884 L 443.262 581.159 L 443.955 580.433 L 444.647 579.707 L 445.34 578.981 L 446.032 578.256 L 446.724 577.53 L 447.417 576.804 L 448.109 576.079 L 448.801 575.353 L 449.494 574.627 L 450.186 573.901 L 450.878 573.176 L 451.571 572.45 L 452.263 571.724 L 452.955 570.998 L 453.648 570.273 L 454.34 569.547 L 455.033 568.821 L 455.725 568.096 L 456.417 567.37 L 457.11 566.644 L 457.802 565.918 L 458.494 565.193 L 459.187 564.467 L 459.879 563.741 L 460.571 563.016 L 461.264 562.29 L 461.956 561.564 L 462.648 560.838 L 463.341 560.113 L 464.033 559.387 L 464.726 558.661 L 465.418 557.935 L 466.11 557.21 L 466.803 556.484 L 467.495 555.758 L 468.187 555.033 L 468.88 554.307 L 469.572 553.581 L 470.264 552.855 L 470.957 552.13 L 471.649 551.404 L 472.342 550.678 L 473.034 549.952 L 473.726 549.227 L 474.419 548.501 L 475.111 547.775 L 475.803 547.05 L 476.496 546.324 L 477.188 545.598 L 477.88 544.872 L 478.573 544.147 L 479.265 543.421 L 479.957 542.695 L 480.65 541.969 L 481.342 541.244 L 482.035 540.518 L 482.727 539.792 L 483.419 539.067 L 484.112 538.341 L 484.804 537.615 L 485.496 536.889 L 486.189 536.164 L 486.881 535.438 L 487.573 534.712 L 488.266 533.986 L 488.958 533.261 L 489.65 532.535 L 490.343 531.809 L 491.035 531.084 L 491.728 530.358 L 492.42 529.632 L 493.112 528.906 L 493.805 528.181 L 494.497 527.455 L 495.189 526.729 L 495.882 526.004 L 496.574 525.278 L 497.266 524.552 L 497.959 523.826 L 498.651 523.101 L 499.344 522.375 L 500.036 521.649 L 500.728 520.923 L 501.421 520.198 L 502.113 519.472 L 502.805 518.746 L 503.498 518.021 L 504.19 517.295 L 504.882 516.569 L 505.575 515.843 L 506.267 515.118 L 506.959 514.392 L 507.652 513.666 L 508.344 512.94 L 509.037 512.215 L 509.729 511.489 L 510.421 510.763 L 511.114 510.038 L 511.806 509.312 L 512.498 508.586 L 513.191 507.86 L 513.883 507.135 L 514.575 506.409 L 515.268 505.683 L 515.96 504.957 L 516.652 504.232 L 517.345 503.506 L 518.037 502.78 L 518.73 502.055 L 519.422 501.329 L 520.114 500.603 L 520.807 499.877 L 521.499 499.152 L 522.191 498.426 L 522.884 497.7 L 523.576 496.974 L 524.268 496.249 L 524.961 495.523 L 525.653 494.797 L 526.346 494.072 L 527.038 493.346 L 527.73 492.62 L 528.423 491.894 L 529.115 491.169 L 529.807 490.443 L 530.5 489.717 L 531.192 488.991 L 531.884 488.266 L 532.577 487.54 L 533.269 486.814 L 533.961 486.089 L 534.654 485.363 L 535.346 484.637 L 536.039 483.911 L 536.731 483.186 L 537.423 482.46 L 538.116 481.734 L 538.808 481.009 L 539.5 480.283 L 540.193 479.557 L 540.885 478.831 L 541.577 478.106 L 542.27 477.38 L 542.962 476.654 L 543.654 475.928 L 544.347 475.203 L 545.039 474.477 L 545.732 473.751 L 546.424 473.026 L 547.116 472.3 L 547.809 471.574 L 548.501 470.848 L 549.193 470.123 L 549.886 469.397 L 550.578 468.671 L 551.27 467.945 L 551.963 467.22 L 552.655 466.494 L 553.348 465.768 L 554.04 465.043 L 554.732 464.317 L 555.425 463.591 L 556.117 462.865 L 556.809 462.14 L 557.502 461.414 L 558.194 460.688 L 558.886 459.962 L 559.579 459.237 L 560.271 458.511 L 560.963 457.785 L 561.656 457.06 L 562.348 456.334 L 563.041 455.608 L 563.733 454.882 L 564.425 454.157 L 565.118 453.431 L 565.81 452.705 L 566.502 451.979 L 567.195 451.254 L 567.887 450.528 L 568.579 449.802 L 569.272 449.077 L 569.964 448.351 L 570.656 447.625 L 571.349 446.899 L 572.041 446.174 L 572.734 445.448 L 573.426 444.722 L 574.118 443.996 L 574.811 443.271 L 575.503 442.545 L 576.195 441.819 L 576.888 441.094 L 577.58 440.368 L 578.272 439.642 L 578.965 438.916 L 579.657 438.191 L 580.35 437.465 L 581.042 436.739 L 581.734 436.014 L 582.427 435.288 L 583.119 434.562 L 583.811 433.836 L 584.504 433.111 L 585.196 432.385 L 585.888 431.659 L 586.581 430.933 L 587.273 430.208 L 587.965 429.482 L 588.658 428.756 L 589.35 428.031 L 590.043 427.305 L 590.735 426.579 L 591.427 425.853 L 592.12 425.128 L 592.812 424.402 L 593.504 423.676 L 594.197 422.95 L 594.889 422.225 L 595.581 421.499 L 596.274 420.773 L 596.966 420.048 L 597.658 419.322 L 598.351 418.596 L 599.043 417.87 L 599.736 417.145 L 600.428 416.419 L 601.12 415.693 L 601.813 414.967 L 602.505 414.242 L 603.197 413.516 L 603.89 412.79 L 604.582 412.065 L 605.274 411.339 L 605.967 410.613 L 606.659 409.887 L 607.352 409.162 L 608.044 408.436 L 608.736 407.71 L 609.429 406.984 L 610.121 406.259 L 610.813 405.533 L 611.506 404.807 L 612.198 404.082 L 612.89 403.356 L 613.583 402.63 L 614.275 401.904 L 614.967 401.179 L 615.66 400.453 L 616.352 399.727 L 617.045 399.002 L 617.737 398.276 L 618.429 397.55 L 619.122 396.824 L 619.814 396.099 L 620.506 395.373 L 621.199 394.647 L 621.891 393.921 L 622.583 393.196 L 623.276 392.47 L 623.968 391.744 L 624.66 391.019 L 625.353 390.293 L 626.045 389.567 L 626.738 388.841 L 627.43 388.116 L 628.122 387.39 L 628.815 386.664 L 629.507 385.938 L 630.199 385.213 L 630.892 384.487 L 631.584 383.761 L 632.276 383.036 L 632.969 382.31 L 633.661 381.584 L 634.354 380.858 L 635.046 380.133 L 635.738 379.407 L 636.431 378.681 L 637.123 377.955 L 637.815 377.23 L 638.508 376.504 L 639.2 375.778 L 639.892 375.053 L 640.585 374.327 L 641.277 373.601 L 641.969 372.875 L 642.662 372.15 L 643.354 371.424 L 644.047 370.698 L 644.739 369.972 L 645.431 369.247 L 646.124 368.521 L 646.816 367.795 L 647.508 367.07 L 648.201 366.344 L 648.893 365.618 L 649.585 364.892 L 650.278 364.167 L 650.97 363.441 L 651.662 362.715 L 652.355 361.989 L 653.047 361.264 L 653.74 360.538 L 654.432 359.812 L 655.124 359.087 L 655.817 358.361 L 656.509 357.635 L 657.201 356.909 L 657.894 356.184 L 658.586 355.458 L 659.278 354.732 L 659.971 354.007 L 660.663 353.281 L 661.356 352.555 L 662.048 351.829 L 662.74 351.104 L 663.433 350.378 L 664.125 349.652 L 664.817 348.926 L 665.51 348.201 L 666.202 347.475 L 666.894 346.749 L 667.587 346.024 L 668.279 345.298 L 668.971 344.572 L 669.664 343.846 L 670.356 343.121 L 671.049 342.395 L 671.741 341.669 L 672.433 340.943 L 673.126 340.218 L 673.818 339.492 L 674.51 338.766 L 675.203 338.041 L 675.895 337.315 L 676.587 336.589 L 677.28 335.863 L 677.972 335.138 L 678.664 334.412 L 679.357 333.686 L 680.049 332.96 L 680.742 332.235 L 681.434 331.509 L 682.126 330.783 L 682.819 330.058 L 683.511 329.332 L 684.203 328.606 L 684.896 327.88 L 685.588 327.155 L 686.28 326.429 L 686.973 325.703 L 687.665 324.977 L 688.358 324.252 L 689.05 323.526 L 689.742 322.8 L 690.435 322.075 L 691.127 321.349 L 691.819 320.623 L 692.512 319.897 L 693.204 319.172 L 693.896 318.446 L 694.589 317.72 L 695.281 316.994 L 695.973 316.269 L 696.666 315.543 L 697.358 314.817 L 698.051 314.092 L 698.743 313.366 L 699.435 312.64 L 700.128 311.914 L 700.82 311.189 L 701.512 310.463 L 702.205 309.737 L 702.897 309.012 L 703.589 308.286 L 704.282 307.56 L 704.974 306.834 L 705.666 306.109 L 706.359 305.383 L 707.051 304.657 L 707.744 303.931 L 708.436 303.206 L 709.128 302.48 L 709.821 301.754 L 710.513 301.029 L 711.205 300.303 L 711.898 299.577 L 712.59 298.851 L 713.282 298.126 L 713.975 297.4 L 714.667 296.674 L 715.36 295.948 L 716.052 295.223 L 716.744 294.497 L 717.437 293.771 L 718.129 293.046 L 718.821 292.32 L 719.514 291.594 L 720.206 290.868 L 720.898 290.143 L 721.591 289.417 L 722.283 288.691 L 722.975 287.965 L 723.668 287.24 L 724.36 286.514 L 725.053 285.788 L 725.745 285.063 L 726.437 284.337 L 727.13 283.611 L 727.822 282.885 L 728.514 282.16 L 729.207 281.434 L 729.899 280.708 L 730.591 279.982 L 731.284 279.257 L 731.976 278.531 L 732.669 277.805 L 733.361 277.08 L 734.053 276.354 L 734.746 275.628 L 735.438 274.902 L 736.13 274.177 L 736.823 273.451 L 737.515 272.725 L 738.207 271.999 L 738.9 271.274 L 739.592 270.548 L 740.284 269.822 L 740.977 269.097 L 741.669 268.371 L 742.362 267.645 L 743.054 266.919 L 743.746 266.194 L 744.439 265.468 L 745.131 264.742 L 745.823 264.017 L 746.516 263.291 L 747.208 262.565 L 747.9 261.839 L 748.593 261.114 L 749.285 260.388 L 749.977 259.662 L 750.67 258.936 L 751.362 258.211 L 752.055 257.485 L 752.747 256.759 L 753.439 256.034 L 754.132 255.308 L 754.824 254.582 L 755.516 253.856 L 756.209 253.131 L 756.901 252.405 L 757.593 251.679 L 758.286 250.953 L 758.978 250.228 L 759.671 249.502 L 760.363 248.776 L 761.055 248.051 L 761.748 247.325 L 762.44 246.599 L 763.132 245.873 L 763.825 245.148 L 764.517 244.422 L 765.209 243.696 L 765.902 242.97 L 766.594 242.245 L 767.286 241.519 L 767.979 240.793 L 768.671 240.068 L 769.364 239.342 L 770.056 238.616 L 770.748 237.89 L 771.441 237.165 L 772.133 236.439 L 772.825 235.713 L 773.518 234.987 L 774.21 234.262 L 774.902 233.536 L 775.595 232.81 L 776.287 232.085 L 776.979 231.359 L 777.672 230.633 L 778.364 229.907 L 779.057 229.182 L 779.749 228.456 L 780.441 227.73 L 781.134 227.005 L 781.826 226.279 L 782.518 225.553 L 783.211 224.827 L 783.903 224.102 L 784.595 223.376 L 785.288 222.65 L 785.98 221.924 L 786.673 221.199 L 787.365 220.473 L 788.057 219.747 L 788.75 219.022 L 789.442 218.296 L 790.134 217.57 L 790.827 216.844 L 791.519 216.119 L 792.211 215.393 L 792.904 214.667 L 793.596 213.941 L 794.288 213.216 L 794.981 212.49 L 795.673 211.764 L 796.366 211.039 L 797.058 210.313 L 797.75 209.587 L 798.443 208.861 L 799.135 208.136 L 799.827 207.41 L 800.52 206.684 L 801.212 205.958 L 801.904 205.233 L 802.597 204.507 L 803.289 203.781 L 803.981 203.056 L 804.674 202.33 L 805.366 201.604 L 806.059 200.878 L 806.751 200.153 L 807.443 199.427 L 808.136 198.701 L 808.828 197.975 L 809.52 197.25 L 810.213 196.524 L 810.905 195.798 L 811.597 195.073 L 812.29 194.347 L 812.982 193.621 L 813.675 192.895 L 814.367 192.17 L 815.059 191.444 L 815.752 190.718 L 816.444 189.992 L 817.136 189.267 L 817.829 188.541 L 818.521 187.815 L 819.213 187.09 L 819.906 186.364 L 820.598 185.638 L 821.29 184.912 L 821.983 184.187 L 822.675 183.461 L 823.368 182.735 L 824.06 182.01 L 824.752 181.284 L 825.445 180.558 L 826.137 179.832 L 826.829 179.107 L 827.522 178.381 L 828.214 177.655 L 828.906 176.929 L 829.599 176.204 L 830.291 175.478 L 830.983 174.752 L 831.676 174.027 L 832.368 173.301 L 833.061 172.575 L 833.753 171.849 L 834.445 171.124 L 835.138 170.398 L 835.83 169.672 L 836.522 168.946 L 837.215 168.221 L 837.907 167.495 L 838.599 166.769 L 839.292 166.044 L 839.984 165.318 L 840.677 164.592 L 841.369 163.866 L 842.061 163.141 L 842.754 162.415 L 843.446 161.689 L 844.138 160.963 L 844.831 160.238 L 845.523 159.512 L 846.215 158.786 L 846.908 158.061 L 847.6 157.335 L 848.292 156.609 L 848.985 155.883 L 849.677 155.158 L 850.37 154.432 L 851.062 153.706 L 851.754 152.98 L 852.447 152.255 L 853.139 151.529 L 853.831 150.803 L 854.524 150.078 L 855.216 149.352 L 855.908 148.626 L 856.601 147.9 L 857.293 147.175 L 857.985 146.449 L 858.678 145.723 L 859.37 144.997 L 860.063 144.272 L 860.755 143.546 L 861.447 142.82 L 862.14 142.095 L 862.832 141.369 L 863.524 140.643 L 864.217 139.917 L 864.909 139.192 L 865.601 138.466 L 866.294 137.74 L 866.986 137.015 L 867.679 136.289 L 868.371 135.563 L 869.063 134.837 L 869.756 134.112 L 870.448 133.386 L 871.14 132.66 L 871.833 131.934 L 872.525 131.209 L 873.217 130.483 L 873.91 129.757 L 874.602 129.032 L 875.294 128.306 L 875.987 127.58 L 876.679 126.854 L 877.372 126.129 L 878.064 125.403 L 878.756 124.677 L 879.449 123.951 L 880.141 123.226 L 880.833 122.5" stroke-width="3" stroke-dasharray="" stroke="black" stroke-opacity="1" fill="none" />
</g>
<g id="Scatter_1" clip-path="url(#Scatter_1_clip)">
    <path d="M 189.167 557.5 L 189.859 557.355 L 190.551 557.21 L 191.244 557.065 L 191.936 556.919 L 192.628 556.774 L 193.321 556.629 L 194.013 556.484 L 194.706 556.339 L 195.398 556.194 L 196.09 556.049 L 196.783 555.903 L 197.475 555.758 L 198.167 555.613 L 198.86 555.468 L 199.552 555.323 L 200.244 555.178 L 200.937 555.033 L 201.629 554.887 L 202.321 554.742 L 203.014 554.597 L 203.706 554.452 L 204.399 554.307 L 205.091 554.162 L 205.783 554.017 L 206.476 553.871 L 207.168 553.726 L 207.86 553.581 L 208.553 553.436 L 209.245 553.291 L 209.937 553.146 L 210.63 553.001 L 211.322 552.855 L 212.015 552.71 L 212.707 552.565 L 213.399 552.42 L 214.092 552.275 L 214.784 552.13 L 215.476 551.984 L 216.169 551.839 L 216.861 551.694 L 217.553 551.549 L 218.246 551.404 L 218.938 551.259 L 219.63 551.114 L 220.323 550.968 L 221.015 550.823 L 221.708 550.678 L 222.4 550.533 L 223.092 550.388 L 223.785 550.243 L 224.477 550.098 L 225.169 549.952 L 225.862 549.807 L 226.554 549.662 L 227.246 549.517 L 227.939 549.372 L 228.631 549.227 L 229.323 549.082 L 230.016 548.936 L 230.708 548.791 L 231.401 548.646 L 232.093 548.501 L 232.785 548.356 L 233.478 548.211 L 234.17 548.066 L 234.862 547.92 L 235.555 547.775 L 236.247 547.63 L 236.939 547.485 L 237.632 547.34 L 238.324 547.195 L 239.017 547.05 L 239.709 546.904 L 240.401 546.759 L 241.094 546.614 L 241.786 546.469 L 242.478 546.324 L 243.171 546.179 L 243.863 546.034 L 244.555 545.888 L 245.248 545.743 L 245.94 545.598 L 246.632 545.453 L 247.325 545.308 L 248.017 545.163 L 248.71 545.018 L 249.402 544.872 L 250.094 544.727 L 250.787 544.582 L 251.479 544.437 L 252.171 544.292 L 252.864 544.147 L 253.556 544.002 L 254.248 543.856 L 254.941 543.711 L 255.633 543.566 L 256.325 543.421 L 257.018 543.276 L 257.71 543.131 L 258.403 542.985 L 259.095 542.84 L 259.787 542.695 L 260.48 542.55 L 261.172 542.405 L 261.864 542.26 L 262.557 542.115 L 263.249 541.969 L 263.941 541.824 L 264.634 541.679 L 265.326 541.534 L 266.019 541.389 L 266.711 541.244 L 267.403 541.099 L 268.096 540.953 L 268.788 540.808 L 269.48 540.663 L 270.173 540.518 L 270.865 540.373 L 271.557 540.228 L 272.25 540.083 L 272.942 539.937 L 273.634 539.792 L 274.327 539.647 L 275.019 539.502 L 275.712 539.357 L 276.404 539.212 L 277.096 539.067 L 277.789 538.921 L 278.481 538.776 L 279.173 538.631 L 279.866 538.486 L 280.558 538.341 L 281.25 538.196 L 281.943 538.051 L 282.635 537.905 L 283.327 537.76 L 284.02 537.615 L 284.712 537.47 L 285.405 537.325 L 286.097 537.18 L 286.789 537.035 L 287.482 536.889 L 288.174 536.744 L 288.866 536.599 L 289.559 536.454 L 290.251 536.309 L 290.943 536.164 L 291.636 536.019 L 292.328 535.873 L 293.021 535.728 L 293.713 535.583 L 294.405 535.438 L 295.098 535.293 L 295.79 535.148 L 296.482 535.003 L 297.175 534.857 L 297.867 534.712 L 298.559 534.567 L 299.252 534.422 L 299.944 534.277 L 300.636 534.132 L 301.329 533.986 L 302.021 533.841 L 302.714 533.696 L 303.406 533.551 L 304.098 533.406 L 304.791 533.261 L 305.483 533.116 L 306.175 532.97 L 306.868 532.825 L 307.56 532.68 L 308.252 532.535 L 308.945 532.39 L 309.637 532.245 L 310.329 532.1 L 311.022 531.954 L 311.714 531.809 L 312.407 531.664 L 313.099 531.519 L 313.791 531.374 L 314.484 531.229 L 315.176 531.084 L 315.868 530.938 L 316.561 530.793 L 317.253 530.648 L 317.945 530.503 L 318.638 530.358 L 319.33 530.213 L 320.023 530.068 L 320.715 529.922 L 321.407 529.777 L 322.1 529.632 L 322.792 529.487 L 323.484 529.342 L 324.177 529.197 L 324.869 529.052 L 325.561 528.906 L 326.254 528.761 L 326.946 528.616 L 327.638 528.471 L 328.331 528.326 L 329.023 528.181 L 329.716 528.036 L 330.408 527.89 L 331.1 527.745 L 331.793 527.6 L 332.485 527.455 L 333.177 527.31 L 333.87 527.165 L 334.562 527.02 L 335.254 526.874 L 335.947 526.729 L 336.639 526.584 L 337.331 526.439 L 338.024 526.294 L 338.716 526.149 L 339.409 526.004 L 340.101 525.858 L 340.793 525.713 L 341.486 525.568 L 342.178 525.423 L 342.87 525.278 L 343.563 525.133 L 344.255 524.987 L 344.947 524.842 L 345.64 524.697 L 346.332 524.552 L 347.025 524.407 L 347.717 524.262 L 348.409 524.117 L 349.102 523.971 L 349.794 523.826 L 350.486 523.681 L 351.179 523.536 L 351.871 523.391 L 352.563 523.246 L 353.256 523.101 L 353.948 522.955 L 354.64 522.81 L 355.333 522.665 L 356.025 522.52 L 356.718 522.375 L 357.41 522.23 L 358.102 522.085 L 358.795 521.939 L 359.487 521.794 L 360.179 521.649 L 360.872 521.504 L 361.564 521.359 L 362.256 521.214 L 362.949 521.069 L 363.641 520.923 L 364.334 520.778 L 365.026 520.633 L 365.718 520.488 L 366.411 520.343 L 367.103 520.198 L 367.795 520.053 L 368.488 519.907 L 369.18 519.762 L 369.872 519.617 L 370.565 519.472 L 371.257 519.327 L 371.949 519.182 L 372.642 519.037 L 373.334 518.891 L 374.027 518.746 L 374.719 518.601 L 375.411 518.456 L 376.104 518.311 L 376.796 518.166 L 377.488 518.021 L 378.181 517.875 L 378.873 517.73 L 379.565 517.585 L 380.258 517.44 L 380.95 517.295 L 381.642 517.15 L 382.335 517.005 L 383.027 516.859 L 383.72 516.714 L 384.412 516.569 L 385.104 516.424 L 385.797 516.279 L 386.489 516.134 L 387.181 515.988 L 387.874 515.843 L 388.566 515.698 L 389.258 515.553 L 389.951 515.408 L 390.643 515.263 L 391.336 515.118 L 392.028 514.972 L 392.72 514.827 L 393.413 514.682 L 394.105 514.537 L 394.797 514.392 L 395.49 514.247 L 396.182 514.102 L 396.874 513.956 L 397.567 513.811 L 398.259 513.666 L 398.951 513.521 L 399.644 513.376 L 400.336 513.231 L 401.029 513.086 L 401.721 512.94 L 402.413 512.795 L 403.106 512.65 L 403.798 512.505 L 404.49 512.36 L 405.183 512.215 L 405.875 512.07 L 406.567 511.924 L 407.26 511.779 L 407.952 511.634 L 408.644 511.489 L 409.337 511.344 L 410.029 511.199 L 410.722 511.054 L 411.414 510.908 L 412.106 510.763 L 412.799 510.618 L 413.491 510.473 L 414.183 510.328 L 414.876 510.183 L 415.568 510.038 L 416.26 509.892 L 416.953 509.747 L 417.645 509.602 L 418.338 509.457 L 419.03 509.312 L 419.722 509.167 L 420.415 509.022 L 421.107 508.876 L 421.799 508.731 L 422.492 508.586 L 423.184 508.441 L 423.876 508.296 L 424.569 508.151 L 425.261 508.006 L 425.953 507.86 L 426.646 507.715 L 427.338 507.57 L 428.031 507.425 L 428.723 507.28 L 429.415 507.135 L 430.108 506.989 L 430.8 506.844 L 431.492 506.699 L 432.185 506.554 L 432.877 506.409 L 433.569 506.264 L 434.262 506.119 L 434.954 505.973 L 435.646 505.828 L 436.339 505.683 L 437.031 505.538 L 437.724 505.393 L 438.416 505.248 L 439.108 505.103 L 439.801 504.957 L 440.493 504.812 L 441.185 504.667 L 441.878 504.522 L 442.57 504.377 L 443.262 504.232 L 443.955 504.087 L 444.647 503.941 L 445.34 503.796 L 446.032 503.651 L 446.724 503.506 L 447.417 503.361 L 448.109 503.216 L 448.801 503.071 L 449.494 502.925 L 450.186 502.78 L 450.878 502.635 L 451.571 502.49 L 452.263 502.345 L 452.955 502.2 L 453.648 502.055 L 454.34 501.909 L 455.033 501.764 L 455.725 501.619 L 456.417 501.474 L 457.11 501.329 L 457.802 501.184 L 458.494 501.039 L 459.187 500.893 L 459.879 500.748 L 460.571 500.603 L 461.264 500.458 L 461.956 500.313 L 462.648 500.168 L 463.341 500.023 L 464.033 499.877 L 464.726 499.732 L 465.418 499.587 L 466.11 499.442 L 466.803 499.297 L 467.495 499.152 L 468.187 499.007 L 468.88 498.861 L 469.572 498.716 L 470.264 498.571 L 470.957 498.426 L 471.649 498.281 L 472.342 498.136 L 473.034 497.99 L 473.726 497.845 L 474.419 497.7 L 475.111 497.555 L 475.803 497.41 L 476.496 497.265 L 477.188 497.12 L 477.88 496.974 L 478.573 496.829 L 479.265 496.684 L 479.957 496.539 L 480.65 496.394 L 481.342 496.249 L 482.035 496.104 L 482.727 495.958 L 483.419 495.813 L 484.112 495.668 L 484.804 495.523 L 485.496 495.378 L 486.189 495.233 L 486.881 495.088 L 487.573 494.942 L 488.266 494.797 L 488.958 494.652 L 489.65 494.507 L 490.343 494.362 L 491.035 494.217 L 491.728 494.072 L 492.42 493.926 L 493.112 493.781 L 493.805 493.636 L 494.497 493.491 L 495.189 493.346 L 495.882 493.201 L 496.574 493.056 L 497.266 492.91 L 497.959 492.765 L 498.651 492.62 L 499.344 492.475 L 500.036 492.33 L 500.728 492.185 L 501.421 492.04 L 502.113 491.894 L 502.805 491.749 L 503.498 491.604 L 504.19 491.459 L 504.882 491.314 L 505.575 491.169 L 506.267 491.024 L 506.959 490.878 L 507.652 490.733 L 508.344 490.588 L 509.037 490.443 L 509.729 490.298 L 510.421 490.153 L 511.114 490.008 L 511.806 489.862 L 512.498 489.717 L 513.191 489.572 L 513.883 489.427 L 514.575 489.282 L 515.268 489.137 L 515.96 488.991 L 516.652 488.846 L 517.345 488.701 L 518.037 488.556 L 518.73 488.411 L 519.422 488.266 L 520.114 488.121 L 520.807 487.975 L 521.499 487.83 L 522.191 487.685 L 522.884 487.54 L 523.576 487.395 L 524.268 487.25 L 524.961 487.105 L 525.653 486.959 L 526.346 486.814 L 527.038 486.669 L 527.73 486.524 L 528.423 486.379 L 529.115 486.234 L 529.807 486.089 L 530.5 485.943 L 531.192 485.798 L 531.884 485.653 L 532.577 485.508 L 533.269 485.363 L 533.961 485.218 L 534.654 485.073 L 535.346 484.927 L 536.039 484.782 L 536.731 484.637 L 537.423 484.492 L 538.116 484.347 L 538.808 484.202 L 539.5 484.057 L 540.193 483.911 L 540.885 483.766 L 541.577 483.621 L 542.27 483.476 L 542.962 483.331 L 543.654 483.186 L 544.347 483.041 L 545.039 482.895 L 545.732 482.75 L 546.424 482.605 L 547.116 482.46 L 547.809 482.315 L 548.501 482.17 L 549.193 482.025 L 549.886 481.879 L 550.578 481.734 L 551.27 481.589 L 551.963 481.444 L 552.655 481.299 L 553.348 481.154 L 554.04 481.009 L 554.732 480.863 L 555.425 480.718 L 556.117 480.573 L 556.809 480.428 L 557.502 480.283 L 558.194 480.138 L 558.886 479.992 L 559.579 479.847 L 560.271 479.702 L 560.963 479.557 L 561.656 479.412 L 562.348 479.267 L 563.041 479.122 L 563.733 478.976 L 564.425 478.831 L 565.118 478.686 L 565.81 478.541 L 566.502 478.396 L 567.195 478.251 L 567.887 478.106 L 568.579 477.96 L 569.272 477.815 L 569.964 477.67 L 570.656 477.525 L 571.349 477.38 L 572.041 477.235 L 572.734 477.09 L 573.426 476.944 L 574.118 476.799 L 574.811 476.654 L 575.503 476.509 L 576.195 476.364 L 576.888 476.219 L 577.58 476.074 L 578.272 475.928 L 578.965 475.783 L 579.657 475.638 L 580.35 475.493 L 581.042 475.348 L 581.734 475.203 L 582.427 475.058 L 583.119 474.912 L 583.811 474.767 L 584.504 474.622 L 585.196 474.477 L 585.888 474.332 L 586.581 474.187 L 587.273 474.042 L 587.965 473.896 L 588.658 473.751 L 589.35 473.606 L 590.043 473.461 L 590.735 473.316 L 591.427 473.171 L 592.12 473.026 L 592.812 472.88 L 593.504 472.735 L 594.197 472.59 L 594.889 472.445 L 595.581 472.3 L 596.274 472.155 L 596.966 472.01 L 597.658 471.864 L 598.351 471.719 L 599.043 471.574 L 599.736 471.429 L 600.428 471.284 L 601.12 471.139 L 601.813 470.993 L 602.505 470.848 L 603.197 470.703 L 603.89 470.558 L 604.582 470.413 L 605.274 470.268 L 605.967 470.123 L 606.659 469.977 L 607.352 469.832 L 608.044 469.687 L 608.736 469.542 L 609.429 469.397 L 610.121 469.252 L 610.813 469.107 L 611.506 468.961 L 612.198 468.816 L 612.89 468.671 L 613.583 468.526 L 614.275 468.381 L 614.967 468.236 L 615.66 468.091 L 616.352 467.945 L 617.045 467.8 L 617.737 467.655 L 618.429 467.51 L 619.122 467.365 L 619.814 467.22 L 620.506 467.075 L 621.199 466.929 L 621.891 466.784 L 622.583 466.639 L 623.276 466.494 L 623.968 466.349 L 624.66 466.204 L 625.353 466.059 L 626.045 465.913 L 626.738 465.768 L 627.43 465.623 L 628.122 465.478 L 628.815 465.333 L 629.507 465.188 L 630.199 465.043 L 630.892 464.897 L 631.584 464.752 L 632.276 464.607 L 632.969 464.462 L 633.661 464.317 L 634.354 464.172 L 635.046 464.027 L 635.738 463.881 L 636.431 463.736 L 637.123 463.591 L 637.815 463.446 L 638.508 463.301 L 639.2 463.156 L 639.892 463.011 L 640.585 462.865 L 641.277 462.72 L 641.969 462.575 L 642.662 462.43 L 643.354 462.285 L 644.047 462.14 L 644.739 461.994 L 645.431 461.849 L 646.124 461.704 L 646.816 461.559 L 647.508 461.414 L 648.201 461.269 L 648.893 461.124 L 649.585 460.978 L 650.278 460.833 L 650.97 460.688 L 651.662 460.543 L 652.355 460.398 L 653.047 460.253 L 653.74 460.108 L 654.432 459.962 L 655.124 459.817 L 655.817 459.672 L 656.509 459.527 L 657.201 459.382 L 657.894 459.237 L 658.586 459.092 L 659.278 458.946 L 659.971 458.801 L 660.663 458.656 L 661.356 458.511 L 662.048 458.366 L 662.74 458.221 L 663.433 458.076 L 664.125 457.93 L 664.817 457.785 L 665.51 457.64 L 666.202 457.495 L 666.894 457.35 L 667.587 457.205 L 668.279 457.06 L 668.971 456.914 L 669.664 456.769 L 670.356 456.624 L 671.049 456.479 L 671.741 456.334 L 672.433 456.189 L 673.126 456.044 L 673.818 455.898 L 674.51 455.753 L 675.203 455.608 L 675.895 455.463 L 676.587 455.318 L 677.28 455.173 L 677.972 455.028 L 678.664 454.882 L 679.357 454.737 L 680.049 454.592 L 680.742 454.447 L 681.434 454.302 L 682.126 454.157 L 682.819 454.012 L 683.511 453.866 L 684.203 453.721 L 684.896 453.576 L 685.588 453.431 L 686.28 453.286 L 686.973 453.141 L 687.665 452.995 L 688.358 452.85 L 689.05 452.705 L 689.742 452.56 L 690.435 452.415 L 691.127 452.27 L 691.819 452.125 L 692.512 451.979 L 693.204 451.834 L 693.896 451.689 L 694.589 451.544 L 695.281 451.399 L 695.973 451.254 L 696.666 451.109 L 697.358 450.963 L 698.051 450.818 L 698.743 450.673 L 699.435 450.528 L 700.128 450.383 L 700.82 450.238 L 701.512 450.093 L 702.205 449.947 L 702.897 449.802 L 703.589 449.657 L 704.282 449.512 L 704.974 449.367 L 705.666 449.222 L 706.359 449.077 L 707.051 448.931 L 707.744 448.786 L 708.436 448.641 L 709.128 448.496 L 709.821 448.351 L 710.513 448.206 L 711.205 448.061 L 711.898 447.915 L 712.59 447.77 L 713.282 447.625 L 713.975 447.48 L 714.667 447.335 L 715.36 447.19 L 716.052 447.045 L 716.744 446.899 L 717.437 446.754 L 718.129 446.609 L 718.821 446.464 L 719.514 446.319 L 720.206 446.174 L 720.898 446.029 L 721.591 445.883 L 722.283 445.738 L 722.975 445.593 L 723.668 445.448 L 724.36 445.303 L 725.053 445.158 L 725.745 445.013 L 726.437 444.867 L 727.13 444.722 L 727.822 444.577 L 728.514 444.432 L 729.207 444.287 L 729.899 444.142 L 730.591 443.996 L 731.284 443.851 L 731.976 443.706 L 732.669 443.561 L 733.361 443.416 L 734.053 443.271 L 734.746 443.126 L 735.438 442.98 L 736.13 442.835 L 736.823 442.69 L 737.515 442.545 L 738.207 442.4 L 738.9 442.255 L 739.592 442.11 L 740.284 441.964 L 740.977 441.819 L 741.669 441.674 L 742.362 441.529 L 743.054 441.384 L 743.746 441.239 L 744.439 441.094 L 745.131 440.948 L 745.823 440.803 L 746.516 440.658 L 747.208 440.513 L 747.9 440.368 L 748.593 440.223 L 749.285 440.078 L 749.977 439.932 L 750.67 439.787 L 751.362 439.642 L 752.055 439.497 L 752.747 439.352 L 753.439 439.207 L 754.132 439.062 L 754.824 438.916 L 755.516 438.771 L 756.209 438.626 L 756.901 438.481 L 757.593 438.336 L 758.286 438.191 L 758.978 438.046 L 759.671 437.9 L 760.363 437.755 L 761.055 437.61 L 761.748 437.465 L 762.44 437.32 L 763.132 437.175 L 763.825 437.03 L 764.517 436.884 L 765.209 436.739 L 765.902 436.594 L 766.594 436.449 L 767.286 436.304 L 767.979 436.159 L 768.671 436.014 L 769.364 435.868 L 770.056 435.723 L 770.748 435.578 L 771.441 435.433 L 772.133 435.288 L 772.825 435.143 L 773.518 434.997 L 774.21 434.852 L 774.902 434.707 L 775.595 434.562 L 776.287 434.417 L 776.979 434.272 L 777.672 434.127 L 778.364 433.981 L 779.057 433.836 L 779.749 433.691 L 780.441 433.546 L 781.134 433.401 L 781.826 433.256 L 782.518 433.111 L 783.211 432.965 L 783.903 432.82 L 784.595 432.675 L 785.288 432.53 L 785.98 432.385 L 786.673 432.24 L 787.365 432.095 L 788.057 431.949 L 788.75 431.804 L 789.442 431.659 L 790.134 431.514 L 790.827 431.369 L 791.519 431.224 L 792.211 431.079 L 792.904 430.933 L 793.596 430.788 L 794.288 430.643 L 794.981 430.498 L 795.673 430.353 L 796.366 430.208 L 797.058 430.063 L 797.75 429.917 L 798.443 429.772 L 799.135 429.627 L 799.827 429.482 L 800.52 429.337 L 801.212 429.192 L 801.904 429.047 L 802.597 428.901 L 803.289 428.756 L 803.981 428.611 L 804.674 428.466 L 805.366 428.321 L 806.059 428.176 L 806.751 428.031 L 807.443 427.885 L 808.136 427.74 L 808.828 427.595 L 809.52 427.45 L 810.213 427.305 L 810.905 427.16 L 811.597 427.015 L 812.29 426.869 L 812.982 426.724 L 813.675 426.579 L 814.367 426.434 L 815.059 426.289 L 815.752 426.144 L 816.444 425.998 L 817.136 425.853 L 817.829 425.708 L 818.521 425.563 L 819.213 425.418 L 819.906 425.273 L 820.598 425.128 L 821.29 424.982 L 821.983 424.837 L 822.675 424.692 L 823.368 424.547 L 824.06 424.402 L 824.752 424.257 L 825.445 424.112 L 826.137 423.966 L 826.829 423.821 L 827.522 423.676 L 828.214 423.531 L 828.906 423.386 L 829.599 423.241 L 830.291 423.096 L 830.983 422.95 L 831.676 422.805 L 832.368 422.66 L 833.061 422.515 L 833.753 422.37 L 834.445 422.225 L 835.138 422.08 L 835.83 421.934 L 836.522 421.789 L 837.215 421.644 L 837.907 421.499 L 838.599 421.354 L 839.292 421.209 L 839.984 421.064 L 840.677 420.918 L 841.369 420.773 L 842.061 420.628 L 842.754 420.483 L 843.446 420.338 L 844.138 420.193 L 844.831 420.048 L 845.523 419.902 L 846.215 419.757 L 846.908 419.612 L 847.6 419.467 L 848.292 419.322 L 848.985 419.177 L 849.677 419.032 L 850.37 418.886 L 851.062 418.741 L 851.754 418.596 L 852.447 418.451 L 853.139 418.306 L 853.831 418.161 L 854.524 418.016 L 855.216 417.87 L 855.908 417.725 L 856.601 417.58 L 857.293 417.435 L 857.985 417.29 L 858.678 417.145 L 859.37 416.999 L 860.063 416.854 L 860.755 416.709 L 861.447 416.564 L 862.14 416.419 L 862.832 416.274 L 863.524 416.129 L 864.217 415.983 L 864.909 415.838 L 865.601 415.693 L 866.294 415.548 L 866.986 415.403 L 867.679 415.258 L 868.371 415.113 L 869.063 414.967 L 869.756 414.822 L 870.448 414.677 L 871.14 414.532 L 871.833 414.387 L 872.525 414.242 L 873.217 414.097 L 873.91 413.951 L 874.602 413.806 L 875.294 413.661 L 875.987 413.516 L 876.679 413.371 L 877.372 413.226 L 878.064 413.081 L 878.756 412.935 L 879.449 412.79 L 880.141 412.645 L 880.833 412.5" stroke-width="3" stroke-dasharray="" stroke="black" stroke-opacity="1" fill="none" />
</g>
<g id="frame_0">
    <rect id="frame_0_border" x="120" y="50" width="830" height="870" />
    <g id="frame_0_bottomticks">
        <path d="M 189.167 920 L 189.167 900" />
        <text font-size="30" transform="translate(189.167, 950)" text-anchor="middle" dominant-baseline="middle" stroke="none" fill="black">0</text>
        <path d="M 362.083 920 L 362.083 900" />
        <text font-size="30" transform="translate(362.083, 950)" text-anchor="middle" dominant-baseline="middle" stroke="none" fill="black">0.5</text>
        <path d="M 811.667 920 L 811.667 910" />
        <path d="M 396.667 920 L 396.667 910" />
        <path d="M 707.917 920 L 707.917 900" />
        <text font-size="30" transform="translate(707.917, 950)" text-anchor="middle" dominant-baseline="middle" stroke="none" fill="black">1.5</text>
        <path d="M 535 920 L 535 900" />
        <text font-size="30" transform="translate(535, 950)" text-anchor="middle" dominant-baseline="middle" stroke="none" fill="black">1</text>
        <path d="M 604.167 920 L 604.167 910" />
        <path d="M 880.833 920 L 880.833 900" />
        <text font-size="30" transform="translate(880.833, 950)" text-anchor="middle" dominant-baseline="middle" stroke="none" fill="black">2</text>
        <path d="M 777.083 920 L 777.083 910" />
        <path d="M 223.75 920 L 223.75 910" />
        <path d="M 292.917 920 L 292.917 910" />
        <path d="M 673.333 920 L 673.333 910" />
        <path d="M 846.25 920 L 846.25 910" />
        <path d="M 120 920 L 120 910" />
        <path d="M 742.5 920 L 742.5 910" />
        <path d="M 431.25 920 L 431.25 910" />
        <path d="M 258.333 920 L 258.333 910" />
        <path d="M 327.5 920 L 327.5 910" />
        <path d="M 500.417 920 L 500.417 910" />
        <path d="M 638.75 920 L 638.75 910" />
        <path d="M 569.583 920 L 569.583 910" />
        <path d="M 915.417 920 L 915.417 910" />
        <path d="M 465.833 920 L 465.833 910" />
        <path d="M 154.583 920 L 154.583 910" />
    </g>
    <g id="frame_0_leftticks">
        <path d="M 120 920 L 140 920" />
        <text font-size="30" transform="translate(110, 930)" text-anchor="end" dominant-baseline="middle" stroke="none" fill="black">0</text>
        <path d="M 120 847.5 L 130 847.5" />
        <path d="M 120 775 L 140 775" />
        <text font-size="30" transform="translate(110, 785)" text-anchor="end" dominant-baseline="middle" stroke="none" fill="black">2</text>
        <path d="M 120 702.5 L 130 702.5" />
        <path d="M 120 630 L 140 630" />
        <text font-size="30" transform="translate(110, 640)" text-anchor="end" dominant-baseline="middle" stroke="none" fill="black">4</text>
        <path d="M 120 557.5 L 130 557.5" />
        <path d="M 120 485 L 140 485" />
        <text font-size="30" transform="translate(110, 495)" text-anchor="end" dominant-baseline="middle" stroke="none" fill="black">6</text>
        <path d="M 120 412.5 L 130 412.5" />
        <path d="M 120 340 L 140 340" />
        <text font-size="30" transform="translate(110, 350)" text-anchor="end" dominant-baseline="middle" stroke="none" fill="black">8</text>
        <path d="M 120 267.5 L 130 267.5" />
        <path d="M 120 195 L 140 195" />
        <text font-size="30" transform="translate(110, 205)" text-anchor="end" dominant-baseline="middle" stroke="none" fill="black">10</text>
        <path d="M 120 122.5 L 130 122.5" />
        <path d="M 120 50 L 140 50" />
        <text font-size="30" transform="translate(110, 60)" text-anchor="end" dominant-baseline="middle" stroke="none" fill="black">12</text>
    </g>
    <g id="frame_0_topticks">
        <path d="M 189.167 50 L 189.167 70" />
        <path d="M 362.083 50 L 362.083 70" />
        <path d="M 811.667 50 L 811.667 60" />
        <path d="M 396.667 50 L 396.667 60" />
        <path d="M 707.917 50 L 707.917 70" />
        <path d="M 535 50 L 535 70" />
        <path d="M 604.167 50 L 604.167 60" />
        <path d="M 880.833 50 L 880.833 70" />
        <path d="M 777.083 50 L 777.083 60" />
        <path d="M 223.75 50 L 223.75 60" />
        <path d="M 292.917 50 L 292.917 60" />
        <path d="M 673.333 50 L 673.333 60" />
        <path d="M 846.25 50 L 846.25 60" />
        <path d="M 120 50 L 120 60" />
        <path d="M 742.5 50 L 742.5 60" />
        <path d="M 431.25 50 L 431.25 60" />
        <path d="M 258.333 50 L 258.333 60" />
        <path d="M 327.5 50 L 327.5 60" />
        <path d="M 500.417 50 L 500.417 60" />
        <path d="M 638.75 50 L 638.75 60" />
        <path d="M 569.583 50 L 569.583 60" />
        <path d="M 915.417 50 L 915.417 60" />
        <path d="M 465.833 50 L 465.833 60" />
        <path d="M 154.583 50 L 154.583 60" />
    </g>
    <g id="frame_0_rightticks">
        <path d="M 950 920 L 930 920" />
        <path d="M 950 847.5 L 940 847.5" />
        <path d="M 950 775 L 930 775" />
        <path d="M 950 702.5 L 940 702.5" />
        <path d="M 950 630 L 930 630" />
        <path d="M 950 557.5 L 940 557.5" />
        <path d="M 950 485 L 930 485" />
        <path d="M 950 412.5 L 940 412.5" />
        <path d="M 950 340 L 930 340" />
        <path d="M 950 267.5 L 940 267.5" />
        <path d="M 950 195 L 930 195" />
        <path d="M 950 122.5 L 940 122.5" />
        <path d="M 950 50 L 930 50" />
    </g>
</g>
</g>
</svg>
