<?xml version="1.0" standalone="no"?>
<!DOCTYPE svg PUBLIC "-//W3C//DTD SVG 1.1//EN" "http://www.w3.org/Graphics/SVG/1.1/DTD/svg11.dtd">
<svg style="stroke-linejoin:miter; stroke:black; stroke-width:2.5; text-anchor:middle; fill:none" xmlns="http://www.w3.org/2000/svg" font-family="Helvetica, Arial, FreeSans, Sans, sans, sans-serif" width="1000px" height="1000px" version="1.1" xmlns:xlink="http://www.w3.org/1999/xlink" viewBox="0 0 1000 1000">
<defs>
    <clipPath id="Scatter_0_clip">
        <rect x="120" y="50" width="830" height="870" />
    </clipPath>
</defs>
<g id="whole_document">
<rect id="background" x="0" y="0" width="1000" height="1000" stroke="none" fill="white" />
<g id="Scatter_0" clip-path="url(#Scatter_0_clip)">
    <path d="M 189.167 411.82 L 189.859 406.539 L 190.551 401.472 L 191.244 396.627 L 191.936 392.012 L 192.628 387.635 L 193.321 383.502 L 194.013 379.621 L 194.706 375.998 L 195.398 372.639 L 196.09 369.549 L 196.783 366.734 L 197.475 364.199 L 198.167 361.948 L 198.86 359.985 L 199.552 358.314 L 200.244 356.937 L 200.937 355.858 L 201.629 355.078 L 202.321 354.6 L 203.014 354.424 L 203.706 354.552 L 204.399 354.984 L 205.091 355.719 L 205.783 356.758 L 206.476 358.099 L 207.168 359.741 L 207.86 361.681 L 208.553 363.918 L 209.245 366.449 L 209.937 369.27 L 210.63 372.377 L 211.322 375.767 L 212.015 379.435 L 212.707 383.375 L 213.399 387.582 L 214.092 392.051 L 214.784 396.775 L 215.476 401.746 L 216.169 406.96 L 216.861 412.406 L 217.553 418.079 L 218.246 423.97 L 218.938 430.069 L 219.63 436.369 L 220.323 442.86 L 221.015 449.532 L 221.708 456.376 L 222.4 463.382 L 223.092 470.539 L 223.785 477.837 L 224.477 485.265 L 225.169 492.812 L 225.862 500.467 L 226.554 508.217 L 227.246 516.053 L 227.939 523.962 L 228.631 531.931 L 229.323 539.95 L 230.016 548.006 L 230.708 556.087 L 231.401 564.181 L 232.093 572.275 L 232.785 580.358 L 233.478 588.416 L 234.17 596.439 L 234.862 604.412 L 235.555 612.326 L 236.247 620.166 L 236.939 627.922 L 237.632 635.58 L 238.324 643.131 L 239.017 650.561 L 239.709 657.86 L 240.401 665.016 L 241.094 672.018 L 241.786 678.855 L 242.478 685.517 L 243.171 691.992 L 243.863 698.272 L 244.555 704.345 L 245.248 710.203 L 245.94 715.837 L 246.632 721.236 L 247.325 726.393 L 248.017 731.299 L 248.71 735.947 L 249.402 740.328 L 250.094 744.436 L 250.787 748.264 L 251.479 751.806 L 252.171 755.055 L 252.864 758.006 L 253.556 760.655 L 254.248 762.995 L 254.941 765.024 L 255.633 766.738 L 256.325 768.133 L 257.018 769.206 L 257.71 769.956 L 258.403 770.38 L 259.095 770.477 L 259.787 770.246 L 260.48 769.687 L 261.172 768.801 L 261.864 767.586 L 262.557 766.045 L 263.249 764.18 L 263.941 761.992 L 264.634 759.483 L 265.326 756.658 L 266.019 753.519 L 266.711 750.07 L 267.403 746.316 L 268.096 742.262 L 268.788 737.914 L 269.48 733.276 L 270.173 728.355 L 270.865 723.159 L 271.557 717.693 L 272.25 711.966 L 272.942 705.985 L 273.634 699.759 L 274.327 693.297 L 275.019 686.607 L 275.712 679.699 L 276.404 672.583 L 277.096 665.269 L 277.789 657.767 L 278.481 650.088 L 279.173 642.242 L 279.866 634.241 L 280.558 626.097 L 281.25 617.822 L 281.943 609.426 L 282.635 600.923 L 283.327 592.324 L 284.02 583.642 L 284.712 574.89 L 285.405 566.08 L 286.097 557.226 L 286.789 548.339 L 287.482 539.434 L 288.174 530.523 L 288.866 521.619 L 289.559 512.736 L 290.251 503.886 L 290.943 495.083 L 291.636 486.339 L 292.328 477.668 L 293.021 469.082 L 293.713 460.595 L 294.405 452.218 L 295.098 443.965 L 295.79 435.847 L 296.482 427.877 L 297.175 420.068 L 297.867 412.429 L 298.559 404.974 L 299.252 397.714 L 299.944 390.659 L 300.636 383.821 L 301.329 377.209 L 302.021 370.834 L 302.714 364.706 L 303.406 358.834 L 304.098 353.228 L 304.791 347.896 L 305.483 342.846 L 306.175 338.087 L 306.868 333.627 L 307.56 329.471 L 308.252 325.628 L 308.945 322.103 L 309.637 318.902 L 310.329 316.031 L 311.022 313.495 L 311.714 311.298 L 312.407 309.444 L 313.099 307.936 L 313.791 306.778 L 314.484 305.972 L 315.176 305.521 L 315.868 305.425 L 316.561 305.686 L 317.253 306.303 L 317.945 307.279 L 318.638 308.61 L 319.33 310.298 L 320.023 312.339 L 320.715 314.733 L 321.407 317.476 L 322.1 320.566 L 322.792 323.999 L 323.484 327.771 L 324.177 331.877 L 324.869 336.312 L 325.561 341.072 L 326.254 346.15 L 326.946 351.539 L 327.638 357.233 L 328.331 363.224 L 329.023 369.506 L 329.716 376.069 L 330.408 382.905 L 331.1 390.006 L 331.793 397.361 L 332.485 404.961 L 333.177 412.797 L 333.87 420.857 L 334.562 429.132 L 335.254 437.609 L 335.947 446.278 L 336.639 455.127 L 337.331 464.144 L 338.024 473.317 L 338.716 482.634 L 339.409 492.082 L 340.101 501.648 L 340.793 511.319 L 341.486 521.082 L 342.178 530.925 L 342.87 540.832 L 343.563 550.792 L 344.255 560.789 L 344.947 570.812 L 345.64 580.845 L 346.332 590.876 L 347.025 600.889 L 347.717 610.873 L 348.409 620.812 L 349.102 630.693 L 349.794 640.503 L 350.486 650.228 L 351.179 659.855 L 351.871 669.369 L 352.563 678.759 L 353.256 688.01 L 353.948 697.11 L 354.64 706.047 L 355.333 714.808 L 356.025 723.38 L 356.718 731.752 L 357.41 739.911 L 358.102 747.847 L 358.795 755.548 L 359.487 763.004 L 360.179 770.203 L 360.872 777.136 L 361.564 783.792 L 362.256 790.162 L 362.949 796.237 L 363.641 802.008 L 364.334 807.467 L 365.026 812.606 L 365.718 817.417 L 366.411 821.893 L 367.103 826.027 L 367.795 829.814 L 368.488 833.246 L 369.18 836.32 L 369.872 839.03 L 370.565 841.371 L 371.257 843.34 L 371.949 844.934 L 372.642 846.149 L 373.334 846.983 L 374.027 847.434 L 374.719 847.5 L 375.411 847.181 L 376.104 846.475 L 376.796 845.384 L 377.488 843.907 L 378.181 842.046 L 378.873 839.801 L 379.565 837.176 L 380.258 834.171 L 380.95 830.791 L 381.642 827.039 L 382.335 822.918 L 383.027 818.433 L 383.72 813.588 L 384.412 808.39 L 385.104 802.842 L 385.797 796.953 L 386.489 790.727 L 387.181 784.173 L 387.874 777.296 L 388.566 770.106 L 389.258 762.61 L 389.951 754.817 L 390.643 746.734 L 391.336 738.373 L 392.028 729.741 L 392.72 720.849 L 393.413 711.707 L 394.105 702.326 L 394.797 692.715 L 395.49 682.886 L 396.182 672.85 L 396.874 662.618 L 397.567 652.202 L 398.259 641.613 L 398.951 630.864 L 399.644 619.967 L 400.336 608.934 L 401.029 597.776 L 401.721 586.508 L 402.413 575.14 L 403.106 563.687 L 403.798 552.16 L 404.49 540.572 L 405.183 528.936 L 405.875 517.265 L 406.567 505.572 L 407.26 493.869 L 407.952 482.168 L 408.644 470.483 L 409.337 458.826 L 410.029 447.21 L 410.722 435.646 L 411.414 424.147 L 412.106 412.725 L 412.799 401.392 L 413.491 390.159 L 414.183 379.039 L 414.876 368.042 L 415.568 357.179 L 416.26 346.462 L 416.953 335.901 L 417.645 325.506 L 418.338 315.288 L 419.03 305.256 L 419.722 295.42 L 420.415 285.79 L 421.107 276.373 L 421.799 267.179 L 422.492 258.216 L 423.184 249.492 L 423.876 241.015 L 424.569 232.791 L 425.261 224.828 L 425.953 217.131 L 426.646 209.708 L 427.338 202.564 L 428.031 195.705 L 428.723 189.134 L 429.415 182.857 L 430.108 176.879 L 430.8 171.202 L 431.492 165.83 L 432.185 160.766 L 432.877 156.013 L 433.569 151.572 L 434.262 147.446 L 434.954 143.636 L 435.646 140.143 L 436.339 136.967 L 437.031 134.108 L 437.724 131.567 L 438.416 129.342 L 439.108 127.433 L 439.801 125.838 L 440.493 124.555 L 441.185 123.583 L 441.878 122.918 L 442.57 122.558 L 443.262 122.5 L 443.955 122.74 L 444.647 123.274 L 445.34 124.098 L 446.032 125.207 L 446.724 126.597 L 447.417 128.263 L 448.109 130.198 L 448.801 132.398 L 449.494 134.857 L 450.186 137.568 L 450.878 140.525 L 451.571 143.72 L 452.263 147.149 L 452.955 150.802 L 453.648 154.674 L 454.34 158.756 L 455.033 163.041 L 455.725 167.521 L 456.417 172.188 L 457.11 177.035 L 457.802 182.053 L 458.494 187.234 L 459.187 192.569 L 459.879 198.05 L 460.571 203.669 L 461.264 209.417 L 461.956 215.285 L 462.648 221.266 L 463.341 227.35 L 464.033 233.529 L 464.726 239.794 L 465.418 246.137 L 466.11 252.55 L 466.803 259.023 L 467.495 265.549 L 468.187 272.119 L 468.88 278.725 L 469.572 285.359 L 470.264 292.013 L 470.957 298.68 L 471.649 305.351 L 472.342 312.018 L 473.034 318.675 L 473.726 325.314 L 474.419 331.929 L 475.111 338.511 L 475.803 345.055 L 476.496 351.554 L 477.188 358.002 L 477.88 364.391 L 478.573 370.718 L 479.265 376.975 L 479.957 383.158 L 480.65 389.261 L 481.342 395.279 L 482.035 401.208 L 482.727 407.043 L 483.419 412.779 L 484.112 418.413 L 484.804 423.941 L 485.496 429.36 L 486.189 434.665 L 486.881 439.855 L 487.573 444.927 L 488.266 449.878 L 488.958 454.705 L 489.65 459.407 L 490.343 463.983 L 491.035 468.43 L 491.728 472.748 L 492.42 476.935 L 493.112 480.991 L 493.805 484.916 L 494.497 488.708 L 495.189 492.369 L 495.882 495.898 L 496.574 499.296 L 497.266 502.563 L 497.959 505.701 L 498.651 508.71 L 499.344 511.592 L 500.036 514.347 L 500.728 516.979 L 501.421 519.488 L 502.113 521.876 L 502.805 524.146 L 503.498 526.3 L 504.19 528.341 L 504.882 530.27 L 505.575 532.091 L 506.267 533.806 L 506.959 535.419 L 507.652 536.932 L 508.344 538.348 L 509.037 539.671 L 509.729 540.904 L 510.421 542.051 L 511.114 543.113 L 511.806 544.096 L 512.498 545.002 L 513.191 545.835 L 513.883 546.598 L 514.575 547.295 L 515.268 547.929 L 515.96 548.504 L 516.652 549.022 L 517.345 549.489 L 518.037 549.906 L 518.73 550.277 L 519.422 550.606 L 520.114 550.896 L 520.807 551.149 L 521.499 551.368 L 522.191 551.557 L 522.884 551.719 L 523.576 551.856 L 524.268 551.97 L 524.961 552.065 L 525.653 552.142 L 526.346 552.204 L 527.038 552.253 L 527.73 552.291 L 528.423 552.32 L 529.115 552.34 L 529.807 552.355 L 530.5 552.365 L 531.192 552.371 L 531.884 552.375 L 532.577 552.377 L 533.269 552.378 L 533.961 552.378 L 534.654 552.378 L 535.346 552.378 L 536.039 552.378 L 536.731 552.378 L 537.423 552.377 L 538.116 552.375 L 538.808 552.371 L 539.5 552.365 L 540.193 552.355 L 540.885 552.34 L 541.577 552.32 L 542.27 552.291 L 542.962 552.253 L 543.654 552.204 L 544.347 552.142 L 545.039 552.065 L 545.732 551.97 L 546.424 551.856 L 547.116 551.719 L 547.809 551.557 L 548.501 551.368 L 549.193 551.149 L 549.886 550.896 L 550.578 550.606 L 551.27 550.277 L 551.963 549.906 L 552.655 549.489 L 553.348 549.022 L 554.04 548.504 L 554.732 547.929 L 555.425 547.295 L 556.117 546.598 L 556.809 545.835 L 557.502 545.002 L 558.194 544.096 L 558.886 543.113 L 559.579 542.051 L 560.271 540.904 L 560.963 539.671 L 561.656 538.348 L 562.348 536.932 L 563.041 535.419 L 563.733 533.806 L 564.425 532.091 L 565.118 530.27 L 565.81 528.341 L 566.502 526.3 L 567.195 524.146 L 567.887 521.876 L 568.579 519.488 L 569.272 516.979 L 569.964 514.347 L 570.656 511.592 L 571.349 508.71 L 572.041 505.701 L 572.734 502.563 L 573.426 499.296 L 574.118 495.898 L 574.811 492.369 L 575.503 488.708 L 576.195 484.916 L 576.888 480.991 L 577.58 476.935 L 578.272 472.748 L 578.965 468.43 L 579.657 463.983 L 580.35 459.407 L 581.042 454.705 L 581.734 449.878 L 582.427 444.927 L 583.119 439.855 L 583.811 434.665 L 584.504 429.36 L 585.196 423.941 L 585.888 418.413 L 586.581 412.779 L 587.273 407.043 L 587.965 401.208 L 588.658 395.279 L 589.35 389.261 L 590.043 383.158 L 590.735 376.975 L 591.427 370.718 L 592.12 364.391 L 592.812 358.002 L 593.504 351.554 L 594.197 345.055 L 594.889 338.511 L 595.581 331.929 L 596.274 325.314 L 596.966 318.675 L 597.658 312.018 L 598.351 305.351 L 599.043 298.68 L 599.736 292.013 L 600.428 285.359 L 601.12 278.725 L 601.813 272.119 L 602.505 265.549 L 603.197 259.023 L 603.89 252.55 L 604.582 246.137 L 605.274 239.794 L 605.967 233.529 L 606.659 227.35 L 607.352 221.266 L 608.044 215.285 L 608.736 209.417 L 609.429 203.669 L 610.121 198.05 L 610.813 192.569 L 611.506 187.234 L 612.198 182.053 L 612.89 177.035 L 613.583 172.188 L 614.275 167.521 L 614.967 163.041 L 615.66 158.756 L 616.352 154.674 L 617.045 150.802 L 617.737 147.149 L 618.429 143.72 L 619.122 140.525 L 619.814 137.568 L 620.506 134.857 L 621.199 132.398 L 621.891 130.198 L 622.583 128.263 L 623.276 126.597 L 623.968 125.207 L 624.66 124.098 L 625.353 123.274 L 626.045 122.74 L 626.738 122.5 L 627.43 122.558 L 628.122 122.918 L 628.815 123.583 L 629.507 124.555 L 630.199 125.838 L 630.892 127.433 L 631.584 129.342 L 632.276 131.567 L 632.969 134.108 L 633.661 136.967 L 634.354 140.143 L 635.046 143.636 L 635.738 147.446 L 636.431 151.572 L 637.123 156.013 L 637.815 160.766 L 638.508 165.83 L 639.2 171.202 L 639.892 176.879 L 640.585 182.857 L 641.277 189.134 L 641.969 195.705 L 642.662 202.564 L 643.354 209.708 L 644.047 217.131 L 644.739 224.828 L 645.431 232.791 L 646.124 241.015 L 646.816 249.492 L 647.508 258.216 L 648.201 267.179 L 648.893 276.373 L 649.585 285.79 L 650.278 295.42 L 650.97 305.256 L 651.662 315.288 L 652.355 325.506 L 653.047 335.901 L 653.74 346.462 L 654.432 357.179 L 655.124 368.042 L 655.817 379.039 L 656.509 390.159 L 657.201 401.392 L 657.894 412.725 L 658.586 424.147 L 659.278 435.646 L 659.971 447.21 L 660.663 458.826 L 661.356 470.483 L 662.048 482.168 L 662.74 493.869 L 663.433 505.572 L 664.125 517.265 L 664.817 528.936 L 665.51 540.572 L 666.202 552.16 L 666.894 563.687 L 667.587 575.14 L 668.279 586.508 L 668.971 597.776 L 669.664 608.934 L 670.356 619.967 L 671.049 630.864 L 671.741 641.613 L 672.433 652.202 L 673.126 662.618 L 673.818 672.85 L 674.51 682.886 L 675.203 692.715 L 675.895 702.326 L 676.587 711.707 L 677.28 720.849 L 677.972 729.741 L 678.664 738.373 L 679.357 746.734 L 680.049 754.817 L 680.742 762.61 L 681.434 770.106 L 682.126 777.296 L 682.819 784.173 L 683.511 790.727 L 684.203 796.953 L 684.896 802.842 L 685.588 808.39 L 686.28 813.588 L 686.973 818.433 L 687.665 822.918 L 688.358 827.039 L 689.05 830.791 L 689.742 834.171 L 690.435 837.176 L 691.127 839.801 L 691.819 842.046 L 692.512 843.907 L 693.204 845.384 L 693.896 846.475 L 694.589 847.181 L 695.281 847.5 L 695.973 847.434 L 696.666 846.983 L 697.358 846.149 L 698.051 844.934 L 698.743 843.34 L 699.435 841.371 L 700.128 839.03 L 700.82 836.32 L 701.512 833.246 L 702.205 829.814 L 702.897 826.027 L 703.589 821.893 L 704.282 817.417 L 704.974 812.606 L 705.666 807.467 L 706.359 802.008 L 707.051 796.237 L 707.744 790.162 L 708.436 783.792 L 709.128 777.136 L 709.821 770.203 L 710.513 763.004 L 711.205 755.548 L 711.898 747.847 L 712.59 739.911 L 713.282 731.752 L 713.975 723.38 L 714.667 714.808 L 715.36 706.047 L 716.052 697.11 L 716.744 688.01 L 717.437 678.759 L 718.129 669.369 L 718.821 659.855 L 719.514 650.228 L 720.206 640.503 L 720.898 630.693 L 721.591 620.812 L 722.283 610.873 L 722.975 600.889 L 723.668 590.876 L 724.36 580.845 L 725.053 570.812 L 725.745 560.789 L 726.437 550.792 L 727.13 540.832 L 727.822 530.925 L 728.514 521.082 L 729.207 511.319 L 729.899 501.648 L 730.591 492.082 L 731.284 482.634 L 731.976 473.317 L 732.669 464.144 L 733.361 455.127 L 734.053 446.278 L 734.746 437.609 L 735.438 429.132 L 736.13 420.857 L 736.823 412.797 L 737.515 404.961 L 738.207 397.361 L 738.9 390.006 L 739.592 382.905 L 740.284 376.069 L 740.977 369.506 L 741.669 363.224 L 742.362 357.233 L 743.054 351.539 L 743.746 346.15 L 744.439 341.072 L 745.131 336.312 L 745.823 331.877 L 746.516 327.771 L 747.208 323.999 L 747.9 320.566 L 748.593 317.476 L 749.285 314.733 L 749.977 312.339 L 750.67 310.298 L 751.362 308.61 L 752.055 307.279 L 752.747 306.303 L 753.439 305.686 L 754.132 305.425 L 754.824 305.521 L 755.516 305.972 L 756.209 306.778 L 756.901 307.936 L 757.593 309.444 L 758.286 311.298 L 758.978 313.495 L 759.671 316.031 L 760.363 318.902 L 761.055 322.103 L 761.748 325.628 L 762.44 329.471 L 763.132 333.627 L 763.825 338.087 L 764.517 342.846 L 765.209 347.896 L 765.902 353.228 L 766.594 358.834 L 767.286 364.706 L 767.979 370.834 L 768.671 377.209 L 769.364 383.821 L 770.056 390.659 L 770.748 397.714 L 771.441 404.974 L 772.133 412.429 L 772.825 420.068 L 773.518 427.877 L 774.21 435.847 L 774.902 443.965 L 775.595 452.218 L 776.287 460.595 L 776.979 469.082 L 777.672 477.668 L 778.364 486.339 L 779.057 495.083 L 779.749 503.886 L 780.441 512.736 L 781.134 521.619 L 781.826 530.523 L 782.518 539.434 L 783.211 548.339 L 783.903 557.226 L 784.595 566.08 L 785.288 574.89 L 785.98 583.642 L 786.673 592.324 L 787.365 600.923 L 788.057 609.426 L 788.75 617.822 L 789.442 626.097 L 790.134 634.241 L 790.827 642.242 L 791.519 650.088 L 792.211 657.767 L 792.904 665.269 L 793.596 672.583 L 794.288 679.699 L 794.981 686.607 L 795.673 693.297 L 796.366 699.759 L 797.058 705.985 L 797.75 711.966 L 798.443 717.693 L 799.135 723.159 L 799.827 728.355 L 800.52 733.276 L 801.212 737.914 L 801.904 742.262 L 802.597 746.316 L 803.289 750.07 L 803.981 753.519 L 804.674 756.658 L 805.366 759.483 L 806.059 761.992 L 806.751 764.18 L 807.443 766.045 L 808.136 767.586 L 808.828 768.801 L 809.52 769.687 L 810.213 770.246 L 810.905 770.477 L 811.597 770.38 L 812.29 769.956 L 812.982 769.206 L 813.675 768.133 L 814.367 766.738 L 815.059 765.024 L 815.752 762.995 L 816.444 760.655 L 817.136 758.006 L 817.829 755.055 L 818.521 751.806 L 819.213 748.264 L 819.906 744.436 L 820.598 740.328 L 821.29 735.947 L 821.983 731.299 L 822.675 726.393 L 823.368 721.236 L 824.06 715.837 L 824.752 710.203 L 825.445 704.345 L 826.137 698.272 L 826.829 691.992 L 827.522 685.517 L 828.214 678.855 L 828.906 672.018 L 829.599 665.016 L 830.291 657.86 L 830.983 650.561 L 831.676 643.131 L 832.368 635.58 L 833.061 627.922 L 833.753 620.166 L 834.445 612.326 L 835.138 604.412 L 835.83 596.439 L 836.522 588.416 L 837.215 580.358 L 837.907 572.275 L 838.599 564.181 L 839.292 556.087 L 839.984 548.006 L 840.677 539.95 L 841.369 531.931 L 842.061 523.962 L 842.754 516.053 L 843.446 508.217 L 844.138 500.467 L 844.831 492.812 L 845.523 485.265 L 846.215 477.837 L 846.908 470.539 L 847.6 463.382 L 848.292 456.376 L 848.985 449.532 L 849.677 442.86 L 850.37 436.369 L 851.062 430.069 L 851.754 423.97 L 852.447 418.079 L 853.139 412.406 L 853.831 406.96 L 854.524 401.746 L 855.216 396.775 L 855.908 392.051 L 856.601 387.582 L 857.293 383.375 L 857.985 379.435 L 858.678 375.767 L 859.37 372.377 L 860.063 369.27 L 860.755 366.449 L 861.447 363.918 L 862.14 361.681 L 862.832 359.741 L 863.524 358.099 L 864.217 356.758 L 864.909 355.719 L 865.601 354.984 L 866.294 354.552 L 866.986 354.424 L 867.679 354.6 L 868.371 355.078 L 869.063 355.858 L 869.756 356.937 L 870.448 358.314 L 871.14 359.985 L 871.833 361.948 L 872.525 364.199 L 873.217 366.734 L 873.91 369.549 L 874.602 372.639 L 875.294 375.998 L 875.987 379.621 L 876.679 383.502 L 877.372 387.635 L 878.064 392.012 L 878.756 396.627 L 879.449 401.472 L 880.141 406.539 L 880.833 411.82" stroke-width="3" stroke-dasharray="" stroke="black" stroke-opacity="1" fill="none" />
</g>
<g id="frame_0">
    <rect id="frame_0_border" x="120" y="50" width="830" height="870" />
    <g id="frame_0_bottomticks">
        <path d="M 535 920 L 535 900" />
        <text font-size="30" transform="translate(535, 950)" text-anchor="middle" dominant-baseline="middle" stroke="none" fill="black">0</text>
        <path d="M 552.292 920 L 552.292 910" />
        <path d="M 569.583 920 L 569.583 910" />
        <path d="M 586.875 920 L 586.875 910" />
        <path d="M 604.167 920 L 604.167 910" />
        <path d="M 621.458 920 L 621.458 900" />
        <text font-size="30" transform="translate(621.458, 950)" text-anchor="middle" dominant-baseline="middle" stroke="none" fill="black">5</text>
        <path d="M 638.75 920 L 638.75 910" />
        <path d="M 656.042 920 L 656.042 910" />
        <path d="M 673.333 920 L 673.333 910" />
        <path d="M 690.625 920 L 690.625 910" />
        <path d="M 707.917 920 L 707.917 900" />
        <text font-size="30" transform="translate(707.917, 950)" text-anchor="middle" dominant-baseline="middle" stroke="none" fill="black">10</text>
        <path d="M 725.208 920 L 725.208 910" />
        <path d="M 742.5 920 L 742.5 910" />
        <path d="M 759.792 920 L 759.792 910" />
        <path d="M 777.083 920 L 777.083 910" />
        <path d="M 794.375 920 L 794.375 900" />
        <text font-size="30" transform="translate(794.375, 950)" text-anchor="middle" dominant-baseline="middle" stroke="none" fill="black">15</text>
        <path d="M 811.667 920 L 811.667 910" />
        <path d="M 828.958 920 L 828.958 910" />
        <path d="M 846.25 920 L 846.25 910" />
        <path d="M 863.542 920 L 863.542 910" />
        <path d="M 880.833 920 L 880.833 900" />
        <text font-size="30" transform="translate(880.833, 950)" text-anchor="middle" dominant-baseline="middle" stroke="none" fill="black">20</text>
        <path d="M 898.125 920 L 898.125 910" />
        <path d="M 915.417 920 L 915.417 910" />
        <path d="M 932.708 920 L 932.708 910" />
        <path d="M 500.417 920 L 500.417 910" />
        <path d="M 120 920 L 120 910" />
        <path d="M 137.292 920 L 137.292 910" />
        <path d="M 154.583 920 L 154.583 910" />
        <path d="M 171.875 920 L 171.875 910" />
        <path d="M 189.167 920 L 189.167 900" />
        <text font-size="30" transform="translate(189.167, 950)" text-anchor="middle" dominant-baseline="middle" stroke="none" fill="black">‒20</text>
        <path d="M 206.458 920 L 206.458 910" />
        <path d="M 223.75 920 L 223.75 910" />
        <path d="M 241.042 920 L 241.042 910" />
        <path d="M 258.333 920 L 258.333 910" />
        <path d="M 275.625 920 L 275.625 900" />
        <text font-size="30" transform="translate(275.625, 950)" text-anchor="middle" dominant-baseline="middle" stroke="none" fill="black">‒15</text>
        <path d="M 292.917 920 L 292.917 910" />
        <path d="M 310.208 920 L 310.208 910" />
        <path d="M 327.5 920 L 327.5 910" />
        <path d="M 344.792 920 L 344.792 910" />
        <path d="M 362.083 920 L 362.083 900" />
        <text font-size="30" transform="translate(362.083, 950)" text-anchor="middle" dominant-baseline="middle" stroke="none" fill="black">‒10</text>
        <path d="M 379.375 920 L 379.375 910" />
        <path d="M 396.667 920 L 396.667 910" />
        <path d="M 413.958 920 L 413.958 910" />
        <path d="M 431.25 920 L 431.25 910" />
        <path d="M 448.542 920 L 448.542 900" />
        <text font-size="30" transform="translate(448.542, 950)" text-anchor="middle" dominant-baseline="middle" stroke="none" fill="black">‒5</text>
        <path d="M 465.833 920 L 465.833 910" />
        <path d="M 483.125 920 L 483.125 910" />
        <path d="M 517.708 920 L 517.708 910" />
    </g>
    <g id="frame_0_leftticks">
        <path d="M 120 283.461 L 130 283.461" />
        <path d="M 120 821.294 L 130 821.294" />
        <path d="M 120 466.325 L 130 466.325" />
        <path d="M 120 251.192 L 130 251.192" />
        <path d="M 120 702.971 L 130 702.971" />
        <path d="M 120 401.785 L 130 401.785" />
        <path d="M 120 434.055 L 130 434.055" />
        <path d="M 120 885.834 L 130 885.834" />
        <path d="M 120 358.758 L 130 358.758" />
        <path d="M 120 111.355 L 130 111.355" />
        <path d="M 120 918.104 L 130 918.104" />
        <path d="M 120 832.051 L 130 832.051" />
        <path d="M 120 229.678 L 140 229.678" />
        <text font-size="30" transform="translate(110, 239.678)" text-anchor="end" dominant-baseline="middle" stroke="none" fill="black">0.3</text>
        <path d="M 120 616.918 L 130 616.918" />
        <path d="M 120 487.838 L 130 487.838" />
        <path d="M 120 659.944 L 140 659.944" />
        <text font-size="30" transform="translate(110, 669.944)" text-anchor="end" dominant-baseline="middle" stroke="none" fill="black">‒0.1</text>
        <path d="M 120 175.895 L 130 175.895" />
        <path d="M 120 606.161 L 130 606.161" />
        <path d="M 120 122.112 L 140 122.112" />
        <text font-size="30" transform="translate(110, 132.112)" text-anchor="end" dominant-baseline="middle" stroke="none" fill="black">0.4</text>
        <path d="M 120 767.511 L 140 767.511" />
        <text font-size="30" transform="translate(110, 777.511)" text-anchor="end" dominant-baseline="middle" stroke="none" fill="black">‒0.2</text>
        <path d="M 120 541.621 L 130 541.621" />
        <path d="M 120 552.378 L 140 552.378" />
        <text font-size="30" transform="translate(110, 562.378)" text-anchor="end" dominant-baseline="middle" stroke="none" fill="black">0</text>
        <path d="M 120 337.245 L 140 337.245" />
        <text font-size="30" transform="translate(110, 347.245)" text-anchor="end" dominant-baseline="middle" stroke="none" fill="black">0.2</text>
        <path d="M 120 186.652 L 130 186.652" />
        <path d="M 120 240.435 L 130 240.435" />
        <path d="M 120 799.781 L 130 799.781" />
        <path d="M 120 853.564 L 130 853.564" />
        <path d="M 120 294.218 L 130 294.218" />
        <path d="M 120 412.541 L 130 412.541" />
        <path d="M 120 304.975 L 130 304.975" />
        <path d="M 120 520.108 L 130 520.108" />
        <path d="M 120 842.808 L 130 842.808" />
        <path d="M 120 509.351 L 130 509.351" />
        <path d="M 120 68.3284 L 130 68.3284" />
        <path d="M 120 713.728 L 130 713.728" />
        <path d="M 120 530.865 L 130 530.865" />
        <path d="M 120 423.298 L 130 423.298" />
        <path d="M 120 563.135 L 130 563.135" />
        <path d="M 120 907.347 L 130 907.347" />
        <path d="M 120 315.731 L 130 315.731" />
        <path d="M 120 745.998 L 130 745.998" />
        <path d="M 120 218.922 L 130 218.922" />
        <path d="M 120 455.568 L 130 455.568" />
        <path d="M 120 789.024 L 130 789.024" />
        <path d="M 120 197.408 L 130 197.408" />
        <path d="M 120 778.268 L 130 778.268" />
        <path d="M 120 638.431 L 130 638.431" />
        <path d="M 120 391.028 L 130 391.028" />
        <path d="M 120 724.484 L 130 724.484" />
        <path d="M 120 143.625 L 130 143.625" />
        <path d="M 120 326.488 L 130 326.488" />
        <path d="M 120 810.538 L 130 810.538" />
        <path d="M 120 100.598 L 130 100.598" />
        <path d="M 120 165.138 L 130 165.138" />
        <path d="M 120 692.214 L 130 692.214" />
        <path d="M 120 380.271 L 130 380.271" />
        <path d="M 120 864.321 L 130 864.321" />
        <path d="M 120 735.241 L 130 735.241" />
        <path d="M 120 896.591 L 130 896.591" />
        <path d="M 120 584.648 L 130 584.648" />
        <path d="M 120 444.811 L 140 444.811" />
        <text font-size="30" transform="translate(110, 454.811)" text-anchor="end" dominant-baseline="middle" stroke="none" fill="black">0.1</text>
        <path d="M 120 498.595 L 130 498.595" />
        <path d="M 120 261.948 L 130 261.948" />
        <path d="M 120 595.404 L 130 595.404" />
        <path d="M 120 79.085 L 130 79.085" />
        <path d="M 120 154.382 L 130 154.382" />
        <path d="M 120 756.754 L 130 756.754" />
        <path d="M 120 681.458 L 130 681.458" />
        <path d="M 120 57.5717 L 130 57.5717" />
        <path d="M 120 132.868 L 130 132.868" />
        <path d="M 120 369.515 L 130 369.515" />
        <path d="M 120 272.705 L 130 272.705" />
        <path d="M 120 573.891 L 130 573.891" />
        <path d="M 120 649.188 L 130 649.188" />
        <path d="M 120 670.701 L 130 670.701" />
        <path d="M 120 875.078 L 140 875.078" />
        <text font-size="30" transform="translate(110, 885.078)" text-anchor="end" dominant-baseline="middle" stroke="none" fill="black">‒0.3</text>
        <path d="M 120 627.674 L 130 627.674" />
        <path d="M 120 348.001 L 130 348.001" />
        <path d="M 120 477.081 L 130 477.081" />
        <path d="M 120 89.8417 L 130 89.8417" />
        <path d="M 120 208.165 L 130 208.165" />
    </g>
    <g id="frame_0_topticks">
        <path d="M 535 50 L 535 70" />
        <path d="M 552.292 50 L 552.292 60" />
        <path d="M 569.583 50 L 569.583 60" />
        <path d="M 586.875 50 L 586.875 60" />
        <path d="M 604.167 50 L 604.167 60" />
        <path d="M 621.458 50 L 621.458 70" />
        <path d="M 638.75 50 L 638.75 60" />
        <path d="M 656.042 50 L 656.042 60" />
        <path d="M 673.333 50 L 673.333 60" />
        <path d="M 690.625 50 L 690.625 60" />
        <path d="M 707.917 50 L 707.917 70" />
        <path d="M 725.208 50 L 725.208 60" />
        <path d="M 742.5 50 L 742.5 60" />
        <path d="M 759.792 50 L 759.792 60" />
        <path d="M 777.083 50 L 777.083 60" />
        <path d="M 794.375 50 L 794.375 70" />
        <path d="M 811.667 50 L 811.667 60" />
        <path d="M 828.958 50 L 828.958 60" />
        <path d="M 846.25 50 L 846.25 60" />
        <path d="M 863.542 50 L 863.542 60" />
        <path d="M 880.833 50 L 880.833 70" />
        <path d="M 898.125 50 L 898.125 60" />
        <path d="M 915.417 50 L 915.417 60" />
        <path d="M 932.708 50 L 932.708 60" />
        <path d="M 500.417 50 L 500.417 60" />
        <path d="M 120 50 L 120 60" />
        <path d="M 137.292 50 L 137.292 60" />
        <path d="M 154.583 50 L 154.583 60" />
        <path d="M 171.875 50 L 171.875 60" />
        <path d="M 189.167 50 L 189.167 70" />
        <path d="M 206.458 50 L 206.458 60" />
        <path d="M 223.75 50 L 223.75 60" />
        <path d="M 241.042 50 L 241.042 60" />
        <path d="M 258.333 50 L 258.333 60" />
        <path d="M 275.625 50 L 275.625 70" />
        <path d="M 292.917 50 L 292.917 60" />
        <path d="M 310.208 50 L 310.208 60" />
        <path d="M 327.5 50 L 327.5 60" />
        <path d="M 344.792 50 L 344.792 60" />
        <path d="M 362.083 50 L 362.083 70" />
        <path d="M 379.375 50 L 379.375 60" />
        <path d="M 396.667 50 L 396.667 60" />
        <path d="M 413.958 50 L 413.958 60" />
        <path d="M 431.25 50 L 431.25 60" />
        <path d="M 448.542 50 L 448.542 70" />
        <path d="M 465.833 50 L 465.833 60" />
        <path d="M 483.125 50 L 483.125 60" />
        <path d="M 517.708 50 L 517.708 60" />
    </g>
    <g id="frame_0_rightticks">
        <path d="M 950 283.461 L 940 283.461" />
        <path d="M 950 821.294 L 940 821.294" />
        <path d="M 950 466.325 L 940 466.325" />
        <path d="M 950 251.192 L 940 251.192" />
        <path d="M 950 702.971 L 940 702.971" />
        <path d="M 950 401.785 L 940 401.785" />
        <path d="M 950 434.055 L 940 434.055" />
        <path d="M 950 885.834 L 940 885.834" />
        <path d="M 950 358.758 L 940 358.758" />
        <path d="M 950 111.355 L 940 111.355" />
        <path d="M 950 918.104 L 940 918.104" />
        <path d="M 950 832.051 L 940 832.051" />
        <path d="M 950 229.678 L 930 229.678" />
        <path d="M 950 616.918 L 940 616.918" />
        <path d="M 950 487.838 L 940 487.838" />
        <path d="M 950 659.944 L 930 659.944" />
        <path d="M 950 175.895 L 940 175.895" />
        <path d="M 950 606.161 L 940 606.161" />
        <path d="M 950 122.112 L 930 122.112" />
        <path d="M 950 767.511 L 930 767.511" />
        <path d="M 950 541.621 L 940 541.621" />
        <path d="M 950 552.378 L 930 552.378" />
        <path d="M 950 337.245 L 930 337.245" />
        <path d="M 950 186.652 L 940 186.652" />
        <path d="M 950 240.435 L 940 240.435" />
        <path d="M 950 799.781 L 940 799.781" />
        <path d="M 950 853.564 L 940 853.564" />
        <path d="M 950 294.218 L 940 294.218" />
        <path d="M 950 412.541 L 940 412.541" />
        <path d="M 950 304.975 L 940 304.975" />
        <path d="M 950 520.108 L 940 520.108" />
        <path d="M 950 842.808 L 940 842.808" />
        <path d="M 950 509.351 L 940 509.351" />
        <path d="M 950 68.3284 L 940 68.3284" />
        <path d="M 950 713.728 L 940 713.728" />
        <path d="M 950 530.865 L 940 530.865" />
        <path d="M 950 423.298 L 940 423.298" />
        <path d="M 950 563.135 L 940 563.135" />
        <path d="M 950 907.347 L 940 907.347" />
        <path d="M 950 315.731 L 940 315.731" />
        <path d="M 950 745.998 L 940 745.998" />
        <path d="M 950 218.922 L 940 218.922" />
        <path d="M 950 455.568 L 940 455.568" />
        <path d="M 950 789.024 L 940 789.024" />
        <path d="M 950 197.408 L 940 197.408" />
        <path d="M 950 778.268 L 940 778.268" />
        <path d="M 950 638.431 L 940 638.431" />
        <path d="M 950 391.028 L 940 391.028" />
        <path d="M 950 724.484 L 940 724.484" />
        <path d="M 950 143.625 L 940 143.625" />
        <path d="M 950 326.488 L 940 326.488" />
        <path d="M 950 810.538 L 940 810.538" />
        <path d="M 950 100.598 L 940 100.598" />
        <path d="M 950 165.138 L 940 165.138" />
        <path d="M 950 692.214 L 940 692.214" />
        <path d="M 950 380.271 L 940 380.271" />
        <path d="M 950 864.321 L 940 864.321" />
        <path d="M 950 735.241 L 940 735.241" />
        <path d="M 950 896.591 L 940 896.591" />
        <path d="M 950 584.648 L 940 584.648" />
        <path d="M 950 444.811 L 930 444.811" />
        <path d="M 950 498.595 L 940 498.595" />
        <path d="M 950 261.948 L 940 261.948" />
        <path d="M 950 595.404 L 940 595.404" />
        <path d="M 950 79.085 L 940 79.085" />
        <path d="M 950 154.382 L 940 154.382" />
        <path d="M 950 756.754 L 940 756.754" />
        <path d="M 950 681.458 L 940 681.458" />
        <path d="M 950 57.5717 L 940 57.5717" />
        <path d="M 950 132.868 L 940 132.868" />
        <path d="M 950 369.515 L 940 369.515" />
        <path d="M 950 272.705 L 940 272.705" />
        <path d="M 950 573.891 L 940 573.891" />
        <path d="M 950 649.188 L 940 649.188" />
        <path d="M 950 670.701 L 940 670.701" />
        <path d="M 950 875.078 L 930 875.078" />
        <path d="M 950 627.674 L 940 627.674" />
        <path d="M 950 348.001 L 940 348.001" />
        <path d="M 950 477.081 L 940 477.081" />
        <path d="M 950 89.8417 L 940 89.8417" />
        <path d="M 950 208.165 L 940 208.165" />
    </g>
</g>
</g>
</svg>
