<?xml version="1.0" standalone="no"?>
<!DOCTYPE svg PUBLIC "-//W3C//DTD SVG 1.1//EN" "http://www.w3.org/Graphics/SVG/1.1/DTD/svg11.dtd">
<svg style="stroke-linejoin:miter; stroke:black; stroke-width:2.5; text-anchor:middle; fill:none" xmlns="http://www.w3.org/2000/svg" font-family="Helvetica, Arial, FreeSans, Sans, sans, sans-serif" width="1000px" height="1000px" version="1.1" xmlns:xlink="http://www.w3.org/1999/xlink" viewBox="0 0 1000 1000">
<defs>
    <clipPath id="Grid_0_clip">
        <rect x="120" y="50" width="830" height="870" />
    </clipPath>
    <clipPath id="Scatter_0_clip">
        <rect x="120" y="50" width="830" height="870" />
    </clipPath>
</defs>
<g id="whole_document">
<rect id="background" x="0" y="0" width="1000" height="1000" stroke="none" fill="white" />
<g id="Grid_0" clip-path="url(#Grid_0_clip)">
    <path d="M 612.619 920 L 612.619 50 M 543.452 920 L 543.452 50 M 681.786 920 L 681.786 50 M 120 847.501 L 950 847.501" stroke-width="3" stroke-dasharray="3.0 3.0" stroke="grey" stroke-opacity="1" fill="none" />
</g>
<g id="Scatter_0" clip-path="url(#Scatter_0_clip)">
    <path d="M 120 598.948 L 120.831 597.394 L 121.662 595.856 L 122.492 594.332 L 123.323 592.822 L 124.154 591.327 L 124.985 589.847 L 125.816 588.382 L 126.647 586.93 L 127.477 585.494 L 128.308 584.071 L 129.139 582.663 L 129.97 581.269 L 130.801 579.89 L 131.632 578.525 L 132.462 577.174 L 133.293 575.837 L 134.124 574.514 L 134.955 573.206 L 135.786 571.911 L 136.617 570.631 L 137.447 569.364 L 138.278 568.111 L 139.109 566.873 L 139.94 565.648 L 140.771 564.436 L 141.602 563.239 L 142.432 562.055 L 143.263 560.885 L 144.094 559.728 L 144.925 558.586 L 145.756 557.456 L 146.587 556.34 L 147.417 555.238 L 148.248 554.149 L 149.079 553.073 L 149.91 552.011 L 150.741 550.962 L 151.572 549.927 L 152.402 548.904 L 153.233 547.895 L 154.064 546.899 L 154.895 545.916 L 155.726 544.946 L 156.557 543.988 L 157.387 543.044 L 158.218 542.113 L 159.049 541.195 L 159.88 540.29 L 160.711 539.397 L 161.542 538.517 L 162.372 537.65 L 163.203 536.796 L 164.034 535.954 L 164.865 535.125 L 165.696 534.308 L 166.527 533.504 L 167.357 532.713 L 168.188 531.934 L 169.019 531.167 L 169.85 530.412 L 170.681 529.67 L 171.512 528.94 L 172.342 528.223 L 173.173 527.518 L 174.004 526.824 L 174.835 526.143 L 175.666 525.474 L 176.496 524.817 L 177.327 524.172 L 178.158 523.539 L 178.989 522.918 L 179.82 522.308 L 180.651 521.711 L 181.481 521.125 L 182.312 520.551 L 183.143 519.989 L 183.974 519.438 L 184.805 518.899 L 185.636 518.372 L 186.466 517.856 L 187.297 517.352 L 188.128 516.859 L 188.959 516.377 L 189.79 515.907 L 190.621 515.448 L 191.451 515.001 L 192.282 514.564 L 193.113 514.139 L 193.944 513.725 L 194.775 513.323 L 195.606 512.931 L 196.436 512.55 L 197.267 512.181 L 198.098 511.822 L 198.929 511.474 L 199.76 511.137 L 200.591 510.811 L 201.421 510.496 L 202.252 510.192 L 203.083 509.898 L 203.914 509.615 L 204.745 509.343 L 205.576 509.081 L 206.406 508.829 L 207.237 508.589 L 208.068 508.358 L 208.899 508.138 L 209.73 507.929 L 210.561 507.73 L 211.391 507.541 L 212.222 507.363 L 213.053 507.194 L 213.884 507.036 L 214.715 506.888 L 215.546 506.75 L 216.376 506.622 L 217.207 506.505 L 218.038 506.397 L 218.869 506.299 L 219.7 506.211 L 220.531 506.133 L 221.361 506.064 L 222.192 506.006 L 223.023 505.957 L 223.854 505.918 L 224.685 505.889 L 225.516 505.869 L 226.346 505.858 L 227.177 505.858 L 228.008 505.867 L 228.839 505.885 L 229.67 505.912 L 230.501 505.949 L 231.331 505.996 L 232.162 506.051 L 232.993 506.116 L 233.824 506.19 L 234.655 506.273 L 235.485 506.366 L 236.316 506.467 L 237.147 506.577 L 237.978 506.697 L 238.809 506.825 L 239.64 506.963 L 240.47 507.109 L 241.301 507.264 L 242.132 507.428 L 242.963 507.6 L 243.794 507.781 L 244.625 507.971 L 245.455 508.17 L 246.286 508.377 L 247.117 508.593 L 247.948 508.817 L 248.779 509.05 L 249.61 509.291 L 250.44 509.54 L 251.271 509.798 L 252.102 510.064 L 252.933 510.339 L 253.764 510.621 L 254.595 510.912 L 255.425 511.211 L 256.256 511.518 L 257.087 511.833 L 257.918 512.156 L 258.749 512.488 L 259.58 512.827 L 260.41 513.173 L 261.241 513.528 L 262.072 513.891 L 262.903 514.261 L 263.734 514.639 L 264.565 515.025 L 265.395 515.418 L 266.226 515.819 L 267.057 516.228 L 267.888 516.644 L 268.719 517.068 L 269.55 517.499 L 270.38 517.937 L 271.211 518.383 L 272.042 518.836 L 272.873 519.296 L 273.704 519.764 L 274.535 520.239 L 275.365 520.721 L 276.196 521.21 L 277.027 521.706 L 277.858 522.209 L 278.689 522.719 L 279.52 523.237 L 280.35 523.761 L 281.181 524.292 L 282.012 524.829 L 282.843 525.374 L 283.674 525.925 L 284.505 526.483 L 285.335 527.048 L 286.166 527.619 L 286.997 528.197 L 287.828 528.781 L 288.659 529.372 L 289.489 529.97 L 290.32 530.573 L 291.151 531.184 L 291.982 531.8 L 292.813 532.423 L 293.644 533.052 L 294.474 533.687 L 295.305 534.329 L 296.136 534.976 L 296.967 535.63 L 297.798 536.289 L 298.629 536.955 L 299.459 537.627 L 300.29 538.304 L 301.121 538.988 L 301.952 539.677 L 302.783 540.372 L 303.614 541.073 L 304.444 541.78 L 305.275 542.492 L 306.106 543.21 L 306.937 543.934 L 307.768 544.663 L 308.599 545.397 L 309.429 546.138 L 310.26 546.883 L 311.091 547.634 L 311.922 548.39 L 312.753 549.152 L 313.584 549.919 L 314.414 550.691 L 315.245 551.468 L 316.076 552.251 L 316.907 553.038 L 317.738 553.831 L 318.569 554.628 L 319.399 555.431 L 320.23 556.239 L 321.061 557.051 L 321.892 557.868 L 322.723 558.691 L 323.554 559.518 L 324.384 560.349 L 325.215 561.186 L 326.046 562.027 L 326.877 562.872 L 327.708 563.723 L 328.539 564.577 L 329.369 565.437 L 330.2 566.3 L 331.031 567.168 L 331.862 568.041 L 332.693 568.918 L 333.524 569.799 L 334.354 570.684 L 335.185 571.574 L 336.016 572.468 L 336.847 573.365 L 337.678 574.267 L 338.509 575.173 L 339.339 576.083 L 340.17 576.997 L 341.001 577.915 L 341.832 578.837 L 342.663 579.763 L 343.493 580.692 L 344.324 581.625 L 345.155 582.562 L 345.986 583.502 L 346.817 584.447 L 347.648 585.394 L 348.478 586.346 L 349.309 587.301 L 350.14 588.259 L 350.971 589.221 L 351.802 590.186 L 352.633 591.154 L 353.463 592.126 L 354.294 593.101 L 355.125 594.079 L 355.956 595.061 L 356.787 596.045 L 357.618 597.033 L 358.448 598.024 L 359.279 599.018 L 360.11 600.014 L 360.941 601.014 L 361.772 602.017 L 362.603 603.022 L 363.433 604.03 L 364.264 605.041 L 365.095 606.055 L 365.926 607.071 L 366.757 608.091 L 367.588 609.112 L 368.418 610.137 L 369.249 611.163 L 370.08 612.193 L 370.911 613.224 L 371.742 614.259 L 372.573 615.295 L 373.403 616.334 L 374.234 617.375 L 375.065 618.418 L 375.896 619.464 L 376.727 620.512 L 377.558 621.562 L 378.388 622.614 L 379.219 623.668 L 380.05 624.724 L 380.881 625.781 L 381.712 626.841 L 382.543 627.903 L 383.373 628.966 L 384.204 630.032 L 385.035 631.099 L 385.866 632.168 L 386.697 633.238 L 387.528 634.31 L 388.358 635.384 L 389.189 636.459 L 390.02 637.536 L 390.851 638.614 L 391.682 639.694 L 392.513 640.775 L 393.343 641.857 L 394.174 642.941 L 395.005 644.025 L 395.836 645.112 L 396.667 646.199 L 397.497 647.287 L 398.328 648.377 L 399.159 649.467 L 399.99 650.559 L 400.821 651.652 L 401.652 652.745 L 402.482 653.839 L 403.313 654.935 L 404.144 656.031 L 404.975 657.127 L 405.806 658.225 L 406.637 659.323 L 407.467 660.422 L 408.298 661.522 L 409.129 662.622 L 409.96 663.722 L 410.791 664.823 L 411.622 665.925 L 412.452 667.027 L 413.283 668.129 L 414.114 669.231 L 414.945 670.334 L 415.776 671.437 L 416.607 672.54 L 417.437 673.644 L 418.268 674.747 L 419.099 675.851 L 419.93 676.955 L 420.761 678.058 L 421.592 679.162 L 422.422 680.265 L 423.253 681.369 L 424.084 682.472 L 424.915 683.575 L 425.746 684.677 L 426.577 685.78 L 427.407 686.882 L 428.238 687.984 L 429.069 689.085 L 429.9 690.186 L 430.731 691.286 L 431.562 692.386 L 432.392 693.485 L 433.223 694.583 L 434.054 695.681 L 434.885 696.778 L 435.716 697.875 L 436.547 698.97 L 437.377 700.065 L 438.208 701.159 L 439.039 702.252 L 439.87 703.344 L 440.701 704.435 L 441.532 705.525 L 442.362 706.614 L 443.193 707.702 L 444.024 708.789 L 444.855 709.875 L 445.686 710.959 L 446.517 712.042 L 447.347 713.123 L 448.178 714.204 L 449.009 715.283 L 449.84 716.36 L 450.671 717.436 L 451.502 718.511 L 452.332 719.583 L 453.163 720.655 L 453.994 721.724 L 454.825 722.792 L 455.656 723.858 L 456.486 724.923 L 457.317 725.986 L 458.148 727.046 L 458.979 728.105 L 459.81 729.162 L 460.641 730.217 L 461.471 731.27 L 462.302 732.321 L 463.133 733.37 L 463.964 734.416 L 464.795 735.461 L 465.626 736.503 L 466.456 737.543 L 467.287 738.581 L 468.118 739.616 L 468.949 740.649 L 469.78 741.68 L 470.611 742.708 L 471.441 743.733 L 472.272 744.756 L 473.103 745.777 L 473.934 746.794 L 474.765 747.81 L 475.596 748.822 L 476.426 749.832 L 477.257 750.839 L 478.088 751.843 L 478.919 752.844 L 479.75 753.842 L 480.581 754.837 L 481.411 755.829 L 482.242 756.819 L 483.073 757.805 L 483.904 758.788 L 484.735 759.768 L 485.566 760.744 L 486.396 761.718 L 487.227 762.688 L 488.058 763.655 L 488.889 764.618 L 489.72 765.578 L 490.551 766.535 L 491.381 767.488 L 492.212 768.437 L 493.043 769.383 L 493.874 770.326 L 494.705 771.264 L 495.536 772.199 L 496.366 773.131 L 497.197 774.058 L 498.028 774.982 L 498.859 775.902 L 499.69 776.818 L 500.521 777.73 L 501.351 778.638 L 502.182 779.542 L 503.013 780.441 L 503.844 781.337 L 504.675 782.229 L 505.506 783.116 L 506.336 784 L 507.167 784.879 L 507.998 785.753 L 508.829 786.624 L 509.66 787.49 L 510.49 788.351 L 511.321 789.208 L 512.152 790.061 L 512.983 790.908 L 513.814 791.752 L 514.645 792.591 L 515.475 793.425 L 516.306 794.254 L 517.137 795.078 L 517.968 795.898 L 518.799 796.713 L 519.63 797.523 L 520.46 798.328 L 521.291 799.128 L 522.122 799.924 L 522.953 800.714 L 523.784 801.499 L 524.615 802.278 L 525.445 803.053 L 526.276 803.823 L 527.107 804.587 L 527.938 805.346 L 528.769 806.099 L 529.6 806.848 L 530.43 807.591 L 531.261 808.328 L 532.092 809.06 L 532.923 809.786 L 533.754 810.507 L 534.585 811.222 L 535.415 811.931 L 536.246 812.635 L 537.077 813.333 L 537.908 814.026 L 538.739 814.712 L 539.57 815.393 L 540.4 816.067 L 541.231 816.736 L 542.062 817.399 L 542.893 818.055 L 543.724 818.706 L 544.555 819.35 L 545.385 819.989 L 546.216 820.621 L 547.047 821.247 L 547.878 821.866 L 548.709 822.48 L 549.54 823.087 L 550.37 823.687 L 551.201 824.281 L 552.032 824.869 L 552.863 825.45 L 553.694 826.025 L 554.525 826.593 L 555.355 827.154 L 556.186 827.709 L 557.017 828.257 L 557.848 828.798 L 558.679 829.332 L 559.51 829.86 L 560.34 830.38 L 561.171 830.894 L 562.002 831.401 L 562.833 831.9 L 563.664 832.393 L 564.494 832.878 L 565.325 833.357 L 566.156 833.828 L 566.987 834.292 L 567.818 834.749 L 568.649 835.198 L 569.479 835.64 L 570.31 836.075 L 571.141 836.502 L 571.972 836.922 L 572.803 837.335 L 573.634 837.739 L 574.464 838.137 L 575.295 838.526 L 576.126 838.908 L 576.957 839.282 L 577.788 839.649 L 578.619 840.008 L 579.449 840.358 L 580.28 840.701 L 581.111 841.036 L 581.942 841.364 L 582.773 841.683 L 583.604 841.994 L 584.434 842.297 L 585.265 842.592 L 586.096 842.878 L 586.927 843.157 L 587.758 843.427 L 588.589 843.689 L 589.419 843.943 L 590.25 844.188 L 591.081 844.425 L 591.912 844.653 L 592.743 844.873 L 593.574 845.085 L 594.404 845.288 L 595.235 845.482 L 596.066 845.668 L 596.897 845.845 L 597.728 846.013 L 598.559 846.172 L 599.389 846.323 L 600.22 846.465 L 601.051 846.597 L 601.882 846.721 L 602.713 846.836 L 603.544 846.942 L 604.374 847.039 L 605.205 847.127 L 606.036 847.205 L 606.867 847.275 L 607.698 847.335 L 608.529 847.386 L 609.359 847.428 L 610.19 847.46 L 611.021 847.483 L 611.852 847.496 L 612.683 847.5 L 613.514 847.495 L 614.344 847.48 L 615.175 847.455 L 616.006 847.421 L 616.837 847.377 L 617.668 847.323 L 618.498 847.26 L 619.329 847.187 L 620.16 847.104 L 620.991 847.011 L 621.822 846.908 L 622.653 846.795 L 623.483 846.672 L 624.314 846.54 L 625.145 846.397 L 625.976 846.244 L 626.807 846.08 L 627.638 845.907 L 628.468 845.723 L 629.299 845.529 L 630.13 845.325 L 630.961 845.11 L 631.792 844.885 L 632.623 844.65 L 633.453 844.404 L 634.284 844.147 L 635.115 843.88 L 635.946 843.602 L 636.777 843.314 L 637.608 843.015 L 638.438 842.705 L 639.269 842.384 L 640.1 842.053 L 640.931 841.711 L 641.762 841.357 L 642.593 840.993 L 643.423 840.618 L 644.254 840.232 L 645.085 839.835 L 645.916 839.426 L 646.747 839.007 L 647.578 838.576 L 648.408 838.134 L 649.239 837.681 L 650.07 837.217 L 650.901 836.741 L 651.732 836.254 L 652.563 835.755 L 653.393 835.245 L 654.224 834.723 L 655.055 834.19 L 655.886 833.645 L 656.717 833.089 L 657.548 832.521 L 658.378 831.941 L 659.209 831.349 L 660.04 830.746 L 660.871 830.131 L 661.702 829.503 L 662.533 828.864 L 663.363 828.213 L 664.194 827.55 L 665.025 826.875 L 665.856 826.188 L 666.687 825.489 L 667.518 824.777 L 668.348 824.054 L 669.179 823.318 L 670.01 822.569 L 670.841 821.809 L 671.672 821.036 L 672.503 820.25 L 673.333 819.453 L 674.164 818.642 L 674.995 817.819 L 675.826 816.984 L 676.657 816.136 L 677.487 815.275 L 678.318 814.402 L 679.149 813.516 L 679.98 812.617 L 680.811 811.705 L 681.642 810.78 L 682.472 809.843 L 683.303 808.892 L 684.134 807.929 L 684.965 806.952 L 685.796 805.962 L 686.627 804.96 L 687.457 803.944 L 688.288 802.915 L 689.119 801.872 L 689.95 800.817 L 690.781 799.748 L 691.612 798.666 L 692.442 797.57 L 693.273 796.461 L 694.104 795.338 L 694.935 794.202 L 695.766 793.052 L 696.597 791.889 L 697.427 790.712 L 698.258 789.522 L 699.089 788.317 L 699.92 787.099 L 700.751 785.867 L 701.582 784.621 L 702.412 783.362 L 703.243 782.088 L 704.074 780.801 L 704.905 779.499 L 705.736 778.183 L 706.567 776.854 L 707.397 775.51 L 708.228 774.152 L 709.059 772.779 L 709.89 771.393 L 710.721 769.992 L 711.552 768.577 L 712.382 767.147 L 713.213 765.703 L 714.044 764.245 L 714.875 762.772 L 715.706 761.284 L 716.537 759.782 L 717.367 758.266 L 718.198 756.734 L 719.029 755.188 L 719.86 753.627 L 720.691 752.052 L 721.522 750.461 L 722.352 748.856 L 723.183 747.236 L 724.014 745.6 L 724.845 743.95 L 725.676 742.285 L 726.507 740.605 L 727.337 738.909 L 728.168 737.198 L 728.999 735.473 L 729.83 733.732 L 730.661 731.975 L 731.491 730.204 L 732.322 728.417 L 733.153 726.614 L 733.984 724.796 L 734.815 722.963 L 735.646 721.114 L 736.476 719.25 L 737.307 717.369 L 738.138 715.474 L 738.969 713.562 L 739.8 711.635 L 740.631 709.692 L 741.461 707.733 L 742.292 705.759 L 743.123 703.768 L 743.954 701.762 L 744.785 699.739 L 745.616 697.701 L 746.446 695.646 L 747.277 693.576 L 748.108 691.489 L 748.939 689.386 L 749.77 687.267 L 750.601 685.132 L 751.431 682.98 L 752.262 680.812 L 753.093 678.627 L 753.924 676.426 L 754.755 674.209 L 755.586 671.975 L 756.416 669.725 L 757.247 667.458 L 758.078 665.174 L 758.909 662.874 L 759.74 660.556 L 760.571 658.223 L 761.401 655.872 L 762.232 653.505 L 763.063 651.12 L 763.894 648.719 L 764.725 646.301 L 765.556 643.865 L 766.386 641.413 L 767.217 638.944 L 768.048 636.457 L 768.879 633.954 L 769.71 631.433 L 770.541 628.895 L 771.371 626.339 L 772.202 623.767 L 773.033 621.176 L 773.864 618.569 L 774.695 615.944 L 775.526 613.302 L 776.356 610.642 L 777.187 607.964 L 778.018 605.269 L 778.849 602.556 L 779.68 599.825 L 780.511 597.077 L 781.341 594.311 L 782.172 591.527 L 783.003 588.725 L 783.834 585.906 L 784.665 583.068 L 785.495 580.212 L 786.326 577.339 L 787.157 574.447 L 787.988 571.537 L 788.819 568.609 L 789.65 565.663 L 790.48 562.699 L 791.311 559.716 L 792.142 556.715 L 792.973 553.696 L 793.804 550.658 L 794.635 547.602 L 795.465 544.527 L 796.296 541.434 L 797.127 538.323 L 797.958 535.192 L 798.789 532.043 L 799.62 528.876 L 800.45 525.689 L 801.281 522.484 L 802.112 519.26 L 802.943 516.018 L 803.774 512.756 L 804.605 509.475 L 805.435 506.176 L 806.266 502.857 L 807.097 499.52 L 807.928 496.163 L 808.759 492.787 L 809.59 489.392 L 810.42 485.978 L 811.251 482.544 L 812.082 479.091 L 812.913 475.619 L 813.744 472.128 L 814.575 468.617 L 815.405 465.087 L 816.236 461.537 L 817.067 457.967 L 817.898 454.378 L 818.729 450.77 L 819.56 447.141 L 820.39 443.493 L 821.221 439.826 L 822.052 436.138 L 822.883 432.431 L 823.714 428.703 L 824.545 424.956 L 825.375 421.189 L 826.206 417.402 L 827.037 413.595 L 827.868 409.768 L 828.699 405.921 L 829.53 402.053 L 830.36 398.165 L 831.191 394.258 L 832.022 390.329 L 832.853 386.381 L 833.684 382.412 L 834.515 378.423 L 835.345 374.413 L 836.176 370.383 L 837.007 366.332 L 837.838 362.261 L 838.669 358.169 L 839.499 354.056 L 840.33 349.923 L 841.161 345.769 L 841.992 341.594 L 842.823 337.399 L 843.654 333.183 L 844.484 328.945 L 845.315 324.687 L 846.146 320.408 L 846.977 316.108 L 847.808 311.786 L 848.639 307.444 L 849.469 303.081 L 850.3 298.696 L 851.131 294.29 L 851.962 289.863 L 852.793 285.414 L 853.624 280.944 L 854.454 276.453 L 855.285 271.941 L 856.116 267.407 L 856.947 262.851 L 857.778 258.274 L 858.609 253.675 L 859.439 249.055 L 860.27 244.413 L 861.101 239.749 L 861.932 235.063 L 862.763 230.356 L 863.594 225.627 L 864.424 220.876 L 865.255 216.103 L 866.086 211.308 L 866.917 206.491 L 867.748 201.652 L 868.579 196.791 L 869.409 191.908 L 870.24 187.003 L 871.071 182.075 L 871.902 177.126 L 872.733 172.154 L 873.564 167.159 L 874.394 162.143 L 875.225 157.103 L 876.056 152.042 L 876.887 146.958 L 877.718 141.851 L 878.549 136.722 L 879.379 131.57 L 880.21 126.396 L 881.041 121.199 L 881.872 115.979 L 882.703 110.736 L 883.534 105.471 L 884.364 100.182 L 885.195 94.871 L 886.026 89.5369 L 886.857 84.1797 L 887.688 78.7995 L 888.519 73.3963 L 889.349 67.97 L 890.18 62.5205 L 891.011 57.0478 L 891.842 51.5519 L 892.673 46.0327 L 893.504 40.4903 L 894.334 34.9244 L 895.165 29.3352 L 895.996 23.7226 L 896.827 18.0864 L 897.658 12.4268 L 898.488 6.74359 L 899.319 1.0368 L 900.15 -4.69363 L 900.981 -10.4477 L 901.812 -16.2256 L 902.643 -22.0271 L 903.473 -27.8525 L 904.304 -33.7018 L 905.135 -39.5749 L 905.966 -45.4719 L 906.797 -51.3929 L 907.628 -57.3379 L 908.458 -63.307 L 909.289 -69.3001 L 910.12 -75.3174 L 910.951 -81.3588 L 911.782 -87.4244 L 912.613 -93.5143 L 913.443 -99.6285 L 914.274 -105.767 L 915.105 -111.93 L 915.936 -118.117 L 916.767 -124.329 L 917.598 -130.565 L 918.428 -136.826 L 919.259 -143.111 L 920.09 -149.421 L 920.921 -155.756 L 921.752 -162.116 L 922.583 -168.5 L 923.413 -174.909 L 924.244 -181.342 L 925.075 -187.801 L 925.906 -194.284 L 926.737 -200.793 L 927.568 -207.326 L 928.398 -213.885 L 929.229 -220.468 L 930.06 -227.077 L 930.891 -233.711 L 931.722 -240.37 L 932.553 -247.054 L 933.383 -253.763 L 934.214 -260.498 L 935.045 -267.258 L 935.876 -274.044 L 936.707 -280.855 L 937.538 -287.691 L 938.368 -294.553 L 939.199 -301.441 L 940.03 -308.354 L 940.861 -315.293 L 941.692 -322.257 L 942.523 -329.247 L 943.353 -336.263 L 944.184 -343.305 L 945.015 -350.373 L 945.846 -357.466 L 946.677 -364.586 L 947.508 -371.731 L 948.338 -378.903 L 949.169 -386.1 L 950 -393.324" stroke-width="3" stroke-dasharray="" stroke="black" stroke-opacity="1" fill="none" />
</g>
<g id="frame_0">
    <rect id="frame_0_border" x="120" y="50" width="830" height="870" />
    <g id="frame_0_bottomticks">
        <path d="M 535 920 L 535 910" />
        <path d="M 189.167 920 L 189.167 900" />
        <text font-size="30" transform="translate(189.167, 950)" text-anchor="middle" dominant-baseline="middle" stroke="none" fill="black">0</text>
        <path d="M 950 920 L 950 910" />
        <path d="M 258.333 920 L 258.333 910" />
        <path d="M 880.833 920 L 880.833 900" />
        <text font-size="30" transform="translate(880.833, 950)" text-anchor="middle" dominant-baseline="middle" stroke="none" fill="black">1</text>
        <path d="M 742.5 920 L 742.5 900" />
        <text font-size="30" transform="translate(742.5, 950)" text-anchor="middle" dominant-baseline="middle" stroke="none" fill="black">0.8</text>
        <path d="M 604.167 920 L 604.167 900" />
        <text font-size="30" transform="translate(604.167, 950)" text-anchor="middle" dominant-baseline="middle" stroke="none" fill="black">0.6</text>
        <path d="M 396.667 920 L 396.667 910" />
        <path d="M 465.833 920 L 465.833 900" />
        <text font-size="30" transform="translate(465.833, 950)" text-anchor="middle" dominant-baseline="middle" stroke="none" fill="black">0.4</text>
        <path d="M 811.667 920 L 811.667 910" />
        <path d="M 673.333 920 L 673.333 910" />
        <path d="M 120 920 L 120 910" />
        <path d="M 327.5 920 L 327.5 900" />
        <text font-size="30" transform="translate(327.5, 950)" text-anchor="middle" dominant-baseline="middle" stroke="none" fill="black">0.2</text>
    </g>
    <g id="frame_0_leftticks">
        <path d="M 120 713.138 L 140 713.138" />
        <text font-size="30" transform="translate(110, 723.138)" text-anchor="end" dominant-baseline="middle" stroke="none" fill="black">‒0.5</text>
        <path d="M 120 516.259 L 140 516.259" />
        <text font-size="30" transform="translate(110, 526.259)" text-anchor="end" dominant-baseline="middle" stroke="none" fill="black">0</text>
        <path d="M 120 319.379 L 140 319.379" />
        <text font-size="30" transform="translate(110, 329.379)" text-anchor="end" dominant-baseline="middle" stroke="none" fill="black">0.5</text>
        <path d="M 120 122.5 L 140 122.5" />
        <text font-size="30" transform="translate(110, 132.5)" text-anchor="end" dominant-baseline="middle" stroke="none" fill="black">1</text>
        <path d="M 120 398.131 L 130 398.131" />
        <path d="M 120 555.634 L 130 555.634" />
        <path d="M 120 280.003 L 130 280.003" />
        <path d="M 120 870.641 L 130 870.641" />
        <path d="M 120 240.628 L 130 240.628" />
        <path d="M 120 595.01 L 130 595.01" />
        <path d="M 120 831.265 L 130 831.265" />
        <path d="M 120 673.762 L 130 673.762" />
        <path d="M 120 437.507 L 130 437.507" />
        <path d="M 120 201.252 L 130 201.252" />
        <path d="M 120 791.89 L 130 791.89" />
        <path d="M 120 476.883 L 130 476.883" />
        <path d="M 120 161.876 L 130 161.876" />
        <path d="M 120 634.386 L 130 634.386" />
        <path d="M 120 358.755 L 130 358.755" />
        <path d="M 120 752.514 L 130 752.514" />
        <path d="M 120 83.1241 L 130 83.1241" />
        <path d="M 120 910.017 L 140 910.017" />
        <text font-size="30" transform="translate(110, 920.017)" text-anchor="end" dominant-baseline="middle" stroke="none" fill="black">‒1</text>
    </g>
    <g id="frame_0_topticks">
        <path d="M 535 50 L 535 60" />
        <path d="M 189.167 50 L 189.167 70" />
        <path d="M 950 50 L 950 60" />
        <path d="M 258.333 50 L 258.333 60" />
        <path d="M 880.833 50 L 880.833 70" />
        <path d="M 742.5 50 L 742.5 70" />
        <path d="M 604.167 50 L 604.167 70" />
        <path d="M 396.667 50 L 396.667 60" />
        <path d="M 465.833 50 L 465.833 70" />
        <path d="M 811.667 50 L 811.667 60" />
        <path d="M 673.333 50 L 673.333 60" />
        <path d="M 120 50 L 120 60" />
        <path d="M 327.5 50 L 327.5 70" />
    </g>
    <g id="frame_0_rightticks">
        <path d="M 950 713.138 L 930 713.138" />
        <path d="M 950 516.259 L 930 516.259" />
        <path d="M 950 319.379 L 930 319.379" />
        <path d="M 950 122.5 L 930 122.5" />
        <path d="M 950 398.131 L 940 398.131" />
        <path d="M 950 555.634 L 940 555.634" />
        <path d="M 950 280.003 L 940 280.003" />
        <path d="M 950 870.641 L 940 870.641" />
        <path d="M 950 240.628 L 940 240.628" />
        <path d="M 950 595.01 L 940 595.01" />
        <path d="M 950 831.265 L 940 831.265" />
        <path d="M 950 673.762 L 940 673.762" />
        <path d="M 950 437.507 L 940 437.507" />
        <path d="M 950 201.252 L 940 201.252" />
        <path d="M 950 791.89 L 940 791.89" />
        <path d="M 950 476.883 L 940 476.883" />
        <path d="M 950 161.876 L 940 161.876" />
        <path d="M 950 634.386 L 940 634.386" />
        <path d="M 950 358.755 L 940 358.755" />
        <path d="M 950 752.514 L 940 752.514" />
        <path d="M 950 83.1241 L 940 83.1241" />
        <path d="M 950 910.017 L 930 910.017" />
    </g>
</g>
</g>
</svg>
