<?xml version="1.0" standalone="no"?>
<!DOCTYPE svg PUBLIC "-//W3C//DTD SVG 1.1//EN" "http://www.w3.org/Graphics/SVG/1.1/DTD/svg11.dtd">
<svg style="stroke-linejoin:miter; stroke:black; stroke-width:2.5; text-anchor:middle; fill:none" xmlns="http://www.w3.org/2000/svg" font-family="Helvetica, Arial, FreeSans, Sans, sans, sans-serif" width="1000px" height="1000px" version="1.1" xmlns:xlink="http://www.w3.org/1999/xlink" viewBox="0 0 1000 1000">
<defs>
    <clipPath id="Grid_0_clip">
        <rect x="560" y="25" width="415" height="435" />
    </clipPath>
    <clipPath id="Grid_1_clip">
        <rect x="60" y="525" width="415" height="435" />
    </clipPath>
    <clipPath id="Grid_2_clip">
        <rect x="560" y="525" width="415" height="435" />
    </clipPath>
    <clipPath id="Scatter_0_clip">
        <rect x="60" y="25" width="415" height="435" />
    </clipPath>
    <clipPath id="Scatter_1_clip">
        <rect x="560" y="25" width="415" height="435" />
    </clipPath>
    <clipPath id="Scatter_2_clip">
        <rect x="60" y="525" width="415" height="435" />
    </clipPath>
    <clipPath id="Scatter_3_clip">
        <rect x="560" y="525" width="415" height="435" />
    </clipPath>
</defs>
<g id="whole_document">
<rect id="background" x="0" y="0" width="1000" height="1000" stroke="none" fill="white" />
<g id="Scatter_0" clip-path="url(#Scatter_0_clip)">
    <path d="M 94.5833 258.129 L 94.9295 257.934 L 95.2757 257.743 L 95.6219 257.556 L 95.9681 257.372 L 96.3142 257.193 L 96.6604 257.017 L 97.0066 256.846 L 97.3528 256.678 L 97.6989 256.514 L 98.0451 256.354 L 98.3913 256.198 L 98.7375 256.045 L 99.0837 255.896 L 99.4298 255.751 L 99.776 255.61 L 100.122 255.473 L 100.468 255.339 L 100.815 255.21 L 101.161 255.083 L 101.507 254.961 L 101.853 254.842 L 102.199 254.727 L 102.545 254.616 L 102.892 254.508 L 103.238 254.404 L 103.584 254.304 L 103.93 254.207 L 104.276 254.114 L 104.623 254.025 L 104.969 253.939 L 105.315 253.857 L 105.661 253.778 L 106.007 253.703 L 106.353 253.632 L 106.7 253.564 L 107.046 253.499 L 107.392 253.438 L 107.738 253.381 L 108.084 253.327 L 108.431 253.276 L 108.777 253.229 L 109.123 253.186 L 109.469 253.146 L 109.815 253.109 L 110.161 253.076 L 110.508 253.046 L 110.854 253.019 L 111.2 252.996 L 111.546 252.977 L 111.892 252.96 L 112.238 252.948 L 112.585 252.938 L 112.931 252.932 L 113.277 252.929 L 113.623 252.929 L 113.969 252.933 L 114.316 252.94 L 114.662 252.95 L 115.008 252.963 L 115.354 252.98 L 115.7 253 L 116.046 253.023 L 116.393 253.049 L 116.739 253.079 L 117.085 253.112 L 117.431 253.148 L 117.777 253.187 L 118.124 253.229 L 118.47 253.274 L 118.816 253.323 L 119.162 253.375 L 119.508 253.429 L 119.854 253.487 L 120.201 253.548 L 120.547 253.612 L 120.893 253.679 L 121.239 253.749 L 121.585 253.822 L 121.932 253.898 L 122.278 253.978 L 122.624 254.06 L 122.97 254.145 L 123.316 254.233 L 123.662 254.324 L 124.009 254.418 L 124.355 254.515 L 124.701 254.615 L 125.047 254.718 L 125.393 254.823 L 125.739 254.932 L 126.086 255.043 L 126.432 255.158 L 126.778 255.275 L 127.124 255.395 L 127.47 255.518 L 127.817 255.644 L 128.163 255.772 L 128.509 255.903 L 128.855 256.037 L 129.201 256.174 L 129.547 256.314 L 129.894 256.456 L 130.24 256.601 L 130.586 256.749 L 130.932 256.9 L 131.278 257.053 L 131.625 257.209 L 131.971 257.367 L 132.317 257.529 L 132.663 257.693 L 133.009 257.859 L 133.355 258.028 L 133.702 258.2 L 134.048 258.375 L 134.394 258.552 L 134.74 258.731 L 135.086 258.913 L 135.433 259.098 L 135.779 259.285 L 136.125 259.475 L 136.471 259.668 L 136.817 259.862 L 137.163 260.06 L 137.51 260.26 L 137.856 260.462 L 138.202 260.667 L 138.548 260.874 L 138.894 261.084 L 139.24 261.296 L 139.587 261.51 L 139.933 261.727 L 140.279 261.946 L 140.625 262.168 L 140.971 262.392 L 141.318 262.619 L 141.664 262.847 L 142.01 263.078 L 142.356 263.312 L 142.702 263.548 L 143.048 263.786 L 143.395 264.026 L 143.741 264.269 L 144.087 264.513 L 144.433 264.76 L 144.779 265.01 L 145.126 265.261 L 145.472 265.515 L 145.818 265.771 L 146.164 266.029 L 146.51 266.29 L 146.856 266.552 L 147.203 266.817 L 147.549 267.084 L 147.895 267.353 L 148.241 267.624 L 148.587 267.897 L 148.934 268.172 L 149.28 268.45 L 149.626 268.729 L 149.972 269.011 L 150.318 269.294 L 150.664 269.58 L 151.011 269.867 L 151.357 270.157 L 151.703 270.449 L 152.049 270.742 L 152.395 271.038 L 152.741 271.336 L 153.088 271.635 L 153.434 271.937 L 153.78 272.24 L 154.126 272.545 L 154.472 272.853 L 154.819 273.162 L 155.165 273.473 L 155.511 273.786 L 155.857 274.1 L 156.203 274.417 L 156.549 274.735 L 156.896 275.056 L 157.242 275.378 L 157.588 275.702 L 157.934 276.027 L 158.28 276.355 L 158.627 276.684 L 158.973 277.015 L 159.319 277.348 L 159.665 277.682 L 160.011 278.018 L 160.357 278.356 L 160.704 278.696 L 161.05 279.037 L 161.396 279.38 L 161.742 279.724 L 162.088 280.07 L 162.435 280.418 L 162.781 280.768 L 163.127 281.119 L 163.473 281.472 L 163.819 281.826 L 164.165 282.182 L 164.512 282.539 L 164.858 282.898 L 165.204 283.258 L 165.55 283.62 L 165.896 283.984 L 166.242 284.349 L 166.589 284.716 L 166.935 285.084 L 167.281 285.453 L 167.627 285.824 L 167.973 286.196 L 168.32 286.57 L 168.666 286.946 L 169.012 287.322 L 169.358 287.7 L 169.704 288.08 L 170.05 288.46 L 170.397 288.843 L 170.743 289.226 L 171.089 289.611 L 171.435 289.997 L 171.781 290.385 L 172.128 290.774 L 172.474 291.164 L 172.82 291.555 L 173.166 291.948 L 173.512 292.342 L 173.858 292.737 L 174.205 293.133 L 174.551 293.531 L 174.897 293.93 L 175.243 294.33 L 175.589 294.731 L 175.936 295.133 L 176.282 295.537 L 176.628 295.941 L 176.974 296.347 L 177.32 296.754 L 177.666 297.162 L 178.013 297.571 L 178.359 297.982 L 178.705 298.393 L 179.051 298.805 L 179.397 299.219 L 179.743 299.633 L 180.09 300.049 L 180.436 300.465 L 180.782 300.883 L 181.128 301.301 L 181.474 301.721 L 181.821 302.141 L 182.167 302.563 L 182.513 302.985 L 182.859 303.409 L 183.205 303.833 L 183.551 304.258 L 183.898 304.684 L 184.244 305.111 L 184.59 305.539 L 184.936 305.968 L 185.282 306.397 L 185.629 306.828 L 185.975 307.259 L 186.321 307.691 L 186.667 308.124 L 187.013 308.557 L 187.359 308.992 L 187.706 309.427 L 188.052 309.863 L 188.398 310.3 L 188.744 310.737 L 189.09 311.175 L 189.437 311.614 L 189.783 312.054 L 190.129 312.494 L 190.475 312.935 L 190.821 313.376 L 191.167 313.819 L 191.514 314.262 L 191.86 314.705 L 192.206 315.149 L 192.552 315.594 L 192.898 316.039 L 193.244 316.485 L 193.591 316.932 L 193.937 317.379 L 194.283 317.826 L 194.629 318.274 L 194.975 318.723 L 195.322 319.172 L 195.668 319.622 L 196.014 320.072 L 196.36 320.523 L 196.706 320.974 L 197.052 321.425 L 197.399 321.877 L 197.745 322.329 L 198.091 322.782 L 198.437 323.235 L 198.783 323.689 L 199.13 324.143 L 199.476 324.597 L 199.822 325.052 L 200.168 325.507 L 200.514 325.962 L 200.86 326.418 L 201.207 326.874 L 201.553 327.33 L 201.899 327.787 L 202.245 328.244 L 202.591 328.701 L 202.938 329.158 L 203.284 329.616 L 203.63 330.074 L 203.976 330.532 L 204.322 330.99 L 204.668 331.448 L 205.015 331.907 L 205.361 332.366 L 205.707 332.825 L 206.053 333.284 L 206.399 333.743 L 206.745 334.202 L 207.092 334.662 L 207.438 335.121 L 207.784 335.581 L 208.13 336.04 L 208.476 336.5 L 208.823 336.96 L 209.169 337.42 L 209.515 337.88 L 209.861 338.339 L 210.207 338.799 L 210.553 339.259 L 210.9 339.719 L 211.246 340.179 L 211.592 340.638 L 211.938 341.098 L 212.284 341.558 L 212.631 342.017 L 212.977 342.477 L 213.323 342.936 L 213.669 343.395 L 214.015 343.854 L 214.361 344.313 L 214.708 344.772 L 215.054 345.23 L 215.4 345.689 L 215.746 346.147 L 216.092 346.605 L 216.439 347.063 L 216.785 347.52 L 217.131 347.978 L 217.477 348.435 L 217.823 348.892 L 218.169 349.348 L 218.516 349.805 L 218.862 350.261 L 219.208 350.716 L 219.554 351.172 L 219.9 351.627 L 220.246 352.081 L 220.593 352.536 L 220.939 352.99 L 221.285 353.443 L 221.631 353.896 L 221.977 354.349 L 222.324 354.802 L 222.67 355.254 L 223.016 355.705 L 223.362 356.156 L 223.708 356.607 L 224.054 357.057 L 224.401 357.507 L 224.747 357.956 L 225.093 358.404 L 225.439 358.852 L 225.785 359.3 L 226.132 359.747 L 226.478 360.194 L 226.824 360.639 L 227.17 361.085 L 227.516 361.529 L 227.862 361.974 L 228.209 362.417 L 228.555 362.86 L 228.901 363.302 L 229.247 363.744 L 229.593 364.185 L 229.94 364.625 L 230.286 365.065 L 230.632 365.504 L 230.978 365.942 L 231.324 366.379 L 231.67 366.816 L 232.017 367.252 L 232.363 367.687 L 232.709 368.121 L 233.055 368.555 L 233.401 368.988 L 233.747 369.42 L 234.094 369.851 L 234.44 370.282 L 234.786 370.711 L 235.132 371.14 L 235.478 371.568 L 235.825 371.995 L 236.171 372.421 L 236.517 372.846 L 236.863 373.27 L 237.209 373.693 L 237.555 374.116 L 237.902 374.537 L 238.248 374.958 L 238.594 375.377 L 238.94 375.796 L 239.286 376.213 L 239.633 376.63 L 239.979 377.046 L 240.325 377.46 L 240.671 377.873 L 241.017 378.286 L 241.363 378.697 L 241.71 379.107 L 242.056 379.517 L 242.402 379.925 L 242.748 380.332 L 243.094 380.737 L 243.441 381.142 L 243.787 381.546 L 244.133 381.948 L 244.479 382.349 L 244.825 382.749 L 245.171 383.148 L 245.518 383.546 L 245.864 383.942 L 246.21 384.337 L 246.556 384.731 L 246.902 385.124 L 247.248 385.515 L 247.595 385.905 L 247.941 386.294 L 248.287 386.681 L 248.633 387.068 L 248.979 387.453 L 249.326 387.836 L 249.672 388.218 L 250.018 388.599 L 250.364 388.978 L 250.71 389.357 L 251.056 389.733 L 251.403 390.108 L 251.749 390.482 L 252.095 390.855 L 252.441 391.226 L 252.787 391.595 L 253.134 391.963 L 253.48 392.33 L 253.826 392.695 L 254.172 393.058 L 254.518 393.42 L 254.864 393.781 L 255.211 394.14 L 255.557 394.497 L 255.903 394.853 L 256.249 395.207 L 256.595 395.56 L 256.942 395.911 L 257.288 396.26 L 257.634 396.608 L 257.98 396.954 L 258.326 397.299 L 258.672 397.642 L 259.019 397.983 L 259.365 398.323 L 259.711 398.661 L 260.057 398.997 L 260.403 399.331 L 260.749 399.664 L 261.096 399.995 L 261.442 400.324 L 261.788 400.651 L 262.134 400.977 L 262.48 401.301 L 262.827 401.623 L 263.173 401.943 L 263.519 402.262 L 263.865 402.578 L 264.211 402.893 L 264.557 403.206 L 264.904 403.517 L 265.25 403.826 L 265.596 404.133 L 265.942 404.439 L 266.288 404.742 L 266.635 405.044 L 266.981 405.343 L 267.327 405.641 L 267.673 405.936 L 268.019 406.23 L 268.365 406.522 L 268.712 406.811 L 269.058 407.099 L 269.404 407.384 L 269.75 407.668 L 270.096 407.95 L 270.443 408.229 L 270.789 408.506 L 271.135 408.782 L 271.481 409.055 L 271.827 409.326 L 272.173 409.595 L 272.52 409.862 L 272.866 410.126 L 273.212 410.389 L 273.558 410.649 L 273.904 410.908 L 274.251 411.164 L 274.597 411.417 L 274.943 411.669 L 275.289 411.918 L 275.635 412.165 L 275.981 412.41 L 276.328 412.653 L 276.674 412.893 L 277.02 413.131 L 277.366 413.367 L 277.712 413.6 L 278.058 413.831 L 278.405 414.06 L 278.751 414.287 L 279.097 414.511 L 279.443 414.732 L 279.789 414.952 L 280.136 415.169 L 280.482 415.383 L 280.828 415.595 L 281.174 415.805 L 281.52 416.012 L 281.866 416.217 L 282.213 416.419 L 282.559 416.619 L 282.905 416.816 L 283.251 417.011 L 283.597 417.203 L 283.944 417.393 L 284.29 417.581 L 284.636 417.765 L 284.982 417.947 L 285.328 418.127 L 285.674 418.304 L 286.021 418.478 L 286.367 418.65 L 286.713 418.819 L 287.059 418.986 L 287.405 419.15 L 287.752 419.311 L 288.098 419.47 L 288.444 419.626 L 288.79 419.779 L 289.136 419.93 L 289.482 420.077 L 289.829 420.222 L 290.175 420.365 L 290.521 420.504 L 290.867 420.641 L 291.213 420.775 L 291.559 420.907 L 291.906 421.035 L 292.252 421.161 L 292.598 421.284 L 292.944 421.404 L 293.29 421.521 L 293.637 421.635 L 293.983 421.747 L 294.329 421.855 L 294.675 421.961 L 295.021 422.064 L 295.367 422.164 L 295.714 422.261 L 296.06 422.355 L 296.406 422.446 L 296.752 422.534 L 297.098 422.619 L 297.445 422.701 L 297.791 422.78 L 298.137 422.856 L 298.483 422.929 L 298.829 423 L 299.175 423.067 L 299.522 423.131 L 299.868 423.191 L 300.214 423.249 L 300.56 423.304 L 300.906 423.356 L 301.253 423.404 L 301.599 423.45 L 301.945 423.492 L 302.291 423.531 L 302.637 423.567 L 302.983 423.6 L 303.33 423.629 L 303.676 423.656 L 304.022 423.679 L 304.368 423.699 L 304.714 423.715 L 305.06 423.729 L 305.407 423.739 L 305.753 423.746 L 306.099 423.75 L 306.445 423.75 L 306.791 423.747 L 307.138 423.741 L 307.484 423.731 L 307.83 423.718 L 308.176 423.702 L 308.522 423.682 L 308.868 423.659 L 309.215 423.633 L 309.561 423.603 L 309.907 423.57 L 310.253 423.533 L 310.599 423.493 L 310.946 423.449 L 311.292 423.402 L 311.638 423.352 L 311.984 423.298 L 312.33 423.241 L 312.676 423.18 L 313.023 423.115 L 313.369 423.047 L 313.715 422.976 L 314.061 422.9 L 314.407 422.822 L 314.754 422.74 L 315.1 422.654 L 315.446 422.564 L 315.792 422.471 L 316.138 422.375 L 316.484 422.274 L 316.831 422.17 L 317.177 422.063 L 317.523 421.951 L 317.869 421.836 L 318.215 421.718 L 318.561 421.595 L 318.908 421.469 L 319.254 421.339 L 319.6 421.206 L 319.946 421.068 L 320.292 420.927 L 320.639 420.782 L 320.985 420.634 L 321.331 420.481 L 321.677 420.325 L 322.023 420.165 L 322.369 420.001 L 322.716 419.833 L 323.062 419.661 L 323.408 419.486 L 323.754 419.306 L 324.1 419.123 L 324.447 418.936 L 324.793 418.745 L 325.139 418.549 L 325.485 418.35 L 325.831 418.147 L 326.177 417.94 L 326.524 417.729 L 326.87 417.514 L 327.216 417.296 L 327.562 417.073 L 327.908 416.846 L 328.255 416.615 L 328.601 416.379 L 328.947 416.14 L 329.293 415.897 L 329.639 415.65 L 329.985 415.398 L 330.332 415.143 L 330.678 414.883 L 331.024 414.619 L 331.37 414.351 L 331.716 414.079 L 332.062 413.803 L 332.409 413.523 L 332.755 413.238 L 333.101 412.949 L 333.447 412.656 L 333.793 412.359 L 334.14 412.057 L 334.486 411.751 L 334.832 411.441 L 335.178 411.127 L 335.524 410.808 L 335.87 410.485 L 336.217 410.158 L 336.563 409.827 L 336.909 409.491 L 337.255 409.15 L 337.601 408.806 L 337.948 408.457 L 338.294 408.104 L 338.64 407.746 L 338.986 407.384 L 339.332 407.017 L 339.678 406.646 L 340.025 406.271 L 340.371 405.891 L 340.717 405.506 L 341.063 405.117 L 341.409 404.724 L 341.756 404.326 L 342.102 403.924 L 342.448 403.517 L 342.794 403.106 L 343.14 402.69 L 343.486 402.269 L 343.833 401.844 L 344.179 401.414 L 344.525 400.98 L 344.871 400.541 L 345.217 400.097 L 345.563 399.649 L 345.91 399.196 L 346.256 398.739 L 346.602 398.277 L 346.948 397.81 L 347.294 397.339 L 347.641 396.862 L 347.987 396.381 L 348.333 395.896 L 348.679 395.405 L 349.025 394.91 L 349.371 394.41 L 349.718 393.906 L 350.064 393.396 L 350.41 392.882 L 350.756 392.363 L 351.102 391.839 L 351.449 391.31 L 351.795 390.777 L 352.141 390.238 L 352.487 389.695 L 352.833 389.147 L 353.179 388.594 L 353.526 388.036 L 353.872 387.473 L 354.218 386.905 L 354.564 386.332 L 354.91 385.754 L 355.257 385.172 L 355.603 384.584 L 355.949 383.991 L 356.295 383.394 L 356.641 382.791 L 356.987 382.183 L 357.334 381.571 L 357.68 380.953 L 358.026 380.33 L 358.372 379.702 L 358.718 379.069 L 359.064 378.431 L 359.411 377.788 L 359.757 377.14 L 360.103 376.486 L 360.449 375.828 L 360.795 375.164 L 361.142 374.495 L 361.488 373.821 L 361.834 373.142 L 362.18 372.457 L 362.526 371.768 L 362.872 371.073 L 363.219 370.373 L 363.565 369.667 L 363.911 368.957 L 364.257 368.241 L 364.603 367.519 L 364.95 366.793 L 365.296 366.061 L 365.642 365.324 L 365.988 364.582 L 366.334 363.834 L 366.68 363.081 L 367.027 362.322 L 367.373 361.558 L 367.719 360.789 L 368.065 360.014 L 368.411 359.234 L 368.758 358.448 L 369.104 357.658 L 369.45 356.861 L 369.796 356.059 L 370.142 355.252 L 370.488 354.439 L 370.835 353.621 L 371.181 352.797 L 371.527 351.967 L 371.873 351.132 L 372.219 350.292 L 372.565 349.446 L 372.912 348.594 L 373.258 347.737 L 373.604 346.875 L 373.95 346.006 L 374.296 345.132 L 374.643 344.253 L 374.989 343.367 L 375.335 342.476 L 375.681 341.58 L 376.027 340.678 L 376.373 339.77 L 376.72 338.856 L 377.066 337.937 L 377.412 337.012 L 377.758 336.081 L 378.104 335.144 L 378.451 334.202 L 378.797 333.254 L 379.143 332.3 L 379.489 331.341 L 379.835 330.375 L 380.181 329.404 L 380.528 328.427 L 380.874 327.444 L 381.22 326.455 L 381.566 325.46 L 381.912 324.46 L 382.259 323.453 L 382.605 322.441 L 382.951 321.423 L 383.297 320.399 L 383.643 319.369 L 383.989 318.333 L 384.336 317.291 L 384.682 316.243 L 385.028 315.189 L 385.374 314.129 L 385.72 313.063 L 386.066 311.991 L 386.413 310.913 L 386.759 309.829 L 387.105 308.739 L 387.451 307.643 L 387.797 306.54 L 388.144 305.432 L 388.49 304.318 L 388.836 303.197 L 389.182 302.07 L 389.528 300.937 L 389.874 299.799 L 390.221 298.653 L 390.567 297.502 L 390.913 296.345 L 391.259 295.181 L 391.605 294.011 L 391.952 292.835 L 392.298 291.653 L 392.644 290.464 L 392.99 289.269 L 393.336 288.068 L 393.682 286.861 L 394.029 285.647 L 394.375 284.427 L 394.721 283.201 L 395.067 281.968 L 395.413 280.729 L 395.76 279.484 L 396.106 278.232 L 396.452 276.974 L 396.798 275.71 L 397.144 274.439 L 397.49 273.162 L 397.837 271.878 L 398.183 270.588 L 398.529 269.291 L 398.875 267.988 L 399.221 266.679 L 399.567 265.363 L 399.914 264.04 L 400.26 262.711 L 400.606 261.376 L 400.952 260.034 L 401.298 258.685 L 401.645 257.33 L 401.991 255.969 L 402.337 254.601 L 402.683 253.226 L 403.029 251.844 L 403.375 250.456 L 403.722 249.062 L 404.068 247.66 L 404.414 246.252 L 404.76 244.838 L 405.106 243.417 L 405.453 241.989 L 405.799 240.554 L 406.145 239.113 L 406.491 237.665 L 406.837 236.21 L 407.183 234.748 L 407.53 233.28 L 407.876 231.805 L 408.222 230.323 L 408.568 228.834 L 408.914 227.339 L 409.261 225.837 L 409.607 224.328 L 409.953 222.812 L 410.299 221.289 L 410.645 219.76 L 410.991 218.223 L 411.338 216.68 L 411.684 215.129 L 412.03 213.572 L 412.376 212.008 L 412.722 210.437 L 413.068 208.859 L 413.415 207.274 L 413.761 205.682 L 414.107 204.084 L 414.453 202.478 L 414.799 200.865 L 415.146 199.245 L 415.492 197.618 L 415.838 195.984 L 416.184 194.343 L 416.53 192.695 L 416.876 191.04 L 417.223 189.378 L 417.569 187.709 L 417.915 186.032 L 418.261 184.349 L 418.607 182.658 L 418.954 180.96 L 419.3 179.255 L 419.646 177.543 L 419.992 175.824 L 420.338 174.097 L 420.684 172.364 L 421.031 170.623 L 421.377 168.875 L 421.723 167.119 L 422.069 165.357 L 422.415 163.587 L 422.762 161.81 L 423.108 160.025 L 423.454 158.233 L 423.8 156.434 L 424.146 154.628 L 424.492 152.814 L 424.839 150.993 L 425.185 149.165 L 425.531 147.329 L 425.877 145.486 L 426.223 143.635 L 426.569 141.777 L 426.916 139.912 L 427.262 138.039 L 427.608 136.159 L 427.954 134.271 L 428.3 132.376 L 428.647 130.473 L 428.993 128.563 L 429.339 126.645 L 429.685 124.72 L 430.031 122.788 L 430.377 120.847 L 430.724 118.9 L 431.07 116.944 L 431.416 114.981 L 431.762 113.011 L 432.108 111.033 L 432.455 109.047 L 432.801 107.054 L 433.147 105.053 L 433.493 103.044 L 433.839 101.028 L 434.185 99.0043 L 434.532 96.9727 L 434.878 94.9335 L 435.224 92.8865 L 435.57 90.8319 L 435.916 88.7695 L 436.263 86.6993 L 436.609 84.6215 L 436.955 82.5358 L 437.301 80.4424 L 437.647 78.3412 L 437.993 76.2322 L 438.34 74.1154 L 438.686 71.9908 L 439.032 69.8584 L 439.378 67.7181 L 439.724 65.5699 L 440.07 63.4139 L 440.417 61.25" stroke-width="3" stroke-dasharray="" stroke="black" stroke-opacity="1" fill="none" />
</g>
<g id="frame_0">
    <rect id="frame_0_border" x="60" y="25" width="415" height="435" />
    <g id="frame_0_bottomticks">
        <path d="M 267.5 460 L 267.5 450" />
        <path d="M 94.5833 460 L 94.5833 440" />
        <text font-size="30" transform="translate(94.5833, 490)" text-anchor="middle" dominant-baseline="middle" stroke="none" fill="black">0</text>
        <path d="M 475 460 L 475 450" />
        <path d="M 129.167 460 L 129.167 450" />
        <path d="M 440.417 460 L 440.417 440" />
        <text font-size="30" transform="translate(440.417, 490)" text-anchor="middle" dominant-baseline="middle" stroke="none" fill="black">1</text>
        <path d="M 371.25 460 L 371.25 440" />
        <text font-size="30" transform="translate(371.25, 490)" text-anchor="middle" dominant-baseline="middle" stroke="none" fill="black">0.8</text>
        <path d="M 302.083 460 L 302.083 440" />
        <text font-size="30" transform="translate(302.083, 490)" text-anchor="middle" dominant-baseline="middle" stroke="none" fill="black">0.6</text>
        <path d="M 198.333 460 L 198.333 450" />
        <path d="M 232.917 460 L 232.917 440" />
        <text font-size="30" transform="translate(232.917, 490)" text-anchor="middle" dominant-baseline="middle" stroke="none" fill="black">0.4</text>
        <path d="M 405.833 460 L 405.833 450" />
        <path d="M 336.667 460 L 336.667 450" />
        <path d="M 60 460 L 60 450" />
        <path d="M 163.75 460 L 163.75 440" />
        <text font-size="30" transform="translate(163.75, 490)" text-anchor="middle" dominant-baseline="middle" stroke="none" fill="black">0.2</text>
    </g>
    <g id="frame_0_leftticks">
        <path d="M 60 356.569 L 80 356.569" />
        <text font-size="30" transform="translate(50, 366.569)" text-anchor="end" dominant-baseline="middle" stroke="none" fill="black">‒0.5</text>
        <path d="M 60 258.129 L 80 258.129" />
        <text font-size="30" transform="translate(50, 268.129)" text-anchor="end" dominant-baseline="middle" stroke="none" fill="black">0</text>
        <path d="M 60 159.69 L 80 159.69" />
        <text font-size="30" transform="translate(50, 169.69)" text-anchor="end" dominant-baseline="middle" stroke="none" fill="black">0.5</text>
        <path d="M 60 61.25 L 80 61.25" />
        <text font-size="30" transform="translate(50, 71.25)" text-anchor="end" dominant-baseline="middle" stroke="none" fill="black">1</text>
        <path d="M 60 199.065 L 70 199.065" />
        <path d="M 60 277.817 L 70 277.817" />
        <path d="M 60 140.002 L 70 140.002" />
        <path d="M 60 435.321 L 70 435.321" />
        <path d="M 60 120.314 L 70 120.314" />
        <path d="M 60 297.505 L 70 297.505" />
        <path d="M 60 415.633 L 70 415.633" />
        <path d="M 60 336.881 L 70 336.881" />
        <path d="M 60 218.753 L 70 218.753" />
        <path d="M 60 100.626 L 70 100.626" />
        <path d="M 60 395.945 L 70 395.945" />
        <path d="M 60 238.441 L 70 238.441" />
        <path d="M 60 80.9379 L 70 80.9379" />
        <path d="M 60 317.193 L 70 317.193" />
        <path d="M 60 179.378 L 70 179.378" />
        <path d="M 60 376.257 L 70 376.257" />
        <path d="M 60 41.5621 L 70 41.5621" />
        <path d="M 60 455.009 L 80 455.009" />
        <text font-size="30" transform="translate(50, 465.009)" text-anchor="end" dominant-baseline="middle" stroke="none" fill="black">‒1</text>
    </g>
    <g id="frame_0_topticks">
        <path d="M 267.5 25 L 267.5 35" />
        <path d="M 94.5833 25 L 94.5833 45" />
        <path d="M 475 25 L 475 35" />
        <path d="M 129.167 25 L 129.167 35" />
        <path d="M 440.417 25 L 440.417 45" />
        <path d="M 371.25 25 L 371.25 45" />
        <path d="M 302.083 25 L 302.083 45" />
        <path d="M 198.333 25 L 198.333 35" />
        <path d="M 232.917 25 L 232.917 45" />
        <path d="M 405.833 25 L 405.833 35" />
        <path d="M 336.667 25 L 336.667 35" />
        <path d="M 60 25 L 60 35" />
        <path d="M 163.75 25 L 163.75 45" />
    </g>
    <g id="frame_0_rightticks">
        <path d="M 475 356.569 L 455 356.569" />
        <path d="M 475 258.129 L 455 258.129" />
        <path d="M 475 159.69 L 455 159.69" />
        <path d="M 475 61.25 L 455 61.25" />
        <path d="M 475 199.065 L 465 199.065" />
        <path d="M 475 277.817 L 465 277.817" />
        <path d="M 475 140.002 L 465 140.002" />
        <path d="M 475 435.321 L 465 435.321" />
        <path d="M 475 120.314 L 465 120.314" />
        <path d="M 475 297.505 L 465 297.505" />
        <path d="M 475 415.633 L 465 415.633" />
        <path d="M 475 336.881 L 465 336.881" />
        <path d="M 475 218.753 L 465 218.753" />
        <path d="M 475 100.626 L 465 100.626" />
        <path d="M 475 395.945 L 465 395.945" />
        <path d="M 475 238.441 L 465 238.441" />
        <path d="M 475 80.9379 L 465 80.9379" />
        <path d="M 475 317.193 L 465 317.193" />
        <path d="M 475 179.378 L 465 179.378" />
        <path d="M 475 376.257 L 465 376.257" />
        <path d="M 475 41.5621 L 465 41.5621" />
        <path d="M 475 455.009 L 455 455.009" />
    </g>
</g>
<g id="Grid_0" clip-path="url(#Grid_0_clip)">
    <path d="M 560 460 L 560 25 M 594.583 460 L 594.583 25 M 629.167 460 L 629.167 25 M 663.75 460 L 663.75 25 M 698.333 460 L 698.333 25 M 732.917 460 L 732.917 25 M 767.5 460 L 767.5 25 M 802.083 460 L 802.083 25 M 836.667 460 L 836.667 25 M 871.25 460 L 871.25 25 M 905.833 460 L 905.833 25 M 940.417 460 L 940.417 25 M 975 460 L 975 25" stroke-width="3" stroke-dasharray="3.0 3.0" stroke="grey" stroke-opacity="1" fill="none" />
</g>
<g id="Scatter_1" clip-path="url(#Scatter_1_clip)">
    <path d="M 560 299.474 L 560.415 298.697 L 560.831 297.928 L 561.246 297.166 L 561.662 296.411 L 562.077 295.664 L 562.492 294.924 L 562.908 294.191 L 563.323 293.465 L 563.739 292.747 L 564.154 292.036 L 564.57 291.332 L 564.985 290.635 L 565.4 289.945 L 565.816 289.262 L 566.231 288.587 L 566.647 287.919 L 567.062 287.257 L 567.477 286.603 L 567.893 285.956 L 568.308 285.315 L 568.724 284.682 L 569.139 284.056 L 569.555 283.436 L 569.97 282.824 L 570.385 282.218 L 570.801 281.619 L 571.216 281.028 L 571.632 280.442 L 572.047 279.864 L 572.462 279.293 L 572.878 278.728 L 573.293 278.17 L 573.709 277.619 L 574.124 277.075 L 574.54 276.537 L 574.955 276.006 L 575.37 275.481 L 575.786 274.963 L 576.201 274.452 L 576.617 273.947 L 577.032 273.449 L 577.447 272.958 L 577.863 272.473 L 578.278 271.994 L 578.694 271.522 L 579.109 271.057 L 579.525 270.598 L 579.94 270.145 L 580.355 269.699 L 580.771 269.259 L 581.186 268.825 L 581.602 268.398 L 582.017 267.977 L 582.432 267.562 L 582.848 267.154 L 583.263 266.752 L 583.679 266.356 L 584.094 265.967 L 584.51 265.583 L 584.925 265.206 L 585.34 264.835 L 585.756 264.47 L 586.171 264.111 L 586.587 263.759 L 587.002 263.412 L 587.417 263.072 L 587.833 262.737 L 588.248 262.409 L 588.664 262.086 L 589.079 261.769 L 589.494 261.459 L 589.91 261.154 L 590.325 260.855 L 590.741 260.563 L 591.156 260.276 L 591.572 259.994 L 591.987 259.719 L 592.402 259.45 L 592.818 259.186 L 593.233 258.928 L 593.649 258.676 L 594.064 258.429 L 594.479 258.189 L 594.895 257.954 L 595.31 257.724 L 595.726 257.5 L 596.141 257.282 L 596.557 257.07 L 596.972 256.863 L 597.387 256.661 L 597.803 256.466 L 598.218 256.275 L 598.634 256.09 L 599.049 255.911 L 599.464 255.737 L 599.88 255.569 L 600.295 255.406 L 600.711 255.248 L 601.126 255.096 L 601.542 254.949 L 601.957 254.807 L 602.372 254.671 L 602.788 254.54 L 603.203 254.415 L 603.619 254.294 L 604.034 254.179 L 604.449 254.069 L 604.865 253.965 L 605.28 253.865 L 605.696 253.771 L 606.111 253.681 L 606.527 253.597 L 606.942 253.518 L 607.357 253.444 L 607.773 253.375 L 608.188 253.311 L 608.604 253.252 L 609.019 253.198 L 609.434 253.149 L 609.85 253.105 L 610.265 253.066 L 610.681 253.032 L 611.096 253.003 L 611.512 252.979 L 611.927 252.959 L 612.342 252.944 L 612.758 252.934 L 613.173 252.929 L 613.589 252.929 L 614.004 252.933 L 614.419 252.942 L 614.835 252.956 L 615.25 252.975 L 615.666 252.998 L 616.081 253.026 L 616.496 253.058 L 616.912 253.095 L 617.327 253.137 L 617.743 253.183 L 618.158 253.234 L 618.574 253.289 L 618.989 253.348 L 619.404 253.413 L 619.82 253.481 L 620.235 253.554 L 620.651 253.632 L 621.066 253.714 L 621.481 253.8 L 621.897 253.891 L 622.312 253.986 L 622.728 254.085 L 623.143 254.189 L 623.559 254.296 L 623.974 254.409 L 624.389 254.525 L 624.805 254.645 L 625.22 254.77 L 625.636 254.899 L 626.051 255.032 L 626.466 255.169 L 626.882 255.311 L 627.297 255.456 L 627.713 255.606 L 628.128 255.759 L 628.544 255.917 L 628.959 256.078 L 629.374 256.244 L 629.79 256.413 L 630.205 256.587 L 630.621 256.764 L 631.036 256.945 L 631.451 257.131 L 631.867 257.32 L 632.282 257.512 L 632.698 257.709 L 633.113 257.91 L 633.529 258.114 L 633.944 258.322 L 634.359 258.534 L 634.775 258.749 L 635.19 258.969 L 635.606 259.191 L 636.021 259.418 L 636.436 259.648 L 636.852 259.882 L 637.267 260.119 L 637.683 260.36 L 638.098 260.605 L 638.514 260.853 L 638.929 261.105 L 639.344 261.36 L 639.76 261.618 L 640.175 261.88 L 640.591 262.146 L 641.006 262.415 L 641.421 262.687 L 641.837 262.963 L 642.252 263.242 L 642.668 263.524 L 643.083 263.81 L 643.498 264.098 L 643.914 264.391 L 644.329 264.686 L 644.745 264.985 L 645.16 265.287 L 645.576 265.592 L 645.991 265.9 L 646.406 266.211 L 646.822 266.526 L 647.237 266.844 L 647.653 267.164 L 648.068 267.488 L 648.483 267.815 L 648.899 268.145 L 649.314 268.478 L 649.73 268.813 L 650.145 269.152 L 650.561 269.494 L 650.976 269.839 L 651.391 270.186 L 651.807 270.537 L 652.222 270.89 L 652.638 271.246 L 653.053 271.605 L 653.468 271.967 L 653.884 272.331 L 654.299 272.699 L 654.715 273.069 L 655.13 273.442 L 655.546 273.817 L 655.961 274.195 L 656.376 274.576 L 656.792 274.959 L 657.207 275.345 L 657.623 275.734 L 658.038 276.125 L 658.453 276.519 L 658.869 276.915 L 659.284 277.314 L 659.7 277.716 L 660.115 278.119 L 660.531 278.526 L 660.946 278.934 L 661.361 279.345 L 661.777 279.759 L 662.192 280.175 L 662.608 280.593 L 663.023 281.013 L 663.438 281.436 L 663.854 281.861 L 664.269 282.289 L 664.685 282.718 L 665.1 283.15 L 665.516 283.584 L 665.931 284.02 L 666.346 284.459 L 666.762 284.899 L 667.177 285.342 L 667.593 285.787 L 668.008 286.234 L 668.423 286.683 L 668.839 287.134 L 669.254 287.587 L 669.67 288.042 L 670.085 288.499 L 670.501 288.958 L 670.916 289.418 L 671.331 289.881 L 671.747 290.346 L 672.162 290.813 L 672.578 291.281 L 672.993 291.751 L 673.408 292.223 L 673.824 292.697 L 674.239 293.173 L 674.655 293.65 L 675.07 294.129 L 675.485 294.61 L 675.901 295.093 L 676.316 295.577 L 676.732 296.063 L 677.147 296.55 L 677.563 297.04 L 677.978 297.53 L 678.393 298.023 L 678.809 298.516 L 679.224 299.012 L 679.64 299.509 L 680.055 300.007 L 680.47 300.507 L 680.886 301.008 L 681.301 301.511 L 681.717 302.015 L 682.132 302.521 L 682.548 303.028 L 682.963 303.536 L 683.378 304.045 L 683.794 304.556 L 684.209 305.068 L 684.625 305.582 L 685.04 306.096 L 685.455 306.612 L 685.871 307.129 L 686.286 307.648 L 686.702 308.167 L 687.117 308.688 L 687.533 309.209 L 687.948 309.732 L 688.363 310.256 L 688.779 310.781 L 689.194 311.307 L 689.61 311.834 L 690.025 312.362 L 690.44 312.891 L 690.856 313.421 L 691.271 313.951 L 691.687 314.483 L 692.102 315.016 L 692.518 315.549 L 692.933 316.084 L 693.348 316.619 L 693.764 317.155 L 694.179 317.692 L 694.595 318.23 L 695.01 318.768 L 695.425 319.307 L 695.841 319.847 L 696.256 320.387 L 696.672 320.928 L 697.087 321.47 L 697.503 322.013 L 697.918 322.556 L 698.333 323.099 L 698.749 323.644 L 699.164 324.188 L 699.58 324.734 L 699.995 325.279 L 700.41 325.826 L 700.826 326.373 L 701.241 326.92 L 701.657 327.467 L 702.072 328.015 L 702.487 328.564 L 702.903 329.113 L 703.318 329.662 L 703.734 330.211 L 704.149 330.761 L 704.565 331.311 L 704.98 331.861 L 705.395 332.412 L 705.811 332.962 L 706.226 333.513 L 706.642 334.064 L 707.057 334.616 L 707.472 335.167 L 707.888 335.719 L 708.303 336.27 L 708.719 336.822 L 709.134 337.374 L 709.55 337.925 L 709.965 338.477 L 710.38 339.029 L 710.796 339.581 L 711.211 340.133 L 711.627 340.684 L 712.042 341.236 L 712.457 341.787 L 712.873 342.339 L 713.288 342.89 L 713.704 343.441 L 714.119 343.992 L 714.535 344.542 L 714.95 345.093 L 715.365 345.643 L 715.781 346.193 L 716.196 346.742 L 716.612 347.292 L 717.027 347.841 L 717.442 348.389 L 717.858 348.937 L 718.273 349.485 L 718.689 350.033 L 719.104 350.58 L 719.52 351.126 L 719.935 351.672 L 720.35 352.218 L 720.766 352.763 L 721.181 353.307 L 721.597 353.851 L 722.012 354.395 L 722.427 354.937 L 722.843 355.479 L 723.258 356.021 L 723.674 356.562 L 724.089 357.102 L 724.505 357.641 L 724.92 358.18 L 725.335 358.718 L 725.751 359.255 L 726.166 359.792 L 726.582 360.327 L 726.997 360.862 L 727.412 361.396 L 727.828 361.929 L 728.243 362.461 L 728.659 362.993 L 729.074 363.523 L 729.489 364.053 L 729.905 364.581 L 730.32 365.109 L 730.736 365.635 L 731.151 366.16 L 731.567 366.685 L 731.982 367.208 L 732.397 367.73 L 732.813 368.252 L 733.228 368.772 L 733.644 369.29 L 734.059 369.808 L 734.474 370.325 L 734.89 370.84 L 735.305 371.354 L 735.721 371.867 L 736.136 372.378 L 736.552 372.888 L 736.967 373.397 L 737.382 373.905 L 737.798 374.411 L 738.213 374.916 L 738.629 375.419 L 739.044 375.921 L 739.459 376.422 L 739.875 376.921 L 740.29 377.419 L 740.706 377.915 L 741.121 378.409 L 741.537 378.902 L 741.952 379.394 L 742.367 379.884 L 742.783 380.372 L 743.198 380.859 L 743.614 381.344 L 744.029 381.827 L 744.444 382.309 L 744.86 382.789 L 745.275 383.267 L 745.691 383.744 L 746.106 384.219 L 746.522 384.692 L 746.937 385.163 L 747.352 385.632 L 747.768 386.1 L 748.183 386.565 L 748.599 387.029 L 749.014 387.491 L 749.429 387.951 L 749.845 388.409 L 750.26 388.865 L 750.676 389.319 L 751.091 389.771 L 751.507 390.221 L 751.922 390.669 L 752.337 391.114 L 752.753 391.558 L 753.168 392 L 753.584 392.439 L 753.999 392.877 L 754.414 393.312 L 754.83 393.745 L 755.245 394.176 L 755.661 394.604 L 756.076 395.03 L 756.491 395.454 L 756.907 395.876 L 757.322 396.295 L 757.738 396.712 L 758.153 397.127 L 758.569 397.539 L 758.984 397.949 L 759.399 398.357 L 759.815 398.762 L 760.23 399.164 L 760.646 399.564 L 761.061 399.962 L 761.476 400.357 L 761.892 400.749 L 762.307 401.139 L 762.723 401.527 L 763.138 401.911 L 763.554 402.293 L 763.969 402.673 L 764.384 403.05 L 764.8 403.424 L 765.215 403.795 L 765.631 404.164 L 766.046 404.53 L 766.461 404.893 L 766.877 405.253 L 767.292 405.611 L 767.708 405.966 L 768.123 406.318 L 768.539 406.667 L 768.954 407.013 L 769.369 407.356 L 769.785 407.696 L 770.2 408.034 L 770.616 408.368 L 771.031 408.699 L 771.446 409.028 L 771.862 409.353 L 772.277 409.675 L 772.693 409.994 L 773.108 410.31 L 773.524 410.623 L 773.939 410.933 L 774.354 411.24 L 774.77 411.543 L 775.185 411.844 L 775.601 412.141 L 776.016 412.435 L 776.431 412.725 L 776.847 413.012 L 777.262 413.296 L 777.678 413.577 L 778.093 413.854 L 778.509 414.128 L 778.924 414.399 L 779.339 414.666 L 779.755 414.93 L 780.17 415.19 L 780.586 415.447 L 781.001 415.7 L 781.416 415.95 L 781.832 416.196 L 782.247 416.439 L 782.663 416.678 L 783.078 416.914 L 783.493 417.146 L 783.909 417.374 L 784.324 417.599 L 784.74 417.82 L 785.155 418.038 L 785.571 418.251 L 785.986 418.461 L 786.401 418.667 L 786.817 418.87 L 787.232 419.068 L 787.648 419.263 L 788.063 419.454 L 788.478 419.641 L 788.894 419.824 L 789.309 420.004 L 789.725 420.179 L 790.14 420.351 L 790.556 420.518 L 790.971 420.682 L 791.386 420.841 L 791.802 420.997 L 792.217 421.148 L 792.633 421.296 L 793.048 421.439 L 793.463 421.578 L 793.879 421.714 L 794.294 421.845 L 794.71 421.971 L 795.125 422.094 L 795.541 422.213 L 795.956 422.327 L 796.371 422.437 L 796.787 422.542 L 797.202 422.644 L 797.618 422.741 L 798.033 422.834 L 798.448 422.922 L 798.864 423.006 L 799.279 423.086 L 799.695 423.161 L 800.11 423.232 L 800.526 423.299 L 800.941 423.361 L 801.356 423.418 L 801.772 423.471 L 802.187 423.52 L 802.603 423.563 L 803.018 423.603 L 803.433 423.637 L 803.849 423.668 L 804.264 423.693 L 804.68 423.714 L 805.095 423.73 L 805.511 423.741 L 805.926 423.748 L 806.341 423.75 L 806.757 423.747 L 807.172 423.74 L 807.588 423.728 L 808.003 423.711 L 808.418 423.689 L 808.834 423.662 L 809.249 423.63 L 809.665 423.593 L 810.08 423.552 L 810.495 423.505 L 810.911 423.454 L 811.326 423.398 L 811.742 423.336 L 812.157 423.27 L 812.573 423.198 L 812.988 423.122 L 813.403 423.04 L 813.819 422.953 L 814.234 422.862 L 814.65 422.765 L 815.065 422.662 L 815.48 422.555 L 815.896 422.443 L 816.311 422.325 L 816.727 422.202 L 817.142 422.074 L 817.558 421.94 L 817.973 421.801 L 818.388 421.657 L 818.804 421.507 L 819.219 421.352 L 819.635 421.192 L 820.05 421.026 L 820.465 420.855 L 820.881 420.679 L 821.296 420.497 L 821.712 420.309 L 822.127 420.116 L 822.543 419.917 L 822.958 419.713 L 823.373 419.503 L 823.789 419.288 L 824.204 419.067 L 824.62 418.841 L 825.035 418.608 L 825.45 418.37 L 825.866 418.127 L 826.281 417.878 L 826.697 417.622 L 827.112 417.362 L 827.528 417.095 L 827.943 416.823 L 828.358 416.544 L 828.774 416.26 L 829.189 415.97 L 829.605 415.675 L 830.02 415.373 L 830.435 415.065 L 830.851 414.752 L 831.266 414.432 L 831.682 414.107 L 832.097 413.775 L 832.513 413.438 L 832.928 413.094 L 833.343 412.744 L 833.759 412.389 L 834.174 412.027 L 834.59 411.659 L 835.005 411.285 L 835.42 410.904 L 835.836 410.518 L 836.251 410.125 L 836.667 409.726 L 837.082 409.321 L 837.497 408.91 L 837.913 408.492 L 838.328 408.068 L 838.744 407.638 L 839.159 407.201 L 839.575 406.758 L 839.99 406.308 L 840.405 405.852 L 840.821 405.39 L 841.236 404.921 L 841.652 404.446 L 842.067 403.964 L 842.482 403.476 L 842.898 402.981 L 843.313 402.48 L 843.729 401.972 L 844.144 401.457 L 844.56 400.936 L 844.975 400.408 L 845.39 399.874 L 845.806 399.333 L 846.221 398.785 L 846.637 398.23 L 847.052 397.669 L 847.467 397.101 L 847.883 396.526 L 848.298 395.945 L 848.714 395.356 L 849.129 394.761 L 849.545 394.159 L 849.96 393.55 L 850.375 392.934 L 850.791 392.311 L 851.206 391.681 L 851.622 391.044 L 852.037 390.4 L 852.452 389.749 L 852.868 389.092 L 853.283 388.427 L 853.699 387.755 L 854.114 387.076 L 854.53 386.39 L 854.945 385.696 L 855.36 384.996 L 855.776 384.288 L 856.191 383.574 L 856.607 382.852 L 857.022 382.122 L 857.437 381.386 L 857.853 380.642 L 858.268 379.891 L 858.684 379.133 L 859.099 378.367 L 859.515 377.594 L 859.93 376.814 L 860.345 376.026 L 860.761 375.231 L 861.176 374.428 L 861.592 373.618 L 862.007 372.8 L 862.422 371.975 L 862.838 371.142 L 863.253 370.302 L 863.669 369.455 L 864.084 368.599 L 864.499 367.736 L 864.915 366.866 L 865.33 365.988 L 865.746 365.102 L 866.161 364.208 L 866.577 363.307 L 866.992 362.398 L 867.407 361.481 L 867.823 360.557 L 868.238 359.625 L 868.654 358.685 L 869.069 357.737 L 869.484 356.781 L 869.9 355.818 L 870.315 354.846 L 870.731 353.867 L 871.146 352.879 L 871.562 351.884 L 871.977 350.881 L 872.392 349.87 L 872.808 348.85 L 873.223 347.823 L 873.639 346.788 L 874.054 345.745 L 874.469 344.693 L 874.885 343.633 L 875.3 342.566 L 875.716 341.49 L 876.131 340.406 L 876.547 339.314 L 876.962 338.213 L 877.377 337.104 L 877.793 335.988 L 878.208 334.862 L 878.624 333.729 L 879.039 332.587 L 879.454 331.437 L 879.87 330.278 L 880.285 329.111 L 880.701 327.936 L 881.116 326.752 L 881.532 325.56 L 881.947 324.359 L 882.362 323.15 L 882.778 321.933 L 883.193 320.707 L 883.609 319.472 L 884.024 318.229 L 884.439 316.977 L 884.855 315.716 L 885.27 314.447 L 885.686 313.17 L 886.101 311.883 L 886.517 310.588 L 886.932 309.284 L 887.347 307.972 L 887.763 306.651 L 888.178 305.321 L 888.594 303.982 L 889.009 302.634 L 889.424 301.278 L 889.84 299.913 L 890.255 298.539 L 890.671 297.155 L 891.086 295.764 L 891.502 294.363 L 891.917 292.953 L 892.332 291.534 L 892.748 290.106 L 893.163 288.669 L 893.579 287.224 L 893.994 285.769 L 894.409 284.305 L 894.825 282.832 L 895.24 281.349 L 895.656 279.858 L 896.071 278.358 L 896.486 276.848 L 896.902 275.329 L 897.317 273.801 L 897.733 272.264 L 898.148 270.717 L 898.564 269.161 L 898.979 267.596 L 899.394 266.022 L 899.81 264.438 L 900.225 262.845 L 900.641 261.242 L 901.056 259.63 L 901.471 258.009 L 901.887 256.378 L 902.302 254.738 L 902.718 253.088 L 903.133 251.429 L 903.549 249.76 L 903.964 248.081 L 904.379 246.393 L 904.795 244.696 L 905.21 242.989 L 905.626 241.272 L 906.041 239.546 L 906.456 237.81 L 906.872 236.064 L 907.287 234.308 L 907.703 232.543 L 908.118 230.768 L 908.534 228.984 L 908.949 227.189 L 909.364 225.385 L 909.78 223.571 L 910.195 221.747 L 910.611 219.913 L 911.026 218.069 L 911.441 216.215 L 911.857 214.352 L 912.272 212.478 L 912.688 210.595 L 913.103 208.701 L 913.519 206.798 L 913.934 204.884 L 914.349 202.96 L 914.765 201.027 L 915.18 199.083 L 915.596 197.129 L 916.011 195.165 L 916.426 193.19 L 916.842 191.206 L 917.257 189.211 L 917.673 187.207 L 918.088 185.191 L 918.504 183.166 L 918.919 181.13 L 919.334 179.084 L 919.75 177.028 L 920.165 174.962 L 920.581 172.885 L 920.996 170.797 L 921.411 168.699 L 921.827 166.591 L 922.242 164.473 L 922.658 162.344 L 923.073 160.204 L 923.488 158.054 L 923.904 155.893 L 924.319 153.722 L 924.735 151.54 L 925.15 149.348 L 925.566 147.145 L 925.981 144.931 L 926.396 142.707 L 926.812 140.472 L 927.227 138.227 L 927.643 135.97 L 928.058 133.703 L 928.473 131.425 L 928.889 129.137 L 929.304 126.838 L 929.72 124.527 L 930.135 122.206 L 930.551 119.874 L 930.966 117.532 L 931.381 115.178 L 931.797 112.813 L 932.212 110.438 L 932.628 108.051 L 933.043 105.654 L 933.458 103.246 L 933.874 100.826 L 934.289 98.3956 L 934.705 95.9541 L 935.12 93.5014 L 935.536 91.0377 L 935.951 88.5628 L 936.366 86.0768 L 936.782 83.5796 L 937.197 81.0713 L 937.613 78.5517 L 938.028 76.0209 L 938.443 73.4789 L 938.859 70.9256 L 939.274 68.361 L 939.69 65.7851 L 940.105 63.1979 L 940.521 60.5993 L 940.936 57.9894 L 941.351 55.368 L 941.767 52.7353 L 942.182 50.0911 L 942.598 47.4355 L 943.013 44.7684 L 943.428 42.0899 L 943.844 39.3998 L 944.259 36.6982 L 944.675 33.985 L 945.09 31.2602 L 945.506 28.5239 L 945.921 25.776 L 946.336 23.0164 L 946.752 20.2451 L 947.167 17.4622 L 947.583 14.6676 L 947.998 11.8613 L 948.413 9.04321 L 948.829 6.21339 L 949.244 3.3718 L 949.66 0.5184 L 950.075 -2.34681 L 950.49 -5.22387 L 950.906 -8.11278 L 951.321 -11.0136 L 951.737 -13.9263 L 952.152 -16.8509 L 952.568 -19.7874 L 952.983 -22.736 L 953.398 -25.6965 L 953.814 -28.669 L 954.229 -31.6535 L 954.645 -34.65 L 955.06 -37.6587 L 955.475 -40.6794 L 955.891 -43.7122 L 956.306 -46.7572 L 956.722 -49.8143 L 957.137 -52.8835 L 957.553 -55.965 L 957.968 -59.0586 L 958.383 -62.1645 L 958.799 -65.2826 L 959.214 -68.413 L 959.63 -71.5557 L 960.045 -74.7107 L 960.46 -77.8781 L 960.876 -81.0578 L 961.291 -84.2498 L 961.707 -87.4543 L 962.122 -90.6711 L 962.538 -93.9004 L 962.953 -97.1421 L 963.368 -100.396 L 963.784 -103.663 L 964.199 -106.942 L 964.615 -110.234 L 965.03 -113.538 L 965.445 -116.855 L 965.861 -120.185 L 966.276 -123.527 L 966.692 -126.882 L 967.107 -130.249 L 967.523 -133.629 L 967.938 -137.022 L 968.353 -140.427 L 968.769 -143.846 L 969.184 -147.277 L 969.6 -150.72 L 970.015 -154.177 L 970.43 -157.646 L 970.846 -161.129 L 971.261 -164.624 L 971.677 -168.132 L 972.092 -171.653 L 972.508 -175.186 L 972.923 -178.733 L 973.338 -182.293 L 973.754 -185.866 L 974.169 -189.451 L 974.585 -193.05 L 975 -196.662" stroke-width="3" stroke-dasharray="" stroke="black" stroke-opacity="1" fill="none" />
</g>
<g id="frame_1">
    <rect id="frame_1_border" x="560" y="25" width="415" height="435" />
    <g id="frame_1_bottomticks">
        <path d="M 767.5 460 L 767.5 450" />
        <path d="M 594.583 460 L 594.583 440" />
        <text font-size="30" transform="translate(594.583, 490)" text-anchor="middle" dominant-baseline="middle" stroke="none" fill="black">0</text>
        <path d="M 975 460 L 975 450" />
        <path d="M 629.167 460 L 629.167 450" />
        <path d="M 940.417 460 L 940.417 440" />
        <text font-size="30" transform="translate(940.417, 490)" text-anchor="middle" dominant-baseline="middle" stroke="none" fill="black">1</text>
        <path d="M 871.25 460 L 871.25 440" />
        <text font-size="30" transform="translate(871.25, 490)" text-anchor="middle" dominant-baseline="middle" stroke="none" fill="black">0.8</text>
        <path d="M 802.083 460 L 802.083 440" />
        <text font-size="30" transform="translate(802.083, 490)" text-anchor="middle" dominant-baseline="middle" stroke="none" fill="black">0.6</text>
        <path d="M 698.333 460 L 698.333 450" />
        <path d="M 732.917 460 L 732.917 440" />
        <text font-size="30" transform="translate(732.917, 490)" text-anchor="middle" dominant-baseline="middle" stroke="none" fill="black">0.4</text>
        <path d="M 905.833 460 L 905.833 450" />
        <path d="M 836.667 460 L 836.667 450" />
        <path d="M 560 460 L 560 450" />
        <path d="M 663.75 460 L 663.75 440" />
        <text font-size="30" transform="translate(663.75, 490)" text-anchor="middle" dominant-baseline="middle" stroke="none" fill="black">0.2</text>
    </g>
    <g id="frame_1_leftticks">
        <path d="M 560 356.569 L 580 356.569" />
        <text font-size="30" transform="translate(550, 366.569)" text-anchor="end" dominant-baseline="middle" stroke="none" fill="black">‒0.5</text>
        <path d="M 560 258.129 L 580 258.129" />
        <text font-size="30" transform="translate(550, 268.129)" text-anchor="end" dominant-baseline="middle" stroke="none" fill="black">0</text>
        <path d="M 560 159.69 L 580 159.69" />
        <text font-size="30" transform="translate(550, 169.69)" text-anchor="end" dominant-baseline="middle" stroke="none" fill="black">0.5</text>
        <path d="M 560 61.25 L 580 61.25" />
        <text font-size="30" transform="translate(550, 71.25)" text-anchor="end" dominant-baseline="middle" stroke="none" fill="black">1</text>
        <path d="M 560 199.065 L 570 199.065" />
        <path d="M 560 277.817 L 570 277.817" />
        <path d="M 560 140.002 L 570 140.002" />
        <path d="M 560 435.321 L 570 435.321" />
        <path d="M 560 120.314 L 570 120.314" />
        <path d="M 560 297.505 L 570 297.505" />
        <path d="M 560 415.633 L 570 415.633" />
        <path d="M 560 336.881 L 570 336.881" />
        <path d="M 560 218.753 L 570 218.753" />
        <path d="M 560 100.626 L 570 100.626" />
        <path d="M 560 395.945 L 570 395.945" />
        <path d="M 560 238.441 L 570 238.441" />
        <path d="M 560 80.9379 L 570 80.9379" />
        <path d="M 560 317.193 L 570 317.193" />
        <path d="M 560 179.378 L 570 179.378" />
        <path d="M 560 376.257 L 570 376.257" />
        <path d="M 560 41.5621 L 570 41.5621" />
        <path d="M 560 455.009 L 580 455.009" />
        <text font-size="30" transform="translate(550, 465.009)" text-anchor="end" dominant-baseline="middle" stroke="none" fill="black">‒1</text>
    </g>
    <g id="frame_1_topticks">
        <path d="M 767.5 25 L 767.5 35" />
        <path d="M 594.583 25 L 594.583 45" />
        <path d="M 975 25 L 975 35" />
        <path d="M 629.167 25 L 629.167 35" />
        <path d="M 940.417 25 L 940.417 45" />
        <path d="M 871.25 25 L 871.25 45" />
        <path d="M 802.083 25 L 802.083 45" />
        <path d="M 698.333 25 L 698.333 35" />
        <path d="M 732.917 25 L 732.917 45" />
        <path d="M 905.833 25 L 905.833 35" />
        <path d="M 836.667 25 L 836.667 35" />
        <path d="M 560 25 L 560 35" />
        <path d="M 663.75 25 L 663.75 45" />
    </g>
    <g id="frame_1_rightticks">
        <path d="M 975 356.569 L 955 356.569" />
        <path d="M 975 258.129 L 955 258.129" />
        <path d="M 975 159.69 L 955 159.69" />
        <path d="M 975 61.25 L 955 61.25" />
        <path d="M 975 199.065 L 965 199.065" />
        <path d="M 975 277.817 L 965 277.817" />
        <path d="M 975 140.002 L 965 140.002" />
        <path d="M 975 435.321 L 965 435.321" />
        <path d="M 975 120.314 L 965 120.314" />
        <path d="M 975 297.505 L 965 297.505" />
        <path d="M 975 415.633 L 965 415.633" />
        <path d="M 975 336.881 L 965 336.881" />
        <path d="M 975 218.753 L 965 218.753" />
        <path d="M 975 100.626 L 965 100.626" />
        <path d="M 975 395.945 L 965 395.945" />
        <path d="M 975 238.441 L 965 238.441" />
        <path d="M 975 80.9379 L 965 80.9379" />
        <path d="M 975 317.193 L 965 317.193" />
        <path d="M 975 179.378 L 965 179.378" />
        <path d="M 975 376.257 L 965 376.257" />
        <path d="M 975 41.5621 L 965 41.5621" />
        <path d="M 975 455.009 L 955 455.009" />
    </g>
</g>
<g id="Grid_1" clip-path="url(#Grid_1_clip)">
    <path d="M 60 955.009 L 475 955.009 M 60 935.321 L 475 935.321 M 60 915.633 L 475 915.633 M 60 895.945 L 475 895.945 M 60 876.257 L 475 876.257 M 60 856.569 L 475 856.569 M 60 836.881 L 475 836.881 M 60 817.193 L 475 817.193 M 60 797.505 L 475 797.505 M 60 777.817 L 475 777.817 M 60 758.129 L 475 758.129 M 60 738.441 L 475 738.441 M 60 718.753 L 475 718.753 M 60 699.065 L 475 699.065 M 60 679.378 L 475 679.378 M 60 659.69 L 475 659.69 M 60 640.002 L 475 640.002 M 60 620.314 L 475 620.314 M 60 600.626 L 475 600.626 M 60 580.938 L 475 580.938 M 60 561.25 L 475 561.25 M 60 541.562 L 475 541.562" stroke-width="3" stroke-dasharray="3.0 3.0" stroke="grey" stroke-opacity="1" fill="none" />
</g>
<g id="Scatter_2" clip-path="url(#Scatter_2_clip)">
    <path d="M 60 799.474 L 60.4154 798.697 L 60.8308 797.928 L 61.2462 797.166 L 61.6617 796.411 L 62.0771 795.664 L 62.4925 794.924 L 62.9079 794.191 L 63.3233 793.465 L 63.7387 792.747 L 64.1542 792.036 L 64.5696 791.332 L 64.985 790.635 L 65.4004 789.945 L 65.8158 789.262 L 66.2312 788.587 L 66.6466 787.919 L 67.0621 787.257 L 67.4775 786.603 L 67.8929 785.956 L 68.3083 785.315 L 68.7237 784.682 L 69.1391 784.056 L 69.5546 783.436 L 69.97 782.824 L 70.3854 782.218 L 70.8008 781.619 L 71.2162 781.028 L 71.6316 780.442 L 72.047 779.864 L 72.4625 779.293 L 72.8779 778.728 L 73.2933 778.17 L 73.7087 777.619 L 74.1241 777.075 L 74.5395 776.537 L 74.955 776.006 L 75.3704 775.481 L 75.7858 774.963 L 76.2012 774.452 L 76.6166 773.947 L 77.032 773.449 L 77.4474 772.958 L 77.8629 772.473 L 78.2783 771.994 L 78.6937 771.522 L 79.1091 771.057 L 79.5245 770.598 L 79.9399 770.145 L 80.3554 769.699 L 80.7708 769.259 L 81.1862 768.825 L 81.6016 768.398 L 82.017 767.977 L 82.4324 767.562 L 82.8478 767.154 L 83.2633 766.752 L 83.6787 766.356 L 84.0941 765.967 L 84.5095 765.583 L 84.9249 765.206 L 85.3403 764.835 L 85.7558 764.47 L 86.1712 764.111 L 86.5866 763.759 L 87.002 763.412 L 87.4174 763.072 L 87.8328 762.737 L 88.2482 762.409 L 88.6637 762.086 L 89.0791 761.769 L 89.4945 761.459 L 89.9099 761.154 L 90.3253 760.855 L 90.7407 760.563 L 91.1562 760.276 L 91.5716 759.994 L 91.987 759.719 L 92.4024 759.45 L 92.8178 759.186 L 93.2332 758.928 L 93.6486 758.676 L 94.0641 758.429 L 94.4795 758.189 L 94.8949 757.954 L 95.3103 757.724 L 95.7257 757.5 L 96.1411 757.282 L 96.5566 757.07 L 96.972 756.863 L 97.3874 756.661 L 97.8028 756.466 L 98.2182 756.275 L 98.6336 756.09 L 99.049 755.911 L 99.4645 755.737 L 99.8799 755.569 L 100.295 755.406 L 100.711 755.248 L 101.126 755.096 L 101.542 754.949 L 101.957 754.807 L 102.372 754.671 L 102.788 754.54 L 103.203 754.415 L 103.619 754.294 L 104.034 754.179 L 104.449 754.069 L 104.865 753.965 L 105.28 753.865 L 105.696 753.771 L 106.111 753.681 L 106.527 753.597 L 106.942 753.518 L 107.357 753.444 L 107.773 753.375 L 108.188 753.311 L 108.604 753.252 L 109.019 753.198 L 109.434 753.149 L 109.85 753.105 L 110.265 753.066 L 110.681 753.032 L 111.096 753.003 L 111.512 752.979 L 111.927 752.959 L 112.342 752.944 L 112.758 752.934 L 113.173 752.929 L 113.589 752.929 L 114.004 752.933 L 114.419 752.942 L 114.835 752.956 L 115.25 752.975 L 115.666 752.998 L 116.081 753.026 L 116.496 753.058 L 116.912 753.095 L 117.327 753.137 L 117.743 753.183 L 118.158 753.234 L 118.574 753.289 L 118.989 753.348 L 119.404 753.413 L 119.82 753.481 L 120.235 753.554 L 120.651 753.632 L 121.066 753.714 L 121.481 753.8 L 121.897 753.891 L 122.312 753.986 L 122.728 754.085 L 123.143 754.189 L 123.559 754.296 L 123.974 754.409 L 124.389 754.525 L 124.805 754.645 L 125.22 754.77 L 125.636 754.899 L 126.051 755.032 L 126.466 755.169 L 126.882 755.311 L 127.297 755.456 L 127.713 755.606 L 128.128 755.759 L 128.544 755.917 L 128.959 756.078 L 129.374 756.244 L 129.79 756.413 L 130.205 756.587 L 130.621 756.764 L 131.036 756.945 L 131.451 757.131 L 131.867 757.32 L 132.282 757.512 L 132.698 757.709 L 133.113 757.91 L 133.529 758.114 L 133.944 758.322 L 134.359 758.534 L 134.775 758.749 L 135.19 758.969 L 135.606 759.191 L 136.021 759.418 L 136.436 759.648 L 136.852 759.882 L 137.267 760.119 L 137.683 760.36 L 138.098 760.605 L 138.514 760.853 L 138.929 761.105 L 139.344 761.36 L 139.76 761.618 L 140.175 761.88 L 140.591 762.146 L 141.006 762.415 L 141.421 762.687 L 141.837 762.963 L 142.252 763.242 L 142.668 763.524 L 143.083 763.81 L 143.498 764.098 L 143.914 764.391 L 144.329 764.686 L 144.745 764.985 L 145.16 765.287 L 145.576 765.592 L 145.991 765.9 L 146.406 766.211 L 146.822 766.526 L 147.237 766.844 L 147.653 767.164 L 148.068 767.488 L 148.483 767.815 L 148.899 768.145 L 149.314 768.478 L 149.73 768.813 L 150.145 769.152 L 150.561 769.494 L 150.976 769.839 L 151.391 770.186 L 151.807 770.537 L 152.222 770.89 L 152.638 771.246 L 153.053 771.605 L 153.468 771.967 L 153.884 772.331 L 154.299 772.699 L 154.715 773.069 L 155.13 773.442 L 155.546 773.817 L 155.961 774.195 L 156.376 774.576 L 156.792 774.959 L 157.207 775.345 L 157.623 775.734 L 158.038 776.125 L 158.453 776.519 L 158.869 776.915 L 159.284 777.314 L 159.7 777.716 L 160.115 778.119 L 160.531 778.526 L 160.946 778.934 L 161.361 779.345 L 161.777 779.759 L 162.192 780.175 L 162.608 780.593 L 163.023 781.013 L 163.438 781.436 L 163.854 781.861 L 164.269 782.289 L 164.685 782.718 L 165.1 783.15 L 165.516 783.584 L 165.931 784.02 L 166.346 784.459 L 166.762 784.899 L 167.177 785.342 L 167.593 785.787 L 168.008 786.234 L 168.423 786.683 L 168.839 787.134 L 169.254 787.587 L 169.67 788.042 L 170.085 788.499 L 170.501 788.958 L 170.916 789.418 L 171.331 789.881 L 171.747 790.346 L 172.162 790.813 L 172.578 791.281 L 172.993 791.751 L 173.408 792.223 L 173.824 792.697 L 174.239 793.173 L 174.655 793.65 L 175.07 794.129 L 175.485 794.61 L 175.901 795.093 L 176.316 795.577 L 176.732 796.063 L 177.147 796.55 L 177.563 797.04 L 177.978 797.53 L 178.393 798.023 L 178.809 798.516 L 179.224 799.012 L 179.64 799.509 L 180.055 800.007 L 180.47 800.507 L 180.886 801.008 L 181.301 801.511 L 181.717 802.015 L 182.132 802.521 L 182.548 803.028 L 182.963 803.536 L 183.378 804.045 L 183.794 804.556 L 184.209 805.068 L 184.625 805.582 L 185.04 806.096 L 185.455 806.612 L 185.871 807.129 L 186.286 807.648 L 186.702 808.167 L 187.117 808.688 L 187.533 809.209 L 187.948 809.732 L 188.363 810.256 L 188.779 810.781 L 189.194 811.307 L 189.61 811.834 L 190.025 812.362 L 190.44 812.891 L 190.856 813.421 L 191.271 813.951 L 191.687 814.483 L 192.102 815.016 L 192.518 815.549 L 192.933 816.084 L 193.348 816.619 L 193.764 817.155 L 194.179 817.692 L 194.595 818.23 L 195.01 818.768 L 195.425 819.307 L 195.841 819.847 L 196.256 820.387 L 196.672 820.928 L 197.087 821.47 L 197.503 822.013 L 197.918 822.556 L 198.333 823.099 L 198.749 823.644 L 199.164 824.188 L 199.58 824.734 L 199.995 825.279 L 200.41 825.826 L 200.826 826.373 L 201.241 826.92 L 201.657 827.467 L 202.072 828.015 L 202.487 828.564 L 202.903 829.113 L 203.318 829.662 L 203.734 830.211 L 204.149 830.761 L 204.565 831.311 L 204.98 831.861 L 205.395 832.412 L 205.811 832.962 L 206.226 833.513 L 206.642 834.064 L 207.057 834.616 L 207.472 835.167 L 207.888 835.719 L 208.303 836.27 L 208.719 836.822 L 209.134 837.374 L 209.55 837.925 L 209.965 838.477 L 210.38 839.029 L 210.796 839.581 L 211.211 840.133 L 211.627 840.684 L 212.042 841.236 L 212.457 841.787 L 212.873 842.339 L 213.288 842.89 L 213.704 843.441 L 214.119 843.992 L 214.535 844.542 L 214.95 845.093 L 215.365 845.643 L 215.781 846.193 L 216.196 846.742 L 216.612 847.292 L 217.027 847.841 L 217.442 848.389 L 217.858 848.937 L 218.273 849.485 L 218.689 850.033 L 219.104 850.58 L 219.52 851.126 L 219.935 851.672 L 220.35 852.218 L 220.766 852.763 L 221.181 853.307 L 221.597 853.851 L 222.012 854.395 L 222.427 854.937 L 222.843 855.479 L 223.258 856.021 L 223.674 856.562 L 224.089 857.102 L 224.505 857.641 L 224.92 858.18 L 225.335 858.718 L 225.751 859.255 L 226.166 859.792 L 226.582 860.327 L 226.997 860.862 L 227.412 861.396 L 227.828 861.929 L 228.243 862.461 L 228.659 862.993 L 229.074 863.523 L 229.489 864.053 L 229.905 864.581 L 230.32 865.109 L 230.736 865.635 L 231.151 866.16 L 231.567 866.685 L 231.982 867.208 L 232.397 867.73 L 232.813 868.252 L 233.228 868.772 L 233.644 869.29 L 234.059 869.808 L 234.474 870.325 L 234.89 870.84 L 235.305 871.354 L 235.721 871.867 L 236.136 872.378 L 236.552 872.888 L 236.967 873.397 L 237.382 873.905 L 237.798 874.411 L 238.213 874.916 L 238.629 875.419 L 239.044 875.921 L 239.459 876.422 L 239.875 876.921 L 240.29 877.419 L 240.706 877.915 L 241.121 878.409 L 241.537 878.902 L 241.952 879.394 L 242.367 879.884 L 242.783 880.372 L 243.198 880.859 L 243.614 881.344 L 244.029 881.827 L 244.444 882.309 L 244.86 882.789 L 245.275 883.267 L 245.691 883.744 L 246.106 884.219 L 246.522 884.692 L 246.937 885.163 L 247.352 885.632 L 247.768 886.1 L 248.183 886.565 L 248.599 887.029 L 249.014 887.491 L 249.429 887.951 L 249.845 888.409 L 250.26 888.865 L 250.676 889.319 L 251.091 889.771 L 251.507 890.221 L 251.922 890.669 L 252.337 891.114 L 252.753 891.558 L 253.168 892 L 253.584 892.439 L 253.999 892.877 L 254.414 893.312 L 254.83 893.745 L 255.245 894.176 L 255.661 894.604 L 256.076 895.03 L 256.491 895.454 L 256.907 895.876 L 257.322 896.295 L 257.738 896.712 L 258.153 897.127 L 258.569 897.539 L 258.984 897.949 L 259.399 898.357 L 259.815 898.762 L 260.23 899.164 L 260.646 899.564 L 261.061 899.962 L 261.476 900.357 L 261.892 900.749 L 262.307 901.139 L 262.723 901.527 L 263.138 901.911 L 263.554 902.293 L 263.969 902.673 L 264.384 903.05 L 264.8 903.424 L 265.215 903.795 L 265.631 904.164 L 266.046 904.53 L 266.461 904.893 L 266.877 905.253 L 267.292 905.611 L 267.708 905.966 L 268.123 906.318 L 268.539 906.667 L 268.954 907.013 L 269.369 907.356 L 269.785 907.696 L 270.2 908.034 L 270.616 908.368 L 271.031 908.699 L 271.446 909.028 L 271.862 909.353 L 272.277 909.675 L 272.693 909.994 L 273.108 910.31 L 273.524 910.623 L 273.939 910.933 L 274.354 911.24 L 274.77 911.543 L 275.185 911.844 L 275.601 912.141 L 276.016 912.435 L 276.431 912.725 L 276.847 913.012 L 277.262 913.296 L 277.678 913.577 L 278.093 913.854 L 278.509 914.128 L 278.924 914.399 L 279.339 914.666 L 279.755 914.93 L 280.17 915.19 L 280.586 915.447 L 281.001 915.7 L 281.416 915.95 L 281.832 916.196 L 282.247 916.439 L 282.663 916.678 L 283.078 916.914 L 283.493 917.146 L 283.909 917.374 L 284.324 917.599 L 284.74 917.82 L 285.155 918.038 L 285.571 918.251 L 285.986 918.461 L 286.401 918.667 L 286.817 918.87 L 287.232 919.068 L 287.648 919.263 L 288.063 919.454 L 288.478 919.641 L 288.894 919.824 L 289.309 920.004 L 289.725 920.179 L 290.14 920.351 L 290.556 920.518 L 290.971 920.682 L 291.386 920.841 L 291.802 920.997 L 292.217 921.148 L 292.633 921.296 L 293.048 921.439 L 293.463 921.578 L 293.879 921.714 L 294.294 921.845 L 294.71 921.971 L 295.125 922.094 L 295.541 922.213 L 295.956 922.327 L 296.371 922.437 L 296.787 922.542 L 297.202 922.644 L 297.618 922.741 L 298.033 922.834 L 298.448 922.922 L 298.864 923.006 L 299.279 923.086 L 299.695 923.161 L 300.11 923.232 L 300.526 923.299 L 300.941 923.361 L 301.356 923.418 L 301.772 923.471 L 302.187 923.52 L 302.603 923.563 L 303.018 923.603 L 303.433 923.637 L 303.849 923.668 L 304.264 923.693 L 304.68 923.714 L 305.095 923.73 L 305.511 923.741 L 305.926 923.748 L 306.341 923.75 L 306.757 923.747 L 307.172 923.74 L 307.588 923.728 L 308.003 923.711 L 308.418 923.689 L 308.834 923.662 L 309.249 923.63 L 309.665 923.593 L 310.08 923.552 L 310.495 923.505 L 310.911 923.454 L 311.326 923.398 L 311.742 923.336 L 312.157 923.27 L 312.573 923.198 L 312.988 923.122 L 313.403 923.04 L 313.819 922.953 L 314.234 922.862 L 314.65 922.765 L 315.065 922.662 L 315.48 922.555 L 315.896 922.443 L 316.311 922.325 L 316.727 922.202 L 317.142 922.074 L 317.558 921.94 L 317.973 921.801 L 318.388 921.657 L 318.804 921.507 L 319.219 921.352 L 319.635 921.192 L 320.05 921.026 L 320.465 920.855 L 320.881 920.679 L 321.296 920.497 L 321.712 920.309 L 322.127 920.116 L 322.543 919.917 L 322.958 919.713 L 323.373 919.503 L 323.789 919.288 L 324.204 919.067 L 324.62 918.841 L 325.035 918.608 L 325.45 918.37 L 325.866 918.127 L 326.281 917.878 L 326.697 917.622 L 327.112 917.362 L 327.528 917.095 L 327.943 916.823 L 328.358 916.544 L 328.774 916.26 L 329.189 915.97 L 329.605 915.675 L 330.02 915.373 L 330.435 915.065 L 330.851 914.752 L 331.266 914.432 L 331.682 914.107 L 332.097 913.775 L 332.513 913.438 L 332.928 913.094 L 333.343 912.744 L 333.759 912.389 L 334.174 912.027 L 334.59 911.659 L 335.005 911.285 L 335.42 910.904 L 335.836 910.518 L 336.251 910.125 L 336.667 909.726 L 337.082 909.321 L 337.497 908.91 L 337.913 908.492 L 338.328 908.068 L 338.744 907.638 L 339.159 907.201 L 339.575 906.758 L 339.99 906.308 L 340.405 905.852 L 340.821 905.39 L 341.236 904.921 L 341.652 904.446 L 342.067 903.964 L 342.482 903.476 L 342.898 902.981 L 343.313 902.48 L 343.729 901.972 L 344.144 901.457 L 344.56 900.936 L 344.975 900.408 L 345.39 899.874 L 345.806 899.333 L 346.221 898.785 L 346.637 898.23 L 347.052 897.669 L 347.467 897.101 L 347.883 896.526 L 348.298 895.945 L 348.714 895.356 L 349.129 894.761 L 349.545 894.159 L 349.96 893.55 L 350.375 892.934 L 350.791 892.311 L 351.206 891.681 L 351.622 891.044 L 352.037 890.4 L 352.452 889.749 L 352.868 889.092 L 353.283 888.427 L 353.699 887.755 L 354.114 887.076 L 354.53 886.39 L 354.945 885.696 L 355.36 884.996 L 355.776 884.288 L 356.191 883.574 L 356.607 882.852 L 357.022 882.122 L 357.437 881.386 L 357.853 880.642 L 358.268 879.891 L 358.684 879.133 L 359.099 878.367 L 359.515 877.594 L 359.93 876.814 L 360.345 876.026 L 360.761 875.231 L 361.176 874.428 L 361.592 873.618 L 362.007 872.8 L 362.422 871.975 L 362.838 871.142 L 363.253 870.302 L 363.669 869.455 L 364.084 868.599 L 364.499 867.736 L 364.915 866.866 L 365.33 865.988 L 365.746 865.102 L 366.161 864.208 L 366.577 863.307 L 366.992 862.398 L 367.407 861.481 L 367.823 860.557 L 368.238 859.625 L 368.654 858.685 L 369.069 857.737 L 369.484 856.781 L 369.9 855.818 L 370.315 854.846 L 370.731 853.867 L 371.146 852.879 L 371.562 851.884 L 371.977 850.881 L 372.392 849.87 L 372.808 848.85 L 373.223 847.823 L 373.639 846.788 L 374.054 845.745 L 374.469 844.693 L 374.885 843.633 L 375.3 842.566 L 375.716 841.49 L 376.131 840.406 L 376.547 839.314 L 376.962 838.213 L 377.377 837.104 L 377.793 835.988 L 378.208 834.862 L 378.624 833.729 L 379.039 832.587 L 379.454 831.437 L 379.87 830.278 L 380.285 829.111 L 380.701 827.936 L 381.116 826.752 L 381.532 825.56 L 381.947 824.359 L 382.362 823.15 L 382.778 821.933 L 383.193 820.707 L 383.609 819.472 L 384.024 818.229 L 384.439 816.977 L 384.855 815.716 L 385.27 814.447 L 385.686 813.17 L 386.101 811.883 L 386.517 810.588 L 386.932 809.284 L 387.347 807.972 L 387.763 806.651 L 388.178 805.321 L 388.594 803.982 L 389.009 802.634 L 389.424 801.278 L 389.84 799.913 L 390.255 798.539 L 390.671 797.155 L 391.086 795.764 L 391.502 794.363 L 391.917 792.953 L 392.332 791.534 L 392.748 790.106 L 393.163 788.669 L 393.579 787.224 L 393.994 785.769 L 394.409 784.305 L 394.825 782.832 L 395.24 781.349 L 395.656 779.858 L 396.071 778.358 L 396.486 776.848 L 396.902 775.329 L 397.317 773.801 L 397.733 772.264 L 398.148 770.717 L 398.564 769.161 L 398.979 767.596 L 399.394 766.022 L 399.81 764.438 L 400.225 762.845 L 400.641 761.242 L 401.056 759.63 L 401.471 758.009 L 401.887 756.378 L 402.302 754.738 L 402.718 753.088 L 403.133 751.429 L 403.549 749.76 L 403.964 748.081 L 404.379 746.393 L 404.795 744.696 L 405.21 742.989 L 405.626 741.272 L 406.041 739.546 L 406.456 737.81 L 406.872 736.064 L 407.287 734.308 L 407.703 732.543 L 408.118 730.768 L 408.534 728.984 L 408.949 727.189 L 409.364 725.385 L 409.78 723.571 L 410.195 721.747 L 410.611 719.913 L 411.026 718.069 L 411.441 716.215 L 411.857 714.352 L 412.272 712.478 L 412.688 710.595 L 413.103 708.701 L 413.519 706.798 L 413.934 704.884 L 414.349 702.96 L 414.765 701.027 L 415.18 699.083 L 415.596 697.129 L 416.011 695.165 L 416.426 693.19 L 416.842 691.206 L 417.257 689.211 L 417.673 687.207 L 418.088 685.191 L 418.504 683.166 L 418.919 681.13 L 419.334 679.084 L 419.75 677.028 L 420.165 674.962 L 420.581 672.885 L 420.996 670.797 L 421.411 668.699 L 421.827 666.591 L 422.242 664.473 L 422.658 662.344 L 423.073 660.204 L 423.488 658.054 L 423.904 655.893 L 424.319 653.722 L 424.735 651.54 L 425.15 649.348 L 425.566 647.145 L 425.981 644.931 L 426.396 642.707 L 426.812 640.472 L 427.227 638.227 L 427.643 635.97 L 428.058 633.703 L 428.473 631.425 L 428.889 629.137 L 429.304 626.838 L 429.72 624.527 L 430.135 622.206 L 430.551 619.874 L 430.966 617.532 L 431.381 615.178 L 431.797 612.813 L 432.212 610.438 L 432.628 608.051 L 433.043 605.654 L 433.458 603.246 L 433.874 600.826 L 434.289 598.396 L 434.705 595.954 L 435.12 593.501 L 435.536 591.038 L 435.951 588.563 L 436.366 586.077 L 436.782 583.58 L 437.197 581.071 L 437.613 578.552 L 438.028 576.021 L 438.443 573.479 L 438.859 570.926 L 439.274 568.361 L 439.69 565.785 L 440.105 563.198 L 440.521 560.599 L 440.936 557.989 L 441.351 555.368 L 441.767 552.735 L 442.182 550.091 L 442.598 547.436 L 443.013 544.768 L 443.428 542.09 L 443.844 539.4 L 444.259 536.698 L 444.675 533.985 L 445.09 531.26 L 445.506 528.524 L 445.921 525.776 L 446.336 523.016 L 446.752 520.245 L 447.167 517.462 L 447.583 514.668 L 447.998 511.861 L 448.413 509.043 L 448.829 506.213 L 449.244 503.372 L 449.66 500.518 L 450.075 497.653 L 450.49 494.776 L 450.906 491.887 L 451.321 488.986 L 451.737 486.074 L 452.152 483.149 L 452.568 480.213 L 452.983 477.264 L 453.398 474.304 L 453.814 471.331 L 454.229 468.347 L 454.645 465.35 L 455.06 462.341 L 455.475 459.321 L 455.891 456.288 L 456.306 453.243 L 456.722 450.186 L 457.137 447.116 L 457.553 444.035 L 457.968 440.941 L 458.383 437.835 L 458.799 434.717 L 459.214 431.587 L 459.63 428.444 L 460.045 425.289 L 460.46 422.122 L 460.876 418.942 L 461.291 415.75 L 461.707 412.546 L 462.122 409.329 L 462.538 406.1 L 462.953 402.858 L 463.368 399.604 L 463.784 396.337 L 464.199 393.058 L 464.615 389.766 L 465.03 386.462 L 465.445 383.145 L 465.861 379.815 L 466.276 376.473 L 466.692 373.118 L 467.107 369.751 L 467.523 366.371 L 467.938 362.978 L 468.353 359.573 L 468.769 356.154 L 469.184 352.723 L 469.6 349.28 L 470.015 345.823 L 470.43 342.354 L 470.846 338.871 L 471.261 335.376 L 471.677 331.868 L 472.092 328.347 L 472.508 324.814 L 472.923 321.267 L 473.338 317.707 L 473.754 314.134 L 474.169 310.549 L 474.585 306.95 L 475 303.338" stroke-width="3" stroke-dasharray="" stroke="black" stroke-opacity="1" fill="none" />
</g>
<g id="frame_2">
    <rect id="frame_2_border" x="60" y="525" width="415" height="435" />
    <g id="frame_2_bottomticks">
        <path d="M 267.5 960 L 267.5 950" />
        <path d="M 94.5833 960 L 94.5833 940" />
        <text font-size="30" transform="translate(94.5833, 990)" text-anchor="middle" dominant-baseline="middle" stroke="none" fill="black">0</text>
        <path d="M 475 960 L 475 950" />
        <path d="M 129.167 960 L 129.167 950" />
        <path d="M 440.417 960 L 440.417 940" />
        <text font-size="30" transform="translate(440.417, 990)" text-anchor="middle" dominant-baseline="middle" stroke="none" fill="black">1</text>
        <path d="M 371.25 960 L 371.25 940" />
        <text font-size="30" transform="translate(371.25, 990)" text-anchor="middle" dominant-baseline="middle" stroke="none" fill="black">0.8</text>
        <path d="M 302.083 960 L 302.083 940" />
        <text font-size="30" transform="translate(302.083, 990)" text-anchor="middle" dominant-baseline="middle" stroke="none" fill="black">0.6</text>
        <path d="M 198.333 960 L 198.333 950" />
        <path d="M 232.917 960 L 232.917 940" />
        <text font-size="30" transform="translate(232.917, 990)" text-anchor="middle" dominant-baseline="middle" stroke="none" fill="black">0.4</text>
        <path d="M 405.833 960 L 405.833 950" />
        <path d="M 336.667 960 L 336.667 950" />
        <path d="M 60 960 L 60 950" />
        <path d="M 163.75 960 L 163.75 940" />
        <text font-size="30" transform="translate(163.75, 990)" text-anchor="middle" dominant-baseline="middle" stroke="none" fill="black">0.2</text>
    </g>
    <g id="frame_2_leftticks">
        <path d="M 60 856.569 L 80 856.569" />
        <text font-size="30" transform="translate(50, 866.569)" text-anchor="end" dominant-baseline="middle" stroke="none" fill="black">‒0.5</text>
        <path d="M 60 758.129 L 80 758.129" />
        <text font-size="30" transform="translate(50, 768.129)" text-anchor="end" dominant-baseline="middle" stroke="none" fill="black">0</text>
        <path d="M 60 659.69 L 80 659.69" />
        <text font-size="30" transform="translate(50, 669.69)" text-anchor="end" dominant-baseline="middle" stroke="none" fill="black">0.5</text>
        <path d="M 60 561.25 L 80 561.25" />
        <text font-size="30" transform="translate(50, 571.25)" text-anchor="end" dominant-baseline="middle" stroke="none" fill="black">1</text>
        <path d="M 60 699.065 L 70 699.065" />
        <path d="M 60 777.817 L 70 777.817" />
        <path d="M 60 640.002 L 70 640.002" />
        <path d="M 60 935.321 L 70 935.321" />
        <path d="M 60 620.314 L 70 620.314" />
        <path d="M 60 797.505 L 70 797.505" />
        <path d="M 60 915.633 L 70 915.633" />
        <path d="M 60 836.881 L 70 836.881" />
        <path d="M 60 718.753 L 70 718.753" />
        <path d="M 60 600.626 L 70 600.626" />
        <path d="M 60 895.945 L 70 895.945" />
        <path d="M 60 738.441 L 70 738.441" />
        <path d="M 60 580.938 L 70 580.938" />
        <path d="M 60 817.193 L 70 817.193" />
        <path d="M 60 679.378 L 70 679.378" />
        <path d="M 60 876.257 L 70 876.257" />
        <path d="M 60 541.562 L 70 541.562" />
        <path d="M 60 955.009 L 80 955.009" />
        <text font-size="30" transform="translate(50, 965.009)" text-anchor="end" dominant-baseline="middle" stroke="none" fill="black">‒1</text>
    </g>
    <g id="frame_2_topticks">
        <path d="M 267.5 525 L 267.5 535" />
        <path d="M 94.5833 525 L 94.5833 545" />
        <path d="M 475 525 L 475 535" />
        <path d="M 129.167 525 L 129.167 535" />
        <path d="M 440.417 525 L 440.417 545" />
        <path d="M 371.25 525 L 371.25 545" />
        <path d="M 302.083 525 L 302.083 545" />
        <path d="M 198.333 525 L 198.333 535" />
        <path d="M 232.917 525 L 232.917 545" />
        <path d="M 405.833 525 L 405.833 535" />
        <path d="M 336.667 525 L 336.667 535" />
        <path d="M 60 525 L 60 535" />
        <path d="M 163.75 525 L 163.75 545" />
    </g>
    <g id="frame_2_rightticks">
        <path d="M 475 856.569 L 455 856.569" />
        <path d="M 475 758.129 L 455 758.129" />
        <path d="M 475 659.69 L 455 659.69" />
        <path d="M 475 561.25 L 455 561.25" />
        <path d="M 475 699.065 L 465 699.065" />
        <path d="M 475 777.817 L 465 777.817" />
        <path d="M 475 640.002 L 465 640.002" />
        <path d="M 475 935.321 L 465 935.321" />
        <path d="M 475 620.314 L 465 620.314" />
        <path d="M 475 797.505 L 465 797.505" />
        <path d="M 475 915.633 L 465 915.633" />
        <path d="M 475 836.881 L 465 836.881" />
        <path d="M 475 718.753 L 465 718.753" />
        <path d="M 475 600.626 L 465 600.626" />
        <path d="M 475 895.945 L 465 895.945" />
        <path d="M 475 738.441 L 465 738.441" />
        <path d="M 475 580.938 L 465 580.938" />
        <path d="M 475 817.193 L 465 817.193" />
        <path d="M 475 679.378 L 465 679.378" />
        <path d="M 475 876.257 L 465 876.257" />
        <path d="M 475 541.562 L 465 541.562" />
        <path d="M 475 955.009 L 455 955.009" />
    </g>
</g>
<g id="Grid_2" clip-path="url(#Grid_2_clip)">
    <path d="M 560 960 L 560 525 M 594.583 960 L 594.583 525 M 629.167 960 L 629.167 525 M 663.75 960 L 663.75 525 M 698.333 960 L 698.333 525 M 732.917 960 L 732.917 525 M 767.5 960 L 767.5 525 M 802.083 960 L 802.083 525 M 836.667 960 L 836.667 525 M 871.25 960 L 871.25 525 M 905.833 960 L 905.833 525 M 940.417 960 L 940.417 525 M 975 960 L 975 525 M 560 955.009 L 975 955.009 M 560 935.321 L 975 935.321 M 560 915.633 L 975 915.633 M 560 895.945 L 975 895.945 M 560 876.257 L 975 876.257 M 560 856.569 L 975 856.569 M 560 836.881 L 975 836.881 M 560 817.193 L 975 817.193 M 560 797.505 L 975 797.505 M 560 777.817 L 975 777.817 M 560 758.129 L 975 758.129 M 560 738.441 L 975 738.441 M 560 718.753 L 975 718.753 M 560 699.065 L 975 699.065 M 560 679.378 L 975 679.378 M 560 659.69 L 975 659.69 M 560 640.002 L 975 640.002 M 560 620.314 L 975 620.314 M 560 600.626 L 975 600.626 M 560 580.938 L 975 580.938 M 560 561.25 L 975 561.25 M 560 541.562 L 975 541.562" stroke-width="3" stroke-dasharray="3.0 3.0" stroke="grey" stroke-opacity="1" fill="none" />
</g>
<g id="Scatter_3" clip-path="url(#Scatter_3_clip)">
    <path d="M 560 799.474 L 560.415 798.697 L 560.831 797.928 L 561.246 797.166 L 561.662 796.411 L 562.077 795.664 L 562.492 794.924 L 562.908 794.191 L 563.323 793.465 L 563.739 792.747 L 564.154 792.036 L 564.57 791.332 L 564.985 790.635 L 565.4 789.945 L 565.816 789.262 L 566.231 788.587 L 566.647 787.919 L 567.062 787.257 L 567.477 786.603 L 567.893 785.956 L 568.308 785.315 L 568.724 784.682 L 569.139 784.056 L 569.555 783.436 L 569.97 782.824 L 570.385 782.218 L 570.801 781.619 L 571.216 781.028 L 571.632 780.442 L 572.047 779.864 L 572.462 779.293 L 572.878 778.728 L 573.293 778.17 L 573.709 777.619 L 574.124 777.075 L 574.54 776.537 L 574.955 776.006 L 575.37 775.481 L 575.786 774.963 L 576.201 774.452 L 576.617 773.947 L 577.032 773.449 L 577.447 772.958 L 577.863 772.473 L 578.278 771.994 L 578.694 771.522 L 579.109 771.057 L 579.525 770.598 L 579.94 770.145 L 580.355 769.699 L 580.771 769.259 L 581.186 768.825 L 581.602 768.398 L 582.017 767.977 L 582.432 767.562 L 582.848 767.154 L 583.263 766.752 L 583.679 766.356 L 584.094 765.967 L 584.51 765.583 L 584.925 765.206 L 585.34 764.835 L 585.756 764.47 L 586.171 764.111 L 586.587 763.759 L 587.002 763.412 L 587.417 763.072 L 587.833 762.737 L 588.248 762.409 L 588.664 762.086 L 589.079 761.769 L 589.494 761.459 L 589.91 761.154 L 590.325 760.855 L 590.741 760.563 L 591.156 760.276 L 591.572 759.994 L 591.987 759.719 L 592.402 759.45 L 592.818 759.186 L 593.233 758.928 L 593.649 758.676 L 594.064 758.429 L 594.479 758.189 L 594.895 757.954 L 595.31 757.724 L 595.726 757.5 L 596.141 757.282 L 596.557 757.07 L 596.972 756.863 L 597.387 756.661 L 597.803 756.466 L 598.218 756.275 L 598.634 756.09 L 599.049 755.911 L 599.464 755.737 L 599.88 755.569 L 600.295 755.406 L 600.711 755.248 L 601.126 755.096 L 601.542 754.949 L 601.957 754.807 L 602.372 754.671 L 602.788 754.54 L 603.203 754.415 L 603.619 754.294 L 604.034 754.179 L 604.449 754.069 L 604.865 753.965 L 605.28 753.865 L 605.696 753.771 L 606.111 753.681 L 606.527 753.597 L 606.942 753.518 L 607.357 753.444 L 607.773 753.375 L 608.188 753.311 L 608.604 753.252 L 609.019 753.198 L 609.434 753.149 L 609.85 753.105 L 610.265 753.066 L 610.681 753.032 L 611.096 753.003 L 611.512 752.979 L 611.927 752.959 L 612.342 752.944 L 612.758 752.934 L 613.173 752.929 L 613.589 752.929 L 614.004 752.933 L 614.419 752.942 L 614.835 752.956 L 615.25 752.975 L 615.666 752.998 L 616.081 753.026 L 616.496 753.058 L 616.912 753.095 L 617.327 753.137 L 617.743 753.183 L 618.158 753.234 L 618.574 753.289 L 618.989 753.348 L 619.404 753.413 L 619.82 753.481 L 620.235 753.554 L 620.651 753.632 L 621.066 753.714 L 621.481 753.8 L 621.897 753.891 L 622.312 753.986 L 622.728 754.085 L 623.143 754.189 L 623.559 754.296 L 623.974 754.409 L 624.389 754.525 L 624.805 754.645 L 625.22 754.77 L 625.636 754.899 L 626.051 755.032 L 626.466 755.169 L 626.882 755.311 L 627.297 755.456 L 627.713 755.606 L 628.128 755.759 L 628.544 755.917 L 628.959 756.078 L 629.374 756.244 L 629.79 756.413 L 630.205 756.587 L 630.621 756.764 L 631.036 756.945 L 631.451 757.131 L 631.867 757.32 L 632.282 757.512 L 632.698 757.709 L 633.113 757.91 L 633.529 758.114 L 633.944 758.322 L 634.359 758.534 L 634.775 758.749 L 635.19 758.969 L 635.606 759.191 L 636.021 759.418 L 636.436 759.648 L 636.852 759.882 L 637.267 760.119 L 637.683 760.36 L 638.098 760.605 L 638.514 760.853 L 638.929 761.105 L 639.344 761.36 L 639.76 761.618 L 640.175 761.88 L 640.591 762.146 L 641.006 762.415 L 641.421 762.687 L 641.837 762.963 L 642.252 763.242 L 642.668 763.524 L 643.083 763.81 L 643.498 764.098 L 643.914 764.391 L 644.329 764.686 L 644.745 764.985 L 645.16 765.287 L 645.576 765.592 L 645.991 765.9 L 646.406 766.211 L 646.822 766.526 L 647.237 766.844 L 647.653 767.164 L 648.068 767.488 L 648.483 767.815 L 648.899 768.145 L 649.314 768.478 L 649.73 768.813 L 650.145 769.152 L 650.561 769.494 L 650.976 769.839 L 651.391 770.186 L 651.807 770.537 L 652.222 770.89 L 652.638 771.246 L 653.053 771.605 L 653.468 771.967 L 653.884 772.331 L 654.299 772.699 L 654.715 773.069 L 655.13 773.442 L 655.546 773.817 L 655.961 774.195 L 656.376 774.576 L 656.792 774.959 L 657.207 775.345 L 657.623 775.734 L 658.038 776.125 L 658.453 776.519 L 658.869 776.915 L 659.284 777.314 L 659.7 777.716 L 660.115 778.119 L 660.531 778.526 L 660.946 778.934 L 661.361 779.345 L 661.777 779.759 L 662.192 780.175 L 662.608 780.593 L 663.023 781.013 L 663.438 781.436 L 663.854 781.861 L 664.269 782.289 L 664.685 782.718 L 665.1 783.15 L 665.516 783.584 L 665.931 784.02 L 666.346 784.459 L 666.762 784.899 L 667.177 785.342 L 667.593 785.787 L 668.008 786.234 L 668.423 786.683 L 668.839 787.134 L 669.254 787.587 L 669.67 788.042 L 670.085 788.499 L 670.501 788.958 L 670.916 789.418 L 671.331 789.881 L 671.747 790.346 L 672.162 790.813 L 672.578 791.281 L 672.993 791.751 L 673.408 792.223 L 673.824 792.697 L 674.239 793.173 L 674.655 793.65 L 675.07 794.129 L 675.485 794.61 L 675.901 795.093 L 676.316 795.577 L 676.732 796.063 L 677.147 796.55 L 677.563 797.04 L 677.978 797.53 L 678.393 798.023 L 678.809 798.516 L 679.224 799.012 L 679.64 799.509 L 680.055 800.007 L 680.47 800.507 L 680.886 801.008 L 681.301 801.511 L 681.717 802.015 L 682.132 802.521 L 682.548 803.028 L 682.963 803.536 L 683.378 804.045 L 683.794 804.556 L 684.209 805.068 L 684.625 805.582 L 685.04 806.096 L 685.455 806.612 L 685.871 807.129 L 686.286 807.648 L 686.702 808.167 L 687.117 808.688 L 687.533 809.209 L 687.948 809.732 L 688.363 810.256 L 688.779 810.781 L 689.194 811.307 L 689.61 811.834 L 690.025 812.362 L 690.44 812.891 L 690.856 813.421 L 691.271 813.951 L 691.687 814.483 L 692.102 815.016 L 692.518 815.549 L 692.933 816.084 L 693.348 816.619 L 693.764 817.155 L 694.179 817.692 L 694.595 818.23 L 695.01 818.768 L 695.425 819.307 L 695.841 819.847 L 696.256 820.387 L 696.672 820.928 L 697.087 821.47 L 697.503 822.013 L 697.918 822.556 L 698.333 823.099 L 698.749 823.644 L 699.164 824.188 L 699.58 824.734 L 699.995 825.279 L 700.41 825.826 L 700.826 826.373 L 701.241 826.92 L 701.657 827.467 L 702.072 828.015 L 702.487 828.564 L 702.903 829.113 L 703.318 829.662 L 703.734 830.211 L 704.149 830.761 L 704.565 831.311 L 704.98 831.861 L 705.395 832.412 L 705.811 832.962 L 706.226 833.513 L 706.642 834.064 L 707.057 834.616 L 707.472 835.167 L 707.888 835.719 L 708.303 836.27 L 708.719 836.822 L 709.134 837.374 L 709.55 837.925 L 709.965 838.477 L 710.38 839.029 L 710.796 839.581 L 711.211 840.133 L 711.627 840.684 L 712.042 841.236 L 712.457 841.787 L 712.873 842.339 L 713.288 842.89 L 713.704 843.441 L 714.119 843.992 L 714.535 844.542 L 714.95 845.093 L 715.365 845.643 L 715.781 846.193 L 716.196 846.742 L 716.612 847.292 L 717.027 847.841 L 717.442 848.389 L 717.858 848.937 L 718.273 849.485 L 718.689 850.033 L 719.104 850.58 L 719.52 851.126 L 719.935 851.672 L 720.35 852.218 L 720.766 852.763 L 721.181 853.307 L 721.597 853.851 L 722.012 854.395 L 722.427 854.937 L 722.843 855.479 L 723.258 856.021 L 723.674 856.562 L 724.089 857.102 L 724.505 857.641 L 724.92 858.18 L 725.335 858.718 L 725.751 859.255 L 726.166 859.792 L 726.582 860.327 L 726.997 860.862 L 727.412 861.396 L 727.828 861.929 L 728.243 862.461 L 728.659 862.993 L 729.074 863.523 L 729.489 864.053 L 729.905 864.581 L 730.32 865.109 L 730.736 865.635 L 731.151 866.16 L 731.567 866.685 L 731.982 867.208 L 732.397 867.73 L 732.813 868.252 L 733.228 868.772 L 733.644 869.29 L 734.059 869.808 L 734.474 870.325 L 734.89 870.84 L 735.305 871.354 L 735.721 871.867 L 736.136 872.378 L 736.552 872.888 L 736.967 873.397 L 737.382 873.905 L 737.798 874.411 L 738.213 874.916 L 738.629 875.419 L 739.044 875.921 L 739.459 876.422 L 739.875 876.921 L 740.29 877.419 L 740.706 877.915 L 741.121 878.409 L 741.537 878.902 L 741.952 879.394 L 742.367 879.884 L 742.783 880.372 L 743.198 880.859 L 743.614 881.344 L 744.029 881.827 L 744.444 882.309 L 744.86 882.789 L 745.275 883.267 L 745.691 883.744 L 746.106 884.219 L 746.522 884.692 L 746.937 885.163 L 747.352 885.632 L 747.768 886.1 L 748.183 886.565 L 748.599 887.029 L 749.014 887.491 L 749.429 887.951 L 749.845 888.409 L 750.26 888.865 L 750.676 889.319 L 751.091 889.771 L 751.507 890.221 L 751.922 890.669 L 752.337 891.114 L 752.753 891.558 L 753.168 892 L 753.584 892.439 L 753.999 892.877 L 754.414 893.312 L 754.83 893.745 L 755.245 894.176 L 755.661 894.604 L 756.076 895.03 L 756.491 895.454 L 756.907 895.876 L 757.322 896.295 L 757.738 896.712 L 758.153 897.127 L 758.569 897.539 L 758.984 897.949 L 759.399 898.357 L 759.815 898.762 L 760.23 899.164 L 760.646 899.564 L 761.061 899.962 L 761.476 900.357 L 761.892 900.749 L 762.307 901.139 L 762.723 901.527 L 763.138 901.911 L 763.554 902.293 L 763.969 902.673 L 764.384 903.05 L 764.8 903.424 L 765.215 903.795 L 765.631 904.164 L 766.046 904.53 L 766.461 904.893 L 766.877 905.253 L 767.292 905.611 L 767.708 905.966 L 768.123 906.318 L 768.539 906.667 L 768.954 907.013 L 769.369 907.356 L 769.785 907.696 L 770.2 908.034 L 770.616 908.368 L 771.031 908.699 L 771.446 909.028 L 771.862 909.353 L 772.277 909.675 L 772.693 909.994 L 773.108 910.31 L 773.524 910.623 L 773.939 910.933 L 774.354 911.24 L 774.77 911.543 L 775.185 911.844 L 775.601 912.141 L 776.016 912.435 L 776.431 912.725 L 776.847 913.012 L 777.262 913.296 L 777.678 913.577 L 778.093 913.854 L 778.509 914.128 L 778.924 914.399 L 779.339 914.666 L 779.755 914.93 L 780.17 915.19 L 780.586 915.447 L 781.001 915.7 L 781.416 915.95 L 781.832 916.196 L 782.247 916.439 L 782.663 916.678 L 783.078 916.914 L 783.493 917.146 L 783.909 917.374 L 784.324 917.599 L 784.74 917.82 L 785.155 918.038 L 785.571 918.251 L 785.986 918.461 L 786.401 918.667 L 786.817 918.87 L 787.232 919.068 L 787.648 919.263 L 788.063 919.454 L 788.478 919.641 L 788.894 919.824 L 789.309 920.004 L 789.725 920.179 L 790.14 920.351 L 790.556 920.518 L 790.971 920.682 L 791.386 920.841 L 791.802 920.997 L 792.217 921.148 L 792.633 921.296 L 793.048 921.439 L 793.463 921.578 L 793.879 921.714 L 794.294 921.845 L 794.71 921.971 L 795.125 922.094 L 795.541 922.213 L 795.956 922.327 L 796.371 922.437 L 796.787 922.542 L 797.202 922.644 L 797.618 922.741 L 798.033 922.834 L 798.448 922.922 L 798.864 923.006 L 799.279 923.086 L 799.695 923.161 L 800.11 923.232 L 800.526 923.299 L 800.941 923.361 L 801.356 923.418 L 801.772 923.471 L 802.187 923.52 L 802.603 923.563 L 803.018 923.603 L 803.433 923.637 L 803.849 923.668 L 804.264 923.693 L 804.68 923.714 L 805.095 923.73 L 805.511 923.741 L 805.926 923.748 L 806.341 923.75 L 806.757 923.747 L 807.172 923.74 L 807.588 923.728 L 808.003 923.711 L 808.418 923.689 L 808.834 923.662 L 809.249 923.63 L 809.665 923.593 L 810.08 923.552 L 810.495 923.505 L 810.911 923.454 L 811.326 923.398 L 811.742 923.336 L 812.157 923.27 L 812.573 923.198 L 812.988 923.122 L 813.403 923.04 L 813.819 922.953 L 814.234 922.862 L 814.65 922.765 L 815.065 922.662 L 815.48 922.555 L 815.896 922.443 L 816.311 922.325 L 816.727 922.202 L 817.142 922.074 L 817.558 921.94 L 817.973 921.801 L 818.388 921.657 L 818.804 921.507 L 819.219 921.352 L 819.635 921.192 L 820.05 921.026 L 820.465 920.855 L 820.881 920.679 L 821.296 920.497 L 821.712 920.309 L 822.127 920.116 L 822.543 919.917 L 822.958 919.713 L 823.373 919.503 L 823.789 919.288 L 824.204 919.067 L 824.62 918.841 L 825.035 918.608 L 825.45 918.37 L 825.866 918.127 L 826.281 917.878 L 826.697 917.622 L 827.112 917.362 L 827.528 917.095 L 827.943 916.823 L 828.358 916.544 L 828.774 916.26 L 829.189 915.97 L 829.605 915.675 L 830.02 915.373 L 830.435 915.065 L 830.851 914.752 L 831.266 914.432 L 831.682 914.107 L 832.097 913.775 L 832.513 913.438 L 832.928 913.094 L 833.343 912.744 L 833.759 912.389 L 834.174 912.027 L 834.59 911.659 L 835.005 911.285 L 835.42 910.904 L 835.836 910.518 L 836.251 910.125 L 836.667 909.726 L 837.082 909.321 L 837.497 908.91 L 837.913 908.492 L 838.328 908.068 L 838.744 907.638 L 839.159 907.201 L 839.575 906.758 L 839.99 906.308 L 840.405 905.852 L 840.821 905.39 L 841.236 904.921 L 841.652 904.446 L 842.067 903.964 L 842.482 903.476 L 842.898 902.981 L 843.313 902.48 L 843.729 901.972 L 844.144 901.457 L 844.56 900.936 L 844.975 900.408 L 845.39 899.874 L 845.806 899.333 L 846.221 898.785 L 846.637 898.23 L 847.052 897.669 L 847.467 897.101 L 847.883 896.526 L 848.298 895.945 L 848.714 895.356 L 849.129 894.761 L 849.545 894.159 L 849.96 893.55 L 850.375 892.934 L 850.791 892.311 L 851.206 891.681 L 851.622 891.044 L 852.037 890.4 L 852.452 889.749 L 852.868 889.092 L 853.283 888.427 L 853.699 887.755 L 854.114 887.076 L 854.53 886.39 L 854.945 885.696 L 855.36 884.996 L 855.776 884.288 L 856.191 883.574 L 856.607 882.852 L 857.022 882.122 L 857.437 881.386 L 857.853 880.642 L 858.268 879.891 L 858.684 879.133 L 859.099 878.367 L 859.515 877.594 L 859.93 876.814 L 860.345 876.026 L 860.761 875.231 L 861.176 874.428 L 861.592 873.618 L 862.007 872.8 L 862.422 871.975 L 862.838 871.142 L 863.253 870.302 L 863.669 869.455 L 864.084 868.599 L 864.499 867.736 L 864.915 866.866 L 865.33 865.988 L 865.746 865.102 L 866.161 864.208 L 866.577 863.307 L 866.992 862.398 L 867.407 861.481 L 867.823 860.557 L 868.238 859.625 L 868.654 858.685 L 869.069 857.737 L 869.484 856.781 L 869.9 855.818 L 870.315 854.846 L 870.731 853.867 L 871.146 852.879 L 871.562 851.884 L 871.977 850.881 L 872.392 849.87 L 872.808 848.85 L 873.223 847.823 L 873.639 846.788 L 874.054 845.745 L 874.469 844.693 L 874.885 843.633 L 875.3 842.566 L 875.716 841.49 L 876.131 840.406 L 876.547 839.314 L 876.962 838.213 L 877.377 837.104 L 877.793 835.988 L 878.208 834.862 L 878.624 833.729 L 879.039 832.587 L 879.454 831.437 L 879.87 830.278 L 880.285 829.111 L 880.701 827.936 L 881.116 826.752 L 881.532 825.56 L 881.947 824.359 L 882.362 823.15 L 882.778 821.933 L 883.193 820.707 L 883.609 819.472 L 884.024 818.229 L 884.439 816.977 L 884.855 815.716 L 885.27 814.447 L 885.686 813.17 L 886.101 811.883 L 886.517 810.588 L 886.932 809.284 L 887.347 807.972 L 887.763 806.651 L 888.178 805.321 L 888.594 803.982 L 889.009 802.634 L 889.424 801.278 L 889.84 799.913 L 890.255 798.539 L 890.671 797.155 L 891.086 795.764 L 891.502 794.363 L 891.917 792.953 L 892.332 791.534 L 892.748 790.106 L 893.163 788.669 L 893.579 787.224 L 893.994 785.769 L 894.409 784.305 L 894.825 782.832 L 895.24 781.349 L 895.656 779.858 L 896.071 778.358 L 896.486 776.848 L 896.902 775.329 L 897.317 773.801 L 897.733 772.264 L 898.148 770.717 L 898.564 769.161 L 898.979 767.596 L 899.394 766.022 L 899.81 764.438 L 900.225 762.845 L 900.641 761.242 L 901.056 759.63 L 901.471 758.009 L 901.887 756.378 L 902.302 754.738 L 902.718 753.088 L 903.133 751.429 L 903.549 749.76 L 903.964 748.081 L 904.379 746.393 L 904.795 744.696 L 905.21 742.989 L 905.626 741.272 L 906.041 739.546 L 906.456 737.81 L 906.872 736.064 L 907.287 734.308 L 907.703 732.543 L 908.118 730.768 L 908.534 728.984 L 908.949 727.189 L 909.364 725.385 L 909.78 723.571 L 910.195 721.747 L 910.611 719.913 L 911.026 718.069 L 911.441 716.215 L 911.857 714.352 L 912.272 712.478 L 912.688 710.595 L 913.103 708.701 L 913.519 706.798 L 913.934 704.884 L 914.349 702.96 L 914.765 701.027 L 915.18 699.083 L 915.596 697.129 L 916.011 695.165 L 916.426 693.19 L 916.842 691.206 L 917.257 689.211 L 917.673 687.207 L 918.088 685.191 L 918.504 683.166 L 918.919 681.13 L 919.334 679.084 L 919.75 677.028 L 920.165 674.962 L 920.581 672.885 L 920.996 670.797 L 921.411 668.699 L 921.827 666.591 L 922.242 664.473 L 922.658 662.344 L 923.073 660.204 L 923.488 658.054 L 923.904 655.893 L 924.319 653.722 L 924.735 651.54 L 925.15 649.348 L 925.566 647.145 L 925.981 644.931 L 926.396 642.707 L 926.812 640.472 L 927.227 638.227 L 927.643 635.97 L 928.058 633.703 L 928.473 631.425 L 928.889 629.137 L 929.304 626.838 L 929.72 624.527 L 930.135 622.206 L 930.551 619.874 L 930.966 617.532 L 931.381 615.178 L 931.797 612.813 L 932.212 610.438 L 932.628 608.051 L 933.043 605.654 L 933.458 603.246 L 933.874 600.826 L 934.289 598.396 L 934.705 595.954 L 935.12 593.501 L 935.536 591.038 L 935.951 588.563 L 936.366 586.077 L 936.782 583.58 L 937.197 581.071 L 937.613 578.552 L 938.028 576.021 L 938.443 573.479 L 938.859 570.926 L 939.274 568.361 L 939.69 565.785 L 940.105 563.198 L 940.521 560.599 L 940.936 557.989 L 941.351 555.368 L 941.767 552.735 L 942.182 550.091 L 942.598 547.436 L 943.013 544.768 L 943.428 542.09 L 943.844 539.4 L 944.259 536.698 L 944.675 533.985 L 945.09 531.26 L 945.506 528.524 L 945.921 525.776 L 946.336 523.016 L 946.752 520.245 L 947.167 517.462 L 947.583 514.668 L 947.998 511.861 L 948.413 509.043 L 948.829 506.213 L 949.244 503.372 L 949.66 500.518 L 950.075 497.653 L 950.49 494.776 L 950.906 491.887 L 951.321 488.986 L 951.737 486.074 L 952.152 483.149 L 952.568 480.213 L 952.983 477.264 L 953.398 474.304 L 953.814 471.331 L 954.229 468.347 L 954.645 465.35 L 955.06 462.341 L 955.475 459.321 L 955.891 456.288 L 956.306 453.243 L 956.722 450.186 L 957.137 447.116 L 957.553 444.035 L 957.968 440.941 L 958.383 437.835 L 958.799 434.717 L 959.214 431.587 L 959.63 428.444 L 960.045 425.289 L 960.46 422.122 L 960.876 418.942 L 961.291 415.75 L 961.707 412.546 L 962.122 409.329 L 962.538 406.1 L 962.953 402.858 L 963.368 399.604 L 963.784 396.337 L 964.199 393.058 L 964.615 389.766 L 965.03 386.462 L 965.445 383.145 L 965.861 379.815 L 966.276 376.473 L 966.692 373.118 L 967.107 369.751 L 967.523 366.371 L 967.938 362.978 L 968.353 359.573 L 968.769 356.154 L 969.184 352.723 L 969.6 349.28 L 970.015 345.823 L 970.43 342.354 L 970.846 338.871 L 971.261 335.376 L 971.677 331.868 L 972.092 328.347 L 972.508 324.814 L 972.923 321.267 L 973.338 317.707 L 973.754 314.134 L 974.169 310.549 L 974.585 306.95 L 975 303.338" stroke-width="3" stroke-dasharray="" stroke="black" stroke-opacity="1" fill="none" />
</g>
<g id="frame_3">
    <rect id="frame_3_border" x="560" y="525" width="415" height="435" />
    <g id="frame_3_bottomticks">
        <path d="M 767.5 960 L 767.5 950" />
        <path d="M 594.583 960 L 594.583 940" />
        <text font-size="30" transform="translate(594.583, 990)" text-anchor="middle" dominant-baseline="middle" stroke="none" fill="black">0</text>
        <path d="M 975 960 L 975 950" />
        <path d="M 629.167 960 L 629.167 950" />
        <path d="M 940.417 960 L 940.417 940" />
        <text font-size="30" transform="translate(940.417, 990)" text-anchor="middle" dominant-baseline="middle" stroke="none" fill="black">1</text>
        <path d="M 871.25 960 L 871.25 940" />
        <text font-size="30" transform="translate(871.25, 990)" text-anchor="middle" dominant-baseline="middle" stroke="none" fill="black">0.8</text>
        <path d="M 802.083 960 L 802.083 940" />
        <text font-size="30" transform="translate(802.083, 990)" text-anchor="middle" dominant-baseline="middle" stroke="none" fill="black">0.6</text>
        <path d="M 698.333 960 L 698.333 950" />
        <path d="M 732.917 960 L 732.917 940" />
        <text font-size="30" transform="translate(732.917, 990)" text-anchor="middle" dominant-baseline="middle" stroke="none" fill="black">0.4</text>
        <path d="M 905.833 960 L 905.833 950" />
        <path d="M 836.667 960 L 836.667 950" />
        <path d="M 560 960 L 560 950" />
        <path d="M 663.75 960 L 663.75 940" />
        <text font-size="30" transform="translate(663.75, 990)" text-anchor="middle" dominant-baseline="middle" stroke="none" fill="black">0.2</text>
    </g>
    <g id="frame_3_leftticks">
        <path d="M 560 856.569 L 580 856.569" />
        <text font-size="30" transform="translate(550, 866.569)" text-anchor="end" dominant-baseline="middle" stroke="none" fill="black">‒0.5</text>
        <path d="M 560 758.129 L 580 758.129" />
        <text font-size="30" transform="translate(550, 768.129)" text-anchor="end" dominant-baseline="middle" stroke="none" fill="black">0</text>
        <path d="M 560 659.69 L 580 659.69" />
        <text font-size="30" transform="translate(550, 669.69)" text-anchor="end" dominant-baseline="middle" stroke="none" fill="black">0.5</text>
        <path d="M 560 561.25 L 580 561.25" />
        <text font-size="30" transform="translate(550, 571.25)" text-anchor="end" dominant-baseline="middle" stroke="none" fill="black">1</text>
        <path d="M 560 699.065 L 570 699.065" />
        <path d="M 560 777.817 L 570 777.817" />
        <path d="M 560 640.002 L 570 640.002" />
        <path d="M 560 935.321 L 570 935.321" />
        <path d="M 560 620.314 L 570 620.314" />
        <path d="M 560 797.505 L 570 797.505" />
        <path d="M 560 915.633 L 570 915.633" />
        <path d="M 560 836.881 L 570 836.881" />
        <path d="M 560 718.753 L 570 718.753" />
        <path d="M 560 600.626 L 570 600.626" />
        <path d="M 560 895.945 L 570 895.945" />
        <path d="M 560 738.441 L 570 738.441" />
        <path d="M 560 580.938 L 570 580.938" />
        <path d="M 560 817.193 L 570 817.193" />
        <path d="M 560 679.378 L 570 679.378" />
        <path d="M 560 876.257 L 570 876.257" />
        <path d="M 560 541.562 L 570 541.562" />
        <path d="M 560 955.009 L 580 955.009" />
        <text font-size="30" transform="translate(550, 965.009)" text-anchor="end" dominant-baseline="middle" stroke="none" fill="black">‒1</text>
    </g>
    <g id="frame_3_topticks">
        <path d="M 767.5 525 L 767.5 535" />
        <path d="M 594.583 525 L 594.583 545" />
        <path d="M 975 525 L 975 535" />
        <path d="M 629.167 525 L 629.167 535" />
        <path d="M 940.417 525 L 940.417 545" />
        <path d="M 871.25 525 L 871.25 545" />
        <path d="M 802.083 525 L 802.083 545" />
        <path d="M 698.333 525 L 698.333 535" />
        <path d="M 732.917 525 L 732.917 545" />
        <path d="M 905.833 525 L 905.833 535" />
        <path d="M 836.667 525 L 836.667 535" />
        <path d="M 560 525 L 560 535" />
        <path d="M 663.75 525 L 663.75 545" />
    </g>
    <g id="frame_3_rightticks">
        <path d="M 975 856.569 L 955 856.569" />
        <path d="M 975 758.129 L 955 758.129" />
        <path d="M 975 659.69 L 955 659.69" />
        <path d="M 975 561.25 L 955 561.25" />
        <path d="M 975 699.065 L 965 699.065" />
        <path d="M 975 777.817 L 965 777.817" />
        <path d="M 975 640.002 L 965 640.002" />
        <path d="M 975 935.321 L 965 935.321" />
        <path d="M 975 620.314 L 965 620.314" />
        <path d="M 975 797.505 L 965 797.505" />
        <path d="M 975 915.633 L 965 915.633" />
        <path d="M 975 836.881 L 965 836.881" />
        <path d="M 975 718.753 L 965 718.753" />
        <path d="M 975 600.626 L 965 600.626" />
        <path d="M 975 895.945 L 965 895.945" />
        <path d="M 975 738.441 L 965 738.441" />
        <path d="M 975 580.938 L 965 580.938" />
        <path d="M 975 817.193 L 965 817.193" />
        <path d="M 975 679.378 L 965 679.378" />
        <path d="M 975 876.257 L 965 876.257" />
        <path d="M 975 541.562 L 965 541.562" />
        <path d="M 975 955.009 L 955 955.009" />
    </g>
</g>
</g>
</svg>
