<?xml version="1.0" standalone="no"?>
<!DOCTYPE svg PUBLIC "-//W3C//DTD SVG 1.1//EN" "http://www.w3.org/Graphics/SVG/1.1/DTD/svg11.dtd">
<svg style="stroke-linejoin:miter; stroke:black; stroke-width:2.5; text-anchor:middle; fill:none" xmlns="http://www.w3.org/2000/svg" font-family="Helvetica, Arial, FreeSans, Sans, sans, sans-serif" width="1000px" height="500px" version="1.1" xmlns:xlink="http://www.w3.org/1999/xlink" viewBox="0 0 1000 500">
<defs>
    <clipPath id="Histogram_0_clip">
        <rect x="66.6667" y="25" width="250" height="435" />
    </clipPath>
    <clipPath id="Histogram_1_clip">
        <rect x="400" y="25" width="250" height="435" />
    </clipPath>
    <clipPath id="Histogram_2_clip">
        <rect x="733.333" y="25" width="250" height="435" />
    </clipPath>
</defs>
<g id="whole_document">
<rect id="background" x="0" y="0" width="1000" height="500" stroke="none" fill="white" />
<g id="Histogram_0" clip-path="url(#Histogram_0_clip)">
    <path d="M 66.6667 460 L 66.6667 460 L 69.1667 460 L 69.1667 460 L 71.6667 460 L 71.6667 460 L 74.1667 460 L 74.1667 460 L 76.6667 460 L 76.6667 460 L 79.1667 460 L 79.1667 460 L 81.6667 460 L 81.6667 460 L 84.1667 460 L 84.1667 460 L 86.6667 460 L 86.6667 460 L 89.1667 460 L 89.1667 460 L 91.6667 460 L 91.6667 460 L 94.1667 460 L 94.1667 459.042 L 96.6667 459.042 L 96.6667 460 L 99.1667 460 L 99.1667 460 L 101.667 460 L 101.667 460 L 104.167 460 L 104.167 458.085 L 106.667 458.085 L 106.667 460 L 109.167 460 L 109.167 457.127 L 111.667 457.127 L 111.667 458.085 L 114.167 458.085 L 114.167 453.297 L 116.667 453.297 L 116.667 456.17 L 119.167 456.17 L 119.167 457.127 L 121.667 457.127 L 121.667 444.68 L 124.167 444.68 L 124.167 446.595 L 126.667 446.595 L 126.667 448.51 L 129.167 448.51 L 129.167 444.68 L 131.667 444.68 L 131.667 437.977 L 134.167 437.977 L 134.167 432.232 L 136.667 432.232 L 136.667 423.614 L 139.167 423.614 L 139.167 411.167 L 141.667 411.167 L 141.667 401.591 L 144.167 401.591 L 144.167 386.271 L 146.667 386.271 L 146.667 391.059 L 149.167 391.059 L 149.167 367.121 L 151.667 367.121 L 151.667 342.225 L 154.167 342.225 L 154.167 337.438 L 156.667 337.438 L 156.667 316.372 L 159.167 316.372 L 159.167 290.519 L 161.667 290.519 L 161.667 242.644 L 164.167 242.644 L 164.167 233.068 L 166.667 233.068 L 166.667 236.899 L 169.167 236.899 L 169.167 186.15 L 171.667 186.15 L 171.667 164.127 L 174.167 164.127 L 174.167 141.147 L 176.667 141.147 L 176.667 136.359 L 179.167 136.359 L 179.167 101.889 L 181.667 101.889 L 181.667 130.614 L 184.167 130.614 L 184.167 84.6533 L 186.667 84.6533 L 186.667 69.333 L 189.167 69.333 L 189.167 90.3984 L 191.667 90.3984 L 191.667 86.5683 L 194.167 86.5683 L 194.167 91.3559 L 196.667 91.3559 L 196.667 64.5455 L 199.167 64.5455 L 199.167 102.846 L 201.667 102.846 L 201.667 112.421 L 204.167 112.421 L 204.167 128.699 L 206.667 128.699 L 206.667 147.849 L 209.167 147.849 L 209.167 178.49 L 211.667 178.49 L 211.667 221.578 L 214.167 221.578 L 214.167 213.918 L 216.667 213.918 L 216.667 224.451 L 219.167 224.451 L 219.167 272.327 L 221.667 272.327 L 221.667 276.157 L 224.167 276.157 L 224.167 307.755 L 226.667 307.755 L 226.667 326.905 L 229.167 326.905 L 229.167 334.565 L 231.667 334.565 L 231.667 352.758 L 234.167 352.758 L 234.167 362.333 L 236.667 362.333 L 236.667 390.101 L 239.167 390.101 L 239.167 414.997 L 241.667 414.997 L 241.667 420.742 L 244.167 420.742 L 244.167 419.784 L 246.667 419.784 L 246.667 426.487 L 249.167 426.487 L 249.167 437.02 L 251.667 437.02 L 251.667 438.935 L 254.167 438.935 L 254.167 442.765 L 256.667 442.765 L 256.667 453.297 L 259.167 453.297 L 259.167 446.595 L 261.667 446.595 L 261.667 450.425 L 264.167 450.425 L 264.167 457.127 L 266.667 457.127 L 266.667 456.17 L 269.167 456.17 L 269.167 455.212 L 271.667 455.212 L 271.667 458.085 L 274.167 458.085 L 274.167 457.127 L 276.667 457.127 L 276.667 459.042 L 279.167 459.042 L 279.167 460 L 281.667 460 L 281.667 459.042 L 284.167 459.042 L 284.167 460 L 286.667 460 L 286.667 460 L 289.167 460 L 289.167 459.042 L 291.667 459.042 L 291.667 460 L 294.167 460 L 294.167 459.042 L 296.667 459.042 L 296.667 460 L 299.167 460 L 299.167 460 L 301.667 460 L 301.667 460 L 304.167 460 L 304.167 460 L 306.667 460 L 306.667 460 L 309.167 460 L 309.167 460 L 311.667 460 L 311.667 460 L 314.167 460 L 314.167 460 L 316.667 460 L 316.667 460" stroke-width="3" stroke-dasharray="" stroke="black" stroke-opacity="1" fill="none" fill-opacity="1" />
</g>
<g id="frame_0">
    <rect id="frame_0_border" x="66.6667" y="25" width="250" height="435" />
    <g id="frame_0_bottomticks">
        <path d="M 191.667 460 L 191.667 450" />
        <path d="M 66.6667 460 L 66.6667 440" />
        <text font-size="30" transform="translate(66.6667, 490)" text-anchor="middle" dominant-baseline="middle" stroke="none" fill="black">0</text>
        <path d="M 166.667 460 L 166.667 440" />
        <text font-size="30" transform="translate(166.667, 490)" text-anchor="middle" dominant-baseline="middle" stroke="none" fill="black">0.4</text>
        <path d="M 91.6667 460 L 91.6667 450" />
        <path d="M 316.667 460 L 316.667 440" />
        <text font-size="30" transform="translate(316.667, 490)" text-anchor="middle" dominant-baseline="middle" stroke="none" fill="black">1</text>
        <path d="M 116.667 460 L 116.667 440" />
        <text font-size="30" transform="translate(116.667, 490)" text-anchor="middle" dominant-baseline="middle" stroke="none" fill="black">0.2</text>
        <path d="M 216.667 460 L 216.667 440" />
        <text font-size="30" transform="translate(216.667, 490)" text-anchor="middle" dominant-baseline="middle" stroke="none" fill="black">0.6</text>
        <path d="M 141.667 460 L 141.667 450" />
        <path d="M 266.667 460 L 266.667 440" />
        <text font-size="30" transform="translate(266.667, 490)" text-anchor="middle" dominant-baseline="middle" stroke="none" fill="black">0.8</text>
        <path d="M 291.667 460 L 291.667 450" />
        <path d="M 241.667 460 L 241.667 450" />
    </g>
    <g id="frame_0_leftticks">
        <path d="M 66.6667 460 L 86.6667 460" />
        <text font-size="30" transform="translate(56.6667, 470)" text-anchor="end" dominant-baseline="middle" stroke="none" fill="black">0</text>
        <path d="M 66.6667 335.523 L 76.6667 335.523" />
        <path d="M 66.6667 211.046 L 76.6667 211.046" />
        <path d="M 66.6667 86.5683 L 76.6667 86.5683" />
        <path d="M 66.6667 450.425 L 76.6667 450.425" />
        <path d="M 66.6667 325.948 L 76.6667 325.948" />
        <path d="M 66.6667 201.47 L 76.6667 201.47" />
        <path d="M 66.6667 76.9932 L 86.6667 76.9932" />
        <text font-size="30" transform="translate(56.6667, 86.9932)" text-anchor="end" dominant-baseline="middle" stroke="none" fill="black">400</text>
        <path d="M 66.6667 440.85 L 76.6667 440.85" />
        <path d="M 66.6667 316.372 L 76.6667 316.372" />
        <path d="M 66.6667 191.895 L 76.6667 191.895" />
        <path d="M 66.6667 67.418 L 76.6667 67.418" />
        <path d="M 66.6667 431.274 L 76.6667 431.274" />
        <path d="M 66.6667 306.797 L 76.6667 306.797" />
        <path d="M 66.6667 182.32 L 76.6667 182.32" />
        <path d="M 66.6667 57.8428 L 76.6667 57.8428" />
        <path d="M 66.6667 421.699 L 76.6667 421.699" />
        <path d="M 66.6667 297.222 L 76.6667 297.222" />
        <path d="M 66.6667 172.745 L 86.6667 172.745" />
        <text font-size="30" transform="translate(56.6667, 182.745)" text-anchor="end" dominant-baseline="middle" stroke="none" fill="black">300</text>
        <path d="M 66.6667 48.2677 L 76.6667 48.2677" />
        <path d="M 66.6667 412.124 L 76.6667 412.124" />
        <path d="M 66.6667 287.647 L 76.6667 287.647" />
        <path d="M 66.6667 163.17 L 76.6667 163.17" />
        <path d="M 66.6667 38.6925 L 76.6667 38.6925" />
        <path d="M 66.6667 402.549 L 76.6667 402.549" />
        <path d="M 66.6667 278.072 L 76.6667 278.072" />
        <path d="M 66.6667 153.595 L 76.6667 153.595" />
        <path d="M 66.6667 29.1173 L 76.6667 29.1173" />
        <path d="M 66.6667 392.974 L 76.6667 392.974" />
        <path d="M 66.6667 268.497 L 86.6667 268.497" />
        <text font-size="30" transform="translate(56.6667, 278.497)" text-anchor="end" dominant-baseline="middle" stroke="none" fill="black">200</text>
        <path d="M 66.6667 144.019 L 76.6667 144.019" />
        <path d="M 66.6667 383.399 L 76.6667 383.399" />
        <path d="M 66.6667 258.921 L 76.6667 258.921" />
        <path d="M 66.6667 134.444 L 76.6667 134.444" />
        <path d="M 66.6667 373.823 L 76.6667 373.823" />
        <path d="M 66.6667 249.346 L 76.6667 249.346" />
        <path d="M 66.6667 124.869 L 76.6667 124.869" />
        <path d="M 66.6667 364.248 L 86.6667 364.248" />
        <text font-size="30" transform="translate(56.6667, 374.248)" text-anchor="end" dominant-baseline="middle" stroke="none" fill="black">100</text>
        <path d="M 66.6667 239.771 L 76.6667 239.771" />
        <path d="M 66.6667 115.294 L 76.6667 115.294" />
        <path d="M 66.6667 354.673 L 76.6667 354.673" />
        <path d="M 66.6667 230.196 L 76.6667 230.196" />
        <path d="M 66.6667 105.719 L 76.6667 105.719" />
        <path d="M 66.6667 345.098 L 76.6667 345.098" />
        <path d="M 66.6667 220.621 L 76.6667 220.621" />
        <path d="M 66.6667 96.1435 L 76.6667 96.1435" />
    </g>
    <g id="frame_0_topticks">
        <path d="M 191.667 25 L 191.667 35" />
        <path d="M 66.6667 25 L 66.6667 45" />
        <path d="M 166.667 25 L 166.667 45" />
        <path d="M 91.6667 25 L 91.6667 35" />
        <path d="M 316.667 25 L 316.667 45" />
        <path d="M 116.667 25 L 116.667 45" />
        <path d="M 216.667 25 L 216.667 45" />
        <path d="M 141.667 25 L 141.667 35" />
        <path d="M 266.667 25 L 266.667 45" />
        <path d="M 291.667 25 L 291.667 35" />
        <path d="M 241.667 25 L 241.667 35" />
    </g>
    <g id="frame_0_rightticks">
        <path d="M 316.667 460 L 296.667 460" />
        <path d="M 316.667 335.523 L 306.667 335.523" />
        <path d="M 316.667 211.046 L 306.667 211.046" />
        <path d="M 316.667 86.5683 L 306.667 86.5683" />
        <path d="M 316.667 450.425 L 306.667 450.425" />
        <path d="M 316.667 325.948 L 306.667 325.948" />
        <path d="M 316.667 201.47 L 306.667 201.47" />
        <path d="M 316.667 76.9932 L 296.667 76.9932" />
        <path d="M 316.667 440.85 L 306.667 440.85" />
        <path d="M 316.667 316.372 L 306.667 316.372" />
        <path d="M 316.667 191.895 L 306.667 191.895" />
        <path d="M 316.667 67.418 L 306.667 67.418" />
        <path d="M 316.667 431.274 L 306.667 431.274" />
        <path d="M 316.667 306.797 L 306.667 306.797" />
        <path d="M 316.667 182.32 L 306.667 182.32" />
        <path d="M 316.667 57.8428 L 306.667 57.8428" />
        <path d="M 316.667 421.699 L 306.667 421.699" />
        <path d="M 316.667 297.222 L 306.667 297.222" />
        <path d="M 316.667 172.745 L 296.667 172.745" />
        <path d="M 316.667 48.2677 L 306.667 48.2677" />
        <path d="M 316.667 412.124 L 306.667 412.124" />
        <path d="M 316.667 287.647 L 306.667 287.647" />
        <path d="M 316.667 163.17 L 306.667 163.17" />
        <path d="M 316.667 38.6925 L 306.667 38.6925" />
        <path d="M 316.667 402.549 L 306.667 402.549" />
        <path d="M 316.667 278.072 L 306.667 278.072" />
        <path d="M 316.667 153.595 L 306.667 153.595" />
        <path d="M 316.667 29.1173 L 306.667 29.1173" />
        <path d="M 316.667 392.974 L 306.667 392.974" />
        <path d="M 316.667 268.497 L 296.667 268.497" />
        <path d="M 316.667 144.019 L 306.667 144.019" />
        <path d="M 316.667 383.399 L 306.667 383.399" />
        <path d="M 316.667 258.921 L 306.667 258.921" />
        <path d="M 316.667 134.444 L 306.667 134.444" />
        <path d="M 316.667 373.823 L 306.667 373.823" />
        <path d="M 316.667 249.346 L 306.667 249.346" />
        <path d="M 316.667 124.869 L 306.667 124.869" />
        <path d="M 316.667 364.248 L 296.667 364.248" />
        <path d="M 316.667 239.771 L 306.667 239.771" />
        <path d="M 316.667 115.294 L 306.667 115.294" />
        <path d="M 316.667 354.673 L 306.667 354.673" />
        <path d="M 316.667 230.196 L 306.667 230.196" />
        <path d="M 316.667 105.719 L 306.667 105.719" />
        <path d="M 316.667 345.098 L 306.667 345.098" />
        <path d="M 316.667 220.621 L 306.667 220.621" />
        <path d="M 316.667 96.1435 L 306.667 96.1435" />
    </g>
</g>
<g id="Histogram_1" clip-path="url(#Histogram_1_clip)">
    <path d="M 400 460 L 400 460 L 402.5 460 L 402.5 460 L 405 460 L 405 460 L 407.5 460 L 407.5 460 L 410 460 L 410 460 L 412.5 460 L 412.5 460 L 415 460 L 415 460 L 417.5 460 L 417.5 460 L 420 460 L 420 460 L 422.5 460 L 422.5 460 L 425 460 L 425 460 L 427.5 460 L 427.5 459.065 L 430 459.065 L 430 460 L 432.5 460 L 432.5 459.065 L 435 459.065 L 435 460 L 437.5 460 L 437.5 460 L 440 460 L 440 459.065 L 442.5 459.065 L 442.5 459.065 L 445 459.065 L 445 456.26 L 447.5 456.26 L 447.5 459.065 L 450 459.065 L 450 452.521 L 452.5 452.521 L 452.5 454.391 L 455 454.391 L 455 457.195 L 457.5 457.195 L 457.5 452.521 L 460 452.521 L 460 439.433 L 462.5 439.433 L 462.5 442.237 L 465 442.237 L 465 435.693 L 467.5 435.693 L 467.5 433.823 L 470 433.823 L 470 426.344 L 472.5 426.344 L 472.5 406.712 L 475 406.712 L 475 407.647 L 477.5 407.647 L 477.5 371.186 L 480 371.186 L 480 375.861 L 482.5 375.861 L 482.5 356.228 L 485 356.228 L 485 345.01 L 487.5 345.01 L 487.5 342.205 L 490 342.205 L 490 315.093 L 492.5 315.093 L 492.5 273.024 L 495 273.024 L 495 287.047 L 497.5 287.047 L 497.5 241.238 L 500 241.238 L 500 228.15 L 502.5 228.15 L 502.5 209.452 L 505 209.452 L 505 173.926 L 507.5 173.926 L 507.5 156.164 L 510 156.164 L 510 146.815 L 512.5 146.815 L 512.5 100.071 L 515 100.071 L 515 115.029 L 517.5 115.029 L 517.5 124.378 L 520 124.378 L 520 106.615 L 522.5 106.615 L 522.5 110.355 L 525 110.355 L 525 85.1128 L 527.5 85.1128 L 527.5 64.5455 L 530 64.5455 L 530 115.964 L 532.5 115.964 L 532.5 115.029 L 535 115.029 L 535 96.3314 L 537.5 96.3314 L 537.5 125.313 L 540 125.313 L 540 131.857 L 542.5 131.857 L 542.5 172.057 L 545 172.057 L 545 187.015 L 547.5 187.015 L 547.5 231.889 L 550 231.889 L 550 250.587 L 552.5 250.587 L 552.5 268.349 L 555 268.349 L 555 287.047 L 557.5 287.047 L 557.5 317.898 L 560 317.898 L 560 340.335 L 562.5 340.335 L 562.5 353.424 L 565 353.424 L 565 345.945 L 567.5 345.945 L 567.5 385.21 L 570 385.21 L 570 390.819 L 572.5 390.819 L 572.5 404.842 L 575 404.842 L 575 418.865 L 577.5 418.865 L 577.5 431.019 L 580 431.019 L 580 429.149 L 582.5 429.149 L 582.5 441.302 L 585 441.302 L 585 444.107 L 587.5 444.107 L 587.5 440.368 L 590 440.368 L 590 447.847 L 592.5 447.847 L 592.5 453.456 L 595 453.456 L 595 452.521 L 597.5 452.521 L 597.5 456.26 L 600 456.26 L 600 457.195 L 602.5 457.195 L 602.5 457.195 L 605 457.195 L 605 460 L 607.5 460 L 607.5 460 L 610 460 L 610 459.065 L 612.5 459.065 L 612.5 458.13 L 615 458.13 L 615 459.065 L 617.5 459.065 L 617.5 459.065 L 620 459.065 L 620 460 L 622.5 460 L 622.5 459.065 L 625 459.065 L 625 460 L 627.5 460 L 627.5 460 L 630 460 L 630 460 L 632.5 460 L 632.5 460 L 635 460 L 635 460 L 637.5 460 L 637.5 460 L 640 460 L 640 460 L 642.5 460 L 642.5 460 L 645 460 L 645 460 L 647.5 460 L 647.5 460 L 650 460 L 650 460" stroke-width="3" stroke-dasharray="" stroke="black" stroke-opacity="1" fill="none" fill-opacity="1" />
</g>
<g id="frame_1">
    <rect id="frame_1_border" x="400" y="25" width="250" height="435" />
    <g id="frame_1_bottomticks">
        <path d="M 525 460 L 525 450" />
        <path d="M 400 460 L 400 440" />
        <text font-size="30" transform="translate(400, 490)" text-anchor="middle" dominant-baseline="middle" stroke="none" fill="black">0</text>
        <path d="M 500 460 L 500 440" />
        <text font-size="30" transform="translate(500, 490)" text-anchor="middle" dominant-baseline="middle" stroke="none" fill="black">0.4</text>
        <path d="M 425 460 L 425 450" />
        <path d="M 650 460 L 650 440" />
        <text font-size="30" transform="translate(650, 490)" text-anchor="middle" dominant-baseline="middle" stroke="none" fill="black">1</text>
        <path d="M 450 460 L 450 440" />
        <text font-size="30" transform="translate(450, 490)" text-anchor="middle" dominant-baseline="middle" stroke="none" fill="black">0.2</text>
        <path d="M 550 460 L 550 440" />
        <text font-size="30" transform="translate(550, 490)" text-anchor="middle" dominant-baseline="middle" stroke="none" fill="black">0.6</text>
        <path d="M 475 460 L 475 450" />
        <path d="M 600 460 L 600 440" />
        <text font-size="30" transform="translate(600, 490)" text-anchor="middle" dominant-baseline="middle" stroke="none" fill="black">0.8</text>
        <path d="M 625 460 L 625 450" />
        <path d="M 575 460 L 575 450" />
    </g>
    <g id="frame_1_leftticks">
        <path d="M 400 460 L 420 460" />
        <text font-size="30" transform="translate(390, 470)" text-anchor="end" dominant-baseline="middle" stroke="none" fill="black">0</text>
        <path d="M 400 338.466 L 410 338.466" />
        <path d="M 400 216.931 L 410 216.931" />
        <path d="M 400 95.3965 L 410 95.3965" />
        <path d="M 400 450.651 L 410 450.651" />
        <path d="M 400 329.117 L 410 329.117" />
        <path d="M 400 207.582 L 410 207.582" />
        <path d="M 400 86.0477 L 420 86.0477" />
        <text font-size="30" transform="translate(390, 96.0477)" text-anchor="end" dominant-baseline="middle" stroke="none" fill="black">400</text>
        <path d="M 400 441.302 L 410 441.302" />
        <path d="M 400 319.768 L 410 319.768" />
        <path d="M 400 198.233 L 410 198.233" />
        <path d="M 400 76.6989 L 410 76.6989" />
        <path d="M 400 431.954 L 410 431.954" />
        <path d="M 400 310.419 L 410 310.419" />
        <path d="M 400 188.885 L 410 188.885" />
        <path d="M 400 67.3501 L 410 67.3501" />
        <path d="M 400 422.605 L 410 422.605" />
        <path d="M 400 301.07 L 410 301.07" />
        <path d="M 400 179.536 L 420 179.536" />
        <text font-size="30" transform="translate(390, 189.536)" text-anchor="end" dominant-baseline="middle" stroke="none" fill="black">300</text>
        <path d="M 400 58.0013 L 410 58.0013" />
        <path d="M 400 413.256 L 410 413.256" />
        <path d="M 400 291.721 L 410 291.721" />
        <path d="M 400 170.187 L 410 170.187" />
        <path d="M 400 48.6525 L 410 48.6525" />
        <path d="M 400 403.907 L 410 403.907" />
        <path d="M 400 282.373 L 410 282.373" />
        <path d="M 400 160.838 L 410 160.838" />
        <path d="M 400 39.3037 L 410 39.3037" />
        <path d="M 400 394.558 L 410 394.558" />
        <path d="M 400 273.024 L 420 273.024" />
        <text font-size="30" transform="translate(390, 283.024)" text-anchor="end" dominant-baseline="middle" stroke="none" fill="black">200</text>
        <path d="M 400 151.489 L 410 151.489" />
        <path d="M 400 29.9549 L 410 29.9549" />
        <path d="M 400 385.21 L 410 385.21" />
        <path d="M 400 263.675 L 410 263.675" />
        <path d="M 400 142.141 L 410 142.141" />
        <path d="M 400 375.861 L 410 375.861" />
        <path d="M 400 254.326 L 410 254.326" />
        <path d="M 400 132.792 L 410 132.792" />
        <path d="M 400 366.512 L 420 366.512" />
        <text font-size="30" transform="translate(390, 376.512)" text-anchor="end" dominant-baseline="middle" stroke="none" fill="black">100</text>
        <path d="M 400 244.977 L 410 244.977" />
        <path d="M 400 123.443 L 410 123.443" />
        <path d="M 400 357.163 L 410 357.163" />
        <path d="M 400 235.629 L 410 235.629" />
        <path d="M 400 114.094 L 410 114.094" />
        <path d="M 400 347.814 L 410 347.814" />
        <path d="M 400 226.28 L 410 226.28" />
        <path d="M 400 104.745 L 410 104.745" />
    </g>
    <g id="frame_1_topticks">
        <path d="M 525 25 L 525 35" />
        <path d="M 400 25 L 400 45" />
        <path d="M 500 25 L 500 45" />
        <path d="M 425 25 L 425 35" />
        <path d="M 650 25 L 650 45" />
        <path d="M 450 25 L 450 45" />
        <path d="M 550 25 L 550 45" />
        <path d="M 475 25 L 475 35" />
        <path d="M 600 25 L 600 45" />
        <path d="M 625 25 L 625 35" />
        <path d="M 575 25 L 575 35" />
    </g>
    <g id="frame_1_rightticks">
        <path d="M 650 460 L 630 460" />
        <path d="M 650 338.466 L 640 338.466" />
        <path d="M 650 216.931 L 640 216.931" />
        <path d="M 650 95.3965 L 640 95.3965" />
        <path d="M 650 450.651 L 640 450.651" />
        <path d="M 650 329.117 L 640 329.117" />
        <path d="M 650 207.582 L 640 207.582" />
        <path d="M 650 86.0477 L 630 86.0477" />
        <path d="M 650 441.302 L 640 441.302" />
        <path d="M 650 319.768 L 640 319.768" />
        <path d="M 650 198.233 L 640 198.233" />
        <path d="M 650 76.6989 L 640 76.6989" />
        <path d="M 650 431.954 L 640 431.954" />
        <path d="M 650 310.419 L 640 310.419" />
        <path d="M 650 188.885 L 640 188.885" />
        <path d="M 650 67.3501 L 640 67.3501" />
        <path d="M 650 422.605 L 640 422.605" />
        <path d="M 650 301.07 L 640 301.07" />
        <path d="M 650 179.536 L 630 179.536" />
        <path d="M 650 58.0013 L 640 58.0013" />
        <path d="M 650 413.256 L 640 413.256" />
        <path d="M 650 291.721 L 640 291.721" />
        <path d="M 650 170.187 L 640 170.187" />
        <path d="M 650 48.6525 L 640 48.6525" />
        <path d="M 650 403.907 L 640 403.907" />
        <path d="M 650 282.373 L 640 282.373" />
        <path d="M 650 160.838 L 640 160.838" />
        <path d="M 650 39.3037 L 640 39.3037" />
        <path d="M 650 394.558 L 640 394.558" />
        <path d="M 650 273.024 L 630 273.024" />
        <path d="M 650 151.489 L 640 151.489" />
        <path d="M 650 29.9549 L 640 29.9549" />
        <path d="M 650 385.21 L 640 385.21" />
        <path d="M 650 263.675 L 640 263.675" />
        <path d="M 650 142.141 L 640 142.141" />
        <path d="M 650 375.861 L 640 375.861" />
        <path d="M 650 254.326 L 640 254.326" />
        <path d="M 650 132.792 L 640 132.792" />
        <path d="M 650 366.512 L 630 366.512" />
        <path d="M 650 244.977 L 640 244.977" />
        <path d="M 650 123.443 L 640 123.443" />
        <path d="M 650 357.163 L 640 357.163" />
        <path d="M 650 235.629 L 640 235.629" />
        <path d="M 650 114.094 L 640 114.094" />
        <path d="M 650 347.814 L 640 347.814" />
        <path d="M 650 226.28 L 640 226.28" />
        <path d="M 650 104.745 L 640 104.745" />
    </g>
</g>
<g id="Histogram_2" clip-path="url(#Histogram_2_clip)">
    <path d="M 733.333 460 L 733.333 460 L 735.833 460 L 735.833 460 L 738.333 460 L 738.333 460 L 740.833 460 L 740.833 460 L 743.333 460 L 743.333 460 L 745.833 460 L 745.833 460 L 748.333 460 L 748.333 460 L 750.833 460 L 750.833 460 L 753.333 460 L 753.333 460 L 755.833 460 L 755.833 460 L 758.333 460 L 758.333 460 L 760.833 460 L 760.833 459.065 L 763.333 459.065 L 763.333 460 L 765.833 460 L 765.833 459.065 L 768.333 459.065 L 768.333 460 L 770.833 460 L 770.833 460 L 773.333 460 L 773.333 459.065 L 775.833 459.065 L 775.833 459.065 L 778.333 459.065 L 778.333 456.26 L 780.833 456.26 L 780.833 459.065 L 783.333 459.065 L 783.333 452.521 L 785.833 452.521 L 785.833 454.391 L 788.333 454.391 L 788.333 457.195 L 790.833 457.195 L 790.833 452.521 L 793.333 452.521 L 793.333 439.433 L 795.833 439.433 L 795.833 442.237 L 798.333 442.237 L 798.333 435.693 L 800.833 435.693 L 800.833 433.823 L 803.333 433.823 L 803.333 426.344 L 805.833 426.344 L 805.833 406.712 L 808.333 406.712 L 808.333 407.647 L 810.833 407.647 L 810.833 371.186 L 813.333 371.186 L 813.333 375.861 L 815.833 375.861 L 815.833 356.228 L 818.333 356.228 L 818.333 345.01 L 820.833 345.01 L 820.833 342.205 L 823.333 342.205 L 823.333 315.093 L 825.833 315.093 L 825.833 273.024 L 828.333 273.024 L 828.333 287.047 L 830.833 287.047 L 830.833 241.238 L 833.333 241.238 L 833.333 228.15 L 835.833 228.15 L 835.833 209.452 L 838.333 209.452 L 838.333 173.926 L 840.833 173.926 L 840.833 156.164 L 843.333 156.164 L 843.333 146.815 L 845.833 146.815 L 845.833 100.071 L 848.333 100.071 L 848.333 115.029 L 850.833 115.029 L 850.833 124.378 L 853.333 124.378 L 853.333 106.615 L 855.833 106.615 L 855.833 110.355 L 858.333 110.355 L 858.333 85.1128 L 860.833 85.1128 L 860.833 64.5455 L 863.333 64.5455 L 863.333 115.964 L 865.833 115.964 L 865.833 115.029 L 868.333 115.029 L 868.333 96.3314 L 870.833 96.3314 L 870.833 125.313 L 873.333 125.313 L 873.333 131.857 L 875.833 131.857 L 875.833 172.057 L 878.333 172.057 L 878.333 187.015 L 880.833 187.015 L 880.833 231.889 L 883.333 231.889 L 883.333 250.587 L 885.833 250.587 L 885.833 268.349 L 888.333 268.349 L 888.333 287.047 L 890.833 287.047 L 890.833 317.898 L 893.333 317.898 L 893.333 340.335 L 895.833 340.335 L 895.833 353.424 L 898.333 353.424 L 898.333 345.945 L 900.833 345.945 L 900.833 385.21 L 903.333 385.21 L 903.333 390.819 L 905.833 390.819 L 905.833 404.842 L 908.333 404.842 L 908.333 418.865 L 910.833 418.865 L 910.833 431.019 L 913.333 431.019 L 913.333 429.149 L 915.833 429.149 L 915.833 441.302 L 918.333 441.302 L 918.333 444.107 L 920.833 444.107 L 920.833 440.368 L 923.333 440.368 L 923.333 447.847 L 925.833 447.847 L 925.833 453.456 L 928.333 453.456 L 928.333 452.521 L 930.833 452.521 L 930.833 456.26 L 933.333 456.26 L 933.333 457.195 L 935.833 457.195 L 935.833 457.195 L 938.333 457.195 L 938.333 460 L 940.833 460 L 940.833 460 L 943.333 460 L 943.333 459.065 L 945.833 459.065 L 945.833 458.13 L 948.333 458.13 L 948.333 459.065 L 950.833 459.065 L 950.833 459.065 L 953.333 459.065 L 953.333 460 L 955.833 460 L 955.833 459.065 L 958.333 459.065 L 958.333 460 L 960.833 460 L 960.833 460 L 963.333 460 L 963.333 460 L 965.833 460 L 965.833 460 L 968.333 460 L 968.333 460 L 970.833 460 L 970.833 460 L 973.333 460 L 973.333 460 L 975.833 460 L 975.833 460 L 978.333 460 L 978.333 460 L 980.833 460 L 980.833 460 L 983.333 460 L 983.333 460" stroke-width="3" stroke-dasharray="" stroke="black" stroke-opacity="1" fill="none" fill-opacity="1" />
</g>
<g id="frame_2">
    <rect id="frame_2_border" x="733.333" y="25" width="250" height="435" />
    <g id="frame_2_bottomticks">
        <path d="M 858.333 460 L 858.333 450" />
        <path d="M 733.333 460 L 733.333 440" />
        <text font-size="30" transform="translate(733.333, 490)" text-anchor="middle" dominant-baseline="middle" stroke="none" fill="black">0</text>
        <path d="M 833.333 460 L 833.333 440" />
        <text font-size="30" transform="translate(833.333, 490)" text-anchor="middle" dominant-baseline="middle" stroke="none" fill="black">0.4</text>
        <path d="M 758.333 460 L 758.333 450" />
        <path d="M 983.333 460 L 983.333 440" />
        <text font-size="30" transform="translate(983.333, 490)" text-anchor="middle" dominant-baseline="middle" stroke="none" fill="black">1</text>
        <path d="M 783.333 460 L 783.333 440" />
        <text font-size="30" transform="translate(783.333, 490)" text-anchor="middle" dominant-baseline="middle" stroke="none" fill="black">0.2</text>
        <path d="M 883.333 460 L 883.333 440" />
        <text font-size="30" transform="translate(883.333, 490)" text-anchor="middle" dominant-baseline="middle" stroke="none" fill="black">0.6</text>
        <path d="M 808.333 460 L 808.333 450" />
        <path d="M 933.333 460 L 933.333 440" />
        <text font-size="30" transform="translate(933.333, 490)" text-anchor="middle" dominant-baseline="middle" stroke="none" fill="black">0.8</text>
        <path d="M 958.333 460 L 958.333 450" />
        <path d="M 908.333 460 L 908.333 450" />
    </g>
    <g id="frame_2_leftticks">
        <path d="M 733.333 460 L 753.333 460" />
        <text font-size="30" transform="translate(723.333, 470)" text-anchor="end" dominant-baseline="middle" stroke="none" fill="black">0</text>
        <path d="M 733.333 338.466 L 743.333 338.466" />
        <path d="M 733.333 216.931 L 743.333 216.931" />
        <path d="M 733.333 95.3965 L 743.333 95.3965" />
        <path d="M 733.333 450.651 L 743.333 450.651" />
        <path d="M 733.333 329.117 L 743.333 329.117" />
        <path d="M 733.333 207.582 L 743.333 207.582" />
        <path d="M 733.333 86.0477 L 753.333 86.0477" />
        <text font-size="30" transform="translate(723.333, 96.0477)" text-anchor="end" dominant-baseline="middle" stroke="none" fill="black">400</text>
        <path d="M 733.333 441.302 L 743.333 441.302" />
        <path d="M 733.333 319.768 L 743.333 319.768" />
        <path d="M 733.333 198.233 L 743.333 198.233" />
        <path d="M 733.333 76.6989 L 743.333 76.6989" />
        <path d="M 733.333 431.954 L 743.333 431.954" />
        <path d="M 733.333 310.419 L 743.333 310.419" />
        <path d="M 733.333 188.885 L 743.333 188.885" />
        <path d="M 733.333 67.3501 L 743.333 67.3501" />
        <path d="M 733.333 422.605 L 743.333 422.605" />
        <path d="M 733.333 301.07 L 743.333 301.07" />
        <path d="M 733.333 179.536 L 753.333 179.536" />
        <text font-size="30" transform="translate(723.333, 189.536)" text-anchor="end" dominant-baseline="middle" stroke="none" fill="black">300</text>
        <path d="M 733.333 58.0013 L 743.333 58.0013" />
        <path d="M 733.333 413.256 L 743.333 413.256" />
        <path d="M 733.333 291.721 L 743.333 291.721" />
        <path d="M 733.333 170.187 L 743.333 170.187" />
        <path d="M 733.333 48.6525 L 743.333 48.6525" />
        <path d="M 733.333 403.907 L 743.333 403.907" />
        <path d="M 733.333 282.373 L 743.333 282.373" />
        <path d="M 733.333 160.838 L 743.333 160.838" />
        <path d="M 733.333 39.3037 L 743.333 39.3037" />
        <path d="M 733.333 394.558 L 743.333 394.558" />
        <path d="M 733.333 273.024 L 753.333 273.024" />
        <text font-size="30" transform="translate(723.333, 283.024)" text-anchor="end" dominant-baseline="middle" stroke="none" fill="black">200</text>
        <path d="M 733.333 151.489 L 743.333 151.489" />
        <path d="M 733.333 29.9549 L 743.333 29.9549" />
        <path d="M 733.333 385.21 L 743.333 385.21" />
        <path d="M 733.333 263.675 L 743.333 263.675" />
        <path d="M 733.333 142.141 L 743.333 142.141" />
        <path d="M 733.333 375.861 L 743.333 375.861" />
        <path d="M 733.333 254.326 L 743.333 254.326" />
        <path d="M 733.333 132.792 L 743.333 132.792" />
        <path d="M 733.333 366.512 L 753.333 366.512" />
        <text font-size="30" transform="translate(723.333, 376.512)" text-anchor="end" dominant-baseline="middle" stroke="none" fill="black">100</text>
        <path d="M 733.333 244.977 L 743.333 244.977" />
        <path d="M 733.333 123.443 L 743.333 123.443" />
        <path d="M 733.333 357.163 L 743.333 357.163" />
        <path d="M 733.333 235.629 L 743.333 235.629" />
        <path d="M 733.333 114.094 L 743.333 114.094" />
        <path d="M 733.333 347.814 L 743.333 347.814" />
        <path d="M 733.333 226.28 L 743.333 226.28" />
        <path d="M 733.333 104.745 L 743.333 104.745" />
    </g>
    <g id="frame_2_topticks">
        <path d="M 858.333 25 L 858.333 35" />
        <path d="M 733.333 25 L 733.333 45" />
        <path d="M 833.333 25 L 833.333 45" />
        <path d="M 758.333 25 L 758.333 35" />
        <path d="M 983.333 25 L 983.333 45" />
        <path d="M 783.333 25 L 783.333 45" />
        <path d="M 883.333 25 L 883.333 45" />
        <path d="M 808.333 25 L 808.333 35" />
        <path d="M 933.333 25 L 933.333 45" />
        <path d="M 958.333 25 L 958.333 35" />
        <path d="M 908.333 25 L 908.333 35" />
    </g>
    <g id="frame_2_rightticks">
        <path d="M 983.333 460 L 963.333 460" />
        <path d="M 983.333 338.466 L 973.333 338.466" />
        <path d="M 983.333 216.931 L 973.333 216.931" />
        <path d="M 983.333 95.3965 L 973.333 95.3965" />
        <path d="M 983.333 450.651 L 973.333 450.651" />
        <path d="M 983.333 329.117 L 973.333 329.117" />
        <path d="M 983.333 207.582 L 973.333 207.582" />
        <path d="M 983.333 86.0477 L 963.333 86.0477" />
        <path d="M 983.333 441.302 L 973.333 441.302" />
        <path d="M 983.333 319.768 L 973.333 319.768" />
        <path d="M 983.333 198.233 L 973.333 198.233" />
        <path d="M 983.333 76.6989 L 973.333 76.6989" />
        <path d="M 983.333 431.954 L 973.333 431.954" />
        <path d="M 983.333 310.419 L 973.333 310.419" />
        <path d="M 983.333 188.885 L 973.333 188.885" />
        <path d="M 983.333 67.3501 L 973.333 67.3501" />
        <path d="M 983.333 422.605 L 973.333 422.605" />
        <path d="M 983.333 301.07 L 973.333 301.07" />
        <path d="M 983.333 179.536 L 963.333 179.536" />
        <path d="M 983.333 58.0013 L 973.333 58.0013" />
        <path d="M 983.333 413.256 L 973.333 413.256" />
        <path d="M 983.333 291.721 L 973.333 291.721" />
        <path d="M 983.333 170.187 L 973.333 170.187" />
        <path d="M 983.333 48.6525 L 973.333 48.6525" />
        <path d="M 983.333 403.907 L 973.333 403.907" />
        <path d="M 983.333 282.373 L 973.333 282.373" />
        <path d="M 983.333 160.838 L 973.333 160.838" />
        <path d="M 983.333 39.3037 L 973.333 39.3037" />
        <path d="M 983.333 394.558 L 973.333 394.558" />
        <path d="M 983.333 273.024 L 963.333 273.024" />
        <path d="M 983.333 151.489 L 973.333 151.489" />
        <path d="M 983.333 29.9549 L 973.333 29.9549" />
        <path d="M 983.333 385.21 L 973.333 385.21" />
        <path d="M 983.333 263.675 L 973.333 263.675" />
        <path d="M 983.333 142.141 L 973.333 142.141" />
        <path d="M 983.333 375.861 L 973.333 375.861" />
        <path d="M 983.333 254.326 L 973.333 254.326" />
        <path d="M 983.333 132.792 L 973.333 132.792" />
        <path d="M 983.333 366.512 L 963.333 366.512" />
        <path d="M 983.333 244.977 L 973.333 244.977" />
        <path d="M 983.333 123.443 L 973.333 123.443" />
        <path d="M 983.333 357.163 L 973.333 357.163" />
        <path d="M 983.333 235.629 L 973.333 235.629" />
        <path d="M 983.333 114.094 L 973.333 114.094" />
        <path d="M 983.333 347.814 L 973.333 347.814" />
        <path d="M 983.333 226.28 L 973.333 226.28" />
        <path d="M 983.333 104.745 L 973.333 104.745" />
    </g>
</g>
</g>
</svg>
