<?xml version="1.0" standalone="no"?>
<!DOCTYPE svg PUBLIC "-//W3C//DTD SVG 1.1//EN" "http://www.w3.org/Graphics/SVG/1.1/DTD/svg11.dtd">
<svg style="stroke-linejoin:miter; stroke:black; stroke-width:2.5; text-anchor:middle; fill:none" xmlns="http://www.w3.org/2000/svg" font-family="Helvetica, Arial, FreeSans, Sans, sans, sans-serif" width="1000px" height="500px" version="1.1" xmlns:xlink="http://www.w3.org/1999/xlink" viewBox="0 0 1000 500">
<defs>
    <clipPath id="HistogramCategorical_0_clip">
        <rect x="120" y="25" width="830" height="400" />
    </clipPath>
</defs>
<g id="whole_document">
<rect id="background" x="0" y="0" width="1000" height="500" stroke="none" fill="white" />
<g id="HistogramCategorical_0" clip-path="url(#HistogramCategorical_0_clip)">
    <path d="M 120 425 L 120.525 425 L 120.525 423.446 L 129.981 423.446 L 129.981 425 L 131.032 425 L 131.032 423.446 L 140.487 423.446 L 140.487 425 L 141.538 425 L 141.538 421.892 L 150.994 421.892 L 150.994 425 L 152.044 425 L 152.044 423.446 L 161.5 423.446 L 161.5 425 L 162.551 425 L 162.551 423.446 L 172.006 423.446 L 172.006 425 L 173.057 425 L 173.057 423.446 L 182.513 423.446 L 182.513 425 L 183.563 425 L 183.563 421.892 L 193.019 421.892 L 193.019 425 L 194.07 425 L 194.07 423.446 L 203.525 423.446 L 203.525 425 L 204.576 425 L 204.576 423.446 L 214.032 423.446 L 214.032 425 L 215.082 425 L 215.082 423.446 L 224.538 423.446 L 224.538 425 L 225.589 425 L 225.589 423.446 L 235.044 423.446 L 235.044 425 L 236.095 425 L 236.095 61.3636 L 245.551 61.3636 L 245.551 425 L 246.601 425 L 246.601 423.446 L 256.057 423.446 L 256.057 425 L 257.108 425 L 257.108 423.446 L 266.563 423.446 L 266.563 425 L 267.614 425 L 267.614 423.446 L 277.07 423.446 L 277.07 425 L 278.12 425 L 278.12 421.892 L 287.576 421.892 L 287.576 425 L 288.627 425 L 288.627 423.446 L 298.082 423.446 L 298.082 425 L 299.133 425 L 299.133 423.446 L 308.589 423.446 L 308.589 425 L 309.639 425 L 309.639 423.446 L 319.095 423.446 L 319.095 425 L 320.146 425 L 320.146 423.446 L 329.601 423.446 L 329.601 425 L 330.652 425 L 330.652 423.446 L 340.108 423.446 L 340.108 425 L 341.158 425 L 341.158 423.446 L 350.614 423.446 L 350.614 425 L 351.665 425 L 351.665 423.446 L 361.12 423.446 L 361.12 425 L 362.171 425 L 362.171 423.446 L 371.627 423.446 L 371.627 425 L 372.677 425 L 372.677 421.892 L 382.133 421.892 L 382.133 425 L 383.184 425 L 383.184 423.446 L 392.639 423.446 L 392.639 425 L 393.69 425 L 393.69 423.446 L 403.146 423.446 L 403.146 425 L 404.196 425 L 404.196 423.446 L 413.652 423.446 L 413.652 425 L 414.703 425 L 414.703 423.446 L 424.158 423.446 L 424.158 425 L 425.209 425 L 425.209 423.446 L 434.665 423.446 L 434.665 425 L 435.715 425 L 435.715 423.446 L 445.171 423.446 L 445.171 425 L 446.222 425 L 446.222 423.446 L 455.677 423.446 L 455.677 425 L 456.728 425 L 456.728 420.338 L 466.184 420.338 L 466.184 425 L 467.234 425 L 467.234 423.446 L 476.69 423.446 L 476.69 425 L 477.741 425 L 477.741 423.446 L 487.196 423.446 L 487.196 425 L 488.247 425 L 488.247 423.446 L 497.703 423.446 L 497.703 425 L 498.753 425 L 498.753 423.446 L 508.209 423.446 L 508.209 425 L 509.259 425 L 509.259 423.446 L 518.715 423.446 L 518.715 425 L 519.766 425 L 519.766 423.446 L 529.222 423.446 L 529.222 425 L 530.272 425 L 530.272 423.446 L 539.728 423.446 L 539.728 425 L 540.778 425 L 540.778 423.446 L 550.234 423.446 L 550.234 425 L 551.285 425 L 551.285 423.446 L 560.741 423.446 L 560.741 425 L 561.791 425 L 561.791 423.446 L 571.247 423.446 L 571.247 425 L 572.297 425 L 572.297 423.446 L 581.753 423.446 L 581.753 425 L 582.804 425 L 582.804 423.446 L 592.259 423.446 L 592.259 425 L 593.31 425 L 593.31 423.446 L 602.766 423.446 L 602.766 425 L 603.816 425 L 603.816 423.446 L 613.272 423.446 L 613.272 425 L 614.323 425 L 614.323 421.892 L 623.778 421.892 L 623.778 425 L 624.829 425 L 624.829 421.892 L 634.285 421.892 L 634.285 425 L 635.335 425 L 635.335 423.446 L 644.791 423.446 L 644.791 425 L 645.842 425 L 645.842 423.446 L 655.297 423.446 L 655.297 425 L 656.348 425 L 656.348 423.446 L 665.804 423.446 L 665.804 425 L 666.854 425 L 666.854 423.446 L 676.31 423.446 L 676.31 425 L 677.361 425 L 677.361 423.446 L 686.816 423.446 L 686.816 425 L 687.867 425 L 687.867 421.892 L 697.323 421.892 L 697.323 425 L 698.373 425 L 698.373 421.892 L 707.829 421.892 L 707.829 425 L 708.88 425 L 708.88 421.892 L 718.335 421.892 L 718.335 425 L 719.386 425 L 719.386 423.446 L 728.842 423.446 L 728.842 425 L 729.892 425 L 729.892 423.446 L 739.348 423.446 L 739.348 425 L 740.399 425 L 740.399 421.892 L 749.854 421.892 L 749.854 425 L 750.905 425 L 750.905 423.446 L 760.361 423.446 L 760.361 425 L 761.411 425 L 761.411 423.446 L 770.867 423.446 L 770.867 425 L 771.918 425 L 771.918 423.446 L 781.373 423.446 L 781.373 425 L 782.424 425 L 782.424 423.446 L 791.88 423.446 L 791.88 425 L 792.93 425 L 792.93 423.446 L 802.386 423.446 L 802.386 425 L 803.437 425 L 803.437 421.892 L 812.892 421.892 L 812.892 425 L 813.943 425 L 813.943 423.446 L 823.399 423.446 L 823.399 425 L 824.449 425 L 824.449 423.446 L 833.905 423.446 L 833.905 425 L 834.956 425 L 834.956 421.892 L 844.411 421.892 L 844.411 425 L 845.462 425 L 845.462 423.446 L 854.918 423.446 L 854.918 425 L 855.968 425 L 855.968 423.446 L 865.424 423.446 L 865.424 425 L 866.475 425 L 866.475 423.446 L 875.93 423.446 L 875.93 425 L 876.981 425 L 876.981 423.446 L 886.437 423.446 L 886.437 425 L 887.487 425 L 887.487 421.892 L 896.943 421.892 L 896.943 425 L 897.994 425 L 897.994 423.446 L 907.449 423.446 L 907.449 425 L 908.5 425 L 908.5 423.446 L 917.956 423.446 L 917.956 425 L 919.006 425 L 919.006 423.446 L 928.462 423.446 L 928.462 425 L 929.513 425 L 929.513 423.446 L 938.968 423.446 L 938.968 425 L 940.019 425 L 940.019 423.446 L 949.475 423.446 L 949.475 425 L 950 425" stroke-width="3" stroke-dasharray="" stroke="black" stroke-opacity="1" fill="none" fill-opacity="1" />
</g>
<g id="frame_0">
    <rect id="frame_0_border" x="120" y="25" width="830" height="400" />
    <text id="frame_0_bottomlabel" font-size="30" transform="translate(535, 485)" text-anchor="middle" dominant-baseline="middle" stroke="none" fill="black">fielddeviceid</text>
    <g id="frame_0_bottomticks">
        <path d="M 125.253 425 L 125.253 405" />
        <text font-size="30" transform="translate(125.253, 455)" text-anchor="middle" dominant-baseline="middle" stroke="none" fill="black">IL-TESTTSC-BISHOP_FORD-N-7008</text>
        <path d="M 135.759 425 L 135.759 405" />
        <text font-size="30" transform="translate(135.759, 455)" text-anchor="middle" dominant-baseline="middle" stroke="none" fill="black">IL-TESTTSC-BISHOP_FORD-N-7021</text>
        <path d="M 146.266 425 L 146.266 405" />
        <text font-size="30" transform="translate(146.266, 455)" text-anchor="middle" dominant-baseline="middle" stroke="none" fill="black">IL-TESTTSC-DAN_RYAN-S-5153</text>
        <path d="M 156.772 425 L 156.772 405" />
        <text font-size="30" transform="translate(156.772, 455)" text-anchor="middle" dominant-baseline="middle" stroke="none" fill="black">IL-TESTTSC-EDENS-N-1108</text>
        <path d="M 167.278 425 L 167.278 405" />
        <text font-size="30" transform="translate(167.278, 455)" text-anchor="middle" dominant-baseline="middle" stroke="none" fill="black">IL-TESTTSC-EDENS-N-1120</text>
        <path d="M 177.785 425 L 177.785 405" />
        <text font-size="30" transform="translate(177.785, 455)" text-anchor="middle" dominant-baseline="middle" stroke="none" fill="black">IL-TESTTSC-EDENS-N-1131</text>
        <path d="M 188.291 425 L 188.291 405" />
        <text font-size="30" transform="translate(188.291, 455)" text-anchor="middle" dominant-baseline="middle" stroke="none" fill="black">IL-TESTTSC-EDENS-S-1002</text>
        <path d="M 198.797 425 L 198.797 405" />
        <text font-size="30" transform="translate(198.797, 455)" text-anchor="middle" dominant-baseline="middle" stroke="none" fill="black">IL-TESTTSC-EDENS-S-1013</text>
        <path d="M 209.304 425 L 209.304 405" />
        <text font-size="30" transform="translate(209.304, 455)" text-anchor="middle" dominant-baseline="middle" stroke="none" fill="black">IL-TESTTSC-EDENS-S-1014</text>
        <path d="M 219.81 425 L 219.81 405" />
        <text font-size="30" transform="translate(219.81, 455)" text-anchor="middle" dominant-baseline="middle" stroke="none" fill="black">IL-TESTTSC-EDENS-S-1023</text>
        <path d="M 230.316 425 L 230.316 405" />
        <text font-size="30" transform="translate(230.316, 455)" text-anchor="middle" dominant-baseline="middle" stroke="none" fill="black">IL-TESTTSC-EDENS-S-1028</text>
        <path d="M 240.823 425 L 240.823 405" />
        <text font-size="30" transform="translate(240.823, 455)" text-anchor="middle" dominant-baseline="middle" stroke="none" fill="black">IL-TESTTSC-EDENS-S-1037</text>
        <path d="M 251.329 425 L 251.329 405" />
        <text font-size="30" transform="translate(251.329, 455)" text-anchor="middle" dominant-baseline="middle" stroke="none" fill="black">IL-TESTTSC-EISENHOWER-E-3029</text>
        <path d="M 261.835 425 L 261.835 405" />
        <text font-size="30" transform="translate(261.835, 455)" text-anchor="middle" dominant-baseline="middle" stroke="none" fill="black">IL-TESTTSC-EISENHOWER-E-3034</text>
        <path d="M 272.342 425 L 272.342 405" />
        <text font-size="30" transform="translate(272.342, 455)" text-anchor="middle" dominant-baseline="middle" stroke="none" fill="black">IL-TESTTSC-EISENHOWER-W-3108</text>
        <path d="M 282.848 425 L 282.848 405" />
        <text font-size="30" transform="translate(282.848, 455)" text-anchor="middle" dominant-baseline="middle" stroke="none" fill="black">IL-TESTTSC-ELGIN_O_HARE-E-13005</text>
        <path d="M 293.354 425 L 293.354 405" />
        <text font-size="30" transform="translate(293.354, 455)" text-anchor="middle" dominant-baseline="middle" stroke="none" fill="black">IL-TESTTSC-ELGIN_O_HARE-W-13103</text>
        <path d="M 303.861 425 L 303.861 405" />
        <text font-size="30" transform="translate(303.861, 455)" text-anchor="middle" dominant-baseline="middle" stroke="none" fill="black">IL-TESTTSC-ELGIN_O_HARE-W-13111</text>
        <path d="M 314.367 425 L 314.367 405" />
        <text font-size="30" transform="translate(314.367, 455)" text-anchor="middle" dominant-baseline="middle" stroke="none" fill="black">IL-TESTTSC-ELGIN_O_HARE-W-13113</text>
        <path d="M 324.873 425 L 324.873 405" />
        <text font-size="30" transform="translate(324.873, 455)" text-anchor="middle" dominant-baseline="middle" stroke="none" fill="black">IL-TESTTSC-I_290-E-4014</text>
        <path d="M 335.38 425 L 335.38 405" />
        <text font-size="30" transform="translate(335.38, 455)" text-anchor="middle" dominant-baseline="middle" stroke="none" fill="black">IL-TESTTSC-I_290-E-4021</text>
        <path d="M 345.886 425 L 345.886 405" />
        <text font-size="30" transform="translate(345.886, 455)" text-anchor="middle" dominant-baseline="middle" stroke="none" fill="black">IL-TESTTSC-I_290-W-4111</text>
        <path d="M 356.392 425 L 356.392 405" />
        <text font-size="30" transform="translate(356.392, 455)" text-anchor="middle" dominant-baseline="middle" stroke="none" fill="black">IL-TESTTSC-I_290-W-4134</text>
        <path d="M 366.899 425 L 366.899 405" />
        <text font-size="30" transform="translate(366.899, 455)" text-anchor="middle" dominant-baseline="middle" stroke="none" fill="black">IL-TESTTSC-I_290-W-4135</text>
        <path d="M 377.405 425 L 377.405 405" />
        <text font-size="30" transform="translate(377.405, 455)" text-anchor="middle" dominant-baseline="middle" stroke="none" fill="black">IL-TESTTSC-I_290_EXPRESS-W-4301</text>
        <path d="M 387.911 425 L 387.911 405" />
        <text font-size="30" transform="translate(387.911, 455)" text-anchor="middle" dominant-baseline="middle" stroke="none" fill="black">IL-TESTTSC-I_55-N-6017</text>
        <path d="M 398.418 425 L 398.418 405" />
        <text font-size="30" transform="translate(398.418, 455)" text-anchor="middle" dominant-baseline="middle" stroke="none" fill="black">IL-TESTTSC-I_55-S-6147</text>
        <path d="M 408.924 425 L 408.924 405" />
        <text font-size="30" transform="translate(408.924, 455)" text-anchor="middle" dominant-baseline="middle" stroke="none" fill="black">IL-TESTTSC-I_57-N-9011</text>
        <path d="M 419.43 425 L 419.43 405" />
        <text font-size="30" transform="translate(419.43, 455)" text-anchor="middle" dominant-baseline="middle" stroke="none" fill="black">IL-TESTTSC-I_57-N-9017</text>
        <path d="M 429.937 425 L 429.937 405" />
        <text font-size="30" transform="translate(429.937, 455)" text-anchor="middle" dominant-baseline="middle" stroke="none" fill="black">IL-TESTTSC-I_57-N-9021</text>
        <path d="M 440.443 425 L 440.443 405" />
        <text font-size="30" transform="translate(440.443, 455)" text-anchor="middle" dominant-baseline="middle" stroke="none" fill="black">IL-TESTTSC-I_57-S-9110</text>
        <path d="M 450.949 425 L 450.949 405" />
        <text font-size="30" transform="translate(450.949, 455)" text-anchor="middle" dominant-baseline="middle" stroke="none" fill="black">IL-TESTTSC-I_57-S-9111</text>
        <path d="M 461.456 425 L 461.456 405" />
        <text font-size="30" transform="translate(461.456, 455)" text-anchor="middle" dominant-baseline="middle" stroke="none" fill="black">IL-TESTTSC-I_57-S-9112</text>
        <path d="M 471.962 425 L 471.962 405" />
        <text font-size="30" transform="translate(471.962, 455)" text-anchor="middle" dominant-baseline="middle" stroke="none" fill="black">IL-TESTTSC-I_57-S-9116</text>
        <path d="M 482.468 425 L 482.468 405" />
        <text font-size="30" transform="translate(482.468, 455)" text-anchor="middle" dominant-baseline="middle" stroke="none" fill="black">IL-TESTTSC-I_57-S-9121</text>
        <path d="M 492.975 425 L 492.975 405" />
        <text font-size="30" transform="translate(492.975, 455)" text-anchor="middle" dominant-baseline="middle" stroke="none" fill="black">IL-TESTTSC-I_57-S-9125</text>
        <path d="M 503.481 425 L 503.481 405" />
        <text font-size="30" transform="translate(503.481, 455)" text-anchor="middle" dominant-baseline="middle" stroke="none" fill="black">IL-TESTTSC-I_57-S-9128</text>
        <path d="M 513.987 425 L 513.987 405" />
        <text font-size="30" transform="translate(513.987, 455)" text-anchor="middle" dominant-baseline="middle" stroke="none" fill="black">IL-TESTTSC-I_57-S-9130</text>
        <path d="M 524.494 425 L 524.494 405" />
        <text font-size="30" transform="translate(524.494, 455)" text-anchor="middle" dominant-baseline="middle" stroke="none" fill="black">IL-TESTTSC-I_80-E-35065</text>
        <path d="M 535 425 L 535 405" />
        <text font-size="30" transform="translate(535, 455)" text-anchor="middle" dominant-baseline="middle" stroke="none" fill="black">IL-TESTTSC-I_80-W-35106</text>
        <path d="M 545.506 425 L 545.506 405" />
        <text font-size="30" transform="translate(545.506, 455)" text-anchor="middle" dominant-baseline="middle" stroke="none" fill="black">IL-TESTTSC-I_80-W-35119</text>
        <path d="M 556.013 425 L 556.013 405" />
        <text font-size="30" transform="translate(556.013, 455)" text-anchor="middle" dominant-baseline="middle" stroke="none" fill="black">IL-TESTTSC-KENNEDY-E-2023</text>
        <path d="M 566.519 425 L 566.519 405" />
        <text font-size="30" transform="translate(566.519, 455)" text-anchor="middle" dominant-baseline="middle" stroke="none" fill="black">IL-TESTTSC-KENNEDY-W-2139</text>
        <path d="M 577.025 425 L 577.025 405" />
        <text font-size="30" transform="translate(577.025, 455)" text-anchor="middle" dominant-baseline="middle" stroke="none" fill="black">IL-TESTTSC-KENNEDY_REVERSIBLE-E-2200</text>
        <path d="M 587.532 425 L 587.532 405" />
        <text font-size="30" transform="translate(587.532, 455)" text-anchor="middle" dominant-baseline="middle" stroke="none" fill="black">IL-TESTTSC-KENNEDY_REVERSIBLE-E-2206</text>
        <path d="M 598.038 425 L 598.038 405" />
        <text font-size="30" transform="translate(598.038, 455)" text-anchor="middle" dominant-baseline="middle" stroke="none" fill="black">IL-TESTTSC-LAKE_SHORE_DRIVE_NORTH-N-10304</text>
        <path d="M 608.544 425 L 608.544 405" />
        <text font-size="30" transform="translate(608.544, 455)" text-anchor="middle" dominant-baseline="middle" stroke="none" fill="black">IL-TESTTSC-LAKE_SHORE_DRIVE_NORTH-N-10317</text>
        <path d="M 619.051 425 L 619.051 405" />
        <text font-size="30" transform="translate(619.051, 455)" text-anchor="middle" dominant-baseline="middle" stroke="none" fill="black">IL-TESTTSC-LAKE_SHORE_DRIVE_NORTH-S-10203</text>
        <path d="M 629.557 425 L 629.557 405" />
        <text font-size="30" transform="translate(629.557, 455)" text-anchor="middle" dominant-baseline="middle" stroke="none" fill="black">IL-TESTTSC-LAKE_SHORE_DRIVE_NORTH-S-10204</text>
        <path d="M 640.063 425 L 640.063 405" />
        <text font-size="30" transform="translate(640.063, 455)" text-anchor="middle" dominant-baseline="middle" stroke="none" fill="black">IL-TESTTSC-LAKE_SHORE_DRIVE_SOUTH-N-10003</text>
        <path d="M 650.57 425 L 650.57 405" />
        <text font-size="30" transform="translate(650.57, 455)" text-anchor="middle" dominant-baseline="middle" stroke="none" fill="black">IL-TESTTSC-LAKE_SHORE_DRIVE_SOUTH-N-10005</text>
        <path d="M 661.076 425 L 661.076 405" />
        <text font-size="30" transform="translate(661.076, 455)" text-anchor="middle" dominant-baseline="middle" stroke="none" fill="black">IL-TESTTSC-LAKE_SHORE_DRIVE_SOUTH-N-10010</text>
        <path d="M 671.582 425 L 671.582 405" />
        <text font-size="30" transform="translate(671.582, 455)" text-anchor="middle" dominant-baseline="middle" stroke="none" fill="black">IL-TESTTSC-LAKE_SHORE_DRIVE_SOUTH-N-10011</text>
        <path d="M 682.089 425 L 682.089 405" />
        <text font-size="30" transform="translate(682.089, 455)" text-anchor="middle" dominant-baseline="middle" stroke="none" fill="black">IL-TESTTSC-LAKE_SHORE_DRIVE_SOUTH-N-10012</text>
        <path d="M 692.595 425 L 692.595 405" />
        <text font-size="30" transform="translate(692.595, 455)" text-anchor="middle" dominant-baseline="middle" stroke="none" fill="black">IL-TESTTSC-LAKE_SHORE_DRIVE_SOUTH-S-10107</text>
        <path d="M 703.101 425 L 703.101 405" />
        <text font-size="30" transform="translate(703.101, 455)" text-anchor="middle" dominant-baseline="middle" stroke="none" fill="black">IL-TESTTSC-LAKE_SHORE_DRIVE_SOUTH-S-10110</text>
        <path d="M 713.608 425 L 713.608 405" />
        <text font-size="30" transform="translate(713.608, 455)" text-anchor="middle" dominant-baseline="middle" stroke="none" fill="black">IL-TESTTSC-LAKE_SHORE_DRIVE_SOUTH-S-10111</text>
        <path d="M 724.114 425 L 724.114 405" />
        <text font-size="30" transform="translate(724.114, 455)" text-anchor="middle" dominant-baseline="middle" stroke="none" fill="black">IL-TESTTSC-LAKE_SHORE_DRIVE_SOUTH-S-10115</text>
        <path d="M 734.62 425 L 734.62 405" />
        <text font-size="30" transform="translate(734.62, 455)" text-anchor="middle" dominant-baseline="middle" stroke="none" fill="black">IL-TESTTSC-LAKE_SHORE_DRIVE_SOUTH-S-10117</text>
        <path d="M 745.127 425 L 745.127 405" />
        <text font-size="30" transform="translate(745.127, 455)" text-anchor="middle" dominant-baseline="middle" stroke="none" fill="black">IL-TESTTSC-ROUTE_53-N-11101</text>
        <path d="M 755.633 425 L 755.633 405" />
        <text font-size="30" transform="translate(755.633, 455)" text-anchor="middle" dominant-baseline="middle" stroke="none" fill="black">IL-TESTTSC-ROUTE_53-N-11108</text>
        <path d="M 766.139 425 L 766.139 405" />
        <text font-size="30" transform="translate(766.139, 455)" text-anchor="middle" dominant-baseline="middle" stroke="none" fill="black">IL-TESTTSC-ROUTE_53-N-11111</text>
        <path d="M 776.646 425 L 776.646 405" />
        <text font-size="30" transform="translate(776.646, 455)" text-anchor="middle" dominant-baseline="middle" stroke="none" fill="black">IL-TESTTSC-ROUTE_53-N-11113</text>
        <path d="M 787.152 425 L 787.152 405" />
        <text font-size="30" transform="translate(787.152, 455)" text-anchor="middle" dominant-baseline="middle" stroke="none" fill="black">IL-TESTTSC-ROUTE_53-N-11115</text>
        <path d="M 797.658 425 L 797.658 405" />
        <text font-size="30" transform="translate(797.658, 455)" text-anchor="middle" dominant-baseline="middle" stroke="none" fill="black">IL-TESTTSC-ROUTE_53-S-11004</text>
        <path d="M 808.165 425 L 808.165 405" />
        <text font-size="30" transform="translate(808.165, 455)" text-anchor="middle" dominant-baseline="middle" stroke="none" fill="black">IL-TESTTSC-ROUTE_53-S-11009</text>
        <path d="M 818.671 425 L 818.671 405" />
        <text font-size="30" transform="translate(818.671, 455)" text-anchor="middle" dominant-baseline="middle" stroke="none" fill="black">IL-TESTTSC-ROUTE_53-S-11010</text>
        <path d="M 829.177 425 L 829.177 405" />
        <text font-size="30" transform="translate(829.177, 455)" text-anchor="middle" dominant-baseline="middle" stroke="none" fill="black">IL-TESTTSC-ROUTE_53-S-11011</text>
        <path d="M 839.684 425 L 839.684 405" />
        <text font-size="30" transform="translate(839.684, 455)" text-anchor="middle" dominant-baseline="middle" stroke="none" fill="black">IL-TESTTSC-ROUTE_53-S-11015</text>
        <path d="M 850.19 425 L 850.19 405" />
        <text font-size="30" transform="translate(850.19, 455)" text-anchor="middle" dominant-baseline="middle" stroke="none" fill="black">IL-TESTTSC-ROUTE_53_I_355_CONNECTOR-S-24001</text>
        <path d="M 860.696 425 L 860.696 405" />
        <text font-size="30" transform="translate(860.696, 455)" text-anchor="middle" dominant-baseline="middle" stroke="none" fill="black">IL-TESTTSC-ROUTE_53_I_355_CONNECTOR-S-24003</text>
        <path d="M 871.203 425 L 871.203 405" />
        <text font-size="30" transform="translate(871.203, 455)" text-anchor="middle" dominant-baseline="middle" stroke="none" fill="black">IL-TESTTSC-STEVENSON-N-6024</text>
        <path d="M 881.709 425 L 881.709 405" />
        <text font-size="30" transform="translate(881.709, 455)" text-anchor="middle" dominant-baseline="middle" stroke="none" fill="black">IL-TESTTSC-STEVENSON-N-6026</text>
        <path d="M 892.215 425 L 892.215 405" />
        <text font-size="30" transform="translate(892.215, 455)" text-anchor="middle" dominant-baseline="middle" stroke="none" fill="black">IL-TESTTSC-STEVENSON-N-6028</text>
        <path d="M 902.722 425 L 902.722 405" />
        <text font-size="30" transform="translate(902.722, 455)" text-anchor="middle" dominant-baseline="middle" stroke="none" fill="black">IL-TESTTSC-STEVENSON-N-6050</text>
        <path d="M 913.228 425 L 913.228 405" />
        <text font-size="30" transform="translate(913.228, 455)" text-anchor="middle" dominant-baseline="middle" stroke="none" fill="black">IL-TESTTSC-STEVENSON-N-6053</text>
        <path d="M 923.734 425 L 923.734 405" />
        <text font-size="30" transform="translate(923.734, 455)" text-anchor="middle" dominant-baseline="middle" stroke="none" fill="black">IL-TESTTSC-STEVENSON-N-6055</text>
        <path d="M 934.241 425 L 934.241 405" />
        <text font-size="30" transform="translate(934.241, 455)" text-anchor="middle" dominant-baseline="middle" stroke="none" fill="black">IL-TESTTSC-STEVENSON-S-6102</text>
        <path d="M 944.747 425 L 944.747 405" />
        <text font-size="30" transform="translate(944.747, 455)" text-anchor="middle" dominant-baseline="middle" stroke="none" fill="black">IL-TESTTSC-STEVENSON-S-6113</text>
    </g>
    <g id="frame_0_leftticks">
        <path d="M 120 425 L 140 425" />
        <text font-size="30" transform="translate(110, 435)" text-anchor="end" dominant-baseline="middle" stroke="none" fill="black">0</text>
        <path d="M 120 222.98 L 130 222.98" />
        <path d="M 120 316.22 L 130 316.22" />
        <path d="M 120 114.2 L 140 114.2" />
        <text font-size="30" transform="translate(110, 124.2)" text-anchor="end" dominant-baseline="middle" stroke="none" fill="black">200</text>
        <path d="M 120 409.46 L 130 409.46" />
        <path d="M 120 207.44 L 130 207.44" />
        <path d="M 120 300.68 L 130 300.68" />
        <path d="M 120 98.6597 L 130 98.6597" />
        <path d="M 120 393.92 L 130 393.92" />
        <path d="M 120 191.9 L 140 191.9" />
        <text font-size="30" transform="translate(110, 201.9)" text-anchor="end" dominant-baseline="middle" stroke="none" fill="black">150</text>
        <path d="M 120 285.14 L 130 285.14" />
        <path d="M 120 83.1197 L 130 83.1197" />
        <path d="M 120 378.38 L 130 378.38" />
        <path d="M 120 176.36 L 130 176.36" />
        <path d="M 120 269.6 L 140 269.6" />
        <text font-size="30" transform="translate(110, 279.6)" text-anchor="end" dominant-baseline="middle" stroke="none" fill="black">100</text>
        <path d="M 120 67.5796 L 130 67.5796" />
        <path d="M 120 362.84 L 130 362.84" />
        <path d="M 120 160.82 L 130 160.82" />
        <path d="M 120 254.06 L 130 254.06" />
        <path d="M 120 52.0396 L 130 52.0396" />
        <path d="M 120 347.3 L 140 347.3" />
        <text font-size="30" transform="translate(110, 357.3)" text-anchor="end" dominant-baseline="middle" stroke="none" fill="black">50</text>
        <path d="M 120 145.28 L 130 145.28" />
        <path d="M 120 238.52 L 130 238.52" />
        <path d="M 120 36.4996 L 140 36.4996" />
        <text font-size="30" transform="translate(110, 46.4996)" text-anchor="end" dominant-baseline="middle" stroke="none" fill="black">250</text>
        <path d="M 120 331.76 L 130 331.76" />
        <path d="M 120 129.74 L 130 129.74" />
    </g>
    <g id="frame_0_topticks">
        <path d="M 125.253 25 L 125.253 45" />
        <path d="M 135.759 25 L 135.759 35" />
        <path d="M 146.266 25 L 146.266 35" />
        <path d="M 156.772 25 L 156.772 35" />
        <path d="M 167.278 25 L 167.278 35" />
        <path d="M 177.785 25 L 177.785 35" />
        <path d="M 188.291 25 L 188.291 35" />
        <path d="M 198.797 25 L 198.797 35" />
        <path d="M 209.304 25 L 209.304 35" />
        <path d="M 219.81 25 L 219.81 35" />
        <path d="M 230.316 25 L 230.316 45" />
        <path d="M 240.823 25 L 240.823 35" />
        <path d="M 251.329 25 L 251.329 35" />
        <path d="M 261.835 25 L 261.835 35" />
        <path d="M 272.342 25 L 272.342 35" />
        <path d="M 282.848 25 L 282.848 35" />
        <path d="M 293.354 25 L 293.354 35" />
        <path d="M 303.861 25 L 303.861 35" />
        <path d="M 314.367 25 L 314.367 35" />
        <path d="M 324.873 25 L 324.873 35" />
        <path d="M 335.38 25 L 335.38 45" />
        <path d="M 345.886 25 L 345.886 35" />
        <path d="M 356.392 25 L 356.392 35" />
        <path d="M 366.899 25 L 366.899 35" />
        <path d="M 377.405 25 L 377.405 35" />
        <path d="M 387.911 25 L 387.911 35" />
        <path d="M 398.418 25 L 398.418 35" />
        <path d="M 408.924 25 L 408.924 35" />
        <path d="M 419.43 25 L 419.43 35" />
        <path d="M 429.937 25 L 429.937 35" />
        <path d="M 440.443 25 L 440.443 45" />
        <path d="M 450.949 25 L 450.949 35" />
        <path d="M 461.456 25 L 461.456 35" />
        <path d="M 471.962 25 L 471.962 35" />
        <path d="M 482.468 25 L 482.468 35" />
        <path d="M 492.975 25 L 492.975 35" />
        <path d="M 503.481 25 L 503.481 35" />
        <path d="M 513.987 25 L 513.987 35" />
        <path d="M 524.494 25 L 524.494 35" />
        <path d="M 535 25 L 535 35" />
        <path d="M 545.506 25 L 545.506 45" />
        <path d="M 556.013 25 L 556.013 35" />
        <path d="M 566.519 25 L 566.519 35" />
        <path d="M 577.025 25 L 577.025 35" />
        <path d="M 587.532 25 L 587.532 35" />
        <path d="M 598.038 25 L 598.038 35" />
        <path d="M 608.544 25 L 608.544 35" />
        <path d="M 619.051 25 L 619.051 35" />
        <path d="M 629.557 25 L 629.557 35" />
        <path d="M 640.063 25 L 640.063 35" />
        <path d="M 650.57 25 L 650.57 45" />
        <path d="M 661.076 25 L 661.076 35" />
        <path d="M 671.582 25 L 671.582 35" />
        <path d="M 682.089 25 L 682.089 35" />
        <path d="M 692.595 25 L 692.595 35" />
        <path d="M 703.101 25 L 703.101 35" />
        <path d="M 713.608 25 L 713.608 35" />
        <path d="M 724.114 25 L 724.114 35" />
        <path d="M 734.62 25 L 734.62 35" />
        <path d="M 745.127 25 L 745.127 35" />
        <path d="M 755.633 25 L 755.633 45" />
        <path d="M 766.139 25 L 766.139 35" />
        <path d="M 776.646 25 L 776.646 35" />
        <path d="M 787.152 25 L 787.152 35" />
        <path d="M 797.658 25 L 797.658 35" />
        <path d="M 808.165 25 L 808.165 35" />
        <path d="M 818.671 25 L 818.671 35" />
        <path d="M 829.177 25 L 829.177 35" />
        <path d="M 839.684 25 L 839.684 35" />
        <path d="M 850.19 25 L 850.19 35" />
        <path d="M 860.696 25 L 860.696 45" />
        <path d="M 871.203 25 L 871.203 35" />
        <path d="M 881.709 25 L 881.709 35" />
        <path d="M 892.215 25 L 892.215 35" />
        <path d="M 902.722 25 L 902.722 35" />
        <path d="M 913.228 25 L 913.228 35" />
        <path d="M 923.734 25 L 923.734 35" />
        <path d="M 934.241 25 L 934.241 35" />
        <path d="M 944.747 25 L 944.747 35" />
    </g>
    <g id="frame_0_rightticks">
        <path d="M 950 425 L 930 425" />
        <path d="M 950 222.98 L 940 222.98" />
        <path d="M 950 316.22 L 940 316.22" />
        <path d="M 950 114.2 L 930 114.2" />
        <path d="M 950 409.46 L 940 409.46" />
        <path d="M 950 207.44 L 940 207.44" />
        <path d="M 950 300.68 L 940 300.68" />
        <path d="M 950 98.6597 L 940 98.6597" />
        <path d="M 950 393.92 L 940 393.92" />
        <path d="M 950 191.9 L 930 191.9" />
        <path d="M 950 285.14 L 940 285.14" />
        <path d="M 950 83.1197 L 940 83.1197" />
        <path d="M 950 378.38 L 940 378.38" />
        <path d="M 950 176.36 L 940 176.36" />
        <path d="M 950 269.6 L 930 269.6" />
        <path d="M 950 67.5796 L 940 67.5796" />
        <path d="M 950 362.84 L 940 362.84" />
        <path d="M 950 160.82 L 940 160.82" />
        <path d="M 950 254.06 L 940 254.06" />
        <path d="M 950 52.0396 L 940 52.0396" />
        <path d="M 950 347.3 L 930 347.3" />
        <path d="M 950 145.28 L 940 145.28" />
        <path d="M 950 238.52 L 940 238.52" />
        <path d="M 950 36.4996 L 930 36.4996" />
        <path d="M 950 331.76 L 940 331.76" />
        <path d="M 950 129.74 L 940 129.74" />
    </g>
</g>
</g>
</svg>
