<?xml version="1.0" standalone="no"?>
<!DOCTYPE svg PUBLIC "-//W3C//DTD SVG 1.1//EN" "http://www.w3.org/Graphics/SVG/1.1/DTD/svg11.dtd">
<svg style="stroke-linejoin:miter; stroke:black; stroke-width:2.5; text-anchor:middle; fill:none" xmlns="http://www.w3.org/2000/svg" font-family="Helvetica, Arial, FreeSans, Sans, sans, sans-serif" width="1000px" height="1000px" version="1.1" xmlns:xlink="http://www.w3.org/1999/xlink" viewBox="0 0 1000 1000">
<defs>
    <clipPath id="Histogram_0_clip">
        <rect x="120" y="50" width="830" height="870" />
    </clipPath>
</defs>
<g id="whole_document">
<rect id="background" x="0" y="0" width="1000" height="1000" stroke="none" fill="white" />
<g id="Histogram_0" clip-path="url(#Histogram_0_clip)">
    <path d="M 120 920 L 120 920 L 121.454 920 L 121.454 920 L 122.907 920 L 122.907 920 L 124.361 920 L 124.361 920 L 125.814 920 L 125.814 920 L 127.268 920 L 127.268 920 L 128.722 920 L 128.722 920 L 130.175 920 L 130.175 920 L 131.629 920 L 131.629 920 L 133.082 920 L 133.082 920 L 134.536 920 L 134.536 920 L 135.989 920 L 135.989 920 L 137.443 920 L 137.443 920 L 138.897 920 L 138.897 920 L 140.35 920 L 140.35 920 L 141.804 920 L 141.804 920 L 143.257 920 L 143.257 920 L 144.711 920 L 144.711 920 L 146.165 920 L 146.165 920 L 147.618 920 L 147.618 920 L 149.072 920 L 149.072 920 L 150.525 920 L 150.525 920 L 151.979 920 L 151.979 920 L 153.433 920 L 153.433 920 L 154.886 920 L 154.886 920 L 156.34 920 L 156.34 920 L 157.793 920 L 157.793 920 L 159.247 920 L 159.247 920 L 160.701 920 L 160.701 920 L 162.154 920 L 162.154 920 L 163.608 920 L 163.608 920 L 165.061 920 L 165.061 920 L 166.515 920 L 166.515 920 L 167.968 920 L 167.968 920 L 169.422 920 L 169.422 920 L 170.876 920 L 170.876 920 L 172.329 920 L 172.329 920 L 173.783 920 L 173.783 920 L 175.236 920 L 175.236 920 L 176.69 920 L 176.69 920 L 178.144 920 L 178.144 920 L 179.597 920 L 179.597 920 L 181.051 920 L 181.051 920 L 182.504 920 L 182.504 920 L 183.958 920 L 183.958 920 L 185.412 920 L 185.412 920 L 186.865 920 L 186.865 920 L 188.319 920 L 188.319 920 L 189.772 920 L 189.772 920 L 191.226 920 L 191.226 920 L 192.68 920 L 192.68 920 L 194.133 920 L 194.133 920 L 195.587 920 L 195.587 920 L 197.04 920 L 197.04 920 L 198.494 920 L 198.494 920 L 199.947 920 L 199.947 920 L 201.401 920 L 201.401 920 L 202.855 920 L 202.855 920 L 204.308 920 L 204.308 920 L 205.762 920 L 205.762 920 L 207.215 920 L 207.215 920 L 208.669 920 L 208.669 920 L 210.123 920 L 210.123 920 L 211.576 920 L 211.576 920 L 213.03 920 L 213.03 920 L 214.483 920 L 214.483 920 L 215.937 920 L 215.937 920 L 217.391 920 L 217.391 920 L 218.844 920 L 218.844 920 L 220.298 920 L 220.298 920 L 221.751 920 L 221.751 920 L 223.205 920 L 223.205 920 L 224.658 920 L 224.658 920 L 226.112 920 L 226.112 920 L 227.566 920 L 227.566 920 L 229.019 920 L 229.019 920 L 230.473 920 L 230.473 920 L 231.926 920 L 231.926 920 L 233.38 920 L 233.38 920 L 234.834 920 L 234.834 920 L 236.287 920 L 236.287 920 L 237.741 920 L 237.741 920 L 239.194 920 L 239.194 920 L 240.648 920 L 240.648 920 L 242.102 920 L 242.102 920 L 243.555 920 L 243.555 920 L 245.009 920 L 245.009 920 L 246.462 920 L 246.462 920 L 247.916 920 L 247.916 920 L 249.37 920 L 249.37 920 L 250.823 920 L 250.823 920 L 252.277 920 L 252.277 920 L 253.73 920 L 253.73 920 L 255.184 920 L 255.184 920 L 256.637 920 L 256.637 920 L 258.091 920 L 258.091 920 L 259.545 920 L 259.545 920 L 260.998 920 L 260.998 920 L 262.452 920 L 262.452 920 L 263.905 920 L 263.905 920 L 265.359 920 L 265.359 920 L 266.813 920 L 266.813 920 L 268.266 920 L 268.266 920 L 269.72 920 L 269.72 920 L 271.173 920 L 271.173 920 L 272.627 920 L 272.627 920 L 274.081 920 L 274.081 920 L 275.534 920 L 275.534 920 L 276.988 920 L 276.988 920 L 278.441 920 L 278.441 920 L 279.895 920 L 279.895 920 L 281.349 920 L 281.349 920 L 282.802 920 L 282.802 920 L 284.256 920 L 284.256 920 L 285.709 920 L 285.709 920 L 287.163 920 L 287.163 920 L 288.616 920 L 288.616 920 L 290.07 920 L 290.07 920 L 291.524 920 L 291.524 920 L 292.977 920 L 292.977 920 L 294.431 920 L 294.431 920 L 295.884 920 L 295.884 920 L 297.338 920 L 297.338 920 L 298.792 920 L 298.792 920 L 300.245 920 L 300.245 920 L 301.699 920 L 301.699 920 L 303.152 920 L 303.152 920 L 304.606 920 L 304.606 920 L 306.06 920 L 306.06 920 L 307.513 920 L 307.513 920 L 308.967 920 L 308.967 920 L 310.42 920 L 310.42 920 L 311.874 920 L 311.874 920 L 313.327 920 L 313.327 920 L 314.781 920 L 314.781 920 L 316.235 920 L 316.235 920 L 317.688 920 L 317.688 920 L 319.142 920 L 319.142 920 L 320.595 920 L 320.595 920 L 322.049 920 L 322.049 920 L 323.503 920 L 323.503 920 L 324.956 920 L 324.956 920 L 326.41 920 L 326.41 920 L 327.863 920 L 327.863 920 L 329.317 920 L 329.317 920 L 330.771 920 L 330.771 920 L 332.224 920 L 332.224 920 L 333.678 920 L 333.678 920 L 335.131 920 L 335.131 920 L 336.585 920 L 336.585 920 L 338.039 920 L 338.039 920 L 339.492 920 L 339.492 920 L 340.946 920 L 340.946 920 L 342.399 920 L 342.399 920 L 343.853 920 L 343.853 920 L 345.306 920 L 345.306 920 L 346.76 920 L 346.76 920 L 348.214 920 L 348.214 920 L 349.667 920 L 349.667 920 L 351.121 920 L 351.121 920 L 352.574 920 L 352.574 920 L 354.028 920 L 354.028 920 L 355.482 920 L 355.482 920 L 356.935 920 L 356.935 920 L 358.389 920 L 358.389 920 L 359.842 920 L 359.842 920 L 361.296 920 L 361.296 920 L 362.75 920 L 362.75 920 L 364.203 920 L 364.203 920 L 365.657 920 L 365.657 920 L 367.11 920 L 367.11 920 L 368.564 920 L 368.564 920 L 370.018 920 L 370.018 920 L 371.471 920 L 371.471 920 L 372.925 920 L 372.925 920 L 374.378 920 L 374.378 920 L 375.832 920 L 375.832 920 L 377.285 920 L 377.285 920 L 378.739 920 L 378.739 920 L 380.193 920 L 380.193 920 L 381.646 920 L 381.646 920 L 383.1 920 L 383.1 920 L 384.553 920 L 384.553 920 L 386.007 920 L 386.007 920 L 387.461 920 L 387.461 920 L 388.914 920 L 388.914 920 L 390.368 920 L 390.368 920 L 391.821 920 L 391.821 920 L 393.275 920 L 393.275 920 L 394.729 920 L 394.729 920 L 396.182 920 L 396.182 920 L 397.636 920 L 397.636 920 L 399.089 920 L 399.089 920 L 400.543 920 L 400.543 920 L 401.996 920 L 401.996 920 L 403.45 920 L 403.45 920 L 404.904 920 L 404.904 920 L 406.357 920 L 406.357 920 L 407.811 920 L 407.811 920 L 409.264 920 L 409.264 920 L 410.718 920 L 410.718 920 L 412.172 920 L 412.172 920 L 413.625 920 L 413.625 920 L 415.079 920 L 415.079 920 L 416.532 920 L 416.532 920 L 417.986 920 L 417.986 920 L 419.44 920 L 419.44 920 L 420.893 920 L 420.893 920 L 422.347 920 L 422.347 920 L 423.8 920 L 423.8 920 L 425.254 920 L 425.254 920 L 426.708 920 L 426.708 920 L 428.161 920 L 428.161 920 L 429.615 920 L 429.615 920 L 431.068 920 L 431.068 920 L 432.522 920 L 432.522 920 L 433.975 920 L 433.975 920 L 435.429 920 L 435.429 920 L 436.883 920 L 436.883 920 L 438.336 920 L 438.336 920 L 439.79 920 L 439.79 920 L 441.243 920 L 441.243 920 L 442.697 920 L 442.697 920 L 444.151 920 L 444.151 920 L 445.604 920 L 445.604 920 L 447.058 920 L 447.058 920 L 448.511 920 L 448.511 920 L 449.965 920 L 449.965 920 L 451.419 920 L 451.419 920 L 452.872 920 L 452.872 920 L 454.326 920 L 454.326 920 L 455.779 920 L 455.779 920 L 457.233 920 L 457.233 920 L 458.687 920 L 458.687 920 L 460.14 920 L 460.14 920 L 461.594 920 L 461.594 920 L 463.047 920 L 463.047 920 L 464.501 920 L 464.501 920 L 465.954 920 L 465.954 920 L 467.408 920 L 467.408 920 L 468.862 920 L 468.862 920 L 470.315 920 L 470.315 920 L 471.769 920 L 471.769 920 L 473.222 920 L 473.222 920 L 474.676 920 L 474.676 920 L 476.13 920 L 476.13 920 L 477.583 920 L 477.583 920 L 479.037 920 L 479.037 920 L 480.49 920 L 480.49 920 L 481.944 920 L 481.944 920 L 483.398 920 L 483.398 920 L 484.851 920 L 484.851 920 L 486.305 920 L 486.305 920 L 487.758 920 L 487.758 920 L 489.212 920 L 489.212 920 L 490.665 920 L 490.665 920 L 492.119 920 L 492.119 920 L 493.573 920 L 493.573 920 L 495.026 920 L 495.026 920 L 496.48 920 L 496.48 920 L 497.933 920 L 497.933 920 L 499.387 920 L 499.387 920 L 500.841 920 L 500.841 920 L 502.294 920 L 502.294 920 L 503.748 920 L 503.748 920 L 505.201 920 L 505.201 920 L 506.655 920 L 506.655 920 L 508.109 920 L 508.109 920 L 509.562 920 L 509.562 920 L 511.016 920 L 511.016 920 L 512.469 920 L 512.469 920 L 513.923 920 L 513.923 920 L 515.377 920 L 515.377 920 L 516.83 920 L 516.83 920 L 518.284 920 L 518.284 920 L 519.737 920 L 519.737 920 L 521.191 920 L 521.191 920 L 522.644 920 L 522.644 920 L 524.098 920 L 524.098 920 L 525.552 920 L 525.552 920 L 527.005 920 L 527.005 920 L 528.459 920 L 528.459 920 L 529.912 920 L 529.912 920 L 531.366 920 L 531.366 920 L 532.82 920 L 532.82 920 L 534.273 920 L 534.273 920 L 535.727 920 L 535.727 920 L 537.18 920 L 537.18 920 L 538.634 920 L 538.634 920 L 540.088 920 L 540.088 920 L 541.541 920 L 541.541 920 L 542.995 920 L 542.995 920 L 544.448 920 L 544.448 920 L 545.902 920 L 545.902 920 L 547.356 920 L 547.356 920 L 548.809 920 L 548.809 920 L 550.263 920 L 550.263 920 L 551.716 920 L 551.716 920 L 553.17 920 L 553.17 920 L 554.623 920 L 554.623 920 L 556.077 920 L 556.077 920 L 557.531 920 L 557.531 920 L 558.984 920 L 558.984 920 L 560.438 920 L 560.438 920 L 561.891 920 L 561.891 920 L 563.345 920 L 563.345 920 L 564.799 920 L 564.799 920 L 566.252 920 L 566.252 920 L 567.706 920 L 567.706 920 L 569.159 920 L 569.159 920 L 570.613 920 L 570.613 920 L 572.067 920 L 572.067 920 L 573.52 920 L 573.52 920 L 574.974 920 L 574.974 920 L 576.427 920 L 576.427 920 L 577.881 920 L 577.881 920 L 579.335 920 L 579.335 920 L 580.788 920 L 580.788 920 L 582.242 920 L 582.242 920 L 583.695 920 L 583.695 920 L 585.149 920 L 585.149 920 L 586.602 920 L 586.602 920 L 588.056 920 L 588.056 920 L 589.51 920 L 589.51 920 L 590.963 920 L 590.963 920 L 592.417 920 L 592.417 920 L 593.87 920 L 593.87 920 L 595.324 920 L 595.324 920 L 596.778 920 L 596.778 920 L 598.231 920 L 598.231 920 L 599.685 920 L 599.685 920 L 601.138 920 L 601.138 920 L 602.592 920 L 602.592 920 L 604.046 920 L 604.046 920 L 605.499 920 L 605.499 920 L 606.953 920 L 606.953 920 L 608.406 920 L 608.406 920 L 609.86 920 L 609.86 920 L 611.313 920 L 611.313 920 L 612.767 920 L 612.767 920 L 614.221 920 L 614.221 883.214 L 615.674 883.214 L 615.674 846.427 L 617.128 846.427 L 617.128 772.854 L 618.581 772.854 L 618.581 552.135 L 620.035 552.135 L 620.035 129.091 L 621.489 129.091 L 621.489 129.091 L 622.942 129.091 L 622.942 294.63 L 624.396 294.63 L 624.396 441.776 L 625.849 441.776 L 625.849 607.315 L 627.303 607.315 L 627.303 662.495 L 628.757 662.495 L 628.757 846.427 L 630.21 846.427 L 630.21 846.427 L 631.664 846.427 L 631.664 828.034 L 633.117 828.034 L 633.117 883.214 L 634.571 883.214 L 634.571 901.607 L 636.025 901.607 L 636.025 920 L 637.478 920 L 637.478 901.607 L 638.932 901.607 L 638.932 901.607 L 640.385 901.607 L 640.385 920 L 641.839 920 L 641.839 920 L 643.292 920 L 643.292 920 L 644.746 920 L 644.746 901.607 L 646.2 901.607 L 646.2 920 L 647.653 920 L 647.653 920 L 649.107 920 L 649.107 920 L 650.56 920 L 650.56 920 L 652.014 920 L 652.014 920 L 653.468 920 L 653.468 920 L 654.921 920 L 654.921 901.607 L 656.375 901.607 L 656.375 920 L 657.828 920 L 657.828 920 L 659.282 920 L 659.282 920 L 660.736 920 L 660.736 920 L 662.189 920 L 662.189 920 L 663.643 920 L 663.643 920 L 665.096 920 L 665.096 920 L 666.55 920 L 666.55 920 L 668.004 920 L 668.004 920 L 669.457 920 L 669.457 920 L 670.911 920 L 670.911 920 L 672.364 920 L 672.364 920 L 673.818 920 L 673.818 901.607 L 675.271 901.607 L 675.271 920 L 676.725 920 L 676.725 920 L 678.179 920 L 678.179 920 L 679.632 920 L 679.632 920 L 681.086 920 L 681.086 920 L 682.539 920 L 682.539 920 L 683.993 920 L 683.993 920 L 685.447 920 L 685.447 920 L 686.9 920 L 686.9 901.607 L 688.354 901.607 L 688.354 920 L 689.807 920 L 689.807 920 L 691.261 920 L 691.261 920 L 692.715 920 L 692.715 920 L 694.168 920 L 694.168 920 L 695.622 920 L 695.622 920 L 697.075 920 L 697.075 920 L 698.529 920 L 698.529 920 L 699.982 920 L 699.982 920 L 701.436 920 L 701.436 920 L 702.89 920 L 702.89 920 L 704.343 920 L 704.343 920 L 705.797 920 L 705.797 920 L 707.25 920 L 707.25 920 L 708.704 920 L 708.704 920 L 710.158 920 L 710.158 920 L 711.611 920 L 711.611 920 L 713.065 920 L 713.065 920 L 714.518 920 L 714.518 920 L 715.972 920 L 715.972 920 L 717.426 920 L 717.426 920 L 718.879 920 L 718.879 920 L 720.333 920 L 720.333 920 L 721.786 920 L 721.786 920 L 723.24 920 L 723.24 920 L 724.694 920 L 724.694 920 L 726.147 920 L 726.147 920 L 727.601 920 L 727.601 920 L 729.054 920 L 729.054 920 L 730.508 920 L 730.508 920 L 731.961 920 L 731.961 920 L 733.415 920 L 733.415 920 L 734.869 920 L 734.869 920 L 736.322 920 L 736.322 920 L 737.776 920 L 737.776 920 L 739.229 920 L 739.229 920 L 740.683 920 L 740.683 920 L 742.137 920 L 742.137 920 L 743.59 920 L 743.59 920 L 745.044 920 L 745.044 920 L 746.497 920 L 746.497 920 L 747.951 920 L 747.951 920 L 749.405 920 L 749.405 920 L 750.858 920 L 750.858 920 L 752.312 920 L 752.312 920 L 753.765 920 L 753.765 920 L 755.219 920 L 755.219 920 L 756.673 920 L 756.673 920 L 758.126 920 L 758.126 920 L 759.58 920 L 759.58 920 L 761.033 920 L 761.033 920 L 762.487 920 L 762.487 920 L 763.94 920 L 763.94 920 L 765.394 920 L 765.394 920 L 766.848 920 L 766.848 920 L 768.301 920 L 768.301 920 L 769.755 920 L 769.755 920 L 771.208 920 L 771.208 920 L 772.662 920 L 772.662 920 L 774.116 920 L 774.116 920 L 775.569 920 L 775.569 920 L 777.023 920 L 777.023 920 L 778.476 920 L 778.476 920 L 779.93 920 L 779.93 920 L 781.384 920 L 781.384 920 L 782.837 920 L 782.837 920 L 784.291 920 L 784.291 920 L 785.744 920 L 785.744 920 L 787.198 920 L 787.198 920 L 788.651 920 L 788.651 920 L 790.105 920 L 790.105 920 L 791.559 920 L 791.559 920 L 793.012 920 L 793.012 920 L 794.466 920 L 794.466 920 L 795.919 920 L 795.919 920 L 797.373 920 L 797.373 920 L 798.827 920 L 798.827 920 L 800.28 920 L 800.28 920 L 801.734 920 L 801.734 920 L 803.187 920 L 803.187 920 L 804.641 920 L 804.641 920 L 806.095 920 L 806.095 920 L 807.548 920 L 807.548 920 L 809.002 920 L 809.002 920 L 810.455 920 L 810.455 920 L 811.909 920 L 811.909 920 L 813.363 920 L 813.363 920 L 814.816 920 L 814.816 920 L 816.27 920 L 816.27 920 L 817.723 920 L 817.723 920 L 819.177 920 L 819.177 920 L 820.63 920 L 820.63 920 L 822.084 920 L 822.084 920 L 823.538 920 L 823.538 920 L 824.991 920 L 824.991 920 L 826.445 920 L 826.445 920 L 827.898 920 L 827.898 920 L 829.352 920 L 829.352 920 L 830.806 920 L 830.806 920 L 832.259 920 L 832.259 920 L 833.713 920 L 833.713 920 L 835.166 920 L 835.166 920 L 836.62 920 L 836.62 920 L 838.074 920 L 838.074 920 L 839.527 920 L 839.527 920 L 840.981 920 L 840.981 920 L 842.434 920 L 842.434 920 L 843.888 920 L 843.888 920 L 845.342 920 L 845.342 920 L 846.795 920 L 846.795 920 L 848.249 920 L 848.249 920 L 849.702 920 L 849.702 920 L 851.156 920 L 851.156 920 L 852.609 920 L 852.609 920 L 854.063 920 L 854.063 920 L 855.517 920 L 855.517 920 L 856.97 920 L 856.97 920 L 858.424 920 L 858.424 920 L 859.877 920 L 859.877 920 L 861.331 920 L 861.331 920 L 862.785 920 L 862.785 920 L 864.238 920 L 864.238 920 L 865.692 920 L 865.692 920 L 867.145 920 L 867.145 920 L 868.599 920 L 868.599 920 L 870.053 920 L 870.053 920 L 871.506 920 L 871.506 920 L 872.96 920 L 872.96 920 L 874.413 920 L 874.413 920 L 875.867 920 L 875.867 920 L 877.32 920 L 877.32 920 L 878.774 920 L 878.774 920 L 880.228 920 L 880.228 920 L 881.681 920 L 881.681 920 L 883.135 920 L 883.135 920 L 884.588 920 L 884.588 920 L 886.042 920 L 886.042 920 L 887.496 920 L 887.496 920 L 888.949 920 L 888.949 920 L 890.403 920 L 890.403 920 L 891.856 920 L 891.856 920 L 893.31 920 L 893.31 920 L 894.764 920 L 894.764 920 L 896.217 920 L 896.217 920 L 897.671 920 L 897.671 920 L 899.124 920 L 899.124 920 L 900.578 920 L 900.578 920 L 902.032 920 L 902.032 920 L 903.485 920 L 903.485 920 L 904.939 920 L 904.939 920 L 906.392 920 L 906.392 920 L 907.846 920 L 907.846 920 L 909.299 920 L 909.299 920 L 910.753 920 L 910.753 920 L 912.207 920 L 912.207 920 L 913.66 920 L 913.66 920 L 915.114 920 L 915.114 920 L 916.567 920 L 916.567 920 L 918.021 920 L 918.021 920 L 919.475 920 L 919.475 920 L 920.928 920 L 920.928 920 L 922.382 920 L 922.382 920 L 923.835 920 L 923.835 920 L 925.289 920 L 925.289 920 L 926.743 920 L 926.743 920 L 928.196 920 L 928.196 920 L 929.65 920 L 929.65 920 L 931.103 920 L 931.103 920 L 932.557 920 L 932.557 920 L 934.011 920 L 934.011 920 L 935.464 920 L 935.464 920 L 936.918 920 L 936.918 920 L 938.371 920 L 938.371 920 L 939.825 920 L 939.825 920 L 941.278 920 L 941.278 920 L 942.732 920 L 942.732 920 L 944.186 920 L 944.186 920 L 945.639 920 L 945.639 920 L 947.093 920 L 947.093 920 L 948.546 920 L 948.546 920 L 950 920 L 950 920" stroke-width="3" stroke-dasharray="" stroke="black" stroke-opacity="1" fill="none" fill-opacity="1" />
</g>
<g id="frame_0">
    <rect id="frame_0_border" x="120" y="50" width="830" height="870" />
    <text id="frame_0_bottomlabel" font-size="30" transform="translate(535, 989.6)" text-anchor="middle" dominant-baseline="middle" stroke="none" fill="black">speed</text>
    <g id="frame_0_bottomticks">
        <path d="M 120 920 L 120 900" />
        <text font-size="30" transform="translate(120, 950)" text-anchor="middle" dominant-baseline="middle" stroke="none" fill="black">0</text>
        <path d="M 950 920 L 950 900" />
        <text font-size="30" transform="translate(950, 950)" text-anchor="middle" dominant-baseline="middle" stroke="none" fill="black">100</text>
        <path d="M 701 920 L 701 910" />
        <path d="M 452 920 L 452 900" />
        <text font-size="30" transform="translate(452, 950)" text-anchor="middle" dominant-baseline="middle" stroke="none" fill="black">40</text>
        <path d="M 203 920 L 203 910" />
        <path d="M 784 920 L 784 900" />
        <text font-size="30" transform="translate(784, 950)" text-anchor="middle" dominant-baseline="middle" stroke="none" fill="black">80</text>
        <path d="M 535 920 L 535 910" />
        <path d="M 286 920 L 286 900" />
        <text font-size="30" transform="translate(286, 950)" text-anchor="middle" dominant-baseline="middle" stroke="none" fill="black">20</text>
        <path d="M 867 920 L 867 910" />
        <path d="M 618 920 L 618 900" />
        <text font-size="30" transform="translate(618, 950)" text-anchor="middle" dominant-baseline="middle" stroke="none" fill="black">60</text>
        <path d="M 369 920 L 369 910" />
    </g>
    <g id="frame_0_leftticks">
        <path d="M 120 920 L 140 920" />
        <text font-size="30" transform="translate(110, 930)" text-anchor="end" dominant-baseline="middle" stroke="none" fill="black">0</text>
        <path d="M 120 901.607 L 130 901.607" />
        <path d="M 120 883.214 L 130 883.214" />
        <path d="M 120 864.82 L 130 864.82" />
        <path d="M 120 846.427 L 130 846.427" />
        <path d="M 120 828.034 L 130 828.034" />
        <path d="M 120 809.641 L 130 809.641" />
        <path d="M 120 791.247 L 130 791.247" />
        <path d="M 120 772.854 L 130 772.854" />
        <path d="M 120 754.461 L 130 754.461" />
        <path d="M 120 736.068 L 140 736.068" />
        <text font-size="30" transform="translate(110, 746.068)" text-anchor="end" dominant-baseline="middle" stroke="none" fill="black">10</text>
        <path d="M 120 717.674 L 130 717.674" />
        <path d="M 120 699.281 L 130 699.281" />
        <path d="M 120 680.888 L 130 680.888" />
        <path d="M 120 662.495 L 130 662.495" />
        <path d="M 120 644.101 L 130 644.101" />
        <path d="M 120 625.708 L 130 625.708" />
        <path d="M 120 607.315 L 130 607.315" />
        <path d="M 120 588.922 L 130 588.922" />
        <path d="M 120 570.529 L 130 570.529" />
        <path d="M 120 552.135 L 140 552.135" />
        <text font-size="30" transform="translate(110, 562.135)" text-anchor="end" dominant-baseline="middle" stroke="none" fill="black">20</text>
        <path d="M 120 533.742 L 130 533.742" />
        <path d="M 120 515.349 L 130 515.349" />
        <path d="M 120 496.956 L 130 496.956" />
        <path d="M 120 478.562 L 130 478.562" />
        <path d="M 120 460.169 L 130 460.169" />
        <path d="M 120 441.776 L 130 441.776" />
        <path d="M 120 423.383 L 130 423.383" />
        <path d="M 120 404.989 L 130 404.989" />
        <path d="M 120 386.596 L 130 386.596" />
        <path d="M 120 368.203 L 140 368.203" />
        <text font-size="30" transform="translate(110, 378.203)" text-anchor="end" dominant-baseline="middle" stroke="none" fill="black">30</text>
        <path d="M 120 349.81 L 130 349.81" />
        <path d="M 120 331.416 L 130 331.416" />
        <path d="M 120 313.023 L 130 313.023" />
        <path d="M 120 294.63 L 130 294.63" />
        <path d="M 120 276.237 L 130 276.237" />
        <path d="M 120 257.844 L 130 257.844" />
        <path d="M 120 239.45 L 130 239.45" />
        <path d="M 120 221.057 L 130 221.057" />
        <path d="M 120 202.664 L 130 202.664" />
        <path d="M 120 184.271 L 140 184.271" />
        <text font-size="30" transform="translate(110, 194.271)" text-anchor="end" dominant-baseline="middle" stroke="none" fill="black">40</text>
        <path d="M 120 165.877 L 130 165.877" />
        <path d="M 120 147.484 L 130 147.484" />
        <path d="M 120 129.091 L 130 129.091" />
        <path d="M 120 110.698 L 130 110.698" />
        <path d="M 120 92.3044 L 130 92.3044" />
        <path d="M 120 73.9112 L 130 73.9112" />
        <path d="M 120 55.518 L 130 55.518" />
    </g>
    <g id="frame_0_topticks">
        <path d="M 120 50 L 120 70" />
        <path d="M 950 50 L 950 70" />
        <path d="M 701 50 L 701 60" />
        <path d="M 452 50 L 452 70" />
        <path d="M 203 50 L 203 60" />
        <path d="M 784 50 L 784 70" />
        <path d="M 535 50 L 535 60" />
        <path d="M 286 50 L 286 70" />
        <path d="M 867 50 L 867 60" />
        <path d="M 618 50 L 618 70" />
        <path d="M 369 50 L 369 60" />
    </g>
    <g id="frame_0_rightticks">
        <path d="M 950 920 L 930 920" />
        <path d="M 950 901.607 L 940 901.607" />
        <path d="M 950 883.214 L 940 883.214" />
        <path d="M 950 864.82 L 940 864.82" />
        <path d="M 950 846.427 L 940 846.427" />
        <path d="M 950 828.034 L 940 828.034" />
        <path d="M 950 809.641 L 940 809.641" />
        <path d="M 950 791.247 L 940 791.247" />
        <path d="M 950 772.854 L 940 772.854" />
        <path d="M 950 754.461 L 940 754.461" />
        <path d="M 950 736.068 L 930 736.068" />
        <path d="M 950 717.674 L 940 717.674" />
        <path d="M 950 699.281 L 940 699.281" />
        <path d="M 950 680.888 L 940 680.888" />
        <path d="M 950 662.495 L 940 662.495" />
        <path d="M 950 644.101 L 940 644.101" />
        <path d="M 950 625.708 L 940 625.708" />
        <path d="M 950 607.315 L 940 607.315" />
        <path d="M 950 588.922 L 940 588.922" />
        <path d="M 950 570.529 L 940 570.529" />
        <path d="M 950 552.135 L 930 552.135" />
        <path d="M 950 533.742 L 940 533.742" />
        <path d="M 950 515.349 L 940 515.349" />
        <path d="M 950 496.956 L 940 496.956" />
        <path d="M 950 478.562 L 940 478.562" />
        <path d="M 950 460.169 L 940 460.169" />
        <path d="M 950 441.776 L 940 441.776" />
        <path d="M 950 423.383 L 940 423.383" />
        <path d="M 950 404.989 L 940 404.989" />
        <path d="M 950 386.596 L 940 386.596" />
        <path d="M 950 368.203 L 930 368.203" />
        <path d="M 950 349.81 L 940 349.81" />
        <path d="M 950 331.416 L 940 331.416" />
        <path d="M 950 313.023 L 940 313.023" />
        <path d="M 950 294.63 L 940 294.63" />
        <path d="M 950 276.237 L 940 276.237" />
        <path d="M 950 257.844 L 940 257.844" />
        <path d="M 950 239.45 L 940 239.45" />
        <path d="M 950 221.057 L 940 221.057" />
        <path d="M 950 202.664 L 940 202.664" />
        <path d="M 950 184.271 L 930 184.271" />
        <path d="M 950 165.877 L 940 165.877" />
        <path d="M 950 147.484 L 940 147.484" />
        <path d="M 950 129.091 L 940 129.091" />
        <path d="M 950 110.698 L 940 110.698" />
        <path d="M 950 92.3044 L 940 92.3044" />
        <path d="M 950 73.9112 L 940 73.9112" />
        <path d="M 950 55.518 L 940 55.518" />
    </g>
</g>
</g>
</svg>
