<?xml version="1.0" standalone="no"?>
<!DOCTYPE svg PUBLIC "-//W3C//DTD SVG 1.1//EN" "http://www.w3.org/Graphics/SVG/1.1/DTD/svg11.dtd">
<svg style="stroke-linejoin:miter; stroke:black; stroke-width:2.5; text-anchor:middle; fill:none" xmlns="http://www.w3.org/2000/svg" font-family="Helvetica, Arial, FreeSans, Sans, sans, sans-serif" width="1000px" height="1000px" version="1.1" xmlns:xlink="http://www.w3.org/1999/xlink" viewBox="0 0 1000 1000">
<defs>
    <clipPath id="TimeSeries_0_clip">
        <rect x="120" y="25" width="830" height="375" />
    </clipPath>
    <clipPath id="TimeSeries_1_clip">
        <rect x="120" y="525" width="830" height="375" />
    </clipPath>
</defs>
<g id="whole_document">
<rect id="background" x="0" y="0" width="1000" height="1000" stroke="none" fill="white" />
<g id="TimeSeries_0" clip-path="url(#TimeSeries_0_clip)">
    <path d="M 189.167 357.25 L 189.167 371.5 L 189.167 358 L 189.167 363.625 L 189.167 382.375 L 189.167 375.25 L 191.594 382 L 191.594 364.75 L 191.594 334.75 L 191.594 372.25 L 191.594 367.375 L 191.594 389.875 L 191.594 360.25 L 191.594 366.25 L 191.594 340.375 L 194.02 355 L 194.02 325.75 L 194.02 383.125 L 194.02 361 L 194.02 364 L 198.874 199 L 198.874 377.5 L 201.301 346 L 201.301 364.75 L 201.301 382 L 201.301 377.125 L 201.301 371.875 L 206.155 381.625 L 206.155 382.375 L 206.155 382 L 206.155 374.5 L 206.155 366.25 L 208.582 340 L 208.582 364 L 208.582 371.875 L 208.582 387.625 L 208.582 395.125 L 213.436 393.25 L 213.436 356.5 L 213.436 385.75 L 215.863 385 L 215.863 396.25 L 215.863 380.875 L 218.289 313 L 218.289 322 L 220.716 366.25 L 220.716 363.625 L 220.716 389.875 L 220.716 397 L 220.716 353.875 L 223.143 341.5 L 223.143 376.375 L 227.997 359.5 L 227.997 385.375 L 227.997 365.5 L 227.997 389.875 L 227.997 384.25 L 230.424 387.625 L 230.424 377.5 L 230.424 390.625 L 230.424 363.25 L 230.424 371.875 L 230.424 386.5 L 230.424 382.375 L 232.851 390.25 L 232.851 392.125 L 235.278 379 L 235.278 385.375 L 235.278 394 L 237.705 385 L 237.705 398.875 L 237.705 384.25 L 240.132 387.25 L 240.132 385.375 L 240.132 382.375 L 240.132 356.5 L 240.132 381.25 L 240.132 375.25 L 240.132 376.375 L 247.412 388.75 L 247.412 393.25 L 249.839 362.875 L 249.839 368.5 L 249.839 352.375 L 252.266 373 L 252.266 365.5 L 254.693 379.75 L 254.693 377.5 L 254.693 367 L 254.693 386.5 L 259.547 384.25 L 259.547 376.75 L 259.547 392.125 L 259.547 382 L 259.547 387.625 L 261.974 389.875 L 261.974 388.75 L 264.401 371.875 L 264.401 382 L 264.401 379.75 L 264.401 380.875 L 264.401 353.875 L 266.827 384.25 L 266.827 394 L 266.827 385 L 266.827 349.75 L 266.827 381.625 L 266.827 376.375 L 271.681 361.75 L 271.681 393.25 L 271.681 378.625 L 274.108 389.5 L 274.108 371.875 L 274.108 394 L 274.108 378.625 L 276.535 388.75 L 276.535 394.375 L 276.535 385.375 L 278.962 385.375 L 278.962 366.25 L 278.962 383.125 L 278.962 394.375 L 278.962 397 L 281.389 373.75 L 283.816 371.875 L 283.816 388.75 L 283.816 378.25 L 283.816 370.75 L 283.816 376.375 L 283.816 370.75 L 288.67 392.5 L 288.67 391 L 288.67 360.625 L 291.096 393.625 L 291.096 397 L 293.523 386.5 L 293.523 365.125 L 293.523 377.5 L 293.523 391 L 293.523 394 L 295.95 346 L 295.95 377.5 L 298.377 389.875 L 298.377 358.75 L 300.804 368.5 L 300.804 361.75 L 303.231 391 L 303.231 379.75 L 303.231 376.375 L 303.231 369.625 L 305.658 374.5 L 305.658 378.625 L 305.658 381.625 L 305.658 364 L 305.658 370.75 L 305.658 369.625 L 305.658 386.5 L 308.085 367.375 L 308.085 388.75 L 308.085 380.5 L 308.085 300.625 L 308.085 368.5 L 310.512 389.875 L 310.512 349.375 L 310.512 390.25 L 312.939 374.5 L 312.939 362.5 L 312.939 377.125 L 312.939 362.875 L 315.365 342.625 L 317.792 357.25 L 317.792 380.125 L 317.792 361 L 320.219 358.375 L 320.219 324.625 L 322.646 337 L 322.646 360.625 L 322.646 390.625 L 322.646 331.375 L 322.646 269.5 L 322.646 343 L 322.646 382 L 325.073 379 L 325.073 223.75 L 327.5 310.75 L 332.354 380.5 L 332.354 299.875 L 332.354 351.625 L 332.354 379.75 L 332.354 262.75 L 334.781 364 L 334.781 364.375 L 334.781 382 L 334.781 279.625 L 337.208 325.75 L 337.208 338.125 L 337.208 299.5 L 339.635 346 L 342.061 307 L 342.061 356.125 L 342.061 279.625 L 346.915 229 L 346.915 352 L 346.915 361.75 L 349.342 371.875 L 349.342 160.375 L 349.342 356.5 L 349.342 283 L 351.769 355.75 L 351.769 305.875 L 351.769 285.25 L 354.196 299.875 L 354.196 199.75 L 354.196 256 L 354.196 320.5 L 354.196 342.625 L 354.196 350.5 L 354.196 279.625 L 354.196 352.75 L 356.623 344.875 L 356.623 229 L 359.05 310 L 359.05 233.5 L 359.05 261.625 L 359.05 230.5 L 363.904 276.25 L 363.904 238 L 363.904 275.125 L 363.904 298 L 363.904 275.875 L 363.904 262 L 366.33 287.875 L 366.33 218.875 L 368.757 118 L 368.757 191.125 L 368.757 220 L 368.757 245.875 L 368.757 280.75 L 371.184 302.125 L 371.184 227.875 L 371.184 131.875 L 371.184 254.875 L 373.611 149.5 L 373.611 347.875 L 373.611 208 L 373.611 190 L 373.611 312.25 L 373.611 290.875 L 378.465 314.5 L 378.465 240.25 L 378.465 174.25 L 378.465 268.375 L 378.465 236.875 L 378.465 232 L 380.892 319 L 380.892 306.25 L 380.892 214.375 L 380.892 357.625 L 383.319 241.375 L 383.319 256 L 383.319 250.375 L 383.319 266.125 L 383.319 322.375 L 385.746 357.25 L 385.746 212.125 L 388.173 276.25 L 388.173 160.75 L 388.173 253.75 L 388.173 212.5 L 388.173 223.375 L 393.026 338.875 L 393.026 297.625 L 393.026 254.875 L 393.026 199.75 L 395.453 266.125 L 395.453 324.625 L 395.453 293.125 L 395.453 126.625 L 395.453 223.375 L 397.88 268 L 397.88 208.375 L 397.88 293.875 L 400.307 275.5 L 400.307 312.625 L 400.307 297.625 L 407.588 306.625 L 407.588 278.5 L 407.588 230.5 L 407.588 295 L 407.588 262.75 L 407.588 226 L 407.588 230.5 L 410.015 307.75 L 410.015 170.875 L 410.015 324.625 L 410.015 277.375 L 412.442 252.625 L 412.442 231.625 L 412.442 284.125 L 412.442 313.375 L 414.868 231.25 L 414.868 314.5 L 414.868 256 L 414.868 244.75 L 414.868 230.125 L 414.868 271.75 L 417.295 285.625 L 417.295 257.125 L 422.149 268.375 L 422.149 235.75 L 422.149 226 L 424.576 258.25 L 424.576 253.375 L 424.576 259.375 L 424.576 231.25 L 424.576 196.375 L 424.576 312.25 L 427.003 274 L 427.003 96.25 L 427.003 336.25 L 427.003 376.75 L 427.003 226 L 429.43 279.625 L 429.43 335.5 L 429.43 267.625 L 429.43 260.125 L 429.43 251.5 L 429.43 340.75 L 429.43 288.625 L 429.43 278.5 L 431.857 272.875 L 431.857 295 L 434.284 342.625 L 434.284 217.75 L 434.284 125.5 L 434.284 206.875 L 434.284 294.25 L 439.137 299.875 L 439.137 313.375 L 439.137 222.25 L 439.137 223 L 441.564 266.5 L 443.991 354.625 L 443.991 329.875 L 446.418 224.5 L 446.418 281.875 L 446.418 283 L 446.418 196 L 448.845 244 L 453.699 262 L 453.699 275.125 L 453.699 271.75 L 453.699 270.625 L 456.126 289.75 L 456.126 213.25 L 456.126 144.625 L 456.126 197.5 L 456.126 321.625 L 458.553 346 L 458.553 349 L 460.98 316.75 L 460.98 251.5 L 460.98 202 L 460.98 287.5 L 460.98 220 L 460.98 232.375 L 460.98 324.25 L 463.406 261.625 L 463.406 205.75 L 463.406 281.875 L 463.406 261.625 L 463.406 323.5 L 468.26 261.625 L 468.26 296.5 L 468.26 250.375 L 468.26 281.875 L 468.26 288.625 L 470.687 275.125 L 470.687 263.875 L 470.687 351.625 L 470.687 285.25 L 473.114 312.625 L 473.114 372.25 L 473.114 364.75 L 473.114 353.5 L 473.114 340.375 L 473.114 277.375 L 473.114 261.25 L 475.541 256.75 L 475.541 194.5 L 475.541 313 L 475.541 382 L 475.541 320.5 L 475.541 324.625 L 475.541 352.75 L 477.968 266.875 L 477.968 205.75 L 477.968 307.75 L 477.968 251.5 L 482.822 218.5 L 482.822 346.375 L 482.822 334.75 L 482.822 274 L 485.249 360.25 L 485.249 296.5 L 485.249 250.375 L 487.675 326.875 L 487.675 293.125 L 487.675 323.875 L 487.675 315.25 L 487.675 339.625 L 490.102 237.25 L 490.102 340.375 L 490.102 274 L 492.529 218.125 L 492.529 253.75 L 492.529 133.75 L 497.383 314.5 L 497.383 333.625 L 497.383 272.125 L 497.383 148 L 497.383 293.5 L 497.383 257.5 L 499.81 267.625 L 499.81 269.125 L 499.81 306.625 L 499.81 271.75 L 499.81 324.25 L 504.664 283 L 504.664 295.375 L 504.664 203.5 L 504.664 342.625 L 504.664 317.875 L 504.664 333.625 L 507.091 161.875 L 507.091 267.625 L 507.091 280 L 509.518 352.375 L 509.518 311.5 L 514.371 240.25 L 514.371 267.25 L 514.371 289.75 L 514.371 290.875 L 516.798 306.625 L 516.798 283.75 L 516.798 318.625 L 516.798 331.375 L 516.798 216.625 L 516.798 316 L 516.798 361.75 L 516.798 270.625 L 519.225 205.375 L 519.225 328 L 519.225 259.375 L 519.225 370.75 L 519.225 310 L 519.225 334.75 L 519.225 268.375 L 519.225 265 L 521.652 285.25 L 521.652 290.875 L 521.652 290.875 L 521.652 272.875 L 521.652 277.75 L 524.079 311.125 L 524.079 277.375 L 524.079 257.125 L 524.079 295.75 L 524.079 287.5 L 524.079 280.75 L 528.933 248.125 L 528.933 296.5 L 531.36 322.375 L 533.787 271.75 L 533.787 316.75 L 533.787 321.25 L 533.787 261.625 L 536.213 316 L 536.213 284.125 L 536.213 295.75 L 536.213 270.625 L 536.213 285.25 L 536.213 344.125 L 536.213 352.75 L 538.64 326.875 L 538.64 233.5 L 538.64 295 L 538.64 275.125 L 543.494 239.5 L 543.494 274.375 L 543.494 300.25 L 543.494 338.125 L 543.494 285.25 L 545.921 274 L 545.921 245.5 L 545.921 272.875 L 545.921 339.625 L 545.921 274 L 545.921 341.5 L 545.921 292 L 548.348 222.25 L 550.775 343.75 L 550.775 269.5 L 550.775 326.875 L 550.775 227.125 L 553.202 329.5 L 553.202 320.5 L 553.202 241 L 553.202 277 L 553.202 331.375 L 553.202 258.25 L 558.056 211 L 558.056 281.875 L 558.056 294.625 L 558.056 309.25 L 560.482 297.625 L 562.909 338.125 L 565.336 323.875 L 565.336 270.625 L 565.336 321.25 L 565.336 267.25 L 567.763 319 L 567.763 293.5 L 567.763 239.5 L 567.763 277.75 L 567.763 233.5 L 567.763 248.875 L 570.19 267.25 L 570.19 285.25 L 570.19 301 L 570.19 290.875 L 575.044 275.125 L 575.044 250.375 L 575.044 337 L 575.044 278.5 L 575.044 281.875 L 575.044 200.5 L 577.471 307 L 577.471 256 L 577.471 167.5 L 577.471 319 L 579.898 252.625 L 579.898 277.375 L 579.898 349.75 L 582.325 285.25 L 582.325 278.5 L 582.325 302.125 L 582.325 270.625 L 582.325 281.125 L 582.325 283 L 584.751 332.5 L 584.751 265 L 584.751 290.875 L 584.751 287.5 L 584.751 295.375 L 589.605 285.25 L 589.605 318.25 L 589.605 242.5 L 592.032 324.625 L 592.032 317.875 L 592.032 310 L 592.032 257.5 L 592.032 232 L 594.459 283 L 594.459 247 L 594.459 279.625 L 594.459 348.25 L 594.459 266.5 L 594.459 277.375 L 594.459 289.75 L 594.459 325 L 596.886 301 L 596.886 269.125 L 596.886 310 L 596.886 333.625 L 599.313 223.375 L 599.313 284.125 L 599.313 289 L 599.313 220 L 599.313 162.625 L 604.167 251.5 L 604.167 349 L 604.167 255.25 L 604.167 266.125 L 604.167 216.625 L 604.167 334.75 L 604.167 298.75 L 604.167 333.625 L 606.594 257.5 L 606.594 223 L 606.594 227.875 L 606.594 196.75 L 606.594 233.5 L 606.594 224.5 L 606.594 368.5 L 609.02 356.5 L 609.02 279.625 L 609.02 302.125 L 609.02 246.625 L 611.447 358.375 L 611.447 205 L 611.447 250.375 L 611.447 238.375 L 611.447 334.75 L 616.301 311.125 L 616.301 254.875 L 618.728 173.125 L 618.728 347.5 L 618.728 363.625 L 618.728 307 L 621.155 270.625 L 621.155 332.5 L 621.155 280 L 623.582 328.375 L 623.582 329.5 L 623.582 350.5 L 623.582 269.5 L 623.582 211.375 L 623.582 248.125 L 626.009 366.25 L 626.009 235 L 626.009 233.125 L 626.009 253.75 L 626.009 343.375 L 628.436 256 L 628.436 277.375 L 628.436 352 L 633.289 227.125 L 633.289 252.625 L 633.289 349.75 L 633.289 244.75 L 633.289 132.625 L 633.289 258.25 L 633.289 295.75 L 635.716 306.625 L 635.716 249.25 L 635.716 250.375 L 635.716 109.375 L 635.716 292 L 638.143 230.125 L 638.143 260.5 L 638.143 196.75 L 640.57 310 L 640.57 247.75 L 640.57 206.5 L 640.57 307.75 L 640.57 256 L 642.997 335.5 L 642.997 112 L 642.997 329.125 L 645.424 272.875 L 645.424 367.75 L 645.424 250.75 L 645.424 311.875 L 645.424 317.875 L 645.424 323.125 L 645.424 251.5 L 645.424 297.625 L 645.424 272.875 L 650.278 357.25 L 650.278 296.5 L 652.705 254.875 L 652.705 259.75 L 652.705 284.125 L 652.705 277 L 655.132 353.5 L 657.558 346.75 L 657.558 86.875 L 657.558 233.5 L 657.558 253.75 L 657.558 283.375 L 657.558 322.375 L 657.558 336.625 L 659.985 287.875 L 659.985 277.75 L 659.985 268.375 L 659.985 263.875 L 664.839 297.625 L 664.839 283.75 L 664.839 244.75 L 664.839 305.5 L 667.266 276.25 L 667.266 264.25 L 667.266 348.25 L 667.266 262.375 L 667.266 319 L 667.266 332.5 L 667.266 284.125 L 667.266 297.625 L 667.266 309.625 L 667.266 233.125 L 669.693 211 L 669.693 234.625 L 669.693 174.625 L 669.693 231.25 L 672.12 312.625 L 672.12 352.75 L 672.12 290.875 L 672.12 297.625 L 674.547 267.25 L 679.401 253.75 L 679.401 321.25 L 679.401 179.5 L 679.401 293.125 L 681.827 328 L 681.827 253.75 L 681.827 274 L 681.827 301 L 681.827 320.125 L 681.827 244.75 L 681.827 202 L 681.827 224.5 L 684.254 229 L 686.681 258.25 L 686.681 238 L 689.108 346 L 689.108 190 L 689.108 222.25 L 689.108 263.125 L 689.108 292.375 L 689.108 265 L 693.962 272.875 L 693.962 316.75 L 693.962 325.375 L 693.962 235 L 693.962 235 L 696.389 357.25 L 696.389 254.5 L 696.389 216.625 L 696.389 306.625 L 696.389 275.5 L 696.389 320.125 L 696.389 256 L 698.816 276.25 L 698.816 167.5 L 698.816 287.5 L 698.816 286.375 L 698.816 260.5 L 698.816 289 L 698.816 257.125 L 698.816 323.5 L 701.243 317.875 L 701.243 324.625 L 701.243 247 L 701.243 157 L 701.243 254.875 L 701.243 243.625 L 701.243 241.375 L 703.67 317.875 L 703.67 279.625 L 703.67 260.5 L 708.523 311.125 L 708.523 206.875 L 708.523 251.5 L 710.95 323.5 L 710.95 305.5 L 710.95 317.875 L 713.377 266.5 L 713.377 238 L 715.804 287.875 L 715.804 302.5 L 715.804 243.625 L 715.804 256 L 715.804 259.375 L 718.231 297.625 L 718.231 233.5 L 718.231 284.125 L 718.231 287.5 L 718.231 269.5 L 718.231 259.375 L 720.658 307.75 L 720.658 323.5 L 720.658 334.75 L 725.512 236.5 L 725.512 313.375 L 725.512 292.75 L 727.939 338.125 L 727.939 349 L 727.939 346.75 L 727.939 332.875 L 727.939 260.5 L 730.365 231.25 L 730.365 288.625 L 730.365 330.25 L 730.365 240.625 L 730.365 330.25 L 730.365 238 L 730.365 333.625 L 730.365 335.875 L 732.792 203.125 L 732.792 285.25 L 732.792 257.125 L 732.792 267.25 L 732.792 359.875 L 735.219 215.5 L 735.219 206.5 L 735.219 175.75 L 740.073 356.125 L 742.5 309.25 L 742.5 260.5 L 742.5 274 L 742.5 155.5 L 742.5 368.125 L 744.927 271.75 L 744.927 323.5 L 744.927 310 L 744.927 177.25 L 747.354 205 L 747.354 313.375 L 747.354 210.625 L 747.354 354.25 L 747.354 274 L 749.781 346 L 749.781 320.125 L 749.781 335.875 L 749.781 332.5 L 754.635 312.25 L 754.635 334.75 L 754.635 311.875 L 754.635 328.75 L 754.635 334.75 L 754.635 292 L 754.635 231.25 L 757.061 292 L 757.061 269.125 L 757.061 271.75 L 757.061 236.125 L 757.061 285.25 L 757.061 320.5 L 757.061 223.75 L 761.915 348.25 L 761.915 208.75 L 761.915 314.5 L 761.915 353.5 L 764.342 303.25 L 764.342 305.5 L 764.342 340.375 L 764.342 302.5 L 764.342 284.5 L 764.342 305.5 L 764.342 380.875 L 764.342 296.5 L 764.342 214 L 771.623 256 L 774.05 289.375 L 774.05 259 L 774.05 314.5 L 776.477 307.75 L 776.477 339.25 L 776.477 295.375 L 776.477 335.875 L 776.477 320.5 L 778.904 314.5 L 778.904 276.25 L 778.904 367.375 L 778.904 303.25 L 778.904 277.375 L 781.33 353.875 L 781.33 317.5 L 781.33 303.25 L 781.33 278.5 L 786.184 313.375 L 786.184 319 L 786.184 351.625 L 788.611 315.625 L 788.611 355.75 L 791.038 238.375 L 791.038 251.5 L 791.038 337.375 L 793.465 355.75 L 793.465 305.5 L 793.465 218.5 L 795.892 254.875 L 795.892 299.5 L 795.892 319 L 800.746 364 L 800.746 327.625 L 800.746 324.625 L 800.746 278.5 L 800.746 294.25 L 803.173 281.125 L 803.173 348.25 L 803.173 384.25 L 803.173 260.875 L 805.599 254.5 L 805.599 325 L 805.599 248.5 L 805.599 347.125 L 805.599 313 L 805.599 217 L 805.599 284.125 L 808.026 302.125 L 808.026 334.75 L 808.026 364 L 808.026 314.5 L 808.026 341.5 L 808.026 292 L 808.026 344.125 L 808.026 279.625 L 810.453 324.625 L 815.307 350.5 L 815.307 284.125 L 815.307 324.625 L 815.307 308.875 L 815.307 284.125 L 815.307 377.125 L 815.307 364.75 L 817.734 320.125 L 817.734 319 L 817.734 339.25 L 820.161 275.125 L 820.161 266.5 L 820.161 388.75 L 822.588 320.5 L 822.588 218.5 L 822.588 386.125 L 822.588 294.25 L 825.015 356.5 L 825.015 278.5 L 825.015 298.75 L 825.015 366.25 L 829.868 310 L 829.868 298.75 L 829.868 322 L 829.868 293.125 L 829.868 294.25 L 829.868 296.5 L 829.868 281.875 L 829.868 320.125 L 832.295 296.5 L 832.295 281.875 L 832.295 278.5 L 832.295 259.375 L 834.722 312.25 L 834.722 295.375 L 837.149 323.5 L 837.149 332.5 L 837.149 259.75 L 839.576 331 L 839.576 328 L 839.576 379 L 842.003 349.75 L 842.003 294.25 L 842.003 366.625 L 842.003 155.5 L 842.003 348.25 L 846.857 331.375 L 846.857 235 L 846.857 328 L 849.284 330.25 L 849.284 282.25 L 849.284 287.5 L 849.284 258.25 L 849.284 372.25 L 849.284 325.75 L 851.711 374.125 L 851.711 315.625 L 851.711 328 L 851.711 348.25 L 851.711 268 L 851.711 337 L 851.711 322.375 L 851.711 323.5 L 851.711 376.375 L 851.711 304.375 L 854.137 314.5 L 854.137 346.75 L 854.137 359.5 L 854.137 372.25 L 856.564 361.75 L 861.418 394.75 L 861.418 324.625 L 861.418 314.875 L 861.418 355 L 861.418 344.875 L 863.845 344.875 L 863.845 307.75 L 863.845 325 L 863.845 337 L 868.699 368.875 L 868.699 332.5 L 868.699 335.5 L 871.126 362.875 L 871.126 358.375 L 875.98 331 L 875.98 367.375 L 878.406 356.875 L 878.406 358 L 878.406 371.875 L 878.406 380.125 L 878.406 384.25 L 878.406 352.75 L 878.406 383.5 L 880.833 331 L 880.833 378.625 L 880.833 362.875 L 880.833 365.125 L 880.833 362.875 L 880.833 373 L 880.833 340.375" stroke-width="3" stroke-dasharray="" stroke="black" stroke-opacity="1" fill="none" />
</g>
<g id="frame_0">
    <rect id="frame_0_border" x="120" y="25" width="830" height="375" />
    <text id="frame_0_bottomlabel" font-size="30" transform="translate(535, 475)" text-anchor="middle" dominant-baseline="middle" stroke="none" fill="black">lastupdatetime</text>
    <g id="frame_0_bottomticks">
        <path d="M 281.389 400 L 281.389 390" />
        <path d="M 443.182 400 L 443.182 390" />
        <path d="M 928.562 400 L 928.562 390" />
        <path d="M 685.872 400 L 685.872 380" />
        <text font-size="30" transform="translate(685.872, 430)" text-anchor="middle" dominant-baseline="middle" stroke="none" fill="black">Jan 08</text>
        <path d="M 200.492 400 L 200.492 380" />
        <text font-size="30" transform="translate(200.492, 430)" text-anchor="middle" dominant-baseline="middle" stroke="none" fill="black">Mar 06</text>
        <path d="M 604.976 400 L 604.976 390" />
        <path d="M 362.286 400 L 362.286 380" />
        <text font-size="30" transform="translate(362.286, 430)" text-anchor="middle" dominant-baseline="middle" stroke="none" fill="black">Oct 06</text>
        <path d="M 766.769 400 L 766.769 390" />
        <path d="M 524.079 400 L 524.079 380" />
        <text font-size="30" transform="translate(524.079, 430)" text-anchor="middle" dominant-baseline="middle" stroke="none" fill="black">Jun 07</text>
        <path d="M 847.666 400 L 847.666 380" />
        <text font-size="30" transform="translate(847.666, 430)" text-anchor="middle" dominant-baseline="middle" stroke="none" fill="black">Sep 08</text>
    </g>
    <text id="frame_0_leftlabel" font-size="30" transform="translate(37, 212.5) rotate(-90)" text-anchor="middle" dominant-baseline="middle" stroke="none" fill="black">volume</text>
    <g id="frame_0_leftticks">
        <path d="M 120 400 L 140 400" />
        <text font-size="30" transform="translate(110, 410)" text-anchor="end" dominant-baseline="middle" stroke="none" fill="black">0</text>
        <path d="M 120 100 L 140 100" />
        <text font-size="30" transform="translate(110, 110)" text-anchor="end" dominant-baseline="middle" stroke="none" fill="black">800</text>
        <path d="M 120 62.5 L 130 62.5" />
        <path d="M 120 325 L 140 325" />
        <text font-size="30" transform="translate(110, 335)" text-anchor="end" dominant-baseline="middle" stroke="none" fill="black">200</text>
        <path d="M 120 287.5 L 130 287.5" />
        <path d="M 120 250 L 140 250" />
        <text font-size="30" transform="translate(110, 260)" text-anchor="end" dominant-baseline="middle" stroke="none" fill="black">400</text>
        <path d="M 120 25 L 140 25" />
        <text font-size="30" transform="translate(110, 35)" text-anchor="end" dominant-baseline="middle" stroke="none" fill="black">1000</text>
        <path d="M 120 212.5 L 130 212.5" />
        <path d="M 120 175 L 140 175" />
        <text font-size="30" transform="translate(110, 185)" text-anchor="end" dominant-baseline="middle" stroke="none" fill="black">600</text>
        <path d="M 120 362.5 L 130 362.5" />
        <path d="M 120 137.5 L 130 137.5" />
    </g>
    <g id="frame_0_topticks">
        <path d="M 281.389 25 L 281.389 35" />
        <path d="M 443.182 25 L 443.182 35" />
        <path d="M 928.562 25 L 928.562 35" />
        <path d="M 685.872 25 L 685.872 45" />
        <path d="M 200.492 25 L 200.492 45" />
        <path d="M 604.976 25 L 604.976 35" />
        <path d="M 362.286 25 L 362.286 45" />
        <path d="M 766.769 25 L 766.769 35" />
        <path d="M 524.079 25 L 524.079 45" />
        <path d="M 847.666 25 L 847.666 45" />
    </g>
    <g id="frame_0_rightticks">
        <path d="M 950 400 L 930 400" />
        <path d="M 950 100 L 930 100" />
        <path d="M 950 62.5 L 940 62.5" />
        <path d="M 950 325 L 930 325" />
        <path d="M 950 287.5 L 940 287.5" />
        <path d="M 950 250 L 930 250" />
        <path d="M 950 25 L 930 25" />
        <path d="M 950 212.5 L 940 212.5" />
        <path d="M 950 175 L 930 175" />
        <path d="M 950 362.5 L 940 362.5" />
        <path d="M 950 137.5 L 940 137.5" />
    </g>
</g>
<g id="TimeSeries_1" clip-path="url(#TimeSeries_1_clip)">
    <path d="M 189.167 857.25 L 191.594 858.375 L 194.02 869.625 L 198.874 869.625 L 201.301 860.625 L 206.155 871.875 L 208.582 875.25 L 213.436 873 L 215.863 873 L 218.289 877.5 L 220.716 869.625 L 223.143 870.75 L 227.997 878.625 L 230.424 889.875 L 232.851 886.5 L 235.278 874.125 L 237.705 877.5 L 240.132 880.875 L 247.412 873 L 249.839 883.125 L 252.266 883.125 L 254.693 884.25 L 259.547 887.625 L 261.974 879.75 L 264.401 889.875 L 266.827 885.375 L 271.681 885.375 L 274.108 878.625 L 276.535 888.75 L 278.962 888.75 L 281.389 886.5 L 283.816 878.625 L 288.67 874.125 L 291.096 880.875 L 293.523 873 L 295.95 873 L 298.377 874.125 L 303.231 874.125 L 305.658 878.625 L 308.085 882 L 312.939 876.375 L 317.792 866.25 L 320.219 859.5 L 322.646 851.625 L 325.073 859.5 L 327.5 868.5 L 332.354 844.875 L 334.781 846 L 337.208 832.5 L 339.635 832.5 L 342.061 831.375 L 346.915 823.5 L 349.342 803.25 L 351.769 812.25 L 354.196 792 L 356.623 796.5 L 359.05 763.875 L 363.904 752.625 L 366.33 711 L 368.757 729 L 371.184 731.25 L 373.611 740.25 L 378.465 750.375 L 380.892 747 L 383.319 743.625 L 385.746 735.75 L 388.173 762.75 L 393.026 752.625 L 395.453 760.5 L 397.88 765 L 400.307 743.625 L 402.734 780.75 L 407.588 806.625 L 410.015 777.375 L 412.442 766.125 L 414.868 765 L 417.295 753.75 L 422.149 788.625 L 424.576 774 L 427.003 759.375 L 429.43 780.75 L 431.857 794.25 L 434.284 802.125 L 439.137 783 L 441.564 783 L 443.991 775.125 L 446.418 781.875 L 448.845 790.875 L 453.699 772.875 L 456.126 768.375 L 458.553 779.625 L 460.98 763.875 L 463.406 767.25 L 468.26 785.25 L 470.687 768.375 L 473.114 763.875 L 475.541 788.625 L 477.968 772.875 L 482.822 775.125 L 485.249 769.5 L 487.675 778.5 L 490.102 770.625 L 492.529 743.625 L 497.383 784.125 L 499.81 788.625 L 504.664 766.125 L 507.091 772.875 L 509.518 780.75 L 514.371 772.875 L 516.798 765 L 519.225 766.125 L 521.652 760.5 L 524.079 780.75 L 528.933 762.75 L 531.36 771.75 L 533.787 781.875 L 536.213 770.625 L 538.64 776.25 L 543.494 762.75 L 545.921 774 L 548.348 788.625 L 550.775 781.875 L 553.202 785.25 L 558.056 766.125 L 560.482 781.875 L 562.909 774 L 565.336 793.125 L 567.763 776.25 L 570.19 766.125 L 575.044 760.5 L 577.471 786.375 L 579.898 783 L 582.325 783 L 584.751 794.25 L 589.605 778.5 L 592.032 789.75 L 594.459 776.25 L 596.886 785.25 L 599.313 774 L 604.167 772.875 L 606.594 756 L 609.02 770.625 L 611.447 774 L 616.301 769.5 L 618.728 761.625 L 621.155 775.125 L 623.582 759.375 L 626.009 785.25 L 628.436 778.5 L 633.289 779.625 L 635.716 784.125 L 638.143 781.875 L 640.57 790.875 L 642.997 772.875 L 645.424 783 L 650.278 785.25 L 652.705 794.25 L 655.132 784.125 L 657.558 779.625 L 659.985 789.75 L 664.839 774 L 667.266 799.875 L 669.693 777.375 L 672.12 781.875 L 674.547 780.75 L 679.401 783 L 681.827 772.875 L 684.254 776.25 L 686.681 774 L 689.108 774 L 693.962 776.25 L 696.389 771.75 L 698.816 771.75 L 701.243 772.875 L 703.67 778.5 L 708.523 765 L 710.95 767.25 L 713.377 775.125 L 715.804 776.25 L 718.231 771.75 L 720.658 772.875 L 725.512 770.625 L 727.939 775.125 L 730.365 766.125 L 732.792 775.125 L 735.219 777.375 L 740.073 766.125 L 742.5 761.625 L 744.927 777.375 L 747.354 772.875 L 749.781 779.625 L 754.635 779.625 L 757.061 781.875 L 761.915 789.75 L 764.342 784.125 L 771.623 790.875 L 774.05 783 L 776.477 789.75 L 778.904 785.25 L 781.33 783 L 786.184 790.875 L 788.611 788.625 L 791.038 799.875 L 793.465 808.875 L 795.892 794.25 L 800.746 790.875 L 803.173 780.75 L 805.599 792 L 808.026 795.375 L 810.453 776.25 L 815.307 803.25 L 817.734 805.5 L 820.161 804.375 L 822.588 796.5 L 825.015 821.25 L 829.868 811.125 L 832.295 806.625 L 834.722 806.625 L 837.149 828 L 839.576 821.25 L 842.003 814.5 L 846.857 817.875 L 849.284 831.375 L 851.711 840.375 L 854.137 851.625 L 856.564 834.75 L 861.418 838.125 L 863.845 835.875 L 866.272 841.5 L 868.699 850.5 L 871.126 853.875 L 875.98 848.25 L 878.406 855 L 880.833 856.125" stroke-width="3" stroke-dasharray="" stroke="black" stroke-opacity="1" fill="none" />
</g>
<g id="frame_1">
    <rect id="frame_1_border" x="120" y="525" width="830" height="375" />
    <text id="frame_1_bottomlabel" font-size="30" transform="translate(535, 975)" text-anchor="middle" dominant-baseline="middle" stroke="none" fill="black">lastupdatetime</text>
    <g id="frame_1_bottomticks">
        <path d="M 281.389 900 L 281.389 890" />
        <path d="M 443.182 900 L 443.182 890" />
        <path d="M 928.562 900 L 928.562 890" />
        <path d="M 685.872 900 L 685.872 880" />
        <text font-size="30" transform="translate(685.872, 930)" text-anchor="middle" dominant-baseline="middle" stroke="none" fill="black">Jan 08</text>
        <path d="M 200.492 900 L 200.492 880" />
        <text font-size="30" transform="translate(200.492, 930)" text-anchor="middle" dominant-baseline="middle" stroke="none" fill="black">Mar 06</text>
        <path d="M 604.976 900 L 604.976 890" />
        <path d="M 362.286 900 L 362.286 880" />
        <text font-size="30" transform="translate(362.286, 930)" text-anchor="middle" dominant-baseline="middle" stroke="none" fill="black">Oct 06</text>
        <path d="M 766.769 900 L 766.769 890" />
        <path d="M 524.079 900 L 524.079 880" />
        <text font-size="30" transform="translate(524.079, 930)" text-anchor="middle" dominant-baseline="middle" stroke="none" fill="black">Jun 07</text>
        <path d="M 847.666 900 L 847.666 880" />
        <text font-size="30" transform="translate(847.666, 930)" text-anchor="middle" dominant-baseline="middle" stroke="none" fill="black">Sep 08</text>
    </g>
    <text id="frame_1_leftlabel" font-size="30" transform="translate(37, 712.5) rotate(-90)" text-anchor="middle" dominant-baseline="middle" stroke="none" fill="black">volume</text>
    <g id="frame_1_leftticks">
        <path d="M 120 900 L 140 900" />
        <text font-size="30" transform="translate(110, 910)" text-anchor="end" dominant-baseline="middle" stroke="none" fill="black">0</text>
        <path d="M 120 600 L 140 600" />
        <text font-size="30" transform="translate(110, 610)" text-anchor="end" dominant-baseline="middle" stroke="none" fill="black">800</text>
        <path d="M 120 562.5 L 130 562.5" />
        <path d="M 120 825 L 140 825" />
        <text font-size="30" transform="translate(110, 835)" text-anchor="end" dominant-baseline="middle" stroke="none" fill="black">200</text>
        <path d="M 120 787.5 L 130 787.5" />
        <path d="M 120 750 L 140 750" />
        <text font-size="30" transform="translate(110, 760)" text-anchor="end" dominant-baseline="middle" stroke="none" fill="black">400</text>
        <path d="M 120 525 L 140 525" />
        <text font-size="30" transform="translate(110, 535)" text-anchor="end" dominant-baseline="middle" stroke="none" fill="black">1000</text>
        <path d="M 120 712.5 L 130 712.5" />
        <path d="M 120 675 L 140 675" />
        <text font-size="30" transform="translate(110, 685)" text-anchor="end" dominant-baseline="middle" stroke="none" fill="black">600</text>
        <path d="M 120 862.5 L 130 862.5" />
        <path d="M 120 637.5 L 130 637.5" />
    </g>
    <g id="frame_1_topticks">
        <path d="M 281.389 525 L 281.389 535" />
        <path d="M 443.182 525 L 443.182 535" />
        <path d="M 928.562 525 L 928.562 535" />
        <path d="M 685.872 525 L 685.872 545" />
        <path d="M 200.492 525 L 200.492 545" />
        <path d="M 604.976 525 L 604.976 535" />
        <path d="M 362.286 525 L 362.286 545" />
        <path d="M 766.769 525 L 766.769 535" />
        <path d="M 524.079 525 L 524.079 545" />
        <path d="M 847.666 525 L 847.666 545" />
    </g>
    <g id="frame_1_rightticks">
        <path d="M 950 900 L 930 900" />
        <path d="M 950 600 L 930 600" />
        <path d="M 950 562.5 L 940 562.5" />
        <path d="M 950 825 L 930 825" />
        <path d="M 950 787.5 L 940 787.5" />
        <path d="M 950 750 L 930 750" />
        <path d="M 950 525 L 930 525" />
        <path d="M 950 712.5 L 940 712.5" />
        <path d="M 950 675 L 930 675" />
        <path d="M 950 862.5 L 940 862.5" />
        <path d="M 950 637.5 L 940 637.5" />
    </g>
</g>
</g>
</svg>
