<?xml version="1.0" standalone="no"?>
<!DOCTYPE svg PUBLIC "-//W3C//DTD SVG 1.1//EN" "http://www.w3.org/Graphics/SVG/1.1/DTD/svg11.dtd">
<svg style="stroke-linejoin:miter; stroke:black; stroke-width:2.5; text-anchor:middle; fill:none" xmlns="http://www.w3.org/2000/svg" font-family="Helvetica, Arial, FreeSans, Sans, sans, sans-serif" width="1000px" height="1000px" version="1.1" xmlns:xlink="http://www.w3.org/1999/xlink" viewBox="0 0 1000 1000">
<defs>
    <clipPath id="Histogram_0_clip">
        <rect x="60" y="25" width="415" height="435" />
    </clipPath>
    <clipPath id="Histogram_1_clip">
        <rect x="560" y="25" width="415" height="435" />
    </clipPath>
    <clipPath id="Histogram_2_clip">
        <rect x="60" y="525" width="415" height="435" />
    </clipPath>
    <clipPath id="Histogram_3_clip">
        <rect x="560" y="525" width="415" height="435" />
    </clipPath>
</defs>
<g id="whole_document">
<rect id="background" x="0" y="0" width="1000" height="1000" stroke="none" fill="white" />
<g id="Histogram_0" clip-path="url(#Histogram_0_clip)">
    <path d="M 60 460 L 60 460 L 101.5 460 L 101.5 64.5455 L 143 64.5455 L 143 460 L 184.5 460 L 184.5 460 L 226 460 L 226 460 L 267.5 460 L 267.5 328.182 L 309 328.182 L 309 460 L 350.5 460 L 350.5 460 L 392 460 L 392 328.182 L 433.5 328.182 L 433.5 460 L 475 460 L 475 460" stroke-width="3" stroke-dasharray="" stroke="black" fill="yellow" />
</g>
<g id="frame_0">
    <rect id="frame_0_border" x="60" y="25" width="415" height="435" />
    <g id="frame_0_bottomticks">
        <path d="M 267.5 460 L 267.5 450" />
        <path d="M 60 460 L 60 440" />
        <text font-size="30" transform="translate(60, 490)" text-anchor="middle" dominant-baseline="middle" stroke="none" fill="black">0</text>
        <path d="M 226 460 L 226 440" />
        <text font-size="30" transform="translate(226, 490)" text-anchor="middle" dominant-baseline="middle" stroke="none" fill="black">0.4</text>
        <path d="M 101.5 460 L 101.5 450" />
        <path d="M 475 460 L 475 440" />
        <text font-size="30" transform="translate(475, 490)" text-anchor="middle" dominant-baseline="middle" stroke="none" fill="black">1</text>
        <path d="M 143 460 L 143 440" />
        <text font-size="30" transform="translate(143, 490)" text-anchor="middle" dominant-baseline="middle" stroke="none" fill="black">0.2</text>
        <path d="M 309 460 L 309 440" />
        <text font-size="30" transform="translate(309, 490)" text-anchor="middle" dominant-baseline="middle" stroke="none" fill="black">0.6</text>
        <path d="M 184.5 460 L 184.5 450" />
        <path d="M 392 460 L 392 440" />
        <text font-size="30" transform="translate(392, 490)" text-anchor="middle" dominant-baseline="middle" stroke="none" fill="black">0.8</text>
        <path d="M 433.5 460 L 433.5 450" />
        <path d="M 350.5 460 L 350.5 450" />
    </g>
    <g id="frame_0_leftticks">
        <path d="M 60 460 L 80 460" />
        <text font-size="30" transform="translate(50, 461.5)" text-anchor="end" dominant-baseline="middle" stroke="none" fill="black">0</text>
        <path d="M 60 394.091 L 80 394.091" />
        <text font-size="30" transform="translate(50, 395.591)" text-anchor="end" dominant-baseline="middle" stroke="none" fill="black">0.5</text>
        <path d="M 60 222.727 L 70 222.727" />
        <path d="M 60 64.5455 L 80 64.5455" />
        <text font-size="30" transform="translate(50, 66.0455)" text-anchor="end" dominant-baseline="middle" stroke="none" fill="black">3</text>
        <path d="M 60 380.909 L 70 380.909" />
        <path d="M 60 130.455 L 80 130.455" />
        <text font-size="30" transform="translate(50, 131.955)" text-anchor="end" dominant-baseline="middle" stroke="none" fill="black">2.5</text>
        <path d="M 60 328.182 L 80 328.182" />
        <text font-size="30" transform="translate(50, 329.682)" text-anchor="end" dominant-baseline="middle" stroke="none" fill="black">1</text>
        <path d="M 60 446.818 L 70 446.818" />
        <path d="M 60 117.273 L 70 117.273" />
        <path d="M 60 196.364 L 80 196.364" />
        <text font-size="30" transform="translate(50, 197.864)" text-anchor="end" dominant-baseline="middle" stroke="none" fill="black">2</text>
        <path d="M 60 170 L 70 170" />
        <path d="M 60 420.455 L 70 420.455" />
        <path d="M 60 209.545 L 70 209.545" />
        <path d="M 60 354.545 L 70 354.545" />
        <path d="M 60 156.818 L 70 156.818" />
        <path d="M 60 367.727 L 70 367.727" />
        <path d="M 60 143.636 L 70 143.636" />
        <path d="M 60 275.455 L 70 275.455" />
        <path d="M 60 288.636 L 70 288.636" />
        <path d="M 60 77.7273 L 70 77.7273" />
        <path d="M 60 315 L 70 315" />
        <path d="M 60 262.273 L 80 262.273" />
        <text font-size="30" transform="translate(50, 263.773)" text-anchor="end" dominant-baseline="middle" stroke="none" fill="black">1.5</text>
        <path d="M 60 301.818 L 70 301.818" />
        <path d="M 60 235.909 L 70 235.909" />
        <path d="M 60 407.273 L 70 407.273" />
        <path d="M 60 90.9091 L 70 90.9091" />
        <path d="M 60 341.364 L 70 341.364" />
        <path d="M 60 249.091 L 70 249.091" />
        <path d="M 60 433.636 L 70 433.636" />
        <path d="M 60 104.091 L 70 104.091" />
        <path d="M 60 51.3636 L 70 51.3636" />
        <path d="M 60 183.182 L 70 183.182" />
        <path d="M 60 38.1818 L 70 38.1818" />
    </g>
    <g id="frame_0_topticks">
        <path d="M 267.5 25 L 267.5 35" />
        <path d="M 60 25 L 60 45" />
        <path d="M 226 25 L 226 45" />
        <path d="M 101.5 25 L 101.5 35" />
        <path d="M 475 25 L 475 45" />
        <path d="M 143 25 L 143 45" />
        <path d="M 309 25 L 309 45" />
        <path d="M 184.5 25 L 184.5 35" />
        <path d="M 392 25 L 392 45" />
        <path d="M 433.5 25 L 433.5 35" />
        <path d="M 350.5 25 L 350.5 35" />
    </g>
    <g id="frame_0_rightticks">
        <path d="M 475 460 L 455 460" />
        <path d="M 475 394.091 L 455 394.091" />
        <path d="M 475 222.727 L 465 222.727" />
        <path d="M 475 64.5455 L 455 64.5455" />
        <path d="M 475 380.909 L 465 380.909" />
        <path d="M 475 130.455 L 455 130.455" />
        <path d="M 475 328.182 L 455 328.182" />
        <path d="M 475 446.818 L 465 446.818" />
        <path d="M 475 117.273 L 465 117.273" />
        <path d="M 475 196.364 L 455 196.364" />
        <path d="M 475 170 L 465 170" />
        <path d="M 475 420.455 L 465 420.455" />
        <path d="M 475 209.545 L 465 209.545" />
        <path d="M 475 354.545 L 465 354.545" />
        <path d="M 475 156.818 L 465 156.818" />
        <path d="M 475 367.727 L 465 367.727" />
        <path d="M 475 143.636 L 465 143.636" />
        <path d="M 475 275.455 L 465 275.455" />
        <path d="M 475 288.636 L 465 288.636" />
        <path d="M 475 77.7273 L 465 77.7273" />
        <path d="M 475 315 L 465 315" />
        <path d="M 475 262.273 L 455 262.273" />
        <path d="M 475 301.818 L 465 301.818" />
        <path d="M 475 235.909 L 465 235.909" />
        <path d="M 475 407.273 L 465 407.273" />
        <path d="M 475 90.9091 L 465 90.9091" />
        <path d="M 475 341.364 L 465 341.364" />
        <path d="M 475 249.091 L 465 249.091" />
        <path d="M 475 433.636 L 465 433.636" />
        <path d="M 475 104.091 L 465 104.091" />
        <path d="M 475 51.3636 L 465 51.3636" />
        <path d="M 475 183.182 L 465 183.182" />
        <path d="M 475 38.1818 L 465 38.1818" />
    </g>
</g>
<g id="Histogram_1" clip-path="url(#Histogram_1_clip)">
    <path d="M 560 460 L 560 460 L 601.5 460 L 601.5 64.5455 L 643 64.5455 L 643 460 L 684.5 460 L 684.5 460 L 726 460 L 726 460 L 767.5 460 L 767.5 328.182 L 809 328.182 L 809 460 L 850.5 460 L 850.5 460 L 892 460 L 892 328.182 L 933.5 328.182 L 933.5 460 L 975 460 L 975 460" stroke-width="3" stroke-dasharray="" stroke="black" fill="yellow" />
</g>
<g id="frame_1">
    <rect id="frame_1_border" x="560" y="25" width="415" height="435" />
    <g id="frame_1_bottomticks">
        <path d="M 767.5 460 L 767.5 450" />
        <path d="M 560 460 L 560 440" />
        <text font-size="30" transform="translate(560, 490)" text-anchor="middle" dominant-baseline="middle" stroke="none" fill="black">0</text>
        <path d="M 726 460 L 726 440" />
        <text font-size="30" transform="translate(726, 490)" text-anchor="middle" dominant-baseline="middle" stroke="none" fill="black">0.4</text>
        <path d="M 601.5 460 L 601.5 450" />
        <path d="M 975 460 L 975 440" />
        <text font-size="30" transform="translate(975, 490)" text-anchor="middle" dominant-baseline="middle" stroke="none" fill="black">1</text>
        <path d="M 643 460 L 643 440" />
        <text font-size="30" transform="translate(643, 490)" text-anchor="middle" dominant-baseline="middle" stroke="none" fill="black">0.2</text>
        <path d="M 809 460 L 809 440" />
        <text font-size="30" transform="translate(809, 490)" text-anchor="middle" dominant-baseline="middle" stroke="none" fill="black">0.6</text>
        <path d="M 684.5 460 L 684.5 450" />
        <path d="M 892 460 L 892 440" />
        <text font-size="30" transform="translate(892, 490)" text-anchor="middle" dominant-baseline="middle" stroke="none" fill="black">0.8</text>
        <path d="M 933.5 460 L 933.5 450" />
        <path d="M 850.5 460 L 850.5 450" />
    </g>
    <g id="frame_1_leftticks">
        <path d="M 560 460 L 580 460" />
        <text font-size="30" transform="translate(550, 461.5)" text-anchor="end" dominant-baseline="middle" stroke="none" fill="black">0</text>
        <path d="M 560 394.091 L 580 394.091" />
        <text font-size="30" transform="translate(550, 395.591)" text-anchor="end" dominant-baseline="middle" stroke="none" fill="black">0.5</text>
        <path d="M 560 222.727 L 570 222.727" />
        <path d="M 560 64.5455 L 580 64.5455" />
        <text font-size="30" transform="translate(550, 66.0455)" text-anchor="end" dominant-baseline="middle" stroke="none" fill="black">3</text>
        <path d="M 560 380.909 L 570 380.909" />
        <path d="M 560 130.455 L 580 130.455" />
        <text font-size="30" transform="translate(550, 131.955)" text-anchor="end" dominant-baseline="middle" stroke="none" fill="black">2.5</text>
        <path d="M 560 328.182 L 580 328.182" />
        <text font-size="30" transform="translate(550, 329.682)" text-anchor="end" dominant-baseline="middle" stroke="none" fill="black">1</text>
        <path d="M 560 446.818 L 570 446.818" />
        <path d="M 560 117.273 L 570 117.273" />
        <path d="M 560 196.364 L 580 196.364" />
        <text font-size="30" transform="translate(550, 197.864)" text-anchor="end" dominant-baseline="middle" stroke="none" fill="black">2</text>
        <path d="M 560 170 L 570 170" />
        <path d="M 560 420.455 L 570 420.455" />
        <path d="M 560 209.545 L 570 209.545" />
        <path d="M 560 354.545 L 570 354.545" />
        <path d="M 560 156.818 L 570 156.818" />
        <path d="M 560 367.727 L 570 367.727" />
        <path d="M 560 143.636 L 570 143.636" />
        <path d="M 560 275.455 L 570 275.455" />
        <path d="M 560 288.636 L 570 288.636" />
        <path d="M 560 77.7273 L 570 77.7273" />
        <path d="M 560 315 L 570 315" />
        <path d="M 560 262.273 L 580 262.273" />
        <text font-size="30" transform="translate(550, 263.773)" text-anchor="end" dominant-baseline="middle" stroke="none" fill="black">1.5</text>
        <path d="M 560 301.818 L 570 301.818" />
        <path d="M 560 235.909 L 570 235.909" />
        <path d="M 560 407.273 L 570 407.273" />
        <path d="M 560 90.9091 L 570 90.9091" />
        <path d="M 560 341.364 L 570 341.364" />
        <path d="M 560 249.091 L 570 249.091" />
        <path d="M 560 433.636 L 570 433.636" />
        <path d="M 560 104.091 L 570 104.091" />
        <path d="M 560 51.3636 L 570 51.3636" />
        <path d="M 560 183.182 L 570 183.182" />
        <path d="M 560 38.1818 L 570 38.1818" />
    </g>
    <g id="frame_1_topticks">
        <path d="M 767.5 25 L 767.5 35" />
        <path d="M 560 25 L 560 45" />
        <path d="M 726 25 L 726 45" />
        <path d="M 601.5 25 L 601.5 35" />
        <path d="M 975 25 L 975 45" />
        <path d="M 643 25 L 643 45" />
        <path d="M 809 25 L 809 45" />
        <path d="M 684.5 25 L 684.5 35" />
        <path d="M 892 25 L 892 45" />
        <path d="M 933.5 25 L 933.5 35" />
        <path d="M 850.5 25 L 850.5 35" />
    </g>
    <g id="frame_1_rightticks">
        <path d="M 975 460 L 955 460" />
        <path d="M 975 394.091 L 955 394.091" />
        <path d="M 975 222.727 L 965 222.727" />
        <path d="M 975 64.5455 L 955 64.5455" />
        <path d="M 975 380.909 L 965 380.909" />
        <path d="M 975 130.455 L 955 130.455" />
        <path d="M 975 328.182 L 955 328.182" />
        <path d="M 975 446.818 L 965 446.818" />
        <path d="M 975 117.273 L 965 117.273" />
        <path d="M 975 196.364 L 955 196.364" />
        <path d="M 975 170 L 965 170" />
        <path d="M 975 420.455 L 965 420.455" />
        <path d="M 975 209.545 L 965 209.545" />
        <path d="M 975 354.545 L 965 354.545" />
        <path d="M 975 156.818 L 965 156.818" />
        <path d="M 975 367.727 L 965 367.727" />
        <path d="M 975 143.636 L 965 143.636" />
        <path d="M 975 275.455 L 965 275.455" />
        <path d="M 975 288.636 L 965 288.636" />
        <path d="M 975 77.7273 L 965 77.7273" />
        <path d="M 975 315 L 965 315" />
        <path d="M 975 262.273 L 955 262.273" />
        <path d="M 975 301.818 L 965 301.818" />
        <path d="M 975 235.909 L 965 235.909" />
        <path d="M 975 407.273 L 965 407.273" />
        <path d="M 975 90.9091 L 965 90.9091" />
        <path d="M 975 341.364 L 965 341.364" />
        <path d="M 975 249.091 L 965 249.091" />
        <path d="M 975 433.636 L 965 433.636" />
        <path d="M 975 104.091 L 965 104.091" />
        <path d="M 975 51.3636 L 965 51.3636" />
        <path d="M 975 183.182 L 965 183.182" />
        <path d="M 975 38.1818 L 965 38.1818" />
    </g>
</g>
<g id="Histogram_2" clip-path="url(#Histogram_2_clip)">
    <path d="M 60 960 L 60 960 L 101.5 960 L 101.5 564.545 L 143 564.545 L 143 960 L 184.5 960 L 184.5 960 L 226 960 L 226 960 L 267.5 960 L 267.5 828.182 L 309 828.182 L 309 960 L 350.5 960 L 350.5 960 L 392 960 L 392 828.182 L 433.5 828.182 L 433.5 960 L 475 960 L 475 960" stroke-width="3" stroke-dasharray="" stroke="black" fill="yellow" />
</g>
<g id="frame_2">
    <rect id="frame_2_border" x="60" y="525" width="415" height="435" />
    <g id="frame_2_bottomticks">
        <path d="M 267.5 960 L 267.5 950" />
        <path d="M 60 960 L 60 940" />
        <text font-size="30" transform="translate(60, 990)" text-anchor="middle" dominant-baseline="middle" stroke="none" fill="black">0</text>
        <path d="M 226 960 L 226 940" />
        <text font-size="30" transform="translate(226, 990)" text-anchor="middle" dominant-baseline="middle" stroke="none" fill="black">0.4</text>
        <path d="M 101.5 960 L 101.5 950" />
        <path d="M 475 960 L 475 940" />
        <text font-size="30" transform="translate(475, 990)" text-anchor="middle" dominant-baseline="middle" stroke="none" fill="black">1</text>
        <path d="M 143 960 L 143 940" />
        <text font-size="30" transform="translate(143, 990)" text-anchor="middle" dominant-baseline="middle" stroke="none" fill="black">0.2</text>
        <path d="M 309 960 L 309 940" />
        <text font-size="30" transform="translate(309, 990)" text-anchor="middle" dominant-baseline="middle" stroke="none" fill="black">0.6</text>
        <path d="M 184.5 960 L 184.5 950" />
        <path d="M 392 960 L 392 940" />
        <text font-size="30" transform="translate(392, 990)" text-anchor="middle" dominant-baseline="middle" stroke="none" fill="black">0.8</text>
        <path d="M 433.5 960 L 433.5 950" />
        <path d="M 350.5 960 L 350.5 950" />
    </g>
    <g id="frame_2_leftticks">
        <path d="M 60 960 L 80 960" />
        <text font-size="30" transform="translate(50, 961.5)" text-anchor="end" dominant-baseline="middle" stroke="none" fill="black">0</text>
        <path d="M 60 894.091 L 80 894.091" />
        <text font-size="30" transform="translate(50, 895.591)" text-anchor="end" dominant-baseline="middle" stroke="none" fill="black">0.5</text>
        <path d="M 60 722.727 L 70 722.727" />
        <path d="M 60 564.545 L 80 564.545" />
        <text font-size="30" transform="translate(50, 566.045)" text-anchor="end" dominant-baseline="middle" stroke="none" fill="black">3</text>
        <path d="M 60 880.909 L 70 880.909" />
        <path d="M 60 630.455 L 80 630.455" />
        <text font-size="30" transform="translate(50, 631.955)" text-anchor="end" dominant-baseline="middle" stroke="none" fill="black">2.5</text>
        <path d="M 60 828.182 L 80 828.182" />
        <text font-size="30" transform="translate(50, 829.682)" text-anchor="end" dominant-baseline="middle" stroke="none" fill="black">1</text>
        <path d="M 60 946.818 L 70 946.818" />
        <path d="M 60 617.273 L 70 617.273" />
        <path d="M 60 696.364 L 80 696.364" />
        <text font-size="30" transform="translate(50, 697.864)" text-anchor="end" dominant-baseline="middle" stroke="none" fill="black">2</text>
        <path d="M 60 670 L 70 670" />
        <path d="M 60 920.455 L 70 920.455" />
        <path d="M 60 709.545 L 70 709.545" />
        <path d="M 60 854.545 L 70 854.545" />
        <path d="M 60 656.818 L 70 656.818" />
        <path d="M 60 867.727 L 70 867.727" />
        <path d="M 60 643.636 L 70 643.636" />
        <path d="M 60 775.455 L 70 775.455" />
        <path d="M 60 788.636 L 70 788.636" />
        <path d="M 60 577.727 L 70 577.727" />
        <path d="M 60 815 L 70 815" />
        <path d="M 60 762.273 L 80 762.273" />
        <text font-size="30" transform="translate(50, 763.773)" text-anchor="end" dominant-baseline="middle" stroke="none" fill="black">1.5</text>
        <path d="M 60 801.818 L 70 801.818" />
        <path d="M 60 735.909 L 70 735.909" />
        <path d="M 60 907.273 L 70 907.273" />
        <path d="M 60 590.909 L 70 590.909" />
        <path d="M 60 841.364 L 70 841.364" />
        <path d="M 60 749.091 L 70 749.091" />
        <path d="M 60 933.636 L 70 933.636" />
        <path d="M 60 604.091 L 70 604.091" />
        <path d="M 60 551.364 L 70 551.364" />
        <path d="M 60 683.182 L 70 683.182" />
        <path d="M 60 538.182 L 70 538.182" />
    </g>
    <g id="frame_2_topticks">
        <path d="M 267.5 525 L 267.5 535" />
        <path d="M 60 525 L 60 545" />
        <path d="M 226 525 L 226 545" />
        <path d="M 101.5 525 L 101.5 535" />
        <path d="M 475 525 L 475 545" />
        <path d="M 143 525 L 143 545" />
        <path d="M 309 525 L 309 545" />
        <path d="M 184.5 525 L 184.5 535" />
        <path d="M 392 525 L 392 545" />
        <path d="M 433.5 525 L 433.5 535" />
        <path d="M 350.5 525 L 350.5 535" />
    </g>
    <g id="frame_2_rightticks">
        <path d="M 475 960 L 455 960" />
        <path d="M 475 894.091 L 455 894.091" />
        <path d="M 475 722.727 L 465 722.727" />
        <path d="M 475 564.545 L 455 564.545" />
        <path d="M 475 880.909 L 465 880.909" />
        <path d="M 475 630.455 L 455 630.455" />
        <path d="M 475 828.182 L 455 828.182" />
        <path d="M 475 946.818 L 465 946.818" />
        <path d="M 475 617.273 L 465 617.273" />
        <path d="M 475 696.364 L 455 696.364" />
        <path d="M 475 670 L 465 670" />
        <path d="M 475 920.455 L 465 920.455" />
        <path d="M 475 709.545 L 465 709.545" />
        <path d="M 475 854.545 L 465 854.545" />
        <path d="M 475 656.818 L 465 656.818" />
        <path d="M 475 867.727 L 465 867.727" />
        <path d="M 475 643.636 L 465 643.636" />
        <path d="M 475 775.455 L 465 775.455" />
        <path d="M 475 788.636 L 465 788.636" />
        <path d="M 475 577.727 L 465 577.727" />
        <path d="M 475 815 L 465 815" />
        <path d="M 475 762.273 L 455 762.273" />
        <path d="M 475 801.818 L 465 801.818" />
        <path d="M 475 735.909 L 465 735.909" />
        <path d="M 475 907.273 L 465 907.273" />
        <path d="M 475 590.909 L 465 590.909" />
        <path d="M 475 841.364 L 465 841.364" />
        <path d="M 475 749.091 L 465 749.091" />
        <path d="M 475 933.636 L 465 933.636" />
        <path d="M 475 604.091 L 465 604.091" />
        <path d="M 475 551.364 L 465 551.364" />
        <path d="M 475 683.182 L 465 683.182" />
        <path d="M 475 538.182 L 465 538.182" />
    </g>
</g>
<g id="Histogram_3" clip-path="url(#Histogram_3_clip)">
    <path d="M 560 960 L 560 960 L 601.5 960 L 601.5 564.545 L 643 564.545 L 643 960 L 684.5 960 L 684.5 960 L 726 960 L 726 960 L 767.5 960 L 767.5 828.182 L 809 828.182 L 809 960 L 850.5 960 L 850.5 960 L 892 960 L 892 828.182 L 933.5 828.182 L 933.5 960 L 975 960 L 975 960" stroke-width="3" stroke-dasharray="" stroke="black" fill="yellow" />
</g>
<g id="frame_3">
    <rect id="frame_3_border" x="560" y="525" width="415" height="435" />
    <g id="frame_3_bottomticks">
        <path d="M 767.5 960 L 767.5 950" />
        <path d="M 560 960 L 560 940" />
        <text font-size="30" transform="translate(560, 990)" text-anchor="middle" dominant-baseline="middle" stroke="none" fill="black">0</text>
        <path d="M 726 960 L 726 940" />
        <text font-size="30" transform="translate(726, 990)" text-anchor="middle" dominant-baseline="middle" stroke="none" fill="black">0.4</text>
        <path d="M 601.5 960 L 601.5 950" />
        <path d="M 975 960 L 975 940" />
        <text font-size="30" transform="translate(975, 990)" text-anchor="middle" dominant-baseline="middle" stroke="none" fill="black">1</text>
        <path d="M 643 960 L 643 940" />
        <text font-size="30" transform="translate(643, 990)" text-anchor="middle" dominant-baseline="middle" stroke="none" fill="black">0.2</text>
        <path d="M 809 960 L 809 940" />
        <text font-size="30" transform="translate(809, 990)" text-anchor="middle" dominant-baseline="middle" stroke="none" fill="black">0.6</text>
        <path d="M 684.5 960 L 684.5 950" />
        <path d="M 892 960 L 892 940" />
        <text font-size="30" transform="translate(892, 990)" text-anchor="middle" dominant-baseline="middle" stroke="none" fill="black">0.8</text>
        <path d="M 933.5 960 L 933.5 950" />
        <path d="M 850.5 960 L 850.5 950" />
    </g>
    <g id="frame_3_leftticks">
        <path d="M 560 960 L 580 960" />
        <text font-size="30" transform="translate(550, 961.5)" text-anchor="end" dominant-baseline="middle" stroke="none" fill="black">0</text>
        <path d="M 560 894.091 L 580 894.091" />
        <text font-size="30" transform="translate(550, 895.591)" text-anchor="end" dominant-baseline="middle" stroke="none" fill="black">0.5</text>
        <path d="M 560 722.727 L 570 722.727" />
        <path d="M 560 564.545 L 580 564.545" />
        <text font-size="30" transform="translate(550, 566.045)" text-anchor="end" dominant-baseline="middle" stroke="none" fill="black">3</text>
        <path d="M 560 880.909 L 570 880.909" />
        <path d="M 560 630.455 L 580 630.455" />
        <text font-size="30" transform="translate(550, 631.955)" text-anchor="end" dominant-baseline="middle" stroke="none" fill="black">2.5</text>
        <path d="M 560 828.182 L 580 828.182" />
        <text font-size="30" transform="translate(550, 829.682)" text-anchor="end" dominant-baseline="middle" stroke="none" fill="black">1</text>
        <path d="M 560 946.818 L 570 946.818" />
        <path d="M 560 617.273 L 570 617.273" />
        <path d="M 560 696.364 L 580 696.364" />
        <text font-size="30" transform="translate(550, 697.864)" text-anchor="end" dominant-baseline="middle" stroke="none" fill="black">2</text>
        <path d="M 560 670 L 570 670" />
        <path d="M 560 920.455 L 570 920.455" />
        <path d="M 560 709.545 L 570 709.545" />
        <path d="M 560 854.545 L 570 854.545" />
        <path d="M 560 656.818 L 570 656.818" />
        <path d="M 560 867.727 L 570 867.727" />
        <path d="M 560 643.636 L 570 643.636" />
        <path d="M 560 775.455 L 570 775.455" />
        <path d="M 560 788.636 L 570 788.636" />
        <path d="M 560 577.727 L 570 577.727" />
        <path d="M 560 815 L 570 815" />
        <path d="M 560 762.273 L 580 762.273" />
        <text font-size="30" transform="translate(550, 763.773)" text-anchor="end" dominant-baseline="middle" stroke="none" fill="black">1.5</text>
        <path d="M 560 801.818 L 570 801.818" />
        <path d="M 560 735.909 L 570 735.909" />
        <path d="M 560 907.273 L 570 907.273" />
        <path d="M 560 590.909 L 570 590.909" />
        <path d="M 560 841.364 L 570 841.364" />
        <path d="M 560 749.091 L 570 749.091" />
        <path d="M 560 933.636 L 570 933.636" />
        <path d="M 560 604.091 L 570 604.091" />
        <path d="M 560 551.364 L 570 551.364" />
        <path d="M 560 683.182 L 570 683.182" />
        <path d="M 560 538.182 L 570 538.182" />
    </g>
    <g id="frame_3_topticks">
        <path d="M 767.5 525 L 767.5 535" />
        <path d="M 560 525 L 560 545" />
        <path d="M 726 525 L 726 545" />
        <path d="M 601.5 525 L 601.5 535" />
        <path d="M 975 525 L 975 545" />
        <path d="M 643 525 L 643 545" />
        <path d="M 809 525 L 809 545" />
        <path d="M 684.5 525 L 684.5 535" />
        <path d="M 892 525 L 892 545" />
        <path d="M 933.5 525 L 933.5 535" />
        <path d="M 850.5 525 L 850.5 535" />
    </g>
    <g id="frame_3_rightticks">
        <path d="M 975 960 L 955 960" />
        <path d="M 975 894.091 L 955 894.091" />
        <path d="M 975 722.727 L 965 722.727" />
        <path d="M 975 564.545 L 955 564.545" />
        <path d="M 975 880.909 L 965 880.909" />
        <path d="M 975 630.455 L 955 630.455" />
        <path d="M 975 828.182 L 955 828.182" />
        <path d="M 975 946.818 L 965 946.818" />
        <path d="M 975 617.273 L 965 617.273" />
        <path d="M 975 696.364 L 955 696.364" />
        <path d="M 975 670 L 965 670" />
        <path d="M 975 920.455 L 965 920.455" />
        <path d="M 975 709.545 L 965 709.545" />
        <path d="M 975 854.545 L 965 854.545" />
        <path d="M 975 656.818 L 965 656.818" />
        <path d="M 975 867.727 L 965 867.727" />
        <path d="M 975 643.636 L 965 643.636" />
        <path d="M 975 775.455 L 965 775.455" />
        <path d="M 975 788.636 L 965 788.636" />
        <path d="M 975 577.727 L 965 577.727" />
        <path d="M 975 815 L 965 815" />
        <path d="M 975 762.273 L 955 762.273" />
        <path d="M 975 801.818 L 965 801.818" />
        <path d="M 975 735.909 L 965 735.909" />
        <path d="M 975 907.273 L 965 907.273" />
        <path d="M 975 590.909 L 965 590.909" />
        <path d="M 975 841.364 L 965 841.364" />
        <path d="M 975 749.091 L 965 749.091" />
        <path d="M 975 933.636 L 965 933.636" />
        <path d="M 975 604.091 L 965 604.091" />
        <path d="M 975 551.364 L 965 551.364" />
        <path d="M 975 683.182 L 965 683.182" />
        <path d="M 975 538.182 L 965 538.182" />
    </g>
</g>
</g>
</svg>
