<?xml version="1.0" standalone="no"?>
<!DOCTYPE svg PUBLIC "-//W3C//DTD SVG 1.1//EN" "http://www.w3.org/Graphics/SVG/1.1/DTD/svg11.dtd">
<svg style="stroke-linejoin:miter; stroke:black; stroke-width:2.5; text-anchor:middle; fill:none" xmlns="http://www.w3.org/2000/svg" font-family="Helvetica, Arial, FreeSans, Sans, sans, sans-serif" width="1000px" height="1000px" version="1.1" xmlns:xlink="http://www.w3.org/1999/xlink" viewBox="0 0 1000 1000">
<defs>
    <clipPath id="Legend_0_clip">
        <rect x="618" y="50" width="332" height="115" />
    </clipPath>
    <circle id="Legend_0_mark_0" cx="0" cy="0" r="7.5" stroke="none" stroke-opacity="1" fill="black" fill-opacity="1" />
</defs>
<g id="whole_document">
<rect id="background" x="0" y="0" width="1000" height="1000" stroke="none" fill="white" />
<g id="frame_0">
    <rect id="frame_0_border" x="120" y="50" width="830" height="870" />
    <g id="frame_0_bottomticks">
        <path d="M 535 920 L 535 910" />
        <path d="M 189.167 920 L 189.167 900" />
        <text font-size="30" transform="translate(189.167, 950)" text-anchor="middle" dominant-baseline="middle" stroke="none" fill="black">0</text>
        <path d="M 950 920 L 950 910" />
        <path d="M 258.333 920 L 258.333 910" />
        <path d="M 880.833 920 L 880.833 900" />
        <text font-size="30" transform="translate(880.833, 950)" text-anchor="middle" dominant-baseline="middle" stroke="none" fill="black">1</text>
        <path d="M 742.5 920 L 742.5 900" />
        <text font-size="30" transform="translate(742.5, 950)" text-anchor="middle" dominant-baseline="middle" stroke="none" fill="black">0.8</text>
        <path d="M 604.167 920 L 604.167 900" />
        <text font-size="30" transform="translate(604.167, 950)" text-anchor="middle" dominant-baseline="middle" stroke="none" fill="black">0.6</text>
        <path d="M 396.667 920 L 396.667 910" />
        <path d="M 465.833 920 L 465.833 900" />
        <text font-size="30" transform="translate(465.833, 950)" text-anchor="middle" dominant-baseline="middle" stroke="none" fill="black">0.4</text>
        <path d="M 811.667 920 L 811.667 910" />
        <path d="M 673.333 920 L 673.333 910" />
        <path d="M 120 920 L 120 910" />
        <path d="M 327.5 920 L 327.5 900" />
        <text font-size="30" transform="translate(327.5, 950)" text-anchor="middle" dominant-baseline="middle" stroke="none" fill="black">0.2</text>
    </g>
    <g id="frame_0_leftticks">
        <path d="M 120 485 L 130 485" />
        <path d="M 120 847.5 L 140 847.5" />
        <text font-size="30" transform="translate(110, 857.5)" text-anchor="end" dominant-baseline="middle" stroke="none" fill="black">0</text>
        <path d="M 120 50 L 130 50" />
        <path d="M 120 775 L 130 775" />
        <path d="M 120 122.5 L 140 122.5" />
        <text font-size="30" transform="translate(110, 132.5)" text-anchor="end" dominant-baseline="middle" stroke="none" fill="black">1</text>
        <path d="M 120 267.5 L 140 267.5" />
        <text font-size="30" transform="translate(110, 277.5)" text-anchor="end" dominant-baseline="middle" stroke="none" fill="black">0.8</text>
        <path d="M 120 412.5 L 140 412.5" />
        <text font-size="30" transform="translate(110, 422.5)" text-anchor="end" dominant-baseline="middle" stroke="none" fill="black">0.6</text>
        <path d="M 120 630 L 130 630" />
        <path d="M 120 557.5 L 140 557.5" />
        <text font-size="30" transform="translate(110, 567.5)" text-anchor="end" dominant-baseline="middle" stroke="none" fill="black">0.4</text>
        <path d="M 120 195 L 130 195" />
        <path d="M 120 340 L 130 340" />
        <path d="M 120 920 L 130 920" />
        <path d="M 120 702.5 L 140 702.5" />
        <text font-size="30" transform="translate(110, 712.5)" text-anchor="end" dominant-baseline="middle" stroke="none" fill="black">0.2</text>
    </g>
    <g id="frame_0_topticks">
        <path d="M 535 50 L 535 60" />
        <path d="M 189.167 50 L 189.167 70" />
        <path d="M 950 50 L 950 60" />
        <path d="M 258.333 50 L 258.333 60" />
        <path d="M 880.833 50 L 880.833 70" />
        <path d="M 742.5 50 L 742.5 70" />
        <path d="M 604.167 50 L 604.167 70" />
        <path d="M 396.667 50 L 396.667 60" />
        <path d="M 465.833 50 L 465.833 70" />
        <path d="M 811.667 50 L 811.667 60" />
        <path d="M 673.333 50 L 673.333 60" />
        <path d="M 120 50 L 120 60" />
        <path d="M 327.5 50 L 327.5 70" />
    </g>
    <g id="frame_0_rightticks">
        <path d="M 950 485 L 940 485" />
        <path d="M 950 847.5 L 930 847.5" />
        <path d="M 950 50 L 940 50" />
        <path d="M 950 775 L 940 775" />
        <path d="M 950 122.5 L 930 122.5" />
        <path d="M 950 267.5 L 930 267.5" />
        <path d="M 950 412.5 L 930 412.5" />
        <path d="M 950 630 L 940 630" />
        <path d="M 950 557.5 L 930 557.5" />
        <path d="M 950 195 L 940 195" />
        <path d="M 950 340 L 940 340" />
        <path d="M 950 920 L 940 920" />
        <path d="M 950 702.5 L 930 702.5" />
    </g>
</g>
<g id="Legend_0">
    <rect x="618" y="50" width="332" height="115" stroke-width="3" stroke-dasharray="" stroke="black" stroke-opacity="1" fill="white" fill-opacity="1" />
    <g id="Legend_0_content" clip-path="url(#Legend_0_clip)">
        <use x="701" y="71.875" xlink:href="#Legend_0_mark_0" />
        <text font-size="30" transform="translate(784, 85)" text-anchor="start" dominant-baseline="middle" stroke="none" fill="black">dataset</text>
        <rect x="674.75" y="93.75" width="52.5" height="26.25" stroke-width="3" stroke-dasharray="" stroke="black" stroke-opacity="1" fill="lightblue" fill-opacity="1" />
        <text font-size="30" transform="translate(784, 120)" text-anchor="start" dominant-baseline="middle" stroke="none" fill="black">histogram</text>
        <line x1="674.75" y1="144.5" x2="727.25" y2="144.5" stroke-width="3" stroke-dasharray="" stroke="red" stroke-opacity="1" />
        <text font-size="30" transform="translate(784, 155)" text-anchor="start" dominant-baseline="middle" stroke="none" fill="black">curve</text>
    </g>
</g>
</g>
</svg>
