<?xml version="1.0" standalone="no"?>
<!DOCTYPE svg PUBLIC "-//W3C//DTD SVG 1.1//EN" "http://www.w3.org/Graphics/SVG/1.1/DTD/svg11.dtd">
<svg style="stroke-linejoin:miter; stroke:black; stroke-width:2.5; text-anchor:middle; fill:none" xmlns="http://www.w3.org/2000/svg" font-family="Helvetica, Arial, FreeSans, Sans, sans, sans-serif" width="1000px" height="1000px" version="1.1" xmlns:xlink="http://www.w3.org/1999/xlink" viewBox="0 0 1000 1000">
<defs>
    <clipPath id="Histogram_0_clip">
        <rect x="60" y="25" width="415" height="435" />
    </clipPath>
    <clipPath id="Histogram_1_clip">
        <rect x="60" y="25" width="415" height="435" />
    </clipPath>
    <clipPath id="Histogram_2_clip">
        <rect x="560" y="25" width="415" height="435" />
    </clipPath>
    <clipPath id="Histogram_3_clip">
        <rect x="560" y="25" width="415" height="435" />
    </clipPath>
    <clipPath id="Histogram_4_clip">
        <rect x="60" y="525" width="415" height="435" />
    </clipPath>
    <clipPath id="Histogram_5_clip">
        <rect x="60" y="525" width="415" height="435" />
    </clipPath>
    <clipPath id="Histogram_6_clip">
        <rect x="560" y="525" width="415" height="435" />
    </clipPath>
    <clipPath id="Histogram_7_clip">
        <rect x="560" y="525" width="415" height="435" />
    </clipPath>
</defs>
<g id="whole_document">
<rect id="background" x="0" y="0" width="1000" height="1000" stroke="none" fill="white" />
<g id="Histogram_0" clip-path="url(#Histogram_0_clip)">
    <path d="M 94.5833 423.75 L 94.5833 413.886 L 96.3125 413.886 L 96.3125 413.886 L 98.0417 413.886 L 98.0417 411.42 L 99.7708 411.42 L 99.7708 410.187 L 101.5 410.187 L 101.5 392.925 L 103.229 392.925 L 103.229 399.09 L 104.958 399.09 L 104.958 404.022 L 106.688 404.022 L 106.688 399.09 L 108.417 399.09 L 108.417 391.692 L 110.146 391.692 L 110.146 379.362 L 111.875 379.362 L 111.875 362.1 L 113.604 362.1 L 113.604 362.1 L 115.333 362.1 L 115.333 367.032 L 117.062 367.032 L 117.062 349.77 L 118.792 349.77 L 118.792 354.702 L 120.521 354.702 L 120.521 321.412 L 122.25 321.412 L 122.25 322.645 L 123.979 322.645 L 123.979 305.383 L 125.708 305.383 L 125.708 306.616 L 127.437 306.616 L 127.437 297.985 L 129.167 297.985 L 129.167 299.218 L 130.896 299.218 L 130.896 290.587 L 132.625 290.587 L 132.625 251.131 L 134.354 251.131 L 134.354 256.063 L 136.083 256.063 L 136.083 247.432 L 137.812 247.432 L 137.812 203.044 L 139.542 203.044 L 139.542 242.5 L 141.271 242.5 L 141.271 201.811 L 143 201.811 L 143 177.151 L 144.729 177.151 L 144.729 184.549 L 146.458 184.549 L 146.458 138.929 L 148.188 138.929 L 148.188 131.531 L 149.917 131.531 L 149.917 131.531 L 151.646 131.531 L 151.646 105.638 L 153.375 105.638 L 153.375 108.104 L 155.104 108.104 L 155.104 95.7738 L 156.833 95.7738 L 156.833 61.25 L 158.562 61.25 L 158.562 88.3759 L 160.292 88.3759 L 160.292 115.502 L 162.021 115.502 L 162.021 108.104 L 163.75 108.104 L 163.75 133.997 L 165.479 133.997 L 165.479 115.502 L 167.208 115.502 L 167.208 87.1429 L 168.938 87.1429 L 168.938 85.9099 L 170.667 85.9099 L 170.667 92.0748 L 172.396 92.0748 L 172.396 97.0068 L 174.125 97.0068 L 174.125 133.997 L 175.854 133.997 L 175.854 125.366 L 177.583 125.366 L 177.583 126.599 L 179.312 126.599 L 179.312 140.162 L 181.042 140.162 L 181.042 210.442 L 182.771 210.442 L 182.771 150.026 L 184.5 150.026 L 184.5 210.442 L 186.229 210.442 L 186.229 215.374 L 187.958 215.374 L 187.958 232.636 L 189.687 232.636 L 189.687 221.539 L 191.417 221.539 L 191.417 254.83 L 193.146 254.83 L 193.146 237.568 L 194.875 237.568 L 194.875 286.888 L 196.604 286.888 L 196.604 286.888 L 198.333 286.888 L 198.333 312.781 L 200.062 312.781 L 200.062 293.053 L 201.792 293.053 L 201.792 301.684 L 203.521 301.684 L 203.521 326.344 L 205.25 326.344 L 205.25 326.344 L 206.979 326.344 L 206.979 358.401 L 208.708 358.401 L 208.708 362.1 L 210.438 362.1 L 210.438 355.935 L 212.167 355.935 L 212.167 375.663 L 213.896 375.663 L 213.896 362.1 L 215.625 362.1 L 215.625 378.129 L 217.354 378.129 L 217.354 379.362 L 219.083 379.362 L 219.083 404.022 L 220.812 404.022 L 220.812 399.09 L 222.542 399.09 L 222.542 402.789 L 224.271 402.789 L 224.271 405.255 L 226 405.255 L 226 415.119 L 227.729 415.119 L 227.729 415.119 L 229.458 415.119 L 229.458 415.119 L 231.187 415.119 L 231.187 408.954 L 232.917 408.954 L 232.917 420.051 L 234.646 420.051 L 234.646 417.585 L 236.375 417.585 L 236.375 411.42 L 238.104 411.42 L 238.104 418.818 L 239.833 418.818 L 239.833 422.517 L 241.562 422.517 L 241.562 422.517 L 243.292 422.517 L 243.292 421.284 L 245.021 421.284 L 245.021 420.051 L 246.75 420.051 L 246.75 421.284 L 248.479 421.284 L 248.479 422.517 L 250.208 422.517 L 250.208 421.284 L 251.938 421.284 L 251.938 423.75 L 253.667 423.75 L 253.667 422.517 L 255.396 422.517 L 255.396 422.517 L 257.125 422.517 L 257.125 423.75 L 258.854 423.75 L 258.854 423.75 L 260.583 423.75 L 260.583 423.75 L 262.312 423.75 L 262.312 423.75 L 264.042 423.75 L 264.042 423.75 L 265.771 423.75 L 265.771 423.75 L 267.5 423.75 L 267.5 423.75" stroke-width="3" stroke-dasharray="" stroke="black" stroke-opacity="1" fill="lightblue" fill-opacity="1" />
</g>
<g id="Histogram_1" clip-path="url(#Histogram_1_clip)">
    <path d="M 94.5833 423.75 L 94.5833 399.09 L 98.0417 399.09 L 98.0417 401.556 L 101.5 401.556 L 101.5 397.857 L 104.958 397.857 L 104.958 384.294 L 108.417 384.294 L 108.417 375.663 L 111.875 375.663 L 111.875 373.197 L 115.333 373.197 L 115.333 367.032 L 118.792 367.032 L 118.792 353.469 L 122.25 353.469 L 122.25 349.77 L 125.708 349.77 L 125.708 353.469 L 129.167 353.469 L 129.167 331.276 L 132.625 331.276 L 132.625 328.81 L 136.083 328.81 L 136.083 304.15 L 139.542 304.15 L 139.542 325.111 L 143 325.111 L 143 314.014 L 146.458 314.014 L 146.458 290.587 L 149.917 290.587 L 149.917 254.83 L 153.375 254.83 L 153.375 254.83 L 156.833 254.83 L 156.833 243.733 L 160.292 243.733 L 160.292 230.17 L 163.75 230.17 L 163.75 221.539 L 167.208 221.539 L 167.208 198.112 L 170.667 198.112 L 170.667 188.248 L 174.125 188.248 L 174.125 179.617 L 177.583 179.617 L 177.583 166.054 L 181.042 166.054 L 181.042 169.753 L 184.5 169.753 L 184.5 141.395 L 187.958 141.395 L 187.958 131.531 L 191.417 131.531 L 191.417 80.9779 L 194.875 80.9779 L 194.875 131.531 L 198.333 131.531 L 198.333 131.531 L 201.792 131.531 L 201.792 127.832 L 205.25 127.832 L 205.25 74.8129 L 208.708 74.8129 L 208.708 122.9 L 212.167 122.9 L 212.167 77.2789 L 215.625 77.2789 L 215.625 92.0748 L 219.083 92.0748 L 219.083 76.0459 L 222.542 76.0459 L 222.542 93.3078 L 226 93.3078 L 226 87.1429 L 229.458 87.1429 L 229.458 94.5408 L 232.917 94.5408 L 232.917 121.667 L 236.375 121.667 L 236.375 117.968 L 239.833 117.968 L 239.833 154.957 L 243.292 154.957 L 243.292 143.861 L 246.75 143.861 L 246.75 163.588 L 250.208 163.588 L 250.208 175.918 L 253.667 175.918 L 253.667 158.656 L 257.125 158.656 L 257.125 212.908 L 260.583 212.908 L 260.583 194.413 L 264.042 194.413 L 264.042 225.238 L 267.5 225.238 L 267.5 241.267 L 270.958 241.267 L 270.958 251.131 L 274.417 251.131 L 274.417 233.869 L 277.875 233.869 L 277.875 267.16 L 281.333 267.16 L 281.333 297.985 L 284.792 297.985 L 284.792 302.917 L 288.25 302.917 L 288.25 296.752 L 291.708 296.752 L 291.708 346.071 L 295.167 346.071 L 295.167 331.276 L 298.625 331.276 L 298.625 321.412 L 302.083 321.412 L 302.083 359.634 L 305.542 359.634 L 305.542 365.799 L 309 365.799 L 309 360.867 L 312.458 360.867 L 312.458 367.032 L 315.917 367.032 L 315.917 386.76 L 319.375 386.76 L 319.375 373.197 L 322.833 373.197 L 322.833 383.061 L 326.292 383.061 L 326.292 400.323 L 329.75 400.323 L 329.75 396.624 L 333.208 396.624 L 333.208 392.925 L 336.667 392.925 L 336.667 410.187 L 340.125 410.187 L 340.125 404.022 L 343.583 404.022 L 343.583 413.886 L 347.042 413.886 L 347.042 412.653 L 350.5 412.653 L 350.5 412.653 L 353.958 412.653 L 353.958 413.886 L 357.417 413.886 L 357.417 421.284 L 360.875 421.284 L 360.875 418.818 L 364.333 418.818 L 364.333 421.284 L 367.792 421.284 L 367.792 418.818 L 371.25 418.818 L 371.25 421.284 L 374.708 421.284 L 374.708 420.051 L 378.167 420.051 L 378.167 423.75 L 381.625 423.75 L 381.625 423.75 L 385.083 423.75 L 385.083 423.75 L 388.542 423.75 L 388.542 422.517 L 392 422.517 L 392 423.75 L 395.458 423.75 L 395.458 421.284 L 398.917 421.284 L 398.917 423.75 L 402.375 423.75 L 402.375 423.75 L 405.833 423.75 L 405.833 423.75 L 409.292 423.75 L 409.292 423.75 L 412.75 423.75 L 412.75 423.75 L 416.208 423.75 L 416.208 423.75 L 419.667 423.75 L 419.667 423.75 L 423.125 423.75 L 423.125 423.75 L 426.583 423.75 L 426.583 423.75 L 430.042 423.75 L 430.042 423.75 L 433.5 423.75 L 433.5 423.75 L 436.958 423.75 L 436.958 423.75 L 440.417 423.75 L 440.417 423.75" stroke-width="3" stroke-dasharray="" stroke="black" stroke-opacity="1" fill="pink" fill-opacity="1" />
</g>
<g id="frame_0">
    <rect id="frame_0_border" x="60" y="25" width="415" height="435" />
    <g id="frame_0_bottomticks">
        <path d="M 94.5833 460 L 94.5833 440" />
        <text font-size="30" transform="translate(94.5833, 490)" text-anchor="middle" dominant-baseline="middle" stroke="none" fill="black">0</text>
        <path d="M 181.042 460 L 181.042 440" />
        <text font-size="30" transform="translate(181.042, 490)" text-anchor="middle" dominant-baseline="middle" stroke="none" fill="black">0.5</text>
        <path d="M 405.833 460 L 405.833 450" />
        <path d="M 198.333 460 L 198.333 450" />
        <path d="M 353.958 460 L 353.958 440" />
        <text font-size="30" transform="translate(353.958, 490)" text-anchor="middle" dominant-baseline="middle" stroke="none" fill="black">1.5</text>
        <path d="M 267.5 460 L 267.5 440" />
        <text font-size="30" transform="translate(267.5, 490)" text-anchor="middle" dominant-baseline="middle" stroke="none" fill="black">1</text>
        <path d="M 302.083 460 L 302.083 450" />
        <path d="M 440.417 460 L 440.417 440" />
        <text font-size="30" transform="translate(440.417, 490)" text-anchor="middle" dominant-baseline="middle" stroke="none" fill="black">2</text>
        <path d="M 388.542 460 L 388.542 450" />
        <path d="M 111.875 460 L 111.875 450" />
        <path d="M 146.458 460 L 146.458 450" />
        <path d="M 336.667 460 L 336.667 450" />
        <path d="M 423.125 460 L 423.125 450" />
        <path d="M 60 460 L 60 450" />
        <path d="M 371.25 460 L 371.25 450" />
        <path d="M 215.625 460 L 215.625 450" />
        <path d="M 129.167 460 L 129.167 450" />
        <path d="M 163.75 460 L 163.75 450" />
        <path d="M 250.208 460 L 250.208 450" />
        <path d="M 319.375 460 L 319.375 450" />
        <path d="M 284.792 460 L 284.792 450" />
        <path d="M 457.708 460 L 457.708 450" />
        <path d="M 232.917 460 L 232.917 450" />
        <path d="M 77.2917 460 L 77.2917 450" />
    </g>
    <g id="frame_0_leftticks">
        <path d="M 60 423.75 L 80 423.75" />
        <text font-size="30" transform="translate(50, 433.75)" text-anchor="end" dominant-baseline="middle" stroke="none" fill="black">0</text>
        <path d="M 60 263.461 L 70 263.461" />
        <path d="M 60 103.172 L 70 103.172" />
        <path d="M 60 411.42 L 70 411.42" />
        <path d="M 60 251.131 L 70 251.131" />
        <path d="M 60 90.8418 L 70 90.8418" />
        <path d="M 60 399.09 L 70 399.09" />
        <path d="M 60 238.801 L 80 238.801" />
        <text font-size="30" transform="translate(50, 248.801)" text-anchor="end" dominant-baseline="middle" stroke="none" fill="black">150</text>
        <path d="M 60 78.5119 L 70 78.5119" />
        <path d="M 60 386.76 L 70 386.76" />
        <path d="M 60 226.471 L 70 226.471" />
        <path d="M 60 66.182 L 70 66.182" />
        <path d="M 60 374.43 L 70 374.43" />
        <path d="M 60 214.141 L 70 214.141" />
        <path d="M 60 53.852 L 80 53.852" />
        <text font-size="30" transform="translate(50, 63.852)" text-anchor="end" dominant-baseline="middle" stroke="none" fill="black">300</text>
        <path d="M 60 362.1 L 80 362.1" />
        <text font-size="30" transform="translate(50, 372.1)" text-anchor="end" dominant-baseline="middle" stroke="none" fill="black">50</text>
        <path d="M 60 201.811 L 70 201.811" />
        <path d="M 60 41.5221 L 70 41.5221" />
        <path d="M 60 349.77 L 70 349.77" />
        <path d="M 60 189.481 L 70 189.481" />
        <path d="M 60 29.1922 L 70 29.1922" />
        <path d="M 60 337.44 L 70 337.44" />
        <path d="M 60 177.151 L 80 177.151" />
        <text font-size="30" transform="translate(50, 187.151)" text-anchor="end" dominant-baseline="middle" stroke="none" fill="black">200</text>
        <path d="M 60 325.111 L 70 325.111" />
        <path d="M 60 164.821 L 70 164.821" />
        <path d="M 60 312.781 L 70 312.781" />
        <path d="M 60 152.491 L 70 152.491" />
        <path d="M 60 300.451 L 80 300.451" />
        <text font-size="30" transform="translate(50, 310.451)" text-anchor="end" dominant-baseline="middle" stroke="none" fill="black">100</text>
        <path d="M 60 140.162 L 70 140.162" />
        <path d="M 60 448.41 L 70 448.41" />
        <path d="M 60 288.121 L 70 288.121" />
        <path d="M 60 127.832 L 70 127.832" />
        <path d="M 60 436.08 L 70 436.08" />
        <path d="M 60 275.791 L 70 275.791" />
        <path d="M 60 115.502 L 80 115.502" />
        <text font-size="30" transform="translate(50, 125.502)" text-anchor="end" dominant-baseline="middle" stroke="none" fill="black">250</text>
    </g>
    <g id="frame_0_topticks">
        <path d="M 94.5833 25 L 94.5833 45" />
        <path d="M 181.042 25 L 181.042 45" />
        <path d="M 405.833 25 L 405.833 35" />
        <path d="M 198.333 25 L 198.333 35" />
        <path d="M 353.958 25 L 353.958 45" />
        <path d="M 267.5 25 L 267.5 45" />
        <path d="M 302.083 25 L 302.083 35" />
        <path d="M 440.417 25 L 440.417 45" />
        <path d="M 388.542 25 L 388.542 35" />
        <path d="M 111.875 25 L 111.875 35" />
        <path d="M 146.458 25 L 146.458 35" />
        <path d="M 336.667 25 L 336.667 35" />
        <path d="M 423.125 25 L 423.125 35" />
        <path d="M 60 25 L 60 35" />
        <path d="M 371.25 25 L 371.25 35" />
        <path d="M 215.625 25 L 215.625 35" />
        <path d="M 129.167 25 L 129.167 35" />
        <path d="M 163.75 25 L 163.75 35" />
        <path d="M 250.208 25 L 250.208 35" />
        <path d="M 319.375 25 L 319.375 35" />
        <path d="M 284.792 25 L 284.792 35" />
        <path d="M 457.708 25 L 457.708 35" />
        <path d="M 232.917 25 L 232.917 35" />
        <path d="M 77.2917 25 L 77.2917 35" />
    </g>
    <g id="frame_0_rightticks">
        <path d="M 475 423.75 L 455 423.75" />
        <path d="M 475 263.461 L 465 263.461" />
        <path d="M 475 103.172 L 465 103.172" />
        <path d="M 475 411.42 L 465 411.42" />
        <path d="M 475 251.131 L 465 251.131" />
        <path d="M 475 90.8418 L 465 90.8418" />
        <path d="M 475 399.09 L 465 399.09" />
        <path d="M 475 238.801 L 455 238.801" />
        <path d="M 475 78.5119 L 465 78.5119" />
        <path d="M 475 386.76 L 465 386.76" />
        <path d="M 475 226.471 L 465 226.471" />
        <path d="M 475 66.182 L 465 66.182" />
        <path d="M 475 374.43 L 465 374.43" />
        <path d="M 475 214.141 L 465 214.141" />
        <path d="M 475 53.852 L 455 53.852" />
        <path d="M 475 362.1 L 455 362.1" />
        <path d="M 475 201.811 L 465 201.811" />
        <path d="M 475 41.5221 L 465 41.5221" />
        <path d="M 475 349.77 L 465 349.77" />
        <path d="M 475 189.481 L 465 189.481" />
        <path d="M 475 29.1922 L 465 29.1922" />
        <path d="M 475 337.44 L 465 337.44" />
        <path d="M 475 177.151 L 455 177.151" />
        <path d="M 475 325.111 L 465 325.111" />
        <path d="M 475 164.821 L 465 164.821" />
        <path d="M 475 312.781 L 465 312.781" />
        <path d="M 475 152.491 L 465 152.491" />
        <path d="M 475 300.451 L 455 300.451" />
        <path d="M 475 140.162 L 465 140.162" />
        <path d="M 475 448.41 L 465 448.41" />
        <path d="M 475 288.121 L 465 288.121" />
        <path d="M 475 127.832 L 465 127.832" />
        <path d="M 475 436.08 L 465 436.08" />
        <path d="M 475 275.791 L 465 275.791" />
        <path d="M 475 115.502 L 455 115.502" />
    </g>
</g>
<g id="Histogram_2" clip-path="url(#Histogram_2_clip)">
    <path d="M 594.583 423.75 L 594.583 399.09 L 598.042 399.09 L 598.042 401.556 L 601.5 401.556 L 601.5 397.857 L 604.958 397.857 L 604.958 384.294 L 608.417 384.294 L 608.417 375.663 L 611.875 375.663 L 611.875 373.197 L 615.333 373.197 L 615.333 367.032 L 618.792 367.032 L 618.792 353.469 L 622.25 353.469 L 622.25 349.77 L 625.708 349.77 L 625.708 353.469 L 629.167 353.469 L 629.167 331.276 L 632.625 331.276 L 632.625 328.81 L 636.083 328.81 L 636.083 304.15 L 639.542 304.15 L 639.542 325.111 L 643 325.111 L 643 314.014 L 646.458 314.014 L 646.458 290.587 L 649.917 290.587 L 649.917 254.83 L 653.375 254.83 L 653.375 254.83 L 656.833 254.83 L 656.833 243.733 L 660.292 243.733 L 660.292 230.17 L 663.75 230.17 L 663.75 221.539 L 667.208 221.539 L 667.208 198.112 L 670.667 198.112 L 670.667 188.248 L 674.125 188.248 L 674.125 179.617 L 677.583 179.617 L 677.583 166.054 L 681.042 166.054 L 681.042 169.753 L 684.5 169.753 L 684.5 141.395 L 687.958 141.395 L 687.958 131.531 L 691.417 131.531 L 691.417 80.9779 L 694.875 80.9779 L 694.875 131.531 L 698.333 131.531 L 698.333 131.531 L 701.792 131.531 L 701.792 127.832 L 705.25 127.832 L 705.25 74.8129 L 708.708 74.8129 L 708.708 122.9 L 712.167 122.9 L 712.167 77.2789 L 715.625 77.2789 L 715.625 92.0748 L 719.083 92.0748 L 719.083 76.0459 L 722.542 76.0459 L 722.542 93.3078 L 726 93.3078 L 726 87.1429 L 729.458 87.1429 L 729.458 94.5408 L 732.917 94.5408 L 732.917 121.667 L 736.375 121.667 L 736.375 117.968 L 739.833 117.968 L 739.833 154.957 L 743.292 154.957 L 743.292 143.861 L 746.75 143.861 L 746.75 163.588 L 750.208 163.588 L 750.208 175.918 L 753.667 175.918 L 753.667 158.656 L 757.125 158.656 L 757.125 212.908 L 760.583 212.908 L 760.583 194.413 L 764.042 194.413 L 764.042 225.238 L 767.5 225.238 L 767.5 241.267 L 770.958 241.267 L 770.958 251.131 L 774.417 251.131 L 774.417 233.869 L 777.875 233.869 L 777.875 267.16 L 781.333 267.16 L 781.333 297.985 L 784.792 297.985 L 784.792 302.917 L 788.25 302.917 L 788.25 296.752 L 791.708 296.752 L 791.708 346.071 L 795.167 346.071 L 795.167 331.276 L 798.625 331.276 L 798.625 321.412 L 802.083 321.412 L 802.083 359.634 L 805.542 359.634 L 805.542 365.799 L 809 365.799 L 809 360.867 L 812.458 360.867 L 812.458 367.032 L 815.917 367.032 L 815.917 386.76 L 819.375 386.76 L 819.375 373.197 L 822.833 373.197 L 822.833 383.061 L 826.292 383.061 L 826.292 400.323 L 829.75 400.323 L 829.75 396.624 L 833.208 396.624 L 833.208 392.925 L 836.667 392.925 L 836.667 410.187 L 840.125 410.187 L 840.125 404.022 L 843.583 404.022 L 843.583 413.886 L 847.042 413.886 L 847.042 412.653 L 850.5 412.653 L 850.5 412.653 L 853.958 412.653 L 853.958 413.886 L 857.417 413.886 L 857.417 421.284 L 860.875 421.284 L 860.875 418.818 L 864.333 418.818 L 864.333 421.284 L 867.792 421.284 L 867.792 418.818 L 871.25 418.818 L 871.25 421.284 L 874.708 421.284 L 874.708 420.051 L 878.167 420.051 L 878.167 423.75 L 881.625 423.75 L 881.625 423.75 L 885.083 423.75 L 885.083 423.75 L 888.542 423.75 L 888.542 422.517 L 892 422.517 L 892 423.75 L 895.458 423.75 L 895.458 421.284 L 898.917 421.284 L 898.917 423.75 L 902.375 423.75 L 902.375 423.75 L 905.833 423.75 L 905.833 423.75 L 909.292 423.75 L 909.292 423.75 L 912.75 423.75 L 912.75 423.75 L 916.208 423.75 L 916.208 423.75 L 919.667 423.75 L 919.667 423.75 L 923.125 423.75 L 923.125 423.75 L 926.583 423.75 L 926.583 423.75 L 930.042 423.75 L 930.042 423.75 L 933.5 423.75 L 933.5 423.75 L 936.958 423.75 L 936.958 423.75 L 940.417 423.75 L 940.417 423.75" stroke-width="3" stroke-dasharray="" stroke="black" stroke-opacity="1" fill="pink" fill-opacity="1" />
</g>
<g id="Histogram_3" clip-path="url(#Histogram_3_clip)">
    <path d="M 594.583 423.75 L 594.583 413.886 L 596.312 413.886 L 596.312 413.886 L 598.042 413.886 L 598.042 411.42 L 599.771 411.42 L 599.771 410.187 L 601.5 410.187 L 601.5 392.925 L 603.229 392.925 L 603.229 399.09 L 604.958 399.09 L 604.958 404.022 L 606.688 404.022 L 606.688 399.09 L 608.417 399.09 L 608.417 391.692 L 610.146 391.692 L 610.146 379.362 L 611.875 379.362 L 611.875 362.1 L 613.604 362.1 L 613.604 362.1 L 615.333 362.1 L 615.333 367.032 L 617.062 367.032 L 617.062 349.77 L 618.792 349.77 L 618.792 354.702 L 620.521 354.702 L 620.521 321.412 L 622.25 321.412 L 622.25 322.645 L 623.979 322.645 L 623.979 305.383 L 625.708 305.383 L 625.708 306.616 L 627.438 306.616 L 627.438 297.985 L 629.167 297.985 L 629.167 299.218 L 630.896 299.218 L 630.896 290.587 L 632.625 290.587 L 632.625 251.131 L 634.354 251.131 L 634.354 256.063 L 636.083 256.063 L 636.083 247.432 L 637.812 247.432 L 637.812 203.044 L 639.542 203.044 L 639.542 242.5 L 641.271 242.5 L 641.271 201.811 L 643 201.811 L 643 177.151 L 644.729 177.151 L 644.729 184.549 L 646.458 184.549 L 646.458 138.929 L 648.188 138.929 L 648.188 131.531 L 649.917 131.531 L 649.917 131.531 L 651.646 131.531 L 651.646 105.638 L 653.375 105.638 L 653.375 108.104 L 655.104 108.104 L 655.104 95.7738 L 656.833 95.7738 L 656.833 61.25 L 658.562 61.25 L 658.562 88.3759 L 660.292 88.3759 L 660.292 115.502 L 662.021 115.502 L 662.021 108.104 L 663.75 108.104 L 663.75 133.997 L 665.479 133.997 L 665.479 115.502 L 667.208 115.502 L 667.208 87.1429 L 668.938 87.1429 L 668.938 85.9099 L 670.667 85.9099 L 670.667 92.0748 L 672.396 92.0748 L 672.396 97.0068 L 674.125 97.0068 L 674.125 133.997 L 675.854 133.997 L 675.854 125.366 L 677.583 125.366 L 677.583 126.599 L 679.312 126.599 L 679.312 140.162 L 681.042 140.162 L 681.042 210.442 L 682.771 210.442 L 682.771 150.026 L 684.5 150.026 L 684.5 210.442 L 686.229 210.442 L 686.229 215.374 L 687.958 215.374 L 687.958 232.636 L 689.688 232.636 L 689.688 221.539 L 691.417 221.539 L 691.417 254.83 L 693.146 254.83 L 693.146 237.568 L 694.875 237.568 L 694.875 286.888 L 696.604 286.888 L 696.604 286.888 L 698.333 286.888 L 698.333 312.781 L 700.062 312.781 L 700.062 293.053 L 701.792 293.053 L 701.792 301.684 L 703.521 301.684 L 703.521 326.344 L 705.25 326.344 L 705.25 326.344 L 706.979 326.344 L 706.979 358.401 L 708.708 358.401 L 708.708 362.1 L 710.438 362.1 L 710.438 355.935 L 712.167 355.935 L 712.167 375.663 L 713.896 375.663 L 713.896 362.1 L 715.625 362.1 L 715.625 378.129 L 717.354 378.129 L 717.354 379.362 L 719.083 379.362 L 719.083 404.022 L 720.812 404.022 L 720.812 399.09 L 722.542 399.09 L 722.542 402.789 L 724.271 402.789 L 724.271 405.255 L 726 405.255 L 726 415.119 L 727.729 415.119 L 727.729 415.119 L 729.458 415.119 L 729.458 415.119 L 731.188 415.119 L 731.188 408.954 L 732.917 408.954 L 732.917 420.051 L 734.646 420.051 L 734.646 417.585 L 736.375 417.585 L 736.375 411.42 L 738.104 411.42 L 738.104 418.818 L 739.833 418.818 L 739.833 422.517 L 741.562 422.517 L 741.562 422.517 L 743.292 422.517 L 743.292 421.284 L 745.021 421.284 L 745.021 420.051 L 746.75 420.051 L 746.75 421.284 L 748.479 421.284 L 748.479 422.517 L 750.208 422.517 L 750.208 421.284 L 751.938 421.284 L 751.938 423.75 L 753.667 423.75 L 753.667 422.517 L 755.396 422.517 L 755.396 422.517 L 757.125 422.517 L 757.125 423.75 L 758.854 423.75 L 758.854 423.75 L 760.583 423.75 L 760.583 423.75 L 762.312 423.75 L 762.312 423.75 L 764.042 423.75 L 764.042 423.75 L 765.771 423.75 L 765.771 423.75 L 767.5 423.75 L 767.5 423.75" stroke-width="3" stroke-dasharray="" stroke="black" stroke-opacity="1" fill="lightblue" fill-opacity="1" />
</g>
<g id="frame_1">
    <rect id="frame_1_border" x="560" y="25" width="415" height="435" />
    <g id="frame_1_bottomticks">
        <path d="M 594.583 460 L 594.583 440" />
        <text font-size="30" transform="translate(594.583, 490)" text-anchor="middle" dominant-baseline="middle" stroke="none" fill="black">0</text>
        <path d="M 681.042 460 L 681.042 440" />
        <text font-size="30" transform="translate(681.042, 490)" text-anchor="middle" dominant-baseline="middle" stroke="none" fill="black">0.5</text>
        <path d="M 905.833 460 L 905.833 450" />
        <path d="M 698.333 460 L 698.333 450" />
        <path d="M 853.958 460 L 853.958 440" />
        <text font-size="30" transform="translate(853.958, 490)" text-anchor="middle" dominant-baseline="middle" stroke="none" fill="black">1.5</text>
        <path d="M 767.5 460 L 767.5 440" />
        <text font-size="30" transform="translate(767.5, 490)" text-anchor="middle" dominant-baseline="middle" stroke="none" fill="black">1</text>
        <path d="M 802.083 460 L 802.083 450" />
        <path d="M 940.417 460 L 940.417 440" />
        <text font-size="30" transform="translate(940.417, 490)" text-anchor="middle" dominant-baseline="middle" stroke="none" fill="black">2</text>
        <path d="M 888.542 460 L 888.542 450" />
        <path d="M 611.875 460 L 611.875 450" />
        <path d="M 646.458 460 L 646.458 450" />
        <path d="M 836.667 460 L 836.667 450" />
        <path d="M 923.125 460 L 923.125 450" />
        <path d="M 560 460 L 560 450" />
        <path d="M 871.25 460 L 871.25 450" />
        <path d="M 715.625 460 L 715.625 450" />
        <path d="M 629.167 460 L 629.167 450" />
        <path d="M 663.75 460 L 663.75 450" />
        <path d="M 750.208 460 L 750.208 450" />
        <path d="M 819.375 460 L 819.375 450" />
        <path d="M 784.792 460 L 784.792 450" />
        <path d="M 957.708 460 L 957.708 450" />
        <path d="M 732.917 460 L 732.917 450" />
        <path d="M 577.292 460 L 577.292 450" />
    </g>
    <g id="frame_1_leftticks">
        <path d="M 560 423.75 L 580 423.75" />
        <text font-size="30" transform="translate(550, 433.75)" text-anchor="end" dominant-baseline="middle" stroke="none" fill="black">0</text>
        <path d="M 560 263.461 L 570 263.461" />
        <path d="M 560 103.172 L 570 103.172" />
        <path d="M 560 411.42 L 570 411.42" />
        <path d="M 560 251.131 L 570 251.131" />
        <path d="M 560 90.8418 L 570 90.8418" />
        <path d="M 560 399.09 L 570 399.09" />
        <path d="M 560 238.801 L 580 238.801" />
        <text font-size="30" transform="translate(550, 248.801)" text-anchor="end" dominant-baseline="middle" stroke="none" fill="black">150</text>
        <path d="M 560 78.5119 L 570 78.5119" />
        <path d="M 560 386.76 L 570 386.76" />
        <path d="M 560 226.471 L 570 226.471" />
        <path d="M 560 66.182 L 570 66.182" />
        <path d="M 560 374.43 L 570 374.43" />
        <path d="M 560 214.141 L 570 214.141" />
        <path d="M 560 53.852 L 580 53.852" />
        <text font-size="30" transform="translate(550, 63.852)" text-anchor="end" dominant-baseline="middle" stroke="none" fill="black">300</text>
        <path d="M 560 362.1 L 580 362.1" />
        <text font-size="30" transform="translate(550, 372.1)" text-anchor="end" dominant-baseline="middle" stroke="none" fill="black">50</text>
        <path d="M 560 201.811 L 570 201.811" />
        <path d="M 560 41.5221 L 570 41.5221" />
        <path d="M 560 349.77 L 570 349.77" />
        <path d="M 560 189.481 L 570 189.481" />
        <path d="M 560 29.1922 L 570 29.1922" />
        <path d="M 560 337.44 L 570 337.44" />
        <path d="M 560 177.151 L 580 177.151" />
        <text font-size="30" transform="translate(550, 187.151)" text-anchor="end" dominant-baseline="middle" stroke="none" fill="black">200</text>
        <path d="M 560 325.111 L 570 325.111" />
        <path d="M 560 164.821 L 570 164.821" />
        <path d="M 560 312.781 L 570 312.781" />
        <path d="M 560 152.491 L 570 152.491" />
        <path d="M 560 300.451 L 580 300.451" />
        <text font-size="30" transform="translate(550, 310.451)" text-anchor="end" dominant-baseline="middle" stroke="none" fill="black">100</text>
        <path d="M 560 140.162 L 570 140.162" />
        <path d="M 560 448.41 L 570 448.41" />
        <path d="M 560 288.121 L 570 288.121" />
        <path d="M 560 127.832 L 570 127.832" />
        <path d="M 560 436.08 L 570 436.08" />
        <path d="M 560 275.791 L 570 275.791" />
        <path d="M 560 115.502 L 580 115.502" />
        <text font-size="30" transform="translate(550, 125.502)" text-anchor="end" dominant-baseline="middle" stroke="none" fill="black">250</text>
    </g>
    <g id="frame_1_topticks">
        <path d="M 594.583 25 L 594.583 45" />
        <path d="M 681.042 25 L 681.042 45" />
        <path d="M 905.833 25 L 905.833 35" />
        <path d="M 698.333 25 L 698.333 35" />
        <path d="M 853.958 25 L 853.958 45" />
        <path d="M 767.5 25 L 767.5 45" />
        <path d="M 802.083 25 L 802.083 35" />
        <path d="M 940.417 25 L 940.417 45" />
        <path d="M 888.542 25 L 888.542 35" />
        <path d="M 611.875 25 L 611.875 35" />
        <path d="M 646.458 25 L 646.458 35" />
        <path d="M 836.667 25 L 836.667 35" />
        <path d="M 923.125 25 L 923.125 35" />
        <path d="M 560 25 L 560 35" />
        <path d="M 871.25 25 L 871.25 35" />
        <path d="M 715.625 25 L 715.625 35" />
        <path d="M 629.167 25 L 629.167 35" />
        <path d="M 663.75 25 L 663.75 35" />
        <path d="M 750.208 25 L 750.208 35" />
        <path d="M 819.375 25 L 819.375 35" />
        <path d="M 784.792 25 L 784.792 35" />
        <path d="M 957.708 25 L 957.708 35" />
        <path d="M 732.917 25 L 732.917 35" />
        <path d="M 577.292 25 L 577.292 35" />
    </g>
    <g id="frame_1_rightticks">
        <path d="M 975 423.75 L 955 423.75" />
        <path d="M 975 263.461 L 965 263.461" />
        <path d="M 975 103.172 L 965 103.172" />
        <path d="M 975 411.42 L 965 411.42" />
        <path d="M 975 251.131 L 965 251.131" />
        <path d="M 975 90.8418 L 965 90.8418" />
        <path d="M 975 399.09 L 965 399.09" />
        <path d="M 975 238.801 L 955 238.801" />
        <path d="M 975 78.5119 L 965 78.5119" />
        <path d="M 975 386.76 L 965 386.76" />
        <path d="M 975 226.471 L 965 226.471" />
        <path d="M 975 66.182 L 965 66.182" />
        <path d="M 975 374.43 L 965 374.43" />
        <path d="M 975 214.141 L 965 214.141" />
        <path d="M 975 53.852 L 955 53.852" />
        <path d="M 975 362.1 L 955 362.1" />
        <path d="M 975 201.811 L 965 201.811" />
        <path d="M 975 41.5221 L 965 41.5221" />
        <path d="M 975 349.77 L 965 349.77" />
        <path d="M 975 189.481 L 965 189.481" />
        <path d="M 975 29.1922 L 965 29.1922" />
        <path d="M 975 337.44 L 965 337.44" />
        <path d="M 975 177.151 L 955 177.151" />
        <path d="M 975 325.111 L 965 325.111" />
        <path d="M 975 164.821 L 965 164.821" />
        <path d="M 975 312.781 L 965 312.781" />
        <path d="M 975 152.491 L 965 152.491" />
        <path d="M 975 300.451 L 955 300.451" />
        <path d="M 975 140.162 L 965 140.162" />
        <path d="M 975 448.41 L 965 448.41" />
        <path d="M 975 288.121 L 965 288.121" />
        <path d="M 975 127.832 L 965 127.832" />
        <path d="M 975 436.08 L 965 436.08" />
        <path d="M 975 275.791 L 965 275.791" />
        <path d="M 975 115.502 L 955 115.502" />
    </g>
</g>
<g id="Histogram_4" clip-path="url(#Histogram_4_clip)">
    <path d="M 60 960 L 60 949.239 L 64.15 949.239 L 64.15 949.239 L 68.3 949.239 L 68.3 946.549 L 72.45 946.549 L 72.45 945.204 L 76.6 945.204 L 76.6 926.373 L 80.75 926.373 L 80.75 933.098 L 84.9 933.098 L 84.9 938.479 L 89.05 938.479 L 89.05 933.098 L 93.2 933.098 L 93.2 925.028 L 97.35 925.028 L 97.35 911.577 L 101.5 911.577 L 101.5 892.746 L 105.65 892.746 L 105.65 892.746 L 109.8 892.746 L 109.8 898.126 L 113.95 898.126 L 113.95 879.295 L 118.1 879.295 L 118.1 884.675 L 122.25 884.675 L 122.25 848.358 L 126.4 848.358 L 126.4 849.703 L 130.55 849.703 L 130.55 830.872 L 134.7 830.872 L 134.7 832.217 L 138.85 832.217 L 138.85 822.801 L 143 822.801 L 143 824.147 L 147.15 824.147 L 147.15 814.731 L 151.3 814.731 L 151.3 771.688 L 155.45 771.688 L 155.45 777.069 L 159.6 777.069 L 159.6 767.653 L 163.75 767.653 L 163.75 719.23 L 167.9 719.23 L 167.9 762.273 L 172.05 762.273 L 172.05 717.885 L 176.2 717.885 L 176.2 690.983 L 180.35 690.983 L 180.35 699.054 L 184.5 699.054 L 184.5 649.286 L 188.65 649.286 L 188.65 641.215 L 192.8 641.215 L 192.8 641.215 L 196.95 641.215 L 196.95 612.968 L 201.1 612.968 L 201.1 615.659 L 205.25 615.659 L 205.25 602.208 L 209.4 602.208 L 209.4 564.545 L 213.55 564.545 L 213.55 594.137 L 217.7 594.137 L 217.7 623.729 L 221.85 623.729 L 221.85 615.659 L 226 615.659 L 226 643.905 L 230.15 643.905 L 230.15 623.729 L 234.3 623.729 L 234.3 592.792 L 238.45 592.792 L 238.45 591.447 L 242.6 591.447 L 242.6 598.173 L 246.75 598.173 L 246.75 603.553 L 250.9 603.553 L 250.9 643.905 L 255.05 643.905 L 255.05 634.49 L 259.2 634.49 L 259.2 635.835 L 263.35 635.835 L 263.35 650.631 L 267.5 650.631 L 267.5 727.301 L 271.65 727.301 L 271.65 661.391 L 275.8 661.391 L 275.8 727.301 L 279.95 727.301 L 279.95 732.681 L 284.1 732.681 L 284.1 751.512 L 288.25 751.512 L 288.25 739.406 L 292.4 739.406 L 292.4 775.724 L 296.55 775.724 L 296.55 756.892 L 300.7 756.892 L 300.7 810.696 L 304.85 810.696 L 304.85 810.696 L 309 810.696 L 309 838.942 L 313.15 838.942 L 313.15 817.421 L 317.3 817.421 L 317.3 826.837 L 321.45 826.837 L 321.45 853.738 L 325.6 853.738 L 325.6 853.738 L 329.75 853.738 L 329.75 888.711 L 333.9 888.711 L 333.9 892.746 L 338.05 892.746 L 338.05 886.02 L 342.2 886.02 L 342.2 907.542 L 346.35 907.542 L 346.35 892.746 L 350.5 892.746 L 350.5 910.232 L 354.65 910.232 L 354.65 911.577 L 358.8 911.577 L 358.8 938.479 L 362.95 938.479 L 362.95 933.098 L 367.1 933.098 L 367.1 937.134 L 371.25 937.134 L 371.25 939.824 L 375.4 939.824 L 375.4 950.584 L 379.55 950.584 L 379.55 950.584 L 383.7 950.584 L 383.7 950.584 L 387.85 950.584 L 387.85 943.859 L 392 943.859 L 392 955.965 L 396.15 955.965 L 396.15 953.275 L 400.3 953.275 L 400.3 946.549 L 404.45 946.549 L 404.45 954.62 L 408.6 954.62 L 408.6 958.655 L 412.75 958.655 L 412.75 958.655 L 416.9 958.655 L 416.9 957.31 L 421.05 957.31 L 421.05 955.965 L 425.2 955.965 L 425.2 957.31 L 429.35 957.31 L 429.35 958.655 L 433.5 958.655 L 433.5 957.31 L 437.65 957.31 L 437.65 960 L 441.8 960 L 441.8 958.655 L 445.95 958.655 L 445.95 958.655 L 450.1 958.655 L 450.1 960 L 454.25 960 L 454.25 960 L 458.4 960 L 458.4 960 L 462.55 960 L 462.55 960 L 466.7 960 L 466.7 960 L 470.85 960 L 470.85 960 L 475 960 L 475 960" stroke-width="3" stroke-dasharray="" stroke="black" stroke-opacity="1" fill="lightblue" fill-opacity="1" />
</g>
<g id="Histogram_5" clip-path="url(#Histogram_5_clip)">
    <path d="M 60 960 L 60 933.098 L 68.3 933.098 L 68.3 935.788 L 76.6 935.788 L 76.6 931.753 L 84.9 931.753 L 84.9 916.957 L 93.2 916.957 L 93.2 907.542 L 101.5 907.542 L 101.5 904.852 L 109.8 904.852 L 109.8 898.126 L 118.1 898.126 L 118.1 883.33 L 126.4 883.33 L 126.4 879.295 L 134.7 879.295 L 134.7 883.33 L 143 883.33 L 143 859.119 L 151.3 859.119 L 151.3 856.429 L 159.6 856.429 L 159.6 829.527 L 167.9 829.527 L 167.9 852.393 L 176.2 852.393 L 176.2 840.288 L 184.5 840.288 L 184.5 814.731 L 192.8 814.731 L 192.8 775.724 L 201.1 775.724 L 201.1 775.724 L 209.4 775.724 L 209.4 763.618 L 217.7 763.618 L 217.7 748.822 L 226 748.822 L 226 739.406 L 234.3 739.406 L 234.3 713.85 L 242.6 713.85 L 242.6 703.089 L 250.9 703.089 L 250.9 693.673 L 259.2 693.673 L 259.2 678.878 L 267.5 678.878 L 267.5 682.913 L 275.8 682.913 L 275.8 651.976 L 284.1 651.976 L 284.1 641.215 L 292.4 641.215 L 292.4 586.067 L 300.7 586.067 L 300.7 641.215 L 309 641.215 L 309 641.215 L 317.3 641.215 L 317.3 637.18 L 325.6 637.18 L 325.6 579.341 L 333.9 579.341 L 333.9 631.8 L 342.2 631.8 L 342.2 582.032 L 350.5 582.032 L 350.5 598.173 L 358.8 598.173 L 358.8 580.686 L 367.1 580.686 L 367.1 599.518 L 375.4 599.518 L 375.4 592.792 L 383.7 592.792 L 383.7 600.863 L 392 600.863 L 392 630.455 L 400.3 630.455 L 400.3 626.419 L 408.6 626.419 L 408.6 666.772 L 416.9 666.772 L 416.9 654.666 L 425.2 654.666 L 425.2 676.187 L 433.5 676.187 L 433.5 689.638 L 441.8 689.638 L 441.8 670.807 L 450.1 670.807 L 450.1 729.991 L 458.4 729.991 L 458.4 709.814 L 466.7 709.814 L 466.7 743.442 L 475 743.442 L 475 760.928 L 483.3 760.928 L 483.3 771.688 L 491.6 771.688 L 491.6 752.857 L 499.9 752.857 L 499.9 789.174 L 508.2 789.174 L 508.2 822.801 L 516.5 822.801 L 516.5 828.182 L 524.8 828.182 L 524.8 821.456 L 533.1 821.456 L 533.1 875.26 L 541.4 875.26 L 541.4 859.119 L 549.7 859.119 L 549.7 848.358 L 558 848.358 L 558 890.056 L 566.3 890.056 L 566.3 896.781 L 574.6 896.781 L 574.6 891.401 L 582.9 891.401 L 582.9 898.126 L 591.2 898.126 L 591.2 919.647 L 599.5 919.647 L 599.5 904.852 L 607.8 904.852 L 607.8 915.612 L 616.1 915.612 L 616.1 934.443 L 624.4 934.443 L 624.4 930.408 L 632.7 930.408 L 632.7 926.373 L 641 926.373 L 641 945.204 L 649.3 945.204 L 649.3 938.479 L 657.6 938.479 L 657.6 949.239 L 665.9 949.239 L 665.9 947.894 L 674.2 947.894 L 674.2 947.894 L 682.5 947.894 L 682.5 949.239 L 690.8 949.239 L 690.8 957.31 L 699.1 957.31 L 699.1 954.62 L 707.4 954.62 L 707.4 957.31 L 715.7 957.31 L 715.7 954.62 L 724 954.62 L 724 957.31 L 732.3 957.31 L 732.3 955.965 L 740.6 955.965 L 740.6 960 L 748.9 960 L 748.9 960 L 757.2 960 L 757.2 960 L 765.5 960 L 765.5 958.655 L 773.8 958.655 L 773.8 960 L 782.1 960 L 782.1 957.31 L 790.4 957.31 L 790.4 960 L 798.7 960 L 798.7 960 L 807 960 L 807 960 L 815.3 960 L 815.3 960 L 823.6 960 L 823.6 960 L 831.9 960 L 831.9 960 L 840.2 960 L 840.2 960 L 848.5 960 L 848.5 960 L 856.8 960 L 856.8 960 L 865.1 960 L 865.1 960 L 873.4 960 L 873.4 960 L 881.7 960 L 881.7 960 L 890 960 L 890 960" stroke-width="3" stroke-dasharray="" stroke="black" stroke-opacity="1" fill="pink" fill-opacity="1" />
</g>
<g id="frame_2">
    <rect id="frame_2_border" x="60" y="525" width="415" height="435" />
    <g id="frame_2_bottomticks">
        <path d="M 267.5 960 L 267.5 950" />
        <path d="M 60 960 L 60 940" />
        <text font-size="30" transform="translate(60, 990)" text-anchor="middle" dominant-baseline="middle" stroke="none" fill="black">0</text>
        <path d="M 226 960 L 226 940" />
        <text font-size="30" transform="translate(226, 990)" text-anchor="middle" dominant-baseline="middle" stroke="none" fill="black">0.4</text>
        <path d="M 101.5 960 L 101.5 950" />
        <path d="M 475 960 L 475 940" />
        <text font-size="30" transform="translate(475, 990)" text-anchor="middle" dominant-baseline="middle" stroke="none" fill="black">1</text>
        <path d="M 143 960 L 143 940" />
        <text font-size="30" transform="translate(143, 990)" text-anchor="middle" dominant-baseline="middle" stroke="none" fill="black">0.2</text>
        <path d="M 309 960 L 309 940" />
        <text font-size="30" transform="translate(309, 990)" text-anchor="middle" dominant-baseline="middle" stroke="none" fill="black">0.6</text>
        <path d="M 184.5 960 L 184.5 950" />
        <path d="M 392 960 L 392 940" />
        <text font-size="30" transform="translate(392, 990)" text-anchor="middle" dominant-baseline="middle" stroke="none" fill="black">0.8</text>
        <path d="M 433.5 960 L 433.5 950" />
        <path d="M 350.5 960 L 350.5 950" />
    </g>
    <g id="frame_2_leftticks">
        <path d="M 60 960 L 80 960" />
        <text font-size="30" transform="translate(50, 970)" text-anchor="end" dominant-baseline="middle" stroke="none" fill="black">0</text>
        <path d="M 60 785.139 L 70 785.139" />
        <path d="M 60 610.278 L 70 610.278" />
        <path d="M 60 946.549 L 70 946.549" />
        <path d="M 60 771.688 L 70 771.688" />
        <path d="M 60 596.827 L 70 596.827" />
        <path d="M 60 933.098 L 70 933.098" />
        <path d="M 60 758.237 L 80 758.237" />
        <text font-size="30" transform="translate(50, 768.237)" text-anchor="end" dominant-baseline="middle" stroke="none" fill="black">150</text>
        <path d="M 60 583.377 L 70 583.377" />
        <path d="M 60 919.647 L 70 919.647" />
        <path d="M 60 744.787 L 70 744.787" />
        <path d="M 60 569.926 L 70 569.926" />
        <path d="M 60 906.197 L 70 906.197" />
        <path d="M 60 731.336 L 70 731.336" />
        <path d="M 60 556.475 L 80 556.475" />
        <text font-size="30" transform="translate(50, 566.475)" text-anchor="end" dominant-baseline="middle" stroke="none" fill="black">300</text>
        <path d="M 60 892.746 L 80 892.746" />
        <text font-size="30" transform="translate(50, 902.746)" text-anchor="end" dominant-baseline="middle" stroke="none" fill="black">50</text>
        <path d="M 60 717.885 L 70 717.885" />
        <path d="M 60 543.024 L 70 543.024" />
        <path d="M 60 879.295 L 70 879.295" />
        <path d="M 60 704.434 L 70 704.434" />
        <path d="M 60 529.573 L 70 529.573" />
        <path d="M 60 865.844 L 70 865.844" />
        <path d="M 60 690.983 L 80 690.983" />
        <text font-size="30" transform="translate(50, 700.983)" text-anchor="end" dominant-baseline="middle" stroke="none" fill="black">200</text>
        <path d="M 60 852.393 L 70 852.393" />
        <path d="M 60 677.532 L 70 677.532" />
        <path d="M 60 838.942 L 70 838.942" />
        <path d="M 60 664.082 L 70 664.082" />
        <path d="M 60 825.492 L 80 825.492" />
        <text font-size="30" transform="translate(50, 835.492)" text-anchor="end" dominant-baseline="middle" stroke="none" fill="black">100</text>
        <path d="M 60 650.631 L 70 650.631" />
        <path d="M 60 812.041 L 70 812.041" />
        <path d="M 60 637.18 L 70 637.18" />
        <path d="M 60 798.59 L 70 798.59" />
        <path d="M 60 623.729 L 80 623.729" />
        <text font-size="30" transform="translate(50, 633.729)" text-anchor="end" dominant-baseline="middle" stroke="none" fill="black">250</text>
    </g>
    <g id="frame_2_topticks">
        <path d="M 267.5 525 L 267.5 535" />
        <path d="M 60 525 L 60 545" />
        <path d="M 226 525 L 226 545" />
        <path d="M 101.5 525 L 101.5 535" />
        <path d="M 475 525 L 475 545" />
        <path d="M 143 525 L 143 545" />
        <path d="M 309 525 L 309 545" />
        <path d="M 184.5 525 L 184.5 535" />
        <path d="M 392 525 L 392 545" />
        <path d="M 433.5 525 L 433.5 535" />
        <path d="M 350.5 525 L 350.5 535" />
    </g>
    <g id="frame_2_rightticks">
        <path d="M 475 960 L 455 960" />
        <path d="M 475 785.139 L 465 785.139" />
        <path d="M 475 610.278 L 465 610.278" />
        <path d="M 475 946.549 L 465 946.549" />
        <path d="M 475 771.688 L 465 771.688" />
        <path d="M 475 596.827 L 465 596.827" />
        <path d="M 475 933.098 L 465 933.098" />
        <path d="M 475 758.237 L 455 758.237" />
        <path d="M 475 583.377 L 465 583.377" />
        <path d="M 475 919.647 L 465 919.647" />
        <path d="M 475 744.787 L 465 744.787" />
        <path d="M 475 569.926 L 465 569.926" />
        <path d="M 475 906.197 L 465 906.197" />
        <path d="M 475 731.336 L 465 731.336" />
        <path d="M 475 556.475 L 455 556.475" />
        <path d="M 475 892.746 L 455 892.746" />
        <path d="M 475 717.885 L 465 717.885" />
        <path d="M 475 543.024 L 465 543.024" />
        <path d="M 475 879.295 L 465 879.295" />
        <path d="M 475 704.434 L 465 704.434" />
        <path d="M 475 529.573 L 465 529.573" />
        <path d="M 475 865.844 L 465 865.844" />
        <path d="M 475 690.983 L 455 690.983" />
        <path d="M 475 852.393 L 465 852.393" />
        <path d="M 475 677.532 L 465 677.532" />
        <path d="M 475 838.942 L 465 838.942" />
        <path d="M 475 664.082 L 465 664.082" />
        <path d="M 475 825.492 L 455 825.492" />
        <path d="M 475 650.631 L 465 650.631" />
        <path d="M 475 812.041 L 465 812.041" />
        <path d="M 475 637.18 L 465 637.18" />
        <path d="M 475 798.59 L 465 798.59" />
        <path d="M 475 623.729 L 455 623.729" />
    </g>
</g>
<g id="Histogram_6" clip-path="url(#Histogram_6_clip)">
    <path d="M 560 960 L 560 948.821 L 562.075 948.821 L 562.075 948.821 L 564.15 948.821 L 564.15 946.026 L 566.225 946.026 L 566.225 944.629 L 568.3 944.629 L 568.3 925.066 L 570.375 925.066 L 570.375 932.053 L 572.45 932.053 L 572.45 937.642 L 574.525 937.642 L 574.525 932.053 L 576.6 932.053 L 576.6 923.668 L 578.675 923.668 L 578.675 909.695 L 580.75 909.695 L 580.75 890.132 L 582.825 890.132 L 582.825 890.132 L 584.9 890.132 L 584.9 895.721 L 586.975 895.721 L 586.975 876.158 L 589.05 876.158 L 589.05 881.748 L 591.125 881.748 L 591.125 844.019 L 593.2 844.019 L 593.2 845.416 L 595.275 845.416 L 595.275 825.853 L 597.35 825.853 L 597.35 827.25 L 599.425 827.25 L 599.425 817.469 L 601.5 817.469 L 601.5 818.866 L 603.575 818.866 L 603.575 809.084 L 605.65 809.084 L 605.65 764.369 L 607.725 764.369 L 607.725 769.958 L 609.8 769.958 L 609.8 760.177 L 611.875 760.177 L 611.875 709.872 L 613.95 709.872 L 613.95 754.587 L 616.025 754.587 L 616.025 708.474 L 618.1 708.474 L 618.1 680.527 L 620.175 680.527 L 620.175 688.911 L 622.25 688.911 L 622.25 637.208 L 624.325 637.208 L 624.325 628.824 L 626.4 628.824 L 626.4 628.824 L 628.475 628.824 L 628.475 599.48 L 630.55 599.48 L 630.55 602.274 L 632.625 602.274 L 632.625 588.301 L 634.7 588.301 L 634.7 549.174 L 636.775 549.174 L 636.775 579.916 L 638.85 579.916 L 638.85 610.659 L 640.925 610.659 L 640.925 602.274 L 643 602.274 L 643 631.619 L 645.075 631.619 L 645.075 610.659 L 647.15 610.659 L 647.15 578.519 L 649.225 578.519 L 649.225 577.122 L 651.3 577.122 L 651.3 584.109 L 653.375 584.109 L 653.375 589.698 L 655.45 589.698 L 655.45 631.619 L 657.525 631.619 L 657.525 621.837 L 659.6 621.837 L 659.6 623.235 L 661.675 623.235 L 661.675 638.606 L 663.75 638.606 L 663.75 718.256 L 665.825 718.256 L 665.825 649.785 L 667.9 649.785 L 667.9 718.256 L 669.975 718.256 L 669.975 723.845 L 672.05 723.845 L 672.05 743.408 L 674.125 743.408 L 674.125 730.832 L 676.2 730.832 L 676.2 768.561 L 678.275 768.561 L 678.275 748.998 L 680.35 748.998 L 680.35 804.892 L 682.425 804.892 L 682.425 804.892 L 684.5 804.892 L 684.5 834.237 L 686.575 834.237 L 686.575 811.879 L 688.65 811.879 L 688.65 821.661 L 690.725 821.661 L 690.725 849.608 L 692.8 849.608 L 692.8 849.608 L 694.875 849.608 L 694.875 885.94 L 696.95 885.94 L 696.95 890.132 L 699.025 890.132 L 699.025 883.145 L 701.1 883.145 L 701.1 905.503 L 703.175 905.503 L 703.175 890.132 L 705.25 890.132 L 705.25 908.297 L 707.325 908.297 L 707.325 909.695 L 709.4 909.695 L 709.4 937.642 L 711.475 937.642 L 711.475 932.053 L 713.55 932.053 L 713.55 936.245 L 715.625 936.245 L 715.625 939.04 L 717.7 939.04 L 717.7 950.218 L 719.775 950.218 L 719.775 950.218 L 721.85 950.218 L 721.85 950.218 L 723.925 950.218 L 723.925 943.232 L 726 943.232 L 726 955.808 L 728.075 955.808 L 728.075 953.013 L 730.15 953.013 L 730.15 946.026 L 732.225 946.026 L 732.225 954.411 L 734.3 954.411 L 734.3 958.603 L 736.375 958.603 L 736.375 958.603 L 738.45 958.603 L 738.45 957.205 L 740.525 957.205 L 740.525 955.808 L 742.6 955.808 L 742.6 957.205 L 744.675 957.205 L 744.675 958.603 L 746.75 958.603 L 746.75 957.205 L 748.825 957.205 L 748.825 960 L 750.9 960 L 750.9 958.603 L 752.975 958.603 L 752.975 958.603 L 755.05 958.603 L 755.05 960 L 757.125 960 L 757.125 960 L 759.2 960 L 759.2 960 L 761.275 960 L 761.275 960 L 763.35 960 L 763.35 960 L 765.425 960 L 765.425 960 L 767.5 960 L 767.5 960" stroke-width="3" stroke-dasharray="" stroke="black" stroke-opacity="1" fill="lightblue" fill-opacity="1" />
</g>
<g id="Histogram_7" clip-path="url(#Histogram_7_clip)">
    <path d="M 560 960 L 560 932.053 L 564.15 932.053 L 564.15 934.847 L 568.3 934.847 L 568.3 930.655 L 572.45 930.655 L 572.45 915.284 L 576.6 915.284 L 576.6 905.503 L 580.75 905.503 L 580.75 902.708 L 584.9 902.708 L 584.9 895.721 L 589.05 895.721 L 589.05 880.35 L 593.2 880.35 L 593.2 876.158 L 597.35 876.158 L 597.35 880.35 L 601.5 880.35 L 601.5 855.198 L 605.65 855.198 L 605.65 852.403 L 609.8 852.403 L 609.8 824.456 L 613.95 824.456 L 613.95 848.211 L 618.1 848.211 L 618.1 835.634 L 622.25 835.634 L 622.25 809.084 L 626.4 809.084 L 626.4 768.561 L 630.55 768.561 L 630.55 768.561 L 634.7 768.561 L 634.7 755.985 L 638.85 755.985 L 638.85 740.614 L 643 740.614 L 643 730.832 L 647.15 730.832 L 647.15 704.282 L 651.3 704.282 L 651.3 693.103 L 655.45 693.103 L 655.45 683.322 L 659.6 683.322 L 659.6 667.951 L 663.75 667.951 L 663.75 672.143 L 667.9 672.143 L 667.9 640.003 L 672.05 640.003 L 672.05 628.824 L 676.2 628.824 L 676.2 571.532 L 680.35 571.532 L 680.35 628.824 L 684.5 628.824 L 684.5 628.824 L 688.65 628.824 L 688.65 624.632 L 692.8 624.632 L 692.8 564.545 L 696.95 564.545 L 696.95 619.043 L 701.1 619.043 L 701.1 567.34 L 705.25 567.34 L 705.25 584.109 L 709.4 584.109 L 709.4 565.943 L 713.55 565.943 L 713.55 585.506 L 717.7 585.506 L 717.7 578.519 L 721.85 578.519 L 721.85 586.903 L 726 586.903 L 726 617.645 L 730.15 617.645 L 730.15 613.453 L 734.3 613.453 L 734.3 655.374 L 738.45 655.374 L 738.45 642.798 L 742.6 642.798 L 742.6 665.156 L 746.75 665.156 L 746.75 679.129 L 750.9 679.129 L 750.9 659.566 L 755.05 659.566 L 755.05 721.05 L 759.2 721.05 L 759.2 700.09 L 763.35 700.09 L 763.35 735.024 L 767.5 735.024 L 767.5 753.19 L 771.65 753.19 L 771.65 764.369 L 775.8 764.369 L 775.8 744.806 L 779.95 744.806 L 779.95 782.535 L 784.1 782.535 L 784.1 817.469 L 788.25 817.469 L 788.25 823.058 L 792.4 823.058 L 792.4 816.071 L 796.55 816.071 L 796.55 871.966 L 800.7 871.966 L 800.7 855.198 L 804.85 855.198 L 804.85 844.019 L 809 844.019 L 809 887.337 L 813.15 887.337 L 813.15 894.324 L 817.3 894.324 L 817.3 888.734 L 821.45 888.734 L 821.45 895.721 L 825.6 895.721 L 825.6 918.079 L 829.75 918.079 L 829.75 902.708 L 833.9 902.708 L 833.9 913.887 L 838.05 913.887 L 838.05 933.45 L 842.2 933.45 L 842.2 929.258 L 846.35 929.258 L 846.35 925.066 L 850.5 925.066 L 850.5 944.629 L 854.65 944.629 L 854.65 937.642 L 858.8 937.642 L 858.8 948.821 L 862.95 948.821 L 862.95 947.424 L 867.1 947.424 L 867.1 947.424 L 871.25 947.424 L 871.25 948.821 L 875.4 948.821 L 875.4 957.205 L 879.55 957.205 L 879.55 954.411 L 883.7 954.411 L 883.7 957.205 L 887.85 957.205 L 887.85 954.411 L 892 954.411 L 892 957.205 L 896.15 957.205 L 896.15 955.808 L 900.3 955.808 L 900.3 960 L 904.45 960 L 904.45 960 L 908.6 960 L 908.6 960 L 912.75 960 L 912.75 958.603 L 916.9 958.603 L 916.9 960 L 921.05 960 L 921.05 957.205 L 925.2 957.205 L 925.2 960 L 929.35 960 L 929.35 960 L 933.5 960 L 933.5 960 L 937.65 960 L 937.65 960 L 941.8 960 L 941.8 960 L 945.95 960 L 945.95 960 L 950.1 960 L 950.1 960 L 954.25 960 L 954.25 960 L 958.4 960 L 958.4 960 L 962.55 960 L 962.55 960 L 966.7 960 L 966.7 960 L 970.85 960 L 970.85 960 L 975 960 L 975 960" stroke-width="3" stroke-dasharray="" stroke="black" stroke-opacity="1" fill="pink" fill-opacity="1" />
</g>
<g id="frame_3">
    <rect id="frame_3_border" x="560" y="525" width="415" height="435" />
    <g id="frame_3_bottomticks">
        <path d="M 560 960 L 560 940" />
        <text font-size="30" transform="translate(560, 990)" text-anchor="middle" dominant-baseline="middle" stroke="none" fill="black">0</text>
        <path d="M 829.75 960 L 829.75 950" />
        <path d="M 912.75 960 L 912.75 950" />
        <path d="M 809 960 L 809 950" />
        <path d="M 601.5 960 L 601.5 950" />
        <path d="M 643 960 L 643 950" />
        <path d="M 767.5 960 L 767.5 940" />
        <text font-size="30" transform="translate(767.5, 990)" text-anchor="middle" dominant-baseline="middle" stroke="none" fill="black">1</text>
        <path d="M 622.25 960 L 622.25 950" />
        <path d="M 975 960 L 975 940" />
        <text font-size="30" transform="translate(975, 990)" text-anchor="middle" dominant-baseline="middle" stroke="none" fill="black">2</text>
        <path d="M 684.5 960 L 684.5 950" />
        <path d="M 580.75 960 L 580.75 950" />
        <path d="M 954.25 960 L 954.25 950" />
        <path d="M 892 960 L 892 950" />
        <path d="M 746.75 960 L 746.75 950" />
        <path d="M 850.5 960 L 850.5 950" />
        <path d="M 788.25 960 L 788.25 950" />
        <path d="M 705.25 960 L 705.25 950" />
        <path d="M 933.5 960 L 933.5 950" />
        <path d="M 726 960 L 726 950" />
        <path d="M 871.25 960 L 871.25 940" />
        <text font-size="30" transform="translate(871.25, 990)" text-anchor="middle" dominant-baseline="middle" stroke="none" fill="black">1.5</text>
        <path d="M 663.75 960 L 663.75 940" />
        <text font-size="30" transform="translate(663.75, 990)" text-anchor="middle" dominant-baseline="middle" stroke="none" fill="black">0.5</text>
    </g>
    <g id="frame_3_leftticks">
        <path d="M 560 960 L 580 960" />
        <text font-size="30" transform="translate(550, 970)" text-anchor="end" dominant-baseline="middle" stroke="none" fill="black">0</text>
        <path d="M 560 778.342 L 570 778.342" />
        <path d="M 560 596.685 L 570 596.685" />
        <path d="M 560 946.026 L 570 946.026" />
        <path d="M 560 764.369 L 570 764.369" />
        <path d="M 560 582.711 L 570 582.711" />
        <path d="M 560 932.053 L 570 932.053" />
        <path d="M 560 750.395 L 580 750.395" />
        <text font-size="30" transform="translate(550, 760.395)" text-anchor="end" dominant-baseline="middle" stroke="none" fill="black">150</text>
        <path d="M 560 568.738 L 570 568.738" />
        <path d="M 560 918.079 L 570 918.079" />
        <path d="M 560 736.421 L 570 736.421" />
        <path d="M 560 554.764 L 570 554.764" />
        <path d="M 560 904.105 L 570 904.105" />
        <path d="M 560 722.448 L 570 722.448" />
        <path d="M 560 540.79 L 580 540.79" />
        <text font-size="30" transform="translate(550, 550.79)" text-anchor="end" dominant-baseline="middle" stroke="none" fill="black">300</text>
        <path d="M 560 890.132 L 580 890.132" />
        <text font-size="30" transform="translate(550, 900.132)" text-anchor="end" dominant-baseline="middle" stroke="none" fill="black">50</text>
        <path d="M 560 708.474 L 570 708.474" />
        <path d="M 560 526.817 L 570 526.817" />
        <path d="M 560 876.158 L 570 876.158" />
        <path d="M 560 694.5 L 570 694.5" />
        <path d="M 560 862.184 L 570 862.184" />
        <path d="M 560 680.527 L 580 680.527" />
        <text font-size="30" transform="translate(550, 690.527)" text-anchor="end" dominant-baseline="middle" stroke="none" fill="black">200</text>
        <path d="M 560 848.211 L 570 848.211" />
        <path d="M 560 666.553 L 570 666.553" />
        <path d="M 560 834.237 L 570 834.237" />
        <path d="M 560 652.58 L 570 652.58" />
        <path d="M 560 820.263 L 580 820.263" />
        <text font-size="30" transform="translate(550, 830.263)" text-anchor="end" dominant-baseline="middle" stroke="none" fill="black">100</text>
        <path d="M 560 638.606 L 570 638.606" />
        <path d="M 560 806.29 L 570 806.29" />
        <path d="M 560 624.632 L 570 624.632" />
        <path d="M 560 792.316 L 570 792.316" />
        <path d="M 560 610.659 L 580 610.659" />
        <text font-size="30" transform="translate(550, 620.659)" text-anchor="end" dominant-baseline="middle" stroke="none" fill="black">250</text>
    </g>
    <g id="frame_3_topticks">
        <path d="M 560 525 L 560 545" />
        <path d="M 829.75 525 L 829.75 535" />
        <path d="M 912.75 525 L 912.75 535" />
        <path d="M 809 525 L 809 535" />
        <path d="M 601.5 525 L 601.5 535" />
        <path d="M 643 525 L 643 535" />
        <path d="M 767.5 525 L 767.5 545" />
        <path d="M 622.25 525 L 622.25 535" />
        <path d="M 975 525 L 975 545" />
        <path d="M 684.5 525 L 684.5 535" />
        <path d="M 580.75 525 L 580.75 535" />
        <path d="M 954.25 525 L 954.25 535" />
        <path d="M 892 525 L 892 535" />
        <path d="M 746.75 525 L 746.75 535" />
        <path d="M 850.5 525 L 850.5 535" />
        <path d="M 788.25 525 L 788.25 535" />
        <path d="M 705.25 525 L 705.25 535" />
        <path d="M 933.5 525 L 933.5 535" />
        <path d="M 726 525 L 726 535" />
        <path d="M 871.25 525 L 871.25 545" />
        <path d="M 663.75 525 L 663.75 545" />
    </g>
    <g id="frame_3_rightticks">
        <path d="M 975 960 L 955 960" />
        <path d="M 975 778.342 L 965 778.342" />
        <path d="M 975 596.685 L 965 596.685" />
        <path d="M 975 946.026 L 965 946.026" />
        <path d="M 975 764.369 L 965 764.369" />
        <path d="M 975 582.711 L 965 582.711" />
        <path d="M 975 932.053 L 965 932.053" />
        <path d="M 975 750.395 L 955 750.395" />
        <path d="M 975 568.738 L 965 568.738" />
        <path d="M 975 918.079 L 965 918.079" />
        <path d="M 975 736.421 L 965 736.421" />
        <path d="M 975 554.764 L 965 554.764" />
        <path d="M 975 904.105 L 965 904.105" />
        <path d="M 975 722.448 L 965 722.448" />
        <path d="M 975 540.79 L 955 540.79" />
        <path d="M 975 890.132 L 955 890.132" />
        <path d="M 975 708.474 L 965 708.474" />
        <path d="M 975 526.817 L 965 526.817" />
        <path d="M 975 876.158 L 965 876.158" />
        <path d="M 975 694.5 L 965 694.5" />
        <path d="M 975 862.184 L 965 862.184" />
        <path d="M 975 680.527 L 955 680.527" />
        <path d="M 975 848.211 L 965 848.211" />
        <path d="M 975 666.553 L 965 666.553" />
        <path d="M 975 834.237 L 965 834.237" />
        <path d="M 975 652.58 L 965 652.58" />
        <path d="M 975 820.263 L 955 820.263" />
        <path d="M 975 638.606 L 965 638.606" />
        <path d="M 975 806.29 L 965 806.29" />
        <path d="M 975 624.632 L 965 624.632" />
        <path d="M 975 792.316 L 965 792.316" />
        <path d="M 975 610.659 L 955 610.659" />
    </g>
</g>
</g>
</svg>
