<?xml version="1.0" standalone="no"?>
<!DOCTYPE svg PUBLIC "-//W3C//DTD SVG 1.1//EN" "http://www.w3.org/Graphics/SVG/1.1/DTD/svg11.dtd">
<svg style="stroke-linejoin:miter; stroke:black; stroke-width:2.5; text-anchor:middle; fill:none" xmlns="http://www.w3.org/2000/svg" font-family="Helvetica, Arial, FreeSans, Sans, sans, sans-serif" width="1000px" height="1000px" version="1.1" xmlns:xlink="http://www.w3.org/1999/xlink" viewBox="0 0 1000 1000">
<defs>
    <clipPath id="HistogramAbstract_0_clip">
        <rect x="60" y="525" width="415" height="435" />
    </clipPath>
    <clipPath id="HistogramAbstract_1_clip">
        <rect x="60" y="525" width="415" height="435" />
    </clipPath>
    <clipPath id="HistogramAbstract_2_clip">
        <rect x="60" y="525" width="415" height="435" />
    </clipPath>
    <clipPath id="HistogramAbstract_3_clip">
        <rect x="560" y="525" width="415" height="435" />
    </clipPath>
    <clipPath id="HistogramAbstract_4_clip">
        <rect x="560" y="525" width="415" height="435" />
    </clipPath>
    <clipPath id="HistogramAbstract_5_clip">
        <rect x="560" y="525" width="415" height="435" />
    </clipPath>
    <clipPath id="Scatter_0_clip">
        <rect x="60" y="25" width="415" height="435" />
    </clipPath>
    <circle id="Scatter_0_mark" cx="0" cy="0" r="7.5" stroke="none" stroke-opacity="1" fill="black" fill-opacity="1" />
    <clipPath id="Scatter_1_clip">
        <rect x="60" y="25" width="415" height="435" />
    </clipPath>
    <clipPath id="Scatter_2_clip">
        <rect x="560" y="25" width="415" height="435" />
    </clipPath>
    <circle id="Scatter_2_mark" cx="0" cy="0" r="7.5" stroke="none" stroke-opacity="1" fill="red" fill-opacity="1" />
    <clipPath id="Scatter_3_clip">
        <rect x="560" y="25" width="415" height="435" />
    </clipPath>
    <circle id="Scatter_3_mark" cx="0" cy="0" r="7.5" stroke="none" stroke-opacity="1" fill="blue" fill-opacity="1" />
    <clipPath id="Scatter_4_clip">
        <rect x="560" y="25" width="415" height="435" />
    </clipPath>
    <circle id="Scatter_4_mark" cx="0" cy="0" r="7.5" stroke="none" stroke-opacity="1" fill="green" fill-opacity="1" />
</defs>
<g id="whole_document">
<rect id="background" x="0" y="0" width="1000" height="1000" stroke="none" fill="white" />
<g id="Scatter_0" clip-path="url(#Scatter_0_clip)">
    <use x="203.274" y="310.972" xlink:href="#Scatter_0_mark" />
    <use x="203.274" y="310.972" xlink:href="#Scatter_0_mark" />
    <use x="199.98" y="310.972" xlink:href="#Scatter_0_mark" />
    <use x="206.567" y="310.972" xlink:href="#Scatter_0_mark" />
    <use x="203.274" y="310.972" xlink:href="#Scatter_0_mark" />
    <use x="213.155" y="294.861" xlink:href="#Scatter_0_mark" />
    <use x="203.274" y="302.917" xlink:href="#Scatter_0_mark" />
    <use x="206.567" y="310.972" xlink:href="#Scatter_0_mark" />
    <use x="203.274" y="310.972" xlink:href="#Scatter_0_mark" />
    <use x="206.567" y="319.028" xlink:href="#Scatter_0_mark" />
    <use x="206.567" y="310.972" xlink:href="#Scatter_0_mark" />
    <use x="209.861" y="310.972" xlink:href="#Scatter_0_mark" />
    <use x="203.274" y="319.028" xlink:href="#Scatter_0_mark" />
    <use x="193.393" y="319.028" xlink:href="#Scatter_0_mark" />
    <use x="196.687" y="310.972" xlink:href="#Scatter_0_mark" />
    <use x="206.567" y="294.861" xlink:href="#Scatter_0_mark" />
    <use x="199.98" y="294.861" xlink:href="#Scatter_0_mark" />
    <use x="203.274" y="302.917" xlink:href="#Scatter_0_mark" />
    <use x="213.155" y="302.917" xlink:href="#Scatter_0_mark" />
    <use x="206.567" y="302.917" xlink:href="#Scatter_0_mark" />
    <use x="213.155" y="310.972" xlink:href="#Scatter_0_mark" />
    <use x="206.567" y="294.861" xlink:href="#Scatter_0_mark" />
    <use x="190.099" y="310.972" xlink:href="#Scatter_0_mark" />
    <use x="213.155" y="286.806" xlink:href="#Scatter_0_mark" />
    <use x="219.742" y="310.972" xlink:href="#Scatter_0_mark" />
    <use x="209.861" y="310.972" xlink:href="#Scatter_0_mark" />
    <use x="209.861" y="294.861" xlink:href="#Scatter_0_mark" />
    <use x="206.567" y="310.972" xlink:href="#Scatter_0_mark" />
    <use x="203.274" y="310.972" xlink:href="#Scatter_0_mark" />
    <use x="209.861" y="310.972" xlink:href="#Scatter_0_mark" />
    <use x="209.861" y="310.972" xlink:href="#Scatter_0_mark" />
    <use x="206.567" y="294.861" xlink:href="#Scatter_0_mark" />
    <use x="206.567" y="319.028" xlink:href="#Scatter_0_mark" />
    <use x="203.274" y="310.972" xlink:href="#Scatter_0_mark" />
    <use x="206.567" y="319.028" xlink:href="#Scatter_0_mark" />
    <use x="196.687" y="310.972" xlink:href="#Scatter_0_mark" />
    <use x="199.98" y="310.972" xlink:href="#Scatter_0_mark" />
    <use x="206.567" y="319.028" xlink:href="#Scatter_0_mark" />
    <use x="199.98" y="310.972" xlink:href="#Scatter_0_mark" />
    <use x="206.567" y="310.972" xlink:href="#Scatter_0_mark" />
    <use x="199.98" y="302.917" xlink:href="#Scatter_0_mark" />
    <use x="199.98" y="302.917" xlink:href="#Scatter_0_mark" />
    <use x="199.98" y="310.972" xlink:href="#Scatter_0_mark" />
    <use x="209.861" y="278.75" xlink:href="#Scatter_0_mark" />
    <use x="219.742" y="294.861" xlink:href="#Scatter_0_mark" />
    <use x="203.274" y="302.917" xlink:href="#Scatter_0_mark" />
    <use x="209.861" y="310.972" xlink:href="#Scatter_0_mark" />
    <use x="203.274" y="310.972" xlink:href="#Scatter_0_mark" />
    <use x="206.567" y="310.972" xlink:href="#Scatter_0_mark" />
    <use x="203.274" y="310.972" xlink:href="#Scatter_0_mark" />
    <use x="311.964" y="214.306" xlink:href="#Scatter_0_mark" />
    <use x="305.377" y="206.25" xlink:href="#Scatter_0_mark" />
    <use x="318.552" y="206.25" xlink:href="#Scatter_0_mark" />
    <use x="288.909" y="222.361" xlink:href="#Scatter_0_mark" />
    <use x="308.671" y="206.25" xlink:href="#Scatter_0_mark" />
    <use x="305.377" y="222.361" xlink:href="#Scatter_0_mark" />
    <use x="311.964" y="198.194" xlink:href="#Scatter_0_mark" />
    <use x="265.853" y="246.528" xlink:href="#Scatter_0_mark" />
    <use x="308.671" y="222.361" xlink:href="#Scatter_0_mark" />
    <use x="285.615" y="214.306" xlink:href="#Scatter_0_mark" />
    <use x="272.44" y="246.528" xlink:href="#Scatter_0_mark" />
    <use x="295.496" y="206.25" xlink:href="#Scatter_0_mark" />
    <use x="288.909" y="246.528" xlink:href="#Scatter_0_mark" />
    <use x="311.964" y="214.306" xlink:href="#Scatter_0_mark" />
    <use x="275.734" y="222.361" xlink:href="#Scatter_0_mark" />
    <use x="302.083" y="214.306" xlink:href="#Scatter_0_mark" />
    <use x="305.377" y="206.25" xlink:href="#Scatter_0_mark" />
    <use x="292.202" y="246.528" xlink:href="#Scatter_0_mark" />
    <use x="305.377" y="206.25" xlink:href="#Scatter_0_mark" />
    <use x="285.615" y="238.472" xlink:href="#Scatter_0_mark" />
    <use x="315.258" y="182.083" xlink:href="#Scatter_0_mark" />
    <use x="288.909" y="222.361" xlink:href="#Scatter_0_mark" />
    <use x="318.552" y="206.25" xlink:href="#Scatter_0_mark" />
    <use x="311.964" y="230.417" xlink:href="#Scatter_0_mark" />
    <use x="298.79" y="222.361" xlink:href="#Scatter_0_mark" />
    <use x="302.083" y="214.306" xlink:href="#Scatter_0_mark" />
    <use x="315.258" y="214.306" xlink:href="#Scatter_0_mark" />
    <use x="321.845" y="190.139" xlink:href="#Scatter_0_mark" />
    <use x="305.377" y="206.25" xlink:href="#Scatter_0_mark" />
    <use x="272.44" y="246.528" xlink:href="#Scatter_0_mark" />
    <use x="282.321" y="238.472" xlink:href="#Scatter_0_mark" />
    <use x="279.028" y="246.528" xlink:href="#Scatter_0_mark" />
    <use x="285.615" y="230.417" xlink:href="#Scatter_0_mark" />
    <use x="325.139" y="198.194" xlink:href="#Scatter_0_mark" />
    <use x="305.377" y="206.25" xlink:href="#Scatter_0_mark" />
    <use x="305.377" y="198.194" xlink:href="#Scatter_0_mark" />
    <use x="311.964" y="206.25" xlink:href="#Scatter_0_mark" />
    <use x="302.083" y="222.361" xlink:href="#Scatter_0_mark" />
    <use x="292.202" y="222.361" xlink:href="#Scatter_0_mark" />
    <use x="288.909" y="222.361" xlink:href="#Scatter_0_mark" />
    <use x="302.083" y="230.417" xlink:href="#Scatter_0_mark" />
    <use x="308.671" y="214.306" xlink:href="#Scatter_0_mark" />
    <use x="288.909" y="230.417" xlink:href="#Scatter_0_mark" />
    <use x="265.853" y="246.528" xlink:href="#Scatter_0_mark" />
    <use x="295.496" y="222.361" xlink:href="#Scatter_0_mark" />
    <use x="295.496" y="230.417" xlink:href="#Scatter_0_mark" />
    <use x="295.496" y="222.361" xlink:href="#Scatter_0_mark" />
    <use x="298.79" y="222.361" xlink:href="#Scatter_0_mark" />
    <use x="255.972" y="238.472" xlink:href="#Scatter_0_mark" />
    <use x="292.202" y="222.361" xlink:href="#Scatter_0_mark" />
    <use x="354.782" y="125.694" xlink:href="#Scatter_0_mark" />
    <use x="325.139" y="174.028" xlink:href="#Scatter_0_mark" />
    <use x="351.488" y="157.917" xlink:href="#Scatter_0_mark" />
    <use x="341.607" y="182.083" xlink:href="#Scatter_0_mark" />
    <use x="348.194" y="149.861" xlink:href="#Scatter_0_mark" />
    <use x="374.544" y="157.917" xlink:href="#Scatter_0_mark" />
    <use x="305.377" y="190.139" xlink:href="#Scatter_0_mark" />
    <use x="364.663" y="182.083" xlink:href="#Scatter_0_mark" />
    <use x="348.194" y="182.083" xlink:href="#Scatter_0_mark" />
    <use x="358.075" y="125.694" xlink:href="#Scatter_0_mark" />
    <use x="325.139" y="165.972" xlink:href="#Scatter_0_mark" />
    <use x="331.726" y="174.028" xlink:href="#Scatter_0_mark" />
    <use x="338.313" y="157.917" xlink:href="#Scatter_0_mark" />
    <use x="321.845" y="165.972" xlink:href="#Scatter_0_mark" />
    <use x="325.139" y="133.75" xlink:href="#Scatter_0_mark" />
    <use x="331.726" y="141.806" xlink:href="#Scatter_0_mark" />
    <use x="338.313" y="182.083" xlink:href="#Scatter_0_mark" />
    <use x="377.837" y="149.861" xlink:href="#Scatter_0_mark" />
    <use x="384.425" y="141.806" xlink:href="#Scatter_0_mark" />
    <use x="321.845" y="206.25" xlink:href="#Scatter_0_mark" />
    <use x="344.901" y="141.806" xlink:href="#Scatter_0_mark" />
    <use x="318.552" y="165.972" xlink:href="#Scatter_0_mark" />
    <use x="377.837" y="165.972" xlink:href="#Scatter_0_mark" />
    <use x="318.552" y="182.083" xlink:href="#Scatter_0_mark" />
    <use x="344.901" y="157.917" xlink:href="#Scatter_0_mark" />
    <use x="354.782" y="182.083" xlink:href="#Scatter_0_mark" />
    <use x="315.258" y="182.083" xlink:href="#Scatter_0_mark" />
    <use x="318.552" y="182.083" xlink:href="#Scatter_0_mark" />
    <use x="341.607" y="157.917" xlink:href="#Scatter_0_mark" />
    <use x="348.194" y="198.194" xlink:href="#Scatter_0_mark" />
    <use x="358.075" y="174.028" xlink:href="#Scatter_0_mark" />
    <use x="367.956" y="165.972" xlink:href="#Scatter_0_mark" />
    <use x="341.607" y="149.861" xlink:href="#Scatter_0_mark" />
    <use x="325.139" y="206.25" xlink:href="#Scatter_0_mark" />
    <use x="341.607" y="214.306" xlink:href="#Scatter_0_mark" />
    <use x="358.075" y="141.806" xlink:href="#Scatter_0_mark" />
    <use x="341.607" y="133.75" xlink:href="#Scatter_0_mark" />
    <use x="338.313" y="182.083" xlink:href="#Scatter_0_mark" />
    <use x="315.258" y="182.083" xlink:href="#Scatter_0_mark" />
    <use x="335.02" y="157.917" xlink:href="#Scatter_0_mark" />
    <use x="341.607" y="133.75" xlink:href="#Scatter_0_mark" />
    <use x="325.139" y="141.806" xlink:href="#Scatter_0_mark" />
    <use x="325.139" y="174.028" xlink:href="#Scatter_0_mark" />
    <use x="351.488" y="141.806" xlink:href="#Scatter_0_mark" />
    <use x="344.901" y="125.694" xlink:href="#Scatter_0_mark" />
    <use x="328.433" y="141.806" xlink:href="#Scatter_0_mark" />
    <use x="321.845" y="174.028" xlink:href="#Scatter_0_mark" />
    <use x="328.433" y="165.972" xlink:href="#Scatter_0_mark" />
    <use x="335.02" y="141.806" xlink:href="#Scatter_0_mark" />
    <use x="325.139" y="182.083" xlink:href="#Scatter_0_mark" />
</g>
<g id="Scatter_1" clip-path="url(#Scatter_1_clip)">
    <path d="M 60.4154 455.142 L 60.8308 454.719 L 61.2462 454.296 L 61.6617 453.873 L 62.0771 453.45 L 62.4925 453.027 L 62.9079 452.604 L 63.3233 452.181 L 63.7387 451.758 L 64.1542 451.335 L 64.5696 450.911 L 64.985 450.488 L 65.4004 450.065 L 65.8158 449.642 L 66.2312 449.219 L 66.6466 448.796 L 67.0621 448.373 L 67.4775 447.95 L 67.8929 447.527 L 68.3083 447.104 L 68.7237 446.681 L 69.1391 446.258 L 69.5546 445.834 L 69.97 445.411 L 70.3854 444.988 L 70.8008 444.565 L 71.2162 444.142 L 71.6316 443.719 L 72.047 443.296 L 72.4625 442.873 L 72.8779 442.45 L 73.2933 442.027 L 73.7087 441.604 L 74.1241 441.18 L 74.5395 440.757 L 74.955 440.334 L 75.3704 439.911 L 75.7858 439.488 L 76.2012 439.065 L 76.6166 438.642 L 77.032 438.219 L 77.4474 437.796 L 77.8629 437.373 L 78.2783 436.95 L 78.6937 436.526 L 79.1091 436.103 L 79.5245 435.68 L 79.9399 435.257 L 80.3554 434.834 L 80.7708 434.411 L 81.1862 433.988 L 81.6016 433.565 L 82.017 433.142 L 82.4324 432.719 L 82.8478 432.296 L 83.2633 431.872 L 83.6787 431.449 L 84.0941 431.026 L 84.5095 430.603 L 84.9249 430.18 L 85.3403 429.757 L 85.7558 429.334 L 86.1712 428.911 L 86.5866 428.488 L 87.002 428.065 L 87.4174 427.642 L 87.8328 427.219 L 88.2482 426.795 L 88.6637 426.372 L 89.0791 425.949 L 89.4945 425.526 L 89.9099 425.103 L 90.3253 424.68 L 90.7407 424.257 L 91.1562 423.834 L 91.5716 423.411 L 91.987 422.988 L 92.4024 422.565 L 92.8178 422.141 L 93.2332 421.718 L 93.6486 421.295 L 94.0641 420.872 L 94.4795 420.449 L 94.8949 420.026 L 95.3103 419.603 L 95.7257 419.18 L 96.1411 418.757 L 96.5566 418.334 L 96.972 417.911 L 97.3874 417.487 L 97.8028 417.064 L 98.2182 416.641 L 98.6336 416.218 L 99.049 415.795 L 99.4645 415.372 L 99.8799 414.949 L 100.295 414.526 L 100.711 414.103 L 101.126 413.68 L 101.542 413.257 L 101.957 412.834 L 102.372 412.41 L 102.788 411.987 L 103.203 411.564 L 103.619 411.141 L 104.034 410.718 L 104.449 410.295 L 104.865 409.872 L 105.28 409.449 L 105.696 409.026 L 106.111 408.603 L 106.527 408.18 L 106.942 407.756 L 107.357 407.333 L 107.773 406.91 L 108.188 406.487 L 108.604 406.064 L 109.019 405.641 L 109.434 405.218 L 109.85 404.795 L 110.265 404.372 L 110.681 403.949 L 111.096 403.526 L 111.512 403.102 L 111.927 402.679 L 112.342 402.256 L 112.758 401.833 L 113.173 401.41 L 113.589 400.987 L 114.004 400.564 L 114.419 400.141 L 114.835 399.718 L 115.25 399.295 L 115.666 398.872 L 116.081 398.449 L 116.496 398.025 L 116.912 397.602 L 117.327 397.179 L 117.743 396.756 L 118.158 396.333 L 118.574 395.91 L 118.989 395.487 L 119.404 395.064 L 119.82 394.641 L 120.235 394.218 L 120.651 393.795 L 121.066 393.371 L 121.481 392.948 L 121.897 392.525 L 122.312 392.102 L 122.728 391.679 L 123.143 391.256 L 123.559 390.833 L 123.974 390.41 L 124.389 389.987 L 124.805 389.564 L 125.22 389.141 L 125.636 388.717 L 126.051 388.294 L 126.466 387.871 L 126.882 387.448 L 127.297 387.025 L 127.713 386.602 L 128.128 386.179 L 128.544 385.756 L 128.959 385.333 L 129.374 384.91 L 129.79 384.487 L 130.205 384.063 L 130.621 383.64 L 131.036 383.217 L 131.451 382.794 L 131.867 382.371 L 132.282 381.948 L 132.698 381.525 L 133.113 381.102 L 133.529 380.679 L 133.944 380.256 L 134.359 379.833 L 134.775 379.41 L 135.19 378.986 L 135.606 378.563 L 136.021 378.14 L 136.436 377.717 L 136.852 377.294 L 137.267 376.871 L 137.683 376.448 L 138.098 376.025 L 138.514 375.602 L 138.929 375.179 L 139.344 374.756 L 139.76 374.332 L 140.175 373.909 L 140.591 373.486 L 141.006 373.063 L 141.421 372.64 L 141.837 372.217 L 142.252 371.794 L 142.668 371.371 L 143.083 370.948 L 143.498 370.525 L 143.914 370.102 L 144.329 369.678 L 144.745 369.255 L 145.16 368.832 L 145.576 368.409 L 145.991 367.986 L 146.406 367.563 L 146.822 367.14 L 147.237 366.717 L 147.653 366.294 L 148.068 365.871 L 148.483 365.448 L 148.899 365.025 L 149.314 364.601 L 149.73 364.178 L 150.145 363.755 L 150.561 363.332 L 150.976 362.909 L 151.391 362.486 L 151.807 362.063 L 152.222 361.64 L 152.638 361.217 L 153.053 360.794 L 153.468 360.371 L 153.884 359.947 L 154.299 359.524 L 154.715 359.101 L 155.13 358.678 L 155.546 358.255 L 155.961 357.832 L 156.376 357.409 L 156.792 356.986 L 157.207 356.563 L 157.623 356.14 L 158.038 355.717 L 158.453 355.293 L 158.869 354.87 L 159.284 354.447 L 159.7 354.024 L 160.115 353.601 L 160.531 353.178 L 160.946 352.755 L 161.361 352.332 L 161.777 351.909 L 162.192 351.486 L 162.608 351.063 L 163.023 350.64 L 163.438 350.216 L 163.854 349.793 L 164.269 349.37 L 164.685 348.947 L 165.1 348.524 L 165.516 348.101 L 165.931 347.678 L 166.346 347.255 L 166.762 346.832 L 167.177 346.409 L 167.593 345.986 L 168.008 345.562 L 168.423 345.139 L 168.839 344.716 L 169.254 344.293 L 169.67 343.87 L 170.085 343.447 L 170.501 343.024 L 170.916 342.601 L 171.331 342.178 L 171.747 341.755 L 172.162 341.332 L 172.578 340.908 L 172.993 340.485 L 173.408 340.062 L 173.824 339.639 L 174.239 339.216 L 174.655 338.793 L 175.07 338.37 L 175.485 337.947 L 175.901 337.524 L 176.316 337.101 L 176.732 336.678 L 177.147 336.254 L 177.563 335.831 L 177.978 335.408 L 178.393 334.985 L 178.809 334.562 L 179.224 334.139 L 179.64 333.716 L 180.055 333.293 L 180.47 332.87 L 180.886 332.447 L 181.301 332.024 L 181.717 331.601 L 182.132 331.177 L 182.548 330.754 L 182.963 330.331 L 183.378 329.908 L 183.794 329.485 L 184.209 329.062 L 184.625 328.639 L 185.04 328.216 L 185.455 327.793 L 185.871 327.37 L 186.286 326.947 L 186.702 326.523 L 187.117 326.1 L 187.533 325.677 L 187.948 325.254 L 188.363 324.831 L 188.779 324.408 L 189.194 323.985 L 189.61 323.562 L 190.025 323.139 L 190.44 322.716 L 190.856 322.293 L 191.271 321.869 L 191.687 321.446 L 192.102 321.023 L 192.518 320.6 L 192.933 320.177 L 193.348 319.754 L 193.764 319.331 L 194.179 318.908 L 194.595 318.485 L 195.01 318.062 L 195.425 317.639 L 195.841 317.216 L 196.256 316.792 L 196.672 316.369 L 197.087 315.946 L 197.503 315.523 L 197.918 315.1 L 198.333 314.677 L 198.749 314.254 L 199.164 313.831 L 199.58 313.408 L 199.995 312.985 L 200.41 312.562 L 200.826 312.138 L 201.241 311.715 L 201.657 311.292 L 202.072 310.869 L 202.487 310.446 L 202.903 310.023 L 203.318 309.6 L 203.734 309.177 L 204.149 308.754 L 204.565 308.331 L 204.98 307.908 L 205.395 307.484 L 205.811 307.061 L 206.226 306.638 L 206.642 306.215 L 207.057 305.792 L 207.472 305.369 L 207.888 304.946 L 208.303 304.523 L 208.719 304.1 L 209.134 303.677 L 209.55 303.254 L 209.965 302.831 L 210.38 302.407 L 210.796 301.984 L 211.211 301.561 L 211.627 301.138 L 212.042 300.715 L 212.457 300.292 L 212.873 299.869 L 213.288 299.446 L 213.704 299.023 L 214.119 298.6 L 214.535 298.177 L 214.95 297.753 L 215.365 297.33 L 215.781 296.907 L 216.196 296.484 L 216.612 296.061 L 217.027 295.638 L 217.442 295.215 L 217.858 294.792 L 218.273 294.369 L 218.689 293.946 L 219.104 293.523 L 219.52 293.099 L 219.935 292.676 L 220.35 292.253 L 220.766 291.83 L 221.181 291.407 L 221.597 290.984 L 222.012 290.561 L 222.427 290.138 L 222.843 289.715 L 223.258 289.292 L 223.674 288.869 L 224.089 288.445 L 224.505 288.022 L 224.92 287.599 L 225.335 287.176 L 225.751 286.753 L 226.166 286.33 L 226.582 285.907 L 226.997 285.484 L 227.412 285.061 L 227.828 284.638 L 228.243 284.215 L 228.659 283.792 L 229.074 283.368 L 229.489 282.945 L 229.905 282.522 L 230.32 282.099 L 230.736 281.676 L 231.151 281.253 L 231.567 280.83 L 231.982 280.407 L 232.397 279.984 L 232.813 279.561 L 233.228 279.138 L 233.644 278.714 L 234.059 278.291 L 234.474 277.868 L 234.89 277.445 L 235.305 277.022 L 235.721 276.599 L 236.136 276.176 L 236.552 275.753 L 236.967 275.33 L 237.382 274.907 L 237.798 274.484 L 238.213 274.06 L 238.629 273.637 L 239.044 273.214 L 239.459 272.791 L 239.875 272.368 L 240.29 271.945 L 240.706 271.522 L 241.121 271.099 L 241.537 270.676 L 241.952 270.253 L 242.367 269.83 L 242.783 269.407 L 243.198 268.983 L 243.614 268.56 L 244.029 268.137 L 244.444 267.714 L 244.86 267.291 L 245.275 266.868 L 245.691 266.445 L 246.106 266.022 L 246.522 265.599 L 246.937 265.176 L 247.352 264.753 L 247.768 264.329 L 248.183 263.906 L 248.599 263.483 L 249.014 263.06 L 249.429 262.637 L 249.845 262.214 L 250.26 261.791 L 250.676 261.368 L 251.091 260.945 L 251.507 260.522 L 251.922 260.099 L 252.337 259.675 L 252.753 259.252 L 253.168 258.829 L 253.584 258.406 L 253.999 257.983 L 254.414 257.56 L 254.83 257.137 L 255.245 256.714 L 255.661 256.291 L 256.076 255.868 L 256.491 255.445 L 256.907 255.022 L 257.322 254.598 L 257.738 254.175 L 258.153 253.752 L 258.569 253.329 L 258.984 252.906 L 259.399 252.483 L 259.815 252.06 L 260.23 251.637 L 260.646 251.214 L 261.061 250.791 L 261.476 250.368 L 261.892 249.944 L 262.307 249.521 L 262.723 249.098 L 263.138 248.675 L 263.554 248.252 L 263.969 247.829 L 264.384 247.406 L 264.8 246.983 L 265.215 246.56 L 265.631 246.137 L 266.046 245.714 L 266.461 245.29 L 266.877 244.867 L 267.292 244.444 L 267.708 244.021 L 268.123 243.598 L 268.539 243.175 L 268.954 242.752 L 269.369 242.329 L 269.785 241.906 L 270.2 241.483 L 270.616 241.06 L 271.031 240.636 L 271.446 240.213 L 271.862 239.79 L 272.277 239.367 L 272.693 238.944 L 273.108 238.521 L 273.524 238.098 L 273.939 237.675 L 274.354 237.252 L 274.77 236.829 L 275.185 236.406 L 275.601 235.983 L 276.016 235.559 L 276.431 235.136 L 276.847 234.713 L 277.262 234.29 L 277.678 233.867 L 278.093 233.444 L 278.509 233.021 L 278.924 232.598 L 279.339 232.175 L 279.755 231.752 L 280.17 231.329 L 280.586 230.905 L 281.001 230.482 L 281.416 230.059 L 281.832 229.636 L 282.247 229.213 L 282.663 228.79 L 283.078 228.367 L 283.493 227.944 L 283.909 227.521 L 284.324 227.098 L 284.74 226.675 L 285.155 226.251 L 285.571 225.828 L 285.986 225.405 L 286.401 224.982 L 286.817 224.559 L 287.232 224.136 L 287.648 223.713 L 288.063 223.29 L 288.478 222.867 L 288.894 222.444 L 289.309 222.021 L 289.725 221.598 L 290.14 221.174 L 290.556 220.751 L 290.971 220.328 L 291.386 219.905 L 291.802 219.482 L 292.217 219.059 L 292.633 218.636 L 293.048 218.213 L 293.463 217.79 L 293.879 217.367 L 294.294 216.944 L 294.71 216.52 L 295.125 216.097 L 295.541 215.674 L 295.956 215.251 L 296.371 214.828 L 296.787 214.405 L 297.202 213.982 L 297.618 213.559 L 298.033 213.136 L 298.448 212.713 L 298.864 212.29 L 299.279 211.866 L 299.695 211.443 L 300.11 211.02 L 300.526 210.597 L 300.941 210.174 L 301.356 209.751 L 301.772 209.328 L 302.187 208.905 L 302.603 208.482 L 303.018 208.059 L 303.433 207.636 L 303.849 207.213 L 304.264 206.789 L 304.68 206.366 L 305.095 205.943 L 305.511 205.52 L 305.926 205.097 L 306.341 204.674 L 306.757 204.251 L 307.172 203.828 L 307.588 203.405 L 308.003 202.982 L 308.418 202.559 L 308.834 202.135 L 309.249 201.712 L 309.665 201.289 L 310.08 200.866 L 310.495 200.443 L 310.911 200.02 L 311.326 199.597 L 311.742 199.174 L 312.157 198.751 L 312.573 198.328 L 312.988 197.905 L 313.403 197.481 L 313.819 197.058 L 314.234 196.635 L 314.65 196.212 L 315.065 195.789 L 315.48 195.366 L 315.896 194.943 L 316.311 194.52 L 316.727 194.097 L 317.142 193.674 L 317.558 193.251 L 317.973 192.827 L 318.388 192.404 L 318.804 191.981 L 319.219 191.558 L 319.635 191.135 L 320.05 190.712 L 320.465 190.289 L 320.881 189.866 L 321.296 189.443 L 321.712 189.02 L 322.127 188.597 L 322.543 188.174 L 322.958 187.75 L 323.373 187.327 L 323.789 186.904 L 324.204 186.481 L 324.62 186.058 L 325.035 185.635 L 325.45 185.212 L 325.866 184.789 L 326.281 184.366 L 326.697 183.943 L 327.112 183.52 L 327.528 183.096 L 327.943 182.673 L 328.358 182.25 L 328.774 181.827 L 329.189 181.404 L 329.605 180.981 L 330.02 180.558 L 330.435 180.135 L 330.851 179.712 L 331.266 179.289 L 331.682 178.866 L 332.097 178.442 L 332.513 178.019 L 332.928 177.596 L 333.343 177.173 L 333.759 176.75 L 334.174 176.327 L 334.59 175.904 L 335.005 175.481 L 335.42 175.058 L 335.836 174.635 L 336.251 174.212 L 336.667 173.789 L 337.082 173.365 L 337.497 172.942 L 337.913 172.519 L 338.328 172.096 L 338.744 171.673 L 339.159 171.25 L 339.575 170.827 L 339.99 170.404 L 340.405 169.981 L 340.821 169.558 L 341.236 169.135 L 341.652 168.711 L 342.067 168.288 L 342.482 167.865 L 342.898 167.442 L 343.313 167.019 L 343.729 166.596 L 344.144 166.173 L 344.56 165.75 L 344.975 165.327 L 345.39 164.904 L 345.806 164.481 L 346.221 164.057 L 346.637 163.634 L 347.052 163.211 L 347.467 162.788 L 347.883 162.365 L 348.298 161.942 L 348.714 161.519 L 349.129 161.096 L 349.545 160.673 L 349.96 160.25 L 350.375 159.827 L 350.791 159.404 L 351.206 158.98 L 351.622 158.557 L 352.037 158.134 L 352.452 157.711 L 352.868 157.288 L 353.283 156.865 L 353.699 156.442 L 354.114 156.019 L 354.53 155.596 L 354.945 155.173 L 355.36 154.75 L 355.776 154.326 L 356.191 153.903 L 356.607 153.48 L 357.022 153.057 L 357.437 152.634 L 357.853 152.211 L 358.268 151.788 L 358.684 151.365 L 359.099 150.942 L 359.515 150.519 L 359.93 150.096 L 360.345 149.672 L 360.761 149.249 L 361.176 148.826 L 361.592 148.403 L 362.007 147.98 L 362.422 147.557 L 362.838 147.134 L 363.253 146.711 L 363.669 146.288 L 364.084 145.865 L 364.499 145.442 L 364.915 145.018 L 365.33 144.595 L 365.746 144.172 L 366.161 143.749 L 366.577 143.326 L 366.992 142.903 L 367.407 142.48 L 367.823 142.057 L 368.238 141.634 L 368.654 141.211 L 369.069 140.788 L 369.484 140.365 L 369.9 139.941 L 370.315 139.518 L 370.731 139.095 L 371.146 138.672 L 371.562 138.249 L 371.977 137.826 L 372.392 137.403 L 372.808 136.98 L 373.223 136.557 L 373.639 136.134 L 374.054 135.711 L 374.469 135.287 L 374.885 134.864 L 375.3 134.441 L 375.716 134.018 L 376.131 133.595 L 376.547 133.172 L 376.962 132.749 L 377.377 132.326 L 377.793 131.903 L 378.208 131.48 L 378.624 131.057 L 379.039 130.633 L 379.454 130.21 L 379.87 129.787 L 380.285 129.364 L 380.701 128.941 L 381.116 128.518 L 381.532 128.095 L 381.947 127.672 L 382.362 127.249 L 382.778 126.826 L 383.193 126.403 L 383.609 125.98 L 384.024 125.556 L 384.439 125.133 L 384.855 124.71 L 385.27 124.287 L 385.686 123.864 L 386.101 123.441 L 386.517 123.018 L 386.932 122.595 L 387.347 122.172 L 387.763 121.749 L 388.178 121.326 L 388.594 120.902 L 389.009 120.479 L 389.424 120.056 L 389.84 119.633 L 390.255 119.21 L 390.671 118.787 L 391.086 118.364 L 391.502 117.941 L 391.917 117.518 L 392.332 117.095 L 392.748 116.672 L 393.163 116.248 L 393.579 115.825 L 393.994 115.402 L 394.409 114.979 L 394.825 114.556 L 395.24 114.133 L 395.656 113.71 L 396.071 113.287 L 396.486 112.864 L 396.902 112.441 L 397.317 112.018 L 397.733 111.594 L 398.148 111.171 L 398.564 110.748 L 398.979 110.325 L 399.394 109.902 L 399.81 109.479 L 400.225 109.056 L 400.641 108.633 L 401.056 108.21 L 401.471 107.787 L 401.887 107.364 L 402.302 106.941 L 402.718 106.517 L 403.133 106.094 L 403.549 105.671 L 403.964 105.248 L 404.379 104.825 L 404.795 104.402 L 405.21 103.979 L 405.626 103.556 L 406.041 103.133 L 406.456 102.71 L 406.872 102.287 L 407.287 101.863 L 407.703 101.44 L 408.118 101.017 L 408.534 100.594 L 408.949 100.171 L 409.364 99.748 L 409.78 99.3249 L 410.195 98.9018 L 410.611 98.4788 L 411.026 98.0557 L 411.441 97.6326 L 411.857 97.2095 L 412.272 96.7864 L 412.688 96.3633 L 413.103 95.9402 L 413.519 95.5171 L 413.934 95.094 L 414.349 94.671 L 414.765 94.2479 L 415.18 93.8248 L 415.596 93.4017 L 416.011 92.9786 L 416.426 92.5555 L 416.842 92.1324 L 417.257 91.7093 L 417.673 91.2863 L 418.088 90.8632 L 418.504 90.4401 L 418.919 90.017 L 419.334 89.5939 L 419.75 89.1708 L 420.165 88.7477 L 420.581 88.3246 L 420.996 87.9015 L 421.411 87.4785 L 421.827 87.0554 L 422.242 86.6323 L 422.658 86.2092 L 423.073 85.7861 L 423.488 85.363 L 423.904 84.9399 L 424.319 84.5168 L 424.735 84.0937 L 425.15 83.6707 L 425.566 83.2476 L 425.981 82.8245 L 426.396 82.4014 L 426.812 81.9783 L 427.227 81.5552 L 427.643 81.1321 L 428.058 80.709 L 428.473 80.2859 L 428.889 79.8629 L 429.304 79.4398 L 429.72 79.0167 L 430.135 78.5936 L 430.551 78.1705 L 430.966 77.7474 L 431.381 77.3243 L 431.797 76.9012 L 432.212 76.4782 L 432.628 76.0551 L 433.043 75.632 L 433.458 75.2089 L 433.874 74.7858 L 434.289 74.3627 L 434.705 73.9396 L 435.12 73.5165 L 435.536 73.0934 L 435.951 72.6704 L 436.366 72.2473 L 436.782 71.8242 L 437.197 71.4011 L 437.613 70.978 L 438.028 70.5549 L 438.443 70.1318 L 438.859 69.7087 L 439.274 69.2856 L 439.69 68.8626 L 440.105 68.4395 L 440.521 68.0164 L 440.936 67.5933 L 441.351 67.1702 L 441.767 66.7471 L 442.182 66.324 L 442.598 65.9009 L 443.013 65.4779 L 443.428 65.0548 L 443.844 64.6317 L 444.259 64.2086 L 444.675 63.7855 L 445.09 63.3624 L 445.506 62.9393 L 445.921 62.5162 L 446.336 62.0931 L 446.752 61.6701 L 447.167 61.247 L 447.583 60.8239 L 447.998 60.4008 L 448.413 59.9777 L 448.829 59.5546 L 449.244 59.1315 L 449.66 58.7084 L 450.075 58.2853 L 450.49 57.8623 L 450.906 57.4392 L 451.321 57.0161 L 451.737 56.593 L 452.152 56.1699 L 452.568 55.7468 L 452.983 55.3237 L 453.398 54.9006 L 453.814 54.4776 L 454.229 54.0545 L 454.645 53.6314 L 455.06 53.2083 L 455.475 52.7852 L 455.891 52.3621 L 456.306 51.939 L 456.722 51.5159 L 457.137 51.0928 L 457.553 50.6698 L 457.968 50.2467 L 458.383 49.8236 L 458.799 49.4005 L 459.214 48.9774 L 459.63 48.5543 L 460.045 48.1312 L 460.46 47.7081 L 460.876 47.285 L 461.291 46.862 L 461.707 46.4389 L 462.122 46.0158 L 462.538 45.5927 L 462.953 45.1696 L 463.368 44.7465 L 463.784 44.3234 L 464.199 43.9003 L 464.615 43.4772 L 465.03 43.0542 L 465.445 42.6311 L 465.861 42.208 L 466.276 41.7849 L 466.692 41.3618 L 467.107 40.9387 L 467.523 40.5156 L 467.938 40.0925 L 468.353 39.6695 L 468.769 39.2464 L 469.184 38.8233 L 469.6 38.4002 L 470.015 37.9771 L 470.43 37.554 L 470.846 37.1309 L 471.261 36.7078 L 471.677 36.2847 L 472.092 35.8617 L 472.508 35.4386 L 472.923 35.0155 L 473.338 34.5924 L 473.754 34.1693 L 474.169 33.7462 L 474.585 33.3231 L 475 32.9" stroke-width="3" stroke-dasharray="" stroke="black" stroke-opacity="1" fill="none" />
</g>
<g id="frame_0">
    <rect id="frame_0_border" x="60" y="25" width="415" height="435" />
    <g id="frame_0_bottomticks">
        <path d="M 157.163 460 L 157.163 440" />
        <text font-size="30" transform="translate(157.163, 490)" text-anchor="middle" dominant-baseline="middle" stroke="none" fill="black">0</text>
        <path d="M 190.099 460 L 190.099 450" />
        <path d="M 223.036 460 L 223.036 440" />
        <text font-size="30" transform="translate(223.036, 490)" text-anchor="middle" dominant-baseline="middle" stroke="none" fill="black">2</text>
        <path d="M 255.972 460 L 255.972 450" />
        <path d="M 288.909 460 L 288.909 440" />
        <text font-size="30" transform="translate(288.909, 490)" text-anchor="middle" dominant-baseline="middle" stroke="none" fill="black">4</text>
        <path d="M 321.845 460 L 321.845 450" />
        <path d="M 354.782 460 L 354.782 440" />
        <text font-size="30" transform="translate(354.782, 490)" text-anchor="middle" dominant-baseline="middle" stroke="none" fill="black">6</text>
        <path d="M 387.718 460 L 387.718 450" />
        <path d="M 420.655 460 L 420.655 440" />
        <text font-size="30" transform="translate(420.655, 490)" text-anchor="middle" dominant-baseline="middle" stroke="none" fill="black">8</text>
        <path d="M 453.591 460 L 453.591 450" />
        <path d="M 91.2897 460 L 91.2897 440" />
        <text font-size="30" transform="translate(91.2897, 490)" text-anchor="middle" dominant-baseline="middle" stroke="none" fill="black">‒2</text>
        <path d="M 124.226 460 L 124.226 450" />
    </g>
    <g id="frame_0_leftticks">
        <path d="M 60 447.917 L 70 447.917" />
        <path d="M 60 367.361 L 70 367.361" />
        <path d="M 60 165.972 L 80 165.972" />
        <text font-size="30" transform="translate(50, 175.972)" text-anchor="end" dominant-baseline="middle" stroke="none" fill="black">2</text>
        <path d="M 60 85.4167 L 80 85.4167" />
        <text font-size="30" transform="translate(50, 95.4167)" text-anchor="end" dominant-baseline="middle" stroke="none" fill="black">3</text>
        <path d="M 60 327.083 L 80 327.083" />
        <text font-size="30" transform="translate(50, 337.083)" text-anchor="end" dominant-baseline="middle" stroke="none" fill="black">0</text>
        <path d="M 60 246.528 L 80 246.528" />
        <text font-size="30" transform="translate(50, 256.528)" text-anchor="end" dominant-baseline="middle" stroke="none" fill="black">1</text>
        <path d="M 60 222.361 L 70 222.361" />
        <path d="M 60 61.25 L 70 61.25" />
        <path d="M 60 69.3056 L 70 69.3056" />
        <path d="M 60 133.75 L 70 133.75" />
        <path d="M 60 214.306 L 70 214.306" />
        <path d="M 60 270.694 L 70 270.694" />
        <path d="M 60 343.194 L 70 343.194" />
        <path d="M 60 335.139 L 70 335.139" />
        <path d="M 60 157.917 L 70 157.917" />
        <path d="M 60 230.417 L 70 230.417" />
        <path d="M 60 286.806 L 70 286.806" />
        <path d="M 60 375.417 L 70 375.417" />
        <path d="M 60 182.083 L 70 182.083" />
        <path d="M 60 254.583 L 70 254.583" />
        <path d="M 60 423.75 L 70 423.75" />
        <path d="M 60 206.25 L 70 206.25" />
        <path d="M 60 109.583 L 70 109.583" />
        <path d="M 60 351.25 L 70 351.25" />
        <path d="M 60 29.0278 L 70 29.0278" />
        <path d="M 60 101.528 L 70 101.528" />
        <path d="M 60 310.972 L 70 310.972" />
        <path d="M 60 455.972 L 70 455.972" />
        <path d="M 60 77.3611 L 70 77.3611" />
        <path d="M 60 190.139 L 70 190.139" />
        <path d="M 60 302.917 L 70 302.917" />
        <path d="M 60 278.75 L 70 278.75" />
        <path d="M 60 431.806 L 70 431.806" />
        <path d="M 60 399.583 L 70 399.583" />
        <path d="M 60 141.806 L 70 141.806" />
        <path d="M 60 53.1944 L 70 53.1944" />
        <path d="M 60 45.1389 L 70 45.1389" />
        <path d="M 60 238.472 L 70 238.472" />
        <path d="M 60 262.639 L 70 262.639" />
        <path d="M 60 415.694 L 70 415.694" />
        <path d="M 60 125.694 L 70 125.694" />
        <path d="M 60 93.4722 L 70 93.4722" />
        <path d="M 60 294.861 L 70 294.861" />
        <path d="M 60 319.028 L 70 319.028" />
        <path d="M 60 439.861 L 70 439.861" />
        <path d="M 60 383.472 L 70 383.472" />
        <path d="M 60 149.861 L 70 149.861" />
        <path d="M 60 391.528 L 70 391.528" />
        <path d="M 60 174.028 L 70 174.028" />
        <path d="M 60 117.639 L 70 117.639" />
        <path d="M 60 407.639 L 80 407.639" />
        <text font-size="30" transform="translate(50, 417.639)" text-anchor="end" dominant-baseline="middle" stroke="none" fill="black">‒1</text>
        <path d="M 60 37.0833 L 70 37.0833" />
        <path d="M 60 198.194 L 70 198.194" />
        <path d="M 60 359.306 L 70 359.306" />
    </g>
    <g id="frame_0_topticks">
        <path d="M 157.163 25 L 157.163 45" />
        <path d="M 190.099 25 L 190.099 35" />
        <path d="M 223.036 25 L 223.036 45" />
        <path d="M 255.972 25 L 255.972 35" />
        <path d="M 288.909 25 L 288.909 45" />
        <path d="M 321.845 25 L 321.845 35" />
        <path d="M 354.782 25 L 354.782 45" />
        <path d="M 387.718 25 L 387.718 35" />
        <path d="M 420.655 25 L 420.655 45" />
        <path d="M 453.591 25 L 453.591 35" />
        <path d="M 91.2897 25 L 91.2897 45" />
        <path d="M 124.226 25 L 124.226 35" />
    </g>
    <g id="frame_0_rightticks">
        <path d="M 475 447.917 L 465 447.917" />
        <path d="M 475 367.361 L 465 367.361" />
        <path d="M 475 165.972 L 455 165.972" />
        <path d="M 475 85.4167 L 455 85.4167" />
        <path d="M 475 327.083 L 455 327.083" />
        <path d="M 475 246.528 L 455 246.528" />
        <path d="M 475 222.361 L 465 222.361" />
        <path d="M 475 61.25 L 465 61.25" />
        <path d="M 475 69.3056 L 465 69.3056" />
        <path d="M 475 133.75 L 465 133.75" />
        <path d="M 475 214.306 L 465 214.306" />
        <path d="M 475 270.694 L 465 270.694" />
        <path d="M 475 343.194 L 465 343.194" />
        <path d="M 475 335.139 L 465 335.139" />
        <path d="M 475 157.917 L 465 157.917" />
        <path d="M 475 230.417 L 465 230.417" />
        <path d="M 475 286.806 L 465 286.806" />
        <path d="M 475 375.417 L 465 375.417" />
        <path d="M 475 182.083 L 465 182.083" />
        <path d="M 475 254.583 L 465 254.583" />
        <path d="M 475 423.75 L 465 423.75" />
        <path d="M 475 206.25 L 465 206.25" />
        <path d="M 475 109.583 L 465 109.583" />
        <path d="M 475 351.25 L 465 351.25" />
        <path d="M 475 29.0278 L 465 29.0278" />
        <path d="M 475 101.528 L 465 101.528" />
        <path d="M 475 310.972 L 465 310.972" />
        <path d="M 475 455.972 L 465 455.972" />
        <path d="M 475 77.3611 L 465 77.3611" />
        <path d="M 475 190.139 L 465 190.139" />
        <path d="M 475 302.917 L 465 302.917" />
        <path d="M 475 278.75 L 465 278.75" />
        <path d="M 475 431.806 L 465 431.806" />
        <path d="M 475 399.583 L 465 399.583" />
        <path d="M 475 141.806 L 465 141.806" />
        <path d="M 475 53.1944 L 465 53.1944" />
        <path d="M 475 45.1389 L 465 45.1389" />
        <path d="M 475 238.472 L 465 238.472" />
        <path d="M 475 262.639 L 465 262.639" />
        <path d="M 475 415.694 L 465 415.694" />
        <path d="M 475 125.694 L 465 125.694" />
        <path d="M 475 93.4722 L 465 93.4722" />
        <path d="M 475 294.861 L 465 294.861" />
        <path d="M 475 319.028 L 465 319.028" />
        <path d="M 475 439.861 L 465 439.861" />
        <path d="M 475 383.472 L 465 383.472" />
        <path d="M 475 149.861 L 465 149.861" />
        <path d="M 475 391.528 L 465 391.528" />
        <path d="M 475 174.028 L 465 174.028" />
        <path d="M 475 117.639 L 465 117.639" />
        <path d="M 475 407.639 L 455 407.639" />
        <path d="M 475 37.0833 L 465 37.0833" />
        <path d="M 475 198.194 L 465 198.194" />
        <path d="M 475 359.306 L 465 359.306" />
    </g>
</g>
<g id="Scatter_2" clip-path="url(#Scatter_2_clip)">
    <use x="607.159" y="410.324" xlink:href="#Scatter_2_mark" />
    <use x="607.159" y="410.324" xlink:href="#Scatter_2_mark" />
    <use x="600.871" y="410.324" xlink:href="#Scatter_2_mark" />
    <use x="613.447" y="410.324" xlink:href="#Scatter_2_mark" />
    <use x="607.159" y="410.324" xlink:href="#Scatter_2_mark" />
    <use x="626.023" y="383.472" xlink:href="#Scatter_2_mark" />
    <use x="607.159" y="396.898" xlink:href="#Scatter_2_mark" />
    <use x="613.447" y="410.324" xlink:href="#Scatter_2_mark" />
    <use x="607.159" y="410.324" xlink:href="#Scatter_2_mark" />
    <use x="613.447" y="423.75" xlink:href="#Scatter_2_mark" />
    <use x="613.447" y="410.324" xlink:href="#Scatter_2_mark" />
    <use x="619.735" y="410.324" xlink:href="#Scatter_2_mark" />
    <use x="607.159" y="423.75" xlink:href="#Scatter_2_mark" />
    <use x="588.295" y="423.75" xlink:href="#Scatter_2_mark" />
    <use x="594.583" y="410.324" xlink:href="#Scatter_2_mark" />
    <use x="613.447" y="383.472" xlink:href="#Scatter_2_mark" />
    <use x="600.871" y="383.472" xlink:href="#Scatter_2_mark" />
    <use x="607.159" y="396.898" xlink:href="#Scatter_2_mark" />
    <use x="626.023" y="396.898" xlink:href="#Scatter_2_mark" />
    <use x="613.447" y="396.898" xlink:href="#Scatter_2_mark" />
    <use x="626.023" y="410.324" xlink:href="#Scatter_2_mark" />
    <use x="613.447" y="383.472" xlink:href="#Scatter_2_mark" />
    <use x="582.008" y="410.324" xlink:href="#Scatter_2_mark" />
    <use x="626.023" y="370.046" xlink:href="#Scatter_2_mark" />
    <use x="638.598" y="410.324" xlink:href="#Scatter_2_mark" />
    <use x="619.735" y="410.324" xlink:href="#Scatter_2_mark" />
    <use x="619.735" y="383.472" xlink:href="#Scatter_2_mark" />
    <use x="613.447" y="410.324" xlink:href="#Scatter_2_mark" />
    <use x="607.159" y="410.324" xlink:href="#Scatter_2_mark" />
    <use x="619.735" y="410.324" xlink:href="#Scatter_2_mark" />
    <use x="619.735" y="410.324" xlink:href="#Scatter_2_mark" />
    <use x="613.447" y="383.472" xlink:href="#Scatter_2_mark" />
    <use x="613.447" y="423.75" xlink:href="#Scatter_2_mark" />
    <use x="607.159" y="410.324" xlink:href="#Scatter_2_mark" />
    <use x="613.447" y="423.75" xlink:href="#Scatter_2_mark" />
    <use x="594.583" y="410.324" xlink:href="#Scatter_2_mark" />
    <use x="600.871" y="410.324" xlink:href="#Scatter_2_mark" />
    <use x="613.447" y="423.75" xlink:href="#Scatter_2_mark" />
    <use x="600.871" y="410.324" xlink:href="#Scatter_2_mark" />
    <use x="613.447" y="410.324" xlink:href="#Scatter_2_mark" />
    <use x="600.871" y="396.898" xlink:href="#Scatter_2_mark" />
    <use x="600.871" y="396.898" xlink:href="#Scatter_2_mark" />
    <use x="600.871" y="410.324" xlink:href="#Scatter_2_mark" />
    <use x="619.735" y="356.62" xlink:href="#Scatter_2_mark" />
    <use x="638.598" y="383.472" xlink:href="#Scatter_2_mark" />
    <use x="607.159" y="396.898" xlink:href="#Scatter_2_mark" />
    <use x="619.735" y="410.324" xlink:href="#Scatter_2_mark" />
    <use x="607.159" y="410.324" xlink:href="#Scatter_2_mark" />
    <use x="613.447" y="410.324" xlink:href="#Scatter_2_mark" />
    <use x="607.159" y="410.324" xlink:href="#Scatter_2_mark" />
</g>
<g id="Scatter_3" clip-path="url(#Scatter_3_clip)">
    <use x="814.659" y="249.213" xlink:href="#Scatter_3_mark" />
    <use x="802.083" y="235.787" xlink:href="#Scatter_3_mark" />
    <use x="827.235" y="235.787" xlink:href="#Scatter_3_mark" />
    <use x="770.644" y="262.639" xlink:href="#Scatter_3_mark" />
    <use x="808.371" y="235.787" xlink:href="#Scatter_3_mark" />
    <use x="802.083" y="262.639" xlink:href="#Scatter_3_mark" />
    <use x="814.659" y="222.361" xlink:href="#Scatter_3_mark" />
    <use x="726.629" y="302.917" xlink:href="#Scatter_3_mark" />
    <use x="808.371" y="262.639" xlink:href="#Scatter_3_mark" />
    <use x="764.356" y="249.213" xlink:href="#Scatter_3_mark" />
    <use x="739.205" y="302.917" xlink:href="#Scatter_3_mark" />
    <use x="783.22" y="235.787" xlink:href="#Scatter_3_mark" />
    <use x="770.644" y="302.917" xlink:href="#Scatter_3_mark" />
    <use x="814.659" y="249.213" xlink:href="#Scatter_3_mark" />
    <use x="745.492" y="262.639" xlink:href="#Scatter_3_mark" />
    <use x="795.795" y="249.213" xlink:href="#Scatter_3_mark" />
    <use x="802.083" y="235.787" xlink:href="#Scatter_3_mark" />
    <use x="776.932" y="302.917" xlink:href="#Scatter_3_mark" />
    <use x="802.083" y="235.787" xlink:href="#Scatter_3_mark" />
    <use x="764.356" y="289.491" xlink:href="#Scatter_3_mark" />
    <use x="820.947" y="195.509" xlink:href="#Scatter_3_mark" />
    <use x="770.644" y="262.639" xlink:href="#Scatter_3_mark" />
    <use x="827.235" y="235.787" xlink:href="#Scatter_3_mark" />
    <use x="814.659" y="276.065" xlink:href="#Scatter_3_mark" />
    <use x="789.508" y="262.639" xlink:href="#Scatter_3_mark" />
    <use x="795.795" y="249.213" xlink:href="#Scatter_3_mark" />
    <use x="820.947" y="249.213" xlink:href="#Scatter_3_mark" />
    <use x="833.523" y="208.935" xlink:href="#Scatter_3_mark" />
    <use x="802.083" y="235.787" xlink:href="#Scatter_3_mark" />
    <use x="739.205" y="302.917" xlink:href="#Scatter_3_mark" />
    <use x="758.068" y="289.491" xlink:href="#Scatter_3_mark" />
    <use x="751.78" y="302.917" xlink:href="#Scatter_3_mark" />
    <use x="764.356" y="276.065" xlink:href="#Scatter_3_mark" />
    <use x="839.811" y="222.361" xlink:href="#Scatter_3_mark" />
    <use x="802.083" y="235.787" xlink:href="#Scatter_3_mark" />
    <use x="802.083" y="222.361" xlink:href="#Scatter_3_mark" />
    <use x="814.659" y="235.787" xlink:href="#Scatter_3_mark" />
    <use x="795.795" y="262.639" xlink:href="#Scatter_3_mark" />
    <use x="776.932" y="262.639" xlink:href="#Scatter_3_mark" />
    <use x="770.644" y="262.639" xlink:href="#Scatter_3_mark" />
    <use x="795.795" y="276.065" xlink:href="#Scatter_3_mark" />
    <use x="808.371" y="249.213" xlink:href="#Scatter_3_mark" />
    <use x="770.644" y="276.065" xlink:href="#Scatter_3_mark" />
    <use x="726.629" y="302.917" xlink:href="#Scatter_3_mark" />
    <use x="783.22" y="262.639" xlink:href="#Scatter_3_mark" />
    <use x="783.22" y="276.065" xlink:href="#Scatter_3_mark" />
    <use x="783.22" y="262.639" xlink:href="#Scatter_3_mark" />
    <use x="789.508" y="262.639" xlink:href="#Scatter_3_mark" />
    <use x="707.765" y="289.491" xlink:href="#Scatter_3_mark" />
    <use x="776.932" y="262.639" xlink:href="#Scatter_3_mark" />
</g>
<g id="Scatter_4" clip-path="url(#Scatter_4_clip)">
    <use x="896.402" y="101.528" xlink:href="#Scatter_4_mark" />
    <use x="839.811" y="182.083" xlink:href="#Scatter_4_mark" />
    <use x="890.114" y="155.231" xlink:href="#Scatter_4_mark" />
    <use x="871.25" y="195.509" xlink:href="#Scatter_4_mark" />
    <use x="883.826" y="141.806" xlink:href="#Scatter_4_mark" />
    <use x="934.129" y="155.231" xlink:href="#Scatter_4_mark" />
    <use x="802.083" y="208.935" xlink:href="#Scatter_4_mark" />
    <use x="915.265" y="195.509" xlink:href="#Scatter_4_mark" />
    <use x="883.826" y="195.509" xlink:href="#Scatter_4_mark" />
    <use x="902.689" y="101.528" xlink:href="#Scatter_4_mark" />
    <use x="839.811" y="168.657" xlink:href="#Scatter_4_mark" />
    <use x="852.386" y="182.083" xlink:href="#Scatter_4_mark" />
    <use x="864.962" y="155.231" xlink:href="#Scatter_4_mark" />
    <use x="833.523" y="168.657" xlink:href="#Scatter_4_mark" />
    <use x="839.811" y="114.954" xlink:href="#Scatter_4_mark" />
    <use x="852.386" y="128.38" xlink:href="#Scatter_4_mark" />
    <use x="864.962" y="195.509" xlink:href="#Scatter_4_mark" />
    <use x="940.417" y="141.806" xlink:href="#Scatter_4_mark" />
    <use x="952.992" y="128.38" xlink:href="#Scatter_4_mark" />
    <use x="833.523" y="235.787" xlink:href="#Scatter_4_mark" />
    <use x="877.538" y="128.38" xlink:href="#Scatter_4_mark" />
    <use x="827.235" y="168.657" xlink:href="#Scatter_4_mark" />
    <use x="940.417" y="168.657" xlink:href="#Scatter_4_mark" />
    <use x="827.235" y="195.509" xlink:href="#Scatter_4_mark" />
    <use x="877.538" y="155.231" xlink:href="#Scatter_4_mark" />
    <use x="896.402" y="195.509" xlink:href="#Scatter_4_mark" />
    <use x="820.947" y="195.509" xlink:href="#Scatter_4_mark" />
    <use x="827.235" y="195.509" xlink:href="#Scatter_4_mark" />
    <use x="871.25" y="155.231" xlink:href="#Scatter_4_mark" />
    <use x="883.826" y="222.361" xlink:href="#Scatter_4_mark" />
    <use x="902.689" y="182.083" xlink:href="#Scatter_4_mark" />
    <use x="921.553" y="168.657" xlink:href="#Scatter_4_mark" />
    <use x="871.25" y="141.806" xlink:href="#Scatter_4_mark" />
    <use x="839.811" y="235.787" xlink:href="#Scatter_4_mark" />
    <use x="871.25" y="249.213" xlink:href="#Scatter_4_mark" />
    <use x="902.689" y="128.38" xlink:href="#Scatter_4_mark" />
    <use x="871.25" y="114.954" xlink:href="#Scatter_4_mark" />
    <use x="864.962" y="195.509" xlink:href="#Scatter_4_mark" />
    <use x="820.947" y="195.509" xlink:href="#Scatter_4_mark" />
    <use x="858.674" y="155.231" xlink:href="#Scatter_4_mark" />
    <use x="871.25" y="114.954" xlink:href="#Scatter_4_mark" />
    <use x="839.811" y="128.38" xlink:href="#Scatter_4_mark" />
    <use x="839.811" y="182.083" xlink:href="#Scatter_4_mark" />
    <use x="890.114" y="128.38" xlink:href="#Scatter_4_mark" />
    <use x="877.538" y="101.528" xlink:href="#Scatter_4_mark" />
    <use x="846.098" y="128.38" xlink:href="#Scatter_4_mark" />
    <use x="833.523" y="182.083" xlink:href="#Scatter_4_mark" />
    <use x="846.098" y="168.657" xlink:href="#Scatter_4_mark" />
    <use x="858.674" y="128.38" xlink:href="#Scatter_4_mark" />
    <use x="839.811" y="195.509" xlink:href="#Scatter_4_mark" />
</g>
<g id="frame_1">
    <rect id="frame_1_border" x="560" y="25" width="415" height="435" />
    <g id="frame_1_bottomticks">
        <path d="M 613.447 460 L 613.447 450" />
        <path d="M 676.326 460 L 676.326 450" />
        <path d="M 644.886 460 L 644.886 440" />
        <text font-size="30" transform="translate(644.886, 490)" text-anchor="middle" dominant-baseline="middle" stroke="none" fill="black">2</text>
        <path d="M 707.765 460 L 707.765 440" />
        <text font-size="30" transform="translate(707.765, 490)" text-anchor="middle" dominant-baseline="middle" stroke="none" fill="black">3</text>
        <path d="M 594.583 460 L 594.583 450" />
        <path d="M 833.523 460 L 833.523 440" />
        <text font-size="30" transform="translate(833.523, 490)" text-anchor="middle" dominant-baseline="middle" stroke="none" fill="black">5</text>
        <path d="M 802.083 460 L 802.083 450" />
        <path d="M 582.008 460 L 582.008 440" />
        <text font-size="30" transform="translate(582.008, 490)" text-anchor="middle" dominant-baseline="middle" stroke="none" fill="black">1</text>
        <path d="M 682.614 460 L 682.614 450" />
        <path d="M 890.114 460 L 890.114 450" />
        <path d="M 921.553 460 L 921.553 450" />
        <path d="M 751.78 460 L 751.78 450" />
        <path d="M 877.538 460 L 877.538 450" />
        <path d="M 789.508 460 L 789.508 450" />
        <path d="M 934.129 460 L 934.129 450" />
        <path d="M 695.189 460 L 695.189 450" />
        <path d="M 638.598 460 L 638.598 450" />
        <path d="M 808.371 460 L 808.371 450" />
        <path d="M 959.28 460 L 959.28 440" />
        <text font-size="30" transform="translate(959.28, 490)" text-anchor="middle" dominant-baseline="middle" stroke="none" fill="black">7</text>
        <path d="M 563.144 460 L 563.144 450" />
        <path d="M 952.992 460 L 952.992 450" />
        <path d="M 915.265 460 L 915.265 450" />
        <path d="M 896.402 460 L 896.402 440" />
        <text font-size="30" transform="translate(896.402, 490)" text-anchor="middle" dominant-baseline="middle" stroke="none" fill="black">6</text>
        <path d="M 745.492 460 L 745.492 450" />
        <path d="M 971.856 460 L 971.856 450" />
        <path d="M 827.235 460 L 827.235 450" />
        <path d="M 883.826 460 L 883.826 450" />
        <path d="M 607.159 460 L 607.159 450" />
        <path d="M 632.311 460 L 632.311 450" />
        <path d="M 701.477 460 L 701.477 450" />
        <path d="M 902.689 460 L 902.689 450" />
        <path d="M 846.098 460 L 846.098 450" />
        <path d="M 776.932 460 L 776.932 450" />
        <path d="M 908.977 460 L 908.977 450" />
        <path d="M 663.75 460 L 663.75 450" />
        <path d="M 858.674 460 L 858.674 450" />
        <path d="M 732.917 460 L 732.917 450" />
        <path d="M 739.205 460 L 739.205 450" />
        <path d="M 839.811 460 L 839.811 450" />
        <path d="M 626.023 460 L 626.023 450" />
        <path d="M 940.417 460 L 940.417 450" />
        <path d="M 670.038 460 L 670.038 450" />
        <path d="M 795.795 460 L 795.795 450" />
        <path d="M 814.659 460 L 814.659 450" />
        <path d="M 619.735 460 L 619.735 450" />
        <path d="M 764.356 460 L 764.356 450" />
        <path d="M 871.25 460 L 871.25 450" />
        <path d="M 575.72 460 L 575.72 450" />
        <path d="M 657.462 460 L 657.462 450" />
        <path d="M 726.629 460 L 726.629 450" />
        <path d="M 588.295 460 L 588.295 450" />
        <path d="M 569.432 460 L 569.432 450" />
        <path d="M 600.871 460 L 600.871 450" />
        <path d="M 946.705 460 L 946.705 450" />
        <path d="M 688.902 460 L 688.902 450" />
        <path d="M 758.068 460 L 758.068 450" />
        <path d="M 783.22 460 L 783.22 450" />
        <path d="M 714.053 460 L 714.053 450" />
        <path d="M 820.947 460 L 820.947 450" />
        <path d="M 965.568 460 L 965.568 450" />
        <path d="M 651.174 460 L 651.174 450" />
        <path d="M 852.386 460 L 852.386 450" />
        <path d="M 927.841 460 L 927.841 450" />
        <path d="M 720.341 460 L 720.341 450" />
        <path d="M 770.644 460 L 770.644 440" />
        <text font-size="30" transform="translate(770.644, 490)" text-anchor="middle" dominant-baseline="middle" stroke="none" fill="black">4</text>
        <path d="M 864.962 460 L 864.962 450" />
    </g>
    <g id="frame_1_leftticks">
        <path d="M 560 437.176 L 580 437.176" />
        <text font-size="30" transform="translate(550, 447.176)" text-anchor="end" dominant-baseline="middle" stroke="none" fill="black">0</text>
        <path d="M 560 370.046 L 580 370.046" />
        <text font-size="30" transform="translate(550, 380.046)" text-anchor="end" dominant-baseline="middle" stroke="none" fill="black">0.5</text>
        <path d="M 560 195.509 L 570 195.509" />
        <path d="M 560 34.3981 L 580 34.3981" />
        <text font-size="30" transform="translate(550, 44.3981)" text-anchor="end" dominant-baseline="middle" stroke="none" fill="black">3</text>
        <path d="M 560 356.62 L 570 356.62" />
        <path d="M 560 101.528 L 580 101.528" />
        <text font-size="30" transform="translate(550, 111.528)" text-anchor="end" dominant-baseline="middle" stroke="none" fill="black">2.5</text>
        <path d="M 560 302.917 L 580 302.917" />
        <text font-size="30" transform="translate(550, 312.917)" text-anchor="end" dominant-baseline="middle" stroke="none" fill="black">1</text>
        <path d="M 560 88.1019 L 570 88.1019" />
        <path d="M 560 168.657 L 580 168.657" />
        <text font-size="30" transform="translate(550, 178.657)" text-anchor="end" dominant-baseline="middle" stroke="none" fill="black">2</text>
        <path d="M 560 141.806 L 570 141.806" />
        <path d="M 560 396.898 L 570 396.898" />
        <path d="M 560 182.083 L 570 182.083" />
        <path d="M 560 329.769 L 570 329.769" />
        <path d="M 560 128.38 L 570 128.38" />
        <path d="M 560 450.602 L 570 450.602" />
        <path d="M 560 343.194 L 570 343.194" />
        <path d="M 560 114.954 L 570 114.954" />
        <path d="M 560 249.213 L 570 249.213" />
        <path d="M 560 262.639 L 570 262.639" />
        <path d="M 560 47.8241 L 570 47.8241" />
        <path d="M 560 289.491 L 570 289.491" />
        <path d="M 560 235.787 L 580 235.787" />
        <text font-size="30" transform="translate(550, 245.787)" text-anchor="end" dominant-baseline="middle" stroke="none" fill="black">1.5</text>
        <path d="M 560 276.065 L 570 276.065" />
        <path d="M 560 208.935 L 570 208.935" />
        <path d="M 560 423.75 L 570 423.75" />
        <path d="M 560 61.25 L 570 61.25" />
        <path d="M 560 316.343 L 570 316.343" />
        <path d="M 560 222.361 L 570 222.361" />
        <path d="M 560 383.472 L 570 383.472" />
        <path d="M 560 410.324 L 570 410.324" />
        <path d="M 560 74.6759 L 570 74.6759" />
        <path d="M 560 155.231 L 570 155.231" />
    </g>
    <g id="frame_1_topticks">
        <path d="M 613.447 25 L 613.447 35" />
        <path d="M 676.326 25 L 676.326 35" />
        <path d="M 644.886 25 L 644.886 45" />
        <path d="M 707.765 25 L 707.765 45" />
        <path d="M 594.583 25 L 594.583 35" />
        <path d="M 833.523 25 L 833.523 45" />
        <path d="M 802.083 25 L 802.083 35" />
        <path d="M 582.008 25 L 582.008 45" />
        <path d="M 682.614 25 L 682.614 35" />
        <path d="M 890.114 25 L 890.114 35" />
        <path d="M 921.553 25 L 921.553 35" />
        <path d="M 751.78 25 L 751.78 35" />
        <path d="M 877.538 25 L 877.538 35" />
        <path d="M 789.508 25 L 789.508 35" />
        <path d="M 934.129 25 L 934.129 35" />
        <path d="M 695.189 25 L 695.189 35" />
        <path d="M 638.598 25 L 638.598 35" />
        <path d="M 808.371 25 L 808.371 35" />
        <path d="M 959.28 25 L 959.28 45" />
        <path d="M 563.144 25 L 563.144 35" />
        <path d="M 952.992 25 L 952.992 35" />
        <path d="M 915.265 25 L 915.265 35" />
        <path d="M 896.402 25 L 896.402 45" />
        <path d="M 745.492 25 L 745.492 35" />
        <path d="M 971.856 25 L 971.856 35" />
        <path d="M 827.235 25 L 827.235 35" />
        <path d="M 883.826 25 L 883.826 35" />
        <path d="M 607.159 25 L 607.159 35" />
        <path d="M 632.311 25 L 632.311 35" />
        <path d="M 701.477 25 L 701.477 35" />
        <path d="M 902.689 25 L 902.689 35" />
        <path d="M 846.098 25 L 846.098 35" />
        <path d="M 776.932 25 L 776.932 35" />
        <path d="M 908.977 25 L 908.977 35" />
        <path d="M 663.75 25 L 663.75 35" />
        <path d="M 858.674 25 L 858.674 35" />
        <path d="M 732.917 25 L 732.917 35" />
        <path d="M 739.205 25 L 739.205 35" />
        <path d="M 839.811 25 L 839.811 35" />
        <path d="M 626.023 25 L 626.023 35" />
        <path d="M 940.417 25 L 940.417 35" />
        <path d="M 670.038 25 L 670.038 35" />
        <path d="M 795.795 25 L 795.795 35" />
        <path d="M 814.659 25 L 814.659 35" />
        <path d="M 619.735 25 L 619.735 35" />
        <path d="M 764.356 25 L 764.356 35" />
        <path d="M 871.25 25 L 871.25 35" />
        <path d="M 575.72 25 L 575.72 35" />
        <path d="M 657.462 25 L 657.462 35" />
        <path d="M 726.629 25 L 726.629 35" />
        <path d="M 588.295 25 L 588.295 35" />
        <path d="M 569.432 25 L 569.432 35" />
        <path d="M 600.871 25 L 600.871 35" />
        <path d="M 946.705 25 L 946.705 35" />
        <path d="M 688.902 25 L 688.902 35" />
        <path d="M 758.068 25 L 758.068 35" />
        <path d="M 783.22 25 L 783.22 35" />
        <path d="M 714.053 25 L 714.053 35" />
        <path d="M 820.947 25 L 820.947 35" />
        <path d="M 965.568 25 L 965.568 35" />
        <path d="M 651.174 25 L 651.174 35" />
        <path d="M 852.386 25 L 852.386 35" />
        <path d="M 927.841 25 L 927.841 35" />
        <path d="M 720.341 25 L 720.341 35" />
        <path d="M 770.644 25 L 770.644 45" />
        <path d="M 864.962 25 L 864.962 35" />
    </g>
    <g id="frame_1_rightticks">
        <path d="M 975 437.176 L 955 437.176" />
        <path d="M 975 370.046 L 955 370.046" />
        <path d="M 975 195.509 L 965 195.509" />
        <path d="M 975 34.3981 L 955 34.3981" />
        <path d="M 975 356.62 L 965 356.62" />
        <path d="M 975 101.528 L 955 101.528" />
        <path d="M 975 302.917 L 955 302.917" />
        <path d="M 975 88.1019 L 965 88.1019" />
        <path d="M 975 168.657 L 955 168.657" />
        <path d="M 975 141.806 L 965 141.806" />
        <path d="M 975 396.898 L 965 396.898" />
        <path d="M 975 182.083 L 965 182.083" />
        <path d="M 975 329.769 L 965 329.769" />
        <path d="M 975 128.38 L 965 128.38" />
        <path d="M 975 450.602 L 965 450.602" />
        <path d="M 975 343.194 L 965 343.194" />
        <path d="M 975 114.954 L 965 114.954" />
        <path d="M 975 249.213 L 965 249.213" />
        <path d="M 975 262.639 L 965 262.639" />
        <path d="M 975 47.8241 L 965 47.8241" />
        <path d="M 975 289.491 L 965 289.491" />
        <path d="M 975 235.787 L 955 235.787" />
        <path d="M 975 276.065 L 965 276.065" />
        <path d="M 975 208.935 L 965 208.935" />
        <path d="M 975 423.75 L 965 423.75" />
        <path d="M 975 61.25 L 965 61.25" />
        <path d="M 975 316.343 L 965 316.343" />
        <path d="M 975 222.361 L 965 222.361" />
        <path d="M 975 383.472 L 965 383.472" />
        <path d="M 975 410.324 L 965 410.324" />
        <path d="M 975 74.6759 L 965 74.6759" />
        <path d="M 975 155.231 L 965 155.231" />
    </g>
</g>
<g id="HistogramAbstract_0" clip-path="url(#HistogramAbstract_0_clip)">
    <path d="M 60 960 L 60 960 L 80.75 960 L 80.75 960 L 101.5 960 L 101.5 937.403 L 122.25 937.403 L 122.25 564.545 L 143 564.545 L 143 813.117 L 163.75 813.117 L 163.75 960 L 184.5 960 L 184.5 960 L 205.25 960 L 205.25 948.701 L 226 948.701 L 226 914.805 L 246.75 914.805 L 246.75 892.208 L 267.5 892.208 L 267.5 801.818 L 288.25 801.818 L 288.25 734.026 L 309 734.026 L 309 722.727 L 329.75 722.727 L 329.75 858.312 L 350.5 858.312 L 350.5 801.818 L 371.25 801.818 L 371.25 892.208 L 392 892.208 L 392 914.805 L 412.75 914.805 L 412.75 948.701 L 433.5 948.701 L 433.5 960 L 454.25 960 L 454.25 960 L 475 960 L 475 960" stroke-width="3" stroke-dasharray="" stroke="black" stroke-opacity="1" fill="#00fe00" fill-opacity="1" />
</g>
<g id="HistogramAbstract_1" clip-path="url(#HistogramAbstract_1_clip)">
    <path d="M 60 960 L 60 960 L 80.75 960 L 80.75 960 L 101.5 960 L 101.5 937.403 L 122.25 937.403 L 122.25 564.545 L 143 564.545 L 143 813.117 L 163.75 813.117 L 163.75 960 L 184.5 960 L 184.5 960 L 205.25 960 L 205.25 948.701 L 226 948.701 L 226 914.805 L 246.75 914.805 L 246.75 892.208 L 267.5 892.208 L 267.5 801.818 L 288.25 801.818 L 288.25 745.325 L 309 745.325 L 309 892.208 L 329.75 892.208 L 329.75 960 L 350.5 960 L 350.5 960 L 371.25 960 L 371.25 960 L 392 960 L 392 960 L 412.75 960 L 412.75 960 L 433.5 960 L 433.5 960 L 454.25 960 L 454.25 960 L 475 960 L 475 960" stroke-width="3" stroke-dasharray="" stroke="black" stroke-opacity="1" fill="#7f7fff" fill-opacity="1" />
</g>
<g id="HistogramAbstract_2" clip-path="url(#HistogramAbstract_2_clip)">
    <path d="M 60 960 L 60 960 L 80.75 960 L 80.75 960 L 101.5 960 L 101.5 937.403 L 122.25 937.403 L 122.25 564.545 L 143 564.545 L 143 813.117 L 163.75 813.117 L 163.75 960 L 184.5 960 L 184.5 960 L 205.25 960 L 205.25 960 L 226 960 L 226 960 L 246.75 960 L 246.75 960 L 267.5 960 L 267.5 960 L 288.25 960 L 288.25 960 L 309 960 L 309 960 L 329.75 960 L 329.75 960 L 350.5 960 L 350.5 960 L 371.25 960 L 371.25 960 L 392 960 L 392 960 L 412.75 960 L 412.75 960 L 433.5 960 L 433.5 960 L 454.25 960 L 454.25 960 L 475 960 L 475 960" stroke-width="3" stroke-dasharray="" stroke="black" stroke-opacity="1" fill="#ff7f7f" fill-opacity="1" />
</g>
<g id="frame_2">
    <rect id="frame_2_border" x="60" y="525" width="415" height="435" />
    <g id="frame_2_bottomticks">
        <path d="M 85.9375 960 L 85.9375 950" />
        <path d="M 137.812 960 L 137.812 950" />
        <path d="M 443.875 960 L 443.875 950" />
        <path d="M 215.625 960 L 215.625 940" />
        <text font-size="30" transform="translate(215.625, 990)" text-anchor="middle" dominant-baseline="middle" stroke="none" fill="black">3</text>
        <path d="M 91.125 960 L 91.125 950" />
        <path d="M 319.375 960 L 319.375 940" />
        <text font-size="30" transform="translate(319.375, 990)" text-anchor="middle" dominant-baseline="middle" stroke="none" fill="black">5</text>
        <path d="M 293.438 960 L 293.438 950" />
        <path d="M 111.875 960 L 111.875 940" />
        <text font-size="30" transform="translate(111.875, 990)" text-anchor="middle" dominant-baseline="middle" stroke="none" fill="black">1</text>
        <path d="M 475 960 L 475 940" />
        <text font-size="30" transform="translate(475, 990)" text-anchor="middle" dominant-baseline="middle" stroke="none" fill="black">8</text>
        <path d="M 153.375 960 L 153.375 950" />
        <path d="M 459.437 960 L 459.437 950" />
        <path d="M 392 960 L 392 950" />
        <path d="M 251.938 960 L 251.938 950" />
        <path d="M 355.687 960 L 355.687 950" />
        <path d="M 283.062 960 L 283.062 950" />
        <path d="M 174.125 960 L 174.125 950" />
        <path d="M 75.5625 960 L 75.5625 950" />
        <path d="M 402.375 960 L 402.375 950" />
        <path d="M 132.625 960 L 132.625 950" />
        <path d="M 101.5 960 L 101.5 950" />
        <path d="M 158.563 960 L 158.563 950" />
        <path d="M 298.625 960 L 298.625 950" />
        <path d="M 60 960 L 60 940" />
        <text font-size="30" transform="translate(60, 990)" text-anchor="middle" dominant-baseline="middle" stroke="none" fill="black">0</text>
        <path d="M 449.062 960 L 449.062 950" />
        <path d="M 454.25 960 L 454.25 950" />
        <path d="M 386.812 960 L 386.812 950" />
        <path d="M 96.3125 960 L 96.3125 950" />
        <path d="M 194.875 960 L 194.875 950" />
        <path d="M 417.937 960 L 417.937 950" />
        <path d="M 184.5 960 L 184.5 950" />
        <path d="M 371.25 960 L 371.25 940" />
        <text font-size="30" transform="translate(371.25, 990)" text-anchor="middle" dominant-baseline="middle" stroke="none" fill="black">6</text>
        <path d="M 189.688 960 L 189.688 950" />
        <path d="M 314.187 960 L 314.187 950" />
        <path d="M 246.75 960 L 246.75 950" />
        <path d="M 433.5 960 L 433.5 950" />
        <path d="M 303.812 960 L 303.812 950" />
        <path d="M 360.875 960 L 360.875 950" />
        <path d="M 366.062 960 L 366.062 950" />
        <path d="M 438.687 960 L 438.687 950" />
        <path d="M 127.438 960 L 127.438 950" />
        <path d="M 210.438 960 L 210.438 950" />
        <path d="M 376.437 960 L 376.437 950" />
        <path d="M 324.562 960 L 324.562 950" />
        <path d="M 329.75 960 L 329.75 950" />
        <path d="M 272.688 960 L 272.688 950" />
        <path d="M 117.062 960 L 117.062 950" />
        <path d="M 381.625 960 L 381.625 950" />
        <path d="M 179.313 960 L 179.313 950" />
        <path d="M 464.625 960 L 464.625 950" />
        <path d="M 163.75 960 L 163.75 940" />
        <text font-size="30" transform="translate(163.75, 990)" text-anchor="middle" dominant-baseline="middle" stroke="none" fill="black">2</text>
        <path d="M 236.375 960 L 236.375 950" />
        <path d="M 423.125 960 L 423.125 940" />
        <text font-size="30" transform="translate(423.125, 990)" text-anchor="middle" dominant-baseline="middle" stroke="none" fill="black">7</text>
        <path d="M 241.563 960 L 241.563 950" />
        <path d="M 288.25 960 L 288.25 950" />
        <path d="M 122.25 960 L 122.25 950" />
        <path d="M 407.562 960 L 407.562 950" />
        <path d="M 148.188 960 L 148.188 950" />
        <path d="M 65.1875 960 L 65.1875 950" />
        <path d="M 205.25 960 L 205.25 950" />
        <path d="M 262.313 960 L 262.313 950" />
        <path d="M 340.125 960 L 340.125 950" />
        <path d="M 350.5 960 L 350.5 950" />
        <path d="M 106.688 960 L 106.688 950" />
        <path d="M 143 960 L 143 950" />
        <path d="M 231.188 960 L 231.188 950" />
        <path d="M 469.812 960 L 469.812 950" />
        <path d="M 80.75 960 L 80.75 950" />
        <path d="M 70.375 960 L 70.375 950" />
        <path d="M 412.75 960 L 412.75 950" />
        <path d="M 200.063 960 L 200.063 950" />
        <path d="M 257.125 960 L 257.125 950" />
        <path d="M 277.875 960 L 277.875 950" />
        <path d="M 220.813 960 L 220.813 950" />
        <path d="M 309 960 L 309 950" />
        <path d="M 428.312 960 L 428.312 950" />
        <path d="M 168.938 960 L 168.938 950" />
        <path d="M 334.937 960 L 334.937 950" />
        <path d="M 397.187 960 L 397.187 950" />
        <path d="M 226 960 L 226 950" />
        <path d="M 267.5 960 L 267.5 940" />
        <text font-size="30" transform="translate(267.5, 990)" text-anchor="middle" dominant-baseline="middle" stroke="none" fill="black">4</text>
        <path d="M 345.312 960 L 345.312 950" />
    </g>
    <g id="frame_2_leftticks">
        <path d="M 60 960 L 80 960" />
        <text font-size="30" transform="translate(50, 970)" text-anchor="end" dominant-baseline="middle" stroke="none" fill="black">0</text>
        <path d="M 60 948.701 L 70 948.701" />
        <path d="M 60 937.403 L 70 937.403" />
        <path d="M 60 926.104 L 70 926.104" />
        <path d="M 60 914.805 L 70 914.805" />
        <path d="M 60 903.506 L 80 903.506" />
        <text font-size="30" transform="translate(50, 913.506)" text-anchor="end" dominant-baseline="middle" stroke="none" fill="black">5</text>
        <path d="M 60 892.208 L 70 892.208" />
        <path d="M 60 880.909 L 70 880.909" />
        <path d="M 60 869.61 L 70 869.61" />
        <path d="M 60 858.312 L 70 858.312" />
        <path d="M 60 847.013 L 80 847.013" />
        <text font-size="30" transform="translate(50, 857.013)" text-anchor="end" dominant-baseline="middle" stroke="none" fill="black">10</text>
        <path d="M 60 835.714 L 70 835.714" />
        <path d="M 60 824.416 L 70 824.416" />
        <path d="M 60 813.117 L 70 813.117" />
        <path d="M 60 801.818 L 70 801.818" />
        <path d="M 60 790.519 L 80 790.519" />
        <text font-size="30" transform="translate(50, 800.519)" text-anchor="end" dominant-baseline="middle" stroke="none" fill="black">15</text>
        <path d="M 60 779.221 L 70 779.221" />
        <path d="M 60 767.922 L 70 767.922" />
        <path d="M 60 756.623 L 70 756.623" />
        <path d="M 60 745.325 L 70 745.325" />
        <path d="M 60 734.026 L 80 734.026" />
        <text font-size="30" transform="translate(50, 744.026)" text-anchor="end" dominant-baseline="middle" stroke="none" fill="black">20</text>
        <path d="M 60 722.727 L 70 722.727" />
        <path d="M 60 711.429 L 70 711.429" />
        <path d="M 60 700.13 L 70 700.13" />
        <path d="M 60 688.831 L 70 688.831" />
        <path d="M 60 677.532 L 80 677.532" />
        <text font-size="30" transform="translate(50, 687.532)" text-anchor="end" dominant-baseline="middle" stroke="none" fill="black">25</text>
        <path d="M 60 666.234 L 70 666.234" />
        <path d="M 60 654.935 L 70 654.935" />
        <path d="M 60 643.636 L 70 643.636" />
        <path d="M 60 632.338 L 70 632.338" />
        <path d="M 60 621.039 L 80 621.039" />
        <text font-size="30" transform="translate(50, 631.039)" text-anchor="end" dominant-baseline="middle" stroke="none" fill="black">30</text>
        <path d="M 60 609.74 L 70 609.74" />
        <path d="M 60 598.442 L 70 598.442" />
        <path d="M 60 587.143 L 70 587.143" />
        <path d="M 60 575.844 L 70 575.844" />
        <path d="M 60 564.545 L 80 564.545" />
        <text font-size="30" transform="translate(50, 574.545)" text-anchor="end" dominant-baseline="middle" stroke="none" fill="black">35</text>
        <path d="M 60 553.247 L 70 553.247" />
        <path d="M 60 541.948 L 70 541.948" />
        <path d="M 60 530.649 L 70 530.649" />
    </g>
    <g id="frame_2_topticks">
        <path d="M 85.9375 525 L 85.9375 535" />
        <path d="M 137.812 525 L 137.812 535" />
        <path d="M 443.875 525 L 443.875 535" />
        <path d="M 215.625 525 L 215.625 545" />
        <path d="M 91.125 525 L 91.125 535" />
        <path d="M 319.375 525 L 319.375 545" />
        <path d="M 293.438 525 L 293.438 535" />
        <path d="M 111.875 525 L 111.875 545" />
        <path d="M 475 525 L 475 545" />
        <path d="M 153.375 525 L 153.375 535" />
        <path d="M 459.437 525 L 459.437 535" />
        <path d="M 392 525 L 392 535" />
        <path d="M 251.938 525 L 251.938 535" />
        <path d="M 355.687 525 L 355.687 535" />
        <path d="M 283.062 525 L 283.062 535" />
        <path d="M 174.125 525 L 174.125 535" />
        <path d="M 75.5625 525 L 75.5625 535" />
        <path d="M 402.375 525 L 402.375 535" />
        <path d="M 132.625 525 L 132.625 535" />
        <path d="M 101.5 525 L 101.5 535" />
        <path d="M 158.563 525 L 158.563 535" />
        <path d="M 298.625 525 L 298.625 535" />
        <path d="M 60 525 L 60 545" />
        <path d="M 449.062 525 L 449.062 535" />
        <path d="M 454.25 525 L 454.25 535" />
        <path d="M 386.812 525 L 386.812 535" />
        <path d="M 96.3125 525 L 96.3125 535" />
        <path d="M 194.875 525 L 194.875 535" />
        <path d="M 417.937 525 L 417.937 535" />
        <path d="M 184.5 525 L 184.5 535" />
        <path d="M 371.25 525 L 371.25 545" />
        <path d="M 189.688 525 L 189.688 535" />
        <path d="M 314.187 525 L 314.187 535" />
        <path d="M 246.75 525 L 246.75 535" />
        <path d="M 433.5 525 L 433.5 535" />
        <path d="M 303.812 525 L 303.812 535" />
        <path d="M 360.875 525 L 360.875 535" />
        <path d="M 366.062 525 L 366.062 535" />
        <path d="M 438.687 525 L 438.687 535" />
        <path d="M 127.438 525 L 127.438 535" />
        <path d="M 210.438 525 L 210.438 535" />
        <path d="M 376.437 525 L 376.437 535" />
        <path d="M 324.562 525 L 324.562 535" />
        <path d="M 329.75 525 L 329.75 535" />
        <path d="M 272.688 525 L 272.688 535" />
        <path d="M 117.062 525 L 117.062 535" />
        <path d="M 381.625 525 L 381.625 535" />
        <path d="M 179.313 525 L 179.313 535" />
        <path d="M 464.625 525 L 464.625 535" />
        <path d="M 163.75 525 L 163.75 545" />
        <path d="M 236.375 525 L 236.375 535" />
        <path d="M 423.125 525 L 423.125 545" />
        <path d="M 241.563 525 L 241.563 535" />
        <path d="M 288.25 525 L 288.25 535" />
        <path d="M 122.25 525 L 122.25 535" />
        <path d="M 407.562 525 L 407.562 535" />
        <path d="M 148.188 525 L 148.188 535" />
        <path d="M 65.1875 525 L 65.1875 535" />
        <path d="M 205.25 525 L 205.25 535" />
        <path d="M 262.313 525 L 262.313 535" />
        <path d="M 340.125 525 L 340.125 535" />
        <path d="M 350.5 525 L 350.5 535" />
        <path d="M 106.688 525 L 106.688 535" />
        <path d="M 143 525 L 143 535" />
        <path d="M 231.188 525 L 231.188 535" />
        <path d="M 469.812 525 L 469.812 535" />
        <path d="M 80.75 525 L 80.75 535" />
        <path d="M 70.375 525 L 70.375 535" />
        <path d="M 412.75 525 L 412.75 535" />
        <path d="M 200.063 525 L 200.063 535" />
        <path d="M 257.125 525 L 257.125 535" />
        <path d="M 277.875 525 L 277.875 535" />
        <path d="M 220.813 525 L 220.813 535" />
        <path d="M 309 525 L 309 535" />
        <path d="M 428.312 525 L 428.312 535" />
        <path d="M 168.938 525 L 168.938 535" />
        <path d="M 334.937 525 L 334.937 535" />
        <path d="M 397.187 525 L 397.187 535" />
        <path d="M 226 525 L 226 535" />
        <path d="M 267.5 525 L 267.5 545" />
        <path d="M 345.312 525 L 345.312 535" />
    </g>
    <g id="frame_2_rightticks">
        <path d="M 475 960 L 455 960" />
        <path d="M 475 948.701 L 465 948.701" />
        <path d="M 475 937.403 L 465 937.403" />
        <path d="M 475 926.104 L 465 926.104" />
        <path d="M 475 914.805 L 465 914.805" />
        <path d="M 475 903.506 L 455 903.506" />
        <path d="M 475 892.208 L 465 892.208" />
        <path d="M 475 880.909 L 465 880.909" />
        <path d="M 475 869.61 L 465 869.61" />
        <path d="M 475 858.312 L 465 858.312" />
        <path d="M 475 847.013 L 455 847.013" />
        <path d="M 475 835.714 L 465 835.714" />
        <path d="M 475 824.416 L 465 824.416" />
        <path d="M 475 813.117 L 465 813.117" />
        <path d="M 475 801.818 L 465 801.818" />
        <path d="M 475 790.519 L 455 790.519" />
        <path d="M 475 779.221 L 465 779.221" />
        <path d="M 475 767.922 L 465 767.922" />
        <path d="M 475 756.623 L 465 756.623" />
        <path d="M 475 745.325 L 465 745.325" />
        <path d="M 475 734.026 L 455 734.026" />
        <path d="M 475 722.727 L 465 722.727" />
        <path d="M 475 711.429 L 465 711.429" />
        <path d="M 475 700.13 L 465 700.13" />
        <path d="M 475 688.831 L 465 688.831" />
        <path d="M 475 677.532 L 455 677.532" />
        <path d="M 475 666.234 L 465 666.234" />
        <path d="M 475 654.935 L 465 654.935" />
        <path d="M 475 643.636 L 465 643.636" />
        <path d="M 475 632.338 L 465 632.338" />
        <path d="M 475 621.039 L 455 621.039" />
        <path d="M 475 609.74 L 465 609.74" />
        <path d="M 475 598.442 L 465 598.442" />
        <path d="M 475 587.143 L 465 587.143" />
        <path d="M 475 575.844 L 465 575.844" />
        <path d="M 475 564.545 L 455 564.545" />
        <path d="M 475 553.247 L 465 553.247" />
        <path d="M 475 541.948 L 465 541.948" />
        <path d="M 475 530.649 L 465 530.649" />
    </g>
</g>
<g id="HistogramAbstract_3" clip-path="url(#HistogramAbstract_3_clip)">
    <path d="M 560 960 L 560 960 L 580.75 960 L 580.75 960 L 601.5 960 L 601.5 939.187 L 622.25 939.187 L 622.25 564.545 L 643 564.545 L 643 855.933 L 663.75 855.933 L 663.75 960 L 684.5 960 L 684.5 960 L 705.25 960 L 705.25 960 L 726 960 L 726 897.56 L 746.75 897.56 L 746.75 876.746 L 767.5 876.746 L 767.5 772.679 L 788.25 772.679 L 788.25 772.679 L 809 772.679 L 809 866.34 L 829.75 866.34 L 829.75 824.713 L 850.5 824.713 L 850.5 803.9 L 871.25 803.9 L 871.25 866.34 L 892 866.34 L 892 918.373 L 912.75 918.373 L 912.75 960 L 933.5 960 L 933.5 960 L 954.25 960 L 954.25 960 L 975 960 L 975 960" stroke-width="3" stroke-dasharray="" stroke="black" stroke-opacity="1" fill="#00fe00" fill-opacity="1" />
</g>
<g id="HistogramAbstract_4" clip-path="url(#HistogramAbstract_4_clip)">
    <path d="M 560 960 L 560 960 L 580.75 960 L 580.75 960 L 601.5 960 L 601.5 939.187 L 622.25 939.187 L 622.25 564.545 L 643 564.545 L 643 855.933 L 663.75 855.933 L 663.75 960 L 684.5 960 L 684.5 960 L 705.25 960 L 705.25 960 L 726 960 L 726 897.56 L 746.75 897.56 L 746.75 876.746 L 767.5 876.746 L 767.5 772.679 L 788.25 772.679 L 788.25 803.9 L 809 803.9 L 809 928.78 L 829.75 928.78 L 829.75 960 L 850.5 960 L 850.5 960 L 871.25 960 L 871.25 960 L 892 960 L 892 960 L 912.75 960 L 912.75 960 L 933.5 960 L 933.5 960 L 954.25 960 L 954.25 960 L 975 960 L 975 960" stroke-width="3" stroke-dasharray="" stroke="black" stroke-opacity="1" fill="#7f7fff" fill-opacity="1" />
</g>
<g id="HistogramAbstract_5" clip-path="url(#HistogramAbstract_5_clip)">
    <path d="M 560 960 L 560 960 L 580.75 960 L 580.75 960 L 601.5 960 L 601.5 939.187 L 622.25 939.187 L 622.25 564.545 L 643 564.545 L 643 855.933 L 663.75 855.933 L 663.75 960 L 684.5 960 L 684.5 960 L 705.25 960 L 705.25 960 L 726 960 L 726 960 L 746.75 960 L 746.75 960 L 767.5 960 L 767.5 960 L 788.25 960 L 788.25 960 L 809 960 L 809 960 L 829.75 960 L 829.75 960 L 850.5 960 L 850.5 960 L 871.25 960 L 871.25 960 L 892 960 L 892 960 L 912.75 960 L 912.75 960 L 933.5 960 L 933.5 960 L 954.25 960 L 954.25 960 L 975 960 L 975 960" stroke-width="3" stroke-dasharray="" stroke="black" stroke-opacity="1" fill="#ff7f7f" fill-opacity="1" />
</g>
<g id="frame_3">
    <rect id="frame_3_border" x="560" y="525" width="415" height="435" />
    <g id="frame_3_bottomticks">
        <path d="M 560 960 L 560 940" />
        <text font-size="30" transform="translate(560, 990)" text-anchor="middle" dominant-baseline="middle" stroke="none" fill="black">0</text>
        <path d="M 585.938 960 L 585.938 950" />
        <path d="M 611.875 960 L 611.875 940" />
        <text font-size="30" transform="translate(611.875, 990)" text-anchor="middle" dominant-baseline="middle" stroke="none" fill="black">2</text>
        <path d="M 637.812 960 L 637.812 950" />
        <path d="M 663.75 960 L 663.75 940" />
        <text font-size="30" transform="translate(663.75, 990)" text-anchor="middle" dominant-baseline="middle" stroke="none" fill="black">4</text>
        <path d="M 689.688 960 L 689.688 950" />
        <path d="M 715.625 960 L 715.625 940" />
        <text font-size="30" transform="translate(715.625, 990)" text-anchor="middle" dominant-baseline="middle" stroke="none" fill="black">6</text>
        <path d="M 741.562 960 L 741.562 950" />
        <path d="M 767.5 960 L 767.5 940" />
        <text font-size="30" transform="translate(767.5, 990)" text-anchor="middle" dominant-baseline="middle" stroke="none" fill="black">8</text>
        <path d="M 793.438 960 L 793.438 950" />
        <path d="M 819.375 960 L 819.375 940" />
        <text font-size="30" transform="translate(819.375, 990)" text-anchor="middle" dominant-baseline="middle" stroke="none" fill="black">10</text>
        <path d="M 845.312 960 L 845.312 950" />
        <path d="M 871.25 960 L 871.25 940" />
        <text font-size="30" transform="translate(871.25, 990)" text-anchor="middle" dominant-baseline="middle" stroke="none" fill="black">12</text>
        <path d="M 897.188 960 L 897.188 950" />
        <path d="M 923.125 960 L 923.125 940" />
        <text font-size="30" transform="translate(923.125, 990)" text-anchor="middle" dominant-baseline="middle" stroke="none" fill="black">14</text>
        <path d="M 949.062 960 L 949.062 950" />
        <path d="M 975 960 L 975 940" />
        <text font-size="30" transform="translate(975, 990)" text-anchor="middle" dominant-baseline="middle" stroke="none" fill="black">16</text>
    </g>
    <g id="frame_3_leftticks">
        <path d="M 560 960 L 580 960" />
        <text font-size="30" transform="translate(550, 970)" text-anchor="end" dominant-baseline="middle" stroke="none" fill="black">0</text>
        <path d="M 560 949.593 L 570 949.593" />
        <path d="M 560 939.187 L 570 939.187" />
        <path d="M 560 928.78 L 570 928.78" />
        <path d="M 560 918.373 L 570 918.373" />
        <path d="M 560 907.967 L 580 907.967" />
        <text font-size="30" transform="translate(550, 917.967)" text-anchor="end" dominant-baseline="middle" stroke="none" fill="black">5</text>
        <path d="M 560 897.56 L 570 897.56" />
        <path d="M 560 887.153 L 570 887.153" />
        <path d="M 560 876.746 L 570 876.746" />
        <path d="M 560 866.34 L 570 866.34" />
        <path d="M 560 855.933 L 580 855.933" />
        <text font-size="30" transform="translate(550, 865.933)" text-anchor="end" dominant-baseline="middle" stroke="none" fill="black">10</text>
        <path d="M 560 845.526 L 570 845.526" />
        <path d="M 560 835.12 L 570 835.12" />
        <path d="M 560 824.713 L 570 824.713" />
        <path d="M 560 814.306 L 570 814.306" />
        <path d="M 560 803.9 L 580 803.9" />
        <text font-size="30" transform="translate(550, 813.9)" text-anchor="end" dominant-baseline="middle" stroke="none" fill="black">15</text>
        <path d="M 560 793.493 L 570 793.493" />
        <path d="M 560 783.086 L 570 783.086" />
        <path d="M 560 772.679 L 570 772.679" />
        <path d="M 560 762.273 L 570 762.273" />
        <path d="M 560 751.866 L 580 751.866" />
        <text font-size="30" transform="translate(550, 761.866)" text-anchor="end" dominant-baseline="middle" stroke="none" fill="black">20</text>
        <path d="M 560 741.459 L 570 741.459" />
        <path d="M 560 731.053 L 570 731.053" />
        <path d="M 560 720.646 L 570 720.646" />
        <path d="M 560 710.239 L 570 710.239" />
        <path d="M 560 699.833 L 580 699.833" />
        <text font-size="30" transform="translate(550, 709.833)" text-anchor="end" dominant-baseline="middle" stroke="none" fill="black">25</text>
        <path d="M 560 689.426 L 570 689.426" />
        <path d="M 560 679.019 L 570 679.019" />
        <path d="M 560 668.612 L 570 668.612" />
        <path d="M 560 658.206 L 570 658.206" />
        <path d="M 560 647.799 L 580 647.799" />
        <text font-size="30" transform="translate(550, 657.799)" text-anchor="end" dominant-baseline="middle" stroke="none" fill="black">30</text>
        <path d="M 560 637.392 L 570 637.392" />
        <path d="M 560 626.986 L 570 626.986" />
        <path d="M 560 616.579 L 570 616.579" />
        <path d="M 560 606.172 L 570 606.172" />
        <path d="M 560 595.766 L 580 595.766" />
        <text font-size="30" transform="translate(550, 605.766)" text-anchor="end" dominant-baseline="middle" stroke="none" fill="black">35</text>
        <path d="M 560 585.359 L 570 585.359" />
        <path d="M 560 574.952 L 570 574.952" />
        <path d="M 560 564.545 L 570 564.545" />
        <path d="M 560 554.139 L 570 554.139" />
        <path d="M 560 543.732 L 580 543.732" />
        <text font-size="30" transform="translate(550, 553.732)" text-anchor="end" dominant-baseline="middle" stroke="none" fill="black">40</text>
        <path d="M 560 533.325 L 570 533.325" />
    </g>
    <g id="frame_3_topticks">
        <path d="M 560 525 L 560 545" />
        <path d="M 585.938 525 L 585.938 535" />
        <path d="M 611.875 525 L 611.875 545" />
        <path d="M 637.812 525 L 637.812 535" />
        <path d="M 663.75 525 L 663.75 545" />
        <path d="M 689.688 525 L 689.688 535" />
        <path d="M 715.625 525 L 715.625 545" />
        <path d="M 741.562 525 L 741.562 535" />
        <path d="M 767.5 525 L 767.5 545" />
        <path d="M 793.438 525 L 793.438 535" />
        <path d="M 819.375 525 L 819.375 545" />
        <path d="M 845.312 525 L 845.312 535" />
        <path d="M 871.25 525 L 871.25 545" />
        <path d="M 897.188 525 L 897.188 535" />
        <path d="M 923.125 525 L 923.125 545" />
        <path d="M 949.062 525 L 949.062 535" />
        <path d="M 975 525 L 975 545" />
    </g>
    <g id="frame_3_rightticks">
        <path d="M 975 960 L 955 960" />
        <path d="M 975 949.593 L 965 949.593" />
        <path d="M 975 939.187 L 965 939.187" />
        <path d="M 975 928.78 L 965 928.78" />
        <path d="M 975 918.373 L 965 918.373" />
        <path d="M 975 907.967 L 955 907.967" />
        <path d="M 975 897.56 L 965 897.56" />
        <path d="M 975 887.153 L 965 887.153" />
        <path d="M 975 876.746 L 965 876.746" />
        <path d="M 975 866.34 L 965 866.34" />
        <path d="M 975 855.933 L 955 855.933" />
        <path d="M 975 845.526 L 965 845.526" />
        <path d="M 975 835.12 L 965 835.12" />
        <path d="M 975 824.713 L 965 824.713" />
        <path d="M 975 814.306 L 965 814.306" />
        <path d="M 975 803.9 L 955 803.9" />
        <path d="M 975 793.493 L 965 793.493" />
        <path d="M 975 783.086 L 965 783.086" />
        <path d="M 975 772.679 L 965 772.679" />
        <path d="M 975 762.273 L 965 762.273" />
        <path d="M 975 751.866 L 955 751.866" />
        <path d="M 975 741.459 L 965 741.459" />
        <path d="M 975 731.053 L 965 731.053" />
        <path d="M 975 720.646 L 965 720.646" />
        <path d="M 975 710.239 L 965 710.239" />
        <path d="M 975 699.833 L 955 699.833" />
        <path d="M 975 689.426 L 965 689.426" />
        <path d="M 975 679.019 L 965 679.019" />
        <path d="M 975 668.612 L 965 668.612" />
        <path d="M 975 658.206 L 965 658.206" />
        <path d="M 975 647.799 L 955 647.799" />
        <path d="M 975 637.392 L 965 637.392" />
        <path d="M 975 626.986 L 965 626.986" />
        <path d="M 975 616.579 L 965 616.579" />
        <path d="M 975 606.172 L 965 606.172" />
        <path d="M 975 595.766 L 955 595.766" />
        <path d="M 975 585.359 L 965 585.359" />
        <path d="M 975 574.952 L 965 574.952" />
        <path d="M 975 564.545 L 965 564.545" />
        <path d="M 975 554.139 L 965 554.139" />
        <path d="M 975 543.732 L 955 543.732" />
        <path d="M 975 533.325 L 965 533.325" />
    </g>
</g>
</g>
</svg>
