<?xml version="1.0" standalone="no"?>
<!DOCTYPE svg PUBLIC "-//W3C//DTD SVG 1.1//EN" "http://www.w3.org/Graphics/SVG/1.1/DTD/svg11.dtd">
<svg style="stroke-linejoin:miter; stroke:black; stroke-width:2.5; text-anchor:middle; fill:none" xmlns="http://www.w3.org/2000/svg" font-family="Helvetica, Arial, FreeSans, Sans, sans, sans-serif" width="1000px" height="1000px" version="1.1" xmlns:xlink="http://www.w3.org/1999/xlink" viewBox="0 0 1000 1000">
<defs>
    <clipPath id="HistogramAbstract_0_clip">
        <rect x="120" y="25" width="830" height="435" />
    </clipPath>
    <clipPath id="HistogramAbstract_1_clip">
        <rect x="120" y="25" width="830" height="435" />
    </clipPath>
    <clipPath id="HistogramAbstract_2_clip">
        <rect x="120" y="525" width="830" height="435" />
    </clipPath>
    <clipPath id="HistogramAbstract_3_clip">
        <rect x="120" y="525" width="830" height="435" />
    </clipPath>
</defs>
<g id="whole_document">
<rect id="background" x="0" y="0" width="1000" height="1000" stroke="none" fill="white" />
<g id="HistogramAbstract_0" clip-path="url(#HistogramAbstract_0_clip)">
    <path d="M 120 460 L 120 431.976 L 128.3 431.976 L 128.3 428.083 L 136.6 428.083 L 136.6 431.976 L 144.9 431.976 L 144.9 408.622 L 153.2 408.622 L 153.2 424.191 L 161.5 424.191 L 161.5 419.52 L 169.8 419.52 L 169.8 409.401 L 178.1 409.401 L 178.1 407.065 L 186.4 407.065 L 186.4 410.179 L 194.7 410.179 L 194.7 403.951 L 203 403.951 L 203 393.053 L 211.3 393.053 L 211.3 396.167 L 219.6 396.167 L 219.6 386.825 L 227.9 386.825 L 227.9 382.155 L 236.2 382.155 L 236.2 379.041 L 244.5 379.041 L 244.5 355.687 L 252.8 355.687 L 252.8 362.693 L 261.1 362.693 L 261.1 350.238 L 269.4 350.238 L 269.4 347.124 L 277.7 347.124 L 277.7 337.783 L 286 337.783 L 286 319.1 L 294.3 319.1 L 294.3 317.543 L 302.6 317.543 L 302.6 277.063 L 310.9 277.063 L 310.9 266.165 L 319.2 266.165 L 319.2 236.584 L 327.5 236.584 L 327.5 255.267 L 335.8 255.267 L 335.8 239.698 L 344.1 239.698 L 344.1 219.458 L 352.4 219.458 L 352.4 168.858 L 360.7 168.858 L 360.7 178.2 L 369 178.2 L 369 192.99 L 377.3 192.99 L 377.3 181.314 L 385.6 181.314 L 385.6 174.307 L 393.9 174.307 L 393.9 217.901 L 402.2 217.901 L 402.2 229.578 L 410.5 229.578 L 410.5 217.901 L 418.8 217.901 L 418.8 278.62 L 427.1 278.62 L 427.1 258.38 L 435.4 258.38 L 435.4 277.842 L 443.7 277.842 L 443.7 278.62 L 452 278.62 L 452 329.22 L 460.3 329.22 L 460.3 301.974 L 468.6 301.974 L 468.6 315.208 L 476.9 315.208 L 476.9 325.327 L 485.2 325.327 L 485.2 330.777 L 493.5 330.777 L 493.5 340.118 L 501.8 340.118 L 501.8 324.549 L 510.1 324.549 L 510.1 345.567 L 518.4 345.567 L 518.4 345.567 L 526.7 345.567 L 526.7 354.13 L 535 354.13 L 535 345.567 L 543.3 345.567 L 543.3 338.561 L 551.6 338.561 L 551.6 354.909 L 559.9 354.909 L 559.9 333.112 L 568.2 333.112 L 568.2 318.321 L 576.5 318.321 L 576.5 294.968 L 584.8 294.968 L 584.8 285.626 L 593.1 285.626 L 593.1 269.279 L 601.4 269.279 L 601.4 255.267 L 609.7 255.267 L 609.7 285.626 L 618 285.626 L 618 256.824 L 626.3 256.824 L 626.3 232.691 L 634.6 232.691 L 634.6 222.572 L 642.9 222.572 L 642.9 141.612 L 651.2 141.612 L 651.2 167.301 L 659.5 167.301 L 659.5 140.834 L 667.8 140.834 L 667.8 119.816 L 676.1 119.816 L 676.1 64.5455 L 684.4 64.5455 L 684.4 69.2162 L 692.7 69.2162 L 692.7 76.2223 L 701 76.2223 L 701 66.8808 L 709.3 66.8808 L 709.3 80.893 L 717.6 80.893 L 717.6 120.594 L 725.9 120.594 L 725.9 115.145 L 734.2 115.145 L 734.2 141.612 L 742.5 141.612 L 742.5 178.2 L 750.8 178.2 L 750.8 178.978 L 759.1 178.978 L 759.1 189.877 L 767.4 189.877 L 767.4 221.793 L 775.7 221.793 L 775.7 269.279 L 784 269.279 L 784 287.962 L 792.3 287.962 L 792.3 295.746 L 800.6 295.746 L 800.6 327.663 L 808.9 327.663 L 808.9 330.777 L 817.2 330.777 L 817.2 333.89 L 825.5 333.89 L 825.5 343.232 L 833.8 343.232 L 833.8 328.441 L 842.1 328.441 L 842.1 356.466 L 850.4 356.466 L 850.4 363.472 L 858.7 363.472 L 858.7 362.693 L 867 362.693 L 867 372.035 L 875.3 372.035 L 875.3 388.382 L 883.6 388.382 L 883.6 399.281 L 891.9 399.281 L 891.9 393.831 L 900.2 393.831 L 900.2 400.059 L 908.5 400.059 L 908.5 415.628 L 916.8 415.628 L 916.8 405.508 L 925.1 405.508 L 925.1 400.059 L 933.4 400.059 L 933.4 411.736 L 941.7 411.736 L 941.7 421.856 L 950 421.856 L 950 460" stroke-width="3" stroke-dasharray="" stroke="black" stroke-opacity="1" fill="pink" fill-opacity="1" />
</g>
<g id="HistogramAbstract_1" clip-path="url(#HistogramAbstract_1_clip)">
    <path d="M 120 460 L 120 442.096 L 128.3 442.096 L 128.3 435.868 L 136.6 435.868 L 136.6 439.76 L 144.9 439.76 L 144.9 422.634 L 153.2 422.634 L 153.2 431.976 L 161.5 431.976 L 161.5 425.748 L 169.8 425.748 L 169.8 421.856 L 178.1 421.856 L 178.1 417.963 L 186.4 417.963 L 186.4 419.52 L 194.7 419.52 L 194.7 410.957 L 203 410.957 L 203 407.844 L 211.3 407.844 L 211.3 408.622 L 219.6 408.622 L 219.6 400.838 L 227.9 400.838 L 227.9 392.275 L 236.2 392.275 L 236.2 394.61 L 244.5 394.61 L 244.5 369.699 L 252.8 369.699 L 252.8 375.149 L 261.1 375.149 L 261.1 365.807 L 269.4 365.807 L 269.4 362.693 L 277.7 362.693 L 277.7 349.46 L 286 349.46 L 286 333.89 L 294.3 333.89 L 294.3 332.334 L 302.6 332.334 L 302.6 297.303 L 310.9 297.303 L 310.9 284.069 L 319.2 284.069 L 319.2 259.937 L 327.5 259.937 L 327.5 270.836 L 335.8 270.836 L 335.8 252.931 L 344.1 252.931 L 344.1 239.698 L 352.4 239.698 L 352.4 193.769 L 360.7 193.769 L 360.7 202.332 L 369 202.332 L 369 217.122 L 377.3 217.122 L 377.3 200.775 L 385.6 200.775 L 385.6 200.775 L 393.9 200.775 L 393.9 248.261 L 402.2 248.261 L 402.2 255.267 L 410.5 255.267 L 410.5 256.045 L 418.8 256.045 L 418.8 298.082 L 427.1 298.082 L 427.1 300.417 L 435.4 300.417 L 435.4 318.321 L 443.7 318.321 L 443.7 329.998 L 452 329.998 L 452 358.023 L 460.3 358.023 L 460.3 337.783 L 468.6 337.783 L 468.6 354.13 L 476.9 354.13 L 476.9 369.699 L 485.2 369.699 L 485.2 389.939 L 493.5 389.939 L 493.5 387.604 L 501.8 387.604 L 501.8 379.819 L 510.1 379.819 L 510.1 397.724 L 518.4 397.724 L 518.4 403.173 L 526.7 403.173 L 526.7 414.071 L 535 414.071 L 535 411.736 L 543.3 411.736 L 543.3 421.856 L 551.6 421.856 L 551.6 427.305 L 559.9 427.305 L 559.9 422.634 L 568.2 422.634 L 568.2 423.413 L 576.5 423.413 L 576.5 414.85 L 584.8 414.85 L 584.8 418.742 L 593.1 418.742 L 593.1 430.419 L 601.4 430.419 L 601.4 435.089 L 609.7 435.089 L 609.7 441.317 L 618 441.317 L 618 431.976 L 626.3 431.976 L 626.3 436.646 L 634.6 436.646 L 634.6 450.659 L 642.9 450.659 L 642.9 433.533 L 651.2 433.533 L 651.2 447.545 L 659.5 447.545 L 659.5 443.652 L 667.8 443.652 L 667.8 442.874 L 676.1 442.874 L 676.1 443.652 L 684.4 443.652 L 684.4 441.317 L 692.7 441.317 L 692.7 445.988 L 701 445.988 L 701 452.994 L 709.3 452.994 L 709.3 445.988 L 717.6 445.988 L 717.6 452.215 L 725.9 452.215 L 725.9 449.88 L 734.2 449.88 L 734.2 444.431 L 742.5 444.431 L 742.5 445.209 L 750.8 445.209 L 750.8 449.102 L 759.1 449.102 L 759.1 448.323 L 767.4 448.323 L 767.4 447.545 L 775.7 447.545 L 775.7 445.988 L 784 445.988 L 784 451.437 L 792.3 451.437 L 792.3 453.772 L 800.6 453.772 L 800.6 453.772 L 808.9 453.772 L 808.9 453.772 L 817.2 453.772 L 817.2 449.102 L 825.5 449.102 L 825.5 455.329 L 833.8 455.329 L 833.8 449.88 L 842.1 449.88 L 842.1 450.659 L 850.4 450.659 L 850.4 451.437 L 858.7 451.437 L 858.7 449.102 L 867 449.102 L 867 454.551 L 875.3 454.551 L 875.3 454.551 L 883.6 454.551 L 883.6 456.108 L 891.9 456.108 L 891.9 452.215 L 900.2 452.215 L 900.2 456.108 L 908.5 456.108 L 908.5 456.108 L 916.8 456.108 L 916.8 454.551 L 925.1 454.551 L 925.1 453.772 L 933.4 453.772 L 933.4 456.886 L 941.7 456.886 L 941.7 454.551 L 950 454.551 L 950 460" stroke-width="3" stroke-dasharray="" stroke="black" stroke-opacity="1" fill="lightblue" fill-opacity="1" />
</g>
<g id="frame_0">
    <rect id="frame_0_border" x="120" y="25" width="830" height="435" />
    <g id="frame_0_bottomticks">
        <path d="M 535 460 L 535 450" />
        <path d="M 120 460 L 120 440" />
        <text font-size="30" transform="translate(120, 490)" text-anchor="middle" dominant-baseline="middle" stroke="none" fill="black">0</text>
        <path d="M 452 460 L 452 440" />
        <text font-size="30" transform="translate(452, 490)" text-anchor="middle" dominant-baseline="middle" stroke="none" fill="black">0.4</text>
        <path d="M 203 460 L 203 450" />
        <path d="M 950 460 L 950 440" />
        <text font-size="30" transform="translate(950, 490)" text-anchor="middle" dominant-baseline="middle" stroke="none" fill="black">1</text>
        <path d="M 286 460 L 286 440" />
        <text font-size="30" transform="translate(286, 490)" text-anchor="middle" dominant-baseline="middle" stroke="none" fill="black">0.2</text>
        <path d="M 618 460 L 618 440" />
        <text font-size="30" transform="translate(618, 490)" text-anchor="middle" dominant-baseline="middle" stroke="none" fill="black">0.6</text>
        <path d="M 369 460 L 369 450" />
        <path d="M 784 460 L 784 440" />
        <text font-size="30" transform="translate(784, 490)" text-anchor="middle" dominant-baseline="middle" stroke="none" fill="black">0.8</text>
        <path d="M 867 460 L 867 450" />
        <path d="M 701 460 L 701 450" />
    </g>
    <g id="frame_0_leftticks">
        <path d="M 120 460 L 140 460" />
        <text font-size="30" transform="translate(110, 470)" text-anchor="end" dominant-baseline="middle" stroke="none" fill="black">0</text>
        <path d="M 120 358.801 L 130 358.801" />
        <path d="M 120 257.602 L 130 257.602" />
        <path d="M 120 156.403 L 130 156.403" />
        <path d="M 120 55.204 L 130 55.204" />
        <path d="M 120 452.215 L 130 452.215" />
        <path d="M 120 351.016 L 130 351.016" />
        <path d="M 120 249.817 L 130 249.817" />
        <path d="M 120 148.618 L 140 148.618" />
        <text font-size="30" transform="translate(110, 158.618)" text-anchor="end" dominant-baseline="middle" stroke="none" fill="black">400</text>
        <path d="M 120 47.4195 L 130 47.4195" />
        <path d="M 120 444.431 L 130 444.431" />
        <path d="M 120 343.232 L 130 343.232" />
        <path d="M 120 242.033 L 130 242.033" />
        <path d="M 120 140.834 L 130 140.834" />
        <path d="M 120 39.6349 L 130 39.6349" />
        <path d="M 120 436.646 L 130 436.646" />
        <path d="M 120 335.447 L 130 335.447" />
        <path d="M 120 234.248 L 130 234.248" />
        <path d="M 120 133.049 L 130 133.049" />
        <path d="M 120 31.8504 L 130 31.8504" />
        <path d="M 120 428.862 L 130 428.862" />
        <path d="M 120 327.663 L 130 327.663" />
        <path d="M 120 226.464 L 140 226.464" />
        <text font-size="30" transform="translate(110, 236.464)" text-anchor="end" dominant-baseline="middle" stroke="none" fill="black">300</text>
        <path d="M 120 125.265 L 130 125.265" />
        <path d="M 120 421.077 L 130 421.077" />
        <path d="M 120 319.878 L 130 319.878" />
        <path d="M 120 218.679 L 130 218.679" />
        <path d="M 120 117.48 L 130 117.48" />
        <path d="M 120 413.293 L 130 413.293" />
        <path d="M 120 312.094 L 130 312.094" />
        <path d="M 120 210.895 L 130 210.895" />
        <path d="M 120 109.696 L 130 109.696" />
        <path d="M 120 405.508 L 130 405.508" />
        <path d="M 120 304.309 L 140 304.309" />
        <text font-size="30" transform="translate(110, 314.309)" text-anchor="end" dominant-baseline="middle" stroke="none" fill="black">200</text>
        <path d="M 120 203.11 L 130 203.11" />
        <path d="M 120 101.911 L 130 101.911" />
        <path d="M 120 397.724 L 130 397.724" />
        <path d="M 120 296.525 L 130 296.525" />
        <path d="M 120 195.326 L 130 195.326" />
        <path d="M 120 94.1267 L 130 94.1267" />
        <path d="M 120 389.939 L 130 389.939" />
        <path d="M 120 288.74 L 130 288.74" />
        <path d="M 120 187.541 L 130 187.541" />
        <path d="M 120 86.3422 L 130 86.3422" />
        <path d="M 120 382.155 L 140 382.155" />
        <text font-size="30" transform="translate(110, 392.155)" text-anchor="end" dominant-baseline="middle" stroke="none" fill="black">100</text>
        <path d="M 120 280.956 L 130 280.956" />
        <path d="M 120 179.757 L 130 179.757" />
        <path d="M 120 78.5576 L 130 78.5576" />
        <path d="M 120 374.37 L 130 374.37" />
        <path d="M 120 273.171 L 130 273.171" />
        <path d="M 120 171.972 L 130 171.972" />
        <path d="M 120 70.7731 L 140 70.7731" />
        <text font-size="30" transform="translate(110, 80.7731)" text-anchor="end" dominant-baseline="middle" stroke="none" fill="black">500</text>
        <path d="M 120 366.586 L 130 366.586" />
        <path d="M 120 265.387 L 130 265.387" />
        <path d="M 120 164.188 L 130 164.188" />
        <path d="M 120 62.9885 L 130 62.9885" />
    </g>
    <g id="frame_0_topticks">
        <path d="M 535 25 L 535 35" />
        <path d="M 120 25 L 120 45" />
        <path d="M 452 25 L 452 45" />
        <path d="M 203 25 L 203 35" />
        <path d="M 950 25 L 950 45" />
        <path d="M 286 25 L 286 45" />
        <path d="M 618 25 L 618 45" />
        <path d="M 369 25 L 369 35" />
        <path d="M 784 25 L 784 45" />
        <path d="M 867 25 L 867 35" />
        <path d="M 701 25 L 701 35" />
    </g>
    <g id="frame_0_rightticks">
        <path d="M 950 460 L 930 460" />
        <path d="M 950 358.801 L 940 358.801" />
        <path d="M 950 257.602 L 940 257.602" />
        <path d="M 950 156.403 L 940 156.403" />
        <path d="M 950 55.204 L 940 55.204" />
        <path d="M 950 452.215 L 940 452.215" />
        <path d="M 950 351.016 L 940 351.016" />
        <path d="M 950 249.817 L 940 249.817" />
        <path d="M 950 148.618 L 930 148.618" />
        <path d="M 950 47.4195 L 940 47.4195" />
        <path d="M 950 444.431 L 940 444.431" />
        <path d="M 950 343.232 L 940 343.232" />
        <path d="M 950 242.033 L 940 242.033" />
        <path d="M 950 140.834 L 940 140.834" />
        <path d="M 950 39.6349 L 940 39.6349" />
        <path d="M 950 436.646 L 940 436.646" />
        <path d="M 950 335.447 L 940 335.447" />
        <path d="M 950 234.248 L 940 234.248" />
        <path d="M 950 133.049 L 940 133.049" />
        <path d="M 950 31.8504 L 940 31.8504" />
        <path d="M 950 428.862 L 940 428.862" />
        <path d="M 950 327.663 L 940 327.663" />
        <path d="M 950 226.464 L 930 226.464" />
        <path d="M 950 125.265 L 940 125.265" />
        <path d="M 950 421.077 L 940 421.077" />
        <path d="M 950 319.878 L 940 319.878" />
        <path d="M 950 218.679 L 940 218.679" />
        <path d="M 950 117.48 L 940 117.48" />
        <path d="M 950 413.293 L 940 413.293" />
        <path d="M 950 312.094 L 940 312.094" />
        <path d="M 950 210.895 L 940 210.895" />
        <path d="M 950 109.696 L 940 109.696" />
        <path d="M 950 405.508 L 940 405.508" />
        <path d="M 950 304.309 L 930 304.309" />
        <path d="M 950 203.11 L 940 203.11" />
        <path d="M 950 101.911 L 940 101.911" />
        <path d="M 950 397.724 L 940 397.724" />
        <path d="M 950 296.525 L 940 296.525" />
        <path d="M 950 195.326 L 940 195.326" />
        <path d="M 950 94.1267 L 940 94.1267" />
        <path d="M 950 389.939 L 940 389.939" />
        <path d="M 950 288.74 L 940 288.74" />
        <path d="M 950 187.541 L 940 187.541" />
        <path d="M 950 86.3422 L 940 86.3422" />
        <path d="M 950 382.155 L 930 382.155" />
        <path d="M 950 280.956 L 940 280.956" />
        <path d="M 950 179.757 L 940 179.757" />
        <path d="M 950 78.5576 L 940 78.5576" />
        <path d="M 950 374.37 L 940 374.37" />
        <path d="M 950 273.171 L 940 273.171" />
        <path d="M 950 171.972 L 940 171.972" />
        <path d="M 950 70.7731 L 930 70.7731" />
        <path d="M 950 366.586 L 940 366.586" />
        <path d="M 950 265.387 L 940 265.387" />
        <path d="M 950 164.188 L 940 164.188" />
        <path d="M 950 62.9885 L 940 62.9885" />
    </g>
</g>
<g id="HistogramAbstract_2" clip-path="url(#HistogramAbstract_2_clip)">
    <path d="M 120 960 L 120 931.976 L 128.3 931.976 L 128.3 928.083 L 136.6 928.083 L 136.6 931.976 L 144.9 931.976 L 144.9 908.622 L 153.2 908.622 L 153.2 924.191 L 161.5 924.191 L 161.5 919.52 L 169.8 919.52 L 169.8 909.401 L 178.1 909.401 L 178.1 907.065 L 186.4 907.065 L 186.4 910.179 L 194.7 910.179 L 194.7 903.951 L 203 903.951 L 203 893.053 L 211.3 893.053 L 211.3 896.167 L 219.6 896.167 L 219.6 886.825 L 227.9 886.825 L 227.9 882.155 L 236.2 882.155 L 236.2 879.041 L 244.5 879.041 L 244.5 855.687 L 252.8 855.687 L 252.8 862.693 L 261.1 862.693 L 261.1 850.238 L 269.4 850.238 L 269.4 847.124 L 277.7 847.124 L 277.7 837.783 L 286 837.783 L 286 819.1 L 294.3 819.1 L 294.3 817.543 L 302.6 817.543 L 302.6 777.063 L 310.9 777.063 L 310.9 766.165 L 319.2 766.165 L 319.2 736.584 L 327.5 736.584 L 327.5 755.267 L 335.8 755.267 L 335.8 739.698 L 344.1 739.698 L 344.1 719.458 L 352.4 719.458 L 352.4 668.858 L 360.7 668.858 L 360.7 678.2 L 369 678.2 L 369 692.99 L 377.3 692.99 L 377.3 681.314 L 385.6 681.314 L 385.6 674.307 L 393.9 674.307 L 393.9 717.901 L 402.2 717.901 L 402.2 729.578 L 410.5 729.578 L 410.5 717.901 L 418.8 717.901 L 418.8 778.62 L 427.1 778.62 L 427.1 758.38 L 435.4 758.38 L 435.4 777.842 L 443.7 777.842 L 443.7 778.62 L 452 778.62 L 452 829.22 L 460.3 829.22 L 460.3 801.974 L 468.6 801.974 L 468.6 815.208 L 476.9 815.208 L 476.9 825.327 L 485.2 825.327 L 485.2 830.777 L 493.5 830.777 L 493.5 840.118 L 501.8 840.118 L 501.8 824.549 L 510.1 824.549 L 510.1 845.567 L 518.4 845.567 L 518.4 845.567 L 526.7 845.567 L 526.7 854.13 L 535 854.13 L 535 845.567 L 543.3 845.567 L 543.3 838.561 L 551.6 838.561 L 551.6 854.909 L 559.9 854.909 L 559.9 833.112 L 568.2 833.112 L 568.2 818.321 L 576.5 818.321 L 576.5 794.968 L 584.8 794.968 L 584.8 785.626 L 593.1 785.626 L 593.1 769.279 L 601.4 769.279 L 601.4 755.267 L 609.7 755.267 L 609.7 785.626 L 618 785.626 L 618 756.824 L 626.3 756.824 L 626.3 732.691 L 634.6 732.691 L 634.6 722.572 L 642.9 722.572 L 642.9 641.612 L 651.2 641.612 L 651.2 667.301 L 659.5 667.301 L 659.5 640.834 L 667.8 640.834 L 667.8 619.816 L 676.1 619.816 L 676.1 564.545 L 684.4 564.545 L 684.4 569.216 L 692.7 569.216 L 692.7 576.222 L 701 576.222 L 701 566.881 L 709.3 566.881 L 709.3 580.893 L 717.6 580.893 L 717.6 620.594 L 725.9 620.594 L 725.9 615.145 L 734.2 615.145 L 734.2 641.612 L 742.5 641.612 L 742.5 678.2 L 750.8 678.2 L 750.8 678.978 L 759.1 678.978 L 759.1 689.877 L 767.4 689.877 L 767.4 721.793 L 775.7 721.793 L 775.7 769.279 L 784 769.279 L 784 787.962 L 792.3 787.962 L 792.3 795.746 L 800.6 795.746 L 800.6 827.663 L 808.9 827.663 L 808.9 830.777 L 817.2 830.777 L 817.2 833.89 L 825.5 833.89 L 825.5 843.232 L 833.8 843.232 L 833.8 828.441 L 842.1 828.441 L 842.1 856.466 L 850.4 856.466 L 850.4 863.472 L 858.7 863.472 L 858.7 862.693 L 867 862.693 L 867 872.035 L 875.3 872.035 L 875.3 888.382 L 883.6 888.382 L 883.6 899.281 L 891.9 899.281 L 891.9 893.831 L 900.2 893.831 L 900.2 900.059 L 908.5 900.059 L 908.5 915.628 L 916.8 915.628 L 916.8 905.508 L 925.1 905.508 L 925.1 900.059 L 933.4 900.059 L 933.4 911.736 L 941.7 911.736 L 941.7 921.856 L 950 921.856 L 950 960" stroke-width="3" stroke-dasharray="" stroke="black" stroke-opacity="1" fill="lightblue" fill-opacity="1" />
</g>
<g id="HistogramAbstract_3" clip-path="url(#HistogramAbstract_3_clip)">
    <path d="M 120 960 L 120 949.88 L 128.3 949.88 L 128.3 952.215 L 136.6 952.215 L 136.6 952.215 L 144.9 952.215 L 144.9 945.988 L 153.2 945.988 L 153.2 952.215 L 161.5 952.215 L 161.5 953.772 L 169.8 953.772 L 169.8 947.545 L 178.1 947.545 L 178.1 949.102 L 186.4 949.102 L 186.4 950.659 L 194.7 950.659 L 194.7 952.994 L 203 952.994 L 203 945.209 L 211.3 945.209 L 211.3 947.545 L 219.6 947.545 L 219.6 945.988 L 227.9 945.988 L 227.9 949.88 L 236.2 949.88 L 236.2 944.431 L 244.5 944.431 L 244.5 945.988 L 252.8 945.988 L 252.8 947.545 L 261.1 947.545 L 261.1 944.431 L 269.4 944.431 L 269.4 944.431 L 277.7 944.431 L 277.7 948.323 L 286 948.323 L 286 945.209 L 294.3 945.209 L 294.3 945.209 L 302.6 945.209 L 302.6 939.76 L 310.9 939.76 L 310.9 942.096 L 319.2 942.096 L 319.2 936.646 L 327.5 936.646 L 327.5 944.431 L 335.8 944.431 L 335.8 946.766 L 344.1 946.766 L 344.1 939.76 L 352.4 939.76 L 352.4 935.089 L 360.7 935.089 L 360.7 935.868 L 369 935.868 L 369 935.868 L 377.3 935.868 L 377.3 940.539 L 385.6 940.539 L 385.6 933.533 L 393.9 933.533 L 393.9 929.64 L 402.2 929.64 L 402.2 934.311 L 410.5 934.311 L 410.5 921.856 L 418.8 921.856 L 418.8 940.539 L 427.1 940.539 L 427.1 917.963 L 435.4 917.963 L 435.4 919.52 L 443.7 919.52 L 443.7 908.622 L 452 908.622 L 452 931.197 L 460.3 931.197 L 460.3 924.191 L 468.6 924.191 L 468.6 921.077 L 476.9 921.077 L 476.9 915.628 L 485.2 915.628 L 485.2 900.838 L 493.5 900.838 L 493.5 912.514 L 501.8 912.514 L 501.8 904.73 L 510.1 904.73 L 510.1 907.844 L 518.4 907.844 L 518.4 902.394 L 526.7 902.394 L 526.7 900.059 L 535 900.059 L 535 893.831 L 543.3 893.831 L 543.3 876.705 L 551.6 876.705 L 551.6 887.604 L 559.9 887.604 L 559.9 870.478 L 568.2 870.478 L 568.2 854.909 L 576.5 854.909 L 576.5 840.118 L 584.8 840.118 L 584.8 826.884 L 593.1 826.884 L 593.1 798.86 L 601.4 798.86 L 601.4 780.177 L 609.7 780.177 L 609.7 804.309 L 618 804.309 L 618 784.848 L 626.3 784.848 L 626.3 756.045 L 634.6 756.045 L 634.6 731.913 L 642.9 731.913 L 642.9 668.08 L 651.2 668.08 L 651.2 679.757 L 659.5 679.757 L 659.5 657.181 L 667.8 657.181 L 667.8 636.942 L 676.1 636.942 L 676.1 580.893 L 684.4 580.893 L 684.4 587.899 L 692.7 587.899 L 692.7 590.234 L 701 590.234 L 701 573.887 L 709.3 573.887 L 709.3 594.905 L 717.6 594.905 L 717.6 628.379 L 725.9 628.379 L 725.9 625.265 L 734.2 625.265 L 734.2 657.181 L 742.5 657.181 L 742.5 692.99 L 750.8 692.99 L 750.8 689.877 L 759.1 689.877 L 759.1 701.553 L 767.4 701.553 L 767.4 734.248 L 775.7 734.248 L 775.7 783.291 L 784 783.291 L 784 796.525 L 792.3 796.525 L 792.3 801.974 L 800.6 801.974 L 800.6 833.89 L 808.9 833.89 L 808.9 837.004 L 817.2 837.004 L 817.2 844.789 L 825.5 844.789 L 825.5 847.903 L 833.8 847.903 L 833.8 838.561 L 842.1 838.561 L 842.1 865.807 L 850.4 865.807 L 850.4 872.035 L 858.7 872.035 L 858.7 873.592 L 867 873.592 L 867 877.484 L 875.3 877.484 L 875.3 893.831 L 883.6 893.831 L 883.6 903.173 L 891.9 903.173 L 891.9 901.616 L 900.2 901.616 L 900.2 903.951 L 908.5 903.951 L 908.5 919.52 L 916.8 919.52 L 916.8 910.957 L 925.1 910.957 L 925.1 906.287 L 933.4 906.287 L 933.4 914.85 L 941.7 914.85 L 941.7 927.305 L 950 927.305 L 950 960" stroke-width="3" stroke-dasharray="" stroke="black" stroke-opacity="1" fill="pink" fill-opacity="1" />
</g>
<g id="frame_1">
    <rect id="frame_1_border" x="120" y="525" width="830" height="435" />
    <g id="frame_1_bottomticks">
        <path d="M 535 960 L 535 950" />
        <path d="M 120 960 L 120 940" />
        <text font-size="30" transform="translate(120, 990)" text-anchor="middle" dominant-baseline="middle" stroke="none" fill="black">0</text>
        <path d="M 452 960 L 452 940" />
        <text font-size="30" transform="translate(452, 990)" text-anchor="middle" dominant-baseline="middle" stroke="none" fill="black">0.4</text>
        <path d="M 203 960 L 203 950" />
        <path d="M 950 960 L 950 940" />
        <text font-size="30" transform="translate(950, 990)" text-anchor="middle" dominant-baseline="middle" stroke="none" fill="black">1</text>
        <path d="M 286 960 L 286 940" />
        <text font-size="30" transform="translate(286, 990)" text-anchor="middle" dominant-baseline="middle" stroke="none" fill="black">0.2</text>
        <path d="M 618 960 L 618 940" />
        <text font-size="30" transform="translate(618, 990)" text-anchor="middle" dominant-baseline="middle" stroke="none" fill="black">0.6</text>
        <path d="M 369 960 L 369 950" />
        <path d="M 784 960 L 784 940" />
        <text font-size="30" transform="translate(784, 990)" text-anchor="middle" dominant-baseline="middle" stroke="none" fill="black">0.8</text>
        <path d="M 867 960 L 867 950" />
        <path d="M 701 960 L 701 950" />
    </g>
    <g id="frame_1_leftticks">
        <path d="M 120 960 L 140 960" />
        <text font-size="30" transform="translate(110, 970)" text-anchor="end" dominant-baseline="middle" stroke="none" fill="black">0</text>
        <path d="M 120 858.801 L 130 858.801" />
        <path d="M 120 757.602 L 130 757.602" />
        <path d="M 120 656.403 L 130 656.403" />
        <path d="M 120 555.204 L 130 555.204" />
        <path d="M 120 952.215 L 130 952.215" />
        <path d="M 120 851.016 L 130 851.016" />
        <path d="M 120 749.817 L 130 749.817" />
        <path d="M 120 648.618 L 140 648.618" />
        <text font-size="30" transform="translate(110, 658.618)" text-anchor="end" dominant-baseline="middle" stroke="none" fill="black">400</text>
        <path d="M 120 547.419 L 130 547.419" />
        <path d="M 120 944.431 L 130 944.431" />
        <path d="M 120 843.232 L 130 843.232" />
        <path d="M 120 742.033 L 130 742.033" />
        <path d="M 120 640.834 L 130 640.834" />
        <path d="M 120 539.635 L 130 539.635" />
        <path d="M 120 936.646 L 130 936.646" />
        <path d="M 120 835.447 L 130 835.447" />
        <path d="M 120 734.248 L 130 734.248" />
        <path d="M 120 633.049 L 130 633.049" />
        <path d="M 120 531.85 L 130 531.85" />
        <path d="M 120 928.862 L 130 928.862" />
        <path d="M 120 827.663 L 130 827.663" />
        <path d="M 120 726.464 L 140 726.464" />
        <text font-size="30" transform="translate(110, 736.464)" text-anchor="end" dominant-baseline="middle" stroke="none" fill="black">300</text>
        <path d="M 120 625.265 L 130 625.265" />
        <path d="M 120 921.077 L 130 921.077" />
        <path d="M 120 819.878 L 130 819.878" />
        <path d="M 120 718.679 L 130 718.679" />
        <path d="M 120 617.48 L 130 617.48" />
        <path d="M 120 913.293 L 130 913.293" />
        <path d="M 120 812.094 L 130 812.094" />
        <path d="M 120 710.895 L 130 710.895" />
        <path d="M 120 609.696 L 130 609.696" />
        <path d="M 120 905.508 L 130 905.508" />
        <path d="M 120 804.309 L 140 804.309" />
        <text font-size="30" transform="translate(110, 814.309)" text-anchor="end" dominant-baseline="middle" stroke="none" fill="black">200</text>
        <path d="M 120 703.11 L 130 703.11" />
        <path d="M 120 601.911 L 130 601.911" />
        <path d="M 120 897.724 L 130 897.724" />
        <path d="M 120 796.525 L 130 796.525" />
        <path d="M 120 695.326 L 130 695.326" />
        <path d="M 120 594.127 L 130 594.127" />
        <path d="M 120 889.939 L 130 889.939" />
        <path d="M 120 788.74 L 130 788.74" />
        <path d="M 120 687.541 L 130 687.541" />
        <path d="M 120 586.342 L 130 586.342" />
        <path d="M 120 882.155 L 140 882.155" />
        <text font-size="30" transform="translate(110, 892.155)" text-anchor="end" dominant-baseline="middle" stroke="none" fill="black">100</text>
        <path d="M 120 780.956 L 130 780.956" />
        <path d="M 120 679.757 L 130 679.757" />
        <path d="M 120 578.558 L 130 578.558" />
        <path d="M 120 874.37 L 130 874.37" />
        <path d="M 120 773.171 L 130 773.171" />
        <path d="M 120 671.972 L 130 671.972" />
        <path d="M 120 570.773 L 140 570.773" />
        <text font-size="30" transform="translate(110, 580.773)" text-anchor="end" dominant-baseline="middle" stroke="none" fill="black">500</text>
        <path d="M 120 866.586 L 130 866.586" />
        <path d="M 120 765.387 L 130 765.387" />
        <path d="M 120 664.188 L 130 664.188" />
        <path d="M 120 562.989 L 130 562.989" />
    </g>
    <g id="frame_1_topticks">
        <path d="M 535 525 L 535 535" />
        <path d="M 120 525 L 120 545" />
        <path d="M 452 525 L 452 545" />
        <path d="M 203 525 L 203 535" />
        <path d="M 950 525 L 950 545" />
        <path d="M 286 525 L 286 545" />
        <path d="M 618 525 L 618 545" />
        <path d="M 369 525 L 369 535" />
        <path d="M 784 525 L 784 545" />
        <path d="M 867 525 L 867 535" />
        <path d="M 701 525 L 701 535" />
    </g>
    <g id="frame_1_rightticks">
        <path d="M 950 960 L 930 960" />
        <path d="M 950 858.801 L 940 858.801" />
        <path d="M 950 757.602 L 940 757.602" />
        <path d="M 950 656.403 L 940 656.403" />
        <path d="M 950 555.204 L 940 555.204" />
        <path d="M 950 952.215 L 940 952.215" />
        <path d="M 950 851.016 L 940 851.016" />
        <path d="M 950 749.817 L 940 749.817" />
        <path d="M 950 648.618 L 930 648.618" />
        <path d="M 950 547.419 L 940 547.419" />
        <path d="M 950 944.431 L 940 944.431" />
        <path d="M 950 843.232 L 940 843.232" />
        <path d="M 950 742.033 L 940 742.033" />
        <path d="M 950 640.834 L 940 640.834" />
        <path d="M 950 539.635 L 940 539.635" />
        <path d="M 950 936.646 L 940 936.646" />
        <path d="M 950 835.447 L 940 835.447" />
        <path d="M 950 734.248 L 940 734.248" />
        <path d="M 950 633.049 L 940 633.049" />
        <path d="M 950 531.85 L 940 531.85" />
        <path d="M 950 928.862 L 940 928.862" />
        <path d="M 950 827.663 L 940 827.663" />
        <path d="M 950 726.464 L 930 726.464" />
        <path d="M 950 625.265 L 940 625.265" />
        <path d="M 950 921.077 L 940 921.077" />
        <path d="M 950 819.878 L 940 819.878" />
        <path d="M 950 718.679 L 940 718.679" />
        <path d="M 950 617.48 L 940 617.48" />
        <path d="M 950 913.293 L 940 913.293" />
        <path d="M 950 812.094 L 940 812.094" />
        <path d="M 950 710.895 L 940 710.895" />
        <path d="M 950 609.696 L 940 609.696" />
        <path d="M 950 905.508 L 940 905.508" />
        <path d="M 950 804.309 L 930 804.309" />
        <path d="M 950 703.11 L 940 703.11" />
        <path d="M 950 601.911 L 940 601.911" />
        <path d="M 950 897.724 L 940 897.724" />
        <path d="M 950 796.525 L 940 796.525" />
        <path d="M 950 695.326 L 940 695.326" />
        <path d="M 950 594.127 L 940 594.127" />
        <path d="M 950 889.939 L 940 889.939" />
        <path d="M 950 788.74 L 940 788.74" />
        <path d="M 950 687.541 L 940 687.541" />
        <path d="M 950 586.342 L 940 586.342" />
        <path d="M 950 882.155 L 930 882.155" />
        <path d="M 950 780.956 L 940 780.956" />
        <path d="M 950 679.757 L 940 679.757" />
        <path d="M 950 578.558 L 940 578.558" />
        <path d="M 950 874.37 L 940 874.37" />
        <path d="M 950 773.171 L 940 773.171" />
        <path d="M 950 671.972 L 940 671.972" />
        <path d="M 950 570.773 L 930 570.773" />
        <path d="M 950 866.586 L 940 866.586" />
        <path d="M 950 765.387 L 940 765.387" />
        <path d="M 950 664.188 L 940 664.188" />
        <path d="M 950 562.989 L 940 562.989" />
    </g>
</g>
</g>
</svg>
