<?xml version="1.0" standalone="no"?>
<!DOCTYPE svg PUBLIC "-//W3C//DTD SVG 1.1//EN" "http://www.w3.org/Graphics/SVG/1.1/DTD/svg11.dtd">
<svg style="stroke-linejoin:miter; stroke:black; stroke-width:2.5; text-anchor:middle; fill:none" xmlns="http://www.w3.org/2000/svg" font-family="Helvetica, Arial, FreeSans, Sans, sans, sans-serif" width="1000px" height="1000px" version="1.1" xmlns:xlink="http://www.w3.org/1999/xlink" viewBox="0 0 1000 1000">
<defs>
    <clipPath id="Histogram_0_clip">
        <rect x="120" y="50" width="830" height="870" />
    </clipPath>
    <clipPath id="Histogram_1_clip">
        <rect x="120" y="50" width="830" height="870" />
    </clipPath>
</defs>
<g id="whole_document">
<rect id="background" x="0" y="0" width="1000" height="1000" stroke="none" fill="white" />
<g id="Histogram_0" clip-path="url(#Histogram_0_clip)">
    <path d="M 120 920 L 120 920 L 161.5 920 L 161.5 919.596 L 203 919.596 L 203 920 L 244.5 920 L 244.5 915.552 L 286 915.552 L 286 898.165 L 327.5 898.165 L 327.5 853.282 L 369 853.282 L 369 736.021 L 410.5 736.021 L 410.5 562.959 L 452 562.959 L 452 312.666 L 493.5 312.666 L 493.5 129.091 L 535 129.091 L 535 155.778 L 576.5 155.778 L 576.5 328.436 L 618 328.436 L 618 530.611 L 659.5 530.611 L 659.5 740.873 L 701 740.873 L 701 856.113 L 742.5 856.113 L 742.5 902.613 L 784 902.613 L 784 915.956 L 825.5 915.956 L 825.5 918.787 L 867 918.787 L 867 920 L 908.5 920 L 908.5 920 L 950 920 L 950 920" stroke-width="3" stroke-dasharray="" stroke="black" stroke-opacity="1" fill="lightblue" fill-opacity="1" />
</g>
<g id="Histogram_1" clip-path="url(#Histogram_1_clip)">
    <path d="M 120 920 L 120 920 L 161.5 920 L 161.5 920 L 203 920 L 203 920 L 244.5 920 L 244.5 920 L 286 920 L 286 920 L 327.5 920 L 327.5 920 L 369 920 L 369 920 L 410.5 920 L 410.5 920 L 452 920 L 452 918.383 L 493.5 918.383 L 493.5 914.743 L 535 914.743 L 535 905.039 L 576.5 905.039 L 576.5 857.326 L 618 857.326 L 618 747.747 L 659.5 747.747 L 659.5 540.719 L 701 540.719 L 701 306.601 L 742.5 306.601 L 742.5 138.391 L 784 138.391 L 784 152.948 L 825.5 152.948 L 825.5 320.349 L 867 320.349 L 867 537.889 L 908.5 537.889 L 908.5 742.49 L 950 742.49 L 950 920" stroke-width="3" stroke-dasharray="" stroke="black" stroke-opacity="1" fill="none" fill-opacity="1" />
</g>
<g id="frame_0">
    <rect id="frame_0_border" x="120" y="50" width="830" height="870" />
    <text id="frame_0_bottomlabel" font-size="30" transform="translate(535, 989.6)" text-anchor="middle" dominant-baseline="middle" stroke="none" fill="black">x</text>
    <g id="frame_0_bottomticks">
        <path d="M 120 920 L 120 900" />
        <text font-size="30" transform="translate(120, 950)" text-anchor="middle" dominant-baseline="middle" stroke="none" fill="black">zero</text>
        <path d="M 701 920 L 701 910" />
        <path d="M 203 920 L 203 910" />
        <path d="M 784 920 L 784 900" />
        <text font-size="30" transform="translate(784, 950)" text-anchor="middle" dominant-baseline="middle" stroke="none" fill="black">eighty</text>
        <path d="M 286 920 L 286 900" />
        <text font-size="30" transform="translate(286, 950)" text-anchor="middle" dominant-baseline="middle" stroke="none" fill="black">twenty</text>
        <path d="M 867 920 L 867 910" />
        <path d="M 369 920 L 369 910" />
        <path d="M 950 920 L 950 900" />
        <text font-size="30" transform="translate(950, 950)" text-anchor="middle" dominant-baseline="middle" stroke="none" fill="black">hundred</text>
        <path d="M 452 920 L 452 900" />
        <text font-size="30" transform="translate(452, 950)" text-anchor="middle" dominant-baseline="middle" stroke="none" fill="black">forty</text>
        <path d="M 535 920 L 535 910" />
        <path d="M 618 920 L 618 900" />
        <text font-size="30" transform="translate(618, 950)" text-anchor="middle" dominant-baseline="middle" stroke="none" fill="black">sixty</text>
    </g>
    <text id="frame_0_leftlabel" font-size="30" transform="translate(37, 485) rotate(-90)" text-anchor="middle" dominant-baseline="middle" stroke="none" fill="black">counts per bin</text>
    <g id="frame_0_leftticks">
        <path d="M 120 273.04 L 130 273.04" />
        <path d="M 120 920 L 140 920" />
        <text font-size="30" transform="translate(110, 930)" text-anchor="end" dominant-baseline="middle" stroke="none" fill="black">0</text>
        <path d="M 120 556.085 L 130 556.085" />
        <path d="M 120 839.13 L 130 839.13" />
        <path d="M 120 151.735 L 130 151.735" />
        <path d="M 120 475.215 L 130 475.215" />
        <path d="M 120 758.26 L 130 758.26" />
        <path d="M 120 394.345 L 130 394.345" />
        <path d="M 120 677.39 L 130 677.39" />
        <path d="M 120 232.605 L 130 232.605" />
        <path d="M 120 313.475 L 140 313.475" />
        <text font-size="30" transform="translate(110, 323.475)" text-anchor="end" dominant-baseline="middle" stroke="none" fill="black">1500</text>
        <path d="M 120 596.52 L 130 596.52" />
        <path d="M 120 111.299 L 140 111.299" />
        <text font-size="30" transform="translate(110, 121.299)" text-anchor="end" dominant-baseline="middle" stroke="none" fill="black">2000</text>
        <path d="M 120 879.565 L 130 879.565" />
        <path d="M 120 515.65 L 140 515.65" />
        <text font-size="30" transform="translate(110, 525.65)" text-anchor="end" dominant-baseline="middle" stroke="none" fill="black">1000</text>
        <path d="M 120 798.695 L 130 798.695" />
        <path d="M 120 434.78 L 130 434.78" />
        <path d="M 120 192.17 L 130 192.17" />
        <path d="M 120 70.8645 L 130 70.8645" />
        <path d="M 120 353.91 L 130 353.91" />
        <path d="M 120 717.825 L 140 717.825" />
        <text font-size="30" transform="translate(110, 727.825)" text-anchor="end" dominant-baseline="middle" stroke="none" fill="black">500</text>
        <path d="M 120 636.955 L 130 636.955" />
    </g>
    <g id="frame_0_topticks">
        <path d="M 120 50 L 120 70" />
        <path d="M 701 50 L 701 60" />
        <path d="M 203 50 L 203 60" />
        <path d="M 784 50 L 784 70" />
        <path d="M 286 50 L 286 70" />
        <path d="M 867 50 L 867 60" />
        <path d="M 369 50 L 369 60" />
        <path d="M 950 50 L 950 70" />
        <path d="M 452 50 L 452 70" />
        <path d="M 535 50 L 535 60" />
        <path d="M 618 50 L 618 70" />
    </g>
    <g id="frame_0_rightticks">
        <path d="M 950 273.04 L 940 273.04" />
        <path d="M 950 920 L 930 920" />
        <path d="M 950 556.085 L 940 556.085" />
        <path d="M 950 839.13 L 940 839.13" />
        <path d="M 950 151.735 L 940 151.735" />
        <path d="M 950 475.215 L 940 475.215" />
        <path d="M 950 758.26 L 940 758.26" />
        <path d="M 950 394.345 L 940 394.345" />
        <path d="M 950 677.39 L 940 677.39" />
        <path d="M 950 232.605 L 940 232.605" />
        <path d="M 950 313.475 L 930 313.475" />
        <path d="M 950 596.52 L 940 596.52" />
        <path d="M 950 111.299 L 930 111.299" />
        <path d="M 950 879.565 L 940 879.565" />
        <path d="M 950 515.65 L 930 515.65" />
        <path d="M 950 798.695 L 940 798.695" />
        <path d="M 950 434.78 L 940 434.78" />
        <path d="M 950 192.17 L 940 192.17" />
        <path d="M 950 70.8645 L 940 70.8645" />
        <path d="M 950 353.91 L 940 353.91" />
        <path d="M 950 717.825 L 930 717.825" />
        <path d="M 950 636.955 L 940 636.955" />
    </g>
</g>
</g>
</svg>
