<?xml version="1.0" standalone="no"?>
<!DOCTYPE svg PUBLIC "-//W3C//DTD SVG 1.1//EN" "http://www.w3.org/Graphics/SVG/1.1/DTD/svg11.dtd">
<svg style="stroke-linejoin:miter; stroke:black; stroke-width:2.5; text-anchor:middle; fill:none" xmlns="http://www.w3.org/2000/svg" font-family="Helvetica, Arial, FreeSans, Sans, sans, sans-serif" width="1000px" height="1000px" version="1.1" xmlns:xlink="http://www.w3.org/1999/xlink" viewBox="0 0 1000 1000">
<defs>
    <clipPath id="Histogram_0_clip">
        <rect x="120" y="50" width="830" height="870" />
    </clipPath>
</defs>
<g id="whole_document">
<rect id="background" x="0" y="0" width="1000" height="1000" stroke="none" fill="white" />
<g id="Histogram_0" clip-path="url(#Histogram_0_clip)">
    <path d="M 120 920 L 120 920 L 161.5 920 L 161.5 920 L 203 920 L 203 920 L 244.5 920 L 244.5 920 L 286 920 L 286 920 L 327.5 920 L 327.5 920 L 369 920 L 369 920 L 410.5 920 L 410.5 919.594 L 452 919.594 L 452 918.374 L 493.5 918.374 L 493.5 915.936 L 535 915.936 L 535 896.021 L 576.5 896.021 L 576.5 850.094 L 618 850.094 L 618 743.204 L 659.5 743.204 L 659.5 549.338 L 701 549.338 L 701 317.267 L 742.5 317.267 L 742.5 181.114 L 784 181.114 L 784 129.091 L 825.5 129.091 L 825.5 307.106 L 867 307.106 L 867 537.145 L 908.5 537.145 L 908.5 728.572 L 950 728.572 L 950 920" stroke-width="3" stroke-dasharray="" stroke="black" stroke-opacity="1" fill="none" fill-opacity="1" />
</g>
<g id="frame_0">
    <rect id="frame_0_border" x="120" y="50" width="830" height="870" />
    <g id="frame_0_bottomticks">
        <path d="M 120 920 L 120 900" />
        <text font-size="30" transform="translate(120, 950)" text-anchor="middle" dominant-baseline="middle" stroke="none" fill="black">0</text>
        <path d="M 950 920 L 950 900" />
        <text font-size="30" transform="translate(950, 950)" text-anchor="middle" dominant-baseline="middle" stroke="none" fill="black">100</text>
        <path d="M 701 920 L 701 910" />
        <path d="M 452 920 L 452 900" />
        <text font-size="30" transform="translate(452, 950)" text-anchor="middle" dominant-baseline="middle" stroke="none" fill="black">40</text>
        <path d="M 203 920 L 203 910" />
        <path d="M 784 920 L 784 900" />
        <text font-size="30" transform="translate(784, 950)" text-anchor="middle" dominant-baseline="middle" stroke="none" fill="black">80</text>
        <path d="M 535 920 L 535 910" />
        <path d="M 286 920 L 286 900" />
        <text font-size="30" transform="translate(286, 950)" text-anchor="middle" dominant-baseline="middle" stroke="none" fill="black">20</text>
        <path d="M 867 920 L 867 910" />
        <path d="M 618 920 L 618 900" />
        <text font-size="30" transform="translate(618, 950)" text-anchor="middle" dominant-baseline="middle" stroke="none" fill="black">60</text>
        <path d="M 369 920 L 369 910" />
    </g>
    <g id="frame_0_leftticks">
        <path d="M 120 269.715 L 130 269.715" />
        <path d="M 120 920 L 140 920" />
        <text font-size="30" transform="translate(110, 930)" text-anchor="end" dominant-baseline="middle" stroke="none" fill="black">0</text>
        <path d="M 120 554.215 L 130 554.215" />
        <path d="M 120 838.714 L 130 838.714" />
        <path d="M 120 147.787 L 130 147.787" />
        <path d="M 120 472.929 L 130 472.929" />
        <path d="M 120 757.429 L 130 757.429" />
        <path d="M 120 391.643 L 130 391.643" />
        <path d="M 120 676.143 L 130 676.143" />
        <path d="M 120 229.072 L 130 229.072" />
        <path d="M 120 310.358 L 140 310.358" />
        <text font-size="30" transform="translate(110, 320.358)" text-anchor="end" dominant-baseline="middle" stroke="none" fill="black">1500</text>
        <path d="M 120 594.858 L 130 594.858" />
        <path d="M 120 107.144 L 140 107.144" />
        <text font-size="30" transform="translate(110, 117.144)" text-anchor="end" dominant-baseline="middle" stroke="none" fill="black">2000</text>
        <path d="M 120 879.357 L 130 879.357" />
        <path d="M 120 513.572 L 140 513.572" />
        <text font-size="30" transform="translate(110, 523.572)" text-anchor="end" dominant-baseline="middle" stroke="none" fill="black">1000</text>
        <path d="M 120 798.072 L 130 798.072" />
        <path d="M 120 432.286 L 130 432.286" />
        <path d="M 120 188.429 L 130 188.429" />
        <path d="M 120 66.501 L 130 66.501" />
        <path d="M 120 351.001 L 130 351.001" />
        <path d="M 120 716.786 L 140 716.786" />
        <text font-size="30" transform="translate(110, 726.786)" text-anchor="end" dominant-baseline="middle" stroke="none" fill="black">500</text>
        <path d="M 120 635.5 L 130 635.5" />
    </g>
    <g id="frame_0_topticks">
        <path d="M 120 50 L 120 70" />
        <path d="M 950 50 L 950 70" />
        <path d="M 701 50 L 701 60" />
        <path d="M 452 50 L 452 70" />
        <path d="M 203 50 L 203 60" />
        <path d="M 784 50 L 784 70" />
        <path d="M 535 50 L 535 60" />
        <path d="M 286 50 L 286 70" />
        <path d="M 867 50 L 867 60" />
        <path d="M 618 50 L 618 70" />
        <path d="M 369 50 L 369 60" />
    </g>
    <g id="frame_0_rightticks">
        <path d="M 950 269.715 L 940 269.715" />
        <path d="M 950 920 L 930 920" />
        <path d="M 950 554.215 L 940 554.215" />
        <path d="M 950 838.714 L 940 838.714" />
        <path d="M 950 147.787 L 940 147.787" />
        <path d="M 950 472.929 L 940 472.929" />
        <path d="M 950 757.429 L 940 757.429" />
        <path d="M 950 391.643 L 940 391.643" />
        <path d="M 950 676.143 L 940 676.143" />
        <path d="M 950 229.072 L 940 229.072" />
        <path d="M 950 310.358 L 930 310.358" />
        <path d="M 950 594.858 L 940 594.858" />
        <path d="M 950 107.144 L 930 107.144" />
        <path d="M 950 879.357 L 940 879.357" />
        <path d="M 950 513.572 L 930 513.572" />
        <path d="M 950 798.072 L 940 798.072" />
        <path d="M 950 432.286 L 940 432.286" />
        <path d="M 950 188.429 L 940 188.429" />
        <path d="M 950 66.501 L 940 66.501" />
        <path d="M 950 351.001 L 940 351.001" />
        <path d="M 950 716.786 L 930 716.786" />
        <path d="M 950 635.5 L 940 635.5" />
    </g>
</g>
</g>
</svg>
