<?xml version="1.0" standalone="no"?>
<!DOCTYPE svg PUBLIC "-//W3C//DTD SVG 1.1//EN" "http://www.w3.org/Graphics/SVG/1.1/DTD/svg11.dtd">
<svg style="stroke-linejoin:miter; stroke:black; stroke-width:2.5; text-anchor:middle; fill:none" xmlns="http://www.w3.org/2000/svg" font-family="Helvetica, Arial, FreeSans, Sans, sans, sans-serif" width="1000px" height="1000px" version="1.1" xmlns:xlink="http://www.w3.org/1999/xlink" viewBox="0 0 1000 1000">
<defs>
    <clipPath id="Histogram_0_clip">
        <rect x="60" y="25" width="415" height="375" />
    </clipPath>
    <clipPath id="Histogram_1_clip">
        <rect x="560" y="25" width="415" height="375" />
    </clipPath>
    <clipPath id="Histogram_2_clip">
        <rect x="60" y="525" width="415" height="375" />
    </clipPath>
    <clipPath id="Histogram_3_clip">
        <rect x="560" y="525" width="415" height="375" />
    </clipPath>
</defs>
<g id="whole_document">
<rect id="background" x="0" y="0" width="1000" height="1000" stroke="none" fill="white" />
<g id="Histogram_0" clip-path="url(#Histogram_0_clip)">
    <path d="M 60 400 L 60 400 L 65.9286 400 L 65.9286 400 L 71.8571 400 L 71.8571 400 L 77.7857 400 L 77.7857 400 L 83.7143 400 L 83.7143 400 L 89.6429 400 L 89.6429 400 L 95.5714 400 L 95.5714 400 L 101.5 400 L 101.5 400 L 107.429 400 L 107.429 400 L 113.357 400 L 113.357 400 L 119.286 400 L 119.286 382.955 L 125.214 382.955 L 125.214 229.545 L 131.143 229.545 L 131.143 229.545 L 137.071 229.545 L 137.071 59.0909 L 143 59.0909 L 143 161.364 L 148.929 161.364 L 148.929 178.409 L 154.857 178.409 L 154.857 280.682 L 160.786 280.682 L 160.786 314.773 L 166.714 314.773 L 166.714 246.591 L 172.643 246.591 L 172.643 365.909 L 178.571 365.909 L 178.571 331.818 L 184.5 331.818 L 184.5 382.955 L 190.429 382.955 L 190.429 365.909 L 196.357 365.909 L 196.357 400 L 202.286 400 L 202.286 400 L 208.214 400 L 208.214 365.909 L 214.143 365.909 L 214.143 400 L 220.071 400 L 220.071 365.909 L 226 365.909 L 226 382.955 L 231.929 382.955 L 231.929 382.955 L 237.857 382.955 L 237.857 400 L 243.786 400 L 243.786 400 L 249.714 400 L 249.714 382.955 L 255.643 382.955 L 255.643 382.955 L 261.571 382.955 L 261.571 348.864 L 267.5 348.864 L 267.5 297.727 L 273.429 297.727 L 273.429 400 L 279.357 400 L 279.357 314.773 L 285.286 314.773 L 285.286 297.727 L 291.214 297.727 L 291.214 280.682 L 297.143 280.682 L 297.143 297.727 L 303.071 297.727 L 303.071 263.636 L 309 263.636 L 309 229.545 L 314.929 229.545 L 314.929 280.682 L 320.857 280.682 L 320.857 297.727 L 326.786 297.727 L 326.786 161.364 L 332.714 161.364 L 332.714 246.591 L 338.643 246.591 L 338.643 246.591 L 344.571 246.591 L 344.571 229.545 L 350.5 229.545 L 350.5 314.773 L 356.429 314.773 L 356.429 297.727 L 362.357 297.727 L 362.357 331.818 L 368.286 331.818 L 368.286 331.818 L 374.214 331.818 L 374.214 382.955 L 380.143 382.955 L 380.143 365.909 L 386.071 365.909 L 386.071 400 L 392 400 L 392 400 L 397.929 400 L 397.929 400 L 403.857 400 L 403.857 400 L 409.786 400 L 409.786 400 L 415.714 400 L 415.714 400 L 421.643 400 L 421.643 400 L 427.571 400 L 427.571 400 L 433.5 400 L 433.5 400 L 439.429 400 L 439.429 400 L 445.357 400 L 445.357 400 L 451.286 400 L 451.286 400 L 457.214 400 L 457.214 400 L 463.143 400 L 463.143 400 L 469.071 400 L 469.071 400 L 475 400 L 475 400" stroke-width="3" stroke-dasharray="" stroke="black" stroke-opacity="1" fill="#4dff66" fill-opacity="1" />
</g>
<g id="frame_0">
    <rect id="frame_0_border" x="60" y="25" width="415" height="375" />
    <text id="frame_0_bottomlabel" font-size="30" transform="translate(267.5, 475)" text-anchor="middle" dominant-baseline="middle" stroke="none" fill="black">IL-TESTTSC-KENNEDY-W-2128</text>
    <g id="frame_0_bottomticks">
        <path d="M 60 400 L 60 380" />
        <text font-size="30" transform="translate(60, 430)" text-anchor="middle" dominant-baseline="middle" stroke="none" fill="black">0</text>
        <path d="M 65.9286 400 L 65.9286 390" />
        <path d="M 71.8571 400 L 71.8571 390" />
        <path d="M 77.7857 400 L 77.7857 390" />
        <path d="M 83.7143 400 L 83.7143 390" />
        <path d="M 89.6429 400 L 89.6429 390" />
        <path d="M 95.5714 400 L 95.5714 390" />
        <path d="M 101.5 400 L 101.5 390" />
        <path d="M 107.429 400 L 107.429 390" />
        <path d="M 113.357 400 L 113.357 390" />
        <path d="M 119.286 400 L 119.286 380" />
        <text font-size="30" transform="translate(119.286, 430)" text-anchor="middle" dominant-baseline="middle" stroke="none" fill="black">10</text>
        <path d="M 125.214 400 L 125.214 390" />
        <path d="M 131.143 400 L 131.143 390" />
        <path d="M 137.071 400 L 137.071 390" />
        <path d="M 143 400 L 143 390" />
        <path d="M 148.929 400 L 148.929 390" />
        <path d="M 154.857 400 L 154.857 390" />
        <path d="M 160.786 400 L 160.786 390" />
        <path d="M 166.714 400 L 166.714 390" />
        <path d="M 172.643 400 L 172.643 390" />
        <path d="M 178.571 400 L 178.571 380" />
        <text font-size="30" transform="translate(178.571, 430)" text-anchor="middle" dominant-baseline="middle" stroke="none" fill="black">20</text>
        <path d="M 184.5 400 L 184.5 390" />
        <path d="M 190.429 400 L 190.429 390" />
        <path d="M 196.357 400 L 196.357 390" />
        <path d="M 202.286 400 L 202.286 390" />
        <path d="M 208.214 400 L 208.214 390" />
        <path d="M 214.143 400 L 214.143 390" />
        <path d="M 220.071 400 L 220.071 390" />
        <path d="M 226 400 L 226 390" />
        <path d="M 231.929 400 L 231.929 390" />
        <path d="M 237.857 400 L 237.857 380" />
        <text font-size="30" transform="translate(237.857, 430)" text-anchor="middle" dominant-baseline="middle" stroke="none" fill="black">30</text>
        <path d="M 243.786 400 L 243.786 390" />
        <path d="M 249.714 400 L 249.714 390" />
        <path d="M 255.643 400 L 255.643 390" />
        <path d="M 261.571 400 L 261.571 390" />
        <path d="M 267.5 400 L 267.5 390" />
        <path d="M 273.429 400 L 273.429 390" />
        <path d="M 279.357 400 L 279.357 390" />
        <path d="M 285.286 400 L 285.286 390" />
        <path d="M 291.214 400 L 291.214 390" />
        <path d="M 297.143 400 L 297.143 380" />
        <text font-size="30" transform="translate(297.143, 430)" text-anchor="middle" dominant-baseline="middle" stroke="none" fill="black">40</text>
        <path d="M 303.071 400 L 303.071 390" />
        <path d="M 309 400 L 309 390" />
        <path d="M 314.929 400 L 314.929 390" />
        <path d="M 320.857 400 L 320.857 390" />
        <path d="M 326.786 400 L 326.786 390" />
        <path d="M 332.714 400 L 332.714 390" />
        <path d="M 338.643 400 L 338.643 390" />
        <path d="M 344.571 400 L 344.571 390" />
        <path d="M 350.5 400 L 350.5 390" />
        <path d="M 356.429 400 L 356.429 380" />
        <text font-size="30" transform="translate(356.429, 430)" text-anchor="middle" dominant-baseline="middle" stroke="none" fill="black">50</text>
        <path d="M 362.357 400 L 362.357 390" />
        <path d="M 368.286 400 L 368.286 390" />
        <path d="M 374.214 400 L 374.214 390" />
        <path d="M 380.143 400 L 380.143 390" />
        <path d="M 386.071 400 L 386.071 390" />
        <path d="M 392 400 L 392 390" />
        <path d="M 397.929 400 L 397.929 390" />
        <path d="M 403.857 400 L 403.857 390" />
        <path d="M 409.786 400 L 409.786 390" />
        <path d="M 415.714 400 L 415.714 380" />
        <text font-size="30" transform="translate(415.714, 430)" text-anchor="middle" dominant-baseline="middle" stroke="none" fill="black">60</text>
        <path d="M 421.643 400 L 421.643 390" />
        <path d="M 427.571 400 L 427.571 390" />
        <path d="M 433.5 400 L 433.5 390" />
        <path d="M 439.429 400 L 439.429 390" />
        <path d="M 445.357 400 L 445.357 390" />
        <path d="M 451.286 400 L 451.286 390" />
        <path d="M 457.214 400 L 457.214 390" />
        <path d="M 463.143 400 L 463.143 390" />
        <path d="M 469.071 400 L 469.071 390" />
        <path d="M 475 400 L 475 380" />
        <text font-size="30" transform="translate(475, 430)" text-anchor="middle" dominant-baseline="middle" stroke="none" fill="black">70</text>
    </g>
    <g id="frame_0_leftticks">
        <path d="M 60 400 L 80 400" />
        <text font-size="30" transform="translate(50, 410)" text-anchor="end" dominant-baseline="middle" stroke="none" fill="black">0</text>
        <path d="M 60 382.955 L 70 382.955" />
        <path d="M 60 365.909 L 70 365.909" />
        <path d="M 60 348.864 L 70 348.864" />
        <path d="M 60 331.818 L 70 331.818" />
        <path d="M 60 314.773 L 80 314.773" />
        <text font-size="30" transform="translate(50, 324.773)" text-anchor="end" dominant-baseline="middle" stroke="none" fill="black">5</text>
        <path d="M 60 297.727 L 70 297.727" />
        <path d="M 60 280.682 L 70 280.682" />
        <path d="M 60 263.636 L 70 263.636" />
        <path d="M 60 246.591 L 70 246.591" />
        <path d="M 60 229.545 L 80 229.545" />
        <text font-size="30" transform="translate(50, 239.545)" text-anchor="end" dominant-baseline="middle" stroke="none" fill="black">10</text>
        <path d="M 60 212.5 L 70 212.5" />
        <path d="M 60 195.455 L 70 195.455" />
        <path d="M 60 178.409 L 70 178.409" />
        <path d="M 60 161.364 L 70 161.364" />
        <path d="M 60 144.318 L 80 144.318" />
        <text font-size="30" transform="translate(50, 154.318)" text-anchor="end" dominant-baseline="middle" stroke="none" fill="black">15</text>
        <path d="M 60 127.273 L 70 127.273" />
        <path d="M 60 110.227 L 70 110.227" />
        <path d="M 60 93.1818 L 70 93.1818" />
        <path d="M 60 76.1364 L 70 76.1364" />
        <path d="M 60 59.0909 L 80 59.0909" />
        <text font-size="30" transform="translate(50, 69.0909)" text-anchor="end" dominant-baseline="middle" stroke="none" fill="black">20</text>
        <path d="M 60 42.0455 L 70 42.0455" />
        <path d="M 60 25 L 70 25" />
    </g>
    <g id="frame_0_topticks">
        <path d="M 60 25 L 60 45" />
        <path d="M 65.9286 25 L 65.9286 35" />
        <path d="M 71.8571 25 L 71.8571 35" />
        <path d="M 77.7857 25 L 77.7857 35" />
        <path d="M 83.7143 25 L 83.7143 35" />
        <path d="M 89.6429 25 L 89.6429 35" />
        <path d="M 95.5714 25 L 95.5714 35" />
        <path d="M 101.5 25 L 101.5 35" />
        <path d="M 107.429 25 L 107.429 35" />
        <path d="M 113.357 25 L 113.357 35" />
        <path d="M 119.286 25 L 119.286 45" />
        <path d="M 125.214 25 L 125.214 35" />
        <path d="M 131.143 25 L 131.143 35" />
        <path d="M 137.071 25 L 137.071 35" />
        <path d="M 143 25 L 143 35" />
        <path d="M 148.929 25 L 148.929 35" />
        <path d="M 154.857 25 L 154.857 35" />
        <path d="M 160.786 25 L 160.786 35" />
        <path d="M 166.714 25 L 166.714 35" />
        <path d="M 172.643 25 L 172.643 35" />
        <path d="M 178.571 25 L 178.571 45" />
        <path d="M 184.5 25 L 184.5 35" />
        <path d="M 190.429 25 L 190.429 35" />
        <path d="M 196.357 25 L 196.357 35" />
        <path d="M 202.286 25 L 202.286 35" />
        <path d="M 208.214 25 L 208.214 35" />
        <path d="M 214.143 25 L 214.143 35" />
        <path d="M 220.071 25 L 220.071 35" />
        <path d="M 226 25 L 226 35" />
        <path d="M 231.929 25 L 231.929 35" />
        <path d="M 237.857 25 L 237.857 45" />
        <path d="M 243.786 25 L 243.786 35" />
        <path d="M 249.714 25 L 249.714 35" />
        <path d="M 255.643 25 L 255.643 35" />
        <path d="M 261.571 25 L 261.571 35" />
        <path d="M 267.5 25 L 267.5 35" />
        <path d="M 273.429 25 L 273.429 35" />
        <path d="M 279.357 25 L 279.357 35" />
        <path d="M 285.286 25 L 285.286 35" />
        <path d="M 291.214 25 L 291.214 35" />
        <path d="M 297.143 25 L 297.143 45" />
        <path d="M 303.071 25 L 303.071 35" />
        <path d="M 309 25 L 309 35" />
        <path d="M 314.929 25 L 314.929 35" />
        <path d="M 320.857 25 L 320.857 35" />
        <path d="M 326.786 25 L 326.786 35" />
        <path d="M 332.714 25 L 332.714 35" />
        <path d="M 338.643 25 L 338.643 35" />
        <path d="M 344.571 25 L 344.571 35" />
        <path d="M 350.5 25 L 350.5 35" />
        <path d="M 356.429 25 L 356.429 45" />
        <path d="M 362.357 25 L 362.357 35" />
        <path d="M 368.286 25 L 368.286 35" />
        <path d="M 374.214 25 L 374.214 35" />
        <path d="M 380.143 25 L 380.143 35" />
        <path d="M 386.071 25 L 386.071 35" />
        <path d="M 392 25 L 392 35" />
        <path d="M 397.929 25 L 397.929 35" />
        <path d="M 403.857 25 L 403.857 35" />
        <path d="M 409.786 25 L 409.786 35" />
        <path d="M 415.714 25 L 415.714 45" />
        <path d="M 421.643 25 L 421.643 35" />
        <path d="M 427.571 25 L 427.571 35" />
        <path d="M 433.5 25 L 433.5 35" />
        <path d="M 439.429 25 L 439.429 35" />
        <path d="M 445.357 25 L 445.357 35" />
        <path d="M 451.286 25 L 451.286 35" />
        <path d="M 457.214 25 L 457.214 35" />
        <path d="M 463.143 25 L 463.143 35" />
        <path d="M 469.071 25 L 469.071 35" />
        <path d="M 475 25 L 475 45" />
    </g>
    <g id="frame_0_rightticks">
        <path d="M 475 400 L 455 400" />
        <path d="M 475 382.955 L 465 382.955" />
        <path d="M 475 365.909 L 465 365.909" />
        <path d="M 475 348.864 L 465 348.864" />
        <path d="M 475 331.818 L 465 331.818" />
        <path d="M 475 314.773 L 455 314.773" />
        <path d="M 475 297.727 L 465 297.727" />
        <path d="M 475 280.682 L 465 280.682" />
        <path d="M 475 263.636 L 465 263.636" />
        <path d="M 475 246.591 L 465 246.591" />
        <path d="M 475 229.545 L 455 229.545" />
        <path d="M 475 212.5 L 465 212.5" />
        <path d="M 475 195.455 L 465 195.455" />
        <path d="M 475 178.409 L 465 178.409" />
        <path d="M 475 161.364 L 465 161.364" />
        <path d="M 475 144.318 L 455 144.318" />
        <path d="M 475 127.273 L 465 127.273" />
        <path d="M 475 110.227 L 465 110.227" />
        <path d="M 475 93.1818 L 465 93.1818" />
        <path d="M 475 76.1364 L 465 76.1364" />
        <path d="M 475 59.0909 L 455 59.0909" />
        <path d="M 475 42.0455 L 465 42.0455" />
        <path d="M 475 25 L 465 25" />
    </g>
</g>
<g id="Histogram_1" clip-path="url(#Histogram_1_clip)">
    <path d="M 560 400 L 560 400 L 565.929 400 L 565.929 400 L 571.857 400 L 571.857 400 L 577.786 400 L 577.786 400 L 583.714 400 L 583.714 400 L 589.643 400 L 589.643 400 L 595.571 400 L 595.571 400 L 601.5 400 L 601.5 400 L 607.429 400 L 607.429 400 L 613.357 400 L 613.357 400 L 619.286 400 L 619.286 400 L 625.214 400 L 625.214 400 L 631.143 400 L 631.143 400 L 637.071 400 L 637.071 400 L 643 400 L 643 400 L 648.929 400 L 648.929 400 L 654.857 400 L 654.857 400 L 660.786 400 L 660.786 400 L 666.714 400 L 666.714 400 L 672.643 400 L 672.643 400 L 678.571 400 L 678.571 400 L 684.5 400 L 684.5 400 L 690.429 400 L 690.429 400 L 696.357 400 L 696.357 392.252 L 702.286 392.252 L 702.286 384.504 L 708.214 384.504 L 708.214 353.512 L 714.143 353.512 L 714.143 276.033 L 720.071 276.033 L 720.071 221.798 L 726 221.798 L 726 183.058 L 731.929 183.058 L 731.929 59.0909 L 737.857 59.0909 L 737.857 144.318 L 743.786 144.318 L 743.786 159.814 L 749.714 159.814 L 749.714 183.058 L 755.643 183.058 L 755.643 283.781 L 761.571 283.781 L 761.571 376.756 L 767.5 376.756 L 767.5 392.252 L 773.429 392.252 L 773.429 384.504 L 779.357 384.504 L 779.357 400 L 785.286 400 L 785.286 392.252 L 791.214 392.252 L 791.214 400 L 797.143 400 L 797.143 400 L 803.071 400 L 803.071 400 L 809 400 L 809 400 L 814.929 400 L 814.929 400 L 820.857 400 L 820.857 400 L 826.786 400 L 826.786 400 L 832.714 400 L 832.714 400 L 838.643 400 L 838.643 400 L 844.571 400 L 844.571 400 L 850.5 400 L 850.5 400 L 856.429 400 L 856.429 400 L 862.357 400 L 862.357 400 L 868.286 400 L 868.286 400 L 874.214 400 L 874.214 400 L 880.143 400 L 880.143 400 L 886.071 400 L 886.071 400 L 892 400 L 892 400 L 897.929 400 L 897.929 400 L 903.857 400 L 903.857 400 L 909.786 400 L 909.786 400 L 915.714 400 L 915.714 400 L 921.643 400 L 921.643 400 L 927.571 400 L 927.571 400 L 933.5 400 L 933.5 400 L 939.429 400 L 939.429 400 L 945.357 400 L 945.357 400 L 951.286 400 L 951.286 400 L 957.214 400 L 957.214 400 L 963.143 400 L 963.143 400 L 969.071 400 L 969.071 400 L 975 400 L 975 400" stroke-width="3" stroke-dasharray="" stroke="black" stroke-opacity="1" fill="#fbff4c" fill-opacity="1" />
</g>
<g id="frame_1">
    <rect id="frame_1_border" x="560" y="25" width="415" height="375" />
    <text id="frame_1_bottomlabel" font-size="30" transform="translate(767.5, 475)" text-anchor="middle" dominant-baseline="middle" stroke="none" fill="black">IL-TESTTSC-ROUTE_53-N-11109</text>
    <g id="frame_1_bottomticks">
        <path d="M 560 400 L 560 380" />
        <text font-size="30" transform="translate(560, 430)" text-anchor="middle" dominant-baseline="middle" stroke="none" fill="black">0</text>
        <path d="M 565.929 400 L 565.929 390" />
        <path d="M 571.857 400 L 571.857 390" />
        <path d="M 577.786 400 L 577.786 390" />
        <path d="M 583.714 400 L 583.714 390" />
        <path d="M 589.643 400 L 589.643 390" />
        <path d="M 595.571 400 L 595.571 390" />
        <path d="M 601.5 400 L 601.5 390" />
        <path d="M 607.429 400 L 607.429 390" />
        <path d="M 613.357 400 L 613.357 390" />
        <path d="M 619.286 400 L 619.286 380" />
        <text font-size="30" transform="translate(619.286, 430)" text-anchor="middle" dominant-baseline="middle" stroke="none" fill="black">10</text>
        <path d="M 625.214 400 L 625.214 390" />
        <path d="M 631.143 400 L 631.143 390" />
        <path d="M 637.071 400 L 637.071 390" />
        <path d="M 643 400 L 643 390" />
        <path d="M 648.929 400 L 648.929 390" />
        <path d="M 654.857 400 L 654.857 390" />
        <path d="M 660.786 400 L 660.786 390" />
        <path d="M 666.714 400 L 666.714 390" />
        <path d="M 672.643 400 L 672.643 390" />
        <path d="M 678.571 400 L 678.571 380" />
        <text font-size="30" transform="translate(678.571, 430)" text-anchor="middle" dominant-baseline="middle" stroke="none" fill="black">20</text>
        <path d="M 684.5 400 L 684.5 390" />
        <path d="M 690.429 400 L 690.429 390" />
        <path d="M 696.357 400 L 696.357 390" />
        <path d="M 702.286 400 L 702.286 390" />
        <path d="M 708.214 400 L 708.214 390" />
        <path d="M 714.143 400 L 714.143 390" />
        <path d="M 720.071 400 L 720.071 390" />
        <path d="M 726 400 L 726 390" />
        <path d="M 731.929 400 L 731.929 390" />
        <path d="M 737.857 400 L 737.857 380" />
        <text font-size="30" transform="translate(737.857, 430)" text-anchor="middle" dominant-baseline="middle" stroke="none" fill="black">30</text>
        <path d="M 743.786 400 L 743.786 390" />
        <path d="M 749.714 400 L 749.714 390" />
        <path d="M 755.643 400 L 755.643 390" />
        <path d="M 761.571 400 L 761.571 390" />
        <path d="M 767.5 400 L 767.5 390" />
        <path d="M 773.429 400 L 773.429 390" />
        <path d="M 779.357 400 L 779.357 390" />
        <path d="M 785.286 400 L 785.286 390" />
        <path d="M 791.214 400 L 791.214 390" />
        <path d="M 797.143 400 L 797.143 380" />
        <text font-size="30" transform="translate(797.143, 430)" text-anchor="middle" dominant-baseline="middle" stroke="none" fill="black">40</text>
        <path d="M 803.071 400 L 803.071 390" />
        <path d="M 809 400 L 809 390" />
        <path d="M 814.929 400 L 814.929 390" />
        <path d="M 820.857 400 L 820.857 390" />
        <path d="M 826.786 400 L 826.786 390" />
        <path d="M 832.714 400 L 832.714 390" />
        <path d="M 838.643 400 L 838.643 390" />
        <path d="M 844.571 400 L 844.571 390" />
        <path d="M 850.5 400 L 850.5 390" />
        <path d="M 856.429 400 L 856.429 380" />
        <text font-size="30" transform="translate(856.429, 430)" text-anchor="middle" dominant-baseline="middle" stroke="none" fill="black">50</text>
        <path d="M 862.357 400 L 862.357 390" />
        <path d="M 868.286 400 L 868.286 390" />
        <path d="M 874.214 400 L 874.214 390" />
        <path d="M 880.143 400 L 880.143 390" />
        <path d="M 886.071 400 L 886.071 390" />
        <path d="M 892 400 L 892 390" />
        <path d="M 897.929 400 L 897.929 390" />
        <path d="M 903.857 400 L 903.857 390" />
        <path d="M 909.786 400 L 909.786 390" />
        <path d="M 915.714 400 L 915.714 380" />
        <text font-size="30" transform="translate(915.714, 430)" text-anchor="middle" dominant-baseline="middle" stroke="none" fill="black">60</text>
        <path d="M 921.643 400 L 921.643 390" />
        <path d="M 927.571 400 L 927.571 390" />
        <path d="M 933.5 400 L 933.5 390" />
        <path d="M 939.429 400 L 939.429 390" />
        <path d="M 945.357 400 L 945.357 390" />
        <path d="M 951.286 400 L 951.286 390" />
        <path d="M 957.214 400 L 957.214 390" />
        <path d="M 963.143 400 L 963.143 390" />
        <path d="M 969.071 400 L 969.071 390" />
        <path d="M 975 400 L 975 380" />
        <text font-size="30" transform="translate(975, 430)" text-anchor="middle" dominant-baseline="middle" stroke="none" fill="black">70</text>
    </g>
    <g id="frame_1_leftticks">
        <path d="M 560 400 L 580 400" />
        <text font-size="30" transform="translate(550, 410)" text-anchor="end" dominant-baseline="middle" stroke="none" fill="black">0</text>
        <path d="M 560 392.252 L 570 392.252" />
        <path d="M 560 384.504 L 570 384.504" />
        <path d="M 560 376.756 L 570 376.756" />
        <path d="M 560 369.008 L 570 369.008" />
        <path d="M 560 361.26 L 570 361.26" />
        <path d="M 560 353.512 L 570 353.512" />
        <path d="M 560 345.764 L 570 345.764" />
        <path d="M 560 338.017 L 570 338.017" />
        <path d="M 560 330.269 L 570 330.269" />
        <path d="M 560 322.521 L 580 322.521" />
        <text font-size="30" transform="translate(550, 332.521)" text-anchor="end" dominant-baseline="middle" stroke="none" fill="black">10</text>
        <path d="M 560 314.773 L 570 314.773" />
        <path d="M 560 307.025 L 570 307.025" />
        <path d="M 560 299.277 L 570 299.277" />
        <path d="M 560 291.529 L 570 291.529" />
        <path d="M 560 283.781 L 570 283.781" />
        <path d="M 560 276.033 L 570 276.033" />
        <path d="M 560 268.285 L 570 268.285" />
        <path d="M 560 260.537 L 570 260.537" />
        <path d="M 560 252.789 L 570 252.789" />
        <path d="M 560 245.041 L 580 245.041" />
        <text font-size="30" transform="translate(550, 255.041)" text-anchor="end" dominant-baseline="middle" stroke="none" fill="black">20</text>
        <path d="M 560 237.293 L 570 237.293" />
        <path d="M 560 229.545 L 570 229.545" />
        <path d="M 560 221.798 L 570 221.798" />
        <path d="M 560 214.05 L 570 214.05" />
        <path d="M 560 206.302 L 570 206.302" />
        <path d="M 560 198.554 L 570 198.554" />
        <path d="M 560 190.806 L 570 190.806" />
        <path d="M 560 183.058 L 570 183.058" />
        <path d="M 560 175.31 L 570 175.31" />
        <path d="M 560 167.562 L 580 167.562" />
        <text font-size="30" transform="translate(550, 177.562)" text-anchor="end" dominant-baseline="middle" stroke="none" fill="black">30</text>
        <path d="M 560 159.814 L 570 159.814" />
        <path d="M 560 152.066 L 570 152.066" />
        <path d="M 560 144.318 L 570 144.318" />
        <path d="M 560 136.57 L 570 136.57" />
        <path d="M 560 128.822 L 570 128.822" />
        <path d="M 560 121.074 L 570 121.074" />
        <path d="M 560 113.326 L 570 113.326" />
        <path d="M 560 105.579 L 570 105.579" />
        <path d="M 560 97.8306 L 570 97.8306" />
        <path d="M 560 90.0826 L 580 90.0826" />
        <text font-size="30" transform="translate(550, 100.083)" text-anchor="end" dominant-baseline="middle" stroke="none" fill="black">40</text>
        <path d="M 560 82.3347 L 570 82.3347" />
        <path d="M 560 74.5868 L 570 74.5868" />
        <path d="M 560 66.8388 L 570 66.8388" />
        <path d="M 560 59.0909 L 570 59.0909" />
        <path d="M 560 51.343 L 570 51.343" />
        <path d="M 560 43.595 L 570 43.595" />
        <path d="M 560 35.8471 L 570 35.8471" />
        <path d="M 560 28.0992 L 570 28.0992" />
    </g>
    <g id="frame_1_topticks">
        <path d="M 560 25 L 560 45" />
        <path d="M 565.929 25 L 565.929 35" />
        <path d="M 571.857 25 L 571.857 35" />
        <path d="M 577.786 25 L 577.786 35" />
        <path d="M 583.714 25 L 583.714 35" />
        <path d="M 589.643 25 L 589.643 35" />
        <path d="M 595.571 25 L 595.571 35" />
        <path d="M 601.5 25 L 601.5 35" />
        <path d="M 607.429 25 L 607.429 35" />
        <path d="M 613.357 25 L 613.357 35" />
        <path d="M 619.286 25 L 619.286 45" />
        <path d="M 625.214 25 L 625.214 35" />
        <path d="M 631.143 25 L 631.143 35" />
        <path d="M 637.071 25 L 637.071 35" />
        <path d="M 643 25 L 643 35" />
        <path d="M 648.929 25 L 648.929 35" />
        <path d="M 654.857 25 L 654.857 35" />
        <path d="M 660.786 25 L 660.786 35" />
        <path d="M 666.714 25 L 666.714 35" />
        <path d="M 672.643 25 L 672.643 35" />
        <path d="M 678.571 25 L 678.571 45" />
        <path d="M 684.5 25 L 684.5 35" />
        <path d="M 690.429 25 L 690.429 35" />
        <path d="M 696.357 25 L 696.357 35" />
        <path d="M 702.286 25 L 702.286 35" />
        <path d="M 708.214 25 L 708.214 35" />
        <path d="M 714.143 25 L 714.143 35" />
        <path d="M 720.071 25 L 720.071 35" />
        <path d="M 726 25 L 726 35" />
        <path d="M 731.929 25 L 731.929 35" />
        <path d="M 737.857 25 L 737.857 45" />
        <path d="M 743.786 25 L 743.786 35" />
        <path d="M 749.714 25 L 749.714 35" />
        <path d="M 755.643 25 L 755.643 35" />
        <path d="M 761.571 25 L 761.571 35" />
        <path d="M 767.5 25 L 767.5 35" />
        <path d="M 773.429 25 L 773.429 35" />
        <path d="M 779.357 25 L 779.357 35" />
        <path d="M 785.286 25 L 785.286 35" />
        <path d="M 791.214 25 L 791.214 35" />
        <path d="M 797.143 25 L 797.143 45" />
        <path d="M 803.071 25 L 803.071 35" />
        <path d="M 809 25 L 809 35" />
        <path d="M 814.929 25 L 814.929 35" />
        <path d="M 820.857 25 L 820.857 35" />
        <path d="M 826.786 25 L 826.786 35" />
        <path d="M 832.714 25 L 832.714 35" />
        <path d="M 838.643 25 L 838.643 35" />
        <path d="M 844.571 25 L 844.571 35" />
        <path d="M 850.5 25 L 850.5 35" />
        <path d="M 856.429 25 L 856.429 45" />
        <path d="M 862.357 25 L 862.357 35" />
        <path d="M 868.286 25 L 868.286 35" />
        <path d="M 874.214 25 L 874.214 35" />
        <path d="M 880.143 25 L 880.143 35" />
        <path d="M 886.071 25 L 886.071 35" />
        <path d="M 892 25 L 892 35" />
        <path d="M 897.929 25 L 897.929 35" />
        <path d="M 903.857 25 L 903.857 35" />
        <path d="M 909.786 25 L 909.786 35" />
        <path d="M 915.714 25 L 915.714 45" />
        <path d="M 921.643 25 L 921.643 35" />
        <path d="M 927.571 25 L 927.571 35" />
        <path d="M 933.5 25 L 933.5 35" />
        <path d="M 939.429 25 L 939.429 35" />
        <path d="M 945.357 25 L 945.357 35" />
        <path d="M 951.286 25 L 951.286 35" />
        <path d="M 957.214 25 L 957.214 35" />
        <path d="M 963.143 25 L 963.143 35" />
        <path d="M 969.071 25 L 969.071 35" />
        <path d="M 975 25 L 975 45" />
    </g>
    <g id="frame_1_rightticks">
        <path d="M 975 400 L 955 400" />
        <path d="M 975 392.252 L 965 392.252" />
        <path d="M 975 384.504 L 965 384.504" />
        <path d="M 975 376.756 L 965 376.756" />
        <path d="M 975 369.008 L 965 369.008" />
        <path d="M 975 361.26 L 965 361.26" />
        <path d="M 975 353.512 L 965 353.512" />
        <path d="M 975 345.764 L 965 345.764" />
        <path d="M 975 338.017 L 965 338.017" />
        <path d="M 975 330.269 L 965 330.269" />
        <path d="M 975 322.521 L 955 322.521" />
        <path d="M 975 314.773 L 965 314.773" />
        <path d="M 975 307.025 L 965 307.025" />
        <path d="M 975 299.277 L 965 299.277" />
        <path d="M 975 291.529 L 965 291.529" />
        <path d="M 975 283.781 L 965 283.781" />
        <path d="M 975 276.033 L 965 276.033" />
        <path d="M 975 268.285 L 965 268.285" />
        <path d="M 975 260.537 L 965 260.537" />
        <path d="M 975 252.789 L 965 252.789" />
        <path d="M 975 245.041 L 955 245.041" />
        <path d="M 975 237.293 L 965 237.293" />
        <path d="M 975 229.545 L 965 229.545" />
        <path d="M 975 221.798 L 965 221.798" />
        <path d="M 975 214.05 L 965 214.05" />
        <path d="M 975 206.302 L 965 206.302" />
        <path d="M 975 198.554 L 965 198.554" />
        <path d="M 975 190.806 L 965 190.806" />
        <path d="M 975 183.058 L 965 183.058" />
        <path d="M 975 175.31 L 965 175.31" />
        <path d="M 975 167.562 L 955 167.562" />
        <path d="M 975 159.814 L 965 159.814" />
        <path d="M 975 152.066 L 965 152.066" />
        <path d="M 975 144.318 L 965 144.318" />
        <path d="M 975 136.57 L 965 136.57" />
        <path d="M 975 128.822 L 965 128.822" />
        <path d="M 975 121.074 L 965 121.074" />
        <path d="M 975 113.326 L 965 113.326" />
        <path d="M 975 105.579 L 965 105.579" />
        <path d="M 975 97.8306 L 965 97.8306" />
        <path d="M 975 90.0826 L 955 90.0826" />
        <path d="M 975 82.3347 L 965 82.3347" />
        <path d="M 975 74.5868 L 965 74.5868" />
        <path d="M 975 66.8388 L 965 66.8388" />
        <path d="M 975 59.0909 L 965 59.0909" />
        <path d="M 975 51.343 L 965 51.343" />
        <path d="M 975 43.595 L 965 43.595" />
        <path d="M 975 35.8471 L 965 35.8471" />
        <path d="M 975 28.0992 L 965 28.0992" />
    </g>
</g>
<g id="Histogram_2" clip-path="url(#Histogram_2_clip)">
    <path d="M 60 900 L 60 900 L 65.9286 900 L 65.9286 900 L 71.8571 900 L 71.8571 900 L 77.7857 900 L 77.7857 900 L 83.7143 900 L 83.7143 900 L 89.6429 900 L 89.6429 900 L 95.5714 900 L 95.5714 900 L 101.5 900 L 101.5 900 L 107.429 900 L 107.429 900 L 113.357 900 L 113.357 900 L 119.286 900 L 119.286 900 L 125.214 900 L 125.214 900 L 131.143 900 L 131.143 900 L 137.071 900 L 137.071 900 L 143 900 L 143 900 L 148.929 900 L 148.929 900 L 154.857 900 L 154.857 900 L 160.786 900 L 160.786 900 L 166.714 900 L 166.714 900 L 172.643 900 L 172.643 900 L 178.571 900 L 178.571 900 L 184.5 900 L 184.5 900 L 190.429 900 L 190.429 900 L 196.357 900 L 196.357 900 L 202.286 900 L 202.286 900 L 208.214 900 L 208.214 900 L 214.143 900 L 214.143 900 L 220.071 900 L 220.071 900 L 226 900 L 226 900 L 231.929 900 L 231.929 900 L 237.857 900 L 237.857 889.669 L 243.786 889.669 L 243.786 900 L 249.714 900 L 249.714 889.669 L 255.643 889.669 L 255.643 889.669 L 261.571 889.669 L 261.571 879.339 L 267.5 879.339 L 267.5 796.694 L 273.429 796.694 L 273.429 796.694 L 279.357 796.694 L 279.357 807.025 L 285.286 807.025 L 285.286 672.727 L 291.214 672.727 L 291.214 662.397 L 297.143 662.397 L 297.143 693.388 L 303.071 693.388 L 303.071 559.091 L 309 559.091 L 309 579.752 L 314.929 579.752 L 314.929 683.058 L 320.857 683.058 L 320.857 734.711 L 326.786 734.711 L 326.786 807.025 L 332.714 807.025 L 332.714 776.033 L 338.643 776.033 L 338.643 858.678 L 344.571 858.678 L 344.571 838.017 L 350.5 838.017 L 350.5 900 L 356.429 900 L 356.429 900 L 362.357 900 L 362.357 900 L 368.286 900 L 368.286 900 L 374.214 900 L 374.214 900 L 380.143 900 L 380.143 900 L 386.071 900 L 386.071 900 L 392 900 L 392 900 L 397.929 900 L 397.929 900 L 403.857 900 L 403.857 900 L 409.786 900 L 409.786 900 L 415.714 900 L 415.714 900 L 421.643 900 L 421.643 900 L 427.571 900 L 427.571 900 L 433.5 900 L 433.5 889.669 L 439.429 889.669 L 439.429 900 L 445.357 900 L 445.357 900 L 451.286 900 L 451.286 900 L 457.214 900 L 457.214 900 L 463.143 900 L 463.143 900 L 469.071 900 L 469.071 900 L 475 900 L 475 900" stroke-width="3" stroke-dasharray="" stroke="black" stroke-opacity="1" fill="#95a7ff" fill-opacity="1" />
</g>
<g id="frame_2">
    <rect id="frame_2_border" x="60" y="525" width="415" height="375" />
    <text id="frame_2_bottomlabel" font-size="30" transform="translate(267.5, 975)" text-anchor="middle" dominant-baseline="middle" stroke="none" fill="black">IL-TESTTSC-I_57-N-9017</text>
    <g id="frame_2_bottomticks">
        <path d="M 60 900 L 60 880" />
        <text font-size="30" transform="translate(60, 930)" text-anchor="middle" dominant-baseline="middle" stroke="none" fill="black">0</text>
        <path d="M 65.9286 900 L 65.9286 890" />
        <path d="M 71.8571 900 L 71.8571 890" />
        <path d="M 77.7857 900 L 77.7857 890" />
        <path d="M 83.7143 900 L 83.7143 890" />
        <path d="M 89.6429 900 L 89.6429 890" />
        <path d="M 95.5714 900 L 95.5714 890" />
        <path d="M 101.5 900 L 101.5 890" />
        <path d="M 107.429 900 L 107.429 890" />
        <path d="M 113.357 900 L 113.357 890" />
        <path d="M 119.286 900 L 119.286 880" />
        <text font-size="30" transform="translate(119.286, 930)" text-anchor="middle" dominant-baseline="middle" stroke="none" fill="black">10</text>
        <path d="M 125.214 900 L 125.214 890" />
        <path d="M 131.143 900 L 131.143 890" />
        <path d="M 137.071 900 L 137.071 890" />
        <path d="M 143 900 L 143 890" />
        <path d="M 148.929 900 L 148.929 890" />
        <path d="M 154.857 900 L 154.857 890" />
        <path d="M 160.786 900 L 160.786 890" />
        <path d="M 166.714 900 L 166.714 890" />
        <path d="M 172.643 900 L 172.643 890" />
        <path d="M 178.571 900 L 178.571 880" />
        <text font-size="30" transform="translate(178.571, 930)" text-anchor="middle" dominant-baseline="middle" stroke="none" fill="black">20</text>
        <path d="M 184.5 900 L 184.5 890" />
        <path d="M 190.429 900 L 190.429 890" />
        <path d="M 196.357 900 L 196.357 890" />
        <path d="M 202.286 900 L 202.286 890" />
        <path d="M 208.214 900 L 208.214 890" />
        <path d="M 214.143 900 L 214.143 890" />
        <path d="M 220.071 900 L 220.071 890" />
        <path d="M 226 900 L 226 890" />
        <path d="M 231.929 900 L 231.929 890" />
        <path d="M 237.857 900 L 237.857 880" />
        <text font-size="30" transform="translate(237.857, 930)" text-anchor="middle" dominant-baseline="middle" stroke="none" fill="black">30</text>
        <path d="M 243.786 900 L 243.786 890" />
        <path d="M 249.714 900 L 249.714 890" />
        <path d="M 255.643 900 L 255.643 890" />
        <path d="M 261.571 900 L 261.571 890" />
        <path d="M 267.5 900 L 267.5 890" />
        <path d="M 273.429 900 L 273.429 890" />
        <path d="M 279.357 900 L 279.357 890" />
        <path d="M 285.286 900 L 285.286 890" />
        <path d="M 291.214 900 L 291.214 890" />
        <path d="M 297.143 900 L 297.143 880" />
        <text font-size="30" transform="translate(297.143, 930)" text-anchor="middle" dominant-baseline="middle" stroke="none" fill="black">40</text>
        <path d="M 303.071 900 L 303.071 890" />
        <path d="M 309 900 L 309 890" />
        <path d="M 314.929 900 L 314.929 890" />
        <path d="M 320.857 900 L 320.857 890" />
        <path d="M 326.786 900 L 326.786 890" />
        <path d="M 332.714 900 L 332.714 890" />
        <path d="M 338.643 900 L 338.643 890" />
        <path d="M 344.571 900 L 344.571 890" />
        <path d="M 350.5 900 L 350.5 890" />
        <path d="M 356.429 900 L 356.429 880" />
        <text font-size="30" transform="translate(356.429, 930)" text-anchor="middle" dominant-baseline="middle" stroke="none" fill="black">50</text>
        <path d="M 362.357 900 L 362.357 890" />
        <path d="M 368.286 900 L 368.286 890" />
        <path d="M 374.214 900 L 374.214 890" />
        <path d="M 380.143 900 L 380.143 890" />
        <path d="M 386.071 900 L 386.071 890" />
        <path d="M 392 900 L 392 890" />
        <path d="M 397.929 900 L 397.929 890" />
        <path d="M 403.857 900 L 403.857 890" />
        <path d="M 409.786 900 L 409.786 890" />
        <path d="M 415.714 900 L 415.714 880" />
        <text font-size="30" transform="translate(415.714, 930)" text-anchor="middle" dominant-baseline="middle" stroke="none" fill="black">60</text>
        <path d="M 421.643 900 L 421.643 890" />
        <path d="M 427.571 900 L 427.571 890" />
        <path d="M 433.5 900 L 433.5 890" />
        <path d="M 439.429 900 L 439.429 890" />
        <path d="M 445.357 900 L 445.357 890" />
        <path d="M 451.286 900 L 451.286 890" />
        <path d="M 457.214 900 L 457.214 890" />
        <path d="M 463.143 900 L 463.143 890" />
        <path d="M 469.071 900 L 469.071 890" />
        <path d="M 475 900 L 475 880" />
        <text font-size="30" transform="translate(475, 930)" text-anchor="middle" dominant-baseline="middle" stroke="none" fill="black">70</text>
    </g>
    <g id="frame_2_leftticks">
        <path d="M 60 900 L 80 900" />
        <text font-size="30" transform="translate(50, 910)" text-anchor="end" dominant-baseline="middle" stroke="none" fill="black">0</text>
        <path d="M 60 889.669 L 70 889.669" />
        <path d="M 60 879.339 L 70 879.339" />
        <path d="M 60 869.008 L 70 869.008" />
        <path d="M 60 858.678 L 70 858.678" />
        <path d="M 60 848.347 L 80 848.347" />
        <text font-size="30" transform="translate(50, 858.347)" text-anchor="end" dominant-baseline="middle" stroke="none" fill="black">5</text>
        <path d="M 60 838.017 L 70 838.017" />
        <path d="M 60 827.686 L 70 827.686" />
        <path d="M 60 817.355 L 70 817.355" />
        <path d="M 60 807.025 L 70 807.025" />
        <path d="M 60 796.694 L 80 796.694" />
        <text font-size="30" transform="translate(50, 806.694)" text-anchor="end" dominant-baseline="middle" stroke="none" fill="black">10</text>
        <path d="M 60 786.364 L 70 786.364" />
        <path d="M 60 776.033 L 70 776.033" />
        <path d="M 60 765.702 L 70 765.702" />
        <path d="M 60 755.372 L 70 755.372" />
        <path d="M 60 745.041 L 80 745.041" />
        <text font-size="30" transform="translate(50, 755.041)" text-anchor="end" dominant-baseline="middle" stroke="none" fill="black">15</text>
        <path d="M 60 734.711 L 70 734.711" />
        <path d="M 60 724.38 L 70 724.38" />
        <path d="M 60 714.05 L 70 714.05" />
        <path d="M 60 703.719 L 70 703.719" />
        <path d="M 60 693.388 L 80 693.388" />
        <text font-size="30" transform="translate(50, 703.388)" text-anchor="end" dominant-baseline="middle" stroke="none" fill="black">20</text>
        <path d="M 60 683.058 L 70 683.058" />
        <path d="M 60 672.727 L 70 672.727" />
        <path d="M 60 662.397 L 70 662.397" />
        <path d="M 60 652.066 L 70 652.066" />
        <path d="M 60 641.736 L 80 641.736" />
        <text font-size="30" transform="translate(50, 651.736)" text-anchor="end" dominant-baseline="middle" stroke="none" fill="black">25</text>
        <path d="M 60 631.405 L 70 631.405" />
        <path d="M 60 621.074 L 70 621.074" />
        <path d="M 60 610.744 L 70 610.744" />
        <path d="M 60 600.413 L 70 600.413" />
        <path d="M 60 590.083 L 80 590.083" />
        <text font-size="30" transform="translate(50, 600.083)" text-anchor="end" dominant-baseline="middle" stroke="none" fill="black">30</text>
        <path d="M 60 579.752 L 70 579.752" />
        <path d="M 60 569.421 L 70 569.421" />
        <path d="M 60 559.091 L 70 559.091" />
        <path d="M 60 548.76 L 70 548.76" />
        <path d="M 60 538.43 L 80 538.43" />
        <text font-size="30" transform="translate(50, 548.43)" text-anchor="end" dominant-baseline="middle" stroke="none" fill="black">35</text>
        <path d="M 60 528.099 L 70 528.099" />
    </g>
    <g id="frame_2_topticks">
        <path d="M 60 525 L 60 545" />
        <path d="M 65.9286 525 L 65.9286 535" />
        <path d="M 71.8571 525 L 71.8571 535" />
        <path d="M 77.7857 525 L 77.7857 535" />
        <path d="M 83.7143 525 L 83.7143 535" />
        <path d="M 89.6429 525 L 89.6429 535" />
        <path d="M 95.5714 525 L 95.5714 535" />
        <path d="M 101.5 525 L 101.5 535" />
        <path d="M 107.429 525 L 107.429 535" />
        <path d="M 113.357 525 L 113.357 535" />
        <path d="M 119.286 525 L 119.286 545" />
        <path d="M 125.214 525 L 125.214 535" />
        <path d="M 131.143 525 L 131.143 535" />
        <path d="M 137.071 525 L 137.071 535" />
        <path d="M 143 525 L 143 535" />
        <path d="M 148.929 525 L 148.929 535" />
        <path d="M 154.857 525 L 154.857 535" />
        <path d="M 160.786 525 L 160.786 535" />
        <path d="M 166.714 525 L 166.714 535" />
        <path d="M 172.643 525 L 172.643 535" />
        <path d="M 178.571 525 L 178.571 545" />
        <path d="M 184.5 525 L 184.5 535" />
        <path d="M 190.429 525 L 190.429 535" />
        <path d="M 196.357 525 L 196.357 535" />
        <path d="M 202.286 525 L 202.286 535" />
        <path d="M 208.214 525 L 208.214 535" />
        <path d="M 214.143 525 L 214.143 535" />
        <path d="M 220.071 525 L 220.071 535" />
        <path d="M 226 525 L 226 535" />
        <path d="M 231.929 525 L 231.929 535" />
        <path d="M 237.857 525 L 237.857 545" />
        <path d="M 243.786 525 L 243.786 535" />
        <path d="M 249.714 525 L 249.714 535" />
        <path d="M 255.643 525 L 255.643 535" />
        <path d="M 261.571 525 L 261.571 535" />
        <path d="M 267.5 525 L 267.5 535" />
        <path d="M 273.429 525 L 273.429 535" />
        <path d="M 279.357 525 L 279.357 535" />
        <path d="M 285.286 525 L 285.286 535" />
        <path d="M 291.214 525 L 291.214 535" />
        <path d="M 297.143 525 L 297.143 545" />
        <path d="M 303.071 525 L 303.071 535" />
        <path d="M 309 525 L 309 535" />
        <path d="M 314.929 525 L 314.929 535" />
        <path d="M 320.857 525 L 320.857 535" />
        <path d="M 326.786 525 L 326.786 535" />
        <path d="M 332.714 525 L 332.714 535" />
        <path d="M 338.643 525 L 338.643 535" />
        <path d="M 344.571 525 L 344.571 535" />
        <path d="M 350.5 525 L 350.5 535" />
        <path d="M 356.429 525 L 356.429 545" />
        <path d="M 362.357 525 L 362.357 535" />
        <path d="M 368.286 525 L 368.286 535" />
        <path d="M 374.214 525 L 374.214 535" />
        <path d="M 380.143 525 L 380.143 535" />
        <path d="M 386.071 525 L 386.071 535" />
        <path d="M 392 525 L 392 535" />
        <path d="M 397.929 525 L 397.929 535" />
        <path d="M 403.857 525 L 403.857 535" />
        <path d="M 409.786 525 L 409.786 535" />
        <path d="M 415.714 525 L 415.714 545" />
        <path d="M 421.643 525 L 421.643 535" />
        <path d="M 427.571 525 L 427.571 535" />
        <path d="M 433.5 525 L 433.5 535" />
        <path d="M 439.429 525 L 439.429 535" />
        <path d="M 445.357 525 L 445.357 535" />
        <path d="M 451.286 525 L 451.286 535" />
        <path d="M 457.214 525 L 457.214 535" />
        <path d="M 463.143 525 L 463.143 535" />
        <path d="M 469.071 525 L 469.071 535" />
        <path d="M 475 525 L 475 545" />
    </g>
    <g id="frame_2_rightticks">
        <path d="M 475 900 L 455 900" />
        <path d="M 475 889.669 L 465 889.669" />
        <path d="M 475 879.339 L 465 879.339" />
        <path d="M 475 869.008 L 465 869.008" />
        <path d="M 475 858.678 L 465 858.678" />
        <path d="M 475 848.347 L 455 848.347" />
        <path d="M 475 838.017 L 465 838.017" />
        <path d="M 475 827.686 L 465 827.686" />
        <path d="M 475 817.355 L 465 817.355" />
        <path d="M 475 807.025 L 465 807.025" />
        <path d="M 475 796.694 L 455 796.694" />
        <path d="M 475 786.364 L 465 786.364" />
        <path d="M 475 776.033 L 465 776.033" />
        <path d="M 475 765.702 L 465 765.702" />
        <path d="M 475 755.372 L 465 755.372" />
        <path d="M 475 745.041 L 455 745.041" />
        <path d="M 475 734.711 L 465 734.711" />
        <path d="M 475 724.38 L 465 724.38" />
        <path d="M 475 714.05 L 465 714.05" />
        <path d="M 475 703.719 L 465 703.719" />
        <path d="M 475 693.388 L 455 693.388" />
        <path d="M 475 683.058 L 465 683.058" />
        <path d="M 475 672.727 L 465 672.727" />
        <path d="M 475 662.397 L 465 662.397" />
        <path d="M 475 652.066 L 465 652.066" />
        <path d="M 475 641.736 L 455 641.736" />
        <path d="M 475 631.405 L 465 631.405" />
        <path d="M 475 621.074 L 465 621.074" />
        <path d="M 475 610.744 L 465 610.744" />
        <path d="M 475 600.413 L 465 600.413" />
        <path d="M 475 590.083 L 455 590.083" />
        <path d="M 475 579.752 L 465 579.752" />
        <path d="M 475 569.421 L 465 569.421" />
        <path d="M 475 559.091 L 465 559.091" />
        <path d="M 475 548.76 L 465 548.76" />
        <path d="M 475 538.43 L 455 538.43" />
        <path d="M 475 528.099 L 465 528.099" />
    </g>
</g>
<g id="Histogram_3" clip-path="url(#Histogram_3_clip)">
    <path d="M 560 900 L 560 900 L 565.929 900 L 565.929 900 L 571.857 900 L 571.857 900 L 577.786 900 L 577.786 900 L 583.714 900 L 583.714 900 L 589.643 900 L 589.643 900 L 595.571 900 L 595.571 900 L 601.5 900 L 601.5 900 L 607.429 900 L 607.429 900 L 613.357 900 L 613.357 900 L 619.286 900 L 619.286 900 L 625.214 900 L 625.214 900 L 631.143 900 L 631.143 900 L 637.071 900 L 637.071 900 L 643 900 L 643 900 L 648.929 900 L 648.929 900 L 654.857 900 L 654.857 900 L 660.786 900 L 660.786 900 L 666.714 900 L 666.714 900 L 672.643 900 L 672.643 900 L 678.571 900 L 678.571 900 L 684.5 900 L 684.5 900 L 690.429 900 L 690.429 900 L 696.357 900 L 696.357 900 L 702.286 900 L 702.286 900 L 708.214 900 L 708.214 900 L 714.143 900 L 714.143 900 L 720.071 900 L 720.071 900 L 726 900 L 726 900 L 731.929 900 L 731.929 900 L 737.857 900 L 737.857 900 L 743.786 900 L 743.786 900 L 749.714 900 L 749.714 900 L 755.643 900 L 755.643 900 L 761.571 900 L 761.571 900 L 767.5 900 L 767.5 900 L 773.429 900 L 773.429 900 L 779.357 900 L 779.357 900 L 785.286 900 L 785.286 900 L 791.214 900 L 791.214 900 L 797.143 900 L 797.143 900 L 803.071 900 L 803.071 900 L 809 900 L 809 900 L 814.929 900 L 814.929 900 L 820.857 900 L 820.857 900 L 826.786 900 L 826.786 900 L 832.714 900 L 832.714 900 L 838.643 900 L 838.643 900 L 844.571 900 L 844.571 900 L 850.5 900 L 850.5 900 L 856.429 900 L 856.429 900 L 862.357 900 L 862.357 900 L 868.286 900 L 868.286 900 L 874.214 900 L 874.214 900 L 880.143 900 L 880.143 900 L 886.071 900 L 886.071 900 L 892 900 L 892 900 L 897.929 900 L 897.929 900 L 903.857 900 L 903.857 900 L 909.786 900 L 909.786 876.888 L 915.714 876.888 L 915.714 559.091 L 921.643 559.091 L 921.643 828.737 L 927.571 828.737 L 927.571 894.222 L 933.5 894.222 L 933.5 898.074 L 939.429 898.074 L 939.429 898.074 L 945.357 898.074 L 945.357 900 L 951.286 900 L 951.286 898.074 L 957.214 898.074 L 957.214 900 L 963.143 900 L 963.143 898.074 L 969.071 898.074 L 969.071 900 L 975 900 L 975 900" stroke-width="3" stroke-dasharray="" stroke="black" stroke-opacity="1" fill="#ffe14d" fill-opacity="1" />
</g>
<g id="frame_3">
    <rect id="frame_3_border" x="560" y="525" width="415" height="375" />
    <text id="frame_3_bottomlabel" font-size="30" transform="translate(767.5, 975)" text-anchor="middle" dominant-baseline="middle" stroke="none" fill="black">IL-TESTTSC-EDENS-S-1037</text>
    <g id="frame_3_bottomticks">
        <path d="M 560 900 L 560 880" />
        <text font-size="30" transform="translate(560, 930)" text-anchor="middle" dominant-baseline="middle" stroke="none" fill="black">0</text>
        <path d="M 565.929 900 L 565.929 890" />
        <path d="M 571.857 900 L 571.857 890" />
        <path d="M 577.786 900 L 577.786 890" />
        <path d="M 583.714 900 L 583.714 890" />
        <path d="M 589.643 900 L 589.643 890" />
        <path d="M 595.571 900 L 595.571 890" />
        <path d="M 601.5 900 L 601.5 890" />
        <path d="M 607.429 900 L 607.429 890" />
        <path d="M 613.357 900 L 613.357 890" />
        <path d="M 619.286 900 L 619.286 880" />
        <text font-size="30" transform="translate(619.286, 930)" text-anchor="middle" dominant-baseline="middle" stroke="none" fill="black">10</text>
        <path d="M 625.214 900 L 625.214 890" />
        <path d="M 631.143 900 L 631.143 890" />
        <path d="M 637.071 900 L 637.071 890" />
        <path d="M 643 900 L 643 890" />
        <path d="M 648.929 900 L 648.929 890" />
        <path d="M 654.857 900 L 654.857 890" />
        <path d="M 660.786 900 L 660.786 890" />
        <path d="M 666.714 900 L 666.714 890" />
        <path d="M 672.643 900 L 672.643 890" />
        <path d="M 678.571 900 L 678.571 880" />
        <text font-size="30" transform="translate(678.571, 930)" text-anchor="middle" dominant-baseline="middle" stroke="none" fill="black">20</text>
        <path d="M 684.5 900 L 684.5 890" />
        <path d="M 690.429 900 L 690.429 890" />
        <path d="M 696.357 900 L 696.357 890" />
        <path d="M 702.286 900 L 702.286 890" />
        <path d="M 708.214 900 L 708.214 890" />
        <path d="M 714.143 900 L 714.143 890" />
        <path d="M 720.071 900 L 720.071 890" />
        <path d="M 726 900 L 726 890" />
        <path d="M 731.929 900 L 731.929 890" />
        <path d="M 737.857 900 L 737.857 880" />
        <text font-size="30" transform="translate(737.857, 930)" text-anchor="middle" dominant-baseline="middle" stroke="none" fill="black">30</text>
        <path d="M 743.786 900 L 743.786 890" />
        <path d="M 749.714 900 L 749.714 890" />
        <path d="M 755.643 900 L 755.643 890" />
        <path d="M 761.571 900 L 761.571 890" />
        <path d="M 767.5 900 L 767.5 890" />
        <path d="M 773.429 900 L 773.429 890" />
        <path d="M 779.357 900 L 779.357 890" />
        <path d="M 785.286 900 L 785.286 890" />
        <path d="M 791.214 900 L 791.214 890" />
        <path d="M 797.143 900 L 797.143 880" />
        <text font-size="30" transform="translate(797.143, 930)" text-anchor="middle" dominant-baseline="middle" stroke="none" fill="black">40</text>
        <path d="M 803.071 900 L 803.071 890" />
        <path d="M 809 900 L 809 890" />
        <path d="M 814.929 900 L 814.929 890" />
        <path d="M 820.857 900 L 820.857 890" />
        <path d="M 826.786 900 L 826.786 890" />
        <path d="M 832.714 900 L 832.714 890" />
        <path d="M 838.643 900 L 838.643 890" />
        <path d="M 844.571 900 L 844.571 890" />
        <path d="M 850.5 900 L 850.5 890" />
        <path d="M 856.429 900 L 856.429 880" />
        <text font-size="30" transform="translate(856.429, 930)" text-anchor="middle" dominant-baseline="middle" stroke="none" fill="black">50</text>
        <path d="M 862.357 900 L 862.357 890" />
        <path d="M 868.286 900 L 868.286 890" />
        <path d="M 874.214 900 L 874.214 890" />
        <path d="M 880.143 900 L 880.143 890" />
        <path d="M 886.071 900 L 886.071 890" />
        <path d="M 892 900 L 892 890" />
        <path d="M 897.929 900 L 897.929 890" />
        <path d="M 903.857 900 L 903.857 890" />
        <path d="M 909.786 900 L 909.786 890" />
        <path d="M 915.714 900 L 915.714 880" />
        <text font-size="30" transform="translate(915.714, 930)" text-anchor="middle" dominant-baseline="middle" stroke="none" fill="black">60</text>
        <path d="M 921.643 900 L 921.643 890" />
        <path d="M 927.571 900 L 927.571 890" />
        <path d="M 933.5 900 L 933.5 890" />
        <path d="M 939.429 900 L 939.429 890" />
        <path d="M 945.357 900 L 945.357 890" />
        <path d="M 951.286 900 L 951.286 890" />
        <path d="M 957.214 900 L 957.214 890" />
        <path d="M 963.143 900 L 963.143 890" />
        <path d="M 969.071 900 L 969.071 890" />
        <path d="M 975 900 L 975 880" />
        <text font-size="30" transform="translate(975, 930)" text-anchor="middle" dominant-baseline="middle" stroke="none" fill="black">70</text>
    </g>
    <g id="frame_3_leftticks">
        <path d="M 560 591.834 L 570 591.834" />
        <path d="M 560 900 L 580 900" />
        <text font-size="30" transform="translate(550, 910)" text-anchor="end" dominant-baseline="middle" stroke="none" fill="black">0</text>
        <path d="M 560 649.615 L 570 649.615" />
        <path d="M 560 707.396 L 580 707.396" />
        <text font-size="30" transform="translate(550, 717.396)" text-anchor="end" dominant-baseline="middle" stroke="none" fill="black">100</text>
        <path d="M 560 765.177 L 570 765.177" />
        <path d="M 560 822.958 L 570 822.958" />
        <path d="M 560 880.74 L 570 880.74" />
        <path d="M 560 630.354 L 570 630.354" />
        <path d="M 560 688.136 L 570 688.136" />
        <path d="M 560 745.917 L 570 745.917" />
        <path d="M 560 803.698 L 580 803.698" />
        <text font-size="30" transform="translate(550, 813.698)" text-anchor="end" dominant-baseline="middle" stroke="none" fill="black">50</text>
        <path d="M 560 861.479 L 570 861.479" />
        <path d="M 560 534.052 L 570 534.052" />
        <path d="M 560 611.094 L 580 611.094" />
        <text font-size="30" transform="translate(550, 621.094)" text-anchor="end" dominant-baseline="middle" stroke="none" fill="black">150</text>
        <path d="M 560 668.875 L 570 668.875" />
        <path d="M 560 553.313 L 570 553.313" />
        <path d="M 560 726.656 L 570 726.656" />
        <path d="M 560 784.438 L 570 784.438" />
        <path d="M 560 572.573 L 570 572.573" />
        <path d="M 560 842.219 L 570 842.219" />
    </g>
    <g id="frame_3_topticks">
        <path d="M 560 525 L 560 545" />
        <path d="M 565.929 525 L 565.929 535" />
        <path d="M 571.857 525 L 571.857 535" />
        <path d="M 577.786 525 L 577.786 535" />
        <path d="M 583.714 525 L 583.714 535" />
        <path d="M 589.643 525 L 589.643 535" />
        <path d="M 595.571 525 L 595.571 535" />
        <path d="M 601.5 525 L 601.5 535" />
        <path d="M 607.429 525 L 607.429 535" />
        <path d="M 613.357 525 L 613.357 535" />
        <path d="M 619.286 525 L 619.286 545" />
        <path d="M 625.214 525 L 625.214 535" />
        <path d="M 631.143 525 L 631.143 535" />
        <path d="M 637.071 525 L 637.071 535" />
        <path d="M 643 525 L 643 535" />
        <path d="M 648.929 525 L 648.929 535" />
        <path d="M 654.857 525 L 654.857 535" />
        <path d="M 660.786 525 L 660.786 535" />
        <path d="M 666.714 525 L 666.714 535" />
        <path d="M 672.643 525 L 672.643 535" />
        <path d="M 678.571 525 L 678.571 545" />
        <path d="M 684.5 525 L 684.5 535" />
        <path d="M 690.429 525 L 690.429 535" />
        <path d="M 696.357 525 L 696.357 535" />
        <path d="M 702.286 525 L 702.286 535" />
        <path d="M 708.214 525 L 708.214 535" />
        <path d="M 714.143 525 L 714.143 535" />
        <path d="M 720.071 525 L 720.071 535" />
        <path d="M 726 525 L 726 535" />
        <path d="M 731.929 525 L 731.929 535" />
        <path d="M 737.857 525 L 737.857 545" />
        <path d="M 743.786 525 L 743.786 535" />
        <path d="M 749.714 525 L 749.714 535" />
        <path d="M 755.643 525 L 755.643 535" />
        <path d="M 761.571 525 L 761.571 535" />
        <path d="M 767.5 525 L 767.5 535" />
        <path d="M 773.429 525 L 773.429 535" />
        <path d="M 779.357 525 L 779.357 535" />
        <path d="M 785.286 525 L 785.286 535" />
        <path d="M 791.214 525 L 791.214 535" />
        <path d="M 797.143 525 L 797.143 545" />
        <path d="M 803.071 525 L 803.071 535" />
        <path d="M 809 525 L 809 535" />
        <path d="M 814.929 525 L 814.929 535" />
        <path d="M 820.857 525 L 820.857 535" />
        <path d="M 826.786 525 L 826.786 535" />
        <path d="M 832.714 525 L 832.714 535" />
        <path d="M 838.643 525 L 838.643 535" />
        <path d="M 844.571 525 L 844.571 535" />
        <path d="M 850.5 525 L 850.5 535" />
        <path d="M 856.429 525 L 856.429 545" />
        <path d="M 862.357 525 L 862.357 535" />
        <path d="M 868.286 525 L 868.286 535" />
        <path d="M 874.214 525 L 874.214 535" />
        <path d="M 880.143 525 L 880.143 535" />
        <path d="M 886.071 525 L 886.071 535" />
        <path d="M 892 525 L 892 535" />
        <path d="M 897.929 525 L 897.929 535" />
        <path d="M 903.857 525 L 903.857 535" />
        <path d="M 909.786 525 L 909.786 535" />
        <path d="M 915.714 525 L 915.714 545" />
        <path d="M 921.643 525 L 921.643 535" />
        <path d="M 927.571 525 L 927.571 535" />
        <path d="M 933.5 525 L 933.5 535" />
        <path d="M 939.429 525 L 939.429 535" />
        <path d="M 945.357 525 L 945.357 535" />
        <path d="M 951.286 525 L 951.286 535" />
        <path d="M 957.214 525 L 957.214 535" />
        <path d="M 963.143 525 L 963.143 535" />
        <path d="M 969.071 525 L 969.071 535" />
        <path d="M 975 525 L 975 545" />
    </g>
    <g id="frame_3_rightticks">
        <path d="M 975 591.834 L 965 591.834" />
        <path d="M 975 900 L 955 900" />
        <path d="M 975 649.615 L 965 649.615" />
        <path d="M 975 707.396 L 955 707.396" />
        <path d="M 975 765.177 L 965 765.177" />
        <path d="M 975 822.958 L 965 822.958" />
        <path d="M 975 880.74 L 965 880.74" />
        <path d="M 975 630.354 L 965 630.354" />
        <path d="M 975 688.136 L 965 688.136" />
        <path d="M 975 745.917 L 965 745.917" />
        <path d="M 975 803.698 L 955 803.698" />
        <path d="M 975 861.479 L 965 861.479" />
        <path d="M 975 534.052 L 965 534.052" />
        <path d="M 975 611.094 L 955 611.094" />
        <path d="M 975 668.875 L 965 668.875" />
        <path d="M 975 553.313 L 965 553.313" />
        <path d="M 975 726.656 L 965 726.656" />
        <path d="M 975 784.438 L 965 784.438" />
        <path d="M 975 572.573 L 965 572.573" />
        <path d="M 975 842.219 L 965 842.219" />
    </g>
</g>
</g>
</svg>
