<?xml version="1.0" standalone="no"?>
<!DOCTYPE svg PUBLIC "-//W3C//DTD SVG 1.1//EN" "http://www.w3.org/Graphics/SVG/1.1/DTD/svg11.dtd">
<svg style="stroke-linejoin:miter; stroke:black; stroke-width:2.5; text-anchor:middle; fill:none" xmlns="http://www.w3.org/2000/svg" font-family="Helvetica, Arial, FreeSans, Sans, sans, sans-serif" width="1000px" height="1000px" version="1.1" xmlns:xlink="http://www.w3.org/1999/xlink" viewBox="0 0 1000 1000">
<defs>
    <clipPath id="HistogramCategorical_0_clip">
        <rect x="120" y="50" width="830" height="870" />
    </clipPath>
</defs>
<g id="whole_document">
<rect id="background" x="0" y="0" width="1000" height="1000" stroke="none" fill="white" />
<g id="HistogramCategorical_0" clip-path="url(#HistogramCategorical_0_clip)">
    <path d="M 120 920 L 124.15 920 L 124.15 147.395 L 198.85 147.395 L 198.85 920 L 207.15 920 L 207.15 145.87 L 281.85 145.87 L 281.85 920 L 290.15 920 L 290.15 129.091 L 364.85 129.091 L 364.85 920 L 373.15 920 L 373.15 184.005 L 447.85 184.005 L 447.85 920 L 456.15 920 L 456.15 140.531 L 530.85 140.531 L 530.85 920 L 539.15 920 L 539.15 178.666 L 613.85 178.666 L 613.85 920 L 622.15 920 L 622.15 145.107 L 696.85 145.107 L 696.85 920 L 705.15 920 L 705.15 200.784 L 779.85 200.784 L 779.85 920 L 788.15 920 L 788.15 154.26 L 862.85 154.26 L 862.85 920 L 871.15 920 L 871.15 147.395 L 945.85 147.395 L 945.85 920 L 950 920" stroke-width="3" stroke-dasharray="" stroke="black" stroke-opacity="1" fill="yellow" fill-opacity="1" />
</g>
<g id="frame_0">
    <rect id="frame_0_border" x="120" y="50" width="830" height="870" />
    <g id="frame_0_bottomticks">
        <path d="M 161.5 920 L 161.5 900" />
        <text font-size="30" transform="translate(161.5, 950)" text-anchor="middle" dominant-baseline="middle" stroke="none" fill="black">one</text>
        <path d="M 244.5 920 L 244.5 900" />
        <text font-size="30" transform="translate(244.5, 950)" text-anchor="middle" dominant-baseline="middle" stroke="none" fill="black">two</text>
        <path d="M 327.5 920 L 327.5 900" />
        <text font-size="30" transform="translate(327.5, 950)" text-anchor="middle" dominant-baseline="middle" stroke="none" fill="black">three</text>
        <path d="M 410.5 920 L 410.5 900" />
        <text font-size="30" transform="translate(410.5, 950)" text-anchor="middle" dominant-baseline="middle" stroke="none" fill="black">four</text>
        <path d="M 493.5 920 L 493.5 900" />
        <text font-size="30" transform="translate(493.5, 950)" text-anchor="middle" dominant-baseline="middle" stroke="none" fill="black">five</text>
        <path d="M 576.5 920 L 576.5 900" />
        <text font-size="30" transform="translate(576.5, 950)" text-anchor="middle" dominant-baseline="middle" stroke="none" fill="black">six</text>
        <path d="M 659.5 920 L 659.5 900" />
        <text font-size="30" transform="translate(659.5, 950)" text-anchor="middle" dominant-baseline="middle" stroke="none" fill="black">seven</text>
        <path d="M 742.5 920 L 742.5 900" />
        <text font-size="30" transform="translate(742.5, 950)" text-anchor="middle" dominant-baseline="middle" stroke="none" fill="black">eight</text>
        <path d="M 825.5 920 L 825.5 900" />
        <text font-size="30" transform="translate(825.5, 950)" text-anchor="middle" dominant-baseline="middle" stroke="none" fill="black">nine</text>
        <path d="M 908.5 920 L 908.5 900" />
        <text font-size="30" transform="translate(908.5, 950)" text-anchor="middle" dominant-baseline="middle" stroke="none" fill="black">ten</text>
    </g>
    <g id="frame_0_leftticks">
        <path d="M 120 920 L 140 920" />
        <text font-size="30" transform="translate(110, 930)" text-anchor="end" dominant-baseline="middle" stroke="none" fill="black">0</text>
        <path d="M 120 309.848 L 140 309.848" />
        <text font-size="30" transform="translate(110, 319.848)" text-anchor="end" dominant-baseline="middle" stroke="none" fill="black">800</text>
        <path d="M 120 233.579 L 130 233.579" />
        <path d="M 120 767.462 L 140 767.462" />
        <text font-size="30" transform="translate(110, 777.462)" text-anchor="end" dominant-baseline="middle" stroke="none" fill="black">200</text>
        <path d="M 120 691.193 L 130 691.193" />
        <path d="M 120 81.0415 L 130 81.0415" />
        <path d="M 120 614.924 L 140 614.924" />
        <text font-size="30" transform="translate(110, 624.924)" text-anchor="end" dominant-baseline="middle" stroke="none" fill="black">400</text>
        <path d="M 120 157.31 L 140 157.31" />
        <text font-size="30" transform="translate(110, 167.31)" text-anchor="end" dominant-baseline="middle" stroke="none" fill="black">1000</text>
        <path d="M 120 538.655 L 130 538.655" />
        <path d="M 120 462.386 L 140 462.386" />
        <text font-size="30" transform="translate(110, 472.386)" text-anchor="end" dominant-baseline="middle" stroke="none" fill="black">600</text>
        <path d="M 120 843.731 L 130 843.731" />
        <path d="M 120 386.117 L 130 386.117" />
    </g>
    <g id="frame_0_topticks">
        <path d="M 161.5 50 L 161.5 70" />
        <path d="M 244.5 50 L 244.5 60" />
        <path d="M 327.5 50 L 327.5 70" />
        <path d="M 410.5 50 L 410.5 60" />
        <path d="M 493.5 50 L 493.5 70" />
        <path d="M 576.5 50 L 576.5 60" />
        <path d="M 659.5 50 L 659.5 70" />
        <path d="M 742.5 50 L 742.5 60" />
        <path d="M 825.5 50 L 825.5 70" />
        <path d="M 908.5 50 L 908.5 60" />
    </g>
    <g id="frame_0_rightticks">
        <path d="M 950 920 L 930 920" />
        <path d="M 950 309.848 L 930 309.848" />
        <path d="M 950 233.579 L 940 233.579" />
        <path d="M 950 767.462 L 930 767.462" />
        <path d="M 950 691.193 L 940 691.193" />
        <path d="M 950 81.0415 L 940 81.0415" />
        <path d="M 950 614.924 L 930 614.924" />
        <path d="M 950 157.31 L 930 157.31" />
        <path d="M 950 538.655 L 940 538.655" />
        <path d="M 950 462.386 L 930 462.386" />
        <path d="M 950 843.731 L 940 843.731" />
        <path d="M 950 386.117 L 940 386.117" />
    </g>
</g>
</g>
</svg>
