<?xml version="1.0" standalone="no"?>
<!DOCTYPE svg PUBLIC "-//W3C//DTD SVG 1.1//EN" "http://www.w3.org/Graphics/SVG/1.1/DTD/svg11.dtd">
<svg style="stroke-linejoin:miter; stroke:black; stroke-width:2.5; text-anchor:middle; fill:none" xmlns="http://www.w3.org/2000/svg" font-family="Helvetica, Arial, FreeSans, Sans, sans, sans-serif" width="1000px" height="1000px" version="1.1" xmlns:xlink="http://www.w3.org/1999/xlink" viewBox="0 0 1000 1000">
<defs>
    <clipPath id="Region_0_clip">
        <rect x="120" y="50" width="830" height="870" />
    </clipPath>
    <clipPath id="Region_1_clip">
        <rect x="120" y="50" width="830" height="870" />
    </clipPath>
</defs>
<g id="whole_document">
<rect id="background" x="0" y="0" width="1000" height="1000" stroke="none" fill="white" />
<g id="Region_0" clip-path="url(#Region_0_clip)">
    <path d="M -8.29995e+07 8.30005e+07 L 8.30005e+07 8.30005e+07 L 8.30005e+07 -8.29995e+07 L -8.29995e+07 -8.29995e+07 Z" stroke-width="5." stroke="lightblue" fill="lightblue" fill-opacity="1" />
</g>
<g id="Region_1" clip-path="url(#Region_1_clip)">
    <path d="M 535 847.5 L 880.833 485 L 535 122.5 L 189.167 485 Z" stroke-width="5." stroke="#5eb2ce" fill="#5eb2ce" fill-opacity="1" />
</g>
<g id="frame_0">
    <rect id="frame_0_border" x="120" y="50" width="830" height="870" />
    <g id="frame_0_bottomticks">
        <path d="M 362.083 920 L 362.083 900" />
        <text font-size="30" transform="translate(362.083, 950)" text-anchor="middle" dominant-baseline="middle" stroke="none" fill="black">‒0.5</text>
        <path d="M 535 920 L 535 900" />
        <text font-size="30" transform="translate(535, 950)" text-anchor="middle" dominant-baseline="middle" stroke="none" fill="black">0</text>
        <path d="M 638.75 920 L 638.75 910" />
        <path d="M 707.917 920 L 707.917 900" />
        <text font-size="30" transform="translate(707.917, 950)" text-anchor="middle" dominant-baseline="middle" stroke="none" fill="black">0.5</text>
        <path d="M 120 920 L 120 910" />
        <path d="M 742.5 920 L 742.5 910" />
        <path d="M 950 920 L 950 910" />
        <path d="M 673.333 920 L 673.333 910" />
        <path d="M 154.583 920 L 154.583 910" />
        <path d="M 223.75 920 L 223.75 910" />
        <path d="M 777.083 920 L 777.083 910" />
        <path d="M 465.833 920 L 465.833 910" />
        <path d="M 500.417 920 L 500.417 910" />
        <path d="M 258.333 920 L 258.333 910" />
        <path d="M 880.833 920 L 880.833 900" />
        <text font-size="30" transform="translate(880.833, 950)" text-anchor="middle" dominant-baseline="middle" stroke="none" fill="black">1</text>
        <path d="M 569.583 920 L 569.583 910" />
        <path d="M 604.167 920 L 604.167 910" />
        <path d="M 292.917 920 L 292.917 910" />
        <path d="M 846.25 920 L 846.25 910" />
        <path d="M 327.5 920 L 327.5 910" />
        <path d="M 189.167 920 L 189.167 900" />
        <text font-size="30" transform="translate(189.167, 950)" text-anchor="middle" dominant-baseline="middle" stroke="none" fill="black">‒1</text>
        <path d="M 915.417 920 L 915.417 910" />
        <path d="M 431.25 920 L 431.25 910" />
        <path d="M 811.667 920 L 811.667 910" />
        <path d="M 396.667 920 L 396.667 910" />
    </g>
    <g id="frame_0_leftticks">
        <path d="M 120 666.25 L 140 666.25" />
        <text font-size="30" transform="translate(110, 676.25)" text-anchor="end" dominant-baseline="middle" stroke="none" fill="black">‒0.5</text>
        <path d="M 120 485 L 140 485" />
        <text font-size="30" transform="translate(110, 495)" text-anchor="end" dominant-baseline="middle" stroke="none" fill="black">0</text>
        <path d="M 120 376.25 L 130 376.25" />
        <path d="M 120 303.75 L 140 303.75" />
        <text font-size="30" transform="translate(110, 313.75)" text-anchor="end" dominant-baseline="middle" stroke="none" fill="black">0.5</text>
        <path d="M 120 920 L 130 920" />
        <path d="M 120 267.5 L 130 267.5" />
        <path d="M 120 50 L 130 50" />
        <path d="M 120 340 L 130 340" />
        <path d="M 120 883.75 L 130 883.75" />
        <path d="M 120 811.25 L 130 811.25" />
        <path d="M 120 231.25 L 130 231.25" />
        <path d="M 120 557.5 L 130 557.5" />
        <path d="M 120 521.25 L 130 521.25" />
        <path d="M 120 775 L 130 775" />
        <path d="M 120 122.5 L 140 122.5" />
        <text font-size="30" transform="translate(110, 132.5)" text-anchor="end" dominant-baseline="middle" stroke="none" fill="black">1</text>
        <path d="M 120 448.75 L 130 448.75" />
        <path d="M 120 412.5 L 130 412.5" />
        <path d="M 120 738.75 L 130 738.75" />
        <path d="M 120 158.75 L 130 158.75" />
        <path d="M 120 702.5 L 130 702.5" />
        <path d="M 120 847.5 L 140 847.5" />
        <text font-size="30" transform="translate(110, 857.5)" text-anchor="end" dominant-baseline="middle" stroke="none" fill="black">‒1</text>
        <path d="M 120 86.25 L 130 86.25" />
        <path d="M 120 593.75 L 130 593.75" />
        <path d="M 120 195 L 130 195" />
        <path d="M 120 630 L 130 630" />
    </g>
    <g id="frame_0_topticks">
        <path d="M 362.083 50 L 362.083 70" />
        <path d="M 535 50 L 535 70" />
        <path d="M 638.75 50 L 638.75 60" />
        <path d="M 707.917 50 L 707.917 70" />
        <path d="M 120 50 L 120 60" />
        <path d="M 742.5 50 L 742.5 60" />
        <path d="M 950 50 L 950 60" />
        <path d="M 673.333 50 L 673.333 60" />
        <path d="M 154.583 50 L 154.583 60" />
        <path d="M 223.75 50 L 223.75 60" />
        <path d="M 777.083 50 L 777.083 60" />
        <path d="M 465.833 50 L 465.833 60" />
        <path d="M 500.417 50 L 500.417 60" />
        <path d="M 258.333 50 L 258.333 60" />
        <path d="M 880.833 50 L 880.833 70" />
        <path d="M 569.583 50 L 569.583 60" />
        <path d="M 604.167 50 L 604.167 60" />
        <path d="M 292.917 50 L 292.917 60" />
        <path d="M 846.25 50 L 846.25 60" />
        <path d="M 327.5 50 L 327.5 60" />
        <path d="M 189.167 50 L 189.167 70" />
        <path d="M 915.417 50 L 915.417 60" />
        <path d="M 431.25 50 L 431.25 60" />
        <path d="M 811.667 50 L 811.667 60" />
        <path d="M 396.667 50 L 396.667 60" />
    </g>
    <g id="frame_0_rightticks">
        <path d="M 950 666.25 L 930 666.25" />
        <path d="M 950 485 L 930 485" />
        <path d="M 950 376.25 L 940 376.25" />
        <path d="M 950 303.75 L 930 303.75" />
        <path d="M 950 920 L 940 920" />
        <path d="M 950 267.5 L 940 267.5" />
        <path d="M 950 50 L 940 50" />
        <path d="M 950 340 L 940 340" />
        <path d="M 950 883.75 L 940 883.75" />
        <path d="M 950 811.25 L 940 811.25" />
        <path d="M 950 231.25 L 940 231.25" />
        <path d="M 950 557.5 L 940 557.5" />
        <path d="M 950 521.25 L 940 521.25" />
        <path d="M 950 775 L 940 775" />
        <path d="M 950 122.5 L 930 122.5" />
        <path d="M 950 448.75 L 940 448.75" />
        <path d="M 950 412.5 L 940 412.5" />
        <path d="M 950 738.75 L 940 738.75" />
        <path d="M 950 158.75 L 940 158.75" />
        <path d="M 950 702.5 L 940 702.5" />
        <path d="M 950 847.5 L 930 847.5" />
        <path d="M 950 86.25 L 940 86.25" />
        <path d="M 950 593.75 L 940 593.75" />
        <path d="M 950 195 L 940 195" />
        <path d="M 950 630 L 940 630" />
    </g>
</g>
</g>
</svg>
