<?xml version="1.0" standalone="no"?>
<!DOCTYPE svg PUBLIC "-//W3C//DTD SVG 1.1//EN" "http://www.w3.org/Graphics/SVG/1.1/DTD/svg11.dtd">
<svg style="stroke-linejoin:miter; stroke:black; stroke-width:2.5; text-anchor:middle; fill:none" xmlns="http://www.w3.org/2000/svg" font-family="Helvetica, Arial, FreeSans, Sans, sans, sans-serif" width="1000px" height="1000px" version="1.1" xmlns:xlink="http://www.w3.org/1999/xlink" viewBox="0 0 1000 1000">
<defs>
    <clipPath id="Scatter_0_clip">
        <rect x="120" y="50" width="830" height="870" />
    </clipPath>
</defs>
<g id="whole_document">
<rect id="background" x="0" y="0" width="1000" height="1000" stroke="none" fill="white" />
<g id="Scatter_0" clip-path="url(#Scatter_0_clip)">
    <path d="M 603.045 552.211 L 603.482 552.206 L 603.919 552.189 L 604.356 552.162 L 604.792 552.124 L 605.228 552.075 L 605.663 552.016 L 606.098 551.945 L 606.531 551.864 L 606.963 551.771 L 607.395 551.668 L 607.825 551.554 L 608.253 551.43 L 608.68 551.295 L 609.105 551.149 L 609.528 550.992 L 609.95 550.825 L 610.369 550.647 L 610.786 550.459 L 611.201 550.26 L 611.613 550.05 L 612.023 549.83 L 612.43 549.6 L 612.834 549.359 L 613.235 549.109 L 613.633 548.847 L 614.028 548.576 L 614.419 548.294 L 614.807 548.003 L 615.192 547.701 L 615.572 547.39 L 615.949 547.068 L 616.322 546.737 L 616.691 546.396 L 617.055 546.045 L 617.416 545.684 L 617.771 545.314 L 618.123 544.935 L 618.469 544.546 L 618.811 544.147 L 619.148 543.74 L 619.48 543.323 L 619.806 542.897 L 620.128 542.463 L 620.444 542.019 L 620.754 541.566 L 621.059 541.105 L 621.359 540.635 L 621.652 540.157 L 621.94 539.67 L 622.221 539.175 L 622.497 538.672 L 622.766 538.16 L 623.029 537.64 L 623.285 537.113 L 623.535 536.578 L 623.779 536.035 L 624.015 535.484 L 624.245 534.926 L 624.468 534.36 L 624.684 533.788 L 624.892 533.208 L 625.094 532.621 L 625.288 532.027 L 625.475 531.427 L 625.654 530.82 L 625.826 530.206 L 625.99 529.586 L 626.146 528.96 L 626.295 528.328 L 626.435 527.689 L 626.568 527.045 L 626.693 526.395 L 626.809 525.739 L 626.917 525.078 L 627.017 524.412 L 627.109 523.741 L 627.192 523.064 L 627.266 522.383 L 627.332 521.697 L 627.39 521.006 L 627.438 520.311 L 627.478 519.611 L 627.509 518.908 L 627.531 518.2 L 627.544 517.489 L 627.548 516.774 L 627.543 516.055 L 627.529 515.333 L 627.506 514.608 L 627.473 513.879 L 627.431 513.148 L 627.38 512.414 L 627.319 511.677 L 627.249 510.938 L 627.169 510.197 L 627.08 509.454 L 626.981 508.708 L 626.873 507.961 L 626.755 507.212 L 626.627 506.462 L 626.49 505.711 L 626.342 504.958 L 626.185 504.204 L 626.018 503.45 L 625.842 502.695 L 625.655 501.94 L 625.459 501.184 L 625.252 500.428 L 625.036 499.672 L 624.809 498.917 L 624.573 498.162 L 624.327 497.408 L 624.07 496.654 L 623.804 495.901 L 623.527 495.149 L 623.241 494.399 L 622.944 493.65 L 622.638 492.903 L 622.321 492.158 L 621.995 491.414 L 621.658 490.673 L 621.311 489.934 L 620.954 489.197 L 620.587 488.464 L 620.21 487.733 L 619.823 487.005 L 619.426 486.28 L 619.019 485.559 L 618.602 484.841 L 618.175 484.128 L 617.738 483.418 L 617.292 482.712 L 616.835 482.01 L 616.368 481.313 L 615.892 480.62 L 615.405 479.933 L 614.909 479.25 L 614.403 478.572 L 613.888 477.9 L 613.363 477.233 L 612.828 476.572 L 612.283 475.917 L 611.729 475.268 L 611.165 474.625 L 610.592 473.988 L 610.009 473.358 L 609.417 472.735 L 608.816 472.119 L 608.205 471.509 L 607.585 470.907 L 606.956 470.312 L 606.318 469.725 L 605.671 469.145 L 605.014 468.574 L 604.349 468.01 L 603.675 467.455 L 602.992 466.908 L 602.3 466.37 L 601.6 465.84 L 600.891 465.319 L 600.173 464.808 L 599.447 464.305 L 598.713 463.812 L 597.97 463.328 L 597.219 462.854 L 596.46 462.39 L 595.693 461.936 L 594.918 461.492 L 594.135 461.058 L 593.345 460.635 L 592.546 460.222 L 591.74 459.82 L 590.927 459.429 L 590.106 459.049 L 589.277 458.681 L 588.442 458.323 L 587.599 457.977 L 586.75 457.643 L 585.893 457.32 L 585.029 457.009 L 584.159 456.711 L 583.283 456.424 L 582.399 456.15 L 581.51 455.888 L 580.614 455.639 L 579.712 455.402 L 578.804 455.178 L 577.89 454.968 L 576.97 454.77 L 576.044 454.585 L 575.113 454.414 L 574.176 454.256 L 573.235 454.112 L 572.287 453.982 L 571.335 453.865 L 570.378 453.762 L 569.416 453.673 L 568.45 453.598 L 567.478 453.538 L 566.503 453.492 L 565.523 453.46 L 564.539 453.443 L 563.551 453.44 L 562.559 453.453 L 561.563 453.48 L 560.564 453.522 L 559.561 453.579 L 558.555 453.651 L 557.546 453.738 L 556.534 453.841 L 555.519 453.958 L 554.501 454.092 L 553.48 454.241 L 552.457 454.405 L 551.432 454.586 L 550.405 454.781 L 549.375 454.993 L 548.344 455.221 L 547.311 455.465 L 546.277 455.724 L 545.241 456 L 544.204 456.292 L 543.166 456.6 L 542.127 456.924 L 541.088 457.265 L 540.047 457.622 L 539.007 457.996 L 537.966 458.386 L 536.924 458.792 L 535.883 459.215 L 534.843 459.655 L 533.802 460.111 L 532.762 460.584 L 531.723 461.073 L 530.685 461.579 L 529.647 462.102 L 528.611 462.642 L 527.577 463.199 L 526.543 463.772 L 525.512 464.362 L 524.482 464.969 L 523.455 465.593 L 522.43 466.234 L 521.407 466.892 L 520.386 467.566 L 519.368 468.257 L 518.354 468.966 L 517.342 469.691 L 516.333 470.433 L 515.328 471.191 L 514.327 471.967 L 513.329 472.76 L 512.335 473.569 L 511.345 474.395 L 510.36 475.238 L 509.378 476.098 L 508.402 476.974 L 507.43 477.867 L 506.463 478.777 L 505.501 479.703 L 504.545 480.647 L 503.594 481.606 L 502.649 482.582 L 501.709 483.575 L 500.775 484.584 L 499.848 485.609 L 498.927 486.651 L 498.012 487.709 L 497.104 488.783 L 496.203 489.873 L 495.309 490.98 L 494.422 492.102 L 493.542 493.241 L 492.67 494.395 L 491.805 495.565 L 490.948 496.751 L 490.099 497.953 L 489.259 499.17 L 488.427 500.402 L 487.603 501.65 L 486.788 502.914 L 485.981 504.192 L 485.184 505.486 L 484.396 506.795 L 483.617 508.119 L 482.848 509.457 L 482.088 510.811 L 481.338 512.178 L 480.598 513.561 L 479.868 514.958 L 479.148 516.369 L 478.439 517.794 L 477.741 519.234 L 477.053 520.687 L 476.376 522.155 L 475.71 523.635 L 475.055 525.13 L 474.412 526.638 L 473.78 528.159 L 473.16 529.693 L 472.551 531.241 L 471.955 532.801 L 471.371 534.374 L 470.799 535.96 L 470.239 537.558 L 469.692 539.168 L 469.157 540.791 L 468.636 542.425 L 468.127 544.072 L 467.631 545.73 L 467.149 547.4 L 466.68 549.08 L 466.224 550.773 L 465.783 552.476 L 465.354 554.19 L 464.94 555.914 L 464.54 557.65 L 464.154 559.395 L 463.782 561.151 L 463.425 562.916 L 463.082 564.692 L 462.754 566.477 L 462.441 568.271 L 462.142 570.075 L 461.859 571.888 L 461.59 573.709 L 461.337 575.539 L 461.099 577.378 L 460.877 579.225 L 460.67 581.08 L 460.479 582.942 L 460.304 584.813 L 460.144 586.691 L 460.001 588.576 L 459.874 590.468 L 459.762 592.367 L 459.668 594.272 L 459.589 596.184 L 459.527 598.102 L 459.481 600.026 L 459.453 601.955 L 459.441 603.89 L 459.445 605.831 L 459.467 607.776 L 459.506 609.726 L 459.561 611.681 L 459.634 613.641 L 459.724 615.604 L 459.832 617.571 L 459.956 619.542 L 460.098 621.516 L 460.258 623.494 L 460.435 625.474 L 460.63 627.457 L 460.843 629.443 L 461.073 631.431 L 461.321 633.421 L 461.587 635.412 L 461.871 637.405 L 462.173 639.4 L 462.493 641.395 L 462.831 643.391 L 463.187 645.388 L 463.561 647.384 L 463.953 649.381 L 464.364 651.378 L 464.793 653.374 L 465.24 655.369 L 465.706 657.364 L 466.189 659.357 L 466.692 661.348 L 467.212 663.338 L 467.751 665.325 L 468.309 667.311 L 468.885 669.293 L 469.479 671.273 L 470.092 673.25 L 470.723 675.224 L 471.373 677.194 L 472.042 679.16 L 472.729 681.121 L 473.434 683.079 L 474.158 685.032 L 474.9 686.98 L 475.661 688.922 L 476.441 690.859 L 477.239 692.791 L 478.055 694.716 L 478.89 696.635 L 479.743 698.548 L 480.614 700.454 L 481.504 702.353 L 482.413 704.244 L 483.339 706.128 L 484.284 708.004 L 485.247 709.872 L 486.229 711.731 L 487.228 713.582 L 488.246 715.424 L 489.282 717.257 L 490.336 719.08 L 491.407 720.894 L 492.497 722.697 L 493.605 724.49 L 494.73 726.273 L 495.874 728.045 L 497.034 729.806 L 498.213 731.556 L 499.409 733.294 L 500.623 735.02 L 501.854 736.734 L 503.103 738.436 L 504.369 740.125 L 505.652 741.801 L 506.952 743.464 L 508.269 745.114 L 509.603 746.75 L 510.954 748.372 L 512.322 749.98 L 513.707 751.573 L 515.108 753.152 L 516.526 754.716 L 517.96 756.264 L 519.41 757.798 L 520.877 759.315 L 522.359 760.817 L 523.858 762.302 L 525.372 763.771 L 526.902 765.224 L 528.448 766.659 L 530.01 768.077 L 531.586 769.478 L 533.178 770.861 L 534.785 772.226 L 536.408 773.573 L 538.045 774.902 L 539.696 776.212 L 541.363 777.503 L 543.043 778.776 L 544.739 780.029 L 546.448 781.262 L 548.171 782.476 L 549.908 783.669 L 551.659 784.843 L 553.424 785.996 L 555.202 787.128 L 556.993 788.24 L 558.798 789.33 L 560.615 790.399 L 562.445 791.447 L 564.288 792.473 L 566.143 793.477 L 568.011 794.458 L 569.89 795.418 L 571.782 796.355 L 573.685 797.269 L 575.6 798.16 L 577.527 799.028 L 579.464 799.873 L 581.413 800.694 L 583.373 801.491 L 585.343 802.265 L 587.324 803.014 L 589.315 803.739 L 591.316 804.44 L 593.327 805.116 L 595.348 805.767 L 597.378 806.393 L 599.418 806.994 L 601.466 807.57 L 603.524 808.12 L 605.59 808.645 L 607.665 809.143 L 609.748 809.616 L 611.839 810.063 L 613.938 810.483 L 616.045 810.877 L 618.159 811.244 L 620.281 811.584 L 622.409 811.898 L 624.544 812.184 L 626.686 812.444 L 628.834 812.676 L 630.988 812.881 L 633.148 813.058 L 635.313 813.207 L 637.484 813.329 L 639.661 813.423 L 641.842 813.488 L 644.028 813.526 L 646.218 813.535 L 648.413 813.516 L 650.611 813.468 L 652.814 813.392 L 655.02 813.287 L 657.229 813.154 L 659.441 812.991 L 661.656 812.8 L 663.874 812.579 L 666.094 812.33 L 668.316 812.051 L 670.539 811.743 L 672.765 811.405 L 674.992 811.038 L 677.219 810.642 L 679.448 810.216 L 681.677 809.761 L 683.906 809.276 L 686.136 808.761 L 688.365 808.216 L 690.594 807.642 L 692.822 807.037 L 695.049 806.403 L 697.275 805.739 L 699.499 805.045 L 701.722 804.321 L 703.942 803.567 L 706.161 802.782 L 708.376 801.968 L 710.589 801.124 L 712.799 800.249 L 715.006 799.345 L 717.209 798.41 L 719.408 797.446 L 721.603 796.451 L 723.793 795.426 L 725.979 794.371 L 728.16 793.286 L 730.336 792.171 L 732.507 791.026 L 734.671 789.851 L 736.83 788.646 L 738.983 787.411 L 741.129 786.146 L 743.268 784.851 L 745.4 783.526 L 747.525 782.172 L 749.642 780.787 L 751.751 779.374 L 753.853 777.93 L 755.945 776.457 L 758.03 774.954 L 760.105 773.422 L 762.171 771.861 L 764.228 770.27 L 766.275 768.651 L 768.312 767.002 L 770.339 765.324 L 772.355 763.617 L 774.361 761.881 L 776.355 760.116 L 778.338 758.323 L 780.31 756.501 L 782.27 754.651 L 784.218 752.772 L 786.153 750.865 L 788.076 748.931 L 789.986 746.968 L 791.883 744.977 L 793.767 742.959 L 795.637 740.912 L 797.493 738.839 L 799.335 736.738 L 801.162 734.61 L 802.975 732.455 L 804.773 730.273 L 806.556 728.065 L 808.323 725.83 L 810.075 723.568 L 811.811 721.281 L 813.531 718.967 L 815.234 716.627 L 816.921 714.262 L 818.591 711.871 L 820.243 709.455 L 821.879 707.013 L 823.497 704.547 L 825.097 702.056 L 826.679 699.54 L 828.242 697 L 829.787 694.436 L 831.313 691.848 L 832.821 689.236 L 834.309 686.6 L 835.777 683.941 L 837.226 681.259 L 838.655 678.555 L 840.064 675.827 L 841.452 673.077 L 842.82 670.305 L 844.167 667.511 L 845.493 664.696 L 846.798 661.859 L 848.081 659 L 849.343 656.121 L 850.583 653.221 L 851.801 650.301 L 852.996 647.36 L 854.169 644.399 L 855.319 641.419 L 856.447 638.419 L 857.551 635.4 L 858.632 632.363 L 859.69 629.307 L 860.724 626.232 L 861.734 623.139 L 862.72 620.029 L 863.682 616.901 L 864.619 613.757 L 865.532 610.595 L 866.42 607.417 L 867.283 604.222 L 868.121 601.012 L 868.934 597.785 L 869.721 594.544 L 870.483 591.287 L 871.219 588.016 L 871.929 584.731 L 872.613 581.431 L 873.271 578.117 L 873.902 574.79 L 874.507 571.45 L 875.085 568.097 L 875.636 564.732 L 876.16 561.355 L 876.657 557.966 L 877.127 554.565 L 877.569 551.153 L 877.984 547.731 L 878.371 544.298 L 878.731 540.855 L 879.062 537.402 L 879.365 533.94 L 879.641 530.468 L 879.888 526.989 L 880.106 523.5 L 880.296 520.004 L 880.458 516.5 L 880.591 512.989 L 880.695 509.472 L 880.77 505.947 L 880.816 502.417 L 880.833 498.88 L 880.821 495.339 L 880.78 491.792 L 880.709 488.24 L 880.609 484.685 L 880.48 481.125 L 880.32 477.562 L 880.132 473.996 L 879.913 470.427 L 879.665 466.855 L 879.387 463.282 L 879.079 459.707 L 878.741 456.13 L 878.373 452.553 L 877.975 448.976 L 877.547 445.398 L 877.089 441.821 L 876.601 438.244 L 876.082 434.668 L 875.533 431.094 L 874.955 427.522 L 874.345 423.952 L 873.706 420.385 L 873.036 416.821 L 872.336 413.26 L 871.605 409.704 L 870.844 406.151 L 870.053 402.604 L 869.232 399.061 L 868.38 395.524 L 867.498 391.992 L 866.585 388.467 L 865.642 384.949 L 864.669 381.437 L 863.666 377.934 L 862.632 374.438 L 861.568 370.95 L 860.474 367.471 L 859.349 364.001 L 858.195 360.541 L 857.01 357.09 L 855.796 353.65 L 854.551 350.22 L 853.276 346.802 L 851.972 343.395 L 850.638 340 L 849.274 336.617 L 847.88 333.247 L 846.456 329.891 L 845.003 326.547 L 843.521 323.218 L 842.009 319.903 L 840.468 316.602 L 838.897 313.317 L 837.298 310.047 L 835.669 306.793 L 834.011 303.556 L 832.325 300.335 L 830.609 297.131 L 828.865 293.945 L 827.093 290.776 L 825.292 287.626 L 823.462 284.494 L 821.605 281.382 L 819.719 278.289 L 817.806 275.216 L 815.864 272.163 L 813.895 269.13 L 811.899 266.119 L 809.875 263.128 L 807.823 260.16 L 805.745 257.214 L 803.64 254.29 L 801.507 251.389 L 799.349 248.512 L 797.163 245.657 L 794.952 242.827 L 792.714 240.022 L 790.45 237.241 L 788.16 234.485 L 785.845 231.755 L 783.504 229.05 L 781.138 226.371 L 778.747 223.72 L 776.331 221.095 L 773.891 218.497 L 771.426 215.927 L 768.936 213.385 L 766.423 210.871 L 763.885 208.385 L 761.324 205.929 L 758.739 203.502 L 756.132 201.105 L 753.501 198.738 L 750.847 196.401 L 748.171 194.094 L 745.472 191.819 L 742.751 189.575 L 740.009 187.363 L 737.244 185.182 L 734.459 183.034 L 731.652 180.919 L 728.824 178.836 L 725.975 176.787 L 723.107 174.771 L 720.217 172.789 L 717.308 170.841 L 714.38 168.927 L 711.432 167.048 L 708.465 165.205 L 705.479 163.396 L 702.474 161.623 L 699.451 159.886 L 696.41 158.185 L 693.352 156.52 L 690.275 154.893 L 687.182 153.302 L 684.072 151.748 L 680.945 150.232 L 677.802 148.753 L 674.643 147.313 L 671.468 145.91 L 668.278 144.546 L 665.072 143.221 L 661.852 141.935 L 658.617 140.688 L 655.368 139.481 L 652.105 138.313 L 648.829 137.185 L 645.539 136.097 L 642.237 135.05 L 638.922 134.043 L 635.594 133.076 L 632.255 132.151 L 628.903 131.267 L 625.541 130.424 L 622.168 129.623 L 618.783 128.864 L 615.389 128.146 L 611.985 127.471 L 608.571 126.837 L 605.147 126.247 L 601.715 125.698 L 598.274 125.193 L 594.825 124.731 L 591.368 124.311 L 587.903 123.935 L 584.431 123.603 L 580.952 123.313 L 577.467 123.068 L 573.975 122.866 L 570.478 122.708 L 566.975 122.595 L 563.468 122.525 L 559.955 122.5 L 556.438 122.519 L 552.917 122.583 L 549.393 122.691 L 545.865 122.844 L 542.334 123.042 L 538.801 123.285 L 535.265 123.572 L 531.728 123.905 L 528.189 124.283 L 524.65 124.706 L 521.109 125.174 L 517.569 125.688 L 514.028 126.247 L 510.488 126.851 L 506.948 127.501 L 503.41 128.196 L 499.874 128.937 L 496.339 129.723 L 492.807 130.555 L 489.277 131.433 L 485.751 132.356 L 482.228 133.325 L 478.709 134.34 L 475.194 135.4 L 471.684 136.505 L 468.179 137.657 L 464.679 138.854 L 461.185 140.097 L 457.697 141.385 L 454.216 142.719 L 450.742 144.098 L 447.275 145.523 L 443.815 146.993 L 440.364 148.508 L 436.921 150.069 L 433.487 151.675 L 430.063 153.327 L 426.648 155.023 L 423.243 156.765 L 419.848 158.551 L 416.464 160.382 L 413.092 162.259 L 409.731 164.18 L 406.381 166.145 L 403.045 168.155 L 399.72 170.209 L 396.409 172.308 L 393.112 174.451 L 389.828 176.638 L 386.558 178.868 L 383.303 181.143 L 380.063 183.461 L 376.839 185.823 L 373.63 188.228 L 370.437 190.676 L 367.26 193.167 L 364.101 195.701 L 360.959 198.278 L 357.834 200.897 L 354.727 203.559 L 351.639 206.262 L 348.569 209.008 L 345.518 211.795 L 342.487 214.624 L 339.475 217.495 L 336.484 220.406 L 333.513 223.359 L 330.563 226.352 L 327.635 229.385 L 324.728 232.459 L 321.842 235.573 L 318.98 238.727 L 316.139 241.92 L 313.322 245.152 L 310.528 248.424 L 307.758 251.734 L 305.012 255.083 L 302.29 258.47 L 299.593 261.896 L 296.922 265.358 L 294.275 268.859 L 291.654 272.396 L 289.06 275.97 L 286.491 279.581 L 283.95 283.228 L 281.435 286.911 L 278.948 290.63 L 276.489 294.384 L 274.057 298.173 L 271.654 301.997 L 269.28 305.855 L 266.935 309.747 L 264.618 313.673 L 262.332 317.632 L 260.075 321.624 L 257.849 325.649 L 255.653 329.706 L 253.488 333.795 L 251.354 337.916 L 249.251 342.068 L 247.18 346.251 L 245.141 350.464 L 243.135 354.708 L 241.16 358.981 L 239.219 363.283 L 237.311 367.615 L 235.436 371.975 L 233.594 376.363 L 231.787 380.78 L 230.014 385.223 L 228.275 389.693 L 226.57 394.19 L 224.901 398.714 L 223.267 403.262 L 221.668 407.836 L 220.105 412.435 L 218.578 417.059 L 217.087 421.706 L 215.633 426.377 L 214.215 431.072 L 212.833 435.788 L 211.489 440.528 L 210.182 445.288 L 208.913 450.071 L 207.681 454.874 L 206.488 459.697 L 205.332 464.541 L 204.215 469.404 L 203.136 474.286 L 202.096 479.186 L 201.095 484.105 L 200.133 489.041 L 199.21 493.995 L 198.327 498.965 L 197.483 503.951 L 196.679 508.953 L 195.915 513.97 L 195.191 519.001 L 194.508 524.047 L 193.865 529.107 L 193.262 534.179 L 192.701 539.265 L 192.18 544.362 L 191.7 549.472 L 191.261 554.592 L 190.864 559.723 L 190.508 564.864 L 190.194 570.015 L 189.921 575.175 L 189.69 580.343 L 189.501 585.52 L 189.355 590.704 L 189.25 595.894 L 189.187 601.092 L 189.167 606.295 L 189.189 611.504 L 189.253 616.718 L 189.36 621.936 L 189.51 627.157 L 189.702 632.382 L 189.937 637.61 L 190.215 642.84 L 190.536 648.071 L 190.9 653.304 L 191.307 658.537 L 191.757 663.77 L 192.25 669.003 L 192.786 674.234 L 193.365 679.464 L 193.987 684.692 L 194.653 689.917 L 195.361 695.138 L 196.113 700.356 L 196.909 705.569 L 197.747 710.778 L 198.629 715.98 L 199.554 721.177 L 200.522 726.367 L 201.533 731.55 L 202.588 736.726 L 203.685 741.893 L 204.826 747.051 L 206.01 752.199 L 207.237 757.338 L 208.507 762.466 L 209.82 767.584 L 211.176 772.689 L 212.575 777.782 L 214.017 782.863 L 215.501 787.93 L 217.028 792.984 L 218.598 798.023 L 220.21 803.047 L 221.865 808.056 L 223.562 813.048 L 225.301 818.024 L 227.082 822.983 L 228.906 827.924 L 230.771 832.847 L 232.679 837.751 L 234.628 842.635 L 236.618 847.5" stroke-width="3" stroke-dasharray="" stroke="black" stroke-opacity="1" fill="none" />
</g>
<g id="frame_0">
    <rect id="frame_0_border" x="120" y="50" width="830" height="870" />
    <g id="frame_0_bottomticks">
        <path d="M 603.045 920 L 603.045 900" />
        <text font-size="30" transform="translate(603.045, 950)" text-anchor="middle" dominant-baseline="middle" stroke="none" fill="black">0</text>
        <path d="M 646.716 920 L 646.716 910" />
        <path d="M 690.386 920 L 690.386 900" />
        <text font-size="30" transform="translate(690.386, 950)" text-anchor="middle" dominant-baseline="middle" stroke="none" fill="black">2</text>
        <path d="M 734.057 920 L 734.057 910" />
        <path d="M 777.727 920 L 777.727 900" />
        <text font-size="30" transform="translate(777.727, 950)" text-anchor="middle" dominant-baseline="middle" stroke="none" fill="black">4</text>
        <path d="M 821.398 920 L 821.398 910" />
        <path d="M 865.068 920 L 865.068 900" />
        <text font-size="30" transform="translate(865.068, 950)" text-anchor="middle" dominant-baseline="middle" stroke="none" fill="black">6</text>
        <path d="M 908.739 920 L 908.739 910" />
        <path d="M 515.704 920 L 515.704 900" />
        <text font-size="30" transform="translate(515.704, 950)" text-anchor="middle" dominant-baseline="middle" stroke="none" fill="black">‒2</text>
        <path d="M 122.669 920 L 122.669 910" />
        <path d="M 166.34 920 L 166.34 900" />
        <text font-size="30" transform="translate(166.34, 950)" text-anchor="middle" dominant-baseline="middle" stroke="none" fill="black">‒10</text>
        <path d="M 210.01 920 L 210.01 910" />
        <path d="M 253.681 920 L 253.681 900" />
        <text font-size="30" transform="translate(253.681, 950)" text-anchor="middle" dominant-baseline="middle" stroke="none" fill="black">‒8</text>
        <path d="M 297.351 920 L 297.351 910" />
        <path d="M 341.022 920 L 341.022 900" />
        <text font-size="30" transform="translate(341.022, 950)" text-anchor="middle" dominant-baseline="middle" stroke="none" fill="black">‒6</text>
        <path d="M 384.692 920 L 384.692 910" />
        <path d="M 428.363 920 L 428.363 900" />
        <text font-size="30" transform="translate(428.363, 950)" text-anchor="middle" dominant-baseline="middle" stroke="none" fill="black">‒4</text>
        <path d="M 472.033 920 L 472.033 910" />
        <path d="M 559.375 920 L 559.375 910" />
    </g>
    <g id="frame_0_leftticks">
        <path d="M 120 552.211 L 140 552.211" />
        <text font-size="30" transform="translate(110, 562.211)" text-anchor="end" dominant-baseline="middle" stroke="none" fill="black">0</text>
        <path d="M 120 497.932 L 130 497.932" />
        <path d="M 120 443.653 L 140 443.653" />
        <text font-size="30" transform="translate(110, 453.653)" text-anchor="end" dominant-baseline="middle" stroke="none" fill="black">2</text>
        <path d="M 120 389.375 L 130 389.375" />
        <path d="M 120 335.096 L 140 335.096" />
        <text font-size="30" transform="translate(110, 345.096)" text-anchor="end" dominant-baseline="middle" stroke="none" fill="black">4</text>
        <path d="M 120 280.817 L 130 280.817" />
        <path d="M 120 226.538 L 140 226.538" />
        <text font-size="30" transform="translate(110, 236.538)" text-anchor="end" dominant-baseline="middle" stroke="none" fill="black">6</text>
        <path d="M 120 172.259 L 130 172.259" />
        <path d="M 120 117.98 L 140 117.98" />
        <text font-size="30" transform="translate(110, 127.98)" text-anchor="end" dominant-baseline="middle" stroke="none" fill="black">8</text>
        <path d="M 120 63.701 L 130 63.701" />
        <path d="M 120 660.769 L 140 660.769" />
        <text font-size="30" transform="translate(110, 670.769)" text-anchor="end" dominant-baseline="middle" stroke="none" fill="black">‒2</text>
        <path d="M 120 877.885 L 140 877.885" />
        <text font-size="30" transform="translate(110, 887.885)" text-anchor="end" dominant-baseline="middle" stroke="none" fill="black">‒6</text>
        <path d="M 120 823.606 L 130 823.606" />
        <path d="M 120 769.327 L 140 769.327" />
        <text font-size="30" transform="translate(110, 779.327)" text-anchor="end" dominant-baseline="middle" stroke="none" fill="black">‒4</text>
        <path d="M 120 715.048 L 130 715.048" />
        <path d="M 120 606.49 L 130 606.49" />
    </g>
    <g id="frame_0_topticks">
        <path d="M 603.045 50 L 603.045 70" />
        <path d="M 646.716 50 L 646.716 60" />
        <path d="M 690.386 50 L 690.386 70" />
        <path d="M 734.057 50 L 734.057 60" />
        <path d="M 777.727 50 L 777.727 70" />
        <path d="M 821.398 50 L 821.398 60" />
        <path d="M 865.068 50 L 865.068 70" />
        <path d="M 908.739 50 L 908.739 60" />
        <path d="M 515.704 50 L 515.704 70" />
        <path d="M 122.669 50 L 122.669 60" />
        <path d="M 166.34 50 L 166.34 70" />
        <path d="M 210.01 50 L 210.01 60" />
        <path d="M 253.681 50 L 253.681 70" />
        <path d="M 297.351 50 L 297.351 60" />
        <path d="M 341.022 50 L 341.022 70" />
        <path d="M 384.692 50 L 384.692 60" />
        <path d="M 428.363 50 L 428.363 70" />
        <path d="M 472.033 50 L 472.033 60" />
        <path d="M 559.375 50 L 559.375 60" />
    </g>
    <g id="frame_0_rightticks">
        <path d="M 950 552.211 L 930 552.211" />
        <path d="M 950 497.932 L 940 497.932" />
        <path d="M 950 443.653 L 930 443.653" />
        <path d="M 950 389.375 L 940 389.375" />
        <path d="M 950 335.096 L 930 335.096" />
        <path d="M 950 280.817 L 940 280.817" />
        <path d="M 950 226.538 L 930 226.538" />
        <path d="M 950 172.259 L 940 172.259" />
        <path d="M 950 117.98 L 930 117.98" />
        <path d="M 950 63.701 L 940 63.701" />
        <path d="M 950 660.769 L 930 660.769" />
        <path d="M 950 877.885 L 930 877.885" />
        <path d="M 950 823.606 L 940 823.606" />
        <path d="M 950 769.327 L 930 769.327" />
        <path d="M 950 715.048 L 940 715.048" />
        <path d="M 950 606.49 L 940 606.49" />
    </g>
</g>
</g>
</svg>
