<?xml version="1.0" standalone="no"?>
<!DOCTYPE svg PUBLIC "-//W3C//DTD SVG 1.1//EN" "http://www.w3.org/Graphics/SVG/1.1/DTD/svg11.dtd">
<svg style="stroke-linejoin:miter; stroke:black; stroke-width:2.5; text-anchor:middle; fill:none" xmlns="http://www.w3.org/2000/svg" font-family="Helvetica, Arial, FreeSans, Sans, sans, sans-serif" width="1000px" height="1000px" version="1.1" xmlns:xlink="http://www.w3.org/1999/xlink" viewBox="0 0 1000 1000">
<defs>
    <clipPath id="Scatter_0_clip">
        <rect x="120" y="50" width="830" height="870" />
    </clipPath>
</defs>
<g id="whole_document">
<rect id="background" x="0" y="0" width="1000" height="1000" stroke="none" fill="white" />
<g id="Scatter_0" clip-path="url(#Scatter_0_clip)">
    <path d="M 189.167 516.259 L 189.859 515.868 L 190.551 515.486 L 191.244 515.111 L 191.936 514.745 L 192.628 514.386 L 193.321 514.035 L 194.013 513.691 L 194.706 513.356 L 195.398 513.028 L 196.09 512.708 L 196.783 512.395 L 197.475 512.09 L 198.167 511.793 L 198.86 511.503 L 199.552 511.221 L 200.244 510.946 L 200.937 510.679 L 201.629 510.419 L 202.321 510.167 L 203.014 509.922 L 203.706 509.685 L 204.399 509.455 L 205.091 509.232 L 205.783 509.017 L 206.476 508.809 L 207.168 508.608 L 207.86 508.415 L 208.553 508.229 L 209.245 508.05 L 209.937 507.878 L 210.63 507.714 L 211.322 507.556 L 212.015 507.406 L 212.707 507.263 L 213.399 507.127 L 214.092 506.998 L 214.784 506.876 L 215.476 506.761 L 216.169 506.653 L 216.861 506.552 L 217.553 506.458 L 218.246 506.371 L 218.938 506.291 L 219.63 506.218 L 220.323 506.151 L 221.015 506.092 L 221.708 506.039 L 222.4 505.993 L 223.092 505.954 L 223.785 505.921 L 224.477 505.895 L 225.169 505.876 L 225.862 505.863 L 226.554 505.857 L 227.246 505.858 L 227.939 505.865 L 228.631 505.879 L 229.323 505.9 L 230.016 505.927 L 230.708 505.96 L 231.401 506 L 232.093 506.046 L 232.785 506.099 L 233.478 506.158 L 234.17 506.224 L 234.862 506.296 L 235.555 506.374 L 236.247 506.458 L 236.939 506.549 L 237.632 506.646 L 238.324 506.749 L 239.017 506.859 L 239.709 506.974 L 240.401 507.096 L 241.094 507.224 L 241.786 507.358 L 242.478 507.498 L 243.171 507.645 L 243.863 507.797 L 244.555 507.955 L 245.248 508.12 L 245.94 508.29 L 246.632 508.466 L 247.325 508.648 L 248.017 508.836 L 248.71 509.03 L 249.402 509.23 L 250.094 509.435 L 250.787 509.647 L 251.479 509.864 L 252.171 510.087 L 252.864 510.316 L 253.556 510.55 L 254.248 510.79 L 254.941 511.036 L 255.633 511.287 L 256.325 511.544 L 257.018 511.807 L 257.71 512.075 L 258.403 512.349 L 259.095 512.628 L 259.787 512.913 L 260.48 513.203 L 261.172 513.498 L 261.864 513.799 L 262.557 514.106 L 263.249 514.418 L 263.941 514.735 L 264.634 515.057 L 265.326 515.385 L 266.019 515.718 L 266.711 516.057 L 267.403 516.4 L 268.096 516.749 L 268.788 517.103 L 269.48 517.462 L 270.173 517.827 L 270.865 518.196 L 271.557 518.571 L 272.25 518.95 L 272.942 519.335 L 273.634 519.725 L 274.327 520.119 L 275.019 520.519 L 275.712 520.924 L 276.404 521.333 L 277.096 521.748 L 277.789 522.167 L 278.481 522.591 L 279.173 523.02 L 279.866 523.454 L 280.558 523.893 L 281.25 524.336 L 281.943 524.784 L 282.635 525.237 L 283.327 525.695 L 284.02 526.157 L 284.712 526.624 L 285.405 527.095 L 286.097 527.571 L 286.789 528.052 L 287.482 528.537 L 288.174 529.027 L 288.866 529.521 L 289.559 530.02 L 290.251 530.523 L 290.943 531.03 L 291.636 531.542 L 292.328 532.059 L 293.021 532.579 L 293.713 533.105 L 294.405 533.634 L 295.098 534.168 L 295.79 534.706 L 296.482 535.248 L 297.175 535.794 L 297.867 536.345 L 298.559 536.899 L 299.252 537.458 L 299.944 538.021 L 300.636 538.589 L 301.329 539.16 L 302.021 539.735 L 302.714 540.314 L 303.406 540.898 L 304.098 541.485 L 304.791 542.076 L 305.483 542.671 L 306.175 543.27 L 306.868 543.873 L 307.56 544.48 L 308.252 545.091 L 308.945 545.705 L 309.637 546.323 L 310.329 546.945 L 311.022 547.571 L 311.714 548.201 L 312.407 548.834 L 313.099 549.471 L 313.791 550.111 L 314.484 550.755 L 315.176 551.403 L 315.868 552.055 L 316.561 552.709 L 317.253 553.368 L 317.945 554.03 L 318.638 554.695 L 319.33 555.364 L 320.023 556.036 L 320.715 556.712 L 321.407 557.391 L 322.1 558.074 L 322.792 558.759 L 323.484 559.448 L 324.177 560.141 L 324.869 560.837 L 325.561 561.536 L 326.254 562.238 L 326.946 562.943 L 327.638 563.652 L 328.331 564.363 L 329.023 565.078 L 329.716 565.796 L 330.408 566.517 L 331.1 567.241 L 331.793 567.968 L 332.485 568.698 L 333.177 569.431 L 333.87 570.167 L 334.562 570.906 L 335.254 571.648 L 335.947 572.393 L 336.639 573.141 L 337.331 573.891 L 338.024 574.644 L 338.716 575.4 L 339.409 576.159 L 340.101 576.921 L 340.793 577.685 L 341.486 578.452 L 342.178 579.222 L 342.87 579.995 L 343.563 580.77 L 344.255 581.547 L 344.947 582.327 L 345.64 583.11 L 346.332 583.895 L 347.025 584.683 L 347.717 585.474 L 348.409 586.266 L 349.102 587.062 L 349.794 587.859 L 350.486 588.659 L 351.179 589.462 L 351.871 590.266 L 352.563 591.073 L 353.256 591.883 L 353.948 592.694 L 354.64 593.508 L 355.333 594.324 L 356.025 595.143 L 356.718 595.963 L 357.41 596.786 L 358.102 597.611 L 358.795 598.437 L 359.487 599.266 L 360.179 600.097 L 360.872 600.931 L 361.564 601.766 L 362.256 602.603 L 362.949 603.442 L 363.641 604.283 L 364.334 605.126 L 365.026 605.97 L 365.718 606.817 L 366.411 607.666 L 367.103 608.516 L 367.795 609.368 L 368.488 610.222 L 369.18 611.078 L 369.872 611.935 L 370.565 612.794 L 371.257 613.655 L 371.949 614.518 L 372.642 615.382 L 373.334 616.247 L 374.027 617.115 L 374.719 617.983 L 375.411 618.854 L 376.104 619.726 L 376.796 620.599 L 377.488 621.474 L 378.181 622.35 L 378.873 623.228 L 379.565 624.107 L 380.258 624.988 L 380.95 625.87 L 381.642 626.753 L 382.335 627.637 L 383.027 628.523 L 383.72 629.41 L 384.412 630.298 L 385.104 631.188 L 385.797 632.079 L 386.489 632.97 L 387.181 633.863 L 387.874 634.757 L 388.566 635.653 L 389.258 636.549 L 389.951 637.446 L 390.643 638.344 L 391.336 639.244 L 392.028 640.144 L 392.72 641.045 L 393.413 641.947 L 394.105 642.85 L 394.797 643.754 L 395.49 644.659 L 396.182 645.564 L 396.874 646.471 L 397.567 647.378 L 398.259 648.286 L 398.951 649.195 L 399.644 650.104 L 400.336 651.014 L 401.029 651.925 L 401.721 652.836 L 402.413 653.748 L 403.106 654.661 L 403.798 655.574 L 404.49 656.488 L 405.183 657.402 L 405.875 658.317 L 406.567 659.232 L 407.26 660.147 L 407.952 661.063 L 408.644 661.98 L 409.337 662.897 L 410.029 663.814 L 410.722 664.731 L 411.414 665.649 L 412.106 666.567 L 412.799 667.486 L 413.491 668.404 L 414.183 669.323 L 414.876 670.242 L 415.568 671.161 L 416.26 672.081 L 416.953 673 L 417.645 673.92 L 418.338 674.839 L 419.03 675.759 L 419.722 676.679 L 420.415 677.598 L 421.107 678.518 L 421.799 679.438 L 422.492 680.357 L 423.184 681.277 L 423.876 682.196 L 424.569 683.115 L 425.261 684.034 L 425.953 684.953 L 426.646 685.872 L 427.338 686.79 L 428.031 687.708 L 428.723 688.626 L 429.415 689.544 L 430.108 690.461 L 430.8 691.378 L 431.492 692.294 L 432.185 693.21 L 432.877 694.126 L 433.569 695.041 L 434.262 695.956 L 434.954 696.87 L 435.646 697.784 L 436.339 698.697 L 437.031 699.609 L 437.724 700.521 L 438.416 701.433 L 439.108 702.343 L 439.801 703.253 L 440.493 704.163 L 441.185 705.071 L 441.878 705.979 L 442.57 706.887 L 443.262 707.793 L 443.955 708.699 L 444.647 709.603 L 445.34 710.507 L 446.032 711.41 L 446.724 712.312 L 447.417 713.214 L 448.109 714.114 L 448.801 715.013 L 449.494 715.911 L 450.186 716.809 L 450.878 717.705 L 451.571 718.6 L 452.263 719.494 L 452.955 720.387 L 453.648 721.279 L 454.34 722.17 L 455.033 723.059 L 455.725 723.947 L 456.417 724.834 L 457.11 725.72 L 457.802 726.605 L 458.494 727.488 L 459.187 728.37 L 459.879 729.25 L 460.571 730.129 L 461.264 731.007 L 461.956 731.883 L 462.648 732.758 L 463.341 733.632 L 464.033 734.504 L 464.726 735.374 L 465.418 736.243 L 466.11 737.11 L 466.803 737.976 L 467.495 738.84 L 468.187 739.702 L 468.88 740.563 L 469.572 741.422 L 470.264 742.28 L 470.957 743.135 L 471.649 743.989 L 472.342 744.841 L 473.034 745.692 L 473.726 746.54 L 474.419 747.387 L 475.111 748.232 L 475.803 749.075 L 476.496 749.916 L 477.188 750.755 L 477.88 751.592 L 478.573 752.427 L 479.265 753.26 L 479.957 754.091 L 480.65 754.92 L 481.342 755.747 L 482.035 756.572 L 482.727 757.394 L 483.419 758.215 L 484.112 759.033 L 484.804 759.849 L 485.496 760.663 L 486.189 761.475 L 486.881 762.284 L 487.573 763.091 L 488.266 763.896 L 488.958 764.698 L 489.65 765.498 L 490.343 766.296 L 491.035 767.091 L 491.728 767.884 L 492.42 768.674 L 493.112 769.462 L 493.805 770.247 L 494.497 771.03 L 495.189 771.81 L 495.882 772.588 L 496.574 773.363 L 497.266 774.135 L 497.959 774.905 L 498.651 775.672 L 499.344 776.436 L 500.036 777.198 L 500.728 777.957 L 501.421 778.713 L 502.113 779.466 L 502.805 780.217 L 503.498 780.965 L 504.19 781.709 L 504.882 782.451 L 505.575 783.19 L 506.267 783.926 L 506.959 784.659 L 507.652 785.389 L 508.344 786.116 L 509.037 786.84 L 509.729 787.561 L 510.421 788.279 L 511.114 788.994 L 511.806 789.706 L 512.498 790.414 L 513.191 791.12 L 513.883 791.822 L 514.575 792.521 L 515.268 793.217 L 515.96 793.909 L 516.652 794.598 L 517.345 795.284 L 518.037 795.966 L 518.73 796.645 L 519.422 797.321 L 520.114 797.993 L 520.807 798.662 L 521.499 799.328 L 522.191 799.99 L 522.884 800.648 L 523.576 801.303 L 524.268 801.954 L 524.961 802.602 L 525.653 803.246 L 526.346 803.887 L 527.038 804.523 L 527.73 805.157 L 528.423 805.786 L 529.115 806.412 L 529.807 807.034 L 530.5 807.652 L 531.192 808.267 L 531.884 808.877 L 532.577 809.484 L 533.269 810.087 L 533.961 810.686 L 534.654 811.281 L 535.346 811.873 L 536.039 812.46 L 536.731 813.043 L 537.423 813.622 L 538.116 814.198 L 538.808 814.769 L 539.5 815.336 L 540.193 815.899 L 540.885 816.458 L 541.577 817.013 L 542.27 817.563 L 542.962 818.11 L 543.654 818.652 L 544.347 819.19 L 545.039 819.723 L 545.732 820.253 L 546.424 820.778 L 547.116 821.299 L 547.809 821.815 L 548.501 822.327 L 549.193 822.835 L 549.886 823.338 L 550.578 823.836 L 551.27 824.331 L 551.963 824.82 L 552.655 825.306 L 553.348 825.786 L 554.04 826.262 L 554.732 826.734 L 555.425 827.201 L 556.117 827.663 L 556.809 828.12 L 557.502 828.573 L 558.194 829.021 L 558.886 829.465 L 559.579 829.903 L 560.271 830.337 L 560.963 830.766 L 561.656 831.19 L 562.348 831.61 L 563.041 832.024 L 563.733 832.434 L 564.425 832.838 L 565.118 833.238 L 565.81 833.633 L 566.502 834.022 L 567.195 834.407 L 567.887 834.787 L 568.579 835.161 L 569.272 835.531 L 569.964 835.895 L 570.656 836.254 L 571.349 836.608 L 572.041 836.957 L 572.734 837.301 L 573.426 837.639 L 574.118 837.972 L 574.811 838.3 L 575.503 838.622 L 576.195 838.94 L 576.888 839.252 L 577.58 839.558 L 578.272 839.859 L 578.965 840.155 L 579.657 840.445 L 580.35 840.73 L 581.042 841.009 L 581.734 841.283 L 582.427 841.551 L 583.119 841.813 L 583.811 842.07 L 584.504 842.322 L 585.196 842.567 L 585.888 842.807 L 586.581 843.042 L 587.273 843.27 L 587.965 843.493 L 588.658 843.711 L 589.35 843.922 L 590.043 844.128 L 590.735 844.327 L 591.427 844.521 L 592.12 844.709 L 592.812 844.891 L 593.504 845.068 L 594.197 845.238 L 594.889 845.402 L 595.581 845.56 L 596.274 845.713 L 596.966 845.859 L 597.658 845.999 L 598.351 846.133 L 599.043 846.261 L 599.736 846.383 L 600.428 846.499 L 601.12 846.608 L 601.813 846.711 L 602.505 846.808 L 603.197 846.899 L 603.89 846.984 L 604.582 847.062 L 605.274 847.134 L 605.967 847.199 L 606.659 847.258 L 607.352 847.311 L 608.044 847.358 L 608.736 847.397 L 609.429 847.431 L 610.121 847.458 L 610.813 847.478 L 611.506 847.492 L 612.198 847.499 L 612.89 847.5 L 613.583 847.494 L 614.275 847.482 L 614.967 847.462 L 615.66 847.436 L 616.352 847.404 L 617.045 847.365 L 617.737 847.319 L 618.429 847.266 L 619.122 847.206 L 619.814 847.14 L 620.506 847.066 L 621.199 846.986 L 621.891 846.899 L 622.583 846.805 L 623.276 846.704 L 623.968 846.596 L 624.66 846.481 L 625.353 846.359 L 626.045 846.23 L 626.738 846.094 L 627.43 845.951 L 628.122 845.801 L 628.815 845.644 L 629.507 845.479 L 630.199 845.307 L 630.892 845.129 L 631.584 844.942 L 632.276 844.749 L 632.969 844.548 L 633.661 844.341 L 634.354 844.125 L 635.046 843.903 L 635.738 843.673 L 636.431 843.435 L 637.123 843.191 L 637.815 842.938 L 638.508 842.679 L 639.2 842.411 L 639.892 842.137 L 640.585 841.855 L 641.277 841.565 L 641.969 841.267 L 642.662 840.962 L 643.354 840.65 L 644.047 840.33 L 644.739 840.002 L 645.431 839.666 L 646.124 839.323 L 646.816 838.971 L 647.508 838.613 L 648.201 838.246 L 648.893 837.871 L 649.585 837.489 L 650.278 837.099 L 650.97 836.701 L 651.662 836.295 L 652.355 835.881 L 653.047 835.459 L 653.74 835.029 L 654.432 834.591 L 655.124 834.145 L 655.817 833.691 L 656.509 833.229 L 657.201 832.759 L 657.894 832.281 L 658.586 831.794 L 659.278 831.299 L 659.971 830.797 L 660.663 830.286 L 661.356 829.766 L 662.048 829.239 L 662.74 828.703 L 663.433 828.159 L 664.125 827.606 L 664.817 827.045 L 665.51 826.476 L 666.202 825.898 L 666.894 825.312 L 667.587 824.717 L 668.279 824.114 L 668.971 823.503 L 669.664 822.883 L 670.356 822.254 L 671.049 821.617 L 671.741 820.971 L 672.433 820.316 L 673.126 819.653 L 673.818 818.981 L 674.51 818.301 L 675.203 817.612 L 675.895 816.914 L 676.587 816.207 L 677.28 815.492 L 677.972 814.767 L 678.664 814.034 L 679.357 813.292 L 680.049 812.541 L 680.742 811.781 L 681.434 811.013 L 682.126 810.235 L 682.819 809.448 L 683.511 808.652 L 684.203 807.848 L 684.896 807.034 L 685.588 806.211 L 686.28 805.379 L 686.973 804.538 L 687.665 803.688 L 688.358 802.828 L 689.05 801.96 L 689.742 801.082 L 690.435 800.195 L 691.127 799.299 L 691.819 798.393 L 692.512 797.478 L 693.204 796.554 L 693.896 795.62 L 694.589 794.677 L 695.281 793.725 L 695.973 792.763 L 696.666 791.792 L 697.358 790.811 L 698.051 789.821 L 698.743 788.821 L 699.435 787.811 L 700.128 786.792 L 700.82 785.764 L 701.512 784.726 L 702.205 783.678 L 702.897 782.621 L 703.589 781.553 L 704.282 780.476 L 704.974 779.39 L 705.666 778.294 L 706.359 777.187 L 707.051 776.071 L 707.744 774.946 L 708.436 773.81 L 709.128 772.664 L 709.821 771.509 L 710.513 770.344 L 711.205 769.168 L 711.898 767.983 L 712.59 766.788 L 713.282 765.582 L 713.975 764.367 L 714.667 763.142 L 715.36 761.906 L 716.052 760.66 L 716.744 759.405 L 717.437 758.139 L 718.129 756.862 L 718.821 755.576 L 719.514 754.279 L 720.206 752.973 L 720.898 751.655 L 721.591 750.328 L 722.283 748.99 L 722.975 747.642 L 723.668 746.284 L 724.36 744.915 L 725.053 743.535 L 725.745 742.145 L 726.437 740.745 L 727.13 739.334 L 727.822 737.913 L 728.514 736.481 L 729.207 735.039 L 729.899 733.586 L 730.591 732.122 L 731.284 730.648 L 731.976 729.163 L 732.669 727.667 L 733.361 726.161 L 734.053 724.644 L 734.746 723.116 L 735.438 721.578 L 736.13 720.028 L 736.823 718.468 L 737.515 716.897 L 738.207 715.315 L 738.9 713.722 L 739.592 712.118 L 740.284 710.504 L 740.977 708.878 L 741.669 707.241 L 742.362 705.594 L 743.054 703.935 L 743.746 702.265 L 744.439 700.584 L 745.131 698.892 L 745.823 697.189 L 746.516 695.475 L 747.208 693.749 L 747.9 692.012 L 748.593 690.264 L 749.285 688.505 L 749.977 686.735 L 750.67 684.953 L 751.362 683.16 L 752.055 681.355 L 752.747 679.539 L 753.439 677.712 L 754.132 675.874 L 754.824 674.023 L 755.516 672.162 L 756.209 670.289 L 756.901 668.404 L 757.593 666.508 L 758.286 664.6 L 758.978 662.681 L 759.671 660.75 L 760.363 658.808 L 761.055 656.853 L 761.748 654.888 L 762.44 652.91 L 763.132 650.921 L 763.825 648.92 L 764.517 646.907 L 765.209 644.882 L 765.902 642.846 L 766.594 640.797 L 767.286 638.737 L 767.979 636.665 L 768.671 634.581 L 769.364 632.485 L 770.056 630.377 L 770.748 628.258 L 771.441 626.126 L 772.133 623.982 L 772.825 621.826 L 773.518 619.658 L 774.21 617.477 L 774.902 615.285 L 775.595 613.081 L 776.287 610.864 L 776.979 608.635 L 777.672 606.394 L 778.364 604.141 L 779.057 601.875 L 779.749 599.597 L 780.441 597.307 L 781.134 595.004 L 781.826 592.689 L 782.518 590.362 L 783.211 588.022 L 783.903 585.67 L 784.595 583.305 L 785.288 580.928 L 785.98 578.538 L 786.673 576.136 L 787.365 573.721 L 788.057 571.294 L 788.75 568.854 L 789.442 566.401 L 790.134 563.936 L 790.827 561.458 L 791.519 558.968 L 792.211 556.464 L 792.904 553.948 L 793.596 551.419 L 794.288 548.878 L 794.981 546.323 L 795.673 543.756 L 796.366 541.176 L 797.058 538.583 L 797.75 535.977 L 798.443 533.358 L 799.135 530.726 L 799.827 528.081 L 800.52 525.423 L 801.212 522.752 L 801.904 520.068 L 802.597 517.371 L 803.289 514.661 L 803.981 511.937 L 804.674 509.201 L 805.366 506.451 L 806.059 503.689 L 806.751 500.913 L 807.443 498.123 L 808.136 495.321 L 808.828 492.505 L 809.52 489.676 L 810.213 486.833 L 810.905 483.977 L 811.597 481.108 L 812.29 478.225 L 812.982 475.329 L 813.675 472.42 L 814.367 469.497 L 815.059 466.56 L 815.752 463.61 L 816.444 460.646 L 817.136 457.669 L 817.829 454.678 L 818.521 451.674 L 819.213 448.656 L 819.906 445.624 L 820.598 442.578 L 821.29 439.519 L 821.983 436.446 L 822.675 433.359 L 823.368 430.259 L 824.06 427.145 L 824.752 424.016 L 825.445 420.874 L 826.137 417.719 L 826.829 414.549 L 827.522 411.365 L 828.214 408.167 L 828.906 404.956 L 829.599 401.73 L 830.291 398.49 L 830.983 395.236 L 831.676 391.969 L 832.368 388.687 L 833.061 385.391 L 833.753 382.08 L 834.445 378.756 L 835.138 375.417 L 835.83 372.065 L 836.522 368.698 L 837.215 365.316 L 837.907 361.921 L 838.599 358.511 L 839.292 355.086 L 839.984 351.648 L 840.677 348.195 L 841.369 344.727 L 842.061 341.246 L 842.754 337.749 L 843.446 334.239 L 844.138 330.713 L 844.831 327.174 L 845.523 323.619 L 846.215 320.05 L 846.908 316.467 L 847.6 312.869 L 848.292 309.256 L 848.985 305.628 L 849.677 301.986 L 850.37 298.329 L 851.062 294.658 L 851.754 290.972 L 852.447 287.27 L 853.139 283.554 L 853.831 279.824 L 854.524 276.078 L 855.216 272.317 L 855.908 268.542 L 856.601 264.752 L 857.293 260.946 L 857.985 257.126 L 858.678 253.291 L 859.37 249.441 L 860.063 245.575 L 860.755 241.695 L 861.447 237.799 L 862.14 233.889 L 862.832 229.963 L 863.524 226.022 L 864.217 222.066 L 864.909 218.094 L 865.601 214.108 L 866.294 210.106 L 866.986 206.089 L 867.679 202.056 L 868.371 198.009 L 869.063 193.945 L 869.756 189.867 L 870.448 185.773 L 871.14 181.664 L 871.833 177.539 L 872.525 173.399 L 873.217 169.243 L 873.91 165.072 L 874.602 160.885 L 875.294 156.682 L 875.987 152.464 L 876.679 148.231 L 877.372 143.982 L 878.064 139.717 L 878.756 135.436 L 879.449 131.14 L 880.141 126.828 L 880.833 122.5" stroke-width="3" stroke-dasharray="" stroke="black" stroke-opacity="1" fill="none" />
</g>
<g id="frame_0">
    <rect id="frame_0_border" x="120" y="50" width="830" height="870" />
    <g id="frame_0_bottomticks">
        <path d="M 535 920 L 535 910" />
        <path d="M 189.167 920 L 189.167 900" />
        <text font-size="30" transform="translate(189.167, 950)" text-anchor="middle" dominant-baseline="middle" stroke="none" fill="black">0</text>
        <path d="M 950 920 L 950 910" />
        <path d="M 258.333 920 L 258.333 910" />
        <path d="M 880.833 920 L 880.833 900" />
        <text font-size="30" transform="translate(880.833, 950)" text-anchor="middle" dominant-baseline="middle" stroke="none" fill="black">1</text>
        <path d="M 742.5 920 L 742.5 900" />
        <text font-size="30" transform="translate(742.5, 950)" text-anchor="middle" dominant-baseline="middle" stroke="none" fill="black">0.8</text>
        <path d="M 604.167 920 L 604.167 900" />
        <text font-size="30" transform="translate(604.167, 950)" text-anchor="middle" dominant-baseline="middle" stroke="none" fill="black">0.6</text>
        <path d="M 396.667 920 L 396.667 910" />
        <path d="M 465.833 920 L 465.833 900" />
        <text font-size="30" transform="translate(465.833, 950)" text-anchor="middle" dominant-baseline="middle" stroke="none" fill="black">0.4</text>
        <path d="M 811.667 920 L 811.667 910" />
        <path d="M 673.333 920 L 673.333 910" />
        <path d="M 120 920 L 120 910" />
        <path d="M 327.5 920 L 327.5 900" />
        <text font-size="30" transform="translate(327.5, 950)" text-anchor="middle" dominant-baseline="middle" stroke="none" fill="black">0.2</text>
    </g>
    <g id="frame_0_leftticks">
        <path d="M 120 713.138 L 140 713.138" />
        <text font-size="30" transform="translate(110, 723.138)" text-anchor="end" dominant-baseline="middle" stroke="none" fill="black">‒0.5</text>
        <path d="M 120 516.259 L 140 516.259" />
        <text font-size="30" transform="translate(110, 526.259)" text-anchor="end" dominant-baseline="middle" stroke="none" fill="black">0</text>
        <path d="M 120 319.379 L 140 319.379" />
        <text font-size="30" transform="translate(110, 329.379)" text-anchor="end" dominant-baseline="middle" stroke="none" fill="black">0.5</text>
        <path d="M 120 122.5 L 140 122.5" />
        <text font-size="30" transform="translate(110, 132.5)" text-anchor="end" dominant-baseline="middle" stroke="none" fill="black">1</text>
        <path d="M 120 398.131 L 130 398.131" />
        <path d="M 120 555.634 L 130 555.634" />
        <path d="M 120 280.003 L 130 280.003" />
        <path d="M 120 870.641 L 130 870.641" />
        <path d="M 120 240.628 L 130 240.628" />
        <path d="M 120 595.01 L 130 595.01" />
        <path d="M 120 831.265 L 130 831.265" />
        <path d="M 120 673.762 L 130 673.762" />
        <path d="M 120 437.507 L 130 437.507" />
        <path d="M 120 201.252 L 130 201.252" />
        <path d="M 120 791.89 L 130 791.89" />
        <path d="M 120 476.883 L 130 476.883" />
        <path d="M 120 161.876 L 130 161.876" />
        <path d="M 120 634.386 L 130 634.386" />
        <path d="M 120 358.755 L 130 358.755" />
        <path d="M 120 752.514 L 130 752.514" />
        <path d="M 120 83.1241 L 130 83.1241" />
        <path d="M 120 910.017 L 140 910.017" />
        <text font-size="30" transform="translate(110, 920.017)" text-anchor="end" dominant-baseline="middle" stroke="none" fill="black">‒1</text>
    </g>
    <g id="frame_0_topticks">
        <path d="M 535 50 L 535 60" />
        <path d="M 189.167 50 L 189.167 70" />
        <path d="M 950 50 L 950 60" />
        <path d="M 258.333 50 L 258.333 60" />
        <path d="M 880.833 50 L 880.833 70" />
        <path d="M 742.5 50 L 742.5 70" />
        <path d="M 604.167 50 L 604.167 70" />
        <path d="M 396.667 50 L 396.667 60" />
        <path d="M 465.833 50 L 465.833 70" />
        <path d="M 811.667 50 L 811.667 60" />
        <path d="M 673.333 50 L 673.333 60" />
        <path d="M 120 50 L 120 60" />
        <path d="M 327.5 50 L 327.5 70" />
    </g>
    <g id="frame_0_rightticks">
        <path d="M 950 713.138 L 930 713.138" />
        <path d="M 950 516.259 L 930 516.259" />
        <path d="M 950 319.379 L 930 319.379" />
        <path d="M 950 122.5 L 930 122.5" />
        <path d="M 950 398.131 L 940 398.131" />
        <path d="M 950 555.634 L 940 555.634" />
        <path d="M 950 280.003 L 940 280.003" />
        <path d="M 950 870.641 L 940 870.641" />
        <path d="M 950 240.628 L 940 240.628" />
        <path d="M 950 595.01 L 940 595.01" />
        <path d="M 950 831.265 L 940 831.265" />
        <path d="M 950 673.762 L 940 673.762" />
        <path d="M 950 437.507 L 940 437.507" />
        <path d="M 950 201.252 L 940 201.252" />
        <path d="M 950 791.89 L 940 791.89" />
        <path d="M 950 476.883 L 940 476.883" />
        <path d="M 950 161.876 L 940 161.876" />
        <path d="M 950 634.386 L 940 634.386" />
        <path d="M 950 358.755 L 940 358.755" />
        <path d="M 950 752.514 L 940 752.514" />
        <path d="M 950 83.1241 L 940 83.1241" />
        <path d="M 950 910.017 L 930 910.017" />
    </g>
</g>
</g>
</svg>
