<?xml version="1.0" standalone="no"?>
<!DOCTYPE svg PUBLIC "-//W3C//DTD SVG 1.1//EN" "http://www.w3.org/Graphics/SVG/1.1/DTD/svg11.dtd">
<svg style="stroke-linejoin:miter; stroke:black; stroke-width:2.5; text-anchor:middle; fill:none" xmlns="http://www.w3.org/2000/svg" font-family="Helvetica, Arial, FreeSans, Sans, sans, sans-serif" width="1000px" height="1000px" version="1.1" xmlns:xlink="http://www.w3.org/1999/xlink" viewBox="0 0 1000 1000">
<defs>
    <clipPath id="Histogram_0_clip">
        <rect x="120" y="50" width="830" height="870" />
    </clipPath>
</defs>
<g id="whole_document">
<rect id="background" x="0" y="0" width="1000" height="1000" stroke="none" fill="white" />
<g id="Histogram_0" clip-path="url(#Histogram_0_clip)">
    <path d="M 120 920 L 120 920 L 122.07 920 L 122.07 918.691 L 124.14 918.691 L 124.14 920 L 126.209 920 L 126.209 919.564 L 128.279 919.564 L 128.279 919.127 L 130.349 919.127 L 130.349 916.508 L 132.419 916.508 L 132.419 915.853 L 134.489 915.853 L 134.489 912.362 L 136.559 912.362 L 136.559 905.814 L 138.628 905.814 L 138.628 897.739 L 140.698 897.739 L 140.698 893.811 L 142.768 893.811 L 142.768 890.756 L 144.838 890.756 L 144.838 887.7 L 146.908 887.7 L 146.908 883.99 L 148.978 883.99 L 148.978 878.97 L 151.047 878.97 L 151.047 871.114 L 153.117 871.114 L 153.117 867.84 L 155.187 867.84 L 155.187 865.439 L 157.257 865.439 L 157.257 858.456 L 159.327 858.456 L 159.327 855.837 L 161.397 855.837 L 161.397 851.036 L 163.466 851.036 L 163.466 855.4 L 165.536 855.4 L 165.536 844.707 L 167.606 844.707 L 167.606 837.068 L 169.676 837.068 L 169.676 840.996 L 171.746 840.996 L 171.746 829.43 L 173.815 829.43 L 173.815 839.905 L 175.885 839.905 L 175.885 838.814 L 177.955 838.814 L 177.955 830.084 L 180.025 830.084 L 180.025 837.286 L 182.095 837.286 L 182.095 830.957 L 184.165 830.957 L 184.165 825.719 L 186.234 825.719 L 186.234 828.338 L 188.304 828.338 L 188.304 821.791 L 190.374 821.791 L 190.374 820.045 L 192.444 820.045 L 192.444 824.628 L 194.514 824.628 L 194.514 827.684 L 196.584 827.684 L 196.584 823.755 L 198.653 823.755 L 198.653 832.485 L 200.723 832.485 L 200.723 836.85 L 202.793 836.85 L 202.793 833.14 L 204.863 833.14 L 204.863 829.866 L 206.933 829.866 L 206.933 842.961 L 209.002 842.961 L 209.002 839.032 L 211.072 839.032 L 211.072 839.032 L 213.142 839.032 L 213.142 843.615 L 215.212 843.615 L 215.212 842.742 L 217.282 842.742 L 217.282 847.325 L 219.352 847.325 L 219.352 841.869 L 221.421 841.869 L 221.421 847.325 L 223.491 847.325 L 223.491 841.215 L 225.561 841.215 L 225.561 834.013 L 227.631 834.013 L 227.631 838.377 L 229.701 838.377 L 229.701 825.283 L 231.771 825.283 L 231.771 819.172 L 233.84 819.172 L 233.84 805.205 L 235.91 805.205 L 235.91 812.188 L 237.98 812.188 L 237.98 810.006 L 240.05 810.006 L 240.05 816.772 L 242.12 816.772 L 242.12 806.514 L 244.19 806.514 L 244.19 801.276 L 246.259 801.276 L 246.259 805.641 L 248.329 805.641 L 248.329 805.859 L 250.399 805.859 L 250.399 812.407 L 252.469 812.407 L 252.469 807.387 L 254.539 807.387 L 254.539 800.185 L 256.608 800.185 L 256.608 796.911 L 258.678 796.911 L 258.678 785.563 L 260.748 785.563 L 260.748 774.651 L 262.818 774.651 L 262.818 769.849 L 264.888 769.849 L 264.888 757.191 L 266.958 757.191 L 266.958 746.498 L 269.027 746.498 L 269.027 726.419 L 271.097 726.419 L 271.097 705.25 L 273.167 705.25 L 273.167 699.794 L 275.237 699.794 L 275.237 681.025 L 277.307 681.025 L 277.307 641.305 L 279.377 641.305 L 279.377 617.953 L 281.446 617.953 L 281.446 619.699 L 283.516 619.699 L 283.516 582.598 L 285.586 582.598 L 285.586 573.213 L 287.656 573.213 L 287.656 555.536 L 289.726 555.536 L 289.726 543.314 L 291.796 543.314 L 291.796 537.203 L 293.865 537.203 L 293.865 486.571 L 295.935 486.571 L 295.935 466.057 L 298.005 466.057 L 298.005 457.327 L 300.075 457.327 L 300.075 422.845 L 302.145 422.845 L 302.145 404.731 L 304.214 404.731 L 304.214 372.431 L 306.284 372.431 L 306.284 350.17 L 308.354 350.17 L 308.354 326.163 L 310.424 326.163 L 310.424 305.212 L 312.494 305.212 L 312.494 281.206 L 314.564 281.206 L 314.564 255.453 L 316.633 255.453 L 316.633 245.414 L 318.703 245.414 L 318.703 203.73 L 320.773 203.73 L 320.773 193.036 L 322.843 193.036 L 322.843 205.257 L 324.913 205.257 L 324.913 171.212 L 326.983 171.212 L 326.983 173.612 L 329.052 173.612 L 329.052 162.918 L 331.122 162.918 L 331.122 129.091 L 333.192 129.091 L 333.192 155.716 L 335.262 155.716 L 335.262 152.661 L 337.332 152.661 L 337.332 145.023 L 339.401 145.023 L 339.401 160.736 L 341.471 160.736 L 341.471 156.371 L 343.541 156.371 L 343.541 187.143 L 345.611 187.143 L 345.611 237.775 L 347.681 237.775 L 347.681 264.837 L 349.751 264.837 L 349.751 270.075 L 351.82 270.075 L 351.82 321.362 L 353.89 321.362 L 353.89 340.567 L 355.96 340.567 L 355.96 375.923 L 358.03 375.923 L 358.03 401.893 L 360.1 401.893 L 360.1 445.76 L 362.17 445.76 L 362.17 469.112 L 364.239 469.112 L 364.239 499.884 L 366.309 499.884 L 366.309 521.708 L 368.379 521.708 L 368.379 556.409 L 370.449 556.409 L 370.449 573.213 L 372.519 573.213 L 372.519 589.145 L 374.589 589.145 L 374.589 654.618 L 376.658 654.618 L 376.658 655.927 L 378.728 655.927 L 378.728 667.93 L 380.798 667.93 L 380.798 719.872 L 382.868 719.872 L 382.868 729.911 L 384.938 729.911 L 384.938 757.41 L 387.007 757.41 L 387.007 775.742 L 389.077 775.742 L 389.077 780.762 L 391.147 780.762 L 391.147 800.185 L 393.217 800.185 L 393.217 815.899 L 395.287 815.899 L 395.287 816.772 L 397.357 816.772 L 397.357 836.632 L 399.426 836.632 L 399.426 841.869 L 401.496 841.869 L 401.496 848.198 L 403.566 848.198 L 403.566 852.345 L 405.636 852.345 L 405.636 854.527 L 407.706 854.527 L 407.706 871.55 L 409.776 871.55 L 409.776 864.567 L 411.845 864.567 L 411.845 880.716 L 413.915 880.716 L 413.915 880.498 L 415.985 880.498 L 415.985 883.99 L 418.055 883.99 L 418.055 883.99 L 420.125 883.99 L 420.125 890.974 L 422.195 890.974 L 422.195 889.446 L 424.264 889.446 L 424.264 891.41 L 426.334 891.41 L 426.334 895.775 L 428.404 895.775 L 428.404 894.247 L 430.474 894.247 L 430.474 899.703 L 432.544 899.703 L 432.544 896.648 L 434.613 896.648 L 434.613 899.703 L 436.683 899.703 L 436.683 900.576 L 438.753 900.576 L 438.753 906.251 L 440.823 906.251 L 440.823 902.977 L 442.893 902.977 L 442.893 905.378 L 444.963 905.378 L 444.963 907.997 L 447.032 907.997 L 447.032 905.814 L 449.102 905.814 L 449.102 907.342 L 451.172 907.342 L 451.172 910.179 L 453.242 910.179 L 453.242 910.834 L 455.312 910.834 L 455.312 909.961 L 457.382 909.961 L 457.382 912.798 L 459.451 912.798 L 459.451 913.016 L 461.521 913.016 L 461.521 911.052 L 463.591 911.052 L 463.591 912.362 L 465.661 912.362 L 465.661 914.762 L 467.731 914.762 L 467.731 911.707 L 469.8 911.707 L 469.8 914.326 L 471.87 914.326 L 471.87 912.362 L 473.94 912.362 L 473.94 913.889 L 476.01 913.889 L 476.01 913.889 L 478.08 913.889 L 478.08 915.635 L 480.15 915.635 L 480.15 915.199 L 482.219 915.199 L 482.219 914.762 L 484.289 914.762 L 484.289 916.29 L 486.359 916.29 L 486.359 916.508 L 488.429 916.508 L 488.429 916.726 L 490.499 916.726 L 490.499 915.635 L 492.569 915.635 L 492.569 915.853 L 494.638 915.853 L 494.638 916.726 L 496.708 916.726 L 496.708 916.29 L 498.778 916.29 L 498.778 916.726 L 500.848 916.726 L 500.848 916.29 L 502.918 916.29 L 502.918 917.818 L 504.988 917.818 L 504.988 916.072 L 507.057 916.072 L 507.057 916.072 L 509.127 916.072 L 509.127 918.691 L 511.197 918.691 L 511.197 918.254 L 513.267 918.254 L 513.267 918.254 L 515.337 918.254 L 515.337 918.254 L 517.406 918.254 L 517.406 918.472 L 519.476 918.472 L 519.476 918.254 L 521.546 918.254 L 521.546 918.472 L 523.616 918.472 L 523.616 918.254 L 525.686 918.254 L 525.686 919.127 L 527.756 919.127 L 527.756 918.909 L 529.825 918.909 L 529.825 918.691 L 531.895 918.691 L 531.895 919.345 L 533.965 919.345 L 533.965 919.127 L 536.035 919.127 L 536.035 918.909 L 538.105 918.909 L 538.105 919.345 L 540.175 919.345 L 540.175 919.345 L 542.244 919.345 L 542.244 919.564 L 544.314 919.564 L 544.314 919.345 L 546.384 919.345 L 546.384 919.345 L 548.454 919.345 L 548.454 919.564 L 550.524 919.564 L 550.524 919.127 L 552.594 919.127 L 552.594 919.564 L 554.663 919.564 L 554.663 919.345 L 556.733 919.345 L 556.733 919.127 L 558.803 919.127 L 558.803 918.909 L 560.873 918.909 L 560.873 919.782 L 562.943 919.782 L 562.943 919.345 L 565.012 919.345 L 565.012 919.782 L 567.082 919.782 L 567.082 919.127 L 569.152 919.127 L 569.152 918.909 L 571.222 918.909 L 571.222 919.782 L 573.292 919.782 L 573.292 919.564 L 575.362 919.564 L 575.362 920 L 577.431 920 L 577.431 919.782 L 579.501 919.782 L 579.501 919.782 L 581.571 919.782 L 581.571 919.782 L 583.641 919.782 L 583.641 919.782 L 585.711 919.782 L 585.711 920 L 587.781 920 L 587.781 919.564 L 589.85 919.564 L 589.85 919.782 L 591.92 919.782 L 591.92 919.564 L 593.99 919.564 L 593.99 920 L 596.06 920 L 596.06 919.782 L 598.13 919.782 L 598.13 920 L 600.2 920 L 600.2 919.782 L 602.269 919.782 L 602.269 919.564 L 604.339 919.564 L 604.339 919.782 L 606.409 919.782 L 606.409 919.782 L 608.479 919.782 L 608.479 919.564 L 610.549 919.564 L 610.549 919.782 L 612.618 919.782 L 612.618 919.782 L 614.688 919.782 L 614.688 918.254 L 616.758 918.254 L 616.758 917.381 L 618.828 917.381 L 618.828 910.616 L 620.898 910.616 L 620.898 906.033 L 622.968 906.033 L 622.968 909.524 L 625.037 909.524 L 625.037 913.453 L 627.107 913.453 L 627.107 916.508 L 629.177 916.508 L 629.177 918.472 L 631.247 918.472 L 631.247 918.254 L 633.317 918.254 L 633.317 919.564 L 635.387 919.564 L 635.387 919.345 L 637.456 919.345 L 637.456 919.782 L 639.526 919.782 L 639.526 919.782 L 641.596 919.782 L 641.596 919.782 L 643.666 919.782 L 643.666 919.345 L 645.736 919.345 L 645.736 919.782 L 647.805 919.782 L 647.805 919.564 L 649.875 919.564 L 649.875 919.782 L 651.945 919.782 L 651.945 919.782 L 654.015 919.782 L 654.015 919.564 L 656.085 919.564 L 656.085 919.782 L 658.155 919.782 L 658.155 920 L 660.224 920 L 660.224 919.782 L 662.294 919.782 L 662.294 919.782 L 664.364 919.782 L 664.364 919.564 L 666.434 919.564 L 666.434 920 L 668.504 920 L 668.504 920 L 670.574 920 L 670.574 919.564 L 672.643 919.564 L 672.643 919.782 L 674.713 919.782 L 674.713 920 L 676.783 920 L 676.783 920 L 678.853 920 L 678.853 920 L 680.923 920 L 680.923 919.782 L 682.993 919.782 L 682.993 919.782 L 685.062 919.782 L 685.062 920 L 687.132 920 L 687.132 919.782 L 689.202 919.782 L 689.202 920 L 691.272 920 L 691.272 919.782 L 693.342 919.782 L 693.342 920 L 695.411 920 L 695.411 919.782 L 697.481 919.782 L 697.481 920 L 699.551 920 L 699.551 919.564 L 701.621 919.564 L 701.621 919.782 L 703.691 919.782 L 703.691 920 L 705.761 920 L 705.761 920 L 707.83 920 L 707.83 920 L 709.9 920 L 709.9 919.564 L 711.97 919.564 L 711.97 919.782 L 714.04 919.782 L 714.04 920 L 716.11 920 L 716.11 920 L 718.18 920 L 718.18 919.564 L 720.249 919.564 L 720.249 919.564 L 722.319 919.564 L 722.319 920 L 724.389 920 L 724.389 919.564 L 726.459 919.564 L 726.459 920 L 728.529 920 L 728.529 920 L 730.599 920 L 730.599 920 L 732.668 920 L 732.668 920 L 734.738 920 L 734.738 920 L 736.808 920 L 736.808 919.782 L 738.878 919.782 L 738.878 920 L 740.948 920 L 740.948 920 L 743.017 920 L 743.017 920 L 745.087 920 L 745.087 920 L 747.157 920 L 747.157 919.782 L 749.227 919.782 L 749.227 920 L 751.297 920 L 751.297 920 L 753.367 920 L 753.367 920 L 755.436 920 L 755.436 920 L 757.506 920 L 757.506 920 L 759.576 920 L 759.576 920 L 761.646 920 L 761.646 920 L 763.716 920 L 763.716 920 L 765.786 920 L 765.786 920 L 767.855 920 L 767.855 920 L 769.925 920 L 769.925 920 L 771.995 920 L 771.995 920 L 774.065 920 L 774.065 920 L 776.135 920 L 776.135 920 L 778.204 920 L 778.204 920 L 780.274 920 L 780.274 920 L 782.344 920 L 782.344 920 L 784.414 920 L 784.414 919.782 L 786.484 919.782 L 786.484 920 L 788.554 920 L 788.554 920 L 790.623 920 L 790.623 920 L 792.693 920 L 792.693 920 L 794.763 920 L 794.763 920 L 796.833 920 L 796.833 920 L 798.903 920 L 798.903 920 L 800.973 920 L 800.973 920 L 803.042 920 L 803.042 920 L 805.112 920 L 805.112 920 L 807.182 920 L 807.182 920 L 809.252 920 L 809.252 919.782 L 811.322 919.782 L 811.322 920 L 813.392 920 L 813.392 919.782 L 815.461 919.782 L 815.461 920 L 817.531 920 L 817.531 920 L 819.601 920 L 819.601 920 L 821.671 920 L 821.671 920 L 823.741 920 L 823.741 920 L 825.81 920 L 825.81 920 L 827.88 920 L 827.88 920 L 829.95 920 L 829.95 920 L 832.02 920 L 832.02 919.782 L 834.09 919.782 L 834.09 920 L 836.16 920 L 836.16 919.782 L 838.229 919.782 L 838.229 920 L 840.299 920 L 840.299 920 L 842.369 920 L 842.369 920 L 844.439 920 L 844.439 920 L 846.509 920 L 846.509 920 L 848.579 920 L 848.579 919.782 L 850.648 919.782 L 850.648 920 L 852.718 920 L 852.718 920 L 854.788 920 L 854.788 919.782 L 856.858 919.782 L 856.858 920 L 858.928 920 L 858.928 920 L 860.998 920 L 860.998 920 L 863.067 920 L 863.067 920 L 865.137 920 L 865.137 920 L 867.207 920 L 867.207 920 L 869.277 920 L 869.277 920 L 871.347 920 L 871.347 920 L 873.416 920 L 873.416 920 L 875.486 920 L 875.486 919.564 L 877.556 919.564 L 877.556 920 L 879.626 920 L 879.626 920 L 881.696 920 L 881.696 920 L 883.766 920 L 883.766 920 L 885.835 920 L 885.835 920 L 887.905 920 L 887.905 919.782 L 889.975 919.782 L 889.975 920 L 892.045 920 L 892.045 920 L 894.115 920 L 894.115 919.782 L 896.185 919.782 L 896.185 920 L 898.254 920 L 898.254 920 L 900.324 920 L 900.324 920 L 902.394 920 L 902.394 920 L 904.464 920 L 904.464 920 L 906.534 920 L 906.534 920 L 908.603 920 L 908.603 920 L 910.673 920 L 910.673 919.782 L 912.743 919.782 L 912.743 920 L 914.813 920 L 914.813 920 L 916.883 920 L 916.883 920 L 918.953 920 L 918.953 920 L 921.022 920 L 921.022 920 L 923.092 920 L 923.092 920 L 925.162 920 L 925.162 920 L 927.232 920 L 927.232 919.782 L 929.302 919.782 L 929.302 920 L 931.372 920 L 931.372 920 L 933.441 920 L 933.441 920 L 935.511 920 L 935.511 920 L 937.581 920 L 937.581 920 L 939.651 920 L 939.651 920 L 941.721 920 L 941.721 919.782 L 943.791 919.782 L 943.791 920 L 945.86 920 L 945.86 920 L 947.93 920 L 947.93 920 L 950 920 L 950 920" stroke-width="3" stroke-dasharray="" stroke="black" stroke-opacity="1" fill="none" fill-opacity="1" />
</g>
<g id="frame_0">
    <rect id="frame_0_border" x="120" y="50" width="830" height="870" />
    <text id="frame_0_bottomlabel" font-size="30" transform="translate(535, 989.6)" text-anchor="middle" dominant-baseline="middle" stroke="none" fill="black">speed</text>
    <g id="frame_0_bottomticks">
        <path d="M 120 920 L 120 900" />
        <text font-size="30" transform="translate(120, 950)" text-anchor="middle" dominant-baseline="middle" stroke="none" fill="black">0</text>
        <path d="M 950 920 L 950 900" />
        <text font-size="30" transform="translate(950, 950)" text-anchor="middle" dominant-baseline="middle" stroke="none" fill="black">100</text>
        <path d="M 701 920 L 701 910" />
        <path d="M 452 920 L 452 900" />
        <text font-size="30" transform="translate(452, 950)" text-anchor="middle" dominant-baseline="middle" stroke="none" fill="black">40</text>
        <path d="M 203 920 L 203 910" />
        <path d="M 784 920 L 784 900" />
        <text font-size="30" transform="translate(784, 950)" text-anchor="middle" dominant-baseline="middle" stroke="none" fill="black">80</text>
        <path d="M 535 920 L 535 910" />
        <path d="M 286 920 L 286 900" />
        <text font-size="30" transform="translate(286, 950)" text-anchor="middle" dominant-baseline="middle" stroke="none" fill="black">20</text>
        <path d="M 867 920 L 867 910" />
        <path d="M 618 920 L 618 900" />
        <text font-size="30" transform="translate(618, 950)" text-anchor="middle" dominant-baseline="middle" stroke="none" fill="black">60</text>
        <path d="M 369 920 L 369 910" />
    </g>
    <g id="frame_0_leftticks">
        <path d="M 120 221.626 L 130 221.626" />
        <path d="M 120 920 L 140 920" />
        <text font-size="30" transform="translate(110, 930)" text-anchor="end" dominant-baseline="middle" stroke="none" fill="black">0</text>
        <path d="M 120 723.582 L 130 723.582" />
        <path d="M 120 527.164 L 130 527.164" />
        <path d="M 120 156.153 L 140 156.153" />
        <text font-size="30" transform="translate(110, 166.153)" text-anchor="end" dominant-baseline="middle" stroke="none" fill="black">3500</text>
        <path d="M 120 330.747 L 130 330.747" />
        <path d="M 120 832.703 L 130 832.703" />
        <path d="M 120 90.6803 L 130 90.6803" />
        <path d="M 120 636.285 L 130 636.285" />
        <path d="M 120 439.868 L 130 439.868" />
        <path d="M 120 243.45 L 130 243.45" />
        <path d="M 120 745.406 L 130 745.406" />
        <path d="M 120 548.989 L 130 548.989" />
        <path d="M 120 352.571 L 130 352.571" />
        <path d="M 120 854.527 L 130 854.527" />
        <path d="M 120 658.11 L 130 658.11" />
        <path d="M 120 177.977 L 130 177.977" />
        <path d="M 120 461.692 L 130 461.692" />
        <path d="M 120 265.274 L 140 265.274" />
        <text font-size="30" transform="translate(110, 275.274)" text-anchor="end" dominant-baseline="middle" stroke="none" fill="black">3000</text>
        <path d="M 120 810.879 L 140 810.879" />
        <text font-size="30" transform="translate(110, 820.879)" text-anchor="end" dominant-baseline="middle" stroke="none" fill="black">500</text>
        <path d="M 120 767.231 L 130 767.231" />
        <path d="M 120 570.813 L 130 570.813" />
        <path d="M 120 374.395 L 140 374.395" />
        <text font-size="30" transform="translate(110, 384.395)" text-anchor="end" dominant-baseline="middle" stroke="none" fill="black">2500</text>
        <path d="M 120 876.352 L 130 876.352" />
        <path d="M 120 679.934 L 130 679.934" />
        <path d="M 120 483.516 L 140 483.516" />
        <text font-size="30" transform="translate(110, 493.516)" text-anchor="end" dominant-baseline="middle" stroke="none" fill="black">2000</text>
        <path d="M 120 287.098 L 130 287.098" />
        <path d="M 120 789.055 L 130 789.055" />
        <path d="M 120 199.801 L 130 199.801" />
        <path d="M 120 592.637 L 140 592.637" />
        <text font-size="30" transform="translate(110, 602.637)" text-anchor="end" dominant-baseline="middle" stroke="none" fill="black">1500</text>
        <path d="M 120 396.219 L 130 396.219" />
        <path d="M 120 134.329 L 130 134.329" />
        <path d="M 120 898.176 L 130 898.176" />
        <path d="M 120 701.758 L 140 701.758" />
        <text font-size="30" transform="translate(110, 711.758)" text-anchor="end" dominant-baseline="middle" stroke="none" fill="black">1000</text>
        <path d="M 120 68.8561 L 130 68.8561" />
        <path d="M 120 505.34 L 130 505.34" />
        <path d="M 120 308.922 L 130 308.922" />
        <path d="M 120 112.505 L 130 112.505" />
        <path d="M 120 614.461 L 130 614.461" />
        <path d="M 120 418.043 L 130 418.043" />
    </g>
    <g id="frame_0_topticks">
        <path d="M 120 50 L 120 70" />
        <path d="M 950 50 L 950 70" />
        <path d="M 701 50 L 701 60" />
        <path d="M 452 50 L 452 70" />
        <path d="M 203 50 L 203 60" />
        <path d="M 784 50 L 784 70" />
        <path d="M 535 50 L 535 60" />
        <path d="M 286 50 L 286 70" />
        <path d="M 867 50 L 867 60" />
        <path d="M 618 50 L 618 70" />
        <path d="M 369 50 L 369 60" />
    </g>
    <g id="frame_0_rightticks">
        <path d="M 950 221.626 L 940 221.626" />
        <path d="M 950 920 L 930 920" />
        <path d="M 950 723.582 L 940 723.582" />
        <path d="M 950 527.164 L 940 527.164" />
        <path d="M 950 156.153 L 930 156.153" />
        <path d="M 950 330.747 L 940 330.747" />
        <path d="M 950 832.703 L 940 832.703" />
        <path d="M 950 90.6803 L 940 90.6803" />
        <path d="M 950 636.285 L 940 636.285" />
        <path d="M 950 439.868 L 940 439.868" />
        <path d="M 950 243.45 L 940 243.45" />
        <path d="M 950 745.406 L 940 745.406" />
        <path d="M 950 548.989 L 940 548.989" />
        <path d="M 950 352.571 L 940 352.571" />
        <path d="M 950 854.527 L 940 854.527" />
        <path d="M 950 658.11 L 940 658.11" />
        <path d="M 950 177.977 L 940 177.977" />
        <path d="M 950 461.692 L 940 461.692" />
        <path d="M 950 265.274 L 930 265.274" />
        <path d="M 950 810.879 L 930 810.879" />
        <path d="M 950 767.231 L 940 767.231" />
        <path d="M 950 570.813 L 940 570.813" />
        <path d="M 950 374.395 L 930 374.395" />
        <path d="M 950 876.352 L 940 876.352" />
        <path d="M 950 679.934 L 940 679.934" />
        <path d="M 950 483.516 L 930 483.516" />
        <path d="M 950 287.098 L 940 287.098" />
        <path d="M 950 789.055 L 940 789.055" />
        <path d="M 950 199.801 L 940 199.801" />
        <path d="M 950 592.637 L 930 592.637" />
        <path d="M 950 396.219 L 940 396.219" />
        <path d="M 950 134.329 L 940 134.329" />
        <path d="M 950 898.176 L 940 898.176" />
        <path d="M 950 701.758 L 930 701.758" />
        <path d="M 950 68.8561 L 940 68.8561" />
        <path d="M 950 505.34 L 940 505.34" />
        <path d="M 950 308.922 L 940 308.922" />
        <path d="M 950 112.505 L 940 112.505" />
        <path d="M 950 614.461 L 940 614.461" />
        <path d="M 950 418.043 L 940 418.043" />
    </g>
</g>
</g>
</svg>
