<?xml version="1.0" standalone="no"?>
<!DOCTYPE svg PUBLIC "-//W3C//DTD SVG 1.1//EN" "http://www.w3.org/Graphics/SVG/1.1/DTD/svg11.dtd">
<svg style="stroke-linejoin:miter; stroke:black; stroke-width:2.5; text-anchor:middle; fill:none" xmlns="http://www.w3.org/2000/svg" font-family="Helvetica, Arial, FreeSans, Sans, sans, sans-serif" width="1000px" height="500px" version="1.1" xmlns:xlink="http://www.w3.org/1999/xlink" viewBox="0 0 1000 500">
<defs>
    <clipPath id="HistogramCategorical_0_clip">
        <rect x="120" y="25" width="830" height="400" />
    </clipPath>
</defs>
<g id="whole_document">
<rect id="background" x="0" y="0" width="1000" height="500" stroke="none" fill="white" />
<g id="HistogramCategorical_0" clip-path="url(#HistogramCategorical_0_clip)">
    <path d="M 120 425 L 140.75 425 L 140.75 61.3636 L 514.25 61.3636 L 514.25 425 L 555.75 425 L 555.75 280.478 L 929.25 280.478 L 929.25 425 L 950 425" stroke-width="3" stroke-dasharray="" stroke="black" stroke-opacity="1" fill="none" fill-opacity="1" />
</g>
<g id="frame_0">
    <rect id="frame_0_border" x="120" y="25" width="830" height="400" />
    <text id="frame_0_bottomlabel" font-size="30" transform="translate(535, 485)" text-anchor="middle" dominant-baseline="middle" stroke="none" fill="black">fielddeviceid</text>
    <g id="frame_0_bottomticks">
        <path d="M 327.5 425 L 327.5 405" />
        <text font-size="30" transform="translate(327.5, 455)" text-anchor="middle" dominant-baseline="middle" stroke="none" fill="black">IL-TESTTSC-EDENS-S-1037</text>
        <path d="M 742.5 425 L 742.5 405" />
        <text font-size="30" transform="translate(742.5, 455)" text-anchor="middle" dominant-baseline="middle" stroke="none" fill="black">other</text>
    </g>
    <g id="frame_0_leftticks">
        <path d="M 120 425 L 140 425" />
        <text font-size="30" transform="translate(110, 435)" text-anchor="end" dominant-baseline="middle" stroke="none" fill="black">0</text>
        <path d="M 120 222.98 L 130 222.98" />
        <path d="M 120 316.22 L 130 316.22" />
        <path d="M 120 114.2 L 140 114.2" />
        <text font-size="30" transform="translate(110, 124.2)" text-anchor="end" dominant-baseline="middle" stroke="none" fill="black">200</text>
        <path d="M 120 409.46 L 130 409.46" />
        <path d="M 120 207.44 L 130 207.44" />
        <path d="M 120 300.68 L 130 300.68" />
        <path d="M 120 98.6597 L 130 98.6597" />
        <path d="M 120 393.92 L 130 393.92" />
        <path d="M 120 191.9 L 140 191.9" />
        <text font-size="30" transform="translate(110, 201.9)" text-anchor="end" dominant-baseline="middle" stroke="none" fill="black">150</text>
        <path d="M 120 285.14 L 130 285.14" />
        <path d="M 120 83.1197 L 130 83.1197" />
        <path d="M 120 378.38 L 130 378.38" />
        <path d="M 120 176.36 L 130 176.36" />
        <path d="M 120 269.6 L 140 269.6" />
        <text font-size="30" transform="translate(110, 279.6)" text-anchor="end" dominant-baseline="middle" stroke="none" fill="black">100</text>
        <path d="M 120 67.5796 L 130 67.5796" />
        <path d="M 120 362.84 L 130 362.84" />
        <path d="M 120 160.82 L 130 160.82" />
        <path d="M 120 254.06 L 130 254.06" />
        <path d="M 120 52.0396 L 130 52.0396" />
        <path d="M 120 347.3 L 140 347.3" />
        <text font-size="30" transform="translate(110, 357.3)" text-anchor="end" dominant-baseline="middle" stroke="none" fill="black">50</text>
        <path d="M 120 145.28 L 130 145.28" />
        <path d="M 120 238.52 L 130 238.52" />
        <path d="M 120 36.4996 L 140 36.4996" />
        <text font-size="30" transform="translate(110, 46.4996)" text-anchor="end" dominant-baseline="middle" stroke="none" fill="black">250</text>
        <path d="M 120 331.76 L 130 331.76" />
        <path d="M 120 129.74 L 130 129.74" />
    </g>
    <g id="frame_0_topticks">
        <path d="M 120 25 L 120 45" />
        <path d="M 867 25 L 867 35" />
        <path d="M 825.5 25 L 825.5 35" />
        <path d="M 369 25 L 369 35" />
        <path d="M 410.5 25 L 410.5 35" />
        <path d="M 742.5 25 L 742.5 45" />
        <path d="M 576.5 25 L 576.5 35" />
        <path d="M 452 25 L 452 35" />
        <path d="M 493.5 25 L 493.5 35" />
        <path d="M 950 25 L 950 45" />
        <path d="M 701 25 L 701 35" />
        <path d="M 203 25 L 203 35" />
        <path d="M 908.5 25 L 908.5 35" />
        <path d="M 659.5 25 L 659.5 35" />
        <path d="M 618 25 L 618 35" />
        <path d="M 161.5 25 L 161.5 35" />
        <path d="M 784 25 L 784 35" />
        <path d="M 535 25 L 535 45" />
        <path d="M 244.5 25 L 244.5 35" />
        <path d="M 286 25 L 286 35" />
        <path d="M 327.5 25 L 327.5 45" />
    </g>
    <g id="frame_0_rightticks">
        <path d="M 950 425 L 930 425" />
        <path d="M 950 222.98 L 940 222.98" />
        <path d="M 950 316.22 L 940 316.22" />
        <path d="M 950 114.2 L 930 114.2" />
        <path d="M 950 409.46 L 940 409.46" />
        <path d="M 950 207.44 L 940 207.44" />
        <path d="M 950 300.68 L 940 300.68" />
        <path d="M 950 98.6597 L 940 98.6597" />
        <path d="M 950 393.92 L 940 393.92" />
        <path d="M 950 191.9 L 930 191.9" />
        <path d="M 950 285.14 L 940 285.14" />
        <path d="M 950 83.1197 L 940 83.1197" />
        <path d="M 950 378.38 L 940 378.38" />
        <path d="M 950 176.36 L 940 176.36" />
        <path d="M 950 269.6 L 930 269.6" />
        <path d="M 950 67.5796 L 940 67.5796" />
        <path d="M 950 362.84 L 940 362.84" />
        <path d="M 950 160.82 L 940 160.82" />
        <path d="M 950 254.06 L 940 254.06" />
        <path d="M 950 52.0396 L 940 52.0396" />
        <path d="M 950 347.3 L 930 347.3" />
        <path d="M 950 145.28 L 940 145.28" />
        <path d="M 950 238.52 L 940 238.52" />
        <path d="M 950 36.4996 L 930 36.4996" />
        <path d="M 950 331.76 L 940 331.76" />
        <path d="M 950 129.74 L 940 129.74" />
    </g>
</g>
</g>
</svg>
