<?xml version="1.0" standalone="no"?>
<!DOCTYPE svg PUBLIC "-//W3C//DTD SVG 1.1//EN" "http://www.w3.org/Graphics/SVG/1.1/DTD/svg11.dtd">
<svg style="stroke-linejoin:miter; stroke:black; stroke-width:2.5; text-anchor:middle; fill:none" xmlns="http://www.w3.org/2000/svg" font-family="Helvetica, Arial, FreeSans, Sans, sans, sans-serif" width="1000px" height="1000px" version="1.1" xmlns:xlink="http://www.w3.org/1999/xlink" viewBox="0 0 1000 1000">
<defs>
    <clipPath id="Histogram_0_clip">
        <rect x="120" y="50" width="830" height="870" />
    </clipPath>
    <clipPath id="Legend_0_clip">
        <rect x="576.5" y="50" width="373.5" height="115" />
    </clipPath>
    <circle id="Legend_0_mark_0" cx="0" cy="0" r="7.5" stroke="none" stroke-opacity="1" fill="black" fill-opacity="1" />
    <clipPath id="Scatter_0_clip">
        <rect x="120" y="50" width="830" height="870" />
    </clipPath>
    <circle id="Scatter_0_mark" cx="0" cy="0" r="7.5" stroke="none" stroke-opacity="1" fill="black" fill-opacity="1" />
    <clipPath id="Scatter_1_clip">
        <rect x="120" y="50" width="830" height="870" />
    </clipPath>
</defs>
<g id="whole_document">
<rect id="background" x="0" y="0" width="1000" height="1000" stroke="none" fill="white" />
<g id="Scatter_0" clip-path="url(#Scatter_0_clip)">
    <use x="688.333" y="183.112" xlink:href="#Scatter_0_mark" />
    <use x="870.199" y="751.992" xlink:href="#Scatter_0_mark" />
    <use x="772.395" y="409.259" xlink:href="#Scatter_0_mark" />
    <use x="192.025" y="420.497" xlink:href="#Scatter_0_mark" />
    <use x="441.995" y="389.78" xlink:href="#Scatter_0_mark" />
    <use x="363.334" y="428.129" xlink:href="#Scatter_0_mark" />
    <use x="424.927" y="372.013" xlink:href="#Scatter_0_mark" />
    <use x="364.233" y="455.818" xlink:href="#Scatter_0_mark" />
    <use x="465.179" y="320.401" xlink:href="#Scatter_0_mark" />
    <use x="553.346" y="207.705" xlink:href="#Scatter_0_mark" />
    <use x="799.039" y="441.105" xlink:href="#Scatter_0_mark" />
    <use x="697.391" y="439.597" xlink:href="#Scatter_0_mark" />
    <use x="602.103" y="303.243" xlink:href="#Scatter_0_mark" />
    <use x="201.332" y="552.033" xlink:href="#Scatter_0_mark" />
    <use x="797.517" y="189.183" xlink:href="#Scatter_0_mark" />
    <use x="677.443" y="820.563" xlink:href="#Scatter_0_mark" />
    <use x="274.127" y="609.764" xlink:href="#Scatter_0_mark" />
    <use x="840.51" y="799.445" xlink:href="#Scatter_0_mark" />
    <use x="806.88" y="447.799" xlink:href="#Scatter_0_mark" />
    <use x="370.702" y="767.884" xlink:href="#Scatter_0_mark" />
    <use x="529.482" y="604.233" xlink:href="#Scatter_0_mark" />
    <use x="877.87" y="138.354" xlink:href="#Scatter_0_mark" />
    <use x="821.44" y="641.347" xlink:href="#Scatter_0_mark" />
    <use x="244.511" y="415.155" xlink:href="#Scatter_0_mark" />
    <use x="709.121" y="622.683" xlink:href="#Scatter_0_mark" />
    <use x="831.24" y="712.903" xlink:href="#Scatter_0_mark" />
    <use x="488.82" y="479.755" xlink:href="#Scatter_0_mark" />
    <use x="268.072" y="291.785" xlink:href="#Scatter_0_mark" />
    <use x="552.799" y="168.885" xlink:href="#Scatter_0_mark" />
    <use x="869.891" y="260.535" xlink:href="#Scatter_0_mark" />
    <use x="489.943" y="505.62" xlink:href="#Scatter_0_mark" />
    <use x="760.531" y="645.801" xlink:href="#Scatter_0_mark" />
    <use x="245.211" y="392.369" xlink:href="#Scatter_0_mark" />
    <use x="840.717" y="149.859" xlink:href="#Scatter_0_mark" />
    <use x="861.095" y="614.311" xlink:href="#Scatter_0_mark" />
    <use x="478.5" y="550.456" xlink:href="#Scatter_0_mark" />
    <use x="738.531" y="514.599" xlink:href="#Scatter_0_mark" />
    <use x="805.475" y="453.202" xlink:href="#Scatter_0_mark" />
    <use x="677.958" y="689.3" xlink:href="#Scatter_0_mark" />
    <use x="710.321" y="601.071" xlink:href="#Scatter_0_mark" />
    <use x="813.475" y="550.95" xlink:href="#Scatter_0_mark" />
    <use x="661.262" y="756.196" xlink:href="#Scatter_0_mark" />
    <use x="516.791" y="557.197" xlink:href="#Scatter_0_mark" />
    <use x="357.338" y="618.249" xlink:href="#Scatter_0_mark" />
    <use x="724.496" y="761.317" xlink:href="#Scatter_0_mark" />
    <use x="726.202" y="495.439" xlink:href="#Scatter_0_mark" />
    <use x="722.243" y="477.975" xlink:href="#Scatter_0_mark" />
    <use x="602.294" y="173.955" xlink:href="#Scatter_0_mark" />
    <use x="823.844" y="257.426" xlink:href="#Scatter_0_mark" />
    <use x="243.184" y="832.004" xlink:href="#Scatter_0_mark" />
    <use x="220.817" y="271.555" xlink:href="#Scatter_0_mark" />
    <use x="785.507" y="756.408" xlink:href="#Scatter_0_mark" />
    <use x="365.478" y="749.912" xlink:href="#Scatter_0_mark" />
    <use x="879.476" y="717.487" xlink:href="#Scatter_0_mark" />
    <use x="475.709" y="575.447" xlink:href="#Scatter_0_mark" />
    <use x="701.16" y="815.221" xlink:href="#Scatter_0_mark" />
    <use x="361.843" y="297.333" xlink:href="#Scatter_0_mark" />
    <use x="258.227" y="390.521" xlink:href="#Scatter_0_mark" />
    <use x="723.484" y="239.341" xlink:href="#Scatter_0_mark" />
    <use x="396.643" y="759.162" xlink:href="#Scatter_0_mark" />
    <use x="643.314" y="355.572" xlink:href="#Scatter_0_mark" />
    <use x="553.57" y="415.213" xlink:href="#Scatter_0_mark" />
    <use x="541.962" y="838.659" xlink:href="#Scatter_0_mark" />
    <use x="393.165" y="149.41" xlink:href="#Scatter_0_mark" />
    <use x="606.018" y="157.061" xlink:href="#Scatter_0_mark" />
    <use x="646.565" y="246.229" xlink:href="#Scatter_0_mark" />
    <use x="403.865" y="189.26" xlink:href="#Scatter_0_mark" />
    <use x="201.331" y="493.952" xlink:href="#Scatter_0_mark" />
    <use x="592.875" y="722.106" xlink:href="#Scatter_0_mark" />
    <use x="499.972" y="449.663" xlink:href="#Scatter_0_mark" />
    <use x="775.205" y="124.069" xlink:href="#Scatter_0_mark" />
    <use x="502.256" y="658.844" xlink:href="#Scatter_0_mark" />
    <use x="442.715" y="209.158" xlink:href="#Scatter_0_mark" />
    <use x="453.87" y="472.325" xlink:href="#Scatter_0_mark" />
    <use x="393.945" y="192.308" xlink:href="#Scatter_0_mark" />
    <use x="629.589" y="772.38" xlink:href="#Scatter_0_mark" />
    <use x="579.431" y="241.941" xlink:href="#Scatter_0_mark" />
    <use x="563.03" y="448.904" xlink:href="#Scatter_0_mark" />
    <use x="517.181" y="617.426" xlink:href="#Scatter_0_mark" />
    <use x="589.502" y="825.385" xlink:href="#Scatter_0_mark" />
    <use x="793.403" y="356.627" xlink:href="#Scatter_0_mark" />
    <use x="585.107" y="761.211" xlink:href="#Scatter_0_mark" />
    <use x="872.345" y="435.032" xlink:href="#Scatter_0_mark" />
    <use x="802.347" y="642.109" xlink:href="#Scatter_0_mark" />
    <use x="431.913" y="363.752" xlink:href="#Scatter_0_mark" />
    <use x="369.103" y="227.89" xlink:href="#Scatter_0_mark" />
    <use x="812.905" y="597.923" xlink:href="#Scatter_0_mark" />
    <use x="607.461" y="150.024" xlink:href="#Scatter_0_mark" />
    <use x="392.113" y="126.242" xlink:href="#Scatter_0_mark" />
    <use x="875.204" y="671.54" xlink:href="#Scatter_0_mark" />
    <use x="786.447" y="273.417" xlink:href="#Scatter_0_mark" />
    <use x="200.475" y="428.971" xlink:href="#Scatter_0_mark" />
    <use x="827.965" y="122.5" xlink:href="#Scatter_0_mark" />
    <use x="339.658" y="481.304" xlink:href="#Scatter_0_mark" />
    <use x="558.696" y="431.266" xlink:href="#Scatter_0_mark" />
    <use x="578.096" y="700.202" xlink:href="#Scatter_0_mark" />
    <use x="587.368" y="187.85" xlink:href="#Scatter_0_mark" />
    <use x="348.135" y="833.796" xlink:href="#Scatter_0_mark" />
    <use x="789.171" y="725.135" xlink:href="#Scatter_0_mark" />
    <use x="765.654" y="233.387" xlink:href="#Scatter_0_mark" />
</g>
<g id="Histogram_0" clip-path="url(#Histogram_0_clip)">
    <path d="M 189.167 847.5 L 189.167 847.5 L 196.083 847.5 L 196.083 847.5 L 203 847.5 L 203 847.5 L 209.917 847.5 L 209.917 847.5 L 216.833 847.5 L 216.833 847.5 L 223.75 847.5 L 223.75 847.5 L 230.667 847.5 L 230.667 847.5 L 237.583 847.5 L 237.583 847.5 L 244.5 847.5 L 244.5 847.5 L 251.417 847.5 L 251.417 847.5 L 258.333 847.5 L 258.333 847.5 L 265.25 847.5 L 265.25 847.5 L 272.167 847.5 L 272.167 847.5 L 279.083 847.5 L 279.083 847.5 L 286 847.5 L 286 847.5 L 292.917 847.5 L 292.917 843.137 L 299.833 843.137 L 299.833 847.5 L 306.75 847.5 L 306.75 843.137 L 313.667 843.137 L 313.667 840.228 L 320.583 840.228 L 320.583 843.137 L 327.5 843.137 L 327.5 841.682 L 334.417 841.682 L 334.417 841.682 L 341.333 841.682 L 341.333 834.411 L 348.25 834.411 L 348.25 832.956 L 355.167 832.956 L 355.167 821.321 L 362.083 821.321 L 362.083 815.504 L 369 815.504 L 369 815.504 L 375.917 815.504 L 375.917 800.96 L 382.833 800.96 L 382.833 803.869 L 389.75 803.869 L 389.75 777.69 L 396.667 777.69 L 396.667 751.511 L 403.583 751.511 L 403.583 741.33 L 410.5 741.33 L 410.5 713.697 L 417.417 713.697 L 417.417 699.153 L 424.333 699.153 L 424.333 642.433 L 431.25 642.433 L 431.25 672.975 L 438.167 672.975 L 438.167 594.438 L 445.083 594.438 L 445.083 544.989 L 452 544.989 L 452 527.537 L 458.917 527.537 L 458.917 517.356 L 465.833 517.356 L 465.833 514.447 L 472.75 514.447 L 472.75 427.185 L 479.667 427.185 L 479.667 390.825 L 486.583 390.825 L 486.583 348.648 L 493.5 348.648 L 493.5 367.555 L 500.417 367.555 L 500.417 339.922 L 507.333 339.922 L 507.333 316.652 L 514.25 316.652 L 514.25 286.11 L 521.167 286.11 L 521.167 248.296 L 528.083 248.296 L 528.083 257.023 L 535 257.023 L 535 255.568 L 541.917 255.568 L 541.917 265.749 L 548.833 265.749 L 548.833 251.205 L 555.75 251.205 L 555.75 290.473 L 562.667 290.473 L 562.667 338.468 L 569.583 338.468 L 569.583 395.188 L 576.5 395.188 L 576.5 392.28 L 583.417 392.28 L 583.417 396.643 L 590.333 396.643 L 590.333 478.088 L 597.25 478.088 L 597.25 488.269 L 604.167 488.269 L 604.167 517.356 L 611.083 517.356 L 611.083 571.168 L 618 571.168 L 618 595.893 L 624.917 595.893 L 624.917 616.254 L 631.833 616.254 L 631.833 655.522 L 638.75 655.522 L 638.75 672.975 L 645.667 672.975 L 645.667 707.88 L 652.583 707.88 L 652.583 704.971 L 659.5 704.971 L 659.5 736.967 L 666.417 736.967 L 666.417 751.511 L 673.333 751.511 L 673.333 780.599 L 680.25 780.599 L 680.25 798.051 L 687.167 798.051 L 687.167 779.144 L 694.083 779.144 L 694.083 809.686 L 701 809.686 L 701 825.684 L 707.917 825.684 L 707.917 827.139 L 714.833 827.139 L 714.833 830.047 L 721.75 830.047 L 721.75 834.411 L 728.667 834.411 L 728.667 840.228 L 735.583 840.228 L 735.583 841.682 L 742.5 841.682 L 742.5 846.046 L 749.417 846.046 L 749.417 846.046 L 756.333 846.046 L 756.333 844.591 L 763.25 844.591 L 763.25 847.5 L 770.167 847.5 L 770.167 847.5 L 777.083 847.5 L 777.083 844.591 L 784 844.591 L 784 847.5 L 790.917 847.5 L 790.917 847.5 L 797.833 847.5 L 797.833 847.5 L 804.75 847.5 L 804.75 847.5 L 811.667 847.5 L 811.667 846.046 L 818.583 846.046 L 818.583 847.5 L 825.5 847.5 L 825.5 847.5 L 832.417 847.5 L 832.417 847.5 L 839.333 847.5 L 839.333 847.5 L 846.25 847.5 L 846.25 847.5 L 853.167 847.5 L 853.167 847.5 L 860.083 847.5 L 860.083 847.5 L 867 847.5 L 867 847.5 L 873.917 847.5 L 873.917 847.5 L 880.833 847.5 L 880.833 847.5" stroke-width="3" stroke-dasharray="" stroke="black" stroke-opacity="1" fill="lightblue" fill-opacity="1" />
</g>
<g id="Scatter_1" clip-path="url(#Scatter_1_clip)">
    <path d="M 120 642.111 L 120.831 641.22 L 121.662 640.325 L 122.492 639.425 L 123.323 638.52 L 124.154 637.611 L 124.985 636.697 L 125.816 635.778 L 126.647 634.855 L 127.477 633.927 L 128.308 632.995 L 129.139 632.059 L 129.97 631.118 L 130.801 630.173 L 131.632 629.224 L 132.462 628.271 L 133.293 627.314 L 134.124 626.353 L 134.955 625.387 L 135.786 624.418 L 136.617 623.445 L 137.447 622.468 L 138.278 621.488 L 139.109 620.503 L 139.94 619.515 L 140.771 618.524 L 141.602 617.529 L 142.432 616.53 L 143.263 615.528 L 144.094 614.523 L 144.925 613.515 L 145.756 612.503 L 146.587 611.488 L 147.417 610.47 L 148.248 609.448 L 149.079 608.424 L 149.91 607.397 L 150.741 606.367 L 151.572 605.334 L 152.402 604.299 L 153.233 603.26 L 154.064 602.219 L 154.895 601.175 L 155.726 600.129 L 156.557 599.081 L 157.387 598.03 L 158.218 596.976 L 159.049 595.92 L 159.88 594.863 L 160.711 593.802 L 161.542 592.74 L 162.372 591.676 L 163.203 590.61 L 164.034 589.541 L 164.865 588.471 L 165.696 587.399 L 166.527 586.326 L 167.357 585.25 L 168.188 584.173 L 169.019 583.095 L 169.85 582.015 L 170.681 580.933 L 171.512 579.85 L 172.342 578.766 L 173.173 577.68 L 174.004 576.594 L 174.835 575.506 L 175.666 574.417 L 176.496 573.327 L 177.327 572.236 L 178.158 571.144 L 178.989 570.052 L 179.82 568.958 L 180.651 567.864 L 181.481 566.77 L 182.312 565.674 L 183.143 564.579 L 183.974 563.482 L 184.805 562.386 L 185.636 561.289 L 186.466 560.191 L 187.297 559.094 L 188.128 557.996 L 188.959 556.899 L 189.79 555.801 L 190.621 554.704 L 191.451 553.606 L 192.282 552.509 L 193.113 551.412 L 193.944 550.315 L 194.775 549.218 L 195.606 548.122 L 196.436 547.027 L 197.267 545.932 L 198.098 544.837 L 198.929 543.744 L 199.76 542.651 L 200.591 541.558 L 201.421 540.467 L 202.252 539.377 L 203.083 538.287 L 203.914 537.199 L 204.745 536.112 L 205.576 535.026 L 206.406 533.941 L 207.237 532.857 L 208.068 531.775 L 208.899 530.694 L 209.73 529.615 L 210.561 528.537 L 211.391 527.461 L 212.222 526.386 L 213.053 525.313 L 213.884 524.242 L 214.715 523.173 L 215.546 522.106 L 216.376 521.041 L 217.207 519.977 L 218.038 518.916 L 218.869 517.857 L 219.7 516.8 L 220.531 515.746 L 221.361 514.693 L 222.192 513.643 L 223.023 512.596 L 223.854 511.551 L 224.685 510.509 L 225.516 509.469 L 226.346 508.432 L 227.177 507.398 L 228.008 506.366 L 228.839 505.338 L 229.67 504.312 L 230.501 503.289 L 231.331 502.27 L 232.162 501.253 L 232.993 500.24 L 233.824 499.229 L 234.655 498.223 L 235.485 497.219 L 236.316 496.219 L 237.147 495.222 L 237.978 494.229 L 238.809 493.239 L 239.64 492.253 L 240.47 491.27 L 241.301 490.292 L 242.132 489.317 L 242.963 488.345 L 243.794 487.378 L 244.625 486.415 L 245.455 485.456 L 246.286 484.5 L 247.117 483.549 L 247.948 482.602 L 248.779 481.66 L 249.61 480.721 L 250.44 479.787 L 251.271 478.857 L 252.102 477.932 L 252.933 477.011 L 253.764 476.095 L 254.595 475.183 L 255.425 474.276 L 256.256 473.373 L 257.087 472.476 L 257.918 471.583 L 258.749 470.695 L 259.58 469.812 L 260.41 468.933 L 261.241 468.06 L 262.072 467.192 L 262.903 466.329 L 263.734 465.471 L 264.565 464.618 L 265.395 463.771 L 266.226 462.929 L 267.057 462.092 L 267.888 461.26 L 268.719 460.434 L 269.55 459.614 L 270.38 458.799 L 271.211 457.989 L 272.042 457.185 L 272.873 456.387 L 273.704 455.595 L 274.535 454.808 L 275.365 454.027 L 276.196 453.252 L 277.027 452.483 L 277.858 451.72 L 278.689 450.962 L 279.52 450.211 L 280.35 449.466 L 281.181 448.727 L 282.012 447.994 L 282.843 447.267 L 283.674 446.547 L 284.505 445.832 L 285.335 445.124 L 286.166 444.423 L 286.997 443.728 L 287.828 443.039 L 288.659 442.357 L 289.489 441.681 L 290.32 441.012 L 291.151 440.349 L 291.982 439.693 L 292.813 439.043 L 293.644 438.401 L 294.474 437.765 L 295.305 437.136 L 296.136 436.513 L 296.967 435.898 L 297.798 435.289 L 298.629 434.687 L 299.459 434.093 L 300.29 433.505 L 301.121 432.924 L 301.952 432.35 L 302.783 431.784 L 303.614 431.224 L 304.444 430.672 L 305.275 430.126 L 306.106 429.588 L 306.937 429.057 L 307.768 428.534 L 308.599 428.018 L 309.429 427.509 L 310.26 427.007 L 311.091 426.513 L 311.922 426.026 L 312.753 425.547 L 313.584 425.075 L 314.414 424.611 L 315.245 424.154 L 316.076 423.705 L 316.907 423.263 L 317.738 422.829 L 318.569 422.402 L 319.399 421.983 L 320.23 421.572 L 321.061 421.169 L 321.892 420.773 L 322.723 420.385 L 323.554 420.005 L 324.384 419.632 L 325.215 419.267 L 326.046 418.91 L 326.877 418.561 L 327.708 418.22 L 328.539 417.887 L 329.369 417.562 L 330.2 417.244 L 331.031 416.935 L 331.862 416.633 L 332.693 416.339 L 333.524 416.054 L 334.354 415.776 L 335.185 415.507 L 336.016 415.245 L 336.847 414.992 L 337.678 414.746 L 338.509 414.509 L 339.339 414.28 L 340.17 414.059 L 341.001 413.846 L 341.832 413.641 L 342.663 413.444 L 343.493 413.255 L 344.324 413.075 L 345.155 412.903 L 345.986 412.739 L 346.817 412.583 L 347.648 412.435 L 348.478 412.296 L 349.309 412.165 L 350.14 412.042 L 350.971 411.927 L 351.802 411.82 L 352.633 411.722 L 353.463 411.632 L 354.294 411.551 L 355.125 411.477 L 355.956 411.412 L 356.787 411.355 L 357.618 411.306 L 358.448 411.266 L 359.279 411.234 L 360.11 411.21 L 360.941 411.194 L 361.772 411.187 L 362.603 411.188 L 363.433 411.198 L 364.264 411.215 L 365.095 411.241 L 365.926 411.275 L 366.757 411.318 L 367.588 411.368 L 368.418 411.427 L 369.249 411.495 L 370.08 411.57 L 370.911 411.654 L 371.742 411.746 L 372.573 411.846 L 373.403 411.955 L 374.234 412.072 L 375.065 412.197 L 375.896 412.33 L 376.727 412.471 L 377.558 412.621 L 378.388 412.779 L 379.219 412.945 L 380.05 413.119 L 380.881 413.302 L 381.712 413.492 L 382.543 413.691 L 383.373 413.898 L 384.204 414.113 L 385.035 414.336 L 385.866 414.568 L 386.697 414.807 L 387.528 415.054 L 388.358 415.31 L 389.189 415.573 L 390.02 415.845 L 390.851 416.125 L 391.682 416.412 L 392.513 416.708 L 393.343 417.011 L 394.174 417.323 L 395.005 417.642 L 395.836 417.97 L 396.667 418.305 L 397.497 418.648 L 398.328 418.999 L 399.159 419.358 L 399.99 419.724 L 400.821 420.099 L 401.652 420.481 L 402.482 420.871 L 403.313 421.269 L 404.144 421.674 L 404.975 422.087 L 405.806 422.508 L 406.637 422.937 L 407.467 423.373 L 408.298 423.816 L 409.129 424.267 L 409.96 424.726 L 410.791 425.192 L 411.622 425.666 L 412.452 426.147 L 413.283 426.636 L 414.114 427.132 L 414.945 427.635 L 415.776 428.146 L 416.607 428.664 L 417.437 429.189 L 418.268 429.722 L 419.099 430.262 L 419.93 430.809 L 420.761 431.363 L 421.592 431.925 L 422.422 432.493 L 423.253 433.069 L 424.084 433.651 L 424.915 434.241 L 425.746 434.837 L 426.577 435.441 L 427.407 436.051 L 428.238 436.668 L 429.069 437.292 L 429.9 437.923 L 430.731 438.561 L 431.562 439.205 L 432.392 439.856 L 433.223 440.514 L 434.054 441.178 L 434.885 441.849 L 435.716 442.527 L 436.547 443.21 L 437.377 443.901 L 438.208 444.598 L 439.039 445.301 L 439.87 446.01 L 440.701 446.726 L 441.532 447.448 L 442.362 448.177 L 443.193 448.911 L 444.024 449.652 L 444.855 450.398 L 445.686 451.151 L 446.517 451.91 L 447.347 452.675 L 448.178 453.445 L 449.009 454.222 L 449.84 455.004 L 450.671 455.792 L 451.502 456.586 L 452.332 457.386 L 453.163 458.191 L 453.994 459.002 L 454.825 459.818 L 455.656 460.64 L 456.486 461.468 L 457.317 462.301 L 458.148 463.139 L 458.979 463.982 L 459.81 464.831 L 460.641 465.685 L 461.471 466.544 L 462.302 467.409 L 463.133 468.278 L 463.964 469.153 L 464.795 470.032 L 465.626 470.916 L 466.456 471.806 L 467.287 472.7 L 468.118 473.599 L 468.949 474.502 L 469.78 475.41 L 470.611 476.323 L 471.441 477.241 L 472.272 478.163 L 473.103 479.089 L 473.934 480.02 L 474.765 480.955 L 475.596 481.895 L 476.426 482.839 L 477.257 483.787 L 478.088 484.739 L 478.919 485.695 L 479.75 486.655 L 480.581 487.62 L 481.411 488.588 L 482.242 489.56 L 483.073 490.536 L 483.904 491.516 L 484.735 492.499 L 485.566 493.486 L 486.396 494.477 L 487.227 495.471 L 488.058 496.468 L 488.889 497.47 L 489.72 498.474 L 490.551 499.482 L 491.381 500.493 L 492.212 501.507 L 493.043 502.524 L 493.874 503.545 L 494.705 504.568 L 495.536 505.595 L 496.366 506.624 L 497.197 507.656 L 498.028 508.691 L 498.859 509.729 L 499.69 510.769 L 500.521 511.812 L 501.351 512.858 L 502.182 513.906 L 503.013 514.956 L 503.844 516.009 L 504.675 517.064 L 505.506 518.122 L 506.336 519.181 L 507.167 520.243 L 507.998 521.307 L 508.829 522.372 L 509.66 523.44 L 510.49 524.51 L 511.321 525.581 L 512.152 526.655 L 512.983 527.73 L 513.814 528.806 L 514.645 529.884 L 515.475 530.964 L 516.306 532.045 L 517.137 533.128 L 517.968 534.212 L 518.799 535.297 L 519.63 536.383 L 520.46 537.471 L 521.291 538.56 L 522.122 539.649 L 522.953 540.74 L 523.784 541.831 L 524.615 542.924 L 525.445 544.017 L 526.276 545.111 L 527.107 546.205 L 527.938 547.301 L 528.769 548.396 L 529.6 549.492 L 530.43 550.589 L 531.261 551.686 L 532.092 552.783 L 532.923 553.88 L 533.754 554.978 L 534.585 556.076 L 535.415 557.173 L 536.246 558.271 L 537.077 559.368 L 537.908 560.466 L 538.739 561.563 L 539.57 562.66 L 540.4 563.756 L 541.231 564.853 L 542.062 565.948 L 542.893 567.043 L 543.724 568.138 L 544.555 569.232 L 545.385 570.325 L 546.216 571.417 L 547.047 572.509 L 547.878 573.6 L 548.709 574.689 L 549.54 575.778 L 550.37 576.865 L 551.201 577.952 L 552.032 579.037 L 552.863 580.121 L 553.694 581.204 L 554.525 582.285 L 555.355 583.364 L 556.186 584.443 L 557.017 585.519 L 557.848 586.594 L 558.679 587.667 L 559.51 588.739 L 560.34 589.809 L 561.171 590.876 L 562.002 591.942 L 562.833 593.006 L 563.664 594.068 L 564.494 595.127 L 565.325 596.185 L 566.156 597.24 L 566.987 598.293 L 567.818 599.343 L 568.649 600.391 L 569.479 601.437 L 570.31 602.48 L 571.141 603.52 L 571.972 604.558 L 572.803 605.593 L 573.634 606.625 L 574.464 607.654 L 575.295 608.681 L 576.126 609.704 L 576.957 610.724 L 577.788 611.742 L 578.619 612.756 L 579.449 613.767 L 580.28 614.775 L 581.111 615.779 L 581.942 616.78 L 582.773 617.778 L 583.604 618.772 L 584.434 619.763 L 585.265 620.75 L 586.096 621.733 L 586.927 622.713 L 587.758 623.689 L 588.589 624.661 L 589.419 625.629 L 590.25 626.593 L 591.081 627.554 L 591.912 628.51 L 592.743 629.462 L 593.574 630.41 L 594.404 631.354 L 595.235 632.293 L 596.066 633.229 L 596.897 634.16 L 597.728 635.086 L 598.559 636.008 L 599.389 636.925 L 600.22 637.838 L 601.051 638.747 L 601.882 639.65 L 602.713 640.549 L 603.544 641.443 L 604.374 642.332 L 605.205 643.217 L 606.036 644.096 L 606.867 644.971 L 607.698 645.84 L 608.529 646.704 L 609.359 647.564 L 610.19 648.418 L 611.021 649.266 L 611.852 650.11 L 612.683 650.948 L 613.514 651.781 L 614.344 652.608 L 615.175 653.43 L 616.006 654.247 L 616.837 655.058 L 617.668 655.863 L 618.498 656.662 L 619.329 657.456 L 620.16 658.245 L 620.991 659.027 L 621.822 659.803 L 622.653 660.574 L 623.483 661.339 L 624.314 662.098 L 625.145 662.85 L 625.976 663.597 L 626.807 664.338 L 627.638 665.072 L 628.468 665.801 L 629.299 666.523 L 630.13 667.238 L 630.961 667.948 L 631.792 668.651 L 632.623 669.348 L 633.453 670.038 L 634.284 670.722 L 635.115 671.4 L 635.946 672.071 L 636.777 672.735 L 637.608 673.393 L 638.438 674.044 L 639.269 674.688 L 640.1 675.326 L 640.931 675.956 L 641.762 676.581 L 642.593 677.198 L 643.423 677.808 L 644.254 678.412 L 645.085 679.008 L 645.916 679.598 L 646.747 680.18 L 647.578 680.756 L 648.408 681.324 L 649.239 681.886 L 650.07 682.44 L 650.901 682.987 L 651.732 683.527 L 652.563 684.059 L 653.393 684.585 L 654.224 685.103 L 655.055 685.613 L 655.886 686.117 L 656.717 686.613 L 657.548 687.102 L 658.378 687.583 L 659.209 688.056 L 660.04 688.523 L 660.871 688.981 L 661.702 689.433 L 662.533 689.876 L 663.363 690.312 L 664.194 690.741 L 665.025 691.161 L 665.856 691.575 L 666.687 691.98 L 667.518 692.378 L 668.348 692.768 L 669.179 693.15 L 670.01 693.524 L 670.841 693.891 L 671.672 694.25 L 672.503 694.601 L 673.333 694.944 L 674.164 695.279 L 674.995 695.607 L 675.826 695.926 L 676.657 696.238 L 677.487 696.541 L 678.318 696.837 L 679.149 697.124 L 679.98 697.404 L 680.811 697.675 L 681.642 697.939 L 682.472 698.194 L 683.303 698.442 L 684.134 698.681 L 684.965 698.912 L 685.796 699.136 L 686.627 699.351 L 687.457 699.558 L 688.288 699.756 L 689.119 699.947 L 689.95 700.129 L 690.781 700.304 L 691.612 700.47 L 692.442 700.628 L 693.273 700.777 L 694.104 700.919 L 694.935 701.052 L 695.766 701.177 L 696.597 701.294 L 697.427 701.402 L 698.258 701.503 L 699.089 701.595 L 699.92 701.679 L 700.751 701.754 L 701.582 701.821 L 702.412 701.88 L 703.243 701.931 L 704.074 701.974 L 704.905 702.008 L 705.736 702.034 L 706.567 702.051 L 707.397 702.061 L 708.228 702.062 L 709.059 702.054 L 709.89 702.039 L 710.721 702.015 L 711.552 701.983 L 712.382 701.943 L 713.213 701.894 L 714.044 701.837 L 714.875 701.772 L 715.706 701.698 L 716.537 701.617 L 717.367 701.527 L 718.198 701.428 L 719.029 701.322 L 719.86 701.207 L 720.691 701.084 L 721.522 700.953 L 722.352 700.813 L 723.183 700.666 L 724.014 700.51 L 724.845 700.346 L 725.676 700.174 L 726.507 699.993 L 727.337 699.805 L 728.168 699.608 L 728.999 699.403 L 729.83 699.19 L 730.661 698.969 L 731.491 698.74 L 732.322 698.502 L 733.153 698.257 L 733.984 698.004 L 734.815 697.742 L 735.646 697.473 L 736.476 697.195 L 737.307 696.909 L 738.138 696.616 L 738.969 696.314 L 739.8 696.005 L 740.631 695.687 L 741.461 695.362 L 742.292 695.029 L 743.123 694.687 L 743.954 694.338 L 744.785 693.981 L 745.616 693.617 L 746.446 693.244 L 747.277 692.864 L 748.108 692.476 L 748.939 692.08 L 749.77 691.677 L 750.601 691.265 L 751.431 690.847 L 752.262 690.42 L 753.093 689.986 L 753.924 689.544 L 754.755 689.095 L 755.586 688.638 L 756.416 688.174 L 757.247 687.702 L 758.078 687.222 L 758.909 686.736 L 759.74 686.242 L 760.571 685.74 L 761.401 685.231 L 762.232 684.715 L 763.063 684.191 L 763.894 683.661 L 764.725 683.122 L 765.556 682.577 L 766.386 682.025 L 767.217 681.465 L 768.048 680.899 L 768.879 680.325 L 769.71 679.744 L 770.541 679.156 L 771.371 678.561 L 772.202 677.96 L 773.033 677.351 L 773.864 676.736 L 774.695 676.113 L 775.526 675.484 L 776.356 674.848 L 777.187 674.205 L 778.018 673.556 L 778.849 672.9 L 779.68 672.237 L 780.511 671.568 L 781.341 670.892 L 782.172 670.21 L 783.003 669.521 L 783.834 668.826 L 784.665 668.124 L 785.495 667.416 L 786.326 666.702 L 787.157 665.982 L 787.988 665.255 L 788.819 664.522 L 789.65 663.783 L 790.48 663.038 L 791.311 662.286 L 792.142 661.529 L 792.973 660.766 L 793.804 659.997 L 794.635 659.222 L 795.465 658.441 L 796.296 657.654 L 797.127 656.862 L 797.958 656.063 L 798.789 655.259 L 799.62 654.45 L 800.45 653.635 L 801.281 652.814 L 802.112 651.988 L 802.943 651.157 L 803.774 650.32 L 804.605 649.478 L 805.435 648.63 L 806.266 647.778 L 807.097 646.92 L 807.928 646.057 L 808.759 645.189 L 809.59 644.315 L 810.42 643.437 L 811.251 642.554 L 812.082 641.666 L 812.913 640.773 L 813.744 639.875 L 814.575 638.973 L 815.405 638.066 L 816.236 637.154 L 817.067 636.238 L 817.898 635.317 L 818.729 634.392 L 819.56 633.462 L 820.39 632.528 L 821.221 631.589 L 822.052 630.646 L 822.883 629.699 L 823.714 628.748 L 824.545 627.793 L 825.375 626.834 L 826.206 625.871 L 827.037 624.903 L 827.868 623.932 L 828.699 622.957 L 829.53 621.978 L 830.36 620.996 L 831.191 620.01 L 832.022 619.02 L 832.853 618.027 L 833.684 617.03 L 834.515 616.03 L 835.345 615.026 L 836.176 614.019 L 837.007 613.009 L 837.838 611.996 L 838.669 610.979 L 839.499 609.959 L 840.33 608.937 L 841.161 607.911 L 841.992 606.882 L 842.823 605.851 L 843.654 604.817 L 844.484 603.78 L 845.315 602.74 L 846.146 601.698 L 846.977 600.653 L 847.808 599.605 L 848.639 598.555 L 849.469 597.503 L 850.3 596.449 L 851.131 595.392 L 851.962 594.333 L 852.793 593.272 L 853.624 592.208 L 854.454 591.143 L 855.285 590.076 L 856.116 589.006 L 856.947 587.935 L 857.778 586.863 L 858.609 585.788 L 859.439 584.712 L 860.27 583.634 L 861.101 582.555 L 861.932 581.474 L 862.763 580.392 L 863.594 579.308 L 864.424 578.223 L 865.255 577.137 L 866.086 576.05 L 866.917 574.961 L 867.748 573.872 L 868.579 572.782 L 869.409 571.69 L 870.24 570.598 L 871.071 569.505 L 871.902 568.411 L 872.733 567.317 L 873.564 566.222 L 874.394 565.127 L 875.225 564.03 L 876.056 562.934 L 876.887 561.837 L 877.718 560.74 L 878.549 559.643 L 879.379 558.545 L 880.21 557.448 L 881.041 556.35 L 881.872 555.252 L 882.703 554.155 L 883.534 553.057 L 884.364 551.96 L 885.195 550.863 L 886.026 549.766 L 886.857 548.67 L 887.688 547.574 L 888.519 546.479 L 889.349 545.384 L 890.18 544.29 L 891.011 543.197 L 891.842 542.104 L 892.673 541.013 L 893.504 539.922 L 894.334 538.832 L 895.165 537.743 L 895.996 536.655 L 896.827 535.568 L 897.658 534.483 L 898.488 533.399 L 899.319 532.316 L 900.15 531.234 L 900.981 530.154 L 901.812 529.076 L 902.643 527.999 L 903.473 526.923 L 904.304 525.85 L 905.135 524.778 L 905.966 523.707 L 906.797 522.639 L 907.628 521.573 L 908.458 520.509 L 909.289 519.446 L 910.12 518.386 L 910.951 517.328 L 911.782 516.273 L 912.613 515.219 L 913.443 514.168 L 914.274 513.119 L 915.105 512.073 L 915.936 511.03 L 916.767 509.989 L 917.598 508.95 L 918.428 507.915 L 919.259 506.882 L 920.09 505.852 L 920.921 504.825 L 921.752 503.8 L 922.583 502.779 L 923.413 501.761 L 924.244 500.746 L 925.075 499.734 L 925.906 498.726 L 926.737 497.72 L 927.568 496.718 L 928.398 495.72 L 929.229 494.725 L 930.06 493.733 L 930.891 492.745 L 931.722 491.761 L 932.553 490.78 L 933.383 489.804 L 934.214 488.831 L 935.045 487.861 L 935.876 486.896 L 936.707 485.935 L 937.538 484.978 L 938.368 484.024 L 939.199 483.075 L 940.03 482.13 L 940.861 481.19 L 941.692 480.253 L 942.523 479.322 L 943.353 478.394 L 944.184 477.471 L 945.015 476.552 L 945.846 475.638 L 946.677 474.729 L 947.508 473.824 L 948.338 472.924 L 949.169 472.029 L 950 471.138" stroke-width="3" stroke-dasharray="" stroke="red" stroke-opacity="1" fill="none" />
</g>
<g id="frame_0">
    <rect id="frame_0_border" x="120" y="50" width="830" height="870" />
    <g id="frame_0_bottomticks">
        <path d="M 535 920 L 535 910" />
        <path d="M 189.167 920 L 189.167 900" />
        <text font-size="30" transform="translate(189.167, 950)" text-anchor="middle" dominant-baseline="middle" stroke="none" fill="black">0</text>
        <path d="M 950 920 L 950 910" />
        <path d="M 258.333 920 L 258.333 910" />
        <path d="M 880.833 920 L 880.833 900" />
        <text font-size="30" transform="translate(880.833, 950)" text-anchor="middle" dominant-baseline="middle" stroke="none" fill="black">1</text>
        <path d="M 742.5 920 L 742.5 900" />
        <text font-size="30" transform="translate(742.5, 950)" text-anchor="middle" dominant-baseline="middle" stroke="none" fill="black">0.8</text>
        <path d="M 604.167 920 L 604.167 900" />
        <text font-size="30" transform="translate(604.167, 950)" text-anchor="middle" dominant-baseline="middle" stroke="none" fill="black">0.6</text>
        <path d="M 396.667 920 L 396.667 910" />
        <path d="M 465.833 920 L 465.833 900" />
        <text font-size="30" transform="translate(465.833, 950)" text-anchor="middle" dominant-baseline="middle" stroke="none" fill="black">0.4</text>
        <path d="M 811.667 920 L 811.667 910" />
        <path d="M 673.333 920 L 673.333 910" />
        <path d="M 120 920 L 120 910" />
        <path d="M 327.5 920 L 327.5 900" />
        <text font-size="30" transform="translate(327.5, 950)" text-anchor="middle" dominant-baseline="middle" stroke="none" fill="black">0.2</text>
    </g>
    <g id="frame_0_leftticks">
        <path d="M 120 847.5 L 140 847.5" />
        <text font-size="30" transform="translate(110, 857.5)" text-anchor="end" dominant-baseline="middle" stroke="none" fill="black">0</text>
        <path d="M 120 658.431 L 130 658.431" />
        <path d="M 120 469.362 L 130 469.362" />
        <path d="M 120 280.293 L 130 280.293" />
        <path d="M 120 91.2234 L 130 91.2234" />
        <path d="M 120 832.956 L 130 832.956" />
        <path d="M 120 643.887 L 130 643.887" />
        <path d="M 120 454.818 L 130 454.818" />
        <path d="M 120 265.749 L 140 265.749" />
        <text font-size="30" transform="translate(110, 275.749)" text-anchor="end" dominant-baseline="middle" stroke="none" fill="black">400</text>
        <path d="M 120 76.6796 L 130 76.6796" />
        <path d="M 120 818.412 L 130 818.412" />
        <path d="M 120 629.343 L 130 629.343" />
        <path d="M 120 440.274 L 130 440.274" />
        <path d="M 120 251.205 L 130 251.205" />
        <path d="M 120 62.1359 L 130 62.1359" />
        <path d="M 120 803.869 L 130 803.869" />
        <path d="M 120 614.8 L 130 614.8" />
        <path d="M 120 425.73 L 130 425.73" />
        <path d="M 120 236.661 L 130 236.661" />
        <path d="M 120 789.325 L 130 789.325" />
        <path d="M 120 600.256 L 130 600.256" />
        <path d="M 120 411.187 L 140 411.187" />
        <text font-size="30" transform="translate(110, 421.187)" text-anchor="end" dominant-baseline="middle" stroke="none" fill="black">300</text>
        <path d="M 120 222.117 L 130 222.117" />
        <path d="M 120 774.781 L 130 774.781" />
        <path d="M 120 585.712 L 130 585.712" />
        <path d="M 120 396.643 L 130 396.643" />
        <path d="M 120 207.574 L 130 207.574" />
        <path d="M 120 760.237 L 130 760.237" />
        <path d="M 120 571.168 L 130 571.168" />
        <path d="M 120 382.099 L 130 382.099" />
        <path d="M 120 193.03 L 130 193.03" />
        <path d="M 120 745.694 L 130 745.694" />
        <path d="M 120 556.624 L 140 556.624" />
        <text font-size="30" transform="translate(110, 566.624)" text-anchor="end" dominant-baseline="middle" stroke="none" fill="black">200</text>
        <path d="M 120 367.555 L 130 367.555" />
        <path d="M 120 178.486 L 130 178.486" />
        <path d="M 120 731.15 L 130 731.15" />
        <path d="M 120 542.081 L 130 542.081" />
        <path d="M 120 353.011 L 130 353.011" />
        <path d="M 120 163.942 L 130 163.942" />
        <path d="M 120 905.675 L 130 905.675" />
        <path d="M 120 716.606 L 130 716.606" />
        <path d="M 120 527.537 L 130 527.537" />
        <path d="M 120 338.468 L 130 338.468" />
        <path d="M 120 149.399 L 130 149.399" />
        <path d="M 120 891.131 L 130 891.131" />
        <path d="M 120 702.062 L 140 702.062" />
        <text font-size="30" transform="translate(110, 712.062)" text-anchor="end" dominant-baseline="middle" stroke="none" fill="black">100</text>
        <path d="M 120 512.993 L 130 512.993" />
        <path d="M 120 323.924 L 130 323.924" />
        <path d="M 120 134.855 L 130 134.855" />
        <path d="M 120 876.588 L 130 876.588" />
        <path d="M 120 687.518 L 130 687.518" />
        <path d="M 120 498.449 L 130 498.449" />
        <path d="M 120 309.38 L 130 309.38" />
        <path d="M 120 120.311 L 140 120.311" />
        <text font-size="30" transform="translate(110, 130.311)" text-anchor="end" dominant-baseline="middle" stroke="none" fill="black">500</text>
        <path d="M 120 862.044 L 130 862.044" />
        <path d="M 120 672.975 L 130 672.975" />
        <path d="M 120 483.905 L 130 483.905" />
        <path d="M 120 294.836 L 130 294.836" />
        <path d="M 120 105.767 L 130 105.767" />
    </g>
    <g id="frame_0_topticks">
        <path d="M 535 50 L 535 60" />
        <path d="M 189.167 50 L 189.167 70" />
        <path d="M 950 50 L 950 60" />
        <path d="M 258.333 50 L 258.333 60" />
        <path d="M 880.833 50 L 880.833 70" />
        <path d="M 742.5 50 L 742.5 70" />
        <path d="M 604.167 50 L 604.167 70" />
        <path d="M 396.667 50 L 396.667 60" />
        <path d="M 465.833 50 L 465.833 70" />
        <path d="M 811.667 50 L 811.667 60" />
        <path d="M 673.333 50 L 673.333 60" />
        <path d="M 120 50 L 120 60" />
        <path d="M 327.5 50 L 327.5 70" />
    </g>
    <g id="frame_0_rightticks">
        <path d="M 950 847.5 L 930 847.5" />
        <path d="M 950 658.431 L 940 658.431" />
        <path d="M 950 469.362 L 940 469.362" />
        <path d="M 950 280.293 L 940 280.293" />
        <path d="M 950 91.2234 L 940 91.2234" />
        <path d="M 950 832.956 L 940 832.956" />
        <path d="M 950 643.887 L 940 643.887" />
        <path d="M 950 454.818 L 940 454.818" />
        <path d="M 950 265.749 L 930 265.749" />
        <path d="M 950 76.6796 L 940 76.6796" />
        <path d="M 950 818.412 L 940 818.412" />
        <path d="M 950 629.343 L 940 629.343" />
        <path d="M 950 440.274 L 940 440.274" />
        <path d="M 950 251.205 L 940 251.205" />
        <path d="M 950 62.1359 L 940 62.1359" />
        <path d="M 950 803.869 L 940 803.869" />
        <path d="M 950 614.8 L 940 614.8" />
        <path d="M 950 425.73 L 940 425.73" />
        <path d="M 950 236.661 L 940 236.661" />
        <path d="M 950 789.325 L 940 789.325" />
        <path d="M 950 600.256 L 940 600.256" />
        <path d="M 950 411.187 L 930 411.187" />
        <path d="M 950 222.117 L 940 222.117" />
        <path d="M 950 774.781 L 940 774.781" />
        <path d="M 950 585.712 L 940 585.712" />
        <path d="M 950 396.643 L 940 396.643" />
        <path d="M 950 207.574 L 940 207.574" />
        <path d="M 950 760.237 L 940 760.237" />
        <path d="M 950 571.168 L 940 571.168" />
        <path d="M 950 382.099 L 940 382.099" />
        <path d="M 950 193.03 L 940 193.03" />
        <path d="M 950 745.694 L 940 745.694" />
        <path d="M 950 556.624 L 930 556.624" />
        <path d="M 950 367.555 L 940 367.555" />
        <path d="M 950 178.486 L 940 178.486" />
        <path d="M 950 731.15 L 940 731.15" />
        <path d="M 950 542.081 L 940 542.081" />
        <path d="M 950 353.011 L 940 353.011" />
        <path d="M 950 163.942 L 940 163.942" />
        <path d="M 950 905.675 L 940 905.675" />
        <path d="M 950 716.606 L 940 716.606" />
        <path d="M 950 527.537 L 940 527.537" />
        <path d="M 950 338.468 L 940 338.468" />
        <path d="M 950 149.399 L 940 149.399" />
        <path d="M 950 891.131 L 940 891.131" />
        <path d="M 950 702.062 L 930 702.062" />
        <path d="M 950 512.993 L 940 512.993" />
        <path d="M 950 323.924 L 940 323.924" />
        <path d="M 950 134.855 L 940 134.855" />
        <path d="M 950 876.588 L 940 876.588" />
        <path d="M 950 687.518 L 940 687.518" />
        <path d="M 950 498.449 L 940 498.449" />
        <path d="M 950 309.38 L 940 309.38" />
        <path d="M 950 120.311 L 930 120.311" />
        <path d="M 950 862.044 L 940 862.044" />
        <path d="M 950 672.975 L 940 672.975" />
        <path d="M 950 483.905 L 940 483.905" />
        <path d="M 950 294.836 L 940 294.836" />
        <path d="M 950 105.767 L 940 105.767" />
    </g>
</g>
<g id="Legend_0">
    <rect x="576.5" y="50" width="373.5" height="115" stroke-width="3" stroke-dasharray="" stroke="black" stroke-opacity="1" fill="white" fill-opacity="1" />
    <g id="Legend_0_content" clip-path="url(#Legend_0_clip)">
        <use x="640.417" y="71.875" xlink:href="#Legend_0_mark_0" />
        <text font-size="30" transform="translate(704.333, 85)" text-anchor="start" dominant-baseline="middle" stroke="none" fill="black">dataset</text>
        <rect x="614.167" y="93.75" width="52.5" height="26.25" stroke-width="3" stroke-dasharray="" stroke="black" stroke-opacity="1" fill="lightblue" fill-opacity="1" />
        <text font-size="30" transform="translate(704.333, 120)" text-anchor="start" dominant-baseline="middle" stroke="none" fill="black">histogram</text>
        <text font-size="30" transform="translate(940, 120)" text-anchor="end" dominant-baseline="middle" stroke="none" fill="black">0.499</text>
        <line x1="614.167" y1="144.5" x2="666.667" y2="144.5" stroke-width="3" stroke-dasharray="" stroke="red" stroke-opacity="1" />
        <text font-size="30" transform="translate(704.333, 155)" text-anchor="start" dominant-baseline="middle" stroke="none" fill="black">curve</text>
    </g>
</g>
</g>
</svg>
