<?xml version="1.0" standalone="no"?>
<!DOCTYPE svg PUBLIC "-//W3C//DTD SVG 1.1//EN" "http://www.w3.org/Graphics/SVG/1.1/DTD/svg11.dtd">
<svg style="stroke-linejoin:miter; stroke:black; stroke-width:2.5; text-anchor:middle; fill:none" xmlns="http://www.w3.org/2000/svg" font-family="Helvetica, Arial, FreeSans, Sans, sans, sans-serif" width="1000px" height="1000px" version="1.1" xmlns:xlink="http://www.w3.org/1999/xlink" viewBox="0 0 1000 1000">
<defs>
    <clipPath id="Line_0_clip">
        <rect x="120" y="50" width="830" height="870" />
    </clipPath>
</defs>
<g id="whole_document">
<rect id="background" x="0" y="0" width="1000" height="1000" stroke="none" fill="white" />
<g id="Line_0" clip-path="url(#Line_0_clip)">
    <path d="M 120 920 L 8.30005e+07 -4.15e+08" stroke-width="3" stroke-dasharray="" stroke="black" stroke-opacity="1" fill="none" />
</g>
<g id="frame_0">
    <rect id="frame_0_border" x="120" y="50" width="830" height="870" />
    <g id="frame_0_bottomticks">
        <path d="M 120 920 L 120 900" />
        <text font-size="30" transform="translate(120, 950)" text-anchor="middle" dominant-baseline="middle" stroke="none" fill="black">0</text>
        <path d="M 203 920 L 203 910" />
        <path d="M 286 920 L 286 900" />
        <text font-size="30" transform="translate(286, 950)" text-anchor="middle" dominant-baseline="middle" stroke="none" fill="black">2</text>
        <path d="M 369 920 L 369 910" />
        <path d="M 452 920 L 452 900" />
        <text font-size="30" transform="translate(452, 950)" text-anchor="middle" dominant-baseline="middle" stroke="none" fill="black">4</text>
        <path d="M 535 920 L 535 910" />
        <path d="M 618 920 L 618 900" />
        <text font-size="30" transform="translate(618, 950)" text-anchor="middle" dominant-baseline="middle" stroke="none" fill="black">6</text>
        <path d="M 701 920 L 701 910" />
        <path d="M 784 920 L 784 900" />
        <text font-size="30" transform="translate(784, 950)" text-anchor="middle" dominant-baseline="middle" stroke="none" fill="black">8</text>
        <path d="M 867 920 L 867 910" />
        <path d="M 950 920 L 950 900" />
        <text font-size="30" transform="translate(950, 950)" text-anchor="middle" dominant-baseline="middle" stroke="none" fill="black">10</text>
    </g>
    <g id="frame_0_leftticks">
        <path d="M 120 920 L 140 920" />
        <text font-size="30" transform="translate(110, 930)" text-anchor="end" dominant-baseline="middle" stroke="none" fill="black">0</text>
        <path d="M 120 833 L 130 833" />
        <path d="M 120 746 L 140 746" />
        <text font-size="30" transform="translate(110, 756)" text-anchor="end" dominant-baseline="middle" stroke="none" fill="black">2</text>
        <path d="M 120 659 L 130 659" />
        <path d="M 120 572 L 140 572" />
        <text font-size="30" transform="translate(110, 582)" text-anchor="end" dominant-baseline="middle" stroke="none" fill="black">4</text>
        <path d="M 120 485 L 130 485" />
        <path d="M 120 398 L 140 398" />
        <text font-size="30" transform="translate(110, 408)" text-anchor="end" dominant-baseline="middle" stroke="none" fill="black">6</text>
        <path d="M 120 311 L 130 311" />
        <path d="M 120 224 L 140 224" />
        <text font-size="30" transform="translate(110, 234)" text-anchor="end" dominant-baseline="middle" stroke="none" fill="black">8</text>
        <path d="M 120 137 L 130 137" />
        <path d="M 120 50 L 140 50" />
        <text font-size="30" transform="translate(110, 60)" text-anchor="end" dominant-baseline="middle" stroke="none" fill="black">10</text>
    </g>
    <g id="frame_0_topticks">
        <path d="M 120 50 L 120 70" />
        <path d="M 203 50 L 203 60" />
        <path d="M 286 50 L 286 70" />
        <path d="M 369 50 L 369 60" />
        <path d="M 452 50 L 452 70" />
        <path d="M 535 50 L 535 60" />
        <path d="M 618 50 L 618 70" />
        <path d="M 701 50 L 701 60" />
        <path d="M 784 50 L 784 70" />
        <path d="M 867 50 L 867 60" />
        <path d="M 950 50 L 950 70" />
    </g>
    <g id="frame_0_rightticks">
        <path d="M 950 920 L 930 920" />
        <path d="M 950 833 L 940 833" />
        <path d="M 950 746 L 930 746" />
        <path d="M 950 659 L 940 659" />
        <path d="M 950 572 L 930 572" />
        <path d="M 950 485 L 940 485" />
        <path d="M 950 398 L 930 398" />
        <path d="M 950 311 L 940 311" />
        <path d="M 950 224 L 930 224" />
        <path d="M 950 137 L 940 137" />
        <path d="M 950 50 L 930 50" />
    </g>
</g>
</g>
</svg>
