<?xml version="1.0" standalone="no"?>
<!DOCTYPE svg PUBLIC "-//W3C//DTD SVG 1.1//EN" "http://www.w3.org/Graphics/SVG/1.1/DTD/svg11.dtd">
<svg style="stroke-linejoin:miter; stroke:black; stroke-width:2.5; text-anchor:middle; fill:none" xmlns="http://www.w3.org/2000/svg" font-family="Helvetica, Arial, FreeSans, Sans, sans, sans-serif" width="1000px" height="1000px" version="1.1" xmlns:xlink="http://www.w3.org/1999/xlink" viewBox="0 0 1000 1000">
<defs>
    <clipPath id="TimeSeries_0_clip">
        <rect x="120" y="50" width="830" height="870" />
    </clipPath>
</defs>
<g id="whole_document">
<rect id="background" x="0" y="0" width="1000" height="1000" stroke="none" fill="white" />
<g id="TimeSeries_0" clip-path="url(#TimeSeries_0_clip)">
    <path d="M 189.167 757.85 L 189.859 558.899 L 190.551 525.115 L 191.244 591.104 L 191.936 620.801 L 192.628 419.318 L 193.321 464.092 L 194.013 443.016 L 194.706 420.045 L 195.398 503.971 L 196.09 486.118 L 196.783 658.456 L 197.475 636.639 L 198.167 550.718 L 198.86 565.192 L 199.552 571.232 L 200.244 571.107 L 200.937 307.328 L 201.629 452.271 L 202.321 406.408 L 203.014 572.334 L 203.706 353.718 L 204.399 527.979 L 205.091 390.958 L 205.783 458.835 L 206.476 434.434 L 207.168 637.815 L 207.86 449.482 L 208.553 566.417 L 209.245 413.718 L 209.937 402.011 L 210.63 568.191 L 211.322 418.591 L 212.015 377.525 L 212.707 556.097 L 213.399 364.416 L 214.092 392.983 L 214.784 588.516 L 215.476 430.757 L 216.169 349.034 L 216.861 582.611 L 217.553 528.466 L 218.246 379.231 L 218.938 609.759 L 219.63 661.146 L 220.323 445.949 L 221.015 513.702 L 221.708 466.587 L 222.4 588.335 L 223.092 440.879 L 223.785 464.208 L 224.477 605.313 L 225.169 523.022 L 225.862 626.471 L 226.554 482.893 L 227.246 397.746 L 227.939 438.405 L 228.631 535.162 L 229.323 261.478 L 230.016 621.578 L 230.708 487.627 L 231.401 303.648 L 232.093 555.221 L 232.785 573.759 L 233.478 521.092 L 234.17 441.347 L 234.862 375.823 L 235.555 504.017 L 236.247 580.745 L 236.939 463.156 L 237.632 487.573 L 238.324 514.343 L 239.017 498.401 L 239.709 500.329 L 240.401 507.031 L 241.094 416.415 L 241.786 461.313 L 242.478 454.999 L 243.171 527.548 L 243.863 506.39 L 244.555 529.85 L 245.248 465.482 L 245.94 459.005 L 246.632 535.463 L 247.325 519.059 L 248.017 415.231 L 248.71 365.723 L 249.402 477.451 L 250.094 476.912 L 250.787 407.569 L 251.479 443.991 L 252.171 550.822 L 252.864 627.634 L 253.556 506.403 L 254.248 584.061 L 254.941 500.881 L 255.633 357.863 L 256.325 483.231 L 257.018 533.401 L 257.71 466.245 L 258.403 439.11 L 259.095 444.205 L 259.787 438.466 L 260.48 369.158 L 261.172 201.017 L 261.864 453.558 L 262.557 508.742 L 263.249 607.608 L 263.941 293.988 L 264.634 441.295 L 265.326 619.758 L 266.019 521.825 L 266.711 342.6 L 267.403 490.153 L 268.096 514.294 L 268.788 428.233 L 269.48 463.617 L 270.173 475.501 L 270.865 366.784 L 271.557 457.628 L 272.25 402.25 L 272.942 433.536 L 273.634 540.182 L 274.327 339.12 L 275.019 404.146 L 275.712 265.998 L 276.404 543.636 L 277.096 376.437 L 277.789 480.018 L 278.481 518.938 L 279.173 520.517 L 279.866 357.392 L 280.558 413.098 L 281.25 304.631 L 281.943 447.358 L 282.635 372.751 L 283.327 408.099 L 284.02 556.737 L 284.712 500.051 L 285.405 329.579 L 286.097 476.015 L 286.789 452.583 L 287.482 423.534 L 288.174 448.634 L 288.866 455.207 L 289.559 485.441 L 290.251 491.508 L 290.943 275.473 L 291.636 429.65 L 292.328 592.904 L 293.021 302.492 L 293.713 659.601 L 294.405 439.707 L 295.098 326.158 L 295.79 480.083 L 296.482 410.196 L 297.175 284.159 L 297.867 403.808 L 298.559 496.338 L 299.252 588.858 L 299.944 268.345 L 300.636 593.379 L 301.329 513.587 L 302.021 461.853 L 302.714 323.227 L 303.406 563.809 L 304.098 473.668 L 304.791 282.747 L 305.483 397.277 L 306.175 454.145 L 306.868 618.83 L 307.56 389.271 L 308.252 436.881 L 308.945 438.664 L 309.637 434.749 L 310.329 313.28 L 311.022 570.978 L 311.714 466.663 L 312.407 338.768 L 313.099 427.633 L 313.791 530.325 L 314.484 269.31 L 315.176 524.355 L 315.868 351.717 L 316.561 341.767 L 317.253 439.057 L 317.945 347.583 L 318.638 568.273 L 319.33 486.549 L 320.023 504.492 L 320.715 420.2 L 321.407 589.169 L 322.1 551.151 L 322.792 415.158 L 323.484 404.507 L 324.177 438.338 L 324.869 211.883 L 325.561 357.39 L 326.254 527.585 L 326.946 425.506 L 327.638 274.134 L 328.331 566.206 L 329.023 518.31 L 329.716 551.862 L 330.408 391.148 L 331.1 420.771 L 331.793 506.194 L 332.485 395.561 L 333.177 435.625 L 333.87 480.134 L 334.562 257.227 L 335.254 249.706 L 335.947 291.126 L 336.639 478.09 L 337.331 551.129 L 338.024 399.344 L 338.716 373.804 L 339.409 283.157 L 340.101 482.505 L 340.793 379.637 L 341.486 423.064 L 342.178 579.818 L 342.87 426.114 L 343.563 368.251 L 344.255 547.491 L 344.947 251.906 L 345.64 491.667 L 346.332 395.928 L 347.025 378.439 L 347.717 383.03 L 348.409 315.795 L 349.102 476.833 L 349.794 208.59 L 350.486 270.2 L 351.179 482.888 L 351.871 481.947 L 352.563 241.962 L 353.256 502.896 L 353.948 506.253 L 354.64 429.206 L 355.333 122.5 L 356.025 282.567 L 356.718 644.342 L 357.41 406.539 L 358.102 385.75 L 358.795 383.016 L 359.487 387.137 L 360.179 603.641 L 360.872 276.586 L 361.564 349.927 L 362.256 732.891 L 362.949 501.144 L 363.641 542.918 L 364.334 496.722 L 365.026 441.864 L 365.718 392.471 L 366.411 463.816 L 367.103 542.214 L 367.795 420.523 L 368.488 243.009 L 369.18 413.523 L 369.872 190.26 L 370.565 177.779 L 371.257 435.058 L 371.949 431.733 L 372.642 614.302 L 373.334 337.644 L 374.027 285.082 L 374.719 388.681 L 375.411 381.123 L 376.104 426.389 L 376.796 309.36 L 377.488 291.628 L 378.181 346.264 L 378.873 378.64 L 379.565 461.782 L 380.258 344.769 L 380.95 509.023 L 381.642 503.521 L 382.335 422.472 L 383.027 423.246 L 383.72 210.974 L 384.412 507.095 L 385.104 504.414 L 385.797 606.142 L 386.489 388.523 L 387.181 459.402 L 387.874 537.507 L 388.566 644.706 L 389.258 327.802 L 389.951 424.504 L 390.643 506.538 L 391.336 353.946 L 392.028 244.81 L 392.72 463.739 L 393.413 323.982 L 394.105 331.539 L 394.797 477.663 L 395.49 443.218 L 396.182 453.598 L 396.874 234.156 L 397.567 401.099 L 398.259 551.757 L 398.951 454.867 L 399.644 327.022 L 400.336 489.675 L 401.029 444.939 L 401.721 521.12 L 402.413 358.198 L 403.106 347.68 L 403.798 425.849 L 404.49 412.938 L 405.183 549.243 L 405.875 319.352 L 406.567 485.083 L 407.26 541.003 L 407.952 539.019 L 408.644 444.57 L 409.337 470.898 L 410.029 279.837 L 410.722 771.509 L 411.414 416.38 L 412.106 458.1 L 412.799 368.759 L 413.491 518.972 L 414.183 338.315 L 414.876 256.609 L 415.568 366.61 L 416.26 448.546 L 416.953 262.887 L 417.645 347.992 L 418.338 275.862 L 419.03 383.102 L 419.722 387.475 L 420.415 383.502 L 421.107 441.27 L 421.799 422.023 L 422.492 352.759 L 423.184 562.948 L 423.876 646.546 L 424.569 341.825 L 425.261 530.877 L 425.953 307.531 L 426.646 498.946 L 427.338 484.262 L 428.031 437.591 L 428.723 489.242 L 429.415 521.46 L 430.108 408.437 L 430.8 253.661 L 431.492 358.174 L 432.185 450.691 L 432.877 333.861 L 433.569 416.477 L 434.262 331.578 L 434.954 458.916 L 435.646 523.761 L 436.339 604.263 L 437.031 443.954 L 437.724 466.014 L 438.416 327.036 L 439.108 358.745 L 439.801 436.702 L 440.493 511.154 L 441.185 276.173 L 441.878 322.632 L 442.57 344.967 L 443.262 397.659 L 443.955 389.74 L 444.647 336.734 L 445.34 339.272 L 446.032 568.045 L 446.724 289.199 L 447.417 455.799 L 448.109 478.338 L 448.801 514.815 L 449.494 391.302 L 450.186 253.686 L 450.878 491.563 L 451.571 314.552 L 452.263 518.016 L 452.955 332.838 L 453.648 211.741 L 454.34 548.436 L 455.033 411.379 L 455.725 623.438 L 456.417 383.546 L 457.11 280.858 L 457.802 388.954 L 458.494 339.297 L 459.187 442.572 L 459.879 645.181 L 460.571 488.193 L 461.264 437.41 L 461.956 394.389 L 462.648 391.885 L 463.341 470.425 L 464.033 610.283 L 464.726 328.109 L 465.418 356.652 L 466.11 403.607 L 466.803 614.374 L 467.495 500.842 L 468.187 493.874 L 468.88 362.659 L 469.572 236.847 L 470.264 463.767 L 470.957 605.944 L 471.649 576.499 L 472.342 291.06 L 473.034 441.964 L 473.726 452.978 L 474.419 369.137 L 475.111 474.685 L 475.803 482.756 L 476.496 658.909 L 477.188 569.327 L 477.88 376.775 L 478.573 535.867 L 479.265 342.395 L 479.957 658.428 L 480.65 540.758 L 481.342 654.471 L 482.035 463.781 L 482.727 622.826 L 483.419 477.244 L 484.112 407.808 L 484.804 486.585 L 485.496 540.869 L 486.189 431.303 L 486.881 470.162 L 487.573 689.686 L 488.266 520.26 L 488.958 463.81 L 489.65 454.745 L 490.343 387.656 L 491.035 547.898 L 491.728 468.271 L 492.42 365.171 L 493.112 681.727 L 493.805 598.971 L 494.497 329.068 L 495.189 443.203 L 495.882 569.404 L 496.574 402.947 L 497.266 343.996 L 497.959 371.492 L 498.651 471.191 L 499.344 376.289 L 500.036 554.326 L 500.728 533.977 L 501.421 228.663 L 502.113 456.98 L 502.805 548.453 L 503.498 359.84 L 504.19 574.778 L 504.882 508.407 L 505.575 578.337 L 506.267 581.77 L 506.959 541.917 L 507.652 423.103 L 508.344 723.316 L 509.037 327.765 L 509.729 343.896 L 510.421 665.52 L 511.114 467.63 L 511.806 575.322 L 512.498 521.007 L 513.191 553.684 L 513.883 428.081 L 514.575 484.246 L 515.268 693.92 L 515.96 521.989 L 516.652 584.978 L 517.345 702.055 L 518.037 458.868 L 518.73 605.485 L 519.422 464.055 L 520.114 596.445 L 520.807 500.043 L 521.499 778.218 L 522.191 501.029 L 522.884 419.973 L 523.576 442.532 L 524.268 460.737 L 524.961 708.417 L 525.653 685.257 L 526.346 585.063 L 527.038 634.836 L 527.73 556.592 L 528.423 645.292 L 529.115 423.312 L 529.807 416.595 L 530.5 595.176 L 531.192 505.557 L 531.884 483.81 L 532.577 545.369 L 533.269 543.348 L 533.961 434.741 L 534.654 504.078 L 535.346 583.506 L 536.039 427.257 L 536.731 436.94 L 537.423 427.032 L 538.116 630.313 L 538.808 430.752 L 539.5 597.266 L 540.193 430.665 L 540.885 503.281 L 541.577 474.764 L 542.27 536.522 L 542.962 540.102 L 543.654 451.504 L 544.347 434.14 L 545.039 736.21 L 545.732 673.29 L 546.424 519.667 L 547.116 777.201 L 547.809 484.16 L 548.501 406.089 L 549.193 469.191 L 549.886 670.87 L 550.578 643.195 L 551.27 559.15 L 551.963 553.885 L 552.655 569.313 L 553.348 635.821 L 554.04 569.568 L 554.732 697.244 L 555.425 505.543 L 556.117 452.439 L 556.809 402.537 L 557.502 375.153 L 558.194 550.608 L 558.886 520.297 L 559.579 562.504 L 560.271 406.871 L 560.963 766.357 L 561.656 465.445 L 562.348 564.571 L 563.041 610.725 L 563.733 517.264 L 564.425 540.048 L 565.118 599.664 L 565.81 501.153 L 566.502 595.545 L 567.195 451.956 L 567.887 503.488 L 568.579 638.522 L 569.272 491.541 L 569.964 597.055 L 570.656 555.827 L 571.349 468.386 L 572.041 451.962 L 572.734 379.252 L 573.426 582.5 L 574.118 826.836 L 574.811 578.198 L 575.503 546.148 L 576.195 400.123 L 576.888 552.823 L 577.58 466.964 L 578.272 542.272 L 578.965 391.79 L 579.657 469.326 L 580.35 733.616 L 581.042 427.182 L 581.734 582.769 L 582.427 639.194 L 583.119 501.97 L 583.811 625.18 L 584.504 511.335 L 585.196 606.179 L 585.888 546.224 L 586.581 585.953 L 587.273 645.827 L 587.965 675.702 L 588.658 436.096 L 589.35 486.69 L 590.043 583.04 L 590.735 725.528 L 591.427 538.67 L 592.12 476.701 L 592.812 625.482 L 593.504 512.741 L 594.197 603.548 L 594.889 499.675 L 595.581 377.976 L 596.274 611.595 L 596.966 623.749 L 597.658 486.002 L 598.351 708.877 L 599.043 573.052 L 599.736 459.538 L 600.428 630.607 L 601.12 702.958 L 601.813 556.603 L 602.505 747.505 L 603.197 539.517 L 603.89 712.571 L 604.582 583.134 L 605.274 769.918 L 605.967 476.099 L 606.659 460.13 L 607.352 486.505 L 608.044 675.697 L 608.736 614.979 L 609.429 522.494 L 610.121 603.538 L 610.813 446.545 L 611.506 744.78 L 612.198 709.027 L 612.89 535.993 L 613.583 596.683 L 614.275 531.041 L 614.967 637.61 L 615.66 581.806 L 616.352 411.424 L 617.045 607.974 L 617.737 561.136 L 618.429 700.708 L 619.122 657.245 L 619.814 372.875 L 620.506 551.848 L 621.199 577.335 L 621.891 502.03 L 622.583 730.786 L 623.276 486.897 L 623.968 560.365 L 624.66 753.499 L 625.353 506.378 L 626.045 539.988 L 626.738 530.542 L 627.43 557.956 L 628.122 511.993 L 628.815 630.65 L 629.507 465.073 L 630.199 623.5 L 630.892 578.543 L 631.584 575.93 L 632.276 408.068 L 632.969 384.587 L 633.661 557.302 L 634.354 597.915 L 635.046 531.231 L 635.738 524.408 L 636.431 412.775 L 637.123 704.776 L 637.815 634.227 L 638.508 739.44 L 639.2 576.651 L 639.892 643.604 L 640.585 505.725 L 641.277 550.105 L 641.969 581.345 L 642.662 597.52 L 643.354 458.15 L 644.047 672.262 L 644.739 721.03 L 645.431 398.064 L 646.124 679.639 L 646.816 593.365 L 647.508 389.509 L 648.201 673.437 L 648.893 638.341 L 649.585 650.139 L 650.278 707.025 L 650.97 461.51 L 651.662 559.307 L 652.355 668.415 L 653.047 563.143 L 653.74 517.355 L 654.432 688.014 L 655.124 600.914 L 655.817 488.928 L 656.509 557.692 L 657.201 617.378 L 657.894 537.315 L 658.586 836.623 L 659.278 605.949 L 659.971 708.268 L 660.663 514.166 L 661.356 619.617 L 662.048 597.61 L 662.74 610.193 L 663.433 601.884 L 664.125 538.903 L 664.817 691.536 L 665.51 471.97 L 666.202 492.139 L 666.894 703.348 L 667.587 585.963 L 668.279 847.5 L 668.971 556.236 L 669.664 545.642 L 670.356 650.629 L 671.049 668.829 L 671.741 552.333 L 672.433 650.061 L 673.126 750.595 L 673.818 531.442 L 674.51 668.122 L 675.203 634.253 L 675.895 657.958 L 676.587 692.592 L 677.28 707.274 L 677.972 615.682 L 678.664 618.754 L 679.357 634.756 L 680.049 605.089 L 680.742 736.955 L 681.434 700.671 L 682.126 487.22 L 682.819 751.44 L 683.511 658.847 L 684.203 526.305 L 684.896 417.221 L 685.588 827.916 L 686.28 666.01 L 686.973 695.376 L 687.665 663.776 L 688.358 709.856 L 689.05 443.815 L 689.742 602.772 L 690.435 740.783 L 691.127 365.382 L 691.819 527.032 L 692.512 626.803 L 693.204 644.699 L 693.896 497.677 L 694.589 549.649 L 695.281 616.799 L 695.973 657.413 L 696.666 455.913 L 697.358 552.335 L 698.051 534.158 L 698.743 524.544 L 699.435 572.373 L 700.128 513.192 L 700.82 659.199 L 701.512 695.529 L 702.205 728.086 L 702.897 597.754 L 703.589 639.908 L 704.282 732.53 L 704.974 530.456 L 705.666 752.093 L 706.359 634.567 L 707.051 370.555 L 707.744 617.845 L 708.436 586.156 L 709.128 512.127 L 709.821 556.611 L 710.513 752.225 L 711.205 734.258 L 711.898 572.671 L 712.59 499.66 L 713.282 632.67 L 713.975 571.522 L 714.667 535.833 L 715.36 422.59 L 716.052 649.061 L 716.744 693.194 L 717.437 499.275 L 718.129 637.898 L 718.821 429.558 L 719.514 581.91 L 720.206 838.054 L 720.898 689.232 L 721.591 373.315 L 722.283 669.903 L 722.975 533.997 L 723.668 585.785 L 724.36 580.379 L 725.053 512.896 L 725.745 739.342 L 726.437 709.345 L 727.13 673.78 L 727.822 635.06 L 728.514 639.02 L 729.207 625.142 L 729.899 715.786 L 730.591 518.435 L 731.284 678.752 L 731.976 618.178 L 732.669 774.592 L 733.361 602.619 L 734.053 569.139 L 734.746 648.921 L 735.438 636.51 L 736.13 686.824 L 736.823 540.696 L 737.515 507.521 L 738.207 660.728 L 738.9 463.595 L 739.592 836.546 L 740.284 665.001 L 740.977 474.506 L 741.669 512.622 L 742.362 361.977 L 743.054 591.025 L 743.746 608.266 L 744.439 608.588 L 745.131 463.223 L 745.823 574.958 L 746.516 459.781 L 747.208 617.482 L 747.9 601.118 L 748.593 506.313 L 749.285 654.13 L 749.977 600.098 L 750.67 397.665 L 751.362 675.136 L 752.055 564.496 L 752.747 531.539 L 753.439 543.601 L 754.132 566.367 L 754.824 677.01 L 755.516 478.741 L 756.209 502.887 L 756.901 695.335 L 757.593 763.344 L 758.286 586.641 L 758.978 490.659 L 759.671 637.066 L 760.363 700.56 L 761.055 701 L 761.748 559.321 L 762.44 520.19 L 763.132 711.949 L 763.825 767.551 L 764.517 470.416 L 765.209 628.13 L 765.902 546.92 L 766.594 732.752 L 767.286 578.67 L 767.979 664.062 L 768.671 780.844 L 769.364 579.821 L 770.056 669.816 L 770.748 537.79 L 771.441 625.518 L 772.133 581.358 L 772.825 473.757 L 773.518 605.478 L 774.21 491.289 L 774.902 533.131 L 775.595 424.233 L 776.287 519.003 L 776.979 479.608 L 777.672 373.355 L 778.364 532.198 L 779.057 656.891 L 779.749 667.728 L 780.441 584.373 L 781.134 375.59 L 781.826 582.973 L 782.518 680.056 L 783.211 433.182 L 783.903 617.265 L 784.595 661.202 L 785.288 685.53 L 785.98 560.139 L 786.673 548.35 L 787.365 498.405 L 788.057 415.854 L 788.75 660.709 L 789.442 584.034 L 790.134 622.063 L 790.827 414.199 L 791.519 693.572 L 792.211 677.338 L 792.904 547.076 L 793.596 473.603 L 794.288 568.621 L 794.981 616.423 L 795.673 522.157 L 796.366 644.553 L 797.058 394.779 L 797.75 476.767 L 798.443 614.983 L 799.135 489.39 L 799.827 579.865 L 800.52 720.413 L 801.212 721.692 L 801.904 583.151 L 802.597 554.757 L 803.289 732.902 L 803.981 469.004 L 804.674 651.023 L 805.366 505.595 L 806.059 598.195 L 806.751 613.649 L 807.443 490.907 L 808.136 650.119 L 808.828 689.326 L 809.52 472.977 L 810.213 450.644 L 810.905 551.038 L 811.597 547.679 L 812.29 660.64 L 812.982 604.055 L 813.675 555.931 L 814.367 584.253 L 815.059 450.001 L 815.752 497.136 L 816.444 710.47 L 817.136 553.7 L 817.829 675.88 L 818.521 499.264 L 819.213 700.187 L 819.906 667.517 L 820.598 667.917 L 821.29 504.453 L 821.983 620.184 L 822.675 619.452 L 823.368 666.912 L 824.06 669.332 L 824.752 573.951 L 825.445 656.214 L 826.137 577.215 L 826.829 671.813 L 827.522 527.854 L 828.214 472.814 L 828.906 428.344 L 829.599 411.303 L 830.291 332.863 L 830.983 476.898 L 831.676 615.227 L 832.368 623.888 L 833.061 515.471 L 833.753 633.501 L 834.445 589.173 L 835.138 369.218 L 835.83 665.038 L 836.522 552.844 L 837.215 621.69 L 837.907 461.812 L 838.599 601.033 L 839.292 579.952 L 839.984 759.297 L 840.677 440.967 L 841.369 489.347 L 842.061 586.332 L 842.754 685.335 L 843.446 402.663 L 844.138 455.667 L 844.831 532.36 L 845.523 718.752 L 846.215 510.139 L 846.908 651.786 L 847.6 508.958 L 848.292 343.648 L 848.985 518.361 L 849.677 610.456 L 850.37 475.073 L 851.062 477.841 L 851.754 556.643 L 852.447 451.738 L 853.139 394.489 L 853.831 621.98 L 854.524 628.275 L 855.216 401.892 L 855.908 590.069 L 856.601 468.496 L 857.293 494.645 L 857.985 604.325 L 858.678 558.754 L 859.37 464.555 L 860.063 568.302 L 860.755 775.935 L 861.447 670.174 L 862.14 512.122 L 862.832 665.312 L 863.524 373.588 L 864.217 536.717 L 864.909 519.813 L 865.601 375.674 L 866.294 599.746 L 866.986 492.844 L 867.679 398.065 L 868.371 592.476 L 869.063 587.253 L 869.756 414.357 L 870.448 570.849 L 871.14 650.36 L 871.833 354.327 L 872.525 508.95 L 873.217 486.564 L 873.91 504.049 L 874.602 524.877 L 875.294 453.679 L 875.987 481.55 L 876.679 412.403 L 877.372 472.572 L 878.064 542.396 L 878.756 300.284 L 879.449 455.301 L 880.141 625.768 L 880.833 395.068" stroke-width="3" stroke-dasharray="" stroke="black" stroke-opacity="1" fill="none" />
</g>
<g id="frame_0">
    <rect id="frame_0_border" x="120" y="50" width="830" height="870" />
    <g id="frame_0_bottomticks">
        <path d="M 415.799 920 L 415.799 910" />
        <path d="M 323.484 920 L 323.484 910" />
        <path d="M 796.596 920 L 796.596 910" />
        <path d="M 704.282 920 L 704.282 910" />
        <path d="M 288.866 920 L 288.866 910" />
        <path d="M 715.821 920 L 715.821 910" />
        <path d="M 611.967 920 L 611.967 910" />
        <path d="M 161.934 920 L 161.934 910" />
        <path d="M 311.945 920 L 311.945 910" />
        <path d="M 519.653 920 L 519.653 910" />
        <path d="M 727.36 920 L 727.36 910" />
        <path d="M 946.607 920 L 946.607 910" />
        <path d="M 219.63 920 L 219.63 910" />
        <path d="M 427.338 920 L 427.338 910" />
        <path d="M 231.17 920 L 231.17 900" />
        <text font-size="30" transform="translate(231.17, 950)" text-anchor="middle" dominant-baseline="middle" stroke="none" fill="black">01 AM</text>
        <path d="M 681.203 920 L 681.203 910" />
        <path d="M 842.754 920 L 842.754 910" />
        <path d="M 819.675 920 L 819.675 910" />
        <path d="M 277.327 920 L 277.327 910" />
        <path d="M 208.091 920 L 208.091 910" />
        <path d="M 485.035 920 L 485.035 910" />
        <path d="M 150.395 920 L 150.395 910" />
        <path d="M 854.293 920 L 854.293 910" />
        <path d="M 635.046 920 L 635.046 910" />
        <path d="M 877.372 920 L 877.372 910" />
        <path d="M 392.72 920 L 392.72 910" />
        <path d="M 196.552 920 L 196.552 910" />
        <path d="M 785.057 920 L 785.057 910" />
        <path d="M 750.439 920 L 750.439 910" />
        <path d="M 865.832 920 L 865.832 910" />
        <path d="M 450.417 920 L 450.417 910" />
        <path d="M 265.788 920 L 265.788 910" />
        <path d="M 600.428 920 L 600.428 910" />
        <path d="M 761.978 920 L 761.978 910" />
        <path d="M 138.855 920 L 138.855 910" />
        <path d="M 369.642 920 L 369.642 910" />
        <path d="M 542.731 920 L 542.731 910" />
        <path d="M 508.113 920 L 508.113 910" />
        <path d="M 381.181 920 L 381.181 910" />
        <path d="M 461.956 920 L 461.956 900" />
        <text font-size="30" transform="translate(461.956, 950)" text-anchor="middle" dominant-baseline="middle" stroke="none" fill="black">07 AM</text>
        <path d="M 658.125 920 L 658.125 910" />
        <path d="M 773.518 920 L 773.518 910" />
        <path d="M 254.248 920 L 254.248 910" />
        <path d="M 358.102 920 L 358.102 910" />
        <path d="M 888.911 920 L 888.911 910" />
        <path d="M 554.271 920 L 554.271 910" />
        <path d="M 669.664 920 L 669.664 910" />
        <path d="M 473.495 920 L 473.495 910" />
        <path d="M 127.316 920 L 127.316 910" />
        <path d="M 935.068 920 L 935.068 910" />
        <path d="M 623.507 920 L 623.507 910" />
        <path d="M 900.45 920 L 900.45 910" />
        <path d="M 565.81 920 L 565.81 910" />
        <path d="M 185.013 920 L 185.013 910" />
        <path d="M 438.877 920 L 438.877 910" />
        <path d="M 531.192 920 L 531.192 910" />
        <path d="M 346.563 920 L 346.563 900" />
        <text font-size="30" transform="translate(346.563, 950)" text-anchor="middle" dominant-baseline="middle" stroke="none" fill="black">04 AM</text>
        <path d="M 242.709 920 L 242.709 910" />
        <path d="M 923.529 920 L 923.529 900" />
        <text font-size="30" transform="translate(923.529, 950)" text-anchor="middle" dominant-baseline="middle" stroke="none" fill="black">06 PM</text>
        <path d="M 911.989 920 L 911.989 910" />
        <path d="M 577.349 920 L 577.349 900" />
        <text font-size="30" transform="translate(577.349, 950)" text-anchor="middle" dominant-baseline="middle" stroke="none" fill="black">10 AM</text>
        <path d="M 588.889 920 L 588.889 910" />
        <path d="M 831.214 920 L 831.214 910" />
        <path d="M 300.406 920 L 300.406 910" />
        <path d="M 335.024 920 L 335.024 910" />
        <path d="M 692.742 920 L 692.742 900" />
        <text font-size="30" transform="translate(692.742, 950)" text-anchor="middle" dominant-baseline="middle" stroke="none" fill="black">12 PM</text>
        <path d="M 496.574 920 L 496.574 910" />
        <path d="M 738.9 920 L 738.9 910" />
        <path d="M 173.473 920 L 173.473 910" />
        <path d="M 404.26 920 L 404.26 910" />
        <path d="M 646.585 920 L 646.585 910" />
        <path d="M 808.136 920 L 808.136 900" />
        <text font-size="30" transform="translate(808.136, 950)" text-anchor="middle" dominant-baseline="middle" stroke="none" fill="black">03 PM</text>
    </g>
    <g id="frame_0_leftticks">
        <path d="M 120 871.318 L 130 871.318" />
        <path d="M 120 767.655 L 130 767.655" />
        <path d="M 120 819.486 L 140 819.486" />
        <text font-size="30" transform="translate(110, 829.486)" text-anchor="end" dominant-baseline="middle" stroke="none" fill="black">2</text>
        <path d="M 120 715.824 L 140 715.824" />
        <text font-size="30" transform="translate(110, 725.824)" text-anchor="end" dominant-baseline="middle" stroke="none" fill="black">3</text>
        <path d="M 120 529.23 L 130 529.23" />
        <path d="M 120 508.498 L 140 508.498" />
        <text font-size="30" transform="translate(110, 518.498)" text-anchor="end" dominant-baseline="middle" stroke="none" fill="black">5</text>
        <path d="M 120 124.945 L 130 124.945" />
        <path d="M 120 394.469 L 130 394.469" />
        <path d="M 120 197.509 L 140 197.509" />
        <text font-size="30" transform="translate(110, 207.509)" text-anchor="end" dominant-baseline="middle" stroke="none" fill="black">8</text>
        <path d="M 120 591.428 L 130 591.428" />
        <path d="M 120 695.091 L 130 695.091" />
        <path d="M 120 498.132 L 130 498.132" />
        <path d="M 120 902.417 L 130 902.417" />
        <path d="M 120 363.37 L 130 363.37" />
        <path d="M 120 560.329 L 130 560.329" />
        <path d="M 120 788.388 L 130 788.388" />
        <path d="M 120 684.725 L 130 684.725" />
        <path d="M 120 321.905 L 130 321.905" />
        <path d="M 120 270.073 L 130 270.073" />
        <path d="M 120 643.26 L 130 643.26" />
        <path d="M 120 570.696 L 130 570.696" />
        <path d="M 120 62.7476 L 130 62.7476" />
        <path d="M 120 477.399 L 130 477.399" />
        <path d="M 120 581.062 L 130 581.062" />
        <path d="M 120 612.161 L 140 612.161" />
        <text font-size="30" transform="translate(110, 622.161)" text-anchor="end" dominant-baseline="middle" stroke="none" fill="black">4</text>
        <path d="M 120 156.044 L 130 156.044" />
        <path d="M 120 705.457 L 130 705.457" />
        <path d="M 120 301.172 L 140 301.172" />
        <text font-size="30" transform="translate(110, 311.172)" text-anchor="end" dominant-baseline="middle" stroke="none" fill="black">7</text>
        <path d="M 120 332.271 L 130 332.271" />
        <path d="M 120 176.777 L 130 176.777" />
        <path d="M 120 549.963 L 130 549.963" />
        <path d="M 120 311.538 L 130 311.538" />
        <path d="M 120 207.876 L 130 207.876" />
        <path d="M 120 809.12 L 130 809.12" />
        <path d="M 120 778.021 L 130 778.021" />
        <path d="M 120 166.41 L 130 166.41" />
        <path d="M 120 415.201 L 130 415.201" />
        <path d="M 120 249.341 L 130 249.341" />
        <path d="M 120 653.626 L 130 653.626" />
        <path d="M 120 404.835 L 140 404.835" />
        <text font-size="30" transform="translate(110, 414.835)" text-anchor="end" dominant-baseline="middle" stroke="none" fill="black">6</text>
        <path d="M 120 736.556 L 130 736.556" />
        <path d="M 120 518.864 L 130 518.864" />
        <path d="M 120 384.102 L 130 384.102" />
        <path d="M 120 881.684 L 130 881.684" />
        <path d="M 120 73.1139 L 130 73.1139" />
        <path d="M 120 135.312 L 130 135.312" />
        <path d="M 120 425.568 L 130 425.568" />
        <path d="M 120 290.806 L 130 290.806" />
        <path d="M 120 850.585 L 130 850.585" />
        <path d="M 120 238.974 L 130 238.974" />
        <path d="M 120 726.19 L 130 726.19" />
        <path d="M 120 114.579 L 130 114.579" />
        <path d="M 120 342.637 L 130 342.637" />
        <path d="M 120 104.213 L 130 104.213" />
        <path d="M 120 601.794 L 130 601.794" />
        <path d="M 120 218.242 L 130 218.242" />
        <path d="M 120 840.219 L 130 840.219" />
        <path d="M 120 259.707 L 130 259.707" />
        <path d="M 120 674.358 L 130 674.358" />
        <path d="M 120 663.992 L 130 663.992" />
        <path d="M 120 467.033 L 130 467.033" />
        <path d="M 120 52.3813 L 130 52.3813" />
        <path d="M 120 228.608 L 130 228.608" />
        <path d="M 120 632.893 L 130 632.893" />
        <path d="M 120 487.765 L 130 487.765" />
        <path d="M 120 435.934 L 130 435.934" />
        <path d="M 120 829.853 L 130 829.853" />
        <path d="M 120 622.527 L 130 622.527" />
        <path d="M 120 860.952 L 130 860.952" />
        <path d="M 120 912.783 L 130 912.783" />
        <path d="M 120 539.597 L 130 539.597" />
        <path d="M 120 798.754 L 130 798.754" />
        <path d="M 120 446.3 L 130 446.3" />
        <path d="M 120 757.289 L 130 757.289" />
        <path d="M 120 373.736 L 130 373.736" />
        <path d="M 120 145.678 L 130 145.678" />
        <path d="M 120 83.4802 L 130 83.4802" />
        <path d="M 120 892.05 L 130 892.05" />
        <path d="M 120 93.8464 L 140 93.8464" />
        <text font-size="30" transform="translate(110, 103.846)" text-anchor="end" dominant-baseline="middle" stroke="none" fill="black">9</text>
        <path d="M 120 353.004 L 130 353.004" />
        <path d="M 120 280.44 L 130 280.44" />
        <path d="M 120 746.922 L 130 746.922" />
        <path d="M 120 187.143 L 130 187.143" />
        <path d="M 120 456.666 L 130 456.666" />
    </g>
    <g id="frame_0_topticks">
        <path d="M 415.799 50 L 415.799 60" />
        <path d="M 323.484 50 L 323.484 60" />
        <path d="M 796.596 50 L 796.596 60" />
        <path d="M 704.282 50 L 704.282 60" />
        <path d="M 288.866 50 L 288.866 60" />
        <path d="M 715.821 50 L 715.821 60" />
        <path d="M 611.967 50 L 611.967 60" />
        <path d="M 161.934 50 L 161.934 60" />
        <path d="M 311.945 50 L 311.945 60" />
        <path d="M 519.653 50 L 519.653 60" />
        <path d="M 727.36 50 L 727.36 60" />
        <path d="M 946.607 50 L 946.607 60" />
        <path d="M 219.63 50 L 219.63 60" />
        <path d="M 427.338 50 L 427.338 60" />
        <path d="M 231.17 50 L 231.17 70" />
        <path d="M 681.203 50 L 681.203 60" />
        <path d="M 842.754 50 L 842.754 60" />
        <path d="M 819.675 50 L 819.675 60" />
        <path d="M 277.327 50 L 277.327 60" />
        <path d="M 208.091 50 L 208.091 60" />
        <path d="M 485.035 50 L 485.035 60" />
        <path d="M 150.395 50 L 150.395 60" />
        <path d="M 854.293 50 L 854.293 60" />
        <path d="M 635.046 50 L 635.046 60" />
        <path d="M 877.372 50 L 877.372 60" />
        <path d="M 392.72 50 L 392.72 60" />
        <path d="M 196.552 50 L 196.552 60" />
        <path d="M 785.057 50 L 785.057 60" />
        <path d="M 750.439 50 L 750.439 60" />
        <path d="M 865.832 50 L 865.832 60" />
        <path d="M 450.417 50 L 450.417 60" />
        <path d="M 265.788 50 L 265.788 60" />
        <path d="M 600.428 50 L 600.428 60" />
        <path d="M 761.978 50 L 761.978 60" />
        <path d="M 138.855 50 L 138.855 60" />
        <path d="M 369.642 50 L 369.642 60" />
        <path d="M 542.731 50 L 542.731 60" />
        <path d="M 508.113 50 L 508.113 60" />
        <path d="M 381.181 50 L 381.181 60" />
        <path d="M 461.956 50 L 461.956 70" />
        <path d="M 658.125 50 L 658.125 60" />
        <path d="M 773.518 50 L 773.518 60" />
        <path d="M 254.248 50 L 254.248 60" />
        <path d="M 358.102 50 L 358.102 60" />
        <path d="M 888.911 50 L 888.911 60" />
        <path d="M 554.271 50 L 554.271 60" />
        <path d="M 669.664 50 L 669.664 60" />
        <path d="M 473.495 50 L 473.495 60" />
        <path d="M 127.316 50 L 127.316 60" />
        <path d="M 935.068 50 L 935.068 60" />
        <path d="M 623.507 50 L 623.507 60" />
        <path d="M 900.45 50 L 900.45 60" />
        <path d="M 565.81 50 L 565.81 60" />
        <path d="M 185.013 50 L 185.013 60" />
        <path d="M 438.877 50 L 438.877 60" />
        <path d="M 531.192 50 L 531.192 60" />
        <path d="M 346.563 50 L 346.563 70" />
        <path d="M 242.709 50 L 242.709 60" />
        <path d="M 923.529 50 L 923.529 70" />
        <path d="M 911.989 50 L 911.989 60" />
        <path d="M 577.349 50 L 577.349 70" />
        <path d="M 588.889 50 L 588.889 60" />
        <path d="M 831.214 50 L 831.214 60" />
        <path d="M 300.406 50 L 300.406 60" />
        <path d="M 335.024 50 L 335.024 60" />
        <path d="M 692.742 50 L 692.742 70" />
        <path d="M 496.574 50 L 496.574 60" />
        <path d="M 738.9 50 L 738.9 60" />
        <path d="M 173.473 50 L 173.473 60" />
        <path d="M 404.26 50 L 404.26 60" />
        <path d="M 646.585 50 L 646.585 60" />
        <path d="M 808.136 50 L 808.136 70" />
    </g>
    <g id="frame_0_rightticks">
        <path d="M 950 871.318 L 940 871.318" />
        <path d="M 950 767.655 L 940 767.655" />
        <path d="M 950 819.486 L 930 819.486" />
        <path d="M 950 715.824 L 930 715.824" />
        <path d="M 950 529.23 L 940 529.23" />
        <path d="M 950 508.498 L 930 508.498" />
        <path d="M 950 124.945 L 940 124.945" />
        <path d="M 950 394.469 L 940 394.469" />
        <path d="M 950 197.509 L 930 197.509" />
        <path d="M 950 591.428 L 940 591.428" />
        <path d="M 950 695.091 L 940 695.091" />
        <path d="M 950 498.132 L 940 498.132" />
        <path d="M 950 902.417 L 940 902.417" />
        <path d="M 950 363.37 L 940 363.37" />
        <path d="M 950 560.329 L 940 560.329" />
        <path d="M 950 788.388 L 940 788.388" />
        <path d="M 950 684.725 L 940 684.725" />
        <path d="M 950 321.905 L 940 321.905" />
        <path d="M 950 270.073 L 940 270.073" />
        <path d="M 950 643.26 L 940 643.26" />
        <path d="M 950 570.696 L 940 570.696" />
        <path d="M 950 62.7476 L 940 62.7476" />
        <path d="M 950 477.399 L 940 477.399" />
        <path d="M 950 581.062 L 940 581.062" />
        <path d="M 950 612.161 L 930 612.161" />
        <path d="M 950 156.044 L 940 156.044" />
        <path d="M 950 705.457 L 940 705.457" />
        <path d="M 950 301.172 L 930 301.172" />
        <path d="M 950 332.271 L 940 332.271" />
        <path d="M 950 176.777 L 940 176.777" />
        <path d="M 950 549.963 L 940 549.963" />
        <path d="M 950 311.538 L 940 311.538" />
        <path d="M 950 207.876 L 940 207.876" />
        <path d="M 950 809.12 L 940 809.12" />
        <path d="M 950 778.021 L 940 778.021" />
        <path d="M 950 166.41 L 940 166.41" />
        <path d="M 950 415.201 L 940 415.201" />
        <path d="M 950 249.341 L 940 249.341" />
        <path d="M 950 653.626 L 940 653.626" />
        <path d="M 950 404.835 L 930 404.835" />
        <path d="M 950 736.556 L 940 736.556" />
        <path d="M 950 518.864 L 940 518.864" />
        <path d="M 950 384.102 L 940 384.102" />
        <path d="M 950 881.684 L 940 881.684" />
        <path d="M 950 73.1139 L 940 73.1139" />
        <path d="M 950 135.312 L 940 135.312" />
        <path d="M 950 425.568 L 940 425.568" />
        <path d="M 950 290.806 L 940 290.806" />
        <path d="M 950 850.585 L 940 850.585" />
        <path d="M 950 238.974 L 940 238.974" />
        <path d="M 950 726.19 L 940 726.19" />
        <path d="M 950 114.579 L 940 114.579" />
        <path d="M 950 342.637 L 940 342.637" />
        <path d="M 950 104.213 L 940 104.213" />
        <path d="M 950 601.794 L 940 601.794" />
        <path d="M 950 218.242 L 940 218.242" />
        <path d="M 950 840.219 L 940 840.219" />
        <path d="M 950 259.707 L 940 259.707" />
        <path d="M 950 674.358 L 940 674.358" />
        <path d="M 950 663.992 L 940 663.992" />
        <path d="M 950 467.033 L 940 467.033" />
        <path d="M 950 52.3813 L 940 52.3813" />
        <path d="M 950 228.608 L 940 228.608" />
        <path d="M 950 632.893 L 940 632.893" />
        <path d="M 950 487.765 L 940 487.765" />
        <path d="M 950 435.934 L 940 435.934" />
        <path d="M 950 829.853 L 940 829.853" />
        <path d="M 950 622.527 L 940 622.527" />
        <path d="M 950 860.952 L 940 860.952" />
        <path d="M 950 912.783 L 940 912.783" />
        <path d="M 950 539.597 L 940 539.597" />
        <path d="M 950 798.754 L 940 798.754" />
        <path d="M 950 446.3 L 940 446.3" />
        <path d="M 950 757.289 L 940 757.289" />
        <path d="M 950 373.736 L 940 373.736" />
        <path d="M 950 145.678 L 940 145.678" />
        <path d="M 950 83.4802 L 940 83.4802" />
        <path d="M 950 892.05 L 940 892.05" />
        <path d="M 950 93.8464 L 930 93.8464" />
        <path d="M 950 353.004 L 940 353.004" />
        <path d="M 950 280.44 L 940 280.44" />
        <path d="M 950 746.922 L 940 746.922" />
        <path d="M 950 187.143 L 940 187.143" />
        <path d="M 950 456.666 L 940 456.666" />
    </g>
</g>
</g>
</svg>
