<?xml version="1.0" standalone="no"?>
<!DOCTYPE svg PUBLIC "-//W3C//DTD SVG 1.1//EN" "http://www.w3.org/Graphics/SVG/1.1/DTD/svg11.dtd">
<svg style="stroke-linejoin:miter; stroke:black; stroke-width:2.5; text-anchor:middle; fill:none" xmlns="http://www.w3.org/2000/svg" font-family="Helvetica, Arial, FreeSans, Sans, sans, sans-serif" width="1000px" height="1000px" version="1.1" xmlns:xlink="http://www.w3.org/1999/xlink" viewBox="0 0 1000 1000">
<defs>
    <clipPath id="Scatter_0_clip">
        <rect x="120" y="50" width="830" height="870" />
    </clipPath>
    <circle id="Scatter_0_mark" cx="0" cy="0" r="7.5" stroke="none" stroke-opacity="1" fill="black" fill-opacity="1" />
</defs>
<g id="whole_document">
<rect id="background" x="0" y="0" width="1000" height="1000" stroke="none" fill="white" />
<g id="Scatter_0" clip-path="url(#Scatter_0_clip)">
    <use x="306.269" y="734.665" xlink:href="#Scatter_0_mark" />
    <use x="406.472" y="296.261" xlink:href="#Scatter_0_mark" />
    <use x="856.023" y="530.86" xlink:href="#Scatter_0_mark" />
    <use x="794.728" y="574.145" xlink:href="#Scatter_0_mark" />
    <use x="528.448" y="299.799" xlink:href="#Scatter_0_mark" />
    <use x="421.947" y="818.418" xlink:href="#Scatter_0_mark" />
    <use x="744.817" y="716.921" xlink:href="#Scatter_0_mark" />
    <use x="217.206" y="233.941" xlink:href="#Scatter_0_mark" />
    <use x="861.152" y="835.569" xlink:href="#Scatter_0_mark" />
    <use x="857.996" y="516.374" xlink:href="#Scatter_0_mark" />
    <use x="631.117" y="768.249" xlink:href="#Scatter_0_mark" />
    <use x="442.154" y="290.987" xlink:href="#Scatter_0_mark" />
    <use x="681.602" y="731.588" xlink:href="#Scatter_0_mark" />
    <use x="429.393" y="352.234" xlink:href="#Scatter_0_mark" />
    <use x="559.616" y="365.043" xlink:href="#Scatter_0_mark" />
    <use x="875.957" y="437.078" xlink:href="#Scatter_0_mark" />
    <use x="193.165" y="178.098" xlink:href="#Scatter_0_mark" />
    <use x="752.66" y="520.479" xlink:href="#Scatter_0_mark" />
    <use x="653.192" y="466.32" xlink:href="#Scatter_0_mark" />
    <use x="528.477" y="166.126" xlink:href="#Scatter_0_mark" />
    <use x="666.998" y="709.306" xlink:href="#Scatter_0_mark" />
    <use x="634.65" y="139.785" xlink:href="#Scatter_0_mark" />
    <use x="291.108" y="716.309" xlink:href="#Scatter_0_mark" />
    <use x="311.068" y="698.882" xlink:href="#Scatter_0_mark" />
    <use x="720.44" y="523.084" xlink:href="#Scatter_0_mark" />
    <use x="688.649" y="270.664" xlink:href="#Scatter_0_mark" />
    <use x="601.142" y="653.477" xlink:href="#Scatter_0_mark" />
    <use x="447.225" y="526.504" xlink:href="#Scatter_0_mark" />
    <use x="803.604" y="789.721" xlink:href="#Scatter_0_mark" />
    <use x="527.972" y="827.326" xlink:href="#Scatter_0_mark" />
    <use x="488.498" y="519.076" xlink:href="#Scatter_0_mark" />
    <use x="473.794" y="461.331" xlink:href="#Scatter_0_mark" />
    <use x="203.513" y="308.935" xlink:href="#Scatter_0_mark" />
    <use x="697.53" y="148.484" xlink:href="#Scatter_0_mark" />
    <use x="245.464" y="365.432" xlink:href="#Scatter_0_mark" />
    <use x="279.303" y="622.773" xlink:href="#Scatter_0_mark" />
    <use x="712.24" y="323.851" xlink:href="#Scatter_0_mark" />
    <use x="232.16" y="317.501" xlink:href="#Scatter_0_mark" />
    <use x="261.71" y="683.953" xlink:href="#Scatter_0_mark" />
    <use x="444.863" y="341.883" xlink:href="#Scatter_0_mark" />
    <use x="261.448" y="627.074" xlink:href="#Scatter_0_mark" />
    <use x="869.556" y="287.352" xlink:href="#Scatter_0_mark" />
    <use x="207.539" y="607.176" xlink:href="#Scatter_0_mark" />
    <use x="571.379" y="378.662" xlink:href="#Scatter_0_mark" />
    <use x="591.108" y="443.944" xlink:href="#Scatter_0_mark" />
    <use x="544.123" y="562.425" xlink:href="#Scatter_0_mark" />
    <use x="460.533" y="588.839" xlink:href="#Scatter_0_mark" />
    <use x="537.511" y="689.067" xlink:href="#Scatter_0_mark" />
    <use x="603.198" y="538.395" xlink:href="#Scatter_0_mark" />
    <use x="502.809" y="170.873" xlink:href="#Scatter_0_mark" />
    <use x="233.085" y="441.686" xlink:href="#Scatter_0_mark" />
    <use x="204.765" y="243.103" xlink:href="#Scatter_0_mark" />
    <use x="348.736" y="749.899" xlink:href="#Scatter_0_mark" />
    <use x="771.017" y="435.451" xlink:href="#Scatter_0_mark" />
    <use x="190.919" y="659.015" xlink:href="#Scatter_0_mark" />
    <use x="328.144" y="427.708" xlink:href="#Scatter_0_mark" />
    <use x="542.346" y="234.783" xlink:href="#Scatter_0_mark" />
    <use x="494.821" y="820.023" xlink:href="#Scatter_0_mark" />
    <use x="258.637" y="319.273" xlink:href="#Scatter_0_mark" />
    <use x="203.195" y="267.076" xlink:href="#Scatter_0_mark" />
    <use x="282.039" y="719.243" xlink:href="#Scatter_0_mark" />
    <use x="557.331" y="666.256" xlink:href="#Scatter_0_mark" />
    <use x="326.712" y="177.309" xlink:href="#Scatter_0_mark" />
    <use x="222.636" y="709.383" xlink:href="#Scatter_0_mark" />
    <use x="773.393" y="478.385" xlink:href="#Scatter_0_mark" />
    <use x="847.815" y="794.427" xlink:href="#Scatter_0_mark" />
    <use x="298.469" y="809.378" xlink:href="#Scatter_0_mark" />
    <use x="450.215" y="516.186" xlink:href="#Scatter_0_mark" />
    <use x="741.946" y="214.503" xlink:href="#Scatter_0_mark" />
    <use x="284.876" y="524.451" xlink:href="#Scatter_0_mark" />
    <use x="397.454" y="813.217" xlink:href="#Scatter_0_mark" />
    <use x="824.328" y="671.723" xlink:href="#Scatter_0_mark" />
    <use x="295.891" y="697.132" xlink:href="#Scatter_0_mark" />
    <use x="739.467" y="709.426" xlink:href="#Scatter_0_mark" />
    <use x="848.723" y="618.367" xlink:href="#Scatter_0_mark" />
    <use x="584.327" y="729.806" xlink:href="#Scatter_0_mark" />
    <use x="582.061" y="633.33" xlink:href="#Scatter_0_mark" />
    <use x="730.219" y="221.603" xlink:href="#Scatter_0_mark" />
    <use x="351.443" y="639.894" xlink:href="#Scatter_0_mark" />
    <use x="628.561" y="425.771" xlink:href="#Scatter_0_mark" />
    <use x="373.797" y="498.746" xlink:href="#Scatter_0_mark" />
    <use x="834.701" y="185.728" xlink:href="#Scatter_0_mark" />
    <use x="294.143" y="527.708" xlink:href="#Scatter_0_mark" />
    <use x="484.003" y="125.694" xlink:href="#Scatter_0_mark" />
    <use x="700.761" y="607.009" xlink:href="#Scatter_0_mark" />
    <use x="338.371" y="123.473" xlink:href="#Scatter_0_mark" />
    <use x="750.418" y="390.362" xlink:href="#Scatter_0_mark" />
    <use x="858.715" y="347.685" xlink:href="#Scatter_0_mark" />
    <use x="858.072" y="707.773" xlink:href="#Scatter_0_mark" />
    <use x="256.409" y="520.36" xlink:href="#Scatter_0_mark" />
    <use x="224.642" y="748.547" xlink:href="#Scatter_0_mark" />
    <use x="702.759" y="673.026" xlink:href="#Scatter_0_mark" />
    <use x="416.101" y="357.422" xlink:href="#Scatter_0_mark" />
    <use x="585.583" y="601.555" xlink:href="#Scatter_0_mark" />
    <use x="451.6" y="843.931" xlink:href="#Scatter_0_mark" />
    <use x="513.824" y="393.196" xlink:href="#Scatter_0_mark" />
    <use x="397.62" y="191.742" xlink:href="#Scatter_0_mark" />
    <use x="696.428" y="165.69" xlink:href="#Scatter_0_mark" />
    <use x="704.932" y="522.851" xlink:href="#Scatter_0_mark" />
    <use x="315.375" y="167.697" xlink:href="#Scatter_0_mark" />
</g>
<g id="frame_0">
    <rect id="frame_0_border" x="120" y="50" width="830" height="870" />
    <g id="frame_0_bottomticks">
        <path d="M 189.165 920 L 189.165 900" />
        <text font-size="30" transform="translate(189.165, 950)" text-anchor="middle" dominant-baseline="middle" stroke="none" fill="black">0</text>
        <path d="M 880.848 920 L 880.848 900" />
        <text font-size="30" transform="translate(880.848, 950)" text-anchor="middle" dominant-baseline="middle" stroke="none" fill="black">100</text>
        <path d="M 673.343 920 L 673.343 910" />
        <path d="M 465.838 920 L 465.838 900" />
        <text font-size="30" transform="translate(465.838, 950)" text-anchor="middle" dominant-baseline="middle" stroke="none" fill="black">40</text>
        <path d="M 258.333 920 L 258.333 910" />
        <path d="M 742.511 920 L 742.511 900" />
        <text font-size="30" transform="translate(742.511, 950)" text-anchor="middle" dominant-baseline="middle" stroke="none" fill="black">80</text>
        <path d="M 535.006 920 L 535.006 910" />
        <path d="M 327.502 920 L 327.502 900" />
        <text font-size="30" transform="translate(327.502, 950)" text-anchor="middle" dominant-baseline="middle" stroke="none" fill="black">20</text>
        <path d="M 811.68 920 L 811.68 910" />
        <path d="M 604.175 920 L 604.175 900" />
        <text font-size="30" transform="translate(604.175, 950)" text-anchor="middle" dominant-baseline="middle" stroke="none" fill="black">60</text>
        <path d="M 396.67 920 L 396.67 910" />
    </g>
    <g id="frame_0_leftticks">
        <path d="M 120 847.504 L 140 847.504" />
        <text font-size="30" transform="translate(110, 857.504)" text-anchor="end" dominant-baseline="middle" stroke="none" fill="black">0</text>
        <path d="M 120 122.499 L 140 122.499" />
        <text font-size="30" transform="translate(110, 132.499)" text-anchor="end" dominant-baseline="middle" stroke="none" fill="black">100</text>
        <path d="M 120 340.001 L 130 340.001" />
        <path d="M 120 557.502 L 140 557.502" />
        <text font-size="30" transform="translate(110, 567.502)" text-anchor="end" dominant-baseline="middle" stroke="none" fill="black">40</text>
        <path d="M 120 775.003 L 130 775.003" />
        <path d="M 120 267.5 L 140 267.5" />
        <text font-size="30" transform="translate(110, 277.5)" text-anchor="end" dominant-baseline="middle" stroke="none" fill="black">80</text>
        <path d="M 120 485.002 L 130 485.002" />
        <path d="M 120 702.503 L 140 702.503" />
        <text font-size="30" transform="translate(110, 712.503)" text-anchor="end" dominant-baseline="middle" stroke="none" fill="black">20</text>
        <path d="M 120 195 L 130 195" />
        <path d="M 120 412.501 L 140 412.501" />
        <text font-size="30" transform="translate(110, 422.501)" text-anchor="end" dominant-baseline="middle" stroke="none" fill="black">60</text>
        <path d="M 120 630.002 L 130 630.002" />
    </g>
    <g id="frame_0_topticks">
        <path d="M 189.165 50 L 189.165 70" />
        <path d="M 880.848 50 L 880.848 70" />
        <path d="M 673.343 50 L 673.343 60" />
        <path d="M 465.838 50 L 465.838 70" />
        <path d="M 258.333 50 L 258.333 60" />
        <path d="M 742.511 50 L 742.511 70" />
        <path d="M 535.006 50 L 535.006 60" />
        <path d="M 327.502 50 L 327.502 70" />
        <path d="M 811.68 50 L 811.68 60" />
        <path d="M 604.175 50 L 604.175 70" />
        <path d="M 396.67 50 L 396.67 60" />
    </g>
    <g id="frame_0_rightticks">
        <path d="M 950 847.504 L 930 847.504" />
        <path d="M 950 122.499 L 930 122.499" />
        <path d="M 950 340.001 L 940 340.001" />
        <path d="M 950 557.502 L 930 557.502" />
        <path d="M 950 775.003 L 940 775.003" />
        <path d="M 950 267.5 L 930 267.5" />
        <path d="M 950 485.002 L 940 485.002" />
        <path d="M 950 702.503 L 930 702.503" />
        <path d="M 950 195 L 940 195" />
        <path d="M 950 412.501 L 930 412.501" />
        <path d="M 950 630.002 L 940 630.002" />
    </g>
</g>
</g>
</svg>
