<?xml version="1.0" standalone="no"?>
<!DOCTYPE svg PUBLIC "-//W3C//DTD SVG 1.1//EN" "http://www.w3.org/Graphics/SVG/1.1/DTD/svg11.dtd">
<svg style="stroke-linejoin:miter; stroke:black; stroke-width:2.5; text-anchor:middle; fill:none" xmlns="http://www.w3.org/2000/svg" font-family="Helvetica, Arial, FreeSans, Sans, sans, sans-serif" width="1000px" height="1000px" version="1.1" xmlns:xlink="http://www.w3.org/1999/xlink" viewBox="0 0 1000 1000">
<defs>
    <clipPath id="TimeSeries_0_clip">
        <rect x="120" y="50" width="830" height="870" />
    </clipPath>
</defs>
<g id="whole_document">
<rect id="background" x="0" y="0" width="1000" height="1000" stroke="none" fill="white" />
<g id="TimeSeries_0" clip-path="url(#TimeSeries_0_clip)">
    <path d="M 189.167 224.857 L 191.594 224.039 L 194.02 315.849 L 198.874 150.975 L 201.301 155.459 L 206.155 207.993 L 208.582 128.146 L 213.436 151.277 L 215.863 148.832 L 218.289 173.277 L 220.716 255.357 L 223.143 222.584 L 227.997 206.625 L 230.424 405.539 L 232.851 238.441 L 235.278 122.5 L 237.705 265.577 L 240.132 221.243 L 247.412 189.07 L 249.839 269.626 L 252.266 379.683 L 254.693 235.066 L 259.547 181.594 L 261.974 178.918 L 264.401 253.182 L 266.827 155.201 L 271.681 228.353 L 274.108 274.051 L 276.535 288.83 L 278.962 274.136 L 281.389 378.524 L 283.816 253.791 L 288.67 337.788 L 291.096 264.73 L 293.523 326.628 L 295.95 371.452 L 298.377 340.55 L 303.231 265.324 L 305.658 245.668 L 308.085 329.111 L 312.939 316.402 L 317.792 306.887 L 320.219 313.886 L 322.646 329.648 L 325.073 312.24 L 327.5 359.344 L 332.354 396.059 L 334.781 368.378 L 337.208 435.267 L 339.635 434.241 L 342.061 428.49 L 346.915 450.928 L 349.342 405.207 L 351.769 391.764 L 354.196 409.554 L 356.623 339.16 L 359.05 345.991 L 363.904 470.264 L 366.33 719.778 L 368.757 793.511 L 371.184 791.177 L 373.611 775.503 L 378.465 831.989 L 380.892 787.569 L 383.319 788.863 L 385.746 707.466 L 388.173 789.488 L 393.026 773.206 L 395.453 832.129 L 397.88 802.927 L 400.307 724.888 L 402.734 774.593 L 407.588 797.429 L 410.015 765.222 L 412.442 827.465 L 414.868 822.565 L 417.295 793.915 L 422.149 749.637 L 424.576 776.238 L 427.003 784.528 L 429.43 822.278 L 431.857 813.382 L 434.284 815.134 L 439.137 799.313 L 441.564 782.052 L 443.991 793.374 L 446.418 831.534 L 448.845 734.574 L 453.699 796.823 L 456.126 781.313 L 458.553 772.436 L 460.98 767.523 L 463.406 765.722 L 468.26 761.21 L 470.687 713.43 L 473.114 711.38 L 475.541 598.852 L 477.968 312.39 L 482.822 308.315 L 485.249 364.66 L 487.675 360.364 L 490.102 402.167 L 492.529 353.194 L 497.383 346.839 L 499.81 478.874 L 504.664 429.963 L 507.091 305.968 L 509.518 368.165 L 514.371 449.752 L 516.798 435.953 L 519.225 363.126 L 521.652 367.135 L 524.079 385.82 L 528.933 351.534 L 531.36 328.06 L 533.787 333.029 L 536.213 335.114 L 538.64 378.542 L 543.494 319.085 L 545.921 327.357 L 548.348 376.829 L 550.775 302.554 L 553.202 380.109 L 558.056 453.523 L 560.482 727.175 L 562.909 710.275 L 565.336 754.008 L 567.763 816.394 L 570.19 847.5 L 575.044 749.814 L 577.471 765.989 L 579.898 800.138 L 582.325 791.769 L 584.751 762.745 L 589.605 809.923 L 592.032 815.18 L 594.459 780.071 L 596.886 764.073 L 599.313 798.89 L 604.167 723.232 L 606.594 789.647 L 609.02 783.366 L 611.447 795.03 L 616.301 778.583 L 618.728 751.967 L 621.155 779.223 L 623.582 764.678 L 626.009 789.382 L 628.436 765.834 L 633.289 804.48 L 635.716 787.37 L 638.143 785.017 L 640.57 820.987 L 642.997 781.76 L 645.424 716.928 L 650.278 763.328 L 652.705 750.711 L 655.132 808.922 L 657.558 808.259 L 659.985 796.883 L 664.839 737.179 L 667.266 738.299 L 669.693 737.521 L 672.12 597.7 L 674.547 674.527 L 679.401 556.326 L 681.827 648.414 L 684.254 717.323 L 686.681 739.433 L 689.108 816.323 L 693.962 764.253 L 696.389 773.803 L 698.816 787.803 L 701.243 821.922 L 703.67 802.278 L 708.523 685.902 L 710.95 705.279 L 713.377 668.48 L 715.804 681.015 L 718.231 672.455 L 720.658 752.997 L 725.512 689.701 L 727.939 706.637 L 730.365 711.892 L 732.792 693.615 L 735.219 329.563 L 740.073 281.954 L 742.5 262.072 L 744.927 243.36 L 747.354 229.775 L 749.781 280.169 L 754.635 282.215 L 757.061 197.164 L 761.915 227.013 L 764.342 211.318 L 771.623 301.212 L 774.05 277.538 L 776.477 196.175 L 778.904 233.028 L 781.33 254.372 L 786.184 250.58 L 788.611 223.223 L 791.038 291.399 L 793.465 315.759 L 795.892 230.5 L 800.746 261.574 L 803.173 237.913 L 805.599 295.576 L 808.026 549.178 L 810.453 568.118 L 815.307 535.229 L 817.734 643.902 L 820.161 432.796 L 822.588 271.456 L 825.015 266.802 L 829.868 230.946 L 832.295 261.957 L 834.722 198.833 L 837.149 263.708 L 839.576 300.376 L 842.003 298.481 L 846.857 229.488 L 849.284 169.754 L 851.711 265.738 L 854.137 244.973 L 856.564 267.476 L 861.418 191.336 L 863.845 195.358 L 866.272 249.461 L 868.699 234.731 L 871.126 265.172 L 875.98 199.811 L 878.406 197.151 L 880.833 279.362" stroke-width="3" stroke-dasharray="" stroke="black" stroke-opacity="1" fill="none" />
</g>
<g id="frame_0">
    <rect id="frame_0_border" x="120" y="50" width="830" height="870" />
    <text id="frame_0_bottomlabel" font-size="30" transform="translate(535, 989.6)" text-anchor="middle" dominant-baseline="middle" stroke="none" fill="black">lastupdatetime</text>
    <g id="frame_0_bottomticks">
        <path d="M 281.389 920 L 281.389 910" />
        <path d="M 443.182 920 L 443.182 910" />
        <path d="M 928.562 920 L 928.562 910" />
        <path d="M 685.872 920 L 685.872 900" />
        <text font-size="30" transform="translate(685.872, 950)" text-anchor="middle" dominant-baseline="middle" stroke="none" fill="black">Jan 08</text>
        <path d="M 200.492 920 L 200.492 900" />
        <text font-size="30" transform="translate(200.492, 950)" text-anchor="middle" dominant-baseline="middle" stroke="none" fill="black">Mar 06</text>
        <path d="M 604.976 920 L 604.976 910" />
        <path d="M 362.286 920 L 362.286 900" />
        <text font-size="30" transform="translate(362.286, 950)" text-anchor="middle" dominant-baseline="middle" stroke="none" fill="black">Oct 06</text>
        <path d="M 766.769 920 L 766.769 910" />
        <path d="M 524.079 920 L 524.079 900" />
        <text font-size="30" transform="translate(524.079, 950)" text-anchor="middle" dominant-baseline="middle" stroke="none" fill="black">Jun 07</text>
        <path d="M 847.666 920 L 847.666 900" />
        <text font-size="30" transform="translate(847.666, 950)" text-anchor="middle" dominant-baseline="middle" stroke="none" fill="black">Sep 08</text>
    </g>
    <text id="frame_0_leftlabel" font-size="30" transform="translate(37, 485) rotate(-90)" text-anchor="middle" dominant-baseline="middle" stroke="none" fill="black">speed</text>
    <g id="frame_0_leftticks">
        <path d="M 120 913.395 L 130 913.395" />
        <path d="M 120 897.146 L 130 897.146" />
        <path d="M 120 880.897 L 130 880.897" />
        <path d="M 120 864.648 L 130 864.648" />
        <path d="M 120 848.4 L 140 848.4" />
        <text font-size="30" transform="translate(110, 858.4)" text-anchor="end" dominant-baseline="middle" stroke="none" fill="black">10</text>
        <path d="M 120 832.151 L 130 832.151" />
        <path d="M 120 815.902 L 130 815.902" />
        <path d="M 120 799.653 L 130 799.653" />
        <path d="M 120 783.404 L 130 783.404" />
        <path d="M 120 767.155 L 130 767.155" />
        <path d="M 120 750.907 L 130 750.907" />
        <path d="M 120 734.658 L 130 734.658" />
        <path d="M 120 718.409 L 130 718.409" />
        <path d="M 120 702.16 L 130 702.16" />
        <path d="M 120 685.911 L 140 685.911" />
        <text font-size="30" transform="translate(110, 695.911)" text-anchor="end" dominant-baseline="middle" stroke="none" fill="black">20</text>
        <path d="M 120 669.662 L 130 669.662" />
        <path d="M 120 653.414 L 130 653.414" />
        <path d="M 120 637.165 L 130 637.165" />
        <path d="M 120 620.916 L 130 620.916" />
        <path d="M 120 604.667 L 130 604.667" />
        <path d="M 120 588.418 L 130 588.418" />
        <path d="M 120 572.169 L 130 572.169" />
        <path d="M 120 555.921 L 130 555.921" />
        <path d="M 120 539.672 L 130 539.672" />
        <path d="M 120 523.423 L 140 523.423" />
        <text font-size="30" transform="translate(110, 533.423)" text-anchor="end" dominant-baseline="middle" stroke="none" fill="black">30</text>
        <path d="M 120 507.174 L 130 507.174" />
        <path d="M 120 490.925 L 130 490.925" />
        <path d="M 120 474.676 L 130 474.676" />
        <path d="M 120 458.428 L 130 458.428" />
        <path d="M 120 442.179 L 130 442.179" />
        <path d="M 120 425.93 L 130 425.93" />
        <path d="M 120 409.681 L 130 409.681" />
        <path d="M 120 393.432 L 130 393.432" />
        <path d="M 120 377.184 L 130 377.184" />
        <path d="M 120 360.935 L 140 360.935" />
        <text font-size="30" transform="translate(110, 370.935)" text-anchor="end" dominant-baseline="middle" stroke="none" fill="black">40</text>
        <path d="M 120 344.686 L 130 344.686" />
        <path d="M 120 328.437 L 130 328.437" />
        <path d="M 120 312.188 L 130 312.188" />
        <path d="M 120 295.939 L 130 295.939" />
        <path d="M 120 279.691 L 130 279.691" />
        <path d="M 120 263.442 L 130 263.442" />
        <path d="M 120 247.193 L 130 247.193" />
        <path d="M 120 230.944 L 130 230.944" />
        <path d="M 120 214.695 L 130 214.695" />
        <path d="M 120 198.446 L 140 198.446" />
        <text font-size="30" transform="translate(110, 208.446)" text-anchor="end" dominant-baseline="middle" stroke="none" fill="black">50</text>
        <path d="M 120 182.198 L 130 182.198" />
        <path d="M 120 165.949 L 130 165.949" />
        <path d="M 120 149.7 L 130 149.7" />
        <path d="M 120 133.451 L 130 133.451" />
        <path d="M 120 117.202 L 130 117.202" />
        <path d="M 120 100.953 L 130 100.953" />
        <path d="M 120 84.7045 L 130 84.7045" />
        <path d="M 120 68.4557 L 130 68.4557" />
        <path d="M 120 52.2069 L 130 52.2069" />
    </g>
    <g id="frame_0_topticks">
        <path d="M 281.389 50 L 281.389 60" />
        <path d="M 443.182 50 L 443.182 60" />
        <path d="M 928.562 50 L 928.562 60" />
        <path d="M 685.872 50 L 685.872 70" />
        <path d="M 200.492 50 L 200.492 70" />
        <path d="M 604.976 50 L 604.976 60" />
        <path d="M 362.286 50 L 362.286 70" />
        <path d="M 766.769 50 L 766.769 60" />
        <path d="M 524.079 50 L 524.079 70" />
        <path d="M 847.666 50 L 847.666 70" />
    </g>
    <g id="frame_0_rightticks">
        <path d="M 950 913.395 L 940 913.395" />
        <path d="M 950 897.146 L 940 897.146" />
        <path d="M 950 880.897 L 940 880.897" />
        <path d="M 950 864.648 L 940 864.648" />
        <path d="M 950 848.4 L 930 848.4" />
        <path d="M 950 832.151 L 940 832.151" />
        <path d="M 950 815.902 L 940 815.902" />
        <path d="M 950 799.653 L 940 799.653" />
        <path d="M 950 783.404 L 940 783.404" />
        <path d="M 950 767.155 L 940 767.155" />
        <path d="M 950 750.907 L 940 750.907" />
        <path d="M 950 734.658 L 940 734.658" />
        <path d="M 950 718.409 L 940 718.409" />
        <path d="M 950 702.16 L 940 702.16" />
        <path d="M 950 685.911 L 930 685.911" />
        <path d="M 950 669.662 L 940 669.662" />
        <path d="M 950 653.414 L 940 653.414" />
        <path d="M 950 637.165 L 940 637.165" />
        <path d="M 950 620.916 L 940 620.916" />
        <path d="M 950 604.667 L 940 604.667" />
        <path d="M 950 588.418 L 940 588.418" />
        <path d="M 950 572.169 L 940 572.169" />
        <path d="M 950 555.921 L 940 555.921" />
        <path d="M 950 539.672 L 940 539.672" />
        <path d="M 950 523.423 L 930 523.423" />
        <path d="M 950 507.174 L 940 507.174" />
        <path d="M 950 490.925 L 940 490.925" />
        <path d="M 950 474.676 L 940 474.676" />
        <path d="M 950 458.428 L 940 458.428" />
        <path d="M 950 442.179 L 940 442.179" />
        <path d="M 950 425.93 L 940 425.93" />
        <path d="M 950 409.681 L 940 409.681" />
        <path d="M 950 393.432 L 940 393.432" />
        <path d="M 950 377.184 L 940 377.184" />
        <path d="M 950 360.935 L 930 360.935" />
        <path d="M 950 344.686 L 940 344.686" />
        <path d="M 950 328.437 L 940 328.437" />
        <path d="M 950 312.188 L 940 312.188" />
        <path d="M 950 295.939 L 940 295.939" />
        <path d="M 950 279.691 L 940 279.691" />
        <path d="M 950 263.442 L 940 263.442" />
        <path d="M 950 247.193 L 940 247.193" />
        <path d="M 950 230.944 L 940 230.944" />
        <path d="M 950 214.695 L 940 214.695" />
        <path d="M 950 198.446 L 930 198.446" />
        <path d="M 950 182.198 L 940 182.198" />
        <path d="M 950 165.949 L 940 165.949" />
        <path d="M 950 149.7 L 940 149.7" />
        <path d="M 950 133.451 L 940 133.451" />
        <path d="M 950 117.202 L 940 117.202" />
        <path d="M 950 100.953 L 940 100.953" />
        <path d="M 950 84.7045 L 940 84.7045" />
        <path d="M 950 68.4557 L 940 68.4557" />
        <path d="M 950 52.2069 L 940 52.2069" />
    </g>
</g>
</g>
</svg>
