<?xml version="1.0" standalone="no"?>
<!DOCTYPE svg PUBLIC "-//W3C//DTD SVG 1.1//EN" "http://www.w3.org/Graphics/SVG/1.1/DTD/svg11.dtd">
<svg style="stroke-linejoin:miter; stroke:black; stroke-width:2.5; text-anchor:middle; fill:none" xmlns="http://www.w3.org/2000/svg" font-family="Helvetica, Arial, FreeSans, Sans, sans, sans-serif" width="1000px" height="1000px" version="1.1" xmlns:xlink="http://www.w3.org/1999/xlink" viewBox="0 0 1000 1000">
<defs>
    <clipPath id="HistogramCategorical_0_clip">
        <rect x="120" y="50" width="830" height="870" />
    </clipPath>
</defs>
<g id="whole_document">
<rect id="background" x="0" y="0" width="1000" height="1000" stroke="none" fill="white" />
<g id="HistogramCategorical_0" clip-path="url(#HistogramCategorical_0_clip)">
    <path d="M 120 920 L 126.917 920 L 126.917 752.515 L 251.417 752.515 L 251.417 920 L 265.25 920 L 265.25 754.938 L 389.75 754.938 L 389.75 920 L 403.583 920 L 403.583 755.907 L 528.083 755.907 L 528.083 920 L 541.917 920 L 541.917 756.068 L 666.417 756.068 L 666.417 920 L 680.25 920 L 680.25 756.391 L 804.75 756.391 L 804.75 920 L 818.583 920 L 818.583 129.091 L 943.083 129.091 L 943.083 920 L 950 920" stroke-width="3" stroke-dasharray="" stroke="black" stroke-opacity="1" fill="yellow" fill-opacity="1" />
</g>
<g id="frame_0">
    <rect id="frame_0_border" x="120" y="50" width="830" height="870" />
    <g id="frame_0_bottomticks">
        <path d="M 189.167 920 L 189.167 900" />
        <text font-size="30" transform="translate(189.167, 950)" text-anchor="middle" dominant-baseline="middle" stroke="none" fill="black">three</text>
        <path d="M 327.5 920 L 327.5 900" />
        <text font-size="30" transform="translate(327.5, 950)" text-anchor="middle" dominant-baseline="middle" stroke="none" fill="black">five</text>
        <path d="M 465.833 920 L 465.833 900" />
        <text font-size="30" transform="translate(465.833, 950)" text-anchor="middle" dominant-baseline="middle" stroke="none" fill="black">seven</text>
        <path d="M 604.167 920 L 604.167 900" />
        <text font-size="30" transform="translate(604.167, 950)" text-anchor="middle" dominant-baseline="middle" stroke="none" fill="black">two</text>
        <path d="M 742.5 920 L 742.5 900" />
        <text font-size="30" transform="translate(742.5, 950)" text-anchor="middle" dominant-baseline="middle" stroke="none" fill="black">one</text>
        <path d="M 880.833 920 L 880.833 900" />
        <text font-size="30" transform="translate(880.833, 950)" text-anchor="middle" dominant-baseline="middle" stroke="none" fill="black">other</text>
    </g>
    <g id="frame_0_leftticks">
        <path d="M 120 403.172 L 130 403.172" />
        <path d="M 120 144.757 L 130 144.757" />
        <path d="M 120 774.642 L 130 774.642" />
        <path d="M 120 920 L 140 920" />
        <text font-size="30" transform="translate(110, 930)" text-anchor="end" dominant-baseline="middle" stroke="none" fill="black">0</text>
        <path d="M 120 629.284 L 130 629.284" />
        <path d="M 120 354.719 L 130 354.719" />
        <path d="M 120 483.926 L 130 483.926" />
        <path d="M 120 855.396 L 130 855.396" />
        <path d="M 120 306.266 L 130 306.266" />
        <path d="M 120 112.455 L 140 112.455" />
        <text font-size="30" transform="translate(110, 122.455)" text-anchor="end" dominant-baseline="middle" stroke="none" fill="black">5000</text>
        <path d="M 120 710.038 L 130 710.038" />
        <path d="M 120 564.68 L 130 564.68" />
        <path d="M 120 257.814 L 130 257.814" />
        <path d="M 120 419.322 L 130 419.322" />
        <path d="M 120 790.793 L 130 790.793" />
        <path d="M 120 209.361 L 130 209.361" />
        <path d="M 120 645.435 L 130 645.435" />
        <path d="M 120 500.077 L 130 500.077" />
        <path d="M 120 160.908 L 130 160.908" />
        <path d="M 120 871.547 L 130 871.547" />
        <path d="M 120 726.189 L 130 726.189" />
        <path d="M 120 370.87 L 130 370.87" />
        <path d="M 120 580.831 L 130 580.831" />
        <path d="M 120 596.982 L 140 596.982" />
        <text font-size="30" transform="translate(110, 606.982)" text-anchor="end" dominant-baseline="middle" stroke="none" fill="black">2000</text>
        <path d="M 120 435.473 L 140 435.473" />
        <text font-size="30" transform="translate(110, 445.473)" text-anchor="end" dominant-baseline="middle" stroke="none" fill="black">3000</text>
        <path d="M 120 322.417 L 130 322.417" />
        <path d="M 120 806.944 L 130 806.944" />
        <path d="M 120 661.586 L 130 661.586" />
        <path d="M 120 273.964 L 140 273.964" />
        <text font-size="30" transform="translate(110, 283.964)" text-anchor="end" dominant-baseline="middle" stroke="none" fill="black">4000</text>
        <path d="M 120 64.0028 L 130 64.0028" />
        <path d="M 120 516.228 L 130 516.228" />
        <path d="M 120 887.698 L 130 887.698" />
        <path d="M 120 225.512 L 130 225.512" />
        <path d="M 120 742.34 L 130 742.34" />
        <path d="M 120 96.3046 L 130 96.3046" />
        <path d="M 120 80.1537 L 130 80.1537" />
        <path d="M 120 177.059 L 130 177.059" />
        <path d="M 120 451.624 L 130 451.624" />
        <path d="M 120 128.606 L 130 128.606" />
        <path d="M 120 823.095 L 130 823.095" />
        <path d="M 120 387.021 L 130 387.021" />
        <path d="M 120 677.737 L 130 677.737" />
        <path d="M 120 532.379 L 130 532.379" />
        <path d="M 120 338.568 L 130 338.568" />
        <path d="M 120 903.849 L 130 903.849" />
        <path d="M 120 241.663 L 130 241.663" />
        <path d="M 120 290.115 L 130 290.115" />
        <path d="M 120 613.133 L 130 613.133" />
        <path d="M 120 467.775 L 130 467.775" />
        <path d="M 120 758.491 L 140 758.491" />
        <text font-size="30" transform="translate(110, 768.491)" text-anchor="end" dominant-baseline="middle" stroke="none" fill="black">1000</text>
        <path d="M 120 839.246 L 130 839.246" />
        <path d="M 120 693.888 L 130 693.888" />
        <path d="M 120 193.21 L 130 193.21" />
        <path d="M 120 548.53 L 130 548.53" />
    </g>
    <g id="frame_0_topticks">
        <path d="M 120 50 L 120 60" />
        <path d="M 258.333 50 L 258.333 60" />
        <path d="M 465.833 50 L 465.833 70" />
        <path d="M 604.167 50 L 604.167 70" />
        <path d="M 272.167 50 L 272.167 60" />
        <path d="M 880.833 50 L 880.833 70" />
        <path d="M 811.667 50 L 811.667 60" />
        <path d="M 327.5 50 L 327.5 70" />
        <path d="M 438.167 50 L 438.167 60" />
        <path d="M 701 50 L 701 60" />
        <path d="M 493.5 50 L 493.5 60" />
        <path d="M 784 50 L 784 60" />
        <path d="M 396.667 50 L 396.667 60" />
        <path d="M 286 50 L 286 60" />
        <path d="M 382.833 50 L 382.833 60" />
        <path d="M 133.833 50 L 133.833 60" />
        <path d="M 894.667 50 L 894.667 60" />
        <path d="M 189.167 50 L 189.167 70" />
        <path d="M 161.5 50 L 161.5 60" />
        <path d="M 175.333 50 L 175.333 60" />
        <path d="M 797.833 50 L 797.833 60" />
        <path d="M 825.5 50 L 825.5 60" />
        <path d="M 548.833 50 L 548.833 60" />
        <path d="M 521.167 50 L 521.167 60" />
        <path d="M 535 50 L 535 60" />
        <path d="M 867 50 L 867 60" />
        <path d="M 687.167 50 L 687.167 60" />
        <path d="M 839.333 50 L 839.333 60" />
        <path d="M 369 50 L 369 60" />
        <path d="M 147.667 50 L 147.667 60" />
        <path d="M 341.333 50 L 341.333 60" />
        <path d="M 908.5 50 L 908.5 60" />
        <path d="M 756.333 50 L 756.333 60" />
        <path d="M 299.833 50 L 299.833 60" />
        <path d="M 507.333 50 L 507.333 60" />
        <path d="M 230.667 50 L 230.667 60" />
        <path d="M 659.5 50 L 659.5 60" />
        <path d="M 673.333 50 L 673.333 60" />
        <path d="M 590.333 50 L 590.333 60" />
        <path d="M 355.167 50 L 355.167 60" />
        <path d="M 424.333 50 L 424.333 60" />
        <path d="M 244.5 50 L 244.5 60" />
        <path d="M 452 50 L 452 60" />
        <path d="M 728.667 50 L 728.667 60" />
        <path d="M 936.167 50 L 936.167 60" />
        <path d="M 313.667 50 L 313.667 60" />
        <path d="M 410.5 50 L 410.5 60" />
        <path d="M 645.667 50 L 645.667 60" />
        <path d="M 203 50 L 203 60" />
        <path d="M 216.833 50 L 216.833 60" />
        <path d="M 576.5 50 L 576.5 60" />
        <path d="M 562.667 50 L 562.667 60" />
        <path d="M 714.833 50 L 714.833 60" />
        <path d="M 770.167 50 L 770.167 60" />
        <path d="M 618 50 L 618 60" />
        <path d="M 853.167 50 L 853.167 60" />
        <path d="M 479.667 50 L 479.667 60" />
        <path d="M 922.333 50 L 922.333 60" />
        <path d="M 631.833 50 L 631.833 60" />
        <path d="M 742.5 50 L 742.5 70" />
        <path d="M 950 50 L 950 60" />
    </g>
    <g id="frame_0_rightticks">
        <path d="M 950 403.172 L 940 403.172" />
        <path d="M 950 144.757 L 940 144.757" />
        <path d="M 950 774.642 L 940 774.642" />
        <path d="M 950 920 L 930 920" />
        <path d="M 950 629.284 L 940 629.284" />
        <path d="M 950 354.719 L 940 354.719" />
        <path d="M 950 483.926 L 940 483.926" />
        <path d="M 950 855.396 L 940 855.396" />
        <path d="M 950 306.266 L 940 306.266" />
        <path d="M 950 112.455 L 930 112.455" />
        <path d="M 950 710.038 L 940 710.038" />
        <path d="M 950 564.68 L 940 564.68" />
        <path d="M 950 257.814 L 940 257.814" />
        <path d="M 950 419.322 L 940 419.322" />
        <path d="M 950 790.793 L 940 790.793" />
        <path d="M 950 209.361 L 940 209.361" />
        <path d="M 950 645.435 L 940 645.435" />
        <path d="M 950 500.077 L 940 500.077" />
        <path d="M 950 160.908 L 940 160.908" />
        <path d="M 950 871.547 L 940 871.547" />
        <path d="M 950 726.189 L 940 726.189" />
        <path d="M 950 370.87 L 940 370.87" />
        <path d="M 950 580.831 L 940 580.831" />
        <path d="M 950 596.982 L 930 596.982" />
        <path d="M 950 435.473 L 930 435.473" />
        <path d="M 950 322.417 L 940 322.417" />
        <path d="M 950 806.944 L 940 806.944" />
        <path d="M 950 661.586 L 940 661.586" />
        <path d="M 950 273.964 L 930 273.964" />
        <path d="M 950 64.0028 L 940 64.0028" />
        <path d="M 950 516.228 L 940 516.228" />
        <path d="M 950 887.698 L 940 887.698" />
        <path d="M 950 225.512 L 940 225.512" />
        <path d="M 950 742.34 L 940 742.34" />
        <path d="M 950 96.3046 L 940 96.3046" />
        <path d="M 950 80.1537 L 940 80.1537" />
        <path d="M 950 177.059 L 940 177.059" />
        <path d="M 950 451.624 L 940 451.624" />
        <path d="M 950 128.606 L 940 128.606" />
        <path d="M 950 823.095 L 940 823.095" />
        <path d="M 950 387.021 L 940 387.021" />
        <path d="M 950 677.737 L 940 677.737" />
        <path d="M 950 532.379 L 940 532.379" />
        <path d="M 950 338.568 L 940 338.568" />
        <path d="M 950 903.849 L 940 903.849" />
        <path d="M 950 241.663 L 940 241.663" />
        <path d="M 950 290.115 L 940 290.115" />
        <path d="M 950 613.133 L 940 613.133" />
        <path d="M 950 467.775 L 940 467.775" />
        <path d="M 950 758.491 L 930 758.491" />
        <path d="M 950 839.246 L 940 839.246" />
        <path d="M 950 693.888 L 940 693.888" />
        <path d="M 950 193.21 L 940 193.21" />
        <path d="M 950 548.53 L 940 548.53" />
    </g>
</g>
</g>
</svg>
