<?xml version="1.0" standalone="no"?>
<!DOCTYPE svg PUBLIC "-//W3C//DTD SVG 1.1//EN" "http://www.w3.org/Graphics/SVG/1.1/DTD/svg11.dtd">
<svg style="stroke-linejoin:miter; stroke:black; stroke-width:2.5; text-anchor:middle; fill:none" xmlns="http://www.w3.org/2000/svg" font-family="Helvetica, Arial, FreeSans, Sans, sans, sans-serif" width="1000px" height="1000px" version="1.1" xmlns:xlink="http://www.w3.org/1999/xlink" viewBox="0 0 1000 1000">
<defs>
    <clipPath id="Histogram_0_clip">
        <rect x="120" y="50" width="830" height="870" />
    </clipPath>
    <clipPath id="Histogram_1_clip">
        <rect x="120" y="50" width="830" height="870" />
    </clipPath>
</defs>
<g id="whole_document">
<rect id="background" x="0" y="0" width="1000" height="1000" stroke="none" fill="white" />
<g id="Histogram_0" clip-path="url(#Histogram_0_clip)">
    <path d="M 189.167 847.5 L 189.167 847.5 L 223.75 847.5 L 223.75 847.5 L 258.333 847.5 L 258.333 847.5 L 292.917 847.5 L 292.917 847.5 L 327.5 847.5 L 327.5 847.5 L 362.083 847.5 L 362.083 847.5 L 396.667 847.5 L 396.667 847.5 L 431.25 847.5 L 431.25 847.5 L 465.833 847.5 L 465.833 846.017 L 500.417 846.017 L 500.417 842.681 L 535 842.681 L 535 833.786 L 569.583 833.786 L 569.583 790.049 L 604.167 790.049 L 604.167 689.601 L 638.75 689.601 L 638.75 499.826 L 673.333 499.826 L 673.333 285.217 L 707.917 285.217 L 707.917 131.025 L 742.5 131.025 L 742.5 144.369 L 777.083 144.369 L 777.083 297.82 L 811.667 297.82 L 811.667 497.232 L 846.25 497.232 L 846.25 684.783 L 880.833 684.783 L 880.833 847.5" stroke-width="3" stroke-dasharray="" stroke="black" stroke-opacity="1" fill="none" fill-opacity="1" />
</g>
<g id="Histogram_1" clip-path="url(#Histogram_1_clip)">
    <path d="M 189.167 847.5 L 189.167 847.5 L 223.75 847.5 L 223.75 847.129 L 258.333 847.129 L 258.333 847.5 L 292.917 847.5 L 292.917 843.423 L 327.5 843.423 L 327.5 827.485 L 362.083 827.485 L 362.083 786.342 L 396.667 786.342 L 396.667 678.852 L 431.25 678.852 L 431.25 520.212 L 465.833 520.212 L 465.833 290.777 L 500.417 290.777 L 500.417 122.5 L 535 122.5 L 535 146.963 L 569.583 146.963 L 569.583 305.233 L 604.167 305.233 L 604.167 490.56 L 638.75 490.56 L 638.75 683.3 L 673.333 683.3 L 673.333 788.937 L 707.917 788.937 L 707.917 831.562 L 742.5 831.562 L 742.5 843.793 L 777.083 843.793 L 777.083 846.388 L 811.667 846.388 L 811.667 847.5 L 846.25 847.5 L 846.25 847.5 L 880.833 847.5 L 880.833 847.5" stroke-width="3" stroke-dasharray="" stroke="black" stroke-opacity="1" fill="lightblue" fill-opacity="1" />
</g>
<g id="frame_0">
    <rect id="frame_0_border" x="120" y="50" width="830" height="870" />
    <g id="frame_0_bottomticks">
        <path d="M 189.167 920 L 189.167 900" />
        <text font-size="30" transform="translate(189.167, 950)" text-anchor="middle" dominant-baseline="middle" stroke="none" fill="black">0</text>
        <path d="M 880.833 920 L 880.833 900" />
        <text font-size="30" transform="translate(880.833, 950)" text-anchor="middle" dominant-baseline="middle" stroke="none" fill="black">100</text>
        <path d="M 673.333 920 L 673.333 910" />
        <path d="M 465.833 920 L 465.833 900" />
        <text font-size="30" transform="translate(465.833, 950)" text-anchor="middle" dominant-baseline="middle" stroke="none" fill="black">40</text>
        <path d="M 258.333 920 L 258.333 910" />
        <path d="M 950 920 L 950 910" />
        <path d="M 742.5 920 L 742.5 900" />
        <text font-size="30" transform="translate(742.5, 950)" text-anchor="middle" dominant-baseline="middle" stroke="none" fill="black">80</text>
        <path d="M 535 920 L 535 910" />
        <path d="M 327.5 920 L 327.5 900" />
        <text font-size="30" transform="translate(327.5, 950)" text-anchor="middle" dominant-baseline="middle" stroke="none" fill="black">20</text>
        <path d="M 120 920 L 120 910" />
        <path d="M 811.667 920 L 811.667 910" />
        <path d="M 604.167 920 L 604.167 900" />
        <text font-size="30" transform="translate(604.167, 950)" text-anchor="middle" dominant-baseline="middle" stroke="none" fill="black">60</text>
        <path d="M 396.667 920 L 396.667 910" />
    </g>
    <g id="frame_0_leftticks">
        <path d="M 120 254.453 L 130 254.453" />
        <path d="M 120 847.5 L 140 847.5" />
        <text font-size="30" transform="translate(110, 857.5)" text-anchor="end" dominant-baseline="middle" stroke="none" fill="black">0</text>
        <path d="M 120 513.911 L 130 513.911" />
        <path d="M 120 773.369 L 130 773.369" />
        <path d="M 120 143.257 L 130 143.257" />
        <path d="M 120 439.78 L 130 439.78" />
        <path d="M 120 699.238 L 130 699.238" />
        <path d="M 120 365.649 L 130 365.649" />
        <path d="M 120 625.107 L 130 625.107" />
        <path d="M 120 217.388 L 130 217.388" />
        <path d="M 120 884.565 L 130 884.565" />
        <path d="M 120 550.976 L 130 550.976" />
        <path d="M 120 106.191 L 140 106.191" />
        <text font-size="30" transform="translate(110, 116.191)" text-anchor="end" dominant-baseline="middle" stroke="none" fill="black">2000</text>
        <path d="M 120 810.435 L 130 810.435" />
        <path d="M 120 476.846 L 140 476.846" />
        <text font-size="30" transform="translate(110, 486.846)" text-anchor="end" dominant-baseline="middle" stroke="none" fill="black">1000</text>
        <path d="M 120 291.518 L 140 291.518" />
        <text font-size="30" transform="translate(110, 301.518)" text-anchor="end" dominant-baseline="middle" stroke="none" fill="black">1500</text>
        <path d="M 120 736.304 L 130 736.304" />
        <path d="M 120 402.715 L 130 402.715" />
        <path d="M 120 180.322 L 130 180.322" />
        <path d="M 120 69.1258 L 130 69.1258" />
        <path d="M 120 328.584 L 130 328.584" />
        <path d="M 120 662.173 L 140 662.173" />
        <text font-size="30" transform="translate(110, 672.173)" text-anchor="end" dominant-baseline="middle" stroke="none" fill="black">500</text>
        <path d="M 120 588.042 L 130 588.042" />
    </g>
    <g id="frame_0_topticks">
        <path d="M 189.167 50 L 189.167 70" />
        <path d="M 880.833 50 L 880.833 70" />
        <path d="M 673.333 50 L 673.333 60" />
        <path d="M 465.833 50 L 465.833 70" />
        <path d="M 258.333 50 L 258.333 60" />
        <path d="M 950 50 L 950 60" />
        <path d="M 742.5 50 L 742.5 70" />
        <path d="M 535 50 L 535 60" />
        <path d="M 327.5 50 L 327.5 70" />
        <path d="M 120 50 L 120 60" />
        <path d="M 811.667 50 L 811.667 60" />
        <path d="M 604.167 50 L 604.167 70" />
        <path d="M 396.667 50 L 396.667 60" />
    </g>
    <g id="frame_0_rightticks">
        <path d="M 950 254.453 L 940 254.453" />
        <path d="M 950 847.5 L 930 847.5" />
        <path d="M 950 513.911 L 940 513.911" />
        <path d="M 950 773.369 L 940 773.369" />
        <path d="M 950 143.257 L 940 143.257" />
        <path d="M 950 439.78 L 940 439.78" />
        <path d="M 950 699.238 L 940 699.238" />
        <path d="M 950 365.649 L 940 365.649" />
        <path d="M 950 625.107 L 940 625.107" />
        <path d="M 950 217.388 L 940 217.388" />
        <path d="M 950 884.565 L 940 884.565" />
        <path d="M 950 550.976 L 940 550.976" />
        <path d="M 950 106.191 L 930 106.191" />
        <path d="M 950 810.435 L 940 810.435" />
        <path d="M 950 476.846 L 930 476.846" />
        <path d="M 950 291.518 L 930 291.518" />
        <path d="M 950 736.304 L 940 736.304" />
        <path d="M 950 402.715 L 940 402.715" />
        <path d="M 950 180.322 L 940 180.322" />
        <path d="M 950 69.1258 L 940 69.1258" />
        <path d="M 950 328.584 L 940 328.584" />
        <path d="M 950 662.173 L 930 662.173" />
        <path d="M 950 588.042 L 940 588.042" />
    </g>
</g>
</g>
</svg>
