<?xml version="1.0" standalone="no"?>
<!DOCTYPE svg PUBLIC "-//W3C//DTD SVG 1.1//EN" "http://www.w3.org/Graphics/SVG/1.1/DTD/svg11.dtd">
<svg style="stroke-linejoin:miter; stroke:black; stroke-width:2.5; text-anchor:middle; fill:none" xmlns="http://www.w3.org/2000/svg" font-family="Helvetica, Arial, FreeSans, Sans, sans, sans-serif" width="1000px" height="1000px" version="1.1" xmlns:xlink="http://www.w3.org/1999/xlink" viewBox="0 0 1000 1000">
<defs>
    <clipPath id="Histogram_0_clip">
        <rect x="120" y="50" width="830" height="870" />
    </clipPath>
</defs>
<g id="whole_document">
<rect id="background" x="0" y="0" width="1000" height="1000" stroke="none" fill="white" />
<g id="Histogram_0" clip-path="url(#Histogram_0_clip)">
    <path d="M 120 920 L 120 813.61 L 128.646 813.61 L 128.646 811.824 L 137.292 811.824 L 137.292 813.355 L 145.938 813.355 L 145.938 813.1 L 154.583 813.1 L 154.583 800.343 L 163.229 800.343 L 163.229 803.15 L 171.875 803.15 L 171.875 807.487 L 180.521 807.487 L 180.521 806.977 L 189.167 806.977 L 189.167 810.293 L 197.812 810.293 L 197.812 804.425 L 206.458 804.425 L 206.458 804.68 L 215.104 804.68 L 215.104 802.639 L 223.75 802.639 L 223.75 795.751 L 232.396 795.751 L 232.396 781.463 L 241.042 781.463 L 241.042 776.106 L 249.688 776.106 L 249.687 768.196 L 258.333 768.196 L 258.333 763.349 L 266.979 763.349 L 266.979 754.164 L 275.625 754.164 L 275.625 740.642 L 284.271 740.642 L 284.271 721.252 L 292.917 721.252 L 292.917 701.097 L 301.563 701.097 L 301.563 701.862 L 310.208 701.862 L 310.208 682.727 L 318.854 682.727 L 318.854 642.927 L 327.5 642.927 L 327.5 634.762 L 336.146 634.762 L 336.146 628.894 L 344.792 628.894 L 344.792 595.727 L 353.438 595.727 L 353.437 592.155 L 362.083 592.155 L 362.083 573.276 L 370.729 573.276 L 370.729 553.375 L 379.375 553.375 L 379.375 553.63 L 388.021 553.63 L 388.021 540.364 L 396.667 540.364 L 396.667 517.912 L 405.313 517.912 L 405.313 479.132 L 413.958 479.132 L 413.958 472.243 L 422.604 472.243 L 422.604 453.874 L 431.25 453.874 L 431.25 426.065 L 439.896 426.065 L 439.896 420.452 L 448.542 420.452 L 448.542 390.091 L 457.188 390.091 L 457.187 367.129 L 465.833 367.129 L 465.833 338.809 L 474.479 338.809 L 474.479 323.757 L 483.125 323.757 L 483.125 309.214 L 491.771 309.214 L 491.771 292.63 L 500.417 292.63 L 500.417 251.554 L 509.063 251.554 L 509.063 256.912 L 517.708 256.912 L 517.708 231.144 L 526.354 231.144 L 526.354 214.05 L 535 214.05 L 535 179.862 L 543.646 179.862 L 543.646 196.191 L 552.292 196.191 L 552.292 188.537 L 560.938 188.537 L 560.938 180.372 L 569.583 180.372 L 569.583 164.044 L 578.229 164.044 L 578.229 151.287 L 586.875 151.287 L 586.875 129.091 L 595.521 129.091 L 595.521 163.534 L 604.167 163.534 L 604.167 152.053 L 612.812 152.053 L 612.812 152.308 L 621.458 152.308 L 621.458 146.695 L 630.104 146.695 L 630.104 144.654 L 638.75 144.654 L 638.75 170.422 L 647.396 170.422 L 647.396 196.701 L 656.042 196.701 L 656.042 250.789 L 664.688 250.789 L 664.687 253.595 L 673.333 253.595 L 673.333 272.985 L 681.979 272.985 L 681.979 308.449 L 690.625 308.449 L 690.625 327.584 L 699.271 327.584 L 699.271 346.718 L 707.917 346.718 L 707.917 377.845 L 716.563 377.845 L 716.563 399.276 L 725.208 399.276 L 725.208 436.78 L 733.854 436.78 L 733.854 473.264 L 742.5 473.264 L 742.5 481.173 L 751.146 481.173 L 751.146 507.962 L 759.792 507.962 L 759.792 536.792 L 768.438 536.792 L 768.437 555.416 L 777.083 555.416 L 777.083 580.164 L 785.729 580.164 L 785.729 586.798 L 794.375 586.798 L 794.375 629.405 L 803.021 629.405 L 803.021 657.979 L 811.667 657.979 L 811.667 667.93 L 820.312 667.93 L 820.312 671.246 L 828.958 671.246 L 828.958 726.865 L 837.604 726.865 L 837.604 728.141 L 846.25 728.141 L 846.25 751.868 L 854.896 751.868 L 854.896 774.065 L 863.542 774.065 L 863.542 775.085 L 872.188 775.085 L 872.187 787.331 L 880.833 787.331 L 880.833 807.742 L 889.479 807.742 L 889.479 815.651 L 898.125 815.651 L 898.125 814.63 L 906.771 814.63 L 906.771 836.062 L 915.417 836.062 L 915.417 836.062 L 924.063 836.062 L 924.063 849.073 L 932.708 849.073 L 932.708 851.37 L 941.354 851.37 L 941.354 850.094 L 950 850.094 L 950 920" stroke-width="3" stroke-dasharray="" stroke="black" stroke-opacity="1" fill="none" fill-opacity="1" />
</g>
<g id="frame_0">
    <rect id="frame_0_border" x="120" y="50" width="830" height="870" />
    <text id="frame_0_bottomlabel" font-size="30" transform="translate(535, 989.6)" text-anchor="middle" dominant-baseline="middle" stroke="none" fill="black">speed</text>
    <g id="frame_0_bottomticks">
        <path d="M 850.487 920 L 850.487 910" />
        <path d="M 891.045 920 L 891.045 910" />
        <path d="M 931.603 920 L 931.603 910" />
        <path d="M 120.441 920 L 120.441 910" />
        <path d="M 160.999 920 L 160.999 900" />
        <text font-size="30" transform="translate(160.999, 950)" text-anchor="middle" dominant-baseline="middle" stroke="none" fill="black">15</text>
        <path d="M 201.557 920 L 201.557 910" />
        <path d="M 242.115 920 L 242.115 910" />
        <path d="M 282.673 920 L 282.673 910" />
        <path d="M 323.232 920 L 323.232 910" />
        <path d="M 363.79 920 L 363.79 900" />
        <text font-size="30" transform="translate(363.79, 950)" text-anchor="middle" dominant-baseline="middle" stroke="none" fill="black">20</text>
        <path d="M 404.348 920 L 404.348 910" />
        <path d="M 444.906 920 L 444.906 910" />
        <path d="M 485.464 920 L 485.464 910" />
        <path d="M 526.022 920 L 526.022 910" />
        <path d="M 566.58 920 L 566.58 900" />
        <text font-size="30" transform="translate(566.58, 950)" text-anchor="middle" dominant-baseline="middle" stroke="none" fill="black">25</text>
        <path d="M 607.138 920 L 607.138 910" />
        <path d="M 647.697 920 L 647.697 910" />
        <path d="M 688.255 920 L 688.255 910" />
        <path d="M 728.813 920 L 728.813 910" />
        <path d="M 769.371 920 L 769.371 900" />
        <text font-size="30" transform="translate(769.371, 950)" text-anchor="middle" dominant-baseline="middle" stroke="none" fill="black">30</text>
        <path d="M 809.929 920 L 809.929 910" />
    </g>
    <g id="frame_0_leftticks">
        <path d="M 120 103.578 L 130 103.578" />
        <path d="M 120 920 L 140 920" />
        <text font-size="30" transform="translate(110, 930)" text-anchor="end" dominant-baseline="middle" stroke="none" fill="black">0</text>
        <path d="M 120 690.381 L 130 690.381" />
        <path d="M 120 460.762 L 130 460.762" />
        <path d="M 120 231.144 L 130 231.144" />
        <path d="M 120 817.947 L 130 817.947" />
        <path d="M 120 588.328 L 130 588.328" />
        <path d="M 120 358.71 L 130 358.71" />
        <path d="M 120 129.091 L 130 129.091" />
        <path d="M 120 715.894 L 130 715.894" />
        <path d="M 120 486.276 L 130 486.276" />
        <path d="M 120 256.657 L 130 256.657" />
        <path d="M 120 843.46 L 130 843.46" />
        <path d="M 120 613.842 L 130 613.842" />
        <path d="M 120 52.5513 L 130 52.5513" />
        <path d="M 120 384.223 L 130 384.223" />
        <path d="M 120 154.604 L 140 154.604" />
        <text font-size="30" transform="translate(110, 164.604)" text-anchor="end" dominant-baseline="middle" stroke="none" fill="black">3000</text>
        <path d="M 120 741.408 L 130 741.408" />
        <path d="M 120 511.789 L 130 511.789" />
        <path d="M 120 282.17 L 140 282.17" />
        <text font-size="30" transform="translate(110, 292.17)" text-anchor="end" dominant-baseline="middle" stroke="none" fill="black">2500</text>
        <path d="M 120 868.974 L 130 868.974" />
        <path d="M 120 639.355 L 130 639.355" />
        <path d="M 120 409.736 L 140 409.736" />
        <text font-size="30" transform="translate(110, 419.736)" text-anchor="end" dominant-baseline="middle" stroke="none" fill="black">2000</text>
        <path d="M 120 180.117 L 130 180.117" />
        <path d="M 120 766.921 L 130 766.921" />
        <path d="M 120 78.0645 L 130 78.0645" />
        <path d="M 120 537.302 L 140 537.302" />
        <text font-size="30" transform="translate(110, 547.302)" text-anchor="end" dominant-baseline="middle" stroke="none" fill="black">1500</text>
        <path d="M 120 307.683 L 130 307.683" />
        <path d="M 120 894.487 L 130 894.487" />
        <path d="M 120 664.868 L 140 664.868" />
        <text font-size="30" transform="translate(110, 674.868)" text-anchor="end" dominant-baseline="middle" stroke="none" fill="black">1000</text>
        <path d="M 120 435.249 L 130 435.249" />
        <path d="M 120 205.63 L 130 205.63" />
        <path d="M 120 792.434 L 140 792.434" />
        <text font-size="30" transform="translate(110, 802.434)" text-anchor="end" dominant-baseline="middle" stroke="none" fill="black">500</text>
        <path d="M 120 562.815 L 130 562.815" />
        <path d="M 120 333.196 L 130 333.196" />
    </g>
    <g id="frame_0_topticks">
        <path d="M 850.487 50 L 850.487 60" />
        <path d="M 891.045 50 L 891.045 60" />
        <path d="M 931.603 50 L 931.603 60" />
        <path d="M 120.441 50 L 120.441 60" />
        <path d="M 160.999 50 L 160.999 70" />
        <path d="M 201.557 50 L 201.557 60" />
        <path d="M 242.115 50 L 242.115 60" />
        <path d="M 282.673 50 L 282.673 60" />
        <path d="M 323.232 50 L 323.232 60" />
        <path d="M 363.79 50 L 363.79 70" />
        <path d="M 404.348 50 L 404.348 60" />
        <path d="M 444.906 50 L 444.906 60" />
        <path d="M 485.464 50 L 485.464 60" />
        <path d="M 526.022 50 L 526.022 60" />
        <path d="M 566.58 50 L 566.58 70" />
        <path d="M 607.138 50 L 607.138 60" />
        <path d="M 647.697 50 L 647.697 60" />
        <path d="M 688.255 50 L 688.255 60" />
        <path d="M 728.813 50 L 728.813 60" />
        <path d="M 769.371 50 L 769.371 70" />
        <path d="M 809.929 50 L 809.929 60" />
    </g>
    <g id="frame_0_rightticks">
        <path d="M 950 103.578 L 940 103.578" />
        <path d="M 950 920 L 930 920" />
        <path d="M 950 690.381 L 940 690.381" />
        <path d="M 950 460.762 L 940 460.762" />
        <path d="M 950 231.144 L 940 231.144" />
        <path d="M 950 817.947 L 940 817.947" />
        <path d="M 950 588.328 L 940 588.328" />
        <path d="M 950 358.71 L 940 358.71" />
        <path d="M 950 129.091 L 940 129.091" />
        <path d="M 950 715.894 L 940 715.894" />
        <path d="M 950 486.276 L 940 486.276" />
        <path d="M 950 256.657 L 940 256.657" />
        <path d="M 950 843.46 L 940 843.46" />
        <path d="M 950 613.842 L 940 613.842" />
        <path d="M 950 52.5513 L 940 52.5513" />
        <path d="M 950 384.223 L 940 384.223" />
        <path d="M 950 154.604 L 930 154.604" />
        <path d="M 950 741.408 L 940 741.408" />
        <path d="M 950 511.789 L 940 511.789" />
        <path d="M 950 282.17 L 930 282.17" />
        <path d="M 950 868.974 L 940 868.974" />
        <path d="M 950 639.355 L 940 639.355" />
        <path d="M 950 409.736 L 930 409.736" />
        <path d="M 950 180.117 L 940 180.117" />
        <path d="M 950 766.921 L 940 766.921" />
        <path d="M 950 78.0645 L 940 78.0645" />
        <path d="M 950 537.302 L 930 537.302" />
        <path d="M 950 307.683 L 940 307.683" />
        <path d="M 950 894.487 L 940 894.487" />
        <path d="M 950 664.868 L 930 664.868" />
        <path d="M 950 435.249 L 940 435.249" />
        <path d="M 950 205.63 L 940 205.63" />
        <path d="M 950 792.434 L 930 792.434" />
        <path d="M 950 562.815 L 940 562.815" />
        <path d="M 950 333.196 L 940 333.196" />
    </g>
</g>
</g>
</svg>
