<?xml version="1.0" standalone="no"?>
<!DOCTYPE svg PUBLIC "-//W3C//DTD SVG 1.1//EN" "http://www.w3.org/Graphics/SVG/1.1/DTD/svg11.dtd">
<svg style="stroke-linejoin:miter; stroke:black; stroke-width:2.5; text-anchor:middle; fill:none" xmlns="http://www.w3.org/2000/svg" font-family="Helvetica, Arial, FreeSans, Sans, sans, sans-serif" width="1000px" height="1000px" version="1.1" xmlns:xlink="http://www.w3.org/1999/xlink" viewBox="0 0 1000 1000">
<defs>
    <clipPath id="Scatter_0_clip">
        <rect x="120" y="50" width="830" height="870" />
    </clipPath>
    <circle id="Scatter_0_mark" cx="0" cy="0" r="7.5" stroke="none" stroke-opacity="1" fill="black" fill-opacity="1" />
</defs>
<g id="whole_document">
<rect id="background" x="0" y="0" width="1000" height="1000" stroke="none" fill="white" />
<g id="Scatter_0" clip-path="url(#Scatter_0_clip)">
    <path d="M 189.167 503.125 L 189.167 466.875 M 184.167 503.125 L 194.167 503.125 M 184.167 466.875 L 194.167 466.875" stroke="black" stroke-opacity="1" fill="none" />
    <path d="M 362.083 330.938 L 362.083 276.562 M 357.083 330.938 L 367.083 330.938 M 357.083 276.562 L 367.083 276.562" stroke="black" stroke-opacity="1" fill="none" />
    <path d="M 535 883.75 L 535 811.25 M 530 883.75 L 540 883.75 M 530 811.25 L 540 811.25" stroke="black" stroke-opacity="1" fill="none" />
    <path d="M 707.917 140.625 L 707.917 104.375 M 702.917 140.625 L 712.917 140.625 M 702.917 104.375 L 712.917 104.375" stroke="black" stroke-opacity="1" fill="none" />
    <path d="M 880.833 756.875 L 880.833 575.625 M 875.833 756.875 L 885.833 756.875 M 875.833 575.625 L 885.833 575.625" stroke="black" stroke-opacity="1" fill="none" />
    <use x="189.167" y="485" xlink:href="#Scatter_0_mark" />
    <use x="362.083" y="303.75" xlink:href="#Scatter_0_mark" />
    <use x="535" y="847.5" xlink:href="#Scatter_0_mark" />
    <use x="707.917" y="122.5" xlink:href="#Scatter_0_mark" />
    <use x="880.833" y="666.25" xlink:href="#Scatter_0_mark" />
</g>
<g id="frame_0">
    <rect id="frame_0_border" x="120" y="50" width="830" height="870" />
    <g id="frame_0_bottomticks">
        <path d="M 898.125 920 L 898.125 910" />
        <path d="M 275.625 920 L 275.625 900" />
        <text font-size="30" transform="translate(275.625, 950)" text-anchor="middle" dominant-baseline="middle" stroke="none" fill="black">1.5</text>
        <path d="M 362.083 920 L 362.083 900" />
        <text font-size="30" transform="translate(362.083, 950)" text-anchor="middle" dominant-baseline="middle" stroke="none" fill="black">2</text>
        <path d="M 535 920 L 535 900" />
        <text font-size="30" transform="translate(535, 950)" text-anchor="middle" dominant-baseline="middle" stroke="none" fill="black">3</text>
        <path d="M 223.75 920 L 223.75 910" />
        <path d="M 880.833 920 L 880.833 900" />
        <text font-size="30" transform="translate(880.833, 950)" text-anchor="middle" dominant-baseline="middle" stroke="none" fill="black">5</text>
        <path d="M 950 920 L 950 910" />
        <path d="M 189.167 920 L 189.167 900" />
        <text font-size="30" transform="translate(189.167, 950)" text-anchor="middle" dominant-baseline="middle" stroke="none" fill="black">1</text>
        <path d="M 327.5 920 L 327.5 910" />
        <path d="M 656.042 920 L 656.042 910" />
        <path d="M 759.792 920 L 759.792 910" />
        <path d="M 344.792 920 L 344.792 910" />
        <path d="M 413.958 920 L 413.958 910" />
        <path d="M 811.667 920 L 811.667 910" />
        <path d="M 137.292 920 L 137.292 910" />
        <path d="M 465.833 920 L 465.833 910" />
        <path d="M 431.25 920 L 431.25 910" />
        <path d="M 863.542 920 L 863.542 910" />
        <path d="M 638.75 920 L 638.75 910" />
        <path d="M 828.958 920 L 828.958 910" />
        <path d="M 258.333 920 L 258.333 910" />
        <path d="M 241.042 920 L 241.042 910" />
        <path d="M 517.708 920 L 517.708 910" />
        <path d="M 915.417 920 L 915.417 910" />
        <path d="M 725.208 920 L 725.208 910" />
        <path d="M 604.167 920 L 604.167 910" />
        <path d="M 120 920 L 120 910" />
        <path d="M 310.208 920 L 310.208 910" />
        <path d="M 777.083 920 L 777.083 910" />
        <path d="M 500.417 920 L 500.417 910" />
        <path d="M 292.917 920 L 292.917 910" />
        <path d="M 690.625 920 L 690.625 910" />
        <path d="M 171.875 920 L 171.875 910" />
        <path d="M 396.667 920 L 396.667 910" />
        <path d="M 621.458 920 L 621.458 900" />
        <text font-size="30" transform="translate(621.458, 950)" text-anchor="middle" dominant-baseline="middle" stroke="none" fill="black">3.5</text>
        <path d="M 448.542 920 L 448.542 900" />
        <text font-size="30" transform="translate(448.542, 950)" text-anchor="middle" dominant-baseline="middle" stroke="none" fill="black">2.5</text>
        <path d="M 586.875 920 L 586.875 910" />
        <path d="M 206.458 920 L 206.458 910" />
        <path d="M 154.583 920 L 154.583 910" />
        <path d="M 483.125 920 L 483.125 910" />
        <path d="M 673.333 920 L 673.333 910" />
        <path d="M 742.5 920 L 742.5 910" />
        <path d="M 552.292 920 L 552.292 910" />
        <path d="M 846.25 920 L 846.25 910" />
        <path d="M 379.375 920 L 379.375 910" />
        <path d="M 932.708 920 L 932.708 910" />
        <path d="M 569.583 920 L 569.583 910" />
        <path d="M 707.917 920 L 707.917 900" />
        <text font-size="30" transform="translate(707.917, 950)" text-anchor="middle" dominant-baseline="middle" stroke="none" fill="black">4</text>
        <path d="M 794.375 920 L 794.375 900" />
        <text font-size="30" transform="translate(794.375, 950)" text-anchor="middle" dominant-baseline="middle" stroke="none" fill="black">4.5</text>
    </g>
    <g id="frame_0_leftticks">
        <path d="M 120 104.375 L 130 104.375" />
        <path d="M 120 756.875 L 140 756.875" />
        <text font-size="30" transform="translate(110, 766.875)" text-anchor="end" dominant-baseline="middle" stroke="none" fill="black">1.5</text>
        <path d="M 120 666.25 L 140 666.25" />
        <text font-size="30" transform="translate(110, 676.25)" text-anchor="end" dominant-baseline="middle" stroke="none" fill="black">2</text>
        <path d="M 120 485 L 140 485" />
        <text font-size="30" transform="translate(110, 495)" text-anchor="end" dominant-baseline="middle" stroke="none" fill="black">3</text>
        <path d="M 120 811.25 L 130 811.25" />
        <path d="M 120 122.5 L 140 122.5" />
        <text font-size="30" transform="translate(110, 132.5)" text-anchor="end" dominant-baseline="middle" stroke="none" fill="black">5</text>
        <path d="M 120 50 L 130 50" />
        <path d="M 120 847.5 L 140 847.5" />
        <text font-size="30" transform="translate(110, 857.5)" text-anchor="end" dominant-baseline="middle" stroke="none" fill="black">1</text>
        <path d="M 120 702.5 L 130 702.5" />
        <path d="M 120 358.125 L 130 358.125" />
        <path d="M 120 249.375 L 130 249.375" />
        <path d="M 120 684.375 L 130 684.375" />
        <path d="M 120 611.875 L 130 611.875" />
        <path d="M 120 195 L 130 195" />
        <path d="M 120 901.875 L 130 901.875" />
        <path d="M 120 557.5 L 130 557.5" />
        <path d="M 120 593.75 L 130 593.75" />
        <path d="M 120 140.625 L 130 140.625" />
        <path d="M 120 376.25 L 130 376.25" />
        <path d="M 120 176.875 L 130 176.875" />
        <path d="M 120 775 L 130 775" />
        <path d="M 120 793.125 L 130 793.125" />
        <path d="M 120 503.125 L 130 503.125" />
        <path d="M 120 86.25 L 130 86.25" />
        <path d="M 120 285.625 L 130 285.625" />
        <path d="M 120 412.5 L 130 412.5" />
        <path d="M 120 920 L 130 920" />
        <path d="M 120 720.625 L 130 720.625" />
        <path d="M 120 231.25 L 130 231.25" />
        <path d="M 120 521.25 L 130 521.25" />
        <path d="M 120 738.75 L 130 738.75" />
        <path d="M 120 321.875 L 130 321.875" />
        <path d="M 120 865.625 L 130 865.625" />
        <path d="M 120 630 L 130 630" />
        <path d="M 120 394.375 L 140 394.375" />
        <text font-size="30" transform="translate(110, 404.375)" text-anchor="end" dominant-baseline="middle" stroke="none" fill="black">3.5</text>
        <path d="M 120 575.625 L 140 575.625" />
        <text font-size="30" transform="translate(110, 585.625)" text-anchor="end" dominant-baseline="middle" stroke="none" fill="black">2.5</text>
        <path d="M 120 430.625 L 130 430.625" />
        <path d="M 120 829.375 L 130 829.375" />
        <path d="M 120 883.75 L 130 883.75" />
        <path d="M 120 539.375 L 130 539.375" />
        <path d="M 120 340 L 130 340" />
        <path d="M 120 267.5 L 130 267.5" />
        <path d="M 120 466.875 L 130 466.875" />
        <path d="M 120 158.75 L 130 158.75" />
        <path d="M 120 648.125 L 130 648.125" />
        <path d="M 120 68.125 L 130 68.125" />
        <path d="M 120 448.75 L 130 448.75" />
        <path d="M 120 303.75 L 140 303.75" />
        <text font-size="30" transform="translate(110, 313.75)" text-anchor="end" dominant-baseline="middle" stroke="none" fill="black">4</text>
        <path d="M 120 213.125 L 140 213.125" />
        <text font-size="30" transform="translate(110, 223.125)" text-anchor="end" dominant-baseline="middle" stroke="none" fill="black">4.5</text>
    </g>
    <g id="frame_0_topticks">
        <path d="M 898.125 50 L 898.125 60" />
        <path d="M 275.625 50 L 275.625 70" />
        <path d="M 362.083 50 L 362.083 70" />
        <path d="M 535 50 L 535 70" />
        <path d="M 223.75 50 L 223.75 60" />
        <path d="M 880.833 50 L 880.833 70" />
        <path d="M 950 50 L 950 60" />
        <path d="M 189.167 50 L 189.167 70" />
        <path d="M 327.5 50 L 327.5 60" />
        <path d="M 656.042 50 L 656.042 60" />
        <path d="M 759.792 50 L 759.792 60" />
        <path d="M 344.792 50 L 344.792 60" />
        <path d="M 413.958 50 L 413.958 60" />
        <path d="M 811.667 50 L 811.667 60" />
        <path d="M 137.292 50 L 137.292 60" />
        <path d="M 465.833 50 L 465.833 60" />
        <path d="M 431.25 50 L 431.25 60" />
        <path d="M 863.542 50 L 863.542 60" />
        <path d="M 638.75 50 L 638.75 60" />
        <path d="M 828.958 50 L 828.958 60" />
        <path d="M 258.333 50 L 258.333 60" />
        <path d="M 241.042 50 L 241.042 60" />
        <path d="M 517.708 50 L 517.708 60" />
        <path d="M 915.417 50 L 915.417 60" />
        <path d="M 725.208 50 L 725.208 60" />
        <path d="M 604.167 50 L 604.167 60" />
        <path d="M 120 50 L 120 60" />
        <path d="M 310.208 50 L 310.208 60" />
        <path d="M 777.083 50 L 777.083 60" />
        <path d="M 500.417 50 L 500.417 60" />
        <path d="M 292.917 50 L 292.917 60" />
        <path d="M 690.625 50 L 690.625 60" />
        <path d="M 171.875 50 L 171.875 60" />
        <path d="M 396.667 50 L 396.667 60" />
        <path d="M 621.458 50 L 621.458 70" />
        <path d="M 448.542 50 L 448.542 70" />
        <path d="M 586.875 50 L 586.875 60" />
        <path d="M 206.458 50 L 206.458 60" />
        <path d="M 154.583 50 L 154.583 60" />
        <path d="M 483.125 50 L 483.125 60" />
        <path d="M 673.333 50 L 673.333 60" />
        <path d="M 742.5 50 L 742.5 60" />
        <path d="M 552.292 50 L 552.292 60" />
        <path d="M 846.25 50 L 846.25 60" />
        <path d="M 379.375 50 L 379.375 60" />
        <path d="M 932.708 50 L 932.708 60" />
        <path d="M 569.583 50 L 569.583 60" />
        <path d="M 707.917 50 L 707.917 70" />
        <path d="M 794.375 50 L 794.375 70" />
    </g>
    <g id="frame_0_rightticks">
        <path d="M 950 104.375 L 940 104.375" />
        <path d="M 950 756.875 L 930 756.875" />
        <path d="M 950 666.25 L 930 666.25" />
        <path d="M 950 485 L 930 485" />
        <path d="M 950 811.25 L 940 811.25" />
        <path d="M 950 122.5 L 930 122.5" />
        <path d="M 950 50 L 940 50" />
        <path d="M 950 847.5 L 930 847.5" />
        <path d="M 950 702.5 L 940 702.5" />
        <path d="M 950 358.125 L 940 358.125" />
        <path d="M 950 249.375 L 940 249.375" />
        <path d="M 950 684.375 L 940 684.375" />
        <path d="M 950 611.875 L 940 611.875" />
        <path d="M 950 195 L 940 195" />
        <path d="M 950 901.875 L 940 901.875" />
        <path d="M 950 557.5 L 940 557.5" />
        <path d="M 950 593.75 L 940 593.75" />
        <path d="M 950 140.625 L 940 140.625" />
        <path d="M 950 376.25 L 940 376.25" />
        <path d="M 950 176.875 L 940 176.875" />
        <path d="M 950 775 L 940 775" />
        <path d="M 950 793.125 L 940 793.125" />
        <path d="M 950 503.125 L 940 503.125" />
        <path d="M 950 86.25 L 940 86.25" />
        <path d="M 950 285.625 L 940 285.625" />
        <path d="M 950 412.5 L 940 412.5" />
        <path d="M 950 920 L 940 920" />
        <path d="M 950 720.625 L 940 720.625" />
        <path d="M 950 231.25 L 940 231.25" />
        <path d="M 950 521.25 L 940 521.25" />
        <path d="M 950 738.75 L 940 738.75" />
        <path d="M 950 321.875 L 940 321.875" />
        <path d="M 950 865.625 L 940 865.625" />
        <path d="M 950 630 L 940 630" />
        <path d="M 950 394.375 L 930 394.375" />
        <path d="M 950 575.625 L 930 575.625" />
        <path d="M 950 430.625 L 940 430.625" />
        <path d="M 950 829.375 L 940 829.375" />
        <path d="M 950 883.75 L 940 883.75" />
        <path d="M 950 539.375 L 940 539.375" />
        <path d="M 950 340 L 940 340" />
        <path d="M 950 267.5 L 940 267.5" />
        <path d="M 950 466.875 L 940 466.875" />
        <path d="M 950 158.75 L 940 158.75" />
        <path d="M 950 648.125 L 940 648.125" />
        <path d="M 950 68.125 L 940 68.125" />
        <path d="M 950 448.75 L 940 448.75" />
        <path d="M 950 303.75 L 930 303.75" />
        <path d="M 950 213.125 L 930 213.125" />
    </g>
</g>
</g>
</svg>
