<?xml version="1.0" standalone="no"?>
<!DOCTYPE svg PUBLIC "-//W3C//DTD SVG 1.1//EN" "http://www.w3.org/Graphics/SVG/1.1/DTD/svg11.dtd">
<svg style="stroke-linejoin:miter; stroke:black; stroke-width:2.5; text-anchor:middle; fill:none" xmlns="http://www.w3.org/2000/svg" font-family="Helvetica, Arial, FreeSans, Sans, sans, sans-serif" width="1000px" height="1000px" version="1.1" xmlns:xlink="http://www.w3.org/1999/xlink" viewBox="0 0 1000 1000">
<defs>
    <clipPath id="Histogram_0_clip">
        <rect x="120" y="50" width="830" height="870" />
    </clipPath>
</defs>
<g id="whole_document">
<rect id="background" x="0" y="0" width="1000" height="1000" stroke="none" fill="white" />
<g id="Histogram_0" clip-path="url(#Histogram_0_clip)">
    <path d="M 120 920 L 120 920 L 161.5 920 L 161.5 920 L 203 920 L 203 524.545 L 244.5 524.545 L 244.5 524.545 L 286 524.545 L 286 524.545 L 327.5 524.545 L 327.5 524.545 L 369 524.545 L 369 524.545 L 410.5 524.545 L 410.5 524.545 L 452 524.545 L 452 524.545 L 493.5 524.545 L 493.5 524.545 L 535 524.545 L 535 129.091 L 576.5 129.091 L 576.5 129.091 L 618 129.091 L 618 129.091 L 659.5 129.091 L 659.5 129.091 L 701 129.091 L 701 129.091 L 742.5 129.091 L 742.5 524.545 L 784 524.545 L 784 524.545 L 825.5 524.545 L 825.5 524.545 L 867 524.545 L 867 920 L 908.5 920 L 908.5 920 L 950 920 L 950 920" stroke-width="3" stroke-dasharray="" stroke="black" stroke-opacity="1" fill="none" fill-opacity="1" />
</g>
<g id="frame_0">
    <rect id="frame_0_border" x="120" y="50" width="830" height="870" />
    <g id="frame_0_bottomticks">
        <path d="M 120 920 L 120 900" />
        <text font-size="30" transform="translate(120, 950)" text-anchor="middle" dominant-baseline="middle" stroke="none" fill="black">0</text>
        <path d="M 161.5 920 L 161.5 910" />
        <path d="M 203 920 L 203 910" />
        <path d="M 244.5 920 L 244.5 910" />
        <path d="M 286 920 L 286 910" />
        <path d="M 327.5 920 L 327.5 900" />
        <text font-size="30" transform="translate(327.5, 950)" text-anchor="middle" dominant-baseline="middle" stroke="none" fill="black">5</text>
        <path d="M 369 920 L 369 910" />
        <path d="M 410.5 920 L 410.5 910" />
        <path d="M 452 920 L 452 910" />
        <path d="M 493.5 920 L 493.5 910" />
        <path d="M 535 920 L 535 900" />
        <text font-size="30" transform="translate(535, 950)" text-anchor="middle" dominant-baseline="middle" stroke="none" fill="black">10</text>
        <path d="M 576.5 920 L 576.5 910" />
        <path d="M 618 920 L 618 910" />
        <path d="M 659.5 920 L 659.5 910" />
        <path d="M 701 920 L 701 910" />
        <path d="M 742.5 920 L 742.5 900" />
        <text font-size="30" transform="translate(742.5, 950)" text-anchor="middle" dominant-baseline="middle" stroke="none" fill="black">15</text>
        <path d="M 784 920 L 784 910" />
        <path d="M 825.5 920 L 825.5 910" />
        <path d="M 867 920 L 867 910" />
        <path d="M 908.5 920 L 908.5 910" />
        <path d="M 950 920 L 950 900" />
        <text font-size="30" transform="translate(950, 950)" text-anchor="middle" dominant-baseline="middle" stroke="none" fill="black">20</text>
    </g>
    <g id="frame_0_leftticks">
        <path d="M 120 920 L 140 920" />
        <text font-size="30" transform="translate(110, 930)" text-anchor="end" dominant-baseline="middle" stroke="none" fill="black">0</text>
        <path d="M 120 722.273 L 140 722.273" />
        <text font-size="30" transform="translate(110, 732.273)" text-anchor="end" dominant-baseline="middle" stroke="none" fill="black">0.5</text>
        <path d="M 120 208.182 L 130 208.182" />
        <path d="M 120 682.727 L 130 682.727" />
        <path d="M 120 326.818 L 140 326.818" />
        <text font-size="30" transform="translate(110, 336.818)" text-anchor="end" dominant-baseline="middle" stroke="none" fill="black">1.5</text>
        <path d="M 120 524.545 L 140 524.545" />
        <text font-size="30" transform="translate(110, 534.545)" text-anchor="end" dominant-baseline="middle" stroke="none" fill="black">1</text>
        <path d="M 120 445.455 L 130 445.455" />
        <path d="M 120 129.091 L 140 129.091" />
        <text font-size="30" transform="translate(110, 139.091)" text-anchor="end" dominant-baseline="middle" stroke="none" fill="black">2</text>
        <path d="M 120 247.727 L 130 247.727" />
        <path d="M 120 880.455 L 130 880.455" />
        <path d="M 120 801.364 L 130 801.364" />
        <path d="M 120 366.364 L 130 366.364" />
        <path d="M 120 603.636 L 130 603.636" />
        <path d="M 120 168.636 L 130 168.636" />
        <path d="M 120 287.273 L 130 287.273" />
        <path d="M 120 643.182 L 130 643.182" />
        <path d="M 120 761.818 L 130 761.818" />
        <path d="M 120 840.909 L 130 840.909" />
        <path d="M 120 564.091 L 130 564.091" />
        <path d="M 120 405.909 L 130 405.909" />
        <path d="M 120 89.5455 L 130 89.5455" />
        <path d="M 120 485 L 130 485" />
    </g>
    <g id="frame_0_topticks">
        <path d="M 120 50 L 120 70" />
        <path d="M 161.5 50 L 161.5 60" />
        <path d="M 203 50 L 203 60" />
        <path d="M 244.5 50 L 244.5 60" />
        <path d="M 286 50 L 286 60" />
        <path d="M 327.5 50 L 327.5 70" />
        <path d="M 369 50 L 369 60" />
        <path d="M 410.5 50 L 410.5 60" />
        <path d="M 452 50 L 452 60" />
        <path d="M 493.5 50 L 493.5 60" />
        <path d="M 535 50 L 535 70" />
        <path d="M 576.5 50 L 576.5 60" />
        <path d="M 618 50 L 618 60" />
        <path d="M 659.5 50 L 659.5 60" />
        <path d="M 701 50 L 701 60" />
        <path d="M 742.5 50 L 742.5 70" />
        <path d="M 784 50 L 784 60" />
        <path d="M 825.5 50 L 825.5 60" />
        <path d="M 867 50 L 867 60" />
        <path d="M 908.5 50 L 908.5 60" />
        <path d="M 950 50 L 950 70" />
    </g>
    <g id="frame_0_rightticks">
        <path d="M 950 920 L 930 920" />
        <path d="M 950 722.273 L 930 722.273" />
        <path d="M 950 208.182 L 940 208.182" />
        <path d="M 950 682.727 L 940 682.727" />
        <path d="M 950 326.818 L 930 326.818" />
        <path d="M 950 524.545 L 930 524.545" />
        <path d="M 950 445.455 L 940 445.455" />
        <path d="M 950 129.091 L 930 129.091" />
        <path d="M 950 247.727 L 940 247.727" />
        <path d="M 950 880.455 L 940 880.455" />
        <path d="M 950 801.364 L 940 801.364" />
        <path d="M 950 366.364 L 940 366.364" />
        <path d="M 950 603.636 L 940 603.636" />
        <path d="M 950 168.636 L 940 168.636" />
        <path d="M 950 287.273 L 940 287.273" />
        <path d="M 950 643.182 L 940 643.182" />
        <path d="M 950 761.818 L 940 761.818" />
        <path d="M 950 840.909 L 940 840.909" />
        <path d="M 950 564.091 L 940 564.091" />
        <path d="M 950 405.909 L 940 405.909" />
        <path d="M 950 89.5455 L 940 89.5455" />
        <path d="M 950 485 L 940 485" />
    </g>
</g>
</g>
</svg>
