<?xml version="1.0" standalone="no"?>
<!DOCTYPE svg PUBLIC "-//W3C//DTD SVG 1.1//EN" "http://www.w3.org/Graphics/SVG/1.1/DTD/svg11.dtd">
<svg style="stroke-linejoin:miter; stroke:black; stroke-width:2.5; text-anchor:middle; fill:none" xmlns="http://www.w3.org/2000/svg" font-family="Helvetica, Arial, FreeSans, Sans, sans, sans-serif" width="1000px" height="1000px" version="1.1" xmlns:xlink="http://www.w3.org/1999/xlink" viewBox="0 0 1000 1000">
<defs>
    <clipPath id="HistogramAbstract_0_clip">
        <rect x="120" y="50" width="830" height="870" />
    </clipPath>
    <clipPath id="HistogramAbstract_1_clip">
        <rect x="120" y="50" width="830" height="870" />
    </clipPath>
    <clipPath id="HistogramAbstract_2_clip">
        <rect x="120" y="50" width="830" height="870" />
    </clipPath>
    <clipPath id="HistogramAbstract_3_clip">
        <rect x="120" y="50" width="830" height="870" />
    </clipPath>
    <clipPath id="HistogramAbstract_4_clip">
        <rect x="120" y="50" width="830" height="870" />
    </clipPath>
</defs>
<g id="whole_document">
<rect id="background" x="0" y="0" width="1000" height="1000" stroke="none" fill="white" />
<g id="HistogramAbstract_0" clip-path="url(#HistogramAbstract_0_clip)">
    <path d="M 120 920 L 120 716.465 L 128.3 716.465 L 128.3 693.236 L 136.6 693.236 L 136.6 684.387 L 144.9 684.387 L 144.9 671.113 L 153.2 671.113 L 153.2 605.849 L 161.5 605.849 L 161.5 591.469 L 169.8 591.469 L 169.8 551.647 L 178.1 551.647 L 178.1 538.373 L 186.4 538.373 L 186.4 504.081 L 194.7 504.081 L 194.7 464.259 L 203 464.259 L 203 426.65 L 211.3 426.65 L 211.3 396.783 L 219.6 396.783 L 219.6 369.129 L 227.9 369.129 L 227.9 330.413 L 236.2 330.413 L 236.2 256.3 L 244.5 256.3 L 244.5 281.742 L 252.8 281.742 L 252.8 236.389 L 261.1 236.389 L 261.1 199.886 L 269.4 199.886 L 269.4 162.276 L 277.7 162.276 L 277.7 178.868 L 286 178.868 L 286 187.718 L 294.3 187.718 L 294.3 129.091 L 302.6 129.091 L 302.6 156.745 L 310.9 156.745 L 310.9 144.577 L 319.2 144.577 L 319.2 171.125 L 327.5 171.125 L 327.5 192.142 L 335.8 192.142 L 335.8 171.125 L 344.1 171.125 L 344.1 214.266 L 352.4 214.266 L 352.4 239.708 L 360.7 239.708 L 360.7 224.221 L 369 224.221 L 369 259.619 L 377.3 259.619 L 377.3 317.139 L 385.6 317.139 L 385.6 308.29 L 393.9 308.29 L 393.9 310.502 L 402.2 310.502 L 402.2 288.379 L 410.5 288.379 L 410.5 373.554 L 418.8 373.554 L 418.8 427.756 L 427.1 427.756 L 427.1 351.43 L 435.4 351.43 L 435.4 422.225 L 443.7 422.225 L 443.7 384.615 L 452 384.615 L 452 395.677 L 460.3 395.677 L 460.3 410.057 L 468.6 410.057 L 468.6 373.554 L 476.9 373.554 L 476.9 424.437 L 485.2 424.437 L 485.2 423.331 L 493.5 423.331 L 493.5 434.393 L 501.8 434.393 L 501.8 468.684 L 510.1 468.684 L 510.1 448.773 L 518.4 448.773 L 518.4 404.526 L 526.7 404.526 L 526.7 484.17 L 535 484.17 L 535 428.862 L 543.3 428.862 L 543.3 448.773 L 551.6 448.773 L 551.6 432.181 L 559.9 432.181 L 559.9 477.533 L 568.2 477.533 L 568.2 487.489 L 576.5 487.489 L 576.5 509.612 L 584.8 509.612 L 584.8 477.533 L 593.1 477.533 L 593.1 464.259 L 601.4 464.259 L 601.4 489.701 L 609.7 489.701 L 609.7 530.629 L 618 530.629 L 618 474.215 L 626.3 474.215 L 626.3 473.109 L 634.6 473.109 L 634.6 517.355 L 642.9 517.355 L 642.9 500.763 L 651.2 500.763 L 651.2 486.383 L 659.5 486.383 L 659.5 509.612 L 667.8 509.612 L 667.8 495.232 L 676.1 495.232 L 676.1 494.126 L 684.4 494.126 L 684.4 510.718 L 692.7 510.718 L 692.7 516.249 L 701 516.249 L 701 518.462 L 709.3 518.462 L 709.3 491.914 L 717.6 491.914 L 717.6 533.948 L 725.9 533.948 L 725.9 494.126 L 734.2 494.126 L 734.2 512.931 L 742.5 512.931 L 742.5 486.383 L 750.8 486.383 L 750.8 477.533 L 759.1 477.533 L 759.1 564.921 L 767.4 564.921 L 767.4 499.657 L 775.7 499.657 L 775.7 485.277 L 784 485.277 L 784 506.294 L 792.3 506.294 L 792.3 520.674 L 800.6 520.674 L 800.6 545.01 L 808.9 545.01 L 808.9 521.78 L 817.2 521.78 L 817.2 522.886 L 825.5 522.886 L 825.5 549.434 L 833.8 549.434 L 833.8 554.965 L 842.1 554.965 L 842.1 519.568 L 850.4 519.568 L 850.4 537.266 L 858.7 537.266 L 858.7 543.903 L 867 543.903 L 867 554.965 L 875.3 554.965 L 875.3 561.602 L 883.6 561.602 L 883.6 533.948 L 891.9 533.948 L 891.9 569.345 L 900.2 569.345 L 900.2 582.619 L 908.5 582.619 L 908.5 559.39 L 916.8 559.39 L 916.8 604.743 L 925.1 604.743 L 925.1 592.575 L 933.4 592.575 L 933.4 606.955 L 941.7 606.955 L 941.7 643.458 L 950 643.458 L 950 920" stroke-width="3" stroke-dasharray="" stroke="black" stroke-opacity="1" fill="#7ac7fe" fill-opacity="1" />
</g>
<g id="HistogramAbstract_1" clip-path="url(#HistogramAbstract_1_clip)">
    <path d="M 120 920 L 120 775.092 L 128.3 775.092 L 128.3 783.942 L 136.6 783.942 L 136.6 775.092 L 144.9 775.092 L 144.9 777.305 L 153.2 777.305 L 153.2 749.65 L 161.5 749.65 L 161.5 745.226 L 169.8 745.226 L 169.8 728.633 L 178.1 728.633 L 178.1 743.013 L 186.4 743.013 L 186.4 725.315 L 194.7 725.315 L 194.7 708.722 L 203 708.722 L 203 699.873 L 211.3 699.873 L 211.3 691.024 L 219.6 691.024 L 219.6 714.253 L 227.9 714.253 L 227.9 676.643 L 236.2 676.643 L 236.2 639.034 L 244.5 639.034 L 244.5 632.397 L 252.8 632.397 L 252.8 660.051 L 261.1 660.051 L 261.1 654.52 L 269.4 654.52 L 269.4 629.078 L 277.7 629.078 L 277.7 614.698 L 286 614.698 L 286 610.273 L 294.3 610.273 L 294.3 562.708 L 302.6 562.708 L 302.6 588.15 L 310.9 588.15 L 310.9 564.921 L 319.2 564.921 L 319.2 551.647 L 327.5 551.647 L 327.5 547.222 L 335.8 547.222 L 335.8 542.797 L 344.1 542.797 L 344.1 561.602 L 352.4 561.602 L 352.4 527.311 L 360.7 527.311 L 360.7 521.78 L 369 521.78 L 369 530.629 L 377.3 530.629 L 377.3 522.886 L 385.6 522.886 L 385.6 530.629 L 393.9 530.629 L 393.9 499.657 L 402.2 499.657 L 402.2 437.711 L 410.5 437.711 L 410.5 511.825 L 418.8 511.825 L 418.8 535.054 L 427.1 535.054 L 427.1 444.348 L 435.4 444.348 L 435.4 486.383 L 443.7 486.383 L 443.7 452.092 L 452 452.092 L 452 453.198 L 460.3 453.198 L 460.3 453.198 L 468.6 453.198 L 468.6 412.27 L 476.9 412.27 L 476.9 455.41 L 485.2 455.41 L 485.2 449.879 L 493.5 449.879 L 493.5 456.516 L 501.8 456.516 L 501.8 480.852 L 510.1 480.852 L 510.1 459.835 L 518.4 459.835 L 518.4 410.057 L 526.7 410.057 L 526.7 489.701 L 535 489.701 L 535 434.393 L 543.3 434.393 L 543.3 453.198 L 551.6 453.198 L 551.6 434.393 L 559.9 434.393 L 559.9 479.746 L 568.2 479.746 L 568.2 489.701 L 576.5 489.701 L 576.5 509.612 L 584.8 509.612 L 584.8 477.533 L 593.1 477.533 L 593.1 464.259 L 601.4 464.259 L 601.4 489.701 L 609.7 489.701 L 609.7 530.629 L 618 530.629 L 618 475.321 L 626.3 475.321 L 626.3 474.215 L 634.6 474.215 L 634.6 517.355 L 642.9 517.355 L 642.9 500.763 L 651.2 500.763 L 651.2 486.383 L 659.5 486.383 L 659.5 509.612 L 667.8 509.612 L 667.8 495.232 L 676.1 495.232 L 676.1 494.126 L 684.4 494.126 L 684.4 510.718 L 692.7 510.718 L 692.7 516.249 L 701 516.249 L 701 518.462 L 709.3 518.462 L 709.3 491.914 L 717.6 491.914 L 717.6 533.948 L 725.9 533.948 L 725.9 494.126 L 734.2 494.126 L 734.2 512.931 L 742.5 512.931 L 742.5 486.383 L 750.8 486.383 L 750.8 477.533 L 759.1 477.533 L 759.1 564.921 L 767.4 564.921 L 767.4 499.657 L 775.7 499.657 L 775.7 485.277 L 784 485.277 L 784 506.294 L 792.3 506.294 L 792.3 520.674 L 800.6 520.674 L 800.6 545.01 L 808.9 545.01 L 808.9 521.78 L 817.2 521.78 L 817.2 522.886 L 825.5 522.886 L 825.5 549.434 L 833.8 549.434 L 833.8 554.965 L 842.1 554.965 L 842.1 519.568 L 850.4 519.568 L 850.4 537.266 L 858.7 537.266 L 858.7 543.903 L 867 543.903 L 867 554.965 L 875.3 554.965 L 875.3 561.602 L 883.6 561.602 L 883.6 533.948 L 891.9 533.948 L 891.9 569.345 L 900.2 569.345 L 900.2 582.619 L 908.5 582.619 L 908.5 559.39 L 916.8 559.39 L 916.8 604.743 L 925.1 604.743 L 925.1 592.575 L 933.4 592.575 L 933.4 606.955 L 941.7 606.955 L 941.7 643.458 L 950 643.458 L 950 920" stroke-width="3" stroke-dasharray="" stroke="black" stroke-opacity="1" fill="#ff7991" fill-opacity="1" />
</g>
<g id="HistogramAbstract_2" clip-path="url(#HistogramAbstract_2_clip)">
    <path d="M 120 920 L 120 775.092 L 128.3 775.092 L 128.3 783.942 L 136.6 783.942 L 136.6 775.092 L 144.9 775.092 L 144.9 777.305 L 153.2 777.305 L 153.2 749.65 L 161.5 749.65 L 161.5 745.226 L 169.8 745.226 L 169.8 728.633 L 178.1 728.633 L 178.1 743.013 L 186.4 743.013 L 186.4 725.315 L 194.7 725.315 L 194.7 708.722 L 203 708.722 L 203 699.873 L 211.3 699.873 L 211.3 692.13 L 219.6 692.13 L 219.6 714.253 L 227.9 714.253 L 227.9 676.643 L 236.2 676.643 L 236.2 639.034 L 244.5 639.034 L 244.5 632.397 L 252.8 632.397 L 252.8 660.051 L 261.1 660.051 L 261.1 654.52 L 269.4 654.52 L 269.4 629.078 L 277.7 629.078 L 277.7 614.698 L 286 614.698 L 286 610.273 L 294.3 610.273 L 294.3 562.708 L 302.6 562.708 L 302.6 589.256 L 310.9 589.256 L 310.9 566.027 L 319.2 566.027 L 319.2 551.647 L 327.5 551.647 L 327.5 550.54 L 335.8 550.54 L 335.8 545.01 L 344.1 545.01 L 344.1 562.708 L 352.4 562.708 L 352.4 527.311 L 360.7 527.311 L 360.7 525.099 L 369 525.099 L 369 532.842 L 377.3 532.842 L 377.3 522.886 L 385.6 522.886 L 385.6 533.948 L 393.9 533.948 L 393.9 502.975 L 402.2 502.975 L 402.2 442.136 L 410.5 442.136 L 410.5 515.143 L 418.8 515.143 L 418.8 537.266 L 427.1 537.266 L 427.1 453.198 L 435.4 453.198 L 435.4 498.551 L 443.7 498.551 L 443.7 459.835 L 452 459.835 L 452 460.941 L 460.3 460.941 L 460.3 464.259 L 468.6 464.259 L 468.6 428.862 L 476.9 428.862 L 476.9 464.259 L 485.2 464.259 L 485.2 479.746 L 493.5 479.746 L 493.5 470.896 L 501.8 470.896 L 501.8 495.232 L 510.1 495.232 L 510.1 485.277 L 518.4 485.277 L 518.4 438.818 L 526.7 438.818 L 526.7 515.143 L 535 515.143 L 535 466.472 L 543.3 466.472 L 543.3 481.958 L 551.6 481.958 L 551.6 470.896 L 559.9 470.896 L 559.9 526.205 L 568.2 526.205 L 568.2 535.054 L 576.5 535.054 L 576.5 558.284 L 584.8 558.284 L 584.8 530.629 L 593.1 530.629 L 593.1 530.629 L 601.4 530.629 L 601.4 553.859 L 609.7 553.859 L 609.7 587.044 L 618 587.044 L 618 551.647 L 626.3 551.647 L 626.3 536.16 L 634.6 536.16 L 634.6 596.999 L 642.9 596.999 L 642.9 601.424 L 651.2 601.424 L 651.2 575.982 L 659.5 575.982 L 659.5 601.424 L 667.8 601.424 L 667.8 591.469 L 676.1 591.469 L 676.1 608.061 L 684.4 608.061 L 684.4 639.034 L 692.7 639.034 L 692.7 635.715 L 701 635.715 L 701 633.503 L 709.3 633.503 L 709.3 651.202 L 717.6 651.202 L 717.6 675.537 L 725.9 675.537 L 725.9 650.095 L 734.2 650.095 L 734.2 682.174 L 742.5 682.174 L 742.5 665.582 L 750.8 665.582 L 750.8 672.219 L 759.1 672.219 L 759.1 718.678 L 767.4 718.678 L 767.4 702.085 L 775.7 702.085 L 775.7 705.404 L 784 705.404 L 784 697.661 L 792.3 697.661 L 792.3 723.102 L 800.6 723.102 L 800.6 748.544 L 808.9 748.544 L 808.9 735.27 L 817.2 735.27 L 817.2 719.784 L 825.5 719.784 L 825.5 765.137 L 833.8 765.137 L 833.8 769.561 L 842.1 769.561 L 842.1 759.606 L 850.4 759.606 L 850.4 755.181 L 858.7 755.181 L 858.7 758.5 L 867 758.5 L 867 790.579 L 875.3 790.579 L 875.3 788.366 L 883.6 788.366 L 883.6 775.092 L 891.9 775.092 L 891.9 790.579 L 900.2 790.579 L 900.2 797.216 L 908.5 797.216 L 908.5 790.579 L 916.8 790.579 L 916.8 802.746 L 925.1 802.746 L 925.1 821.551 L 933.4 821.551 L 933.4 811.596 L 941.7 811.596 L 941.7 828.188 L 950 828.188 L 950 920" stroke-width="3" stroke-dasharray="" stroke="black" stroke-opacity="1" fill="#4dfe74" fill-opacity="1" />
</g>
<g id="HistogramAbstract_3" clip-path="url(#HistogramAbstract_3_clip)">
    <path d="M 120 920 L 120 802.746 L 128.3 802.746 L 128.3 817.127 L 136.6 817.127 L 136.6 820.445 L 144.9 820.445 L 144.9 810.49 L 153.2 810.49 L 153.2 789.472 L 161.5 789.472 L 161.5 802.746 L 169.8 802.746 L 169.8 791.685 L 178.1 791.685 L 178.1 801.64 L 186.4 801.64 L 186.4 787.26 L 194.7 787.26 L 194.7 793.897 L 203 793.897 L 203 777.305 L 211.3 777.305 L 211.3 776.198 L 219.6 776.198 L 219.6 791.685 L 227.9 791.685 L 227.9 779.517 L 236.2 779.517 L 236.2 747.438 L 244.5 747.438 L 244.5 747.438 L 252.8 747.438 L 252.8 762.924 L 261.1 762.924 L 261.1 776.198 L 269.4 776.198 L 269.4 749.65 L 277.7 749.65 L 277.7 755.181 L 286 755.181 L 286 737.483 L 294.3 737.483 L 294.3 725.315 L 302.6 725.315 L 302.6 741.907 L 310.9 741.907 L 310.9 716.465 L 319.2 716.465 L 319.2 721.996 L 327.5 721.996 L 327.5 714.253 L 335.8 714.253 L 335.8 714.253 L 344.1 714.253 L 344.1 735.27 L 352.4 735.27 L 352.4 713.147 L 360.7 713.147 L 360.7 707.616 L 369 707.616 L 369 723.102 L 377.3 723.102 L 377.3 698.767 L 385.6 698.767 L 385.6 719.784 L 393.9 719.784 L 393.9 698.767 L 402.2 698.767 L 402.2 670.006 L 410.5 670.006 L 410.5 697.661 L 418.8 697.661 L 418.8 726.421 L 427.1 726.421 L 427.1 692.13 L 435.4 692.13 L 435.4 694.342 L 443.7 694.342 L 443.7 688.811 L 452 688.811 L 452 676.643 L 460.3 676.643 L 460.3 689.917 L 468.6 689.917 L 468.6 667.794 L 476.9 667.794 L 476.9 699.873 L 485.2 699.873 L 485.2 716.465 L 493.5 716.465 L 493.5 670.006 L 501.8 670.006 L 501.8 709.828 L 510.1 709.828 L 510.1 676.643 L 518.4 676.643 L 518.4 668.9 L 526.7 668.9 L 526.7 689.917 L 535 689.917 L 535 674.431 L 543.3 674.431 L 543.3 671.113 L 551.6 671.113 L 551.6 679.962 L 559.9 679.962 L 559.9 697.661 L 568.2 697.661 L 568.2 691.024 L 576.5 691.024 L 576.5 702.085 L 584.8 702.085 L 584.8 698.767 L 593.1 698.767 L 593.1 692.13 L 601.4 692.13 L 601.4 695.448 L 609.7 695.448 L 609.7 714.253 L 618 714.253 L 618 679.962 L 626.3 679.962 L 626.3 672.219 L 634.6 672.219 L 634.6 706.51 L 642.9 706.51 L 642.9 696.554 L 651.2 696.554 L 651.2 674.431 L 659.5 674.431 L 659.5 687.705 L 667.8 687.705 L 667.8 682.174 L 676.1 682.174 L 676.1 714.253 L 684.4 714.253 L 684.4 707.616 L 692.7 707.616 L 692.7 718.678 L 701 718.678 L 701 708.722 L 709.3 708.722 L 709.3 718.678 L 717.6 718.678 L 717.6 725.315 L 725.9 725.315 L 725.9 706.51 L 734.2 706.51 L 734.2 737.483 L 742.5 737.483 L 742.5 720.89 L 750.8 720.89 L 750.8 720.89 L 759.1 720.89 L 759.1 747.438 L 767.4 747.438 L 767.4 733.058 L 775.7 733.058 L 775.7 736.376 L 784 736.376 L 784 729.739 L 792.3 729.739 L 792.3 755.181 L 800.6 755.181 L 800.6 770.668 L 808.9 770.668 L 808.9 754.075 L 817.2 754.075 L 817.2 747.438 L 825.5 747.438 L 825.5 782.835 L 833.8 782.835 L 833.8 781.729 L 842.1 781.729 L 842.1 772.88 L 850.4 772.88 L 850.4 766.243 L 858.7 766.243 L 858.7 766.243 L 867 766.243 L 867 795.003 L 875.3 795.003 L 875.3 792.791 L 883.6 792.791 L 883.6 789.472 L 891.9 789.472 L 891.9 797.216 L 900.2 797.216 L 900.2 801.64 L 908.5 801.64 L 908.5 796.109 L 916.8 796.109 L 916.8 813.808 L 925.1 813.808 L 925.1 823.764 L 933.4 823.764 L 933.4 812.702 L 941.7 812.702 L 941.7 829.294 L 950 829.294 L 950 920" stroke-width="3" stroke-dasharray="" stroke="black" stroke-opacity="1" fill="#dfacff" fill-opacity="1" />
</g>
<g id="HistogramAbstract_4" clip-path="url(#HistogramAbstract_4_clip)">
    <path d="M 120 920 L 120 817.127 L 128.3 817.127 L 128.3 834.825 L 136.6 834.825 L 136.6 831.507 L 144.9 831.507 L 144.9 823.764 L 153.2 823.764 L 153.2 801.64 L 161.5 801.64 L 161.5 827.082 L 169.8 827.082 L 169.8 810.49 L 178.1 810.49 L 178.1 817.127 L 186.4 817.127 L 186.4 807.171 L 194.7 807.171 L 194.7 809.383 L 203 809.383 L 203 801.64 L 211.3 801.64 L 211.3 796.109 L 219.6 796.109 L 219.6 812.702 L 227.9 812.702 L 227.9 808.277 L 236.2 808.277 L 236.2 780.623 L 244.5 780.623 L 244.5 775.092 L 252.8 775.092 L 252.8 799.428 L 261.1 799.428 L 261.1 806.065 L 269.4 806.065 L 269.4 778.411 L 277.7 778.411 L 277.7 791.685 L 286 791.685 L 286 767.349 L 294.3 767.349 L 294.3 773.986 L 302.6 773.986 L 302.6 777.305 L 310.9 777.305 L 310.9 757.394 L 319.2 757.394 L 319.2 765.137 L 327.5 765.137 L 327.5 770.668 L 335.8 770.668 L 335.8 772.88 L 344.1 772.88 L 344.1 795.003 L 352.4 795.003 L 352.4 766.243 L 360.7 766.243 L 360.7 764.031 L 369 764.031 L 369 772.88 L 377.3 772.88 L 377.3 757.394 L 385.6 757.394 L 385.6 779.517 L 393.9 779.517 L 393.9 770.668 L 402.2 770.668 L 402.2 747.438 L 410.5 747.438 L 410.5 765.137 L 418.8 765.137 L 418.8 787.26 L 427.1 787.26 L 427.1 778.411 L 435.4 778.411 L 435.4 778.411 L 443.7 778.411 L 443.7 779.517 L 452 779.517 L 452 764.031 L 460.3 764.031 L 460.3 791.685 L 468.6 791.685 L 468.6 773.986 L 476.9 773.986 L 476.9 788.366 L 485.2 788.366 L 485.2 817.127 L 493.5 817.127 L 493.5 781.729 L 501.8 781.729 L 501.8 798.322 L 510.1 798.322 L 510.1 783.942 L 518.4 783.942 L 518.4 782.835 L 526.7 782.835 L 526.7 807.171 L 535 807.171 L 535 792.791 L 543.3 792.791 L 543.3 804.959 L 551.6 804.959 L 551.6 816.02 L 559.9 816.02 L 559.9 804.959 L 568.2 804.959 L 568.2 821.551 L 576.5 821.551 L 576.5 828.188 L 584.8 828.188 L 584.8 828.188 L 593.1 828.188 L 593.1 835.931 L 601.4 835.931 L 601.4 829.294 L 609.7 829.294 L 609.7 835.931 L 618 835.931 L 618 812.702 L 626.3 812.702 L 626.3 823.764 L 634.6 823.764 L 634.6 845.887 L 642.9 845.887 L 642.9 833.719 L 651.2 833.719 L 651.2 832.613 L 659.5 832.613 L 659.5 829.294 L 667.8 829.294 L 667.8 839.25 L 676.1 839.25 L 676.1 860.267 L 684.4 860.267 L 684.4 853.63 L 692.7 853.63 L 692.7 865.798 L 701 865.798 L 701 864.692 L 709.3 864.692 L 709.3 861.373 L 717.6 861.373 L 717.6 860.267 L 725.9 860.267 L 725.9 863.586 L 734.2 863.586 L 734.2 882.39 L 742.5 882.39 L 742.5 865.798 L 750.8 865.798 L 750.8 879.072 L 759.1 879.072 L 759.1 882.39 L 767.4 882.39 L 767.4 882.39 L 775.7 882.39 L 775.7 883.497 L 784 883.497 L 784 874.647 L 792.3 874.647 L 792.3 883.497 L 800.6 883.497 L 800.6 890.134 L 808.9 890.134 L 808.9 890.134 L 817.2 890.134 L 817.2 898.983 L 825.5 898.983 L 825.5 893.452 L 833.8 893.452 L 833.8 894.558 L 842.1 894.558 L 842.1 898.983 L 850.4 898.983 L 850.4 890.134 L 858.7 890.134 L 858.7 902.301 L 867 902.301 L 867 912.257 L 875.3 912.257 L 875.3 912.257 L 883.6 912.257 L 883.6 902.301 L 891.9 902.301 L 891.9 906.726 L 900.2 906.726 L 900.2 902.301 L 908.5 902.301 L 908.5 911.151 L 916.8 911.151 L 916.8 907.832 L 925.1 907.832 L 925.1 906.726 L 933.4 906.726 L 933.4 906.726 L 941.7 906.726 L 941.7 907.832 L 950 907.832 L 950 920" stroke-width="3" stroke-dasharray="" stroke="black" stroke-opacity="1" fill="#fbff4c" fill-opacity="1" />
</g>
<g id="frame_0">
    <rect id="frame_0_border" x="120" y="50" width="830" height="870" />
    <g id="frame_0_bottomticks">
        <path d="M 535 920 L 535 910" />
        <path d="M 120 920 L 120 900" />
        <text font-size="30" transform="translate(120, 950)" text-anchor="middle" dominant-baseline="middle" stroke="none" fill="black">0</text>
        <path d="M 452 920 L 452 900" />
        <text font-size="30" transform="translate(452, 950)" text-anchor="middle" dominant-baseline="middle" stroke="none" fill="black">0.4</text>
        <path d="M 203 920 L 203 910" />
        <path d="M 950 920 L 950 900" />
        <text font-size="30" transform="translate(950, 950)" text-anchor="middle" dominant-baseline="middle" stroke="none" fill="black">1</text>
        <path d="M 286 920 L 286 900" />
        <text font-size="30" transform="translate(286, 950)" text-anchor="middle" dominant-baseline="middle" stroke="none" fill="black">0.2</text>
        <path d="M 618 920 L 618 900" />
        <text font-size="30" transform="translate(618, 950)" text-anchor="middle" dominant-baseline="middle" stroke="none" fill="black">0.6</text>
        <path d="M 369 920 L 369 910" />
        <path d="M 784 920 L 784 900" />
        <text font-size="30" transform="translate(784, 950)" text-anchor="middle" dominant-baseline="middle" stroke="none" fill="black">0.8</text>
        <path d="M 867 920 L 867 910" />
        <path d="M 701 920 L 701 910" />
    </g>
    <g id="frame_0_leftticks">
        <path d="M 120 212.053 L 130 212.053" />
        <path d="M 120 920 L 140 920" />
        <text font-size="30" transform="translate(110, 930)" text-anchor="end" dominant-baseline="middle" stroke="none" fill="black">0</text>
        <path d="M 120 776.198 L 130 776.198" />
        <path d="M 120 632.397 L 130 632.397" />
        <path d="M 120 488.595 L 130 488.595" />
        <path d="M 120 344.793 L 130 344.793" />
        <path d="M 120 908.938 L 130 908.938" />
        <path d="M 120 765.137 L 130 765.137" />
        <path d="M 120 68.2517 L 130 68.2517" />
        <path d="M 120 621.335 L 130 621.335" />
        <path d="M 120 477.533 L 140 477.533" />
        <text font-size="30" transform="translate(110, 487.533)" text-anchor="end" dominant-baseline="middle" stroke="none" fill="black">400</text>
        <path d="M 120 333.732 L 130 333.732" />
        <path d="M 120 897.877 L 130 897.877" />
        <path d="M 120 90.3751 L 130 90.3751" />
        <path d="M 120 754.075 L 130 754.075" />
        <path d="M 120 610.273 L 130 610.273" />
        <path d="M 120 466.472 L 130 466.472" />
        <path d="M 120 322.67 L 130 322.67" />
        <path d="M 120 112.498 L 130 112.498" />
        <path d="M 120 886.815 L 130 886.815" />
        <path d="M 120 743.013 L 130 743.013" />
        <path d="M 120 599.212 L 130 599.212" />
        <path d="M 120 455.41 L 130 455.41" />
        <path d="M 120 134.622 L 130 134.622" />
        <path d="M 120 311.608 L 130 311.608" />
        <path d="M 120 875.753 L 130 875.753" />
        <path d="M 120 731.952 L 130 731.952" />
        <path d="M 120 588.15 L 140 588.15" />
        <text font-size="30" transform="translate(110, 598.15)" text-anchor="end" dominant-baseline="middle" stroke="none" fill="black">300</text>
        <path d="M 120 156.745 L 130 156.745" />
        <path d="M 120 444.348 L 130 444.348" />
        <path d="M 120 300.547 L 130 300.547" />
        <path d="M 120 864.692 L 130 864.692" />
        <path d="M 120 720.89 L 130 720.89" />
        <path d="M 120 178.868 L 130 178.868" />
        <path d="M 120 577.088 L 130 577.088" />
        <path d="M 120 433.287 L 130 433.287" />
        <path d="M 120 289.485 L 130 289.485" />
        <path d="M 120 853.63 L 130 853.63" />
        <path d="M 120 200.992 L 130 200.992" />
        <path d="M 120 709.828 L 130 709.828" />
        <path d="M 120 566.027 L 130 566.027" />
        <path d="M 120 422.225 L 130 422.225" />
        <path d="M 120 278.423 L 130 278.423" />
        <path d="M 120 842.568 L 130 842.568" />
        <path d="M 120 698.767 L 140 698.767" />
        <text font-size="30" transform="translate(110, 708.767)" text-anchor="end" dominant-baseline="middle" stroke="none" fill="black">200</text>
        <path d="M 120 57.1901 L 130 57.1901" />
        <path d="M 120 554.965 L 130 554.965" />
        <path d="M 120 411.163 L 130 411.163" />
        <path d="M 120 267.362 L 130 267.362" />
        <path d="M 120 831.507 L 130 831.507" />
        <path d="M 120 79.3134 L 130 79.3134" />
        <path d="M 120 687.705 L 130 687.705" />
        <path d="M 120 543.903 L 130 543.903" />
        <path d="M 120 400.102 L 130 400.102" />
        <path d="M 120 256.3 L 140 256.3" />
        <text font-size="30" transform="translate(110, 266.3)" text-anchor="end" dominant-baseline="middle" stroke="none" fill="black">600</text>
        <path d="M 120 809.383 L 140 809.383" />
        <text font-size="30" transform="translate(110, 819.383)" text-anchor="end" dominant-baseline="middle" stroke="none" fill="black">100</text>
        <path d="M 120 820.445 L 130 820.445" />
        <path d="M 120 676.643 L 130 676.643" />
        <path d="M 120 532.842 L 130 532.842" />
        <path d="M 120 389.04 L 130 389.04" />
        <path d="M 120 123.56 L 130 123.56" />
        <path d="M 120 245.238 L 130 245.238" />
        <path d="M 120 101.437 L 130 101.437" />
        <path d="M 120 665.582 L 130 665.582" />
        <path d="M 120 521.78 L 130 521.78" />
        <path d="M 120 145.683 L 140 145.683" />
        <text font-size="30" transform="translate(110, 155.683)" text-anchor="end" dominant-baseline="middle" stroke="none" fill="black">700</text>
        <path d="M 120 377.978 L 130 377.978" />
        <path d="M 120 234.177 L 130 234.177" />
        <path d="M 120 798.322 L 130 798.322" />
        <path d="M 120 654.52 L 130 654.52" />
        <path d="M 120 167.807 L 130 167.807" />
        <path d="M 120 510.718 L 130 510.718" />
        <path d="M 120 366.917 L 140 366.917" />
        <text font-size="30" transform="translate(110, 376.917)" text-anchor="end" dominant-baseline="middle" stroke="none" fill="black">500</text>
        <path d="M 120 223.115 L 130 223.115" />
        <path d="M 120 787.26 L 130 787.26" />
        <path d="M 120 189.93 L 130 189.93" />
        <path d="M 120 643.458 L 130 643.458" />
        <path d="M 120 499.657 L 130 499.657" />
        <path d="M 120 355.855 L 130 355.855" />
    </g>
    <g id="frame_0_topticks">
        <path d="M 535 50 L 535 60" />
        <path d="M 120 50 L 120 70" />
        <path d="M 452 50 L 452 70" />
        <path d="M 203 50 L 203 60" />
        <path d="M 950 50 L 950 70" />
        <path d="M 286 50 L 286 70" />
        <path d="M 618 50 L 618 70" />
        <path d="M 369 50 L 369 60" />
        <path d="M 784 50 L 784 70" />
        <path d="M 867 50 L 867 60" />
        <path d="M 701 50 L 701 60" />
    </g>
    <g id="frame_0_rightticks">
        <path d="M 950 212.053 L 940 212.053" />
        <path d="M 950 920 L 930 920" />
        <path d="M 950 776.198 L 940 776.198" />
        <path d="M 950 632.397 L 940 632.397" />
        <path d="M 950 488.595 L 940 488.595" />
        <path d="M 950 344.793 L 940 344.793" />
        <path d="M 950 908.938 L 940 908.938" />
        <path d="M 950 765.137 L 940 765.137" />
        <path d="M 950 68.2517 L 940 68.2517" />
        <path d="M 950 621.335 L 940 621.335" />
        <path d="M 950 477.533 L 930 477.533" />
        <path d="M 950 333.732 L 940 333.732" />
        <path d="M 950 897.877 L 940 897.877" />
        <path d="M 950 90.3751 L 940 90.3751" />
        <path d="M 950 754.075 L 940 754.075" />
        <path d="M 950 610.273 L 940 610.273" />
        <path d="M 950 466.472 L 940 466.472" />
        <path d="M 950 322.67 L 940 322.67" />
        <path d="M 950 112.498 L 940 112.498" />
        <path d="M 950 886.815 L 940 886.815" />
        <path d="M 950 743.013 L 940 743.013" />
        <path d="M 950 599.212 L 940 599.212" />
        <path d="M 950 455.41 L 940 455.41" />
        <path d="M 950 134.622 L 940 134.622" />
        <path d="M 950 311.608 L 940 311.608" />
        <path d="M 950 875.753 L 940 875.753" />
        <path d="M 950 731.952 L 940 731.952" />
        <path d="M 950 588.15 L 930 588.15" />
        <path d="M 950 156.745 L 940 156.745" />
        <path d="M 950 444.348 L 940 444.348" />
        <path d="M 950 300.547 L 940 300.547" />
        <path d="M 950 864.692 L 940 864.692" />
        <path d="M 950 720.89 L 940 720.89" />
        <path d="M 950 178.868 L 940 178.868" />
        <path d="M 950 577.088 L 940 577.088" />
        <path d="M 950 433.287 L 940 433.287" />
        <path d="M 950 289.485 L 940 289.485" />
        <path d="M 950 853.63 L 940 853.63" />
        <path d="M 950 200.992 L 940 200.992" />
        <path d="M 950 709.828 L 940 709.828" />
        <path d="M 950 566.027 L 940 566.027" />
        <path d="M 950 422.225 L 940 422.225" />
        <path d="M 950 278.423 L 940 278.423" />
        <path d="M 950 842.568 L 940 842.568" />
        <path d="M 950 698.767 L 930 698.767" />
        <path d="M 950 57.1901 L 940 57.1901" />
        <path d="M 950 554.965 L 940 554.965" />
        <path d="M 950 411.163 L 940 411.163" />
        <path d="M 950 267.362 L 940 267.362" />
        <path d="M 950 831.507 L 940 831.507" />
        <path d="M 950 79.3134 L 940 79.3134" />
        <path d="M 950 687.705 L 940 687.705" />
        <path d="M 950 543.903 L 940 543.903" />
        <path d="M 950 400.102 L 940 400.102" />
        <path d="M 950 256.3 L 930 256.3" />
        <path d="M 950 809.383 L 930 809.383" />
        <path d="M 950 820.445 L 940 820.445" />
        <path d="M 950 676.643 L 940 676.643" />
        <path d="M 950 532.842 L 940 532.842" />
        <path d="M 950 389.04 L 940 389.04" />
        <path d="M 950 123.56 L 940 123.56" />
        <path d="M 950 245.238 L 940 245.238" />
        <path d="M 950 101.437 L 940 101.437" />
        <path d="M 950 665.582 L 940 665.582" />
        <path d="M 950 521.78 L 940 521.78" />
        <path d="M 950 145.683 L 930 145.683" />
        <path d="M 950 377.978 L 940 377.978" />
        <path d="M 950 234.177 L 940 234.177" />
        <path d="M 950 798.322 L 940 798.322" />
        <path d="M 950 654.52 L 940 654.52" />
        <path d="M 950 167.807 L 940 167.807" />
        <path d="M 950 510.718 L 940 510.718" />
        <path d="M 950 366.917 L 930 366.917" />
        <path d="M 950 223.115 L 940 223.115" />
        <path d="M 950 787.26 L 940 787.26" />
        <path d="M 950 189.93 L 940 189.93" />
        <path d="M 950 643.458 L 940 643.458" />
        <path d="M 950 499.657 L 940 499.657" />
        <path d="M 950 355.855 L 940 355.855" />
    </g>
</g>
</g>
</svg>
