<?xml version="1.0" standalone="no"?>
<!DOCTYPE svg PUBLIC "-//W3C//DTD SVG 1.1//EN" "http://www.w3.org/Graphics/SVG/1.1/DTD/svg11.dtd">
<svg style="stroke-linejoin:miter; stroke:black; stroke-width:2.5; text-anchor:middle; fill:none" xmlns="http://www.w3.org/2000/svg" font-family="Helvetica, Arial, FreeSans, Sans, sans, sans-serif" width="1000px" height="1000px" version="1.1" xmlns:xlink="http://www.w3.org/1999/xlink" viewBox="0 0 1000 1000">
<defs>
    <clipPath id="Scatter_0_clip">
        <rect x="120" y="50" width="830" height="870" />
    </clipPath>
    <clipPath id="Scatter_1_clip">
        <rect x="120" y="50" width="830" height="870" />
    </clipPath>
    <clipPath id="Scatter_2_clip">
        <rect x="120" y="50" width="830" height="870" />
    </clipPath>
</defs>
<g id="whole_document">
<rect id="background" x="0" y="0" width="1000" height="1000" stroke="none" fill="white" />
<g id="Scatter_0" clip-path="url(#Scatter_0_clip)">
    <path d="M 120 485 L 120.831 483.633 L 121.662 482.266 L 122.492 480.898 L 123.323 479.532 L 124.154 478.165 L 124.985 476.798 L 125.816 475.432 L 126.647 474.066 L 127.477 472.701 L 128.308 471.336 L 129.139 469.972 L 129.97 468.608 L 130.801 467.245 L 131.632 465.883 L 132.462 464.521 L 133.293 463.161 L 134.124 461.801 L 134.955 460.442 L 135.786 459.084 L 136.617 457.727 L 137.447 456.371 L 138.278 455.016 L 139.109 453.662 L 139.94 452.31 L 140.771 450.959 L 141.602 449.609 L 142.432 448.261 L 143.263 446.914 L 144.094 445.569 L 144.925 444.225 L 145.756 442.882 L 146.587 441.542 L 147.417 440.203 L 148.248 438.866 L 149.079 437.531 L 149.91 436.197 L 150.741 434.866 L 151.572 433.537 L 152.402 432.209 L 153.233 430.884 L 154.064 429.561 L 154.895 428.24 L 155.726 426.921 L 156.557 425.604 L 157.387 424.29 L 158.218 422.979 L 159.049 421.669 L 159.88 420.363 L 160.711 419.058 L 161.542 417.757 L 162.372 416.458 L 163.203 415.162 L 164.034 413.868 L 164.865 412.577 L 165.696 411.29 L 166.527 410.005 L 167.357 408.723 L 168.188 407.444 L 169.019 406.168 L 169.85 404.895 L 170.681 403.626 L 171.512 402.359 L 172.342 401.096 L 173.173 399.837 L 174.004 398.58 L 174.835 397.327 L 175.666 396.078 L 176.496 394.832 L 177.327 393.589 L 178.158 392.35 L 178.989 391.115 L 179.82 389.884 L 180.651 388.656 L 181.481 387.432 L 182.312 386.212 L 183.143 384.996 L 183.974 383.784 L 184.805 382.575 L 185.636 381.371 L 186.466 380.171 L 187.297 378.975 L 188.128 377.784 L 188.959 376.596 L 189.79 375.413 L 190.621 374.234 L 191.451 373.06 L 192.282 371.89 L 193.113 370.724 L 193.944 369.563 L 194.775 368.406 L 195.606 367.255 L 196.436 366.107 L 197.267 364.965 L 198.098 363.827 L 198.929 362.694 L 199.76 361.566 L 200.591 360.442 L 201.421 359.324 L 202.252 358.211 L 203.083 357.102 L 203.914 355.999 L 204.745 354.901 L 205.576 353.807 L 206.406 352.719 L 207.237 351.637 L 208.068 350.559 L 208.899 349.487 L 209.73 348.42 L 210.561 347.359 L 211.391 346.303 L 212.222 345.253 L 213.053 344.208 L 213.884 343.168 L 214.715 342.135 L 215.546 341.106 L 216.376 340.084 L 217.207 339.067 L 218.038 338.056 L 218.869 337.051 L 219.7 336.052 L 220.531 335.059 L 221.361 334.071 L 222.192 333.09 L 223.023 332.114 L 223.854 331.145 L 224.685 330.181 L 225.516 329.224 L 226.346 328.273 L 227.177 327.328 L 228.008 326.389 L 228.839 325.457 L 229.67 324.531 L 230.501 323.611 L 231.331 322.698 L 232.162 321.791 L 232.993 320.89 L 233.824 319.996 L 234.655 319.109 L 235.485 318.228 L 236.316 317.353 L 237.147 316.485 L 237.978 315.624 L 238.809 314.77 L 239.64 313.922 L 240.47 313.081 L 241.301 312.247 L 242.132 311.42 L 242.963 310.6 L 243.794 309.786 L 244.625 308.979 L 245.455 308.18 L 246.286 307.387 L 247.117 306.601 L 247.948 305.823 L 248.779 305.051 L 249.61 304.287 L 250.44 303.53 L 251.271 302.779 L 252.102 302.037 L 252.933 301.301 L 253.764 300.572 L 254.595 299.851 L 255.425 299.138 L 256.256 298.431 L 257.087 297.732 L 257.918 297.04 L 258.749 296.356 L 259.58 295.679 L 260.41 295.01 L 261.241 294.348 L 262.072 293.694 L 262.903 293.047 L 263.734 292.408 L 264.565 291.776 L 265.395 291.153 L 266.226 290.536 L 267.057 289.928 L 267.888 289.327 L 268.719 288.734 L 269.55 288.148 L 270.38 287.571 L 271.211 287.001 L 272.042 286.439 L 272.873 285.885 L 273.704 285.339 L 274.535 284.801 L 275.365 284.27 L 276.196 283.748 L 277.027 283.233 L 277.858 282.726 L 278.689 282.228 L 279.52 281.737 L 280.35 281.255 L 281.181 280.78 L 282.012 280.314 L 282.843 279.856 L 283.674 279.405 L 284.505 278.963 L 285.335 278.529 L 286.166 278.104 L 286.997 277.686 L 287.828 277.277 L 288.659 276.875 L 289.489 276.482 L 290.32 276.098 L 291.151 275.721 L 291.982 275.353 L 292.813 274.993 L 293.644 274.641 L 294.474 274.298 L 295.305 273.963 L 296.136 273.636 L 296.967 273.318 L 297.798 273.008 L 298.629 272.707 L 299.459 272.413 L 300.29 272.129 L 301.121 271.852 L 301.952 271.584 L 302.783 271.325 L 303.614 271.074 L 304.444 270.831 L 305.275 270.597 L 306.106 270.371 L 306.937 270.154 L 307.768 269.945 L 308.599 269.745 L 309.429 269.554 L 310.26 269.37 L 311.091 269.196 L 311.922 269.03 L 312.753 268.872 L 313.584 268.723 L 314.414 268.582 L 315.245 268.45 L 316.076 268.327 L 316.907 268.212 L 317.738 268.106 L 318.569 268.008 L 319.399 267.919 L 320.23 267.839 L 321.061 267.767 L 321.892 267.703 L 322.723 267.648 L 323.554 267.602 L 324.384 267.565 L 325.215 267.536 L 326.046 267.515 L 326.877 267.503 L 327.708 267.5 L 328.539 267.505 L 329.369 267.519 L 330.2 267.542 L 331.031 267.573 L 331.862 267.613 L 332.693 267.661 L 333.524 267.718 L 334.354 267.784 L 335.185 267.858 L 336.016 267.94 L 336.847 268.032 L 337.678 268.131 L 338.509 268.24 L 339.339 268.357 L 340.17 268.482 L 341.001 268.616 L 341.832 268.759 L 342.663 268.91 L 343.493 269.07 L 344.324 269.238 L 345.155 269.415 L 345.986 269.6 L 346.817 269.794 L 347.648 269.996 L 348.478 270.207 L 349.309 270.426 L 350.14 270.654 L 350.971 270.89 L 351.802 271.135 L 352.633 271.388 L 353.463 271.65 L 354.294 271.92 L 355.125 272.198 L 355.956 272.485 L 356.787 272.78 L 357.618 273.084 L 358.448 273.396 L 359.279 273.716 L 360.11 274.045 L 360.941 274.382 L 361.772 274.727 L 362.603 275.081 L 363.433 275.443 L 364.264 275.813 L 365.095 276.192 L 365.926 276.579 L 366.757 276.974 L 367.588 277.377 L 368.418 277.788 L 369.249 278.208 L 370.08 278.636 L 370.911 279.072 L 371.742 279.516 L 372.573 279.968 L 373.403 280.428 L 374.234 280.897 L 375.065 281.373 L 375.896 281.858 L 376.727 282.35 L 377.558 282.851 L 378.388 283.359 L 379.219 283.876 L 380.05 284.4 L 380.881 284.933 L 381.712 285.473 L 382.543 286.021 L 383.373 286.577 L 384.204 287.141 L 385.035 287.713 L 385.866 288.292 L 386.697 288.879 L 387.528 289.474 L 388.358 290.077 L 389.189 290.688 L 390.02 291.306 L 390.851 291.931 L 391.682 292.565 L 392.513 293.206 L 393.343 293.854 L 394.174 294.511 L 395.005 295.174 L 395.836 295.845 L 396.667 296.524 L 397.497 297.21 L 398.328 297.904 L 399.159 298.605 L 399.99 299.313 L 400.821 300.029 L 401.652 300.751 L 402.482 301.482 L 403.313 302.219 L 404.144 302.964 L 404.975 303.716 L 405.806 304.475 L 406.637 305.241 L 407.467 306.014 L 408.298 306.794 L 409.129 307.582 L 409.96 308.376 L 410.791 309.178 L 411.622 309.986 L 412.452 310.801 L 413.283 311.623 L 414.114 312.452 L 414.945 313.288 L 415.776 314.131 L 416.607 314.98 L 417.437 315.836 L 418.268 316.699 L 419.099 317.568 L 419.93 318.444 L 420.761 319.327 L 421.592 320.216 L 422.422 321.112 L 423.253 322.014 L 424.084 322.922 L 424.915 323.837 L 425.746 324.759 L 426.577 325.686 L 427.407 326.62 L 428.238 327.56 L 429.069 328.507 L 429.9 329.46 L 430.731 330.418 L 431.562 331.383 L 432.392 332.354 L 433.223 333.331 L 434.054 334.314 L 434.885 335.303 L 435.716 336.298 L 436.547 337.299 L 437.377 338.305 L 438.208 339.318 L 439.039 340.336 L 439.87 341.36 L 440.701 342.389 L 441.532 343.424 L 442.362 344.465 L 443.193 345.511 L 444.024 346.563 L 444.855 347.62 L 445.686 348.683 L 446.517 349.751 L 447.347 350.825 L 448.178 351.903 L 449.009 352.987 L 449.84 354.077 L 450.671 355.171 L 451.502 356.27 L 452.332 357.375 L 453.163 358.485 L 453.994 359.599 L 454.825 360.719 L 455.656 361.843 L 456.486 362.973 L 457.317 364.107 L 458.148 365.246 L 458.979 366.39 L 459.81 367.538 L 460.641 368.691 L 461.471 369.849 L 462.302 371.011 L 463.133 372.178 L 463.964 373.349 L 464.795 374.525 L 465.626 375.704 L 466.456 376.889 L 467.287 378.077 L 468.118 379.27 L 468.949 380.467 L 469.78 381.668 L 470.611 382.873 L 471.441 384.082 L 472.272 385.295 L 473.103 386.513 L 473.934 387.734 L 474.765 388.958 L 475.596 390.187 L 476.426 391.419 L 477.257 392.656 L 478.088 393.895 L 478.919 395.139 L 479.75 396.385 L 480.581 397.636 L 481.411 398.89 L 482.242 400.147 L 483.073 401.408 L 483.904 402.671 L 484.735 403.939 L 485.566 405.209 L 486.396 406.482 L 487.227 407.759 L 488.058 409.039 L 488.889 410.321 L 489.72 411.607 L 490.551 412.895 L 491.381 414.187 L 492.212 415.481 L 493.043 416.778 L 493.874 418.078 L 494.705 419.38 L 495.536 420.685 L 496.366 421.992 L 497.197 423.302 L 498.028 424.614 L 498.859 425.929 L 499.69 427.246 L 500.521 428.565 L 501.351 429.887 L 502.182 431.211 L 503.013 432.536 L 503.844 433.864 L 504.675 435.194 L 505.506 436.526 L 506.336 437.86 L 507.167 439.196 L 507.998 440.533 L 508.829 441.872 L 509.66 443.213 L 510.49 444.556 L 511.321 445.9 L 512.152 447.246 L 512.983 448.593 L 513.814 449.942 L 514.645 451.292 L 515.475 452.643 L 516.306 453.996 L 517.137 455.35 L 517.968 456.705 L 518.799 458.061 L 519.63 459.419 L 520.46 460.777 L 521.291 462.136 L 522.122 463.496 L 522.953 464.857 L 523.784 466.219 L 524.615 467.581 L 525.445 468.945 L 526.276 470.308 L 527.107 471.673 L 527.938 473.038 L 528.769 474.403 L 529.6 475.769 L 530.43 477.135 L 531.261 478.502 L 532.092 479.869 L 532.923 481.236 L 533.754 482.603 L 534.585 483.97 L 535.415 485.337 L 536.246 486.704 L 537.077 488.072 L 537.908 489.439 L 538.739 490.806 L 539.57 492.172 L 540.4 493.539 L 541.231 494.905 L 542.062 496.27 L 542.893 497.636 L 543.724 499 L 544.555 500.364 L 545.385 501.728 L 546.216 503.091 L 547.047 504.453 L 547.878 505.814 L 548.709 507.175 L 549.54 508.535 L 550.37 509.893 L 551.201 511.251 L 552.032 512.608 L 552.863 513.964 L 553.694 515.318 L 554.525 516.671 L 555.355 518.023 L 556.186 519.374 L 557.017 520.724 L 557.848 522.072 L 558.679 523.418 L 559.51 524.763 L 560.34 526.107 L 561.171 527.448 L 562.002 528.788 L 562.833 530.127 L 563.664 531.463 L 564.494 532.798 L 565.325 534.131 L 566.156 535.462 L 566.987 536.791 L 567.818 538.118 L 568.649 539.443 L 569.479 540.765 L 570.31 542.086 L 571.141 543.404 L 571.972 544.72 L 572.803 546.033 L 573.634 547.345 L 574.464 548.653 L 575.295 549.959 L 576.126 551.263 L 576.957 552.564 L 577.788 553.862 L 578.619 555.158 L 579.449 556.451 L 580.28 557.74 L 581.111 559.028 L 581.942 560.312 L 582.773 561.593 L 583.604 562.871 L 584.434 564.146 L 585.265 565.418 L 586.096 566.687 L 586.927 567.952 L 587.758 569.215 L 588.589 570.474 L 589.419 571.729 L 590.25 572.981 L 591.081 574.23 L 591.912 575.475 L 592.743 576.717 L 593.574 577.955 L 594.404 579.189 L 595.235 580.42 L 596.066 581.646 L 596.897 582.869 L 597.728 584.088 L 598.559 585.303 L 599.389 586.515 L 600.22 587.722 L 601.051 588.925 L 601.882 590.124 L 602.713 591.319 L 603.544 592.51 L 604.374 593.696 L 605.205 594.878 L 606.036 596.056 L 606.867 597.229 L 607.698 598.398 L 608.529 599.563 L 609.359 600.723 L 610.19 601.878 L 611.021 603.029 L 611.852 604.175 L 612.683 605.316 L 613.514 606.453 L 614.344 607.585 L 615.175 608.712 L 616.006 609.834 L 616.837 610.951 L 617.668 612.063 L 618.498 613.17 L 619.329 614.273 L 620.16 615.37 L 620.991 616.461 L 621.822 617.548 L 622.653 618.629 L 623.483 619.706 L 624.314 620.776 L 625.145 621.842 L 625.976 622.902 L 626.807 623.956 L 627.638 625.006 L 628.468 626.049 L 629.299 627.087 L 630.13 628.119 L 630.961 629.146 L 631.792 630.167 L 632.623 631.183 L 633.453 632.192 L 634.284 633.196 L 635.115 634.194 L 635.946 635.185 L 636.777 636.171 L 637.608 637.152 L 638.438 638.126 L 639.269 639.094 L 640.1 640.055 L 640.931 641.011 L 641.762 641.961 L 642.593 642.904 L 643.423 643.841 L 644.254 644.772 L 645.085 645.697 L 645.916 646.615 L 646.747 647.527 L 647.578 648.432 L 648.408 649.331 L 649.239 650.223 L 650.07 651.109 L 650.901 651.989 L 651.732 652.861 L 652.563 653.728 L 653.393 654.587 L 654.224 655.44 L 655.055 656.286 L 655.886 657.125 L 656.717 657.957 L 657.548 658.783 L 658.378 659.602 L 659.209 660.414 L 660.04 661.219 L 660.871 662.016 L 661.702 662.807 L 662.533 663.591 L 663.363 664.368 L 664.194 665.138 L 665.025 665.901 L 665.856 666.656 L 666.687 667.404 L 667.518 668.146 L 668.348 668.879 L 669.179 669.606 L 670.01 670.325 L 670.841 671.037 L 671.672 671.742 L 672.503 672.439 L 673.333 673.129 L 674.164 673.812 L 674.995 674.487 L 675.826 675.154 L 676.657 675.814 L 677.487 676.466 L 678.318 677.111 L 679.149 677.749 L 679.98 678.378 L 680.811 679 L 681.642 679.615 L 682.472 680.221 L 683.303 680.82 L 684.134 681.411 L 684.965 681.995 L 685.796 682.57 L 686.627 683.138 L 687.457 683.698 L 688.288 684.25 L 689.119 684.795 L 689.95 685.331 L 690.781 685.86 L 691.612 686.38 L 692.442 686.893 L 693.273 687.397 L 694.104 687.894 L 694.935 688.382 L 695.766 688.863 L 696.597 689.335 L 697.427 689.8 L 698.258 690.256 L 699.089 690.704 L 699.92 691.144 L 700.751 691.576 L 701.582 692 L 702.412 692.416 L 703.243 692.823 L 704.074 693.222 L 704.905 693.613 L 705.736 693.996 L 706.567 694.37 L 707.397 694.737 L 708.228 695.095 L 709.059 695.444 L 709.89 695.785 L 710.721 696.118 L 711.552 696.443 L 712.382 696.759 L 713.213 697.067 L 714.044 697.367 L 714.875 697.658 L 715.706 697.94 L 716.537 698.215 L 717.367 698.481 L 718.198 698.738 L 719.029 698.987 L 719.86 699.227 L 720.691 699.459 L 721.522 699.683 L 722.352 699.898 L 723.183 700.105 L 724.014 700.303 L 724.845 700.492 L 725.676 700.674 L 726.507 700.846 L 727.337 701.01 L 728.168 701.166 L 728.999 701.313 L 729.83 701.451 L 730.661 701.581 L 731.491 701.702 L 732.322 701.815 L 733.153 701.919 L 733.984 702.015 L 734.815 702.102 L 735.646 702.18 L 736.476 702.25 L 737.307 702.311 L 738.138 702.364 L 738.969 702.408 L 739.8 702.443 L 740.631 702.47 L 741.461 702.489 L 742.292 702.498 L 743.123 702.499 L 743.954 702.492 L 744.785 702.476 L 745.616 702.451 L 746.446 702.418 L 747.277 702.376 L 748.108 702.326 L 748.939 702.267 L 749.77 702.199 L 750.601 702.123 L 751.431 702.038 L 752.262 701.945 L 753.093 701.843 L 753.924 701.732 L 754.755 701.613 L 755.586 701.486 L 756.416 701.349 L 757.247 701.205 L 758.078 701.051 L 758.909 700.89 L 759.74 700.719 L 760.571 700.54 L 761.401 700.353 L 762.232 700.157 L 763.063 699.953 L 763.894 699.74 L 764.725 699.518 L 765.556 699.289 L 766.386 699.05 L 767.217 698.804 L 768.048 698.548 L 768.879 698.285 L 769.71 698.013 L 770.541 697.732 L 771.371 697.443 L 772.202 697.146 L 773.033 696.84 L 773.864 696.526 L 774.695 696.204 L 775.526 695.873 L 776.356 695.534 L 777.187 695.186 L 778.018 694.831 L 778.849 694.467 L 779.68 694.094 L 780.511 693.714 L 781.341 693.325 L 782.172 692.928 L 783.003 692.523 L 783.834 692.109 L 784.665 691.687 L 785.495 691.258 L 786.326 690.82 L 787.157 690.374 L 787.988 689.919 L 788.819 689.457 L 789.65 688.987 L 790.48 688.508 L 791.311 688.022 L 792.142 687.527 L 792.973 687.025 L 793.804 686.514 L 794.635 685.996 L 795.465 685.469 L 796.296 684.935 L 797.127 684.393 L 797.958 683.843 L 798.789 683.285 L 799.62 682.719 L 800.45 682.145 L 801.281 681.564 L 802.112 680.975 L 802.943 680.378 L 803.774 679.773 L 804.605 679.161 L 805.435 678.541 L 806.266 677.913 L 807.097 677.278 L 807.928 676.635 L 808.759 675.984 L 809.59 675.326 L 810.42 674.661 L 811.251 673.988 L 812.082 673.307 L 812.913 672.619 L 813.744 671.924 L 814.575 671.221 L 815.405 670.511 L 816.236 669.794 L 817.067 669.069 L 817.898 668.337 L 818.729 667.598 L 819.56 666.851 L 820.39 666.098 L 821.221 665.337 L 822.052 664.569 L 822.883 663.794 L 823.714 663.012 L 824.545 662.223 L 825.375 661.427 L 826.206 660.624 L 827.037 659.814 L 827.868 658.997 L 828.699 658.173 L 829.53 657.342 L 830.36 656.505 L 831.191 655.66 L 832.022 654.809 L 832.853 653.952 L 833.684 653.087 L 834.515 652.216 L 835.345 651.339 L 836.176 650.454 L 837.007 649.564 L 837.838 648.666 L 838.669 647.763 L 839.499 646.853 L 840.33 645.936 L 841.161 645.013 L 841.992 644.084 L 842.823 643.148 L 843.654 642.207 L 844.484 641.259 L 845.315 640.305 L 846.146 639.344 L 846.977 638.378 L 847.808 637.405 L 848.639 636.427 L 849.469 635.442 L 850.3 634.452 L 851.131 633.456 L 851.962 632.454 L 852.793 631.446 L 853.624 630.432 L 854.454 629.412 L 855.285 628.387 L 856.116 627.356 L 856.947 626.32 L 857.778 625.277 L 858.609 624.23 L 859.439 623.177 L 860.27 622.118 L 861.101 621.054 L 861.932 619.985 L 862.763 618.91 L 863.594 617.83 L 864.424 616.745 L 865.255 615.654 L 866.086 614.558 L 866.917 613.458 L 867.748 612.352 L 868.579 611.241 L 869.409 610.125 L 870.24 609.004 L 871.071 607.878 L 871.902 606.748 L 872.733 605.612 L 873.564 604.472 L 874.394 603.327 L 875.225 602.178 L 876.056 601.024 L 876.887 599.865 L 877.718 598.702 L 878.549 597.534 L 879.379 596.362 L 880.21 595.185 L 881.041 594.004 L 881.872 592.819 L 882.703 591.629 L 883.534 590.435 L 884.364 589.237 L 885.195 588.035 L 886.026 586.829 L 886.857 585.619 L 887.688 584.405 L 888.519 583.187 L 889.349 581.965 L 890.18 580.739 L 891.011 579.509 L 891.842 578.276 L 892.673 577.039 L 893.504 575.798 L 894.334 574.554 L 895.165 573.306 L 895.996 572.055 L 896.827 570.801 L 897.658 569.542 L 898.488 568.281 L 899.319 567.016 L 900.15 565.748 L 900.981 564.477 L 901.812 563.203 L 902.643 561.926 L 903.473 560.645 L 904.304 559.362 L 905.135 558.075 L 905.966 556.786 L 906.797 555.494 L 907.628 554.199 L 908.458 552.902 L 909.289 551.602 L 910.12 550.299 L 910.951 548.993 L 911.782 547.685 L 912.613 546.375 L 913.443 545.062 L 914.274 543.746 L 915.105 542.429 L 915.936 541.109 L 916.767 539.787 L 917.598 538.463 L 918.428 537.136 L 919.259 535.808 L 920.09 534.477 L 920.921 533.145 L 921.752 531.811 L 922.583 530.475 L 923.413 529.137 L 924.244 527.797 L 925.075 526.456 L 925.906 525.113 L 926.737 523.768 L 927.568 522.422 L 928.398 521.074 L 929.229 519.725 L 930.06 518.375 L 930.891 517.023 L 931.722 515.67 L 932.553 514.316 L 933.383 512.961 L 934.214 511.604 L 935.045 510.247 L 935.876 508.888 L 936.707 507.529 L 937.538 506.168 L 938.368 504.807 L 939.199 503.445 L 940.03 502.082 L 940.861 500.719 L 941.692 499.355 L 942.523 497.99 L 943.353 496.625 L 944.184 495.26 L 945.015 493.894 L 945.846 492.528 L 946.677 491.161 L 947.508 489.794 L 948.338 488.427 L 949.169 487.06 L 950 485.693" stroke-width="3" stroke-dasharray="" stroke="black" stroke-opacity="1" fill="none" />
</g>
<g id="Scatter_1" clip-path="url(#Scatter_1_clip)">
    <path d="M 120 267.5 L 120.831 267.504 L 121.662 267.517 L 122.492 267.539 L 123.323 267.569 L 124.154 267.607 L 124.985 267.655 L 125.816 267.711 L 126.647 267.775 L 127.477 267.848 L 128.308 267.93 L 129.139 268.02 L 129.97 268.119 L 130.801 268.226 L 131.632 268.342 L 132.462 268.466 L 133.293 268.599 L 134.124 268.741 L 134.955 268.891 L 135.786 269.05 L 136.617 269.217 L 137.447 269.392 L 138.278 269.577 L 139.109 269.769 L 139.94 269.971 L 140.771 270.18 L 141.602 270.399 L 142.432 270.625 L 143.263 270.861 L 144.094 271.104 L 144.925 271.356 L 145.756 271.617 L 146.587 271.886 L 147.417 272.163 L 148.248 272.449 L 149.079 272.743 L 149.91 273.046 L 150.741 273.357 L 151.572 273.676 L 152.402 274.004 L 153.233 274.34 L 154.064 274.684 L 154.895 275.037 L 155.726 275.398 L 156.557 275.767 L 157.387 276.145 L 158.218 276.53 L 159.049 276.924 L 159.88 277.327 L 160.711 277.737 L 161.542 278.156 L 162.372 278.582 L 163.203 279.017 L 164.034 279.46 L 164.865 279.912 L 165.696 280.371 L 166.527 280.838 L 167.357 281.314 L 168.188 281.797 L 169.019 282.289 L 169.85 282.789 L 170.681 283.296 L 171.512 283.812 L 172.342 284.335 L 173.173 284.866 L 174.004 285.406 L 174.835 285.953 L 175.666 286.508 L 176.496 287.071 L 177.327 287.642 L 178.158 288.22 L 178.989 288.807 L 179.82 289.401 L 180.651 290.002 L 181.481 290.612 L 182.312 291.229 L 183.143 291.854 L 183.974 292.486 L 184.805 293.126 L 185.636 293.774 L 186.466 294.429 L 187.297 295.092 L 188.128 295.762 L 188.959 296.44 L 189.79 297.125 L 190.621 297.818 L 191.451 298.518 L 192.282 299.225 L 193.113 299.94 L 193.944 300.662 L 194.775 301.391 L 195.606 302.128 L 196.436 302.872 L 197.267 303.623 L 198.098 304.381 L 198.929 305.146 L 199.76 305.918 L 200.591 306.698 L 201.421 307.484 L 202.252 308.278 L 203.083 309.078 L 203.914 309.886 L 204.745 310.7 L 205.576 311.522 L 206.406 312.35 L 207.237 313.185 L 208.068 314.026 L 208.899 314.875 L 209.73 315.73 L 210.561 316.592 L 211.391 317.461 L 212.222 318.336 L 213.053 319.218 L 213.884 320.106 L 214.715 321.001 L 215.546 321.902 L 216.376 322.81 L 217.207 323.724 L 218.038 324.645 L 218.869 325.572 L 219.7 326.505 L 220.531 327.444 L 221.361 328.39 L 222.192 329.342 L 223.023 330.3 L 223.854 331.264 L 224.685 332.234 L 225.516 333.21 L 226.346 334.193 L 227.177 335.181 L 228.008 336.175 L 228.839 337.175 L 229.67 338.181 L 230.501 339.192 L 231.331 340.21 L 232.162 341.233 L 232.993 342.262 L 233.824 343.296 L 234.655 344.336 L 235.485 345.382 L 236.316 346.433 L 237.147 347.49 L 237.978 348.552 L 238.809 349.619 L 239.64 350.692 L 240.47 351.77 L 241.301 352.853 L 242.132 353.942 L 242.963 355.036 L 243.794 356.135 L 244.625 357.239 L 245.455 358.348 L 246.286 359.462 L 247.117 360.581 L 247.948 361.705 L 248.779 362.833 L 249.61 363.967 L 250.44 365.105 L 251.271 366.248 L 252.102 367.396 L 252.933 368.549 L 253.764 369.706 L 254.595 370.868 L 255.425 372.034 L 256.256 373.204 L 257.087 374.379 L 257.918 375.559 L 258.749 376.742 L 259.58 377.93 L 260.41 379.123 L 261.241 380.319 L 262.072 381.52 L 262.903 382.724 L 263.734 383.933 L 264.565 385.146 L 265.395 386.362 L 266.226 387.583 L 267.057 388.807 L 267.888 390.035 L 268.719 391.267 L 269.55 392.503 L 270.38 393.742 L 271.211 394.985 L 272.042 396.231 L 272.873 397.481 L 273.704 398.735 L 274.535 399.992 L 275.365 401.252 L 276.196 402.515 L 277.027 403.782 L 277.858 405.052 L 278.689 406.325 L 279.52 407.601 L 280.35 408.881 L 281.181 410.163 L 282.012 411.448 L 282.843 412.736 L 283.674 414.027 L 284.505 415.321 L 285.335 416.618 L 286.166 417.917 L 286.997 419.219 L 287.828 420.524 L 288.659 421.831 L 289.489 423.14 L 290.32 424.452 L 291.151 425.767 L 291.982 427.083 L 292.813 428.402 L 293.644 429.724 L 294.474 431.047 L 295.305 432.373 L 296.136 433.7 L 296.967 435.03 L 297.798 436.362 L 298.629 437.695 L 299.459 439.031 L 300.29 440.368 L 301.121 441.707 L 301.952 443.048 L 302.783 444.39 L 303.614 445.734 L 304.444 447.08 L 305.275 448.427 L 306.106 449.775 L 306.937 451.125 L 307.768 452.477 L 308.599 453.829 L 309.429 455.183 L 310.26 456.538 L 311.091 457.894 L 311.922 459.251 L 312.753 460.609 L 313.584 461.968 L 314.414 463.328 L 315.245 464.689 L 316.076 466.051 L 316.907 467.413 L 317.738 468.776 L 318.569 470.14 L 319.399 471.505 L 320.23 472.87 L 321.061 474.235 L 321.892 475.601 L 322.723 476.967 L 323.554 478.333 L 324.384 479.7 L 325.215 481.067 L 326.046 482.434 L 326.877 483.801 L 327.708 485.169 L 328.539 486.536 L 329.369 487.903 L 330.2 489.27 L 331.031 490.637 L 331.862 492.004 L 332.693 493.37 L 333.524 494.736 L 334.354 496.102 L 335.185 497.467 L 336.016 498.832 L 336.847 500.196 L 337.678 501.56 L 338.509 502.923 L 339.339 504.285 L 340.17 505.646 L 341.001 507.007 L 341.832 508.367 L 342.663 509.726 L 343.493 511.084 L 344.324 512.441 L 345.155 513.796 L 345.986 515.151 L 346.817 516.505 L 347.648 517.857 L 348.478 519.208 L 349.309 520.557 L 350.14 521.905 L 350.971 523.252 L 351.802 524.597 L 352.633 525.941 L 353.463 527.283 L 354.294 528.623 L 355.125 529.962 L 355.956 531.299 L 356.787 532.634 L 357.618 533.967 L 358.448 535.298 L 359.279 536.627 L 360.11 537.954 L 360.941 539.279 L 361.772 540.602 L 362.603 541.923 L 363.433 543.242 L 364.264 544.558 L 365.095 545.872 L 365.926 547.183 L 366.757 548.492 L 367.588 549.798 L 368.418 551.102 L 369.249 552.404 L 370.08 553.702 L 370.911 554.998 L 371.742 556.291 L 372.573 557.582 L 373.403 558.869 L 374.234 560.154 L 375.065 561.435 L 375.896 562.714 L 376.727 563.989 L 377.558 565.261 L 378.388 566.531 L 379.219 567.797 L 380.05 569.059 L 380.881 570.319 L 381.712 571.575 L 382.543 572.827 L 383.373 574.076 L 384.204 575.322 L 385.035 576.564 L 385.866 577.802 L 386.697 579.037 L 387.528 580.268 L 388.358 581.495 L 389.189 582.719 L 390.02 583.938 L 390.851 585.154 L 391.682 586.366 L 392.513 587.573 L 393.343 588.777 L 394.174 589.976 L 395.005 591.172 L 395.836 592.363 L 396.667 593.55 L 397.497 594.733 L 398.328 595.911 L 399.159 597.085 L 399.99 598.254 L 400.821 599.419 L 401.652 600.58 L 402.482 601.736 L 403.313 602.887 L 404.144 604.034 L 404.975 605.176 L 405.806 606.313 L 406.637 607.446 L 407.467 608.573 L 408.298 609.696 L 409.129 610.814 L 409.96 611.926 L 410.791 613.034 L 411.622 614.137 L 412.452 615.235 L 413.283 616.327 L 414.114 617.414 L 414.945 618.496 L 415.776 619.573 L 416.607 620.645 L 417.437 621.711 L 418.268 622.771 L 419.099 623.827 L 419.93 624.876 L 420.761 625.921 L 421.592 626.959 L 422.422 627.992 L 423.253 629.02 L 424.084 630.042 L 424.915 631.058 L 425.746 632.068 L 426.577 633.072 L 427.407 634.071 L 428.238 635.063 L 429.069 636.05 L 429.9 637.031 L 430.731 638.006 L 431.562 638.974 L 432.392 639.937 L 433.223 640.894 L 434.054 641.844 L 434.885 642.788 L 435.716 643.726 L 436.547 644.658 L 437.377 645.583 L 438.208 646.502 L 439.039 647.415 L 439.87 648.321 L 440.701 649.22 L 441.532 650.114 L 442.362 651 L 443.193 651.881 L 444.024 652.754 L 444.855 653.621 L 445.686 654.481 L 446.517 655.335 L 447.347 656.182 L 448.178 657.022 L 449.009 657.855 L 449.84 658.682 L 450.671 659.501 L 451.502 660.314 L 452.332 661.12 L 453.163 661.918 L 453.994 662.71 L 454.825 663.495 L 455.656 664.273 L 456.486 665.043 L 457.317 665.807 L 458.148 666.563 L 458.979 667.313 L 459.81 668.055 L 460.641 668.789 L 461.471 669.517 L 462.302 670.237 L 463.133 670.95 L 463.964 671.656 L 464.795 672.354 L 465.626 673.044 L 466.456 673.728 L 467.287 674.404 L 468.118 675.072 L 468.949 675.733 L 469.78 676.386 L 470.611 677.032 L 471.441 677.67 L 472.272 678.301 L 473.103 678.924 L 473.934 679.539 L 474.765 680.147 L 475.596 680.747 L 476.426 681.339 L 477.257 681.923 L 478.088 682.5 L 478.919 683.069 L 479.75 683.63 L 480.581 684.183 L 481.411 684.728 L 482.242 685.265 L 483.073 685.795 L 483.904 686.316 L 484.735 686.83 L 485.566 687.335 L 486.396 687.833 L 487.227 688.323 L 488.058 688.804 L 488.889 689.278 L 489.72 689.743 L 490.551 690.2 L 491.381 690.65 L 492.212 691.091 L 493.043 691.524 L 493.874 691.948 L 494.705 692.365 L 495.536 692.773 L 496.366 693.174 L 497.197 693.566 L 498.028 693.949 L 498.859 694.325 L 499.69 694.692 L 500.521 695.051 L 501.351 695.401 L 502.182 695.744 L 503.013 696.078 L 503.844 696.403 L 504.675 696.721 L 505.506 697.03 L 506.336 697.33 L 507.167 697.622 L 507.998 697.906 L 508.829 698.181 L 509.66 698.448 L 510.49 698.707 L 511.321 698.957 L 512.152 699.198 L 512.983 699.431 L 513.814 699.656 L 514.645 699.872 L 515.475 700.08 L 516.306 700.279 L 517.137 700.47 L 517.968 700.652 L 518.799 700.825 L 519.63 700.99 L 520.46 701.147 L 521.291 701.295 L 522.122 701.434 L 522.953 701.565 L 523.784 701.688 L 524.615 701.801 L 525.445 701.907 L 526.276 702.003 L 527.107 702.091 L 527.938 702.171 L 528.769 702.242 L 529.6 702.304 L 530.43 702.358 L 531.261 702.403 L 532.092 702.439 L 532.923 702.467 L 533.754 702.487 L 534.585 702.498 L 535.415 702.5 L 536.246 702.493 L 537.077 702.478 L 537.908 702.455 L 538.739 702.423 L 539.57 702.382 L 540.4 702.332 L 541.231 702.274 L 542.062 702.208 L 542.893 702.133 L 543.724 702.049 L 544.555 701.957 L 545.385 701.856 L 546.216 701.746 L 547.047 701.628 L 547.878 701.502 L 548.709 701.367 L 549.54 701.223 L 550.37 701.071 L 551.201 700.91 L 552.032 700.741 L 552.863 700.563 L 553.694 700.377 L 554.525 700.182 L 555.355 699.978 L 556.186 699.767 L 557.017 699.546 L 557.848 699.317 L 558.679 699.08 L 559.51 698.834 L 560.34 698.58 L 561.171 698.318 L 562.002 698.047 L 562.833 697.767 L 563.664 697.479 L 564.494 697.183 L 565.325 696.878 L 566.156 696.565 L 566.987 696.244 L 567.818 695.914 L 568.649 695.576 L 569.479 695.23 L 570.31 694.875 L 571.141 694.512 L 571.972 694.141 L 572.803 693.761 L 573.634 693.373 L 574.464 692.977 L 575.295 692.573 L 576.126 692.16 L 576.957 691.74 L 577.788 691.311 L 578.619 690.874 L 579.449 690.429 L 580.28 689.976 L 581.111 689.514 L 581.942 689.045 L 582.773 688.568 L 583.604 688.082 L 584.434 687.589 L 585.265 687.087 L 586.096 686.578 L 586.927 686.06 L 587.758 685.535 L 588.589 685.001 L 589.419 684.46 L 590.25 683.911 L 591.081 683.354 L 591.912 682.789 L 592.743 682.216 L 593.574 681.636 L 594.404 681.048 L 595.235 680.452 L 596.066 679.848 L 596.897 679.237 L 597.728 678.618 L 598.559 677.991 L 599.389 677.356 L 600.22 676.715 L 601.051 676.065 L 601.882 675.408 L 602.713 674.743 L 603.544 674.071 L 604.374 673.392 L 605.205 672.705 L 606.036 672.01 L 606.867 671.308 L 607.698 670.599 L 608.529 669.883 L 609.359 669.159 L 610.19 668.428 L 611.021 667.689 L 611.852 666.944 L 612.683 666.191 L 613.514 665.431 L 614.344 664.664 L 615.175 663.89 L 616.006 663.109 L 616.837 662.321 L 617.668 661.525 L 618.498 660.723 L 619.329 659.914 L 620.16 659.098 L 620.991 658.275 L 621.822 657.445 L 622.653 656.608 L 623.483 655.765 L 624.314 654.915 L 625.145 654.058 L 625.976 653.194 L 626.807 652.324 L 627.638 651.447 L 628.468 650.564 L 629.299 649.674 L 630.13 648.777 L 630.961 647.875 L 631.792 646.965 L 632.623 646.049 L 633.453 645.127 L 634.284 644.199 L 635.115 643.264 L 635.946 642.323 L 636.777 641.376 L 637.608 640.423 L 638.438 639.463 L 639.269 638.497 L 640.1 637.526 L 640.931 636.548 L 641.762 635.564 L 642.593 634.575 L 643.423 633.579 L 644.254 632.578 L 645.085 631.57 L 645.916 630.557 L 646.747 629.538 L 647.578 628.514 L 648.408 627.484 L 649.239 626.448 L 650.07 625.406 L 650.901 624.359 L 651.732 623.307 L 652.563 622.249 L 653.393 621.186 L 654.224 620.117 L 655.055 619.043 L 655.886 617.963 L 656.717 616.879 L 657.548 615.789 L 658.378 614.694 L 659.209 613.594 L 660.04 612.488 L 660.871 611.378 L 661.702 610.263 L 662.533 609.143 L 663.363 608.017 L 664.194 606.888 L 665.025 605.753 L 665.856 604.613 L 666.687 603.469 L 667.518 602.32 L 668.348 601.166 L 669.179 600.008 L 670.01 598.845 L 670.841 597.678 L 671.672 596.506 L 672.503 595.33 L 673.333 594.15 L 674.164 592.965 L 674.995 591.776 L 675.826 590.583 L 676.657 589.385 L 677.487 588.184 L 678.318 586.978 L 679.149 585.768 L 679.98 584.555 L 680.811 583.337 L 681.642 582.116 L 682.472 580.89 L 683.303 579.661 L 684.134 578.428 L 684.965 577.192 L 685.796 575.952 L 686.627 574.708 L 687.457 573.461 L 688.288 572.21 L 689.119 570.955 L 689.95 569.698 L 690.781 568.437 L 691.612 567.173 L 692.442 565.905 L 693.273 564.634 L 694.104 563.36 L 694.935 562.083 L 695.766 560.803 L 696.597 559.52 L 697.427 558.234 L 698.258 556.945 L 699.089 555.654 L 699.92 554.359 L 700.751 553.062 L 701.582 551.762 L 702.412 550.459 L 703.243 549.154 L 704.074 547.847 L 704.905 546.536 L 705.736 545.224 L 706.567 543.909 L 707.397 542.591 L 708.228 541.272 L 709.059 539.95 L 709.89 538.626 L 710.721 537.3 L 711.552 535.972 L 712.382 534.642 L 713.213 533.309 L 714.044 531.975 L 714.875 530.639 L 715.706 529.302 L 716.537 527.962 L 717.367 526.621 L 718.198 525.278 L 719.029 523.934 L 719.86 522.588 L 720.691 521.241 L 721.522 519.892 L 722.352 518.541 L 723.183 517.19 L 724.014 515.837 L 724.845 514.483 L 725.676 513.128 L 726.507 511.771 L 727.337 510.414 L 728.168 509.056 L 728.999 507.696 L 729.83 506.336 L 730.661 504.975 L 731.491 503.613 L 732.322 502.25 L 733.153 500.887 L 733.984 499.523 L 734.815 498.159 L 735.646 496.794 L 736.476 495.428 L 737.307 494.062 L 738.138 492.696 L 738.969 491.33 L 739.8 489.963 L 740.631 488.596 L 741.461 487.229 L 742.292 485.861 L 743.123 484.494 L 743.954 483.127 L 744.785 481.76 L 745.616 480.393 L 746.446 479.026 L 747.277 477.659 L 748.108 476.293 L 748.939 474.927 L 749.77 473.561 L 750.601 472.196 L 751.431 470.832 L 752.262 469.467 L 753.093 468.104 L 753.924 466.741 L 754.755 465.379 L 755.586 464.018 L 756.416 462.657 L 757.247 461.298 L 758.078 459.939 L 758.909 458.581 L 759.74 457.225 L 760.571 455.869 L 761.401 454.515 L 762.232 453.162 L 763.063 451.81 L 763.894 450.459 L 764.725 449.11 L 765.556 447.762 L 766.386 446.416 L 767.217 445.071 L 768.048 443.728 L 768.879 442.386 L 769.71 441.046 L 770.541 439.708 L 771.371 438.372 L 772.202 437.037 L 773.033 435.705 L 773.864 434.374 L 774.695 433.045 L 775.526 431.719 L 776.356 430.394 L 777.187 429.072 L 778.018 427.751 L 778.849 426.434 L 779.68 425.118 L 780.511 423.805 L 781.341 422.494 L 782.172 421.186 L 783.003 419.88 L 783.834 418.576 L 784.665 417.276 L 785.495 415.978 L 786.326 414.683 L 787.157 413.39 L 787.988 412.101 L 788.819 410.814 L 789.65 409.53 L 790.48 408.249 L 791.311 406.971 L 792.142 405.697 L 792.973 404.425 L 793.804 403.157 L 794.635 401.892 L 795.465 400.63 L 796.296 399.371 L 797.127 398.116 L 797.958 396.864 L 798.789 395.616 L 799.62 394.371 L 800.45 393.13 L 801.281 391.893 L 802.112 390.659 L 802.943 389.429 L 803.774 388.203 L 804.605 386.98 L 805.435 385.762 L 806.266 384.547 L 807.097 383.336 L 807.928 382.13 L 808.759 380.927 L 809.59 379.728 L 810.42 378.534 L 811.251 377.344 L 812.082 376.158 L 812.913 374.976 L 813.744 373.799 L 814.575 372.626 L 815.405 371.458 L 816.236 370.294 L 817.067 369.135 L 817.898 367.98 L 818.729 366.83 L 819.56 365.684 L 820.39 364.543 L 821.221 363.407 L 822.052 362.276 L 822.883 361.15 L 823.714 360.028 L 824.545 358.911 L 825.375 357.8 L 826.206 356.693 L 827.037 355.592 L 827.868 354.496 L 828.699 353.404 L 829.53 352.318 L 830.36 351.238 L 831.191 350.162 L 832.022 349.092 L 832.853 348.027 L 833.684 346.968 L 834.515 345.914 L 835.345 344.865 L 836.176 343.823 L 837.007 342.785 L 837.838 341.754 L 838.669 340.728 L 839.499 339.707 L 840.33 338.693 L 841.161 337.684 L 841.992 336.681 L 842.823 335.684 L 843.654 334.693 L 844.484 333.707 L 845.315 332.728 L 846.146 331.755 L 846.977 330.788 L 847.808 329.826 L 848.639 328.871 L 849.469 327.923 L 850.3 326.98 L 851.131 326.044 L 851.962 325.114 L 852.793 324.19 L 853.624 323.272 L 854.454 322.361 L 855.285 321.457 L 856.116 320.559 L 856.947 319.667 L 857.778 318.782 L 858.609 317.903 L 859.439 317.031 L 860.27 316.166 L 861.101 315.307 L 861.932 314.456 L 862.763 313.61 L 863.594 312.772 L 864.424 311.94 L 865.255 311.116 L 866.086 310.298 L 866.917 309.487 L 867.748 308.683 L 868.579 307.886 L 869.409 307.096 L 870.24 306.312 L 871.071 305.536 L 871.902 304.768 L 872.733 304.006 L 873.564 303.251 L 874.394 302.504 L 875.225 301.764 L 876.056 301.031 L 876.887 300.305 L 877.718 299.586 L 878.549 298.875 L 879.379 298.172 L 880.21 297.475 L 881.041 296.786 L 881.872 296.105 L 882.703 295.431 L 883.534 294.764 L 884.364 294.105 L 885.195 293.454 L 886.026 292.81 L 886.857 292.173 L 887.688 291.545 L 888.519 290.924 L 889.349 290.31 L 890.18 289.705 L 891.011 289.107 L 891.842 288.516 L 892.673 287.934 L 893.504 287.359 L 894.334 286.792 L 895.165 286.233 L 895.996 285.682 L 896.827 285.139 L 897.658 284.603 L 898.488 284.076 L 899.319 283.556 L 900.15 283.045 L 900.981 282.541 L 901.812 282.045 L 902.643 281.558 L 903.473 281.078 L 904.304 280.607 L 905.135 280.143 L 905.966 279.688 L 906.797 279.241 L 907.628 278.802 L 908.458 278.371 L 909.289 277.948 L 910.12 277.534 L 910.951 277.127 L 911.782 276.729 L 912.613 276.339 L 913.443 275.957 L 914.274 275.584 L 915.105 275.219 L 915.936 274.862 L 916.767 274.513 L 917.598 274.173 L 918.428 273.841 L 919.259 273.518 L 920.09 273.202 L 920.921 272.896 L 921.752 272.597 L 922.583 272.307 L 923.413 272.025 L 924.244 271.752 L 925.075 271.487 L 925.906 271.231 L 926.737 270.983 L 927.568 270.743 L 928.398 270.512 L 929.229 270.29 L 930.06 270.076 L 930.891 269.87 L 931.722 269.673 L 932.553 269.485 L 933.383 269.305 L 934.214 269.133 L 935.045 268.97 L 935.876 268.816 L 936.707 268.67 L 937.538 268.533 L 938.368 268.404 L 939.199 268.284 L 940.03 268.172 L 940.861 268.069 L 941.692 267.974 L 942.523 267.888 L 943.353 267.811 L 944.184 267.742 L 945.015 267.682 L 945.846 267.63 L 946.677 267.587 L 947.508 267.553 L 948.338 267.527 L 949.169 267.51 L 950 267.501" stroke-width="3" stroke-dasharray="" stroke="black" stroke-opacity="1" fill="none" />
</g>
<g id="Scatter_2" clip-path="url(#Scatter_2_clip)">
    <path d="M 120 593.75 L 120.831 593.75 L 121.662 593.75 L 122.492 593.75 L 123.323 593.75 L 124.154 593.75 L 124.985 593.75 L 125.816 593.75 L 126.647 593.75 L 127.477 593.75 L 128.308 593.75 L 129.139 593.75 L 129.97 593.75 L 130.801 593.75 L 131.632 593.75 L 132.462 593.75 L 133.293 593.75 L 134.124 593.75 L 134.955 593.75 L 135.786 593.75 L 136.617 593.75 L 137.447 593.75 L 138.278 593.75 L 139.109 593.75 L 139.94 593.75 L 140.771 593.75 L 141.602 593.75 L 142.432 593.75 L 143.263 593.75 L 144.094 593.75 L 144.925 593.75 L 145.756 593.75 L 146.587 593.75 L 147.417 593.75 L 148.248 593.75 L 149.079 593.75 L 149.91 593.75 L 150.741 593.75 L 151.572 593.75 L 152.402 593.75 L 153.233 593.75 L 154.064 593.75 L 154.895 593.75 L 155.726 593.75 L 156.557 593.75 L 157.387 593.75 L 158.218 593.75 L 159.049 593.75 L 159.88 593.75 L 160.711 593.75 L 161.542 593.75 L 162.372 593.75 L 163.203 593.75 L 164.034 593.75 L 164.865 593.75 L 165.696 593.75 L 166.527 593.75 L 167.357 593.75 L 168.188 593.75 L 169.019 593.75 L 169.85 593.75 L 170.681 593.75 L 171.512 593.75 L 172.342 593.75 L 173.173 593.75 L 174.004 593.75 L 174.835 593.75 L 175.666 593.75 L 176.496 593.75 L 177.327 593.75 L 178.158 593.75 L 178.989 593.75 L 179.82 593.75 L 180.651 593.75 L 181.481 593.75 L 182.312 593.75 L 183.143 593.75 L 183.974 593.75 L 184.805 593.75 L 185.636 593.75 L 186.466 593.75 L 187.297 593.75 L 188.128 593.75 L 188.959 593.75 L 189.79 593.75 L 190.621 593.75 L 191.451 593.75 L 192.282 593.75 L 193.113 593.75 L 193.944 593.75 L 194.775 593.75 L 195.606 593.75 L 196.436 593.75 L 197.267 593.75 L 198.098 593.75 L 198.929 593.75 L 199.76 593.75 L 200.591 593.75 L 201.421 593.75 L 202.252 593.75 L 203.083 593.75 L 203.914 593.75 L 204.745 593.75 L 205.576 593.75 L 206.406 593.75 L 207.237 593.75 L 208.068 593.75 L 208.899 593.75 L 209.73 593.75 L 210.561 593.75 L 211.391 593.75 L 212.222 593.75 L 213.053 593.75 L 213.884 593.75 L 214.715 593.75 L 215.546 593.75 L 216.376 593.75 L 217.207 593.75 L 218.038 593.75 L 218.869 593.75 L 219.7 593.75 L 220.531 593.75 L 221.361 593.75 L 222.192 593.75 L 223.023 593.75 L 223.854 593.75 L 224.685 593.75 L 225.516 593.75 L 226.346 593.75 L 227.177 593.75 L 228.008 593.75 L 228.839 593.75 L 229.67 593.75 L 230.501 593.75 L 231.331 593.75 L 232.162 593.75 L 232.993 593.75 L 233.824 593.75 L 234.655 593.75 L 235.485 593.75 L 236.316 593.75 L 237.147 593.75 L 237.978 593.75 L 238.809 593.75 L 239.64 593.75 L 240.47 593.75 L 241.301 593.75 L 242.132 593.75 L 242.963 593.75 L 243.794 593.75 L 244.625 593.75 L 245.455 593.75 L 246.286 593.75 L 247.117 593.75 L 247.948 593.75 L 248.779 593.75 L 249.61 593.75 L 250.44 593.75 L 251.271 593.75 L 252.102 593.75 L 252.933 376.25 L 253.764 376.25 L 254.595 376.25 L 255.425 376.25 L 256.256 376.25 L 257.087 376.25 L 257.918 376.25 L 258.749 376.25 L 259.58 376.25 L 260.41 376.25 L 261.241 376.25 L 262.072 376.25 L 262.903 376.25 L 263.734 376.25 L 264.565 376.25 L 265.395 376.25 L 266.226 376.25 L 267.057 376.25 L 267.888 376.25 L 268.719 376.25 L 269.55 376.25 L 270.38 376.25 L 271.211 376.25 L 272.042 376.25 L 272.873 376.25 L 273.704 376.25 L 274.535 376.25 L 275.365 376.25 L 276.196 376.25 L 277.027 376.25 L 277.858 376.25 L 278.689 376.25 L 279.52 376.25 L 280.35 376.25 L 281.181 376.25 L 282.012 376.25 L 282.843 376.25 L 283.674 376.25 L 284.505 376.25 L 285.335 376.25 L 286.166 376.25 L 286.997 376.25 L 287.828 376.25 L 288.659 376.25 L 289.489 376.25 L 290.32 376.25 L 291.151 376.25 L 291.982 376.25 L 292.813 376.25 L 293.644 376.25 L 294.474 376.25 L 295.305 376.25 L 296.136 376.25 L 296.967 376.25 L 297.798 376.25 L 298.629 376.25 L 299.459 376.25 L 300.29 376.25 L 301.121 376.25 L 301.952 376.25 L 302.783 376.25 L 303.614 376.25 L 304.444 376.25 L 305.275 376.25 L 306.106 376.25 L 306.937 376.25 L 307.768 376.25 L 308.599 376.25 L 309.429 376.25 L 310.26 376.25 L 311.091 376.25 L 311.922 376.25 L 312.753 376.25 L 313.584 376.25 L 314.414 376.25 L 315.245 376.25 L 316.076 376.25 L 316.907 376.25 L 317.738 376.25 L 318.569 376.25 L 319.399 376.25 L 320.23 376.25 L 321.061 376.25 L 321.892 376.25 L 322.723 376.25 L 323.554 376.25 L 324.384 376.25 L 325.215 376.25 L 326.046 376.25 L 326.877 376.25 L 327.708 376.25 L 328.539 376.25 L 329.369 376.25 L 330.2 376.25 L 331.031 376.25 L 331.862 376.25 L 332.693 376.25 L 333.524 376.25 L 334.354 376.25 L 335.185 376.25 L 336.016 376.25 L 336.847 376.25 L 337.678 376.25 L 338.509 376.25 L 339.339 376.25 L 340.17 376.25 L 341.001 376.25 L 341.832 376.25 L 342.663 376.25 L 343.493 376.25 L 344.324 376.25 L 345.155 376.25 L 345.986 376.25 L 346.817 376.25 L 347.648 376.25 L 348.478 376.25 L 349.309 376.25 L 350.14 376.25 L 350.971 376.25 L 351.802 376.25 L 352.633 376.25 L 353.463 376.25 L 354.294 376.25 L 355.125 376.25 L 355.956 376.25 L 356.787 376.25 L 357.618 376.25 L 358.448 376.25 L 359.279 376.25 L 360.11 376.25 L 360.941 376.25 L 361.772 376.25 L 362.603 376.25 L 363.433 376.25 L 364.264 376.25 L 365.095 376.25 L 365.926 376.25 L 366.757 376.25 L 367.588 376.25 L 368.418 376.25 L 369.249 376.25 L 370.08 376.25 L 370.911 376.25 L 371.742 376.25 L 372.573 376.25 L 373.403 376.25 L 374.234 376.25 L 375.065 376.25 L 375.896 376.25 L 376.727 376.25 L 377.558 376.25 L 378.388 376.25 L 379.219 376.25 L 380.05 376.25 L 380.881 376.25 L 381.712 376.25 L 382.543 376.25 L 383.373 376.25 L 384.204 376.25 L 385.035 593.75 L 385.866 593.75 L 386.697 593.75 L 387.528 593.75 L 388.358 593.75 L 389.189 593.75 L 390.02 593.75 L 390.851 593.75 L 391.682 593.75 L 392.513 593.75 L 393.343 593.75 L 394.174 593.75 L 395.005 593.75 L 395.836 593.75 L 396.667 593.75 L 397.497 593.75 L 398.328 593.75 L 399.159 593.75 L 399.99 593.75 L 400.821 593.75 L 401.652 593.75 L 402.482 593.75 L 403.313 593.75 L 404.144 593.75 L 404.975 593.75 L 405.806 593.75 L 406.637 593.75 L 407.467 593.75 L 408.298 593.75 L 409.129 593.75 L 409.96 593.75 L 410.791 593.75 L 411.622 593.75 L 412.452 593.75 L 413.283 593.75 L 414.114 593.75 L 414.945 593.75 L 415.776 593.75 L 416.607 593.75 L 417.437 593.75 L 418.268 593.75 L 419.099 593.75 L 419.93 593.75 L 420.761 593.75 L 421.592 593.75 L 422.422 593.75 L 423.253 593.75 L 424.084 593.75 L 424.915 593.75 L 425.746 593.75 L 426.577 593.75 L 427.407 593.75 L 428.238 593.75 L 429.069 593.75 L 429.9 593.75 L 430.731 593.75 L 431.562 593.75 L 432.392 593.75 L 433.223 593.75 L 434.054 593.75 L 434.885 593.75 L 435.716 593.75 L 436.547 593.75 L 437.377 593.75 L 438.208 593.75 L 439.039 593.75 L 439.87 593.75 L 440.701 593.75 L 441.532 593.75 L 442.362 593.75 L 443.193 593.75 L 444.024 593.75 L 444.855 593.75 L 445.686 593.75 L 446.517 593.75 L 447.347 593.75 L 448.178 593.75 L 449.009 593.75 L 449.84 593.75 L 450.671 593.75 L 451.502 593.75 L 452.332 593.75 L 453.163 593.75 L 453.994 593.75 L 454.825 593.75 L 455.656 593.75 L 456.486 593.75 L 457.317 593.75 L 458.148 593.75 L 458.979 593.75 L 459.81 593.75 L 460.641 593.75 L 461.471 593.75 L 462.302 593.75 L 463.133 593.75 L 463.964 593.75 L 464.795 593.75 L 465.626 593.75 L 466.456 593.75 L 467.287 593.75 L 468.118 593.75 L 468.949 593.75 L 469.78 593.75 L 470.611 593.75 L 471.441 593.75 L 472.272 593.75 L 473.103 593.75 L 473.934 593.75 L 474.765 593.75 L 475.596 593.75 L 476.426 593.75 L 477.257 593.75 L 478.088 593.75 L 478.919 593.75 L 479.75 593.75 L 480.581 593.75 L 481.411 593.75 L 482.242 593.75 L 483.073 593.75 L 483.904 593.75 L 484.735 593.75 L 485.566 593.75 L 486.396 593.75 L 487.227 593.75 L 488.058 593.75 L 488.889 593.75 L 489.72 593.75 L 490.551 593.75 L 491.381 593.75 L 492.212 593.75 L 493.043 593.75 L 493.874 593.75 L 494.705 593.75 L 495.536 593.75 L 496.366 593.75 L 497.197 593.75 L 498.028 593.75 L 498.859 593.75 L 499.69 593.75 L 500.521 593.75 L 501.351 593.75 L 502.182 593.75 L 503.013 593.75 L 503.844 593.75 L 504.675 593.75 L 505.506 593.75 L 506.336 593.75 L 507.167 593.75 L 507.998 593.75 L 508.829 593.75 L 509.66 593.75 L 510.49 593.75 L 511.321 593.75 L 512.152 593.75 L 512.983 593.75 L 513.814 593.75 L 514.645 593.75 L 515.475 593.75 L 516.306 593.75 L 517.137 376.25 L 517.968 376.25 L 518.799 376.25 L 519.63 376.25 L 520.46 376.25 L 521.291 376.25 L 522.122 376.25 L 522.953 376.25 L 523.784 376.25 L 524.615 376.25 L 525.445 376.25 L 526.276 376.25 L 527.107 376.25 L 527.938 376.25 L 528.769 376.25 L 529.6 376.25 L 530.43 376.25 L 531.261 376.25 L 532.092 376.25 L 532.923 376.25 L 533.754 376.25 L 534.585 376.25 L 535.415 376.25 L 536.246 376.25 L 537.077 376.25 L 537.908 376.25 L 538.739 376.25 L 539.57 376.25 L 540.4 376.25 L 541.231 376.25 L 542.062 376.25 L 542.893 376.25 L 543.724 376.25 L 544.555 376.25 L 545.385 376.25 L 546.216 376.25 L 547.047 376.25 L 547.878 376.25 L 548.709 376.25 L 549.54 376.25 L 550.37 376.25 L 551.201 376.25 L 552.032 376.25 L 552.863 376.25 L 553.694 376.25 L 554.525 376.25 L 555.355 376.25 L 556.186 376.25 L 557.017 376.25 L 557.848 376.25 L 558.679 376.25 L 559.51 376.25 L 560.34 376.25 L 561.171 376.25 L 562.002 376.25 L 562.833 376.25 L 563.664 376.25 L 564.494 376.25 L 565.325 376.25 L 566.156 376.25 L 566.987 376.25 L 567.818 376.25 L 568.649 376.25 L 569.479 376.25 L 570.31 376.25 L 571.141 376.25 L 571.972 376.25 L 572.803 376.25 L 573.634 376.25 L 574.464 376.25 L 575.295 376.25 L 576.126 376.25 L 576.957 376.25 L 577.788 376.25 L 578.619 376.25 L 579.449 376.25 L 580.28 376.25 L 581.111 376.25 L 581.942 376.25 L 582.773 376.25 L 583.604 376.25 L 584.434 376.25 L 585.265 376.25 L 586.096 376.25 L 586.927 376.25 L 587.758 376.25 L 588.589 376.25 L 589.419 376.25 L 590.25 376.25 L 591.081 376.25 L 591.912 376.25 L 592.743 376.25 L 593.574 376.25 L 594.404 376.25 L 595.235 376.25 L 596.066 376.25 L 596.897 376.25 L 597.728 376.25 L 598.559 376.25 L 599.389 376.25 L 600.22 376.25 L 601.051 376.25 L 601.882 376.25 L 602.713 376.25 L 603.544 376.25 L 604.374 376.25 L 605.205 376.25 L 606.036 376.25 L 606.867 376.25 L 607.698 376.25 L 608.529 376.25 L 609.359 376.25 L 610.19 376.25 L 611.021 376.25 L 611.852 376.25 L 612.683 376.25 L 613.514 376.25 L 614.344 376.25 L 615.175 376.25 L 616.006 376.25 L 616.837 376.25 L 617.668 376.25 L 618.498 376.25 L 619.329 376.25 L 620.16 376.25 L 620.991 376.25 L 621.822 376.25 L 622.653 376.25 L 623.483 376.25 L 624.314 376.25 L 625.145 376.25 L 625.976 376.25 L 626.807 376.25 L 627.638 376.25 L 628.468 376.25 L 629.299 376.25 L 630.13 376.25 L 630.961 376.25 L 631.792 376.25 L 632.623 376.25 L 633.453 376.25 L 634.284 376.25 L 635.115 376.25 L 635.946 376.25 L 636.777 376.25 L 637.608 376.25 L 638.438 376.25 L 639.269 376.25 L 640.1 376.25 L 640.931 376.25 L 641.762 376.25 L 642.593 376.25 L 643.423 376.25 L 644.254 376.25 L 645.085 376.25 L 645.916 376.25 L 646.747 376.25 L 647.578 376.25 L 648.408 376.25 L 649.239 593.75 L 650.07 593.75 L 650.901 593.75 L 651.732 593.75 L 652.563 593.75 L 653.393 593.75 L 654.224 593.75 L 655.055 593.75 L 655.886 593.75 L 656.717 593.75 L 657.548 593.75 L 658.378 593.75 L 659.209 593.75 L 660.04 593.75 L 660.871 593.75 L 661.702 593.75 L 662.533 593.75 L 663.363 593.75 L 664.194 593.75 L 665.025 593.75 L 665.856 593.75 L 666.687 593.75 L 667.518 593.75 L 668.348 593.75 L 669.179 593.75 L 670.01 593.75 L 670.841 593.75 L 671.672 593.75 L 672.503 593.75 L 673.333 593.75 L 674.164 593.75 L 674.995 593.75 L 675.826 593.75 L 676.657 593.75 L 677.487 593.75 L 678.318 593.75 L 679.149 593.75 L 679.98 593.75 L 680.811 593.75 L 681.642 593.75 L 682.472 593.75 L 683.303 593.75 L 684.134 593.75 L 684.965 593.75 L 685.796 593.75 L 686.627 593.75 L 687.457 593.75 L 688.288 593.75 L 689.119 593.75 L 689.95 593.75 L 690.781 593.75 L 691.612 593.75 L 692.442 593.75 L 693.273 593.75 L 694.104 593.75 L 694.935 593.75 L 695.766 593.75 L 696.597 593.75 L 697.427 593.75 L 698.258 593.75 L 699.089 593.75 L 699.92 593.75 L 700.751 593.75 L 701.582 593.75 L 702.412 593.75 L 703.243 593.75 L 704.074 593.75 L 704.905 593.75 L 705.736 593.75 L 706.567 593.75 L 707.397 593.75 L 708.228 593.75 L 709.059 593.75 L 709.89 593.75 L 710.721 593.75 L 711.552 593.75 L 712.382 593.75 L 713.213 593.75 L 714.044 593.75 L 714.875 593.75 L 715.706 593.75 L 716.537 593.75 L 717.367 593.75 L 718.198 593.75 L 719.029 593.75 L 719.86 593.75 L 720.691 593.75 L 721.522 593.75 L 722.352 593.75 L 723.183 593.75 L 724.014 593.75 L 724.845 593.75 L 725.676 593.75 L 726.507 593.75 L 727.337 593.75 L 728.168 593.75 L 728.999 593.75 L 729.83 593.75 L 730.661 593.75 L 731.491 593.75 L 732.322 593.75 L 733.153 593.75 L 733.984 593.75 L 734.815 593.75 L 735.646 593.75 L 736.476 593.75 L 737.307 593.75 L 738.138 593.75 L 738.969 593.75 L 739.8 593.75 L 740.631 593.75 L 741.461 593.75 L 742.292 593.75 L 743.123 593.75 L 743.954 593.75 L 744.785 593.75 L 745.616 593.75 L 746.446 593.75 L 747.277 593.75 L 748.108 593.75 L 748.939 593.75 L 749.77 593.75 L 750.601 593.75 L 751.431 593.75 L 752.262 593.75 L 753.093 593.75 L 753.924 593.75 L 754.755 593.75 L 755.586 593.75 L 756.416 593.75 L 757.247 593.75 L 758.078 593.75 L 758.909 593.75 L 759.74 593.75 L 760.571 593.75 L 761.401 593.75 L 762.232 593.75 L 763.063 593.75 L 763.894 593.75 L 764.725 593.75 L 765.556 593.75 L 766.386 593.75 L 767.217 593.75 L 768.048 593.75 L 768.879 593.75 L 769.71 593.75 L 770.541 593.75 L 771.371 593.75 L 772.202 593.75 L 773.033 593.75 L 773.864 593.75 L 774.695 593.75 L 775.526 593.75 L 776.356 593.75 L 777.187 593.75 L 778.018 593.75 L 778.849 593.75 L 779.68 593.75 L 780.511 593.75 L 781.341 376.25 L 782.172 376.25 L 783.003 376.25 L 783.834 376.25 L 784.665 376.25 L 785.495 376.25 L 786.326 376.25 L 787.157 376.25 L 787.988 376.25 L 788.819 376.25 L 789.65 376.25 L 790.48 376.25 L 791.311 376.25 L 792.142 376.25 L 792.973 376.25 L 793.804 376.25 L 794.635 376.25 L 795.465 376.25 L 796.296 376.25 L 797.127 376.25 L 797.958 376.25 L 798.789 376.25 L 799.62 376.25 L 800.45 376.25 L 801.281 376.25 L 802.112 376.25 L 802.943 376.25 L 803.774 376.25 L 804.605 376.25 L 805.435 376.25 L 806.266 376.25 L 807.097 376.25 L 807.928 376.25 L 808.759 376.25 L 809.59 376.25 L 810.42 376.25 L 811.251 376.25 L 812.082 376.25 L 812.913 376.25 L 813.744 376.25 L 814.575 376.25 L 815.405 376.25 L 816.236 376.25 L 817.067 376.25 L 817.898 376.25 L 818.729 376.25 L 819.56 376.25 L 820.39 376.25 L 821.221 376.25 L 822.052 376.25 L 822.883 376.25 L 823.714 376.25 L 824.545 376.25 L 825.375 376.25 L 826.206 376.25 L 827.037 376.25 L 827.868 376.25 L 828.699 376.25 L 829.53 376.25 L 830.36 376.25 L 831.191 376.25 L 832.022 376.25 L 832.853 376.25 L 833.684 376.25 L 834.515 376.25 L 835.345 376.25 L 836.176 376.25 L 837.007 376.25 L 837.838 376.25 L 838.669 376.25 L 839.499 376.25 L 840.33 376.25 L 841.161 376.25 L 841.992 376.25 L 842.823 376.25 L 843.654 376.25 L 844.484 376.25 L 845.315 376.25 L 846.146 376.25 L 846.977 376.25 L 847.808 376.25 L 848.639 376.25 L 849.469 376.25 L 850.3 376.25 L 851.131 376.25 L 851.962 376.25 L 852.793 376.25 L 853.624 376.25 L 854.454 376.25 L 855.285 376.25 L 856.116 376.25 L 856.947 376.25 L 857.778 376.25 L 858.609 376.25 L 859.439 376.25 L 860.27 376.25 L 861.101 376.25 L 861.932 376.25 L 862.763 376.25 L 863.594 376.25 L 864.424 376.25 L 865.255 376.25 L 866.086 376.25 L 866.917 376.25 L 867.748 376.25 L 868.579 376.25 L 869.409 376.25 L 870.24 376.25 L 871.071 376.25 L 871.902 376.25 L 872.733 376.25 L 873.564 376.25 L 874.394 376.25 L 875.225 376.25 L 876.056 376.25 L 876.887 376.25 L 877.718 376.25 L 878.549 376.25 L 879.379 376.25 L 880.21 376.25 L 881.041 376.25 L 881.872 376.25 L 882.703 376.25 L 883.534 376.25 L 884.364 376.25 L 885.195 376.25 L 886.026 376.25 L 886.857 376.25 L 887.688 376.25 L 888.519 376.25 L 889.349 376.25 L 890.18 376.25 L 891.011 376.25 L 891.842 376.25 L 892.673 376.25 L 893.504 376.25 L 894.334 376.25 L 895.165 376.25 L 895.996 376.25 L 896.827 376.25 L 897.658 376.25 L 898.488 376.25 L 899.319 376.25 L 900.15 376.25 L 900.981 376.25 L 901.812 376.25 L 902.643 376.25 L 903.473 376.25 L 904.304 376.25 L 905.135 376.25 L 905.966 376.25 L 906.797 376.25 L 907.628 376.25 L 908.458 376.25 L 909.289 376.25 L 910.12 376.25 L 910.951 376.25 L 911.782 376.25 L 912.613 376.25 L 913.443 593.75 L 914.274 593.75 L 915.105 593.75 L 915.936 593.75 L 916.767 593.75 L 917.598 593.75 L 918.428 593.75 L 919.259 593.75 L 920.09 593.75 L 920.921 593.75 L 921.752 593.75 L 922.583 593.75 L 923.413 593.75 L 924.244 593.75 L 925.075 593.75 L 925.906 593.75 L 926.737 593.75 L 927.568 593.75 L 928.398 593.75 L 929.229 593.75 L 930.06 593.75 L 930.891 593.75 L 931.722 593.75 L 932.553 593.75 L 933.383 593.75 L 934.214 593.75 L 935.045 593.75 L 935.876 593.75 L 936.707 593.75 L 937.538 593.75 L 938.368 593.75 L 939.199 593.75 L 940.03 593.75 L 940.861 593.75 L 941.692 593.75 L 942.523 593.75 L 943.353 593.75 L 944.184 593.75 L 945.015 593.75 L 945.846 593.75 L 946.677 593.75 L 947.508 593.75 L 948.338 593.75 L 949.169 593.75 L 950 593.75" stroke-width="3" stroke-dasharray="" stroke="black" stroke-opacity="1" fill="none" />
</g>
<g id="frame_0">
    <rect id="frame_0_border" x="120" y="50" width="830" height="870" />
    <g id="frame_0_bottomticks">
        <path d="M 186.083 920 L 186.083 910" />
        <path d="M 318.248 920 L 318.248 910" />
        <path d="M 384.331 920 L 384.331 900" />
        <text font-size="30" transform="translate(384.331, 950)" text-anchor="middle" dominant-baseline="middle" stroke="none" fill="black">2</text>
        <path d="M 516.497 920 L 516.497 900" />
        <text font-size="30" transform="translate(516.497, 950)" text-anchor="middle" dominant-baseline="middle" stroke="none" fill="black">3</text>
        <path d="M 199.299 920 L 199.299 910" />
        <path d="M 780.828 920 L 780.828 900" />
        <text font-size="30" transform="translate(780.828, 950)" text-anchor="middle" dominant-baseline="middle" stroke="none" fill="black">5</text>
        <path d="M 714.745 920 L 714.745 910" />
        <path d="M 252.166 920 L 252.166 900" />
        <text font-size="30" transform="translate(252.166, 950)" text-anchor="middle" dominant-baseline="middle" stroke="none" fill="black">1</text>
        <path d="M 357.898 920 L 357.898 910" />
        <path d="M 609.013 920 L 609.013 910" />
        <path d="M 873.344 920 L 873.344 910" />
        <path d="M 688.312 920 L 688.312 910" />
        <path d="M 410.764 920 L 410.764 910" />
        <path d="M 159.65 920 L 159.65 910" />
        <path d="M 305.032 920 L 305.032 910" />
        <path d="M 225.732 920 L 225.732 910" />
        <path d="M 371.115 920 L 371.115 910" />
        <path d="M 727.962 920 L 727.962 910" />
        <path d="M 120 920 L 120 900" />
        <text font-size="30" transform="translate(120, 950)" text-anchor="middle" dominant-baseline="middle" stroke="none" fill="black">0</text>
        <path d="M 212.516 920 L 212.516 910" />
        <path d="M 463.631 920 L 463.631 910" />
        <path d="M 437.197 920 L 437.197 910" />
        <path d="M 912.994 920 L 912.994 900" />
        <text font-size="30" transform="translate(912.994, 950)" text-anchor="middle" dominant-baseline="middle" stroke="none" fill="black">6</text>
        <path d="M 450.414 920 L 450.414 910" />
        <path d="M 767.611 920 L 767.611 910" />
        <path d="M 595.796 920 L 595.796 910" />
        <path d="M 741.178 920 L 741.178 910" />
        <path d="M 886.561 920 L 886.561 910" />
        <path d="M 899.777 920 L 899.777 910" />
        <path d="M 291.815 920 L 291.815 910" />
        <path d="M 503.28 920 L 503.28 910" />
        <path d="M 926.21 920 L 926.21 910" />
        <path d="M 794.045 920 L 794.045 910" />
        <path d="M 807.261 920 L 807.261 910" />
        <path d="M 661.879 920 L 661.879 910" />
        <path d="M 265.382 920 L 265.382 910" />
        <path d="M 939.427 920 L 939.427 910" />
        <path d="M 423.981 920 L 423.981 910" />
        <path d="M 569.363 920 L 569.363 910" />
        <path d="M 582.58 920 L 582.58 910" />
        <path d="M 701.529 920 L 701.529 910" />
        <path d="M 278.599 920 L 278.599 910" />
        <path d="M 344.682 920 L 344.682 910" />
        <path d="M 133.217 920 L 133.217 910" />
        <path d="M 490.064 920 L 490.064 910" />
        <path d="M 635.446 920 L 635.446 910" />
        <path d="M 833.694 920 L 833.694 910" />
        <path d="M 860.127 920 L 860.127 910" />
        <path d="M 238.949 920 L 238.949 910" />
        <path d="M 331.465 920 L 331.465 910" />
        <path d="M 556.146 920 L 556.146 910" />
        <path d="M 172.866 920 L 172.866 910" />
        <path d="M 146.433 920 L 146.433 910" />
        <path d="M 476.847 920 L 476.847 910" />
        <path d="M 622.229 920 L 622.229 910" />
        <path d="M 675.096 920 L 675.096 910" />
        <path d="M 529.713 920 L 529.713 910" />
        <path d="M 754.395 920 L 754.395 910" />
        <path d="M 397.548 920 L 397.548 910" />
        <path d="M 820.478 920 L 820.478 910" />
        <path d="M 542.93 920 L 542.93 910" />
        <path d="M 648.662 920 L 648.662 900" />
        <text font-size="30" transform="translate(648.662, 950)" text-anchor="middle" dominant-baseline="middle" stroke="none" fill="black">4</text>
        <path d="M 846.911 920 L 846.911 910" />
    </g>
    <g id="frame_0_leftticks">
        <path d="M 120 811.25 L 140 811.25" />
        <text font-size="30" transform="translate(110, 821.25)" text-anchor="end" dominant-baseline="middle" stroke="none" fill="black">1.5</text>
        <path d="M 120 593.75 L 140 593.75" />
        <text font-size="30" transform="translate(110, 603.75)" text-anchor="end" dominant-baseline="middle" stroke="none" fill="black">0.5</text>
        <path d="M 120 50 L 140 50" />
        <text font-size="30" transform="translate(110, 60)" text-anchor="end" dominant-baseline="middle" stroke="none" fill="black">2</text>
        <path d="M 120 376.25 L 140 376.25" />
        <text font-size="30" transform="translate(110, 386.25)" text-anchor="end" dominant-baseline="middle" stroke="none" fill="black">0.5</text>
        <path d="M 120 267.5 L 140 267.5" />
        <text font-size="30" transform="translate(110, 277.5)" text-anchor="end" dominant-baseline="middle" stroke="none" fill="black">1</text>
        <path d="M 120 71.75 L 130 71.75" />
        <path d="M 120 680.75 L 130 680.75" />
        <path d="M 120 180.5 L 130 180.5" />
        <path d="M 120 332.75 L 130 332.75" />
        <path d="M 120 528.5 L 130 528.5" />
        <path d="M 120 137 L 130 137" />
        <path d="M 120 659 L 130 659" />
        <path d="M 120 898.25 L 130 898.25" />
        <path d="M 120 485 L 140 485" />
        <text font-size="30" transform="translate(110, 495)" text-anchor="end" dominant-baseline="middle" stroke="none" fill="black">0</text>
        <path d="M 120 202.25 L 130 202.25" />
        <path d="M 120 463.25 L 130 463.25" />
        <path d="M 120 289.25 L 130 289.25" />
        <path d="M 120 854.75 L 130 854.75" />
        <path d="M 120 746 L 130 746" />
        <path d="M 120 550.25 L 130 550.25" />
        <path d="M 120 615.5 L 130 615.5" />
        <path d="M 120 158.75 L 140 158.75" />
        <text font-size="30" transform="translate(110, 168.75)" text-anchor="end" dominant-baseline="middle" stroke="none" fill="black">1.5</text>
        <path d="M 120 224 L 130 224" />
        <path d="M 120 419.75 L 130 419.75" />
        <path d="M 120 354.5 L 130 354.5" />
        <path d="M 120 767.75 L 130 767.75" />
        <path d="M 120 506.75 L 130 506.75" />
        <path d="M 120 876.5 L 130 876.5" />
        <path d="M 120 833 L 130 833" />
        <path d="M 120 115.25 L 130 115.25" />
        <path d="M 120 441.5 L 130 441.5" />
        <path d="M 120 398 L 130 398" />
        <path d="M 120 637.25 L 130 637.25" />
        <path d="M 120 789.5 L 130 789.5" />
        <path d="M 120 702.5 L 140 702.5" />
        <text font-size="30" transform="translate(110, 712.5)" text-anchor="end" dominant-baseline="middle" stroke="none" fill="black">1</text>
        <path d="M 120 93.5 L 130 93.5" />
        <path d="M 120 920 L 140 920" />
        <text font-size="30" transform="translate(110, 930)" text-anchor="end" dominant-baseline="middle" stroke="none" fill="black">2</text>
        <path d="M 120 572 L 130 572" />
        <path d="M 120 311 L 130 311" />
        <path d="M 120 245.75 L 130 245.75" />
        <path d="M 120 724.25 L 130 724.25" />
    </g>
    <g id="frame_0_topticks">
        <path d="M 186.083 50 L 186.083 60" />
        <path d="M 318.248 50 L 318.248 60" />
        <path d="M 384.331 50 L 384.331 70" />
        <path d="M 516.497 50 L 516.497 70" />
        <path d="M 199.299 50 L 199.299 60" />
        <path d="M 780.828 50 L 780.828 70" />
        <path d="M 714.745 50 L 714.745 60" />
        <path d="M 252.166 50 L 252.166 70" />
        <path d="M 357.898 50 L 357.898 60" />
        <path d="M 609.013 50 L 609.013 60" />
        <path d="M 873.344 50 L 873.344 60" />
        <path d="M 688.312 50 L 688.312 60" />
        <path d="M 410.764 50 L 410.764 60" />
        <path d="M 159.65 50 L 159.65 60" />
        <path d="M 305.032 50 L 305.032 60" />
        <path d="M 225.732 50 L 225.732 60" />
        <path d="M 371.115 50 L 371.115 60" />
        <path d="M 727.962 50 L 727.962 60" />
        <path d="M 120 50 L 120 70" />
        <path d="M 212.516 50 L 212.516 60" />
        <path d="M 463.631 50 L 463.631 60" />
        <path d="M 437.197 50 L 437.197 60" />
        <path d="M 912.994 50 L 912.994 70" />
        <path d="M 450.414 50 L 450.414 60" />
        <path d="M 767.611 50 L 767.611 60" />
        <path d="M 595.796 50 L 595.796 60" />
        <path d="M 741.178 50 L 741.178 60" />
        <path d="M 886.561 50 L 886.561 60" />
        <path d="M 899.777 50 L 899.777 60" />
        <path d="M 291.815 50 L 291.815 60" />
        <path d="M 503.28 50 L 503.28 60" />
        <path d="M 926.21 50 L 926.21 60" />
        <path d="M 794.045 50 L 794.045 60" />
        <path d="M 807.261 50 L 807.261 60" />
        <path d="M 661.879 50 L 661.879 60" />
        <path d="M 265.382 50 L 265.382 60" />
        <path d="M 939.427 50 L 939.427 60" />
        <path d="M 423.981 50 L 423.981 60" />
        <path d="M 569.363 50 L 569.363 60" />
        <path d="M 582.58 50 L 582.58 60" />
        <path d="M 701.529 50 L 701.529 60" />
        <path d="M 278.599 50 L 278.599 60" />
        <path d="M 344.682 50 L 344.682 60" />
        <path d="M 133.217 50 L 133.217 60" />
        <path d="M 490.064 50 L 490.064 60" />
        <path d="M 635.446 50 L 635.446 60" />
        <path d="M 833.694 50 L 833.694 60" />
        <path d="M 860.127 50 L 860.127 60" />
        <path d="M 238.949 50 L 238.949 60" />
        <path d="M 331.465 50 L 331.465 60" />
        <path d="M 556.146 50 L 556.146 60" />
        <path d="M 172.866 50 L 172.866 60" />
        <path d="M 146.433 50 L 146.433 60" />
        <path d="M 476.847 50 L 476.847 60" />
        <path d="M 622.229 50 L 622.229 60" />
        <path d="M 675.096 50 L 675.096 60" />
        <path d="M 529.713 50 L 529.713 60" />
        <path d="M 754.395 50 L 754.395 60" />
        <path d="M 397.548 50 L 397.548 60" />
        <path d="M 820.478 50 L 820.478 60" />
        <path d="M 542.93 50 L 542.93 60" />
        <path d="M 648.662 50 L 648.662 70" />
        <path d="M 846.911 50 L 846.911 60" />
    </g>
    <g id="frame_0_rightticks">
        <path d="M 950 811.25 L 930 811.25" />
        <path d="M 950 593.75 L 930 593.75" />
        <path d="M 950 50 L 930 50" />
        <path d="M 950 376.25 L 930 376.25" />
        <path d="M 950 267.5 L 930 267.5" />
        <path d="M 950 71.75 L 940 71.75" />
        <path d="M 950 680.75 L 940 680.75" />
        <path d="M 950 180.5 L 940 180.5" />
        <path d="M 950 332.75 L 940 332.75" />
        <path d="M 950 528.5 L 940 528.5" />
        <path d="M 950 137 L 940 137" />
        <path d="M 950 659 L 940 659" />
        <path d="M 950 898.25 L 940 898.25" />
        <path d="M 950 485 L 930 485" />
        <path d="M 950 202.25 L 940 202.25" />
        <path d="M 950 463.25 L 940 463.25" />
        <path d="M 950 289.25 L 940 289.25" />
        <path d="M 950 854.75 L 940 854.75" />
        <path d="M 950 746 L 940 746" />
        <path d="M 950 550.25 L 940 550.25" />
        <path d="M 950 615.5 L 940 615.5" />
        <path d="M 950 158.75 L 930 158.75" />
        <path d="M 950 224 L 940 224" />
        <path d="M 950 419.75 L 940 419.75" />
        <path d="M 950 354.5 L 940 354.5" />
        <path d="M 950 767.75 L 940 767.75" />
        <path d="M 950 506.75 L 940 506.75" />
        <path d="M 950 876.5 L 940 876.5" />
        <path d="M 950 833 L 940 833" />
        <path d="M 950 115.25 L 940 115.25" />
        <path d="M 950 441.5 L 940 441.5" />
        <path d="M 950 398 L 940 398" />
        <path d="M 950 637.25 L 940 637.25" />
        <path d="M 950 789.5 L 940 789.5" />
        <path d="M 950 702.5 L 930 702.5" />
        <path d="M 950 93.5 L 940 93.5" />
        <path d="M 950 920 L 930 920" />
        <path d="M 950 572 L 940 572" />
        <path d="M 950 311 L 940 311" />
        <path d="M 950 245.75 L 940 245.75" />
        <path d="M 950 724.25 L 940 724.25" />
    </g>
</g>
</g>
</svg>
