<?xml version="1.0" standalone="no"?>
<!DOCTYPE svg PUBLIC "-//W3C//DTD SVG 1.1//EN" "http://www.w3.org/Graphics/SVG/1.1/DTD/svg11.dtd">
<svg style="stroke-linejoin:miter; stroke:black; stroke-width:2.5; text-anchor:middle; fill:none" xmlns="http://www.w3.org/2000/svg" font-family="Helvetica, Arial, FreeSans, Sans, sans, sans-serif" width="1000px" height="1000px" version="1.1" xmlns:xlink="http://www.w3.org/1999/xlink" viewBox="0 0 1000 1000">
<defs>
    <clipPath id="Scatter_0_clip">
        <rect x="120" y="50" width="830" height="870" />
    </clipPath>
    <circle id="Scatter_0_mark" cx="0" cy="0" r="7.5" stroke="none" stroke-opacity="1" fill="black" fill-opacity="1" />
    <clipPath id="Scatter_1_clip">
        <rect x="120" y="50" width="830" height="870" />
    </clipPath>
</defs>
<g id="whole_document">
<rect id="background" x="0" y="0" width="1000" height="1000" stroke="none" fill="white" />
<g id="Scatter_0" clip-path="url(#Scatter_0_clip)">
    <use x="704.572" y="731.559" xlink:href="#Scatter_0_mark" />
    <use x="395.03" y="491.447" xlink:href="#Scatter_0_mark" />
    <use x="421.542" y="192.923" xlink:href="#Scatter_0_mark" />
    <use x="832.081" y="181.35" xlink:href="#Scatter_0_mark" />
    <use x="880.833" y="814.141" xlink:href="#Scatter_0_mark" />
    <use x="402.505" y="362.857" xlink:href="#Scatter_0_mark" />
    <use x="796.145" y="473.346" xlink:href="#Scatter_0_mark" />
    <use x="653.536" y="698.384" xlink:href="#Scatter_0_mark" />
    <use x="255.314" y="722.924" xlink:href="#Scatter_0_mark" />
    <use x="696.382" y="208.125" xlink:href="#Scatter_0_mark" />
    <use x="724.107" y="276.181" xlink:href="#Scatter_0_mark" />
    <use x="485.802" y="847.5" xlink:href="#Scatter_0_mark" />
    <use x="189.167" y="623.62" xlink:href="#Scatter_0_mark" />
    <use x="856.479" y="583.585" xlink:href="#Scatter_0_mark" />
    <use x="218.332" y="793.922" xlink:href="#Scatter_0_mark" />
    <use x="705.924" y="317.956" xlink:href="#Scatter_0_mark" />
    <use x="447.122" y="566.873" xlink:href="#Scatter_0_mark" />
    <use x="660.318" y="122.5" xlink:href="#Scatter_0_mark" />
    <use x="320.234" y="245.094" xlink:href="#Scatter_0_mark" />
    <use x="407.551" y="318.08" xlink:href="#Scatter_0_mark" />
</g>
<g id="Scatter_1" clip-path="url(#Scatter_1_clip)">
    <path d="M 120 442.812 L 120.831 442.234 L 121.662 441.663 L 122.492 441.1 L 123.323 440.544 L 124.154 439.995 L 124.985 439.454 L 125.816 438.921 L 126.647 438.396 L 127.477 437.878 L 128.308 437.368 L 129.139 436.866 L 129.97 436.372 L 130.801 435.886 L 131.632 435.409 L 132.462 434.939 L 133.293 434.477 L 134.124 434.024 L 134.955 433.579 L 135.786 433.143 L 136.617 432.715 L 137.447 432.295 L 138.278 431.884 L 139.109 431.481 L 139.94 431.087 L 140.771 430.702 L 141.602 430.325 L 142.432 429.957 L 143.263 429.598 L 144.094 429.248 L 144.925 428.907 L 145.756 428.574 L 146.587 428.251 L 147.417 427.936 L 148.248 427.631 L 149.079 427.334 L 149.91 427.047 L 150.741 426.769 L 151.572 426.5 L 152.402 426.24 L 153.233 425.989 L 154.064 425.748 L 154.895 425.515 L 155.726 425.293 L 156.557 425.079 L 157.387 424.875 L 158.218 424.68 L 159.049 424.495 L 159.88 424.319 L 160.711 424.153 L 161.542 423.996 L 162.372 423.848 L 163.203 423.71 L 164.034 423.582 L 164.865 423.463 L 165.696 423.354 L 166.527 423.254 L 167.357 423.164 L 168.188 423.083 L 169.019 423.012 L 169.85 422.951 L 170.681 422.899 L 171.512 422.857 L 172.342 422.824 L 173.173 422.801 L 174.004 422.788 L 174.835 422.784 L 175.666 422.79 L 176.496 422.806 L 177.327 422.831 L 178.158 422.866 L 178.989 422.91 L 179.82 422.964 L 180.651 423.028 L 181.481 423.101 L 182.312 423.184 L 183.143 423.277 L 183.974 423.379 L 184.805 423.49 L 185.636 423.612 L 186.466 423.742 L 187.297 423.883 L 188.128 424.032 L 188.959 424.191 L 189.79 424.36 L 190.621 424.538 L 191.451 424.726 L 192.282 424.923 L 193.113 425.129 L 193.944 425.345 L 194.775 425.57 L 195.606 425.804 L 196.436 426.048 L 197.267 426.301 L 198.098 426.563 L 198.929 426.834 L 199.76 427.114 L 200.591 427.404 L 201.421 427.702 L 202.252 428.01 L 203.083 428.327 L 203.914 428.652 L 204.745 428.987 L 205.576 429.331 L 206.406 429.683 L 207.237 430.044 L 208.068 430.414 L 208.899 430.793 L 209.73 431.18 L 210.561 431.576 L 211.391 431.981 L 212.222 432.394 L 213.053 432.816 L 213.884 433.246 L 214.715 433.684 L 215.546 434.131 L 216.376 434.586 L 217.207 435.05 L 218.038 435.521 L 218.869 436.001 L 219.7 436.489 L 220.531 436.985 L 221.361 437.489 L 222.192 438 L 223.023 438.52 L 223.854 439.047 L 224.685 439.582 L 225.516 440.125 L 226.346 440.675 L 227.177 441.233 L 228.008 441.798 L 228.839 442.371 L 229.67 442.951 L 230.501 443.538 L 231.331 444.132 L 232.162 444.734 L 232.993 445.342 L 233.824 445.958 L 234.655 446.581 L 235.485 447.21 L 236.316 447.846 L 237.147 448.489 L 237.978 449.138 L 238.809 449.794 L 239.64 450.456 L 240.47 451.125 L 241.301 451.8 L 242.132 452.481 L 242.963 453.168 L 243.794 453.862 L 244.625 454.561 L 245.455 455.266 L 246.286 455.977 L 247.117 456.694 L 247.948 457.416 L 248.779 458.144 L 249.61 458.878 L 250.44 459.617 L 251.271 460.361 L 252.102 461.11 L 252.933 461.865 L 253.764 462.624 L 254.595 463.388 L 255.425 464.158 L 256.256 464.932 L 257.087 465.71 L 257.918 466.494 L 258.749 467.281 L 259.58 468.074 L 260.41 468.87 L 261.241 469.671 L 262.072 470.475 L 262.903 471.284 L 263.734 472.097 L 264.565 472.913 L 265.395 473.734 L 266.226 474.557 L 267.057 475.385 L 267.888 476.216 L 268.719 477.05 L 269.55 477.887 L 270.38 478.728 L 271.211 479.572 L 272.042 480.418 L 272.873 481.268 L 273.704 482.12 L 274.535 482.974 L 275.365 483.832 L 276.196 484.692 L 277.027 485.554 L 277.858 486.418 L 278.689 487.285 L 279.52 488.153 L 280.35 489.024 L 281.181 489.896 L 282.012 490.77 L 282.843 491.646 L 283.674 492.523 L 284.505 493.401 L 285.335 494.281 L 286.166 495.162 L 286.997 496.045 L 287.828 496.928 L 288.659 497.812 L 289.489 498.697 L 290.32 499.583 L 291.151 500.469 L 291.982 501.356 L 292.813 502.243 L 293.644 503.13 L 294.474 504.018 L 295.305 504.905 L 296.136 505.793 L 296.967 506.68 L 297.798 507.567 L 298.629 508.454 L 299.459 509.34 L 300.29 510.226 L 301.121 511.111 L 301.952 511.996 L 302.783 512.879 L 303.614 513.762 L 304.444 514.643 L 305.275 515.523 L 306.106 516.402 L 306.937 517.28 L 307.768 518.156 L 308.599 519.03 L 309.429 519.903 L 310.26 520.774 L 311.091 521.643 L 311.922 522.51 L 312.753 523.375 L 313.584 524.238 L 314.414 525.098 L 315.245 525.956 L 316.076 526.812 L 316.907 527.664 L 317.738 528.515 L 318.569 529.362 L 319.399 530.206 L 320.23 531.048 L 321.061 531.886 L 321.892 532.721 L 322.723 533.553 L 323.554 534.381 L 324.384 535.206 L 325.215 536.027 L 326.046 536.844 L 326.877 537.658 L 327.708 538.468 L 328.539 539.274 L 329.369 540.075 L 330.2 540.873 L 331.031 541.666 L 331.862 542.455 L 332.693 543.24 L 333.524 544.019 L 334.354 544.795 L 335.185 545.565 L 336.016 546.331 L 336.847 547.092 L 337.678 547.847 L 338.509 548.598 L 339.339 549.343 L 340.17 550.084 L 341.001 550.818 L 341.832 551.548 L 342.663 552.272 L 343.493 552.99 L 344.324 553.703 L 345.155 554.409 L 345.986 555.11 L 346.817 555.805 L 347.648 556.494 L 348.478 557.177 L 349.309 557.853 L 350.14 558.524 L 350.971 559.188 L 351.802 559.845 L 352.633 560.496 L 353.463 561.141 L 354.294 561.778 L 355.125 562.409 L 355.956 563.034 L 356.787 563.651 L 357.618 564.261 L 358.448 564.865 L 359.279 565.461 L 360.11 566.05 L 360.941 566.632 L 361.772 567.207 L 362.603 567.774 L 363.433 568.333 L 364.264 568.886 L 365.095 569.43 L 365.926 569.967 L 366.757 570.497 L 367.588 571.018 L 368.418 571.532 L 369.249 572.038 L 370.08 572.536 L 370.911 573.025 L 371.742 573.507 L 372.573 573.981 L 373.403 574.447 L 374.234 574.904 L 375.065 575.353 L 375.896 575.794 L 376.727 576.226 L 377.558 576.65 L 378.388 577.065 L 379.219 577.472 L 380.05 577.87 L 380.881 578.26 L 381.712 578.641 L 382.543 579.013 L 383.373 579.376 L 384.204 579.731 L 385.035 580.077 L 385.866 580.414 L 386.697 580.742 L 387.528 581.061 L 388.358 581.371 L 389.189 581.672 L 390.02 581.964 L 390.851 582.246 L 391.682 582.52 L 392.513 582.784 L 393.343 583.04 L 394.174 583.286 L 395.005 583.522 L 395.836 583.75 L 396.667 583.968 L 397.497 584.177 L 398.328 584.376 L 399.159 584.566 L 399.99 584.747 L 400.821 584.918 L 401.652 585.079 L 402.482 585.232 L 403.313 585.374 L 404.144 585.507 L 404.975 585.631 L 405.806 585.745 L 406.637 585.85 L 407.467 585.945 L 408.298 586.03 L 409.129 586.106 L 409.96 586.172 L 410.791 586.228 L 411.622 586.275 L 412.452 586.313 L 413.283 586.34 L 414.114 586.359 L 414.945 586.367 L 415.776 586.366 L 416.607 586.355 L 417.437 586.335 L 418.268 586.304 L 419.099 586.265 L 419.93 586.215 L 420.761 586.157 L 421.592 586.088 L 422.422 586.01 L 423.253 585.922 L 424.084 585.825 L 424.915 585.718 L 425.746 585.602 L 426.577 585.476 L 427.407 585.34 L 428.238 585.195 L 429.069 585.041 L 429.9 584.877 L 430.731 584.703 L 431.562 584.52 L 432.392 584.328 L 433.223 584.126 L 434.054 583.915 L 434.885 583.695 L 435.716 583.465 L 436.547 583.226 L 437.377 582.978 L 438.208 582.72 L 439.039 582.454 L 439.87 582.178 L 440.701 581.893 L 441.532 581.599 L 442.362 581.295 L 443.193 580.983 L 444.024 580.662 L 444.855 580.332 L 445.686 579.993 L 446.517 579.645 L 447.347 579.288 L 448.178 578.922 L 449.009 578.548 L 449.84 578.165 L 450.671 577.773 L 451.502 577.373 L 452.332 576.964 L 453.163 576.546 L 453.994 576.12 L 454.825 575.686 L 455.656 575.243 L 456.486 574.792 L 457.317 574.333 L 458.148 573.865 L 458.979 573.39 L 459.81 572.906 L 460.641 572.414 L 461.471 571.914 L 462.302 571.406 L 463.133 570.891 L 463.964 570.367 L 464.795 569.836 L 465.626 569.297 L 466.456 568.751 L 467.287 568.197 L 468.118 567.635 L 468.949 567.066 L 469.78 566.49 L 470.611 565.906 L 471.441 565.315 L 472.272 564.717 L 473.103 564.112 L 473.934 563.5 L 474.765 562.881 L 475.596 562.255 L 476.426 561.622 L 477.257 560.983 L 478.088 560.337 L 478.919 559.684 L 479.75 559.025 L 480.581 558.36 L 481.411 557.688 L 482.242 557.01 L 483.073 556.325 L 483.904 555.635 L 484.735 554.938 L 485.566 554.236 L 486.396 553.528 L 487.227 552.814 L 488.058 552.094 L 488.889 551.369 L 489.72 550.638 L 490.551 549.902 L 491.381 549.161 L 492.212 548.414 L 493.043 547.662 L 493.874 546.905 L 494.705 546.143 L 495.536 545.376 L 496.366 544.605 L 497.197 543.828 L 498.028 543.047 L 498.859 542.262 L 499.69 541.472 L 500.521 540.677 L 501.351 539.879 L 502.182 539.076 L 503.013 538.269 L 503.844 537.459 L 504.675 536.644 L 505.506 535.826 L 506.336 535.003 L 507.167 534.178 L 507.998 533.349 L 508.829 532.516 L 509.66 531.68 L 510.49 530.841 L 511.321 529.999 L 512.152 529.154 L 512.983 528.306 L 513.814 527.455 L 514.645 526.602 L 515.475 525.746 L 516.306 524.887 L 517.137 524.026 L 517.968 523.163 L 518.799 522.297 L 519.63 521.43 L 520.46 520.56 L 521.291 519.689 L 522.122 518.816 L 522.953 517.941 L 523.784 517.064 L 524.615 516.186 L 525.445 515.307 L 526.276 514.427 L 527.107 513.545 L 527.938 512.662 L 528.769 511.778 L 529.6 510.894 L 530.43 510.009 L 531.261 509.123 L 532.092 508.236 L 532.923 507.349 L 533.754 506.462 L 534.585 505.575 L 535.415 504.687 L 536.246 503.799 L 537.077 502.912 L 537.908 502.025 L 538.739 501.138 L 539.57 500.251 L 540.4 499.365 L 541.231 498.479 L 542.062 497.595 L 542.893 496.711 L 543.724 495.828 L 544.555 494.946 L 545.385 494.065 L 546.216 493.185 L 547.047 492.307 L 547.878 491.43 L 548.709 490.555 L 549.54 489.681 L 550.37 488.81 L 551.201 487.94 L 552.032 487.071 L 552.863 486.205 L 553.694 485.342 L 554.525 484.48 L 555.355 483.621 L 556.186 482.764 L 557.017 481.91 L 557.848 481.059 L 558.679 480.21 L 559.51 479.364 L 560.34 478.521 L 561.171 477.681 L 562.002 476.845 L 562.833 476.011 L 563.664 475.181 L 564.494 474.355 L 565.325 473.532 L 566.156 472.712 L 566.987 471.897 L 567.818 471.085 L 568.649 470.277 L 569.479 469.474 L 570.31 468.674 L 571.141 467.879 L 571.972 467.087 L 572.803 466.301 L 573.634 465.519 L 574.464 464.741 L 575.295 463.968 L 576.126 463.2 L 576.957 462.437 L 577.788 461.679 L 578.619 460.926 L 579.449 460.177 L 580.28 459.435 L 581.111 458.697 L 581.942 457.965 L 582.773 457.238 L 583.604 456.517 L 584.434 455.802 L 585.265 455.092 L 586.096 454.389 L 586.927 453.691 L 587.758 452.999 L 588.589 452.313 L 589.419 451.633 L 590.25 450.96 L 591.081 450.293 L 591.912 449.632 L 592.743 448.978 L 593.574 448.33 L 594.404 447.689 L 595.235 447.055 L 596.066 446.427 L 596.897 445.806 L 597.728 445.192 L 598.559 444.585 L 599.389 443.986 L 600.22 443.393 L 601.051 442.808 L 601.882 442.229 L 602.713 441.659 L 603.544 441.095 L 604.374 440.539 L 605.205 439.991 L 606.036 439.45 L 606.867 438.917 L 607.698 438.391 L 608.529 437.874 L 609.359 437.364 L 610.19 436.862 L 611.021 436.368 L 611.852 435.883 L 612.683 435.405 L 613.514 434.935 L 614.344 434.474 L 615.175 434.021 L 616.006 433.576 L 616.837 433.139 L 617.668 432.711 L 618.498 432.292 L 619.329 431.881 L 620.16 431.478 L 620.991 431.084 L 621.822 430.699 L 622.653 430.322 L 623.483 429.955 L 624.314 429.596 L 625.145 429.245 L 625.976 428.904 L 626.807 428.572 L 627.638 428.248 L 628.468 427.934 L 629.299 427.628 L 630.13 427.332 L 630.961 427.045 L 631.792 426.766 L 632.623 426.497 L 633.453 426.238 L 634.284 425.987 L 635.115 425.746 L 635.946 425.514 L 636.777 425.291 L 637.608 425.078 L 638.438 424.874 L 639.269 424.679 L 640.1 424.494 L 640.931 424.318 L 641.762 424.152 L 642.593 423.995 L 643.423 423.847 L 644.254 423.709 L 645.085 423.581 L 645.916 423.462 L 646.747 423.353 L 647.578 423.253 L 648.408 423.163 L 649.239 423.083 L 650.07 423.012 L 650.901 422.95 L 651.732 422.899 L 652.563 422.856 L 653.393 422.824 L 654.224 422.801 L 655.055 422.788 L 655.886 422.784 L 656.717 422.79 L 657.548 422.806 L 658.378 422.831 L 659.209 422.866 L 660.04 422.911 L 660.871 422.965 L 661.702 423.029 L 662.533 423.102 L 663.363 423.185 L 664.194 423.278 L 665.025 423.38 L 665.856 423.491 L 666.687 423.613 L 667.518 423.743 L 668.348 423.884 L 669.179 424.034 L 670.01 424.193 L 670.841 424.362 L 671.672 424.54 L 672.503 424.727 L 673.333 424.924 L 674.164 425.131 L 674.995 425.347 L 675.826 425.572 L 676.657 425.806 L 677.487 426.05 L 678.318 426.303 L 679.149 426.565 L 679.98 426.836 L 680.811 427.117 L 681.642 427.406 L 682.472 427.705 L 683.303 428.013 L 684.134 428.329 L 684.965 428.655 L 685.796 428.99 L 686.627 429.333 L 687.457 429.686 L 688.288 430.047 L 689.119 430.417 L 689.95 430.796 L 690.781 431.183 L 691.612 431.579 L 692.442 431.984 L 693.273 432.397 L 694.104 432.819 L 694.935 433.249 L 695.766 433.688 L 696.597 434.135 L 697.427 434.59 L 698.258 435.054 L 699.089 435.525 L 699.92 436.005 L 700.751 436.493 L 701.582 436.989 L 702.412 437.493 L 703.243 438.004 L 704.074 438.524 L 704.905 439.051 L 705.736 439.586 L 706.567 440.129 L 707.397 440.68 L 708.228 441.237 L 709.059 441.803 L 709.89 442.375 L 710.721 442.955 L 711.552 443.543 L 712.382 444.137 L 713.213 444.739 L 714.044 445.347 L 714.875 445.963 L 715.706 446.586 L 716.537 447.215 L 717.367 447.851 L 718.198 448.494 L 719.029 449.143 L 719.86 449.799 L 720.691 450.461 L 721.522 451.13 L 722.352 451.805 L 723.183 452.486 L 724.014 453.174 L 724.845 453.867 L 725.676 454.567 L 726.507 455.272 L 727.337 455.983 L 728.168 456.7 L 728.999 457.422 L 729.83 458.15 L 730.661 458.884 L 731.491 459.623 L 732.322 460.367 L 733.153 461.116 L 733.984 461.871 L 734.815 462.63 L 735.646 463.395 L 736.476 464.164 L 737.307 464.938 L 738.138 465.717 L 738.969 466.5 L 739.8 467.288 L 740.631 468.08 L 741.461 468.876 L 742.292 469.677 L 743.123 470.482 L 743.954 471.291 L 744.785 472.103 L 745.616 472.92 L 746.446 473.74 L 747.277 474.564 L 748.108 475.392 L 748.939 476.222 L 749.77 477.057 L 750.601 477.894 L 751.431 478.735 L 752.262 479.578 L 753.093 480.425 L 753.924 481.274 L 754.755 482.126 L 755.586 482.981 L 756.416 483.839 L 757.247 484.698 L 758.078 485.561 L 758.909 486.425 L 759.74 487.292 L 760.571 488.16 L 761.401 489.031 L 762.232 489.903 L 763.063 490.777 L 763.894 491.653 L 764.725 492.53 L 765.556 493.408 L 766.386 494.288 L 767.217 495.169 L 768.048 496.052 L 768.879 496.935 L 769.71 497.819 L 770.541 498.704 L 771.371 499.59 L 772.202 500.476 L 773.033 501.363 L 773.864 502.25 L 774.695 503.137 L 775.526 504.025 L 776.356 504.912 L 777.187 505.8 L 778.018 506.687 L 778.849 507.574 L 779.68 508.461 L 780.511 509.347 L 781.341 510.233 L 782.172 511.118 L 783.003 512.003 L 783.834 512.886 L 784.665 513.769 L 785.495 514.65 L 786.326 515.53 L 787.157 516.409 L 787.988 517.287 L 788.819 518.163 L 789.65 519.037 L 790.48 519.91 L 791.311 520.781 L 792.142 521.65 L 792.973 522.517 L 793.804 523.382 L 794.635 524.245 L 795.465 525.105 L 796.296 525.963 L 797.127 526.818 L 797.958 527.671 L 798.789 528.521 L 799.62 529.369 L 800.45 530.213 L 801.281 531.054 L 802.112 531.893 L 802.943 532.728 L 803.774 533.559 L 804.605 534.388 L 805.435 535.212 L 806.266 536.034 L 807.097 536.851 L 807.928 537.665 L 808.759 538.474 L 809.59 539.28 L 810.42 540.082 L 811.251 540.879 L 812.082 541.673 L 812.913 542.461 L 813.744 543.246 L 814.575 544.026 L 815.405 544.801 L 816.236 545.571 L 817.067 546.337 L 817.898 547.098 L 818.729 547.853 L 819.56 548.604 L 820.39 549.349 L 821.221 550.09 L 822.052 550.824 L 822.883 551.554 L 823.714 552.277 L 824.545 552.996 L 825.375 553.708 L 826.206 554.415 L 827.037 555.116 L 827.868 555.811 L 828.699 556.499 L 829.53 557.182 L 830.36 557.859 L 831.191 558.529 L 832.022 559.193 L 832.853 559.85 L 833.684 560.501 L 834.515 561.146 L 835.345 561.783 L 836.176 562.414 L 837.007 563.039 L 837.838 563.656 L 838.669 564.266 L 839.499 564.87 L 840.33 565.466 L 841.161 566.055 L 841.992 566.637 L 842.823 567.211 L 843.654 567.778 L 844.484 568.338 L 845.315 568.89 L 846.146 569.435 L 846.977 569.972 L 847.808 570.501 L 848.639 571.022 L 849.469 571.536 L 850.3 572.042 L 851.131 572.54 L 851.962 573.029 L 852.793 573.511 L 853.624 573.985 L 854.454 574.45 L 855.285 574.907 L 856.116 575.356 L 856.947 575.797 L 857.778 576.229 L 858.609 576.653 L 859.439 577.068 L 860.27 577.475 L 861.101 577.873 L 861.932 578.263 L 862.763 578.644 L 863.594 579.016 L 864.424 579.379 L 865.255 579.734 L 866.086 580.08 L 866.917 580.416 L 867.748 580.744 L 868.579 581.063 L 869.409 581.373 L 870.24 581.674 L 871.071 581.966 L 871.902 582.249 L 872.733 582.522 L 873.564 582.787 L 874.394 583.042 L 875.225 583.288 L 876.056 583.524 L 876.887 583.752 L 877.718 583.97 L 878.549 584.178 L 879.379 584.378 L 880.21 584.568 L 881.041 584.748 L 881.872 584.919 L 882.703 585.081 L 883.534 585.233 L 884.364 585.375 L 885.195 585.508 L 886.026 585.632 L 886.857 585.746 L 887.688 585.85 L 888.519 585.945 L 889.349 586.031 L 890.18 586.106 L 891.011 586.172 L 891.842 586.229 L 892.673 586.276 L 893.504 586.313 L 894.334 586.341 L 895.165 586.359 L 895.996 586.367 L 896.827 586.366 L 897.658 586.355 L 898.488 586.334 L 899.319 586.304 L 900.15 586.264 L 900.981 586.215 L 901.812 586.156 L 902.643 586.087 L 903.473 586.009 L 904.304 585.921 L 905.135 585.824 L 905.966 585.717 L 906.797 585.601 L 907.628 585.474 L 908.458 585.339 L 909.289 585.194 L 910.12 585.039 L 910.951 584.875 L 911.782 584.702 L 912.613 584.519 L 913.443 584.326 L 914.274 584.125 L 915.105 583.913 L 915.936 583.693 L 916.767 583.463 L 917.598 583.224 L 918.428 582.976 L 919.259 582.718 L 920.09 582.451 L 920.921 582.176 L 921.752 581.89 L 922.583 581.596 L 923.413 581.293 L 924.244 580.981 L 925.075 580.659 L 925.906 580.329 L 926.737 579.99 L 927.568 579.642 L 928.398 579.285 L 929.229 578.919 L 930.06 578.545 L 930.891 578.162 L 931.722 577.77 L 932.553 577.37 L 933.383 576.961 L 934.214 576.543 L 935.045 576.117 L 935.876 575.683 L 936.707 575.24 L 937.538 574.789 L 938.368 574.329 L 939.199 573.862 L 940.03 573.386 L 940.861 572.902 L 941.692 572.41 L 942.523 571.91 L 943.353 571.402 L 944.184 570.887 L 945.015 570.363 L 945.846 569.832 L 946.677 569.293 L 947.508 568.746 L 948.338 568.192 L 949.169 567.631 L 950 567.061" stroke-width="3" stroke-dasharray="" stroke="black" stroke-opacity="1" fill="none" />
</g>
<g id="frame_0">
    <rect id="frame_0_border" x="120" y="50" width="830" height="870" />
    <g id="frame_0_bottomticks">
        <path d="M 535.519 920 L 535.519 900" />
        <text font-size="30" transform="translate(535.519, 950)" text-anchor="middle" dominant-baseline="middle" stroke="none" fill="black">0</text>
        <path d="M 612.08 920 L 612.08 910" />
        <path d="M 688.641 920 L 688.641 900" />
        <text font-size="30" transform="translate(688.641, 950)" text-anchor="middle" dominant-baseline="middle" stroke="none" fill="black">2</text>
        <path d="M 765.201 920 L 765.201 910" />
        <path d="M 841.762 920 L 841.762 900" />
        <text font-size="30" transform="translate(841.762, 950)" text-anchor="middle" dominant-baseline="middle" stroke="none" fill="black">4</text>
        <path d="M 918.322 920 L 918.322 910" />
        <path d="M 382.398 920 L 382.398 900" />
        <text font-size="30" transform="translate(382.398, 950)" text-anchor="middle" dominant-baseline="middle" stroke="none" fill="black">‒2</text>
        <path d="M 152.716 920 L 152.716 910" />
        <path d="M 229.277 920 L 229.277 900" />
        <text font-size="30" transform="translate(229.277, 950)" text-anchor="middle" dominant-baseline="middle" stroke="none" fill="black">‒4</text>
        <path d="M 305.838 920 L 305.838 910" />
        <path d="M 458.959 920 L 458.959 910" />
    </g>
    <g id="frame_0_leftticks">
        <path d="M 120 504.576 L 140 504.576" />
        <text font-size="30" transform="translate(110, 514.576)" text-anchor="end" dominant-baseline="middle" stroke="none" fill="black">0</text>
        <path d="M 120 422.784 L 130 422.784" />
        <path d="M 120 340.992 L 140 340.992" />
        <text font-size="30" transform="translate(110, 350.992)" text-anchor="end" dominant-baseline="middle" stroke="none" fill="black">2</text>
        <path d="M 120 259.201 L 130 259.201" />
        <path d="M 120 177.409 L 140 177.409" />
        <text font-size="30" transform="translate(110, 187.409)" text-anchor="end" dominant-baseline="middle" stroke="none" fill="black">4</text>
        <path d="M 120 95.6172 L 130 95.6172" />
        <path d="M 120 668.159 L 140 668.159" />
        <text font-size="30" transform="translate(110, 678.159)" text-anchor="end" dominant-baseline="middle" stroke="none" fill="black">‒2</text>
        <path d="M 120 913.535 L 130 913.535" />
        <path d="M 120 831.743 L 140 831.743" />
        <text font-size="30" transform="translate(110, 841.743)" text-anchor="end" dominant-baseline="middle" stroke="none" fill="black">‒4</text>
        <path d="M 120 749.951 L 130 749.951" />
        <path d="M 120 586.368 L 130 586.368" />
    </g>
    <g id="frame_0_topticks">
        <path d="M 535.519 50 L 535.519 70" />
        <path d="M 612.08 50 L 612.08 60" />
        <path d="M 688.641 50 L 688.641 70" />
        <path d="M 765.201 50 L 765.201 60" />
        <path d="M 841.762 50 L 841.762 70" />
        <path d="M 918.322 50 L 918.322 60" />
        <path d="M 382.398 50 L 382.398 70" />
        <path d="M 152.716 50 L 152.716 60" />
        <path d="M 229.277 50 L 229.277 70" />
        <path d="M 305.838 50 L 305.838 60" />
        <path d="M 458.959 50 L 458.959 60" />
    </g>
    <g id="frame_0_rightticks">
        <path d="M 950 504.576 L 930 504.576" />
        <path d="M 950 422.784 L 940 422.784" />
        <path d="M 950 340.992 L 930 340.992" />
        <path d="M 950 259.201 L 940 259.201" />
        <path d="M 950 177.409 L 930 177.409" />
        <path d="M 950 95.6172 L 940 95.6172" />
        <path d="M 950 668.159 L 930 668.159" />
        <path d="M 950 913.535 L 940 913.535" />
        <path d="M 950 831.743 L 930 831.743" />
        <path d="M 950 749.951 L 940 749.951" />
        <path d="M 950 586.368 L 940 586.368" />
    </g>
</g>
</g>
</svg>
