<?xml version="1.0" standalone="no"?>
<!DOCTYPE svg PUBLIC "-//W3C//DTD SVG 1.1//EN" "http://www.w3.org/Graphics/SVG/1.1/DTD/svg11.dtd">
<svg style="stroke-linejoin:miter; stroke:black; stroke-width:2.5; text-anchor:middle; fill:none" xmlns="http://www.w3.org/2000/svg" font-family="Helvetica, Arial, FreeSans, Sans, sans, sans-serif" width="1000px" height="1000px" version="1.1" xmlns:xlink="http://www.w3.org/1999/xlink" viewBox="0 0 1000 1000">
<defs>
    <clipPath id="Histogram_0_clip">
        <rect x="120" y="50" width="830" height="870" />
    </clipPath>
    <clipPath id="Histogram_1_clip">
        <rect x="120" y="50" width="830" height="870" />
    </clipPath>
</defs>
<g id="whole_document">
<rect id="background" x="0" y="0" width="1000" height="1000" stroke="none" fill="white" />
<g id="Histogram_0" clip-path="url(#Histogram_0_clip)">
    <path d="M 120 920 L 120 920 L 128.3 920 L 128.3 920 L 136.6 920 L 136.6 920 L 144.9 920 L 144.9 920 L 153.2 920 L 153.2 920 L 161.5 920 L 161.5 920 L 169.8 920 L 169.8 920 L 178.1 920 L 178.1 920 L 186.4 920 L 186.4 920 L 194.7 920 L 194.7 918.565 L 203 918.565 L 203 920 L 211.3 920 L 211.3 920 L 219.6 920 L 219.6 920 L 227.9 920 L 227.9 918.565 L 236.2 918.565 L 236.2 918.565 L 244.5 918.565 L 244.5 920 L 252.8 920 L 252.8 918.565 L 261.1 918.565 L 261.1 918.565 L 269.4 918.565 L 269.4 914.26 L 277.7 914.26 L 277.7 911.391 L 286 911.391 L 286 907.086 L 294.3 907.086 L 294.3 907.086 L 302.6 907.086 L 302.6 908.521 L 310.9 908.521 L 310.9 908.521 L 319.2 908.521 L 319.2 908.521 L 327.5 908.521 L 327.5 879.823 L 335.8 879.823 L 335.8 886.998 L 344.1 886.998 L 344.1 874.084 L 352.4 874.084 L 352.4 869.779 L 360.7 869.779 L 360.7 849.691 L 369 849.691 L 369 838.212 L 377.3 838.212 L 377.3 833.907 L 385.6 833.907 L 385.6 785.121 L 393.9 785.121 L 393.9 787.991 L 402.2 787.991 L 402.2 783.686 L 410.5 783.686 L 410.5 691.853 L 418.8 691.853 L 418.8 684.679 L 427.1 684.679 L 427.1 630.153 L 435.4 630.153 L 435.4 664.59 L 443.7 664.59 L 443.7 585.672 L 452 585.672 L 452 597.151 L 460.3 597.151 L 460.3 546.93 L 468.6 546.93 L 468.6 463.706 L 476.9 463.706 L 476.9 457.967 L 485.2 457.967 L 485.2 423.529 L 493.5 423.529 L 493.5 410.616 L 501.8 410.616 L 501.8 376.178 L 510.1 376.178 L 510.1 360.395 L 518.4 360.395 L 518.4 354.655 L 526.7 354.655 L 526.7 354.655 L 535 354.655 L 535 311.608 L 543.3 311.608 L 543.3 353.22 L 551.6 353.22 L 551.6 341.741 L 559.9 341.741 L 559.9 347.481 L 568.2 347.481 L 568.2 417.79 L 576.5 417.79 L 576.5 457.967 L 584.8 457.967 L 584.8 473.75 L 593.1 473.75 L 593.1 495.274 L 601.4 495.274 L 601.4 518.232 L 609.7 518.232 L 609.7 525.406 L 618 525.406 L 618 595.716 L 626.3 595.716 L 626.3 624.414 L 634.6 624.414 L 634.6 680.374 L 642.9 680.374 L 642.9 678.939 L 651.2 678.939 L 651.2 727.725 L 659.5 727.725 L 659.5 733.465 L 667.8 733.465 L 667.8 792.295 L 676.1 792.295 L 676.1 815.253 L 684.4 815.253 L 684.4 816.688 L 692.7 816.688 L 692.7 839.646 L 701 839.646 L 701 818.123 L 709.3 818.123 L 709.3 846.821 L 717.6 846.821 L 717.6 869.779 L 725.9 869.779 L 725.9 891.302 L 734.2 891.302 L 734.2 889.867 L 742.5 889.867 L 742.5 901.346 L 750.8 901.346 L 750.8 889.867 L 759.1 889.867 L 759.1 898.477 L 767.4 898.477 L 767.4 911.391 L 775.7 911.391 L 775.7 908.521 L 784 908.521 L 784 912.826 L 792.3 912.826 L 792.3 914.26 L 800.6 914.26 L 800.6 911.391 L 808.9 911.391 L 808.9 920 L 817.2 920 L 817.2 918.565 L 825.5 918.565 L 825.5 914.26 L 833.8 914.26 L 833.8 920 L 842.1 920 L 842.1 918.565 L 850.4 918.565 L 850.4 920 L 858.7 920 L 858.7 920 L 867 920 L 867 918.565 L 875.3 918.565 L 875.3 920 L 883.6 920 L 883.6 920 L 891.9 920 L 891.9 920 L 900.2 920 L 900.2 920 L 908.5 920 L 908.5 920 L 916.8 920 L 916.8 920 L 925.1 920 L 925.1 920 L 933.4 920 L 933.4 920 L 941.7 920 L 941.7 920 L 950 920 L 950 920" stroke-width="3" stroke-dasharray="" stroke="black" stroke-opacity="1" fill="lightgrey" fill-opacity="1" />
</g>
<g id="Histogram_1" clip-path="url(#Histogram_1_clip)">
    <path d="M 120 920 L 120 920 L 128.3 920 L 128.3 920 L 136.6 920 L 136.6 920 L 144.9 920 L 144.9 920 L 153.2 920 L 153.2 920 L 161.5 920 L 161.5 920 L 169.8 920 L 169.8 920 L 178.1 920 L 178.1 920 L 186.4 920 L 186.4 920 L 194.7 920 L 194.7 919.713 L 203 919.713 L 203 920 L 211.3 920 L 211.3 920 L 219.6 920 L 219.6 920 L 227.9 920 L 227.9 919.713 L 236.2 919.713 L 236.2 919.713 L 244.5 919.713 L 244.5 920 L 252.8 920 L 252.8 919.713 L 261.1 919.713 L 261.1 919.713 L 269.4 919.713 L 269.4 918.852 L 277.7 918.852 L 277.7 918.278 L 286 918.278 L 286 917.417 L 294.3 917.417 L 294.3 917.417 L 302.6 917.417 L 302.6 917.704 L 310.9 917.704 L 310.9 917.704 L 319.2 917.704 L 319.2 917.704 L 327.5 917.704 L 327.5 911.965 L 335.8 911.965 L 335.8 913.4 L 344.1 913.4 L 344.1 910.817 L 352.4 910.817 L 352.4 909.956 L 360.7 909.956 L 360.7 905.938 L 369 905.938 L 369 903.642 L 377.3 903.642 L 377.3 902.781 L 385.6 902.781 L 385.6 893.024 L 393.9 893.024 L 393.9 893.598 L 402.2 893.598 L 402.2 892.737 L 410.5 892.737 L 410.5 874.371 L 418.8 874.371 L 418.8 872.936 L 427.1 872.936 L 427.1 862.031 L 435.4 862.031 L 435.4 868.918 L 443.7 868.918 L 443.7 853.134 L 452 853.134 L 452 855.43 L 460.3 855.43 L 460.3 845.386 L 468.6 845.386 L 468.6 828.741 L 476.9 828.741 L 476.9 827.593 L 485.2 827.593 L 485.2 820.706 L 493.5 820.706 L 493.5 818.123 L 501.8 818.123 L 501.8 811.236 L 510.1 811.236 L 510.1 808.079 L 518.4 808.079 L 518.4 806.931 L 526.7 806.931 L 526.7 806.931 L 535 806.931 L 535 129.091 L 543.3 129.091 L 543.3 183.186 L 551.6 183.186 L 551.6 168.263 L 559.9 168.263 L 559.9 175.725 L 568.2 175.725 L 568.2 267.127 L 576.5 267.127 L 576.5 319.357 L 584.8 319.357 L 584.8 339.876 L 593.1 339.876 L 593.1 367.856 L 601.4 367.856 L 601.4 397.702 L 609.7 397.702 L 609.7 407.028 L 618 407.028 L 618 498.431 L 626.3 498.431 L 626.3 535.738 L 634.6 535.738 L 634.6 608.486 L 642.9 608.486 L 642.9 606.621 L 651.2 606.621 L 651.2 670.043 L 659.5 670.043 L 659.5 677.504 L 667.8 677.504 L 667.8 753.984 L 676.1 753.984 L 676.1 783.829 L 684.4 783.829 L 684.4 785.695 L 692.7 785.695 L 692.7 815.54 L 701 815.54 L 701 787.56 L 709.3 787.56 L 709.3 824.867 L 717.6 824.867 L 717.6 854.713 L 725.9 854.713 L 725.9 882.693 L 734.2 882.693 L 734.2 880.828 L 742.5 880.828 L 742.5 895.75 L 750.8 895.75 L 750.8 880.828 L 759.1 880.828 L 759.1 892.02 L 767.4 892.02 L 767.4 908.808 L 775.7 908.808 L 775.7 905.077 L 784 905.077 L 784 910.673 L 792.3 910.673 L 792.3 912.539 L 800.6 912.539 L 800.6 908.808 L 808.9 908.808 L 808.9 920 L 817.2 920 L 817.2 918.135 L 825.5 918.135 L 825.5 912.539 L 833.8 912.539 L 833.8 920 L 842.1 920 L 842.1 918.135 L 850.4 918.135 L 850.4 920 L 858.7 920 L 858.7 920 L 867 920 L 867 918.135 L 875.3 918.135 L 875.3 920 L 883.6 920 L 883.6 920 L 891.9 920 L 891.9 920 L 900.2 920 L 900.2 920 L 908.5 920 L 908.5 920 L 916.8 920 L 916.8 920 L 925.1 920 L 925.1 920 L 933.4 920 L 933.4 920 L 941.7 920 L 941.7 920 L 950 920 L 950 920" stroke-width="3" stroke-dasharray="" stroke="blue" stroke-opacity="1" fill="none" fill-opacity="1" />
</g>
<g id="frame_0">
    <rect id="frame_0_border" x="120" y="50" width="830" height="870" />
    <g id="frame_0_bottomticks">
        <path d="M 535 920 L 535 910" />
        <path d="M 120 920 L 120 900" />
        <text font-size="30" transform="translate(120, 950)" text-anchor="middle" dominant-baseline="middle" stroke="none" fill="black">0</text>
        <path d="M 452 920 L 452 900" />
        <text font-size="30" transform="translate(452, 950)" text-anchor="middle" dominant-baseline="middle" stroke="none" fill="black">0.4</text>
        <path d="M 203 920 L 203 910" />
        <path d="M 950 920 L 950 900" />
        <text font-size="30" transform="translate(950, 950)" text-anchor="middle" dominant-baseline="middle" stroke="none" fill="black">1</text>
        <path d="M 286 920 L 286 900" />
        <text font-size="30" transform="translate(286, 950)" text-anchor="middle" dominant-baseline="middle" stroke="none" fill="black">0.2</text>
        <path d="M 618 920 L 618 900" />
        <text font-size="30" transform="translate(618, 950)" text-anchor="middle" dominant-baseline="middle" stroke="none" fill="black">0.6</text>
        <path d="M 369 920 L 369 910" />
        <path d="M 784 920 L 784 900" />
        <text font-size="30" transform="translate(784, 950)" text-anchor="middle" dominant-baseline="middle" stroke="none" fill="black">0.8</text>
        <path d="M 867 920 L 867 910" />
        <path d="M 701 920 L 701 910" />
    </g>
    <g id="frame_0_leftticks">
        <path d="M 120 920 L 140 920" />
        <text font-size="30" transform="translate(110, 930)" text-anchor="end" dominant-baseline="middle" stroke="none" fill="black">0</text>
        <path d="M 120 733.465 L 130 733.465" />
        <path d="M 120 546.93 L 130 546.93" />
        <path d="M 120 360.395 L 130 360.395" />
        <path d="M 120 173.859 L 130 173.859" />
        <path d="M 120 905.651 L 130 905.651" />
        <path d="M 120 719.116 L 130 719.116" />
        <path d="M 120 532.581 L 130 532.581" />
        <path d="M 120 346.046 L 140 346.046" />
        <text font-size="30" transform="translate(110, 356.046)" text-anchor="end" dominant-baseline="middle" stroke="none" fill="black">400</text>
        <path d="M 120 159.51 L 130 159.51" />
        <path d="M 120 891.302 L 130 891.302" />
        <path d="M 120 704.767 L 130 704.767" />
        <path d="M 120 518.232 L 130 518.232" />
        <path d="M 120 331.697 L 130 331.697" />
        <path d="M 120 145.162 L 130 145.162" />
        <path d="M 120 876.953 L 130 876.953" />
        <path d="M 120 690.418 L 130 690.418" />
        <path d="M 120 503.883 L 130 503.883" />
        <path d="M 120 317.348 L 130 317.348" />
        <path d="M 120 130.813 L 130 130.813" />
        <path d="M 120 862.605 L 130 862.605" />
        <path d="M 120 676.069 L 130 676.069" />
        <path d="M 120 489.534 L 140 489.534" />
        <text font-size="30" transform="translate(110, 499.534)" text-anchor="end" dominant-baseline="middle" stroke="none" fill="black">300</text>
        <path d="M 120 302.999 L 130 302.999" />
        <path d="M 120 116.464 L 130 116.464" />
        <path d="M 120 848.256 L 130 848.256" />
        <path d="M 120 661.721 L 130 661.721" />
        <path d="M 120 475.185 L 130 475.185" />
        <path d="M 120 288.65 L 130 288.65" />
        <path d="M 120 102.115 L 130 102.115" />
        <path d="M 120 833.907 L 130 833.907" />
        <path d="M 120 647.372 L 130 647.372" />
        <path d="M 120 460.837 L 130 460.837" />
        <path d="M 120 274.301 L 130 274.301" />
        <path d="M 120 87.7662 L 130 87.7662" />
        <path d="M 120 819.558 L 130 819.558" />
        <path d="M 120 633.023 L 140 633.023" />
        <text font-size="30" transform="translate(110, 643.023)" text-anchor="end" dominant-baseline="middle" stroke="none" fill="black">200</text>
        <path d="M 120 446.488 L 130 446.488" />
        <path d="M 120 259.953 L 130 259.953" />
        <path d="M 120 73.4173 L 130 73.4173" />
        <path d="M 120 805.209 L 130 805.209" />
        <path d="M 120 618.674 L 130 618.674" />
        <path d="M 120 432.139 L 130 432.139" />
        <path d="M 120 245.604 L 130 245.604" />
        <path d="M 120 59.0685 L 140 59.0685" />
        <text font-size="30" transform="translate(110, 69.0685)" text-anchor="end" dominant-baseline="middle" stroke="none" fill="black">600</text>
        <path d="M 120 790.86 L 130 790.86" />
        <path d="M 120 604.325 L 130 604.325" />
        <path d="M 120 417.79 L 130 417.79" />
        <path d="M 120 231.255 L 130 231.255" />
        <path d="M 120 776.511 L 140 776.511" />
        <text font-size="30" transform="translate(110, 786.511)" text-anchor="end" dominant-baseline="middle" stroke="none" fill="black">100</text>
        <path d="M 120 589.976 L 130 589.976" />
        <path d="M 120 403.441 L 130 403.441" />
        <path d="M 120 216.906 L 130 216.906" />
        <path d="M 120 762.163 L 130 762.163" />
        <path d="M 120 575.627 L 130 575.627" />
        <path d="M 120 389.092 L 130 389.092" />
        <path d="M 120 202.557 L 140 202.557" />
        <text font-size="30" transform="translate(110, 212.557)" text-anchor="end" dominant-baseline="middle" stroke="none" fill="black">500</text>
        <path d="M 120 747.814 L 130 747.814" />
        <path d="M 120 561.279 L 130 561.279" />
        <path d="M 120 374.743 L 130 374.743" />
        <path d="M 120 188.208 L 130 188.208" />
    </g>
    <g id="frame_0_topticks">
        <path d="M 535 50 L 535 60" />
        <path d="M 120 50 L 120 70" />
        <path d="M 452 50 L 452 70" />
        <path d="M 203 50 L 203 60" />
        <path d="M 950 50 L 950 70" />
        <path d="M 286 50 L 286 70" />
        <path d="M 618 50 L 618 70" />
        <path d="M 369 50 L 369 60" />
        <path d="M 784 50 L 784 70" />
        <path d="M 867 50 L 867 60" />
        <path d="M 701 50 L 701 60" />
    </g>
    <g id="frame_0_rightticks">
        <path d="M 950 920 L 930 920" />
        <path d="M 950 733.465 L 940 733.465" />
        <path d="M 950 546.93 L 940 546.93" />
        <path d="M 950 360.395 L 940 360.395" />
        <path d="M 950 173.859 L 940 173.859" />
        <path d="M 950 905.651 L 940 905.651" />
        <path d="M 950 719.116 L 940 719.116" />
        <path d="M 950 532.581 L 940 532.581" />
        <path d="M 950 346.046 L 930 346.046" />
        <path d="M 950 159.51 L 940 159.51" />
        <path d="M 950 891.302 L 940 891.302" />
        <path d="M 950 704.767 L 940 704.767" />
        <path d="M 950 518.232 L 940 518.232" />
        <path d="M 950 331.697 L 940 331.697" />
        <path d="M 950 145.162 L 940 145.162" />
        <path d="M 950 876.953 L 940 876.953" />
        <path d="M 950 690.418 L 940 690.418" />
        <path d="M 950 503.883 L 940 503.883" />
        <path d="M 950 317.348 L 940 317.348" />
        <path d="M 950 130.813 L 940 130.813" />
        <path d="M 950 862.605 L 940 862.605" />
        <path d="M 950 676.069 L 940 676.069" />
        <path d="M 950 489.534 L 930 489.534" />
        <path d="M 950 302.999 L 940 302.999" />
        <path d="M 950 116.464 L 940 116.464" />
        <path d="M 950 848.256 L 940 848.256" />
        <path d="M 950 661.721 L 940 661.721" />
        <path d="M 950 475.185 L 940 475.185" />
        <path d="M 950 288.65 L 940 288.65" />
        <path d="M 950 102.115 L 940 102.115" />
        <path d="M 950 833.907 L 940 833.907" />
        <path d="M 950 647.372 L 940 647.372" />
        <path d="M 950 460.837 L 940 460.837" />
        <path d="M 950 274.301 L 940 274.301" />
        <path d="M 950 87.7662 L 940 87.7662" />
        <path d="M 950 819.558 L 940 819.558" />
        <path d="M 950 633.023 L 930 633.023" />
        <path d="M 950 446.488 L 940 446.488" />
        <path d="M 950 259.953 L 940 259.953" />
        <path d="M 950 73.4173 L 940 73.4173" />
        <path d="M 950 805.209 L 940 805.209" />
        <path d="M 950 618.674 L 940 618.674" />
        <path d="M 950 432.139 L 940 432.139" />
        <path d="M 950 245.604 L 940 245.604" />
        <path d="M 950 59.0685 L 930 59.0685" />
        <path d="M 950 790.86 L 940 790.86" />
        <path d="M 950 604.325 L 940 604.325" />
        <path d="M 950 417.79 L 940 417.79" />
        <path d="M 950 231.255 L 940 231.255" />
        <path d="M 950 776.511 L 930 776.511" />
        <path d="M 950 589.976 L 940 589.976" />
        <path d="M 950 403.441 L 940 403.441" />
        <path d="M 950 216.906 L 940 216.906" />
        <path d="M 950 762.163 L 940 762.163" />
        <path d="M 950 575.627 L 940 575.627" />
        <path d="M 950 389.092 L 940 389.092" />
        <path d="M 950 202.557 L 930 202.557" />
        <path d="M 950 747.814 L 940 747.814" />
        <path d="M 950 561.279 L 940 561.279" />
        <path d="M 950 374.743 L 940 374.743" />
        <path d="M 950 188.208 L 940 188.208" />
    </g>
</g>
</g>
</svg>
