<?xml version="1.0" standalone="no"?>
<!DOCTYPE svg PUBLIC "-//W3C//DTD SVG 1.1//EN" "http://www.w3.org/Graphics/SVG/1.1/DTD/svg11.dtd">
<svg style="stroke-linejoin:miter; stroke:black; stroke-width:2.5; text-anchor:middle; fill:none" xmlns="http://www.w3.org/2000/svg" font-family="Helvetica, Arial, FreeSans, Sans, sans, sans-serif" width="1000px" height="1000px" version="1.1" xmlns:xlink="http://www.w3.org/1999/xlink" viewBox="0 0 1000 1000">
<defs>
    <clipPath id="Region_0_clip">
        <rect x="120" y="50" width="830" height="870" />
    </clipPath>
    <clipPath id="Region_1_clip">
        <rect x="120" y="50" width="830" height="870" />
    </clipPath>
    <clipPath id="Region_2_clip">
        <rect x="120" y="50" width="830" height="870" />
    </clipPath>
    <clipPath id="Region_3_clip">
        <rect x="120" y="50" width="830" height="870" />
    </clipPath>
</defs>
<g id="whole_document">
<rect id="background" x="0" y="0" width="1000" height="1000" stroke="none" fill="white" />
<g id="Region_0" clip-path="url(#Region_0_clip)">
    <path d="M -8.29995e+07 605.833 L 8.30005e+07 605.833 L 8.30005e+07 8.30005e+07 L -8.29995e+07 8.30005e+07 Z" stroke-width="5." stroke="lightblue" fill="lightblue" fill-opacity="1" />
</g>
<g id="Region_1" clip-path="url(#Region_1_clip)">
    <path d="M 707.917 605.833 L 707.917 605.833 L 707.913 604.315 L 707.903 602.797 L 707.886 601.278 L 707.862 599.76 L 707.831 598.242 L 707.794 596.725 L 707.749 595.208 L 707.698 593.691 L 707.64 592.175 L 707.575 590.659 L 707.504 589.144 L 707.425 587.629 L 707.34 586.116 L 707.248 584.603 L 707.149 583.09 L 707.044 581.579 L 706.931 580.069 L 706.812 578.56 L 706.686 577.052 L 706.553 575.544 L 706.414 574.039 L 706.267 572.534 L 706.114 571.031 L 705.954 569.529 L 705.788 568.028 L 705.614 566.529 L 705.434 565.032 L 705.248 563.536 L 705.054 562.042 L 704.854 560.55 L 704.647 559.059 L 704.433 557.57 L 704.213 556.083 L 703.986 554.598 L 703.752 553.115 L 703.512 551.635 L 703.265 550.156 L 703.011 548.679 L 702.751 547.205 L 702.484 545.733 L 702.211 544.264 L 701.931 542.797 L 701.644 541.332 L 701.351 539.87 L 701.051 538.41 L 700.744 536.954 L 700.431 535.5 L 700.112 534.048 L 699.786 532.6 L 699.454 531.154 L 699.115 529.712 L 698.769 528.272 L 698.417 526.835 L 698.059 525.402 L 697.694 523.972 L 697.323 522.545 L 696.945 521.121 L 696.561 519.7 L 696.171 518.283 L 695.774 516.87 L 695.371 515.46 L 694.961 514.053 L 694.545 512.651 L 694.123 511.251 L 693.695 509.856 L 693.26 508.464 L 692.82 507.076 L 692.372 505.693 L 691.919 504.313 L 691.46 502.937 L 690.994 501.565 L 690.522 500.197 L 690.044 498.833 L 689.56 497.474 L 689.07 496.119 L 688.574 494.768 L 688.071 493.422 L 687.563 492.08 L 687.048 490.742 L 686.528 489.41 L 686.002 488.081 L 685.469 486.758 L 684.931 485.439 L 684.387 484.124 L 683.837 482.815 L 683.281 481.51 L 682.719 480.211 L 682.151 478.916 L 681.578 477.626 L 680.998 476.342 L 680.413 475.062 L 679.823 473.788 L 679.226 472.519 L 678.624 471.255 L 678.016 469.997 L 677.403 468.743 L 676.783 467.496 L 676.159 466.253 L 675.528 465.016 L 674.893 463.785 L 674.251 462.56 L 673.604 461.34 L 672.952 460.125 L 672.294 458.917 L 671.631 457.714 L 670.962 456.517 L 670.288 455.326 L 669.609 454.141 L 668.924 452.962 L 668.235 451.789 L 667.539 450.622 L 666.839 449.461 L 666.133 448.307 L 665.423 447.158 L 664.707 446.016 L 663.986 444.88 L 663.26 443.751 L 662.528 442.628 L 661.792 441.511 L 661.051 440.401 L 660.305 439.297 L 659.553 438.2 L 658.797 437.11 L 658.036 436.026 L 657.271 434.949 L 656.5 433.879 L 655.724 432.815 L 654.944 431.759 L 654.159 430.709 L 653.37 429.666 L 652.575 428.63 L 651.776 427.601 L 650.973 426.579 L 650.165 425.564 L 649.352 424.556 L 648.535 423.556 L 647.713 422.563 L 646.887 421.576 L 646.056 420.598 L 645.221 419.626 L 644.382 418.662 L 643.538 417.705 L 642.69 416.756 L 641.838 415.814 L 640.982 414.879 L 640.121 413.952 L 639.257 413.033 L 638.388 412.121 L 637.515 411.217 L 636.638 410.321 L 635.757 409.432 L 634.872 408.551 L 633.983 407.678 L 633.09 406.813 L 632.194 405.956 L 631.293 405.106 L 630.389 404.264 L 629.481 403.431 L 628.569 402.605 L 627.653 401.787 L 626.734 400.978 L 625.811 400.176 L 624.885 399.383 L 623.955 398.598 L 623.022 397.821 L 622.085 397.052 L 621.145 396.291 L 620.201 395.539 L 619.254 394.795 L 618.303 394.059 L 617.35 393.332 L 616.393 392.613 L 615.432 391.902 L 614.469 391.2 L 613.503 390.507 L 612.533 389.822 L 611.56 389.145 L 610.585 388.477 L 609.606 387.818 L 608.624 387.167 L 607.64 386.525 L 606.652 385.891 L 605.662 385.266 L 604.669 384.65 L 603.673 384.043 L 602.675 383.444 L 601.674 382.854 L 600.67 382.273 L 599.664 381.701 L 598.655 381.137 L 597.643 380.583 L 596.63 380.037 L 595.613 379.5 L 594.595 378.973 L 593.573 378.454 L 592.55 377.944 L 591.524 377.443 L 590.496 376.951 L 589.466 376.468 L 588.434 375.995 L 587.4 375.53 L 586.363 375.074 L 585.325 374.628 L 584.285 374.191 L 583.242 373.762 L 582.198 373.343 L 581.152 372.933 L 580.104 372.533 L 579.054 372.141 L 578.003 371.759 L 576.949 371.386 L 575.895 371.022 L 574.838 370.668 L 573.78 370.323 L 572.721 369.987 L 571.66 369.66 L 570.597 369.343 L 569.533 369.035 L 568.468 368.736 L 567.401 368.447 L 566.333 368.167 L 565.264 367.897 L 564.194 367.636 L 563.123 367.384 L 562.05 367.142 L 560.977 366.909 L 559.902 366.686 L 558.826 366.472 L 557.75 366.267 L 556.672 366.072 L 555.594 365.887 L 554.515 365.711 L 553.435 365.544 L 552.354 365.387 L 551.273 365.239 L 550.191 365.101 L 549.108 364.972 L 548.025 364.853 L 546.942 364.744 L 545.858 364.644 L 544.773 364.553 L 543.688 364.472 L 542.603 364.4 L 541.517 364.338 L 540.431 364.286 L 539.345 364.243 L 538.259 364.21 L 537.173 364.186 L 536.086 364.171 L 535 364.167 L 533.914 364.171 L 532.827 364.186 L 531.741 364.21 L 530.655 364.243 L 529.569 364.286 L 528.483 364.338 L 527.397 364.4 L 526.312 364.472 L 525.227 364.553 L 524.142 364.644 L 523.058 364.744 L 521.975 364.853 L 520.892 364.972 L 519.809 365.101 L 518.727 365.239 L 517.646 365.387 L 516.565 365.544 L 515.485 365.711 L 514.406 365.887 L 513.328 366.072 L 512.25 366.267 L 511.174 366.472 L 510.098 366.686 L 509.023 366.909 L 507.95 367.142 L 506.877 367.384 L 505.806 367.636 L 504.736 367.897 L 503.667 368.167 L 502.599 368.447 L 501.532 368.736 L 500.467 369.035 L 499.403 369.343 L 498.34 369.66 L 497.279 369.987 L 496.22 370.323 L 495.162 370.668 L 494.105 371.022 L 493.051 371.386 L 491.997 371.759 L 490.946 372.141 L 489.896 372.533 L 488.848 372.933 L 487.802 373.343 L 486.758 373.762 L 485.715 374.191 L 484.675 374.628 L 483.637 375.074 L 482.6 375.53 L 481.566 375.995 L 480.534 376.468 L 479.504 376.951 L 478.476 377.443 L 477.45 377.944 L 476.427 378.454 L 475.405 378.973 L 474.387 379.5 L 473.37 380.037 L 472.357 380.583 L 471.345 381.137 L 470.336 381.701 L 469.33 382.273 L 468.326 382.854 L 467.325 383.444 L 466.327 384.043 L 465.331 384.65 L 464.338 385.266 L 463.348 385.891 L 462.36 386.525 L 461.376 387.167 L 460.394 387.818 L 459.415 388.477 L 458.44 389.145 L 457.467 389.822 L 456.497 390.507 L 455.531 391.2 L 454.568 391.902 L 453.607 392.613 L 452.65 393.332 L 451.697 394.059 L 450.746 394.795 L 449.799 395.539 L 448.855 396.291 L 447.915 397.052 L 446.978 397.821 L 446.045 398.598 L 445.115 399.383 L 444.189 400.176 L 443.266 400.978 L 442.347 401.787 L 441.431 402.605 L 440.519 403.431 L 439.611 404.264 L 438.707 405.106 L 437.806 405.956 L 436.91 406.813 L 436.017 407.678 L 435.128 408.551 L 434.243 409.432 L 433.362 410.321 L 432.485 411.217 L 431.612 412.121 L 430.743 413.033 L 429.879 413.952 L 429.018 414.879 L 428.162 415.814 L 427.31 416.756 L 426.462 417.705 L 425.618 418.662 L 424.779 419.626 L 423.944 420.598 L 423.113 421.576 L 422.287 422.563 L 421.465 423.556 L 420.648 424.556 L 419.835 425.564 L 419.027 426.579 L 418.224 427.601 L 417.425 428.63 L 416.63 429.666 L 415.841 430.709 L 415.056 431.759 L 414.276 432.815 L 413.5 433.879 L 412.729 434.949 L 411.964 436.026 L 411.203 437.11 L 410.447 438.2 L 409.695 439.297 L 408.949 440.401 L 408.208 441.511 L 407.472 442.628 L 406.74 443.751 L 406.014 444.88 L 405.293 446.016 L 404.577 447.158 L 403.867 448.307 L 403.161 449.461 L 402.461 450.622 L 401.765 451.789 L 401.076 452.962 L 400.391 454.141 L 399.712 455.326 L 399.038 456.517 L 398.369 457.714 L 397.706 458.917 L 397.048 460.125 L 396.396 461.34 L 395.749 462.56 L 395.107 463.785 L 394.472 465.016 L 393.841 466.253 L 393.217 467.496 L 392.597 468.743 L 391.984 469.997 L 391.376 471.255 L 390.774 472.519 L 390.177 473.788 L 389.587 475.062 L 389.002 476.342 L 388.422 477.626 L 387.849 478.916 L 387.281 480.211 L 386.719 481.51 L 386.163 482.815 L 385.613 484.124 L 385.069 485.439 L 384.531 486.758 L 383.998 488.081 L 383.472 489.41 L 382.952 490.742 L 382.437 492.08 L 381.929 493.422 L 381.426 494.768 L 380.93 496.119 L 380.44 497.474 L 379.956 498.833 L 379.478 500.197 L 379.006 501.565 L 378.54 502.937 L 378.081 504.313 L 377.628 505.693 L 377.18 507.076 L 376.74 508.464 L 376.305 509.856 L 375.877 511.251 L 375.455 512.651 L 375.039 514.053 L 374.629 515.46 L 374.226 516.87 L 373.829 518.283 L 373.439 519.7 L 373.055 521.121 L 372.677 522.545 L 372.306 523.972 L 371.941 525.402 L 371.583 526.835 L 371.231 528.272 L 370.885 529.712 L 370.546 531.154 L 370.214 532.6 L 369.888 534.048 L 369.569 535.5 L 369.256 536.954 L 368.949 538.41 L 368.649 539.87 L 368.356 541.332 L 368.069 542.797 L 367.789 544.264 L 367.516 545.733 L 367.249 547.205 L 366.989 548.679 L 366.735 550.156 L 366.488 551.635 L 366.248 553.115 L 366.014 554.598 L 365.787 556.083 L 365.567 557.57 L 365.353 559.059 L 365.146 560.55 L 364.946 562.042 L 364.752 563.536 L 364.566 565.032 L 364.386 566.529 L 364.212 568.028 L 364.046 569.529 L 363.886 571.031 L 363.733 572.534 L 363.586 574.039 L 363.447 575.544 L 363.314 577.052 L 363.188 578.56 L 363.069 580.069 L 362.956 581.579 L 362.851 583.09 L 362.752 584.603 L 362.66 586.116 L 362.575 587.629 L 362.496 589.144 L 362.425 590.659 L 362.36 592.175 L 362.302 593.691 L 362.251 595.208 L 362.206 596.725 L 362.169 598.242 L 362.138 599.76 L 362.114 601.278 L 362.097 602.797 L 362.087 604.315 L 362.083 605.833 L 362.087 607.352 L 362.097 608.87 L 362.114 610.388 L 362.138 611.906 L 362.169 613.424 L 362.206 614.942 L 362.251 616.459 L 362.302 617.976 L 362.36 619.492 L 362.425 621.008 L 362.496 622.523 L 362.575 624.037 L 362.66 625.551 L 362.752 627.064 L 362.851 628.576 L 362.956 630.087 L 363.069 631.598 L 363.188 633.107 L 363.314 634.615 L 363.447 636.122 L 363.586 637.628 L 363.733 639.133 L 363.886 640.636 L 364.046 642.138 L 364.212 643.638 L 364.386 645.137 L 364.566 646.635 L 364.752 648.131 L 364.946 649.625 L 365.146 651.117 L 365.353 652.608 L 365.567 654.097 L 365.787 655.583 L 366.014 657.068 L 366.248 658.551 L 366.488 660.032 L 366.735 661.511 L 366.989 662.987 L 367.249 664.461 L 367.516 665.933 L 367.789 667.403 L 368.069 668.87 L 368.356 670.335 L 368.649 671.797 L 368.949 673.256 L 369.256 674.713 L 369.569 676.167 L 369.888 677.618 L 370.214 679.067 L 370.546 680.512 L 370.885 681.955 L 371.231 683.395 L 371.583 684.831 L 371.941 686.265 L 372.306 687.695 L 372.677 689.122 L 373.055 690.546 L 373.439 691.966 L 373.829 693.383 L 374.226 694.797 L 374.629 696.207 L 375.039 697.613 L 375.455 699.016 L 375.877 700.415 L 376.305 701.811 L 376.74 703.202 L 377.18 704.59 L 377.628 705.974 L 378.081 707.354 L 378.54 708.73 L 379.006 710.102 L 379.478 711.47 L 379.956 712.833 L 380.44 714.193 L 380.93 715.548 L 381.426 716.898 L 381.929 718.245 L 382.437 719.587 L 382.952 720.924 L 383.472 722.257 L 383.998 723.585 L 384.531 724.909 L 385.069 726.228 L 385.613 727.542 L 386.163 728.852 L 386.719 730.156 L 387.281 731.456 L 387.849 732.751 L 388.422 734.04 L 389.002 735.325 L 389.587 736.604 L 390.177 737.879 L 390.774 739.148 L 391.376 740.412 L 391.984 741.67 L 392.597 742.923 L 393.217 744.171 L 393.841 745.413 L 394.472 746.65 L 395.107 747.881 L 395.749 749.107 L 396.396 750.327 L 397.048 751.541 L 397.706 752.75 L 398.369 753.953 L 399.038 755.149 L 399.712 756.34 L 400.391 757.525 L 401.076 758.704 L 401.765 759.877 L 402.461 761.044 L 403.161 762.205 L 403.867 763.36 L 404.577 764.508 L 405.293 765.65 L 406.014 766.786 L 406.74 767.916 L 407.472 769.039 L 408.208 770.155 L 408.949 771.266 L 409.695 772.369 L 410.447 773.466 L 411.203 774.557 L 411.964 775.64 L 412.729 776.717 L 413.5 777.788 L 414.276 778.851 L 415.056 779.908 L 415.841 780.958 L 416.63 782.001 L 417.425 783.037 L 418.224 784.066 L 419.027 785.088 L 419.835 786.102 L 420.648 787.11 L 421.465 788.111 L 422.287 789.104 L 423.113 790.09 L 423.944 791.069 L 424.779 792.041 L 425.618 793.005 L 426.462 793.962 L 427.31 794.911 L 428.162 795.853 L 429.018 796.787 L 429.879 797.714 L 430.743 798.634 L 431.612 799.545 L 432.485 800.449 L 433.362 801.346 L 434.243 802.234 L 435.128 803.115 L 436.017 803.988 L 436.91 804.854 L 437.806 805.711 L 438.707 806.561 L 439.611 807.402 L 440.519 808.236 L 441.431 809.062 L 442.347 809.879 L 443.266 810.689 L 444.189 811.49 L 445.115 812.284 L 446.045 813.069 L 446.978 813.846 L 447.915 814.615 L 448.855 815.375 L 449.799 816.128 L 450.746 816.872 L 451.697 817.607 L 452.65 818.335 L 453.607 819.054 L 454.568 819.764 L 455.531 820.466 L 456.497 821.16 L 457.467 821.845 L 458.44 822.522 L 459.415 823.19 L 460.394 823.849 L 461.376 824.5 L 462.36 825.142 L 463.348 825.776 L 464.338 826.4 L 465.331 827.017 L 466.327 827.624 L 467.325 828.223 L 468.326 828.813 L 469.33 829.394 L 470.336 829.966 L 471.345 830.529 L 472.357 831.084 L 473.37 831.629 L 474.387 832.166 L 475.405 832.694 L 476.427 833.213 L 477.45 833.723 L 478.476 834.224 L 479.504 834.715 L 480.534 835.198 L 481.566 835.672 L 482.6 836.137 L 483.637 836.592 L 484.675 837.039 L 485.715 837.476 L 486.758 837.904 L 487.802 838.323 L 488.848 838.733 L 489.896 839.134 L 490.946 839.525 L 491.997 839.908 L 493.051 840.281 L 494.105 840.644 L 495.162 840.999 L 496.22 841.344 L 497.279 841.68 L 498.34 842.006 L 499.403 842.324 L 500.467 842.632 L 501.532 842.93 L 502.599 843.219 L 503.667 843.499 L 504.736 843.77 L 505.806 844.031 L 506.877 844.282 L 507.95 844.525 L 509.023 844.758 L 510.098 844.981 L 511.174 845.195 L 512.25 845.399 L 513.328 845.594 L 514.406 845.78 L 515.485 845.956 L 516.565 846.123 L 517.646 846.28 L 518.727 846.427 L 519.809 846.566 L 520.892 846.694 L 521.975 846.813 L 523.058 846.923 L 524.142 847.023 L 525.227 847.114 L 526.312 847.195 L 527.397 847.266 L 528.483 847.328 L 529.569 847.381 L 530.655 847.424 L 531.741 847.457 L 532.827 847.481 L 533.914 847.495 L 535 847.5 L 536.086 847.495 L 537.173 847.481 L 538.259 847.457 L 539.345 847.424 L 540.431 847.381 L 541.517 847.328 L 542.603 847.266 L 543.688 847.195 L 544.773 847.114 L 545.858 847.023 L 546.942 846.923 L 548.025 846.813 L 549.108 846.694 L 550.191 846.566 L 551.273 846.427 L 552.354 846.28 L 553.435 846.123 L 554.515 845.956 L 555.594 845.78 L 556.672 845.594 L 557.75 845.399 L 558.826 845.195 L 559.902 844.981 L 560.977 844.758 L 562.05 844.525 L 563.123 844.282 L 564.194 844.031 L 565.264 843.77 L 566.333 843.499 L 567.401 843.219 L 568.468 842.93 L 569.533 842.632 L 570.597 842.324 L 571.66 842.006 L 572.721 841.68 L 573.78 841.344 L 574.838 840.999 L 575.895 840.644 L 576.949 840.281 L 578.003 839.908 L 579.054 839.525 L 580.104 839.134 L 581.152 838.733 L 582.198 838.323 L 583.242 837.904 L 584.285 837.476 L 585.325 837.039 L 586.363 836.592 L 587.4 836.137 L 588.434 835.672 L 589.466 835.198 L 590.496 834.715 L 591.524 834.224 L 592.55 833.723 L 593.573 833.213 L 594.595 832.694 L 595.613 832.166 L 596.63 831.629 L 597.643 831.084 L 598.655 830.529 L 599.664 829.966 L 600.67 829.394 L 601.674 828.813 L 602.675 828.223 L 603.673 827.624 L 604.669 827.017 L 605.662 826.4 L 606.652 825.776 L 607.64 825.142 L 608.624 824.5 L 609.606 823.849 L 610.585 823.19 L 611.56 822.522 L 612.533 821.845 L 613.503 821.16 L 614.469 820.466 L 615.432 819.764 L 616.393 819.054 L 617.35 818.335 L 618.303 817.607 L 619.254 816.872 L 620.201 816.128 L 621.145 815.375 L 622.085 814.615 L 623.022 813.846 L 623.955 813.069 L 624.885 812.284 L 625.811 811.49 L 626.734 810.689 L 627.653 809.879 L 628.569 809.062 L 629.481 808.236 L 630.389 807.402 L 631.293 806.561 L 632.194 805.711 L 633.09 804.854 L 633.983 803.988 L 634.872 803.115 L 635.757 802.234 L 636.638 801.346 L 637.515 800.449 L 638.388 799.545 L 639.257 798.634 L 640.121 797.714 L 640.982 796.787 L 641.838 795.853 L 642.69 794.911 L 643.538 793.962 L 644.382 793.005 L 645.221 792.041 L 646.056 791.069 L 646.887 790.09 L 647.713 789.104 L 648.535 788.111 L 649.352 787.11 L 650.165 786.102 L 650.973 785.088 L 651.776 784.066 L 652.575 783.037 L 653.37 782.001 L 654.159 780.958 L 654.944 779.908 L 655.724 778.851 L 656.5 777.788 L 657.271 776.717 L 658.036 775.64 L 658.797 774.557 L 659.553 773.466 L 660.305 772.369 L 661.051 771.266 L 661.792 770.155 L 662.528 769.039 L 663.26 767.916 L 663.986 766.786 L 664.707 765.65 L 665.423 764.508 L 666.133 763.36 L 666.839 762.205 L 667.539 761.044 L 668.235 759.877 L 668.924 758.704 L 669.609 757.525 L 670.288 756.34 L 670.962 755.149 L 671.631 753.953 L 672.294 752.75 L 672.952 751.541 L 673.604 750.327 L 674.251 749.107 L 674.893 747.881 L 675.528 746.65 L 676.159 745.413 L 676.783 744.171 L 677.403 742.923 L 678.016 741.67 L 678.624 740.412 L 679.226 739.148 L 679.823 737.879 L 680.413 736.604 L 680.998 735.325 L 681.578 734.04 L 682.151 732.751 L 682.719 731.456 L 683.281 730.156 L 683.837 728.852 L 684.387 727.542 L 684.931 726.228 L 685.469 724.909 L 686.002 723.585 L 686.528 722.257 L 687.048 720.924 L 687.563 719.587 L 688.071 718.245 L 688.574 716.898 L 689.07 715.548 L 689.56 714.193 L 690.044 712.833 L 690.522 711.47 L 690.994 710.102 L 691.46 708.73 L 691.919 707.354 L 692.372 705.974 L 692.82 704.59 L 693.26 703.202 L 693.695 701.811 L 694.123 700.415 L 694.545 699.016 L 694.961 697.613 L 695.371 696.207 L 695.774 694.797 L 696.171 693.383 L 696.561 691.966 L 696.945 690.546 L 697.323 689.122 L 697.694 687.695 L 698.059 686.265 L 698.417 684.831 L 698.769 683.395 L 699.115 681.955 L 699.454 680.512 L 699.786 679.067 L 700.112 677.618 L 700.431 676.167 L 700.744 674.713 L 701.051 673.256 L 701.351 671.797 L 701.644 670.335 L 701.931 668.87 L 702.211 667.403 L 702.484 665.933 L 702.751 664.461 L 703.011 662.987 L 703.265 661.511 L 703.512 660.032 L 703.752 658.551 L 703.986 657.068 L 704.213 655.583 L 704.433 654.097 L 704.647 652.608 L 704.854 651.117 L 705.054 649.625 L 705.248 648.131 L 705.434 646.635 L 705.614 645.137 L 705.788 643.638 L 705.954 642.138 L 706.114 640.636 L 706.267 639.133 L 706.414 637.628 L 706.553 636.122 L 706.686 634.615 L 706.812 633.107 L 706.931 631.598 L 707.044 630.087 L 707.149 628.576 L 707.248 627.064 L 707.34 625.551 L 707.425 624.037 L 707.504 622.523 L 707.575 621.008 L 707.64 619.492 L 707.698 617.976 L 707.749 616.459 L 707.794 614.942 L 707.831 613.424 L 707.862 611.906 L 707.886 610.388 L 707.903 608.87 L 707.913 607.352 Z" stroke-width="5." stroke="yellow" fill="yellow" fill-opacity="1" />
</g>
<g id="Region_2" clip-path="url(#Region_2_clip)">
    <path d="M 707.917 364.167 L 880.833 364.167 L 8.30005e+07 -1.66e+08 L 1.66001e+08 -8.29995e+07 L 707.917 122.5 Z" stroke-width="5." stroke="pink" fill="pink" fill-opacity="1" />
</g>
<g id="Region_3" clip-path="url(#Region_3_clip)">
    <path d="M 362.083 364.167 L 189.167 364.167 L -8.29995e+07 -1.66e+08 L -1.65999e+08 -8.29995e+07 L 362.083 122.5 Z" stroke-width="5." stroke="lightgreen" fill="lightgreen" fill-opacity="1" />
</g>
<g id="frame_0">
    <rect id="frame_0_border" x="120" y="50" width="830" height="870" />
    <g id="frame_0_bottomticks">
        <path d="M 275.625 920 L 275.625 900" />
        <text font-size="30" transform="translate(275.625, 950)" text-anchor="middle" dominant-baseline="middle" stroke="none" fill="black">‒1.5</text>
        <path d="M 448.542 920 L 448.542 900" />
        <text font-size="30" transform="translate(448.542, 950)" text-anchor="middle" dominant-baseline="middle" stroke="none" fill="black">‒0.5</text>
        <path d="M 880.833 920 L 880.833 900" />
        <text font-size="30" transform="translate(880.833, 950)" text-anchor="middle" dominant-baseline="middle" stroke="none" fill="black">2</text>
        <path d="M 828.958 920 L 828.958 910" />
        <path d="M 621.458 920 L 621.458 900" />
        <text font-size="30" transform="translate(621.458, 950)" text-anchor="middle" dominant-baseline="middle" stroke="none" fill="black">0.5</text>
        <path d="M 707.917 920 L 707.917 900" />
        <text font-size="30" transform="translate(707.917, 950)" text-anchor="middle" dominant-baseline="middle" stroke="none" fill="black">1</text>
        <path d="M 206.458 920 L 206.458 910" />
        <path d="M 604.167 920 L 604.167 910" />
        <path d="M 777.083 920 L 777.083 910" />
        <path d="M 656.042 920 L 656.042 910" />
        <path d="M 465.833 920 L 465.833 910" />
        <path d="M 725.208 920 L 725.208 910" />
        <path d="M 396.667 920 L 396.667 910" />
        <path d="M 344.792 920 L 344.792 910" />
        <path d="M 535 920 L 535 900" />
        <text font-size="30" transform="translate(535, 950)" text-anchor="middle" dominant-baseline="middle" stroke="none" fill="black">0</text>
        <path d="M 431.25 920 L 431.25 910" />
        <path d="M 898.125 920 L 898.125 910" />
        <path d="M 500.417 920 L 500.417 910" />
        <path d="M 863.542 920 L 863.542 910" />
        <path d="M 171.875 920 L 171.875 910" />
        <path d="M 690.625 920 L 690.625 910" />
        <path d="M 483.125 920 L 483.125 910" />
        <path d="M 241.042 920 L 241.042 910" />
        <path d="M 120 920 L 120 910" />
        <path d="M 811.667 920 L 811.667 910" />
        <path d="M 137.292 920 L 137.292 910" />
        <path d="M 794.375 920 L 794.375 900" />
        <text font-size="30" transform="translate(794.375, 950)" text-anchor="middle" dominant-baseline="middle" stroke="none" fill="black">1.5</text>
        <path d="M 759.792 920 L 759.792 910" />
        <path d="M 638.75 920 L 638.75 910" />
        <path d="M 586.875 920 L 586.875 910" />
        <path d="M 379.375 920 L 379.375 910" />
        <path d="M 154.583 920 L 154.583 910" />
        <path d="M 223.75 920 L 223.75 910" />
        <path d="M 327.5 920 L 327.5 910" />
        <path d="M 673.333 920 L 673.333 910" />
        <path d="M 742.5 920 L 742.5 910" />
        <path d="M 552.292 920 L 552.292 910" />
        <path d="M 569.583 920 L 569.583 910" />
        <path d="M 292.917 920 L 292.917 910" />
        <path d="M 846.25 920 L 846.25 910" />
        <path d="M 915.417 920 L 915.417 910" />
        <path d="M 413.958 920 L 413.958 910" />
        <path d="M 362.083 920 L 362.083 900" />
        <text font-size="30" transform="translate(362.083, 950)" text-anchor="middle" dominant-baseline="middle" stroke="none" fill="black">‒1</text>
        <path d="M 932.708 920 L 932.708 910" />
        <path d="M 310.208 920 L 310.208 910" />
        <path d="M 189.167 920 L 189.167 900" />
        <text font-size="30" transform="translate(189.167, 950)" text-anchor="middle" dominant-baseline="middle" stroke="none" fill="black">‒2</text>
        <path d="M 517.708 920 L 517.708 910" />
        <path d="M 258.333 920 L 258.333 910" />
    </g>
    <g id="frame_0_leftticks">
        <path d="M 120 726.667 L 140 726.667" />
        <text font-size="30" transform="translate(110, 736.667)" text-anchor="end" dominant-baseline="middle" stroke="none" fill="black">‒0.5</text>
        <path d="M 120 605.833 L 140 605.833" />
        <text font-size="30" transform="translate(110, 615.833)" text-anchor="end" dominant-baseline="middle" stroke="none" fill="black">0</text>
        <path d="M 120 122.5 L 140 122.5" />
        <text font-size="30" transform="translate(110, 132.5)" text-anchor="end" dominant-baseline="middle" stroke="none" fill="black">2</text>
        <path d="M 120 243.333 L 140 243.333" />
        <text font-size="30" transform="translate(110, 253.333)" text-anchor="end" dominant-baseline="middle" stroke="none" fill="black">1.5</text>
        <path d="M 120 364.167 L 140 364.167" />
        <text font-size="30" transform="translate(110, 374.167)" text-anchor="end" dominant-baseline="middle" stroke="none" fill="black">1</text>
        <path d="M 120 98.3333 L 130 98.3333" />
        <path d="M 120 267.5 L 130 267.5" />
        <path d="M 120 436.667 L 130 436.667" />
        <path d="M 120 630 L 130 630" />
        <path d="M 120 654.167 L 130 654.167" />
        <path d="M 120 485 L 140 485" />
        <text font-size="30" transform="translate(110, 495)" text-anchor="end" dominant-baseline="middle" stroke="none" fill="black">0.5</text>
        <path d="M 120 750.833 L 130 750.833" />
        <path d="M 120 170.833 L 130 170.833" />
        <path d="M 120 291.667 L 130 291.667" />
        <path d="M 120 895.833 L 130 895.833" />
        <path d="M 120 678.333 L 130 678.333" />
        <path d="M 120 557.5 L 130 557.5" />
        <path d="M 120 195 L 130 195" />
        <path d="M 120 533.333 L 130 533.333" />
        <path d="M 120 460.833 L 130 460.833" />
        <path d="M 120 315.833 L 130 315.833" />
        <path d="M 120 920 L 130 920" />
        <path d="M 120 823.333 L 130 823.333" />
        <path d="M 120 340 L 130 340" />
        <path d="M 120 412.5 L 130 412.5" />
        <path d="M 120 871.667 L 130 871.667" />
        <path d="M 120 509.167 L 130 509.167" />
        <path d="M 120 581.667 L 130 581.667" />
        <path d="M 120 775 L 130 775" />
        <path d="M 120 74.1667 L 130 74.1667" />
        <path d="M 120 799.167 L 130 799.167" />
        <path d="M 120 146.667 L 130 146.667" />
        <path d="M 120 847.5 L 140 847.5" />
        <text font-size="30" transform="translate(110, 857.5)" text-anchor="end" dominant-baseline="middle" stroke="none" fill="black">‒1</text>
        <path d="M 120 388.333 L 130 388.333" />
        <path d="M 120 219.167 L 130 219.167" />
        <path d="M 120 702.5 L 130 702.5" />
    </g>
    <g id="frame_0_topticks">
        <path d="M 275.625 50 L 275.625 70" />
        <path d="M 448.542 50 L 448.542 70" />
        <path d="M 880.833 50 L 880.833 70" />
        <path d="M 828.958 50 L 828.958 60" />
        <path d="M 621.458 50 L 621.458 70" />
        <path d="M 707.917 50 L 707.917 70" />
        <path d="M 206.458 50 L 206.458 60" />
        <path d="M 604.167 50 L 604.167 60" />
        <path d="M 777.083 50 L 777.083 60" />
        <path d="M 656.042 50 L 656.042 60" />
        <path d="M 465.833 50 L 465.833 60" />
        <path d="M 725.208 50 L 725.208 60" />
        <path d="M 396.667 50 L 396.667 60" />
        <path d="M 344.792 50 L 344.792 60" />
        <path d="M 535 50 L 535 70" />
        <path d="M 431.25 50 L 431.25 60" />
        <path d="M 898.125 50 L 898.125 60" />
        <path d="M 500.417 50 L 500.417 60" />
        <path d="M 863.542 50 L 863.542 60" />
        <path d="M 171.875 50 L 171.875 60" />
        <path d="M 690.625 50 L 690.625 60" />
        <path d="M 483.125 50 L 483.125 60" />
        <path d="M 241.042 50 L 241.042 60" />
        <path d="M 120 50 L 120 60" />
        <path d="M 811.667 50 L 811.667 60" />
        <path d="M 137.292 50 L 137.292 60" />
        <path d="M 794.375 50 L 794.375 70" />
        <path d="M 759.792 50 L 759.792 60" />
        <path d="M 638.75 50 L 638.75 60" />
        <path d="M 586.875 50 L 586.875 60" />
        <path d="M 379.375 50 L 379.375 60" />
        <path d="M 154.583 50 L 154.583 60" />
        <path d="M 223.75 50 L 223.75 60" />
        <path d="M 327.5 50 L 327.5 60" />
        <path d="M 673.333 50 L 673.333 60" />
        <path d="M 742.5 50 L 742.5 60" />
        <path d="M 552.292 50 L 552.292 60" />
        <path d="M 569.583 50 L 569.583 60" />
        <path d="M 292.917 50 L 292.917 60" />
        <path d="M 846.25 50 L 846.25 60" />
        <path d="M 915.417 50 L 915.417 60" />
        <path d="M 413.958 50 L 413.958 60" />
        <path d="M 362.083 50 L 362.083 70" />
        <path d="M 932.708 50 L 932.708 60" />
        <path d="M 310.208 50 L 310.208 60" />
        <path d="M 189.167 50 L 189.167 70" />
        <path d="M 517.708 50 L 517.708 60" />
        <path d="M 258.333 50 L 258.333 60" />
    </g>
    <g id="frame_0_rightticks">
        <path d="M 950 726.667 L 930 726.667" />
        <path d="M 950 605.833 L 930 605.833" />
        <path d="M 950 122.5 L 930 122.5" />
        <path d="M 950 243.333 L 930 243.333" />
        <path d="M 950 364.167 L 930 364.167" />
        <path d="M 950 98.3333 L 940 98.3333" />
        <path d="M 950 267.5 L 940 267.5" />
        <path d="M 950 436.667 L 940 436.667" />
        <path d="M 950 630 L 940 630" />
        <path d="M 950 654.167 L 940 654.167" />
        <path d="M 950 485 L 930 485" />
        <path d="M 950 750.833 L 940 750.833" />
        <path d="M 950 170.833 L 940 170.833" />
        <path d="M 950 291.667 L 940 291.667" />
        <path d="M 950 895.833 L 940 895.833" />
        <path d="M 950 678.333 L 940 678.333" />
        <path d="M 950 557.5 L 940 557.5" />
        <path d="M 950 195 L 940 195" />
        <path d="M 950 533.333 L 940 533.333" />
        <path d="M 950 460.833 L 940 460.833" />
        <path d="M 950 315.833 L 940 315.833" />
        <path d="M 950 920 L 940 920" />
        <path d="M 950 823.333 L 940 823.333" />
        <path d="M 950 340 L 940 340" />
        <path d="M 950 412.5 L 940 412.5" />
        <path d="M 950 871.667 L 940 871.667" />
        <path d="M 950 509.167 L 940 509.167" />
        <path d="M 950 581.667 L 940 581.667" />
        <path d="M 950 775 L 940 775" />
        <path d="M 950 74.1667 L 940 74.1667" />
        <path d="M 950 799.167 L 940 799.167" />
        <path d="M 950 146.667 L 940 146.667" />
        <path d="M 950 847.5 L 930 847.5" />
        <path d="M 950 388.333 L 940 388.333" />
        <path d="M 950 219.167 L 940 219.167" />
        <path d="M 950 702.5 L 940 702.5" />
    </g>
</g>
</g>
</svg>
