<?xml version="1.0" standalone="no"?>
<!DOCTYPE svg PUBLIC "-//W3C//DTD SVG 1.1//EN" "http://www.w3.org/Graphics/SVG/1.1/DTD/svg11.dtd">
<svg style="stroke-linejoin:miter; stroke:black; stroke-width:2.5; text-anchor:middle; fill:none" xmlns="http://www.w3.org/2000/svg" font-family="Helvetica, Arial, FreeSans, Sans, sans, sans-serif" width="2000px" height="1000px" version="1.1" xmlns:xlink="http://www.w3.org/1999/xlink" viewBox="0 0 2000 1000">
<defs>
    <clipPath id="Scatter_0_clip">
        <rect x="80" y="50" width="553.333" height="870" />
    </clipPath>
    <circle id="Scatter_0_mark" cx="0" cy="0" r="7.5" stroke="none" stroke-opacity="1" fill="black" fill-opacity="1" />
    <clipPath id="Scatter_1_clip">
        <rect x="746.667" y="50" width="553.333" height="870" />
    </clipPath>
    <circle id="Scatter_1_mark" cx="0" cy="0" r="7.5" stroke="none" stroke-opacity="1" fill="black" fill-opacity="1" />
    <clipPath id="Scatter_2_clip">
        <rect x="1413.33" y="50" width="553.333" height="870" />
    </clipPath>
    <circle id="Scatter_2_mark" cx="0" cy="0" r="7.5" stroke="none" stroke-opacity="1" fill="black" fill-opacity="1" />
</defs>
<g id="whole_document">
<rect id="background" x="0" y="0" width="2000" height="1000" stroke="none" fill="white" />
<g id="Scatter_0" clip-path="url(#Scatter_0_clip)">
    <use x="373.842" y="489.879" xlink:href="#Scatter_0_mark" />
    <use x="465.32" y="499.987" xlink:href="#Scatter_0_mark" />
    <use x="400.721" y="500.365" xlink:href="#Scatter_0_mark" />
    <use x="392.792" y="528.946" xlink:href="#Scatter_0_mark" />
    <use x="377.499" y="608.968" xlink:href="#Scatter_0_mark" />
    <use x="328.233" y="435.883" xlink:href="#Scatter_0_mark" />
    <use x="237.104" y="472.492" xlink:href="#Scatter_0_mark" />
    <use x="320.921" y="449.691" xlink:href="#Scatter_0_mark" />
    <use x="335.656" y="653.925" xlink:href="#Scatter_0_mark" />
    <use x="413.288" y="539.794" xlink:href="#Scatter_0_mark" />
    <use x="382.455" y="562.463" xlink:href="#Scatter_0_mark" />
    <use x="336.488" y="386.066" xlink:href="#Scatter_0_mark" />
    <use x="337.499" y="450.623" xlink:href="#Scatter_0_mark" />
    <use x="368.449" y="538.04" xlink:href="#Scatter_0_mark" />
    <use x="378.087" y="489.692" xlink:href="#Scatter_0_mark" />
    <use x="326.953" y="450.358" xlink:href="#Scatter_0_mark" />
    <use x="356.579" y="294.111" xlink:href="#Scatter_0_mark" />
    <use x="368.063" y="599.489" xlink:href="#Scatter_0_mark" />
    <use x="461.249" y="399.239" xlink:href="#Scatter_0_mark" />
    <use x="275.885" y="450.601" xlink:href="#Scatter_0_mark" />
</g>
<g id="frame_0">
    <rect id="frame_0_border" x="80" y="50" width="553.333" height="870" />
    <g id="frame_0_bottomticks">
        <path d="M 110.426 920 L 110.426 900" />
        <text font-size="30" transform="translate(110.426, 950)" text-anchor="middle" dominant-baseline="middle" stroke="none" fill="black">‒0.5</text>
        <path d="M 229.795 920 L 229.795 900" />
        <text font-size="30" transform="translate(229.795, 950)" text-anchor="middle" dominant-baseline="middle" stroke="none" fill="black">0</text>
        <path d="M 301.416 920 L 301.416 910" />
        <path d="M 587.901 920 L 587.901 900" />
        <text font-size="30" transform="translate(587.901, 950)" text-anchor="middle" dominant-baseline="middle" stroke="none" fill="black">1.5</text>
        <path d="M 468.532 920 L 468.532 900" />
        <text font-size="30" transform="translate(468.532, 950)" text-anchor="middle" dominant-baseline="middle" stroke="none" fill="black">1</text>
        <path d="M 373.037 920 L 373.037 910" />
        <path d="M 516.279 920 L 516.279 910" />
        <path d="M 325.29 920 L 325.29 910" />
        <path d="M 396.911 920 L 396.911 910" />
        <path d="M 564.027 920 L 564.027 910" />
        <path d="M 134.3 920 L 134.3 910" />
        <path d="M 611.774 920 L 611.774 910" />
        <path d="M 205.921 920 L 205.921 910" />
        <path d="M 349.163 920 L 349.163 900" />
        <text font-size="30" transform="translate(349.163, 950)" text-anchor="middle" dominant-baseline="middle" stroke="none" fill="black">0.5</text>
        <path d="M 253.668 920 L 253.668 910" />
        <path d="M 277.542 920 L 277.542 910" />
        <path d="M 182.047 920 L 182.047 910" />
        <path d="M 444.658 920 L 444.658 910" />
        <path d="M 540.153 920 L 540.153 910" />
        <path d="M 158.173 920 L 158.173 910" />
        <path d="M 492.406 920 L 492.406 910" />
        <path d="M 86.5523 920 L 86.5523 910" />
        <path d="M 420.785 920 L 420.785 910" />
    </g>
    <g id="frame_0_leftticks">
        <path d="M 80 845.168 L 100 845.168" />
        <text font-size="30" transform="translate(70, 855.168)" text-anchor="end" dominant-baseline="middle" stroke="none" fill="black">‒0.5</text>
        <path d="M 80 669.213 L 100 669.213" />
        <text font-size="30" transform="translate(70, 679.213)" text-anchor="end" dominant-baseline="middle" stroke="none" fill="black">0</text>
        <path d="M 80 141.348 L 100 141.348" />
        <text font-size="30" transform="translate(70, 151.348)" text-anchor="end" dominant-baseline="middle" stroke="none" fill="black">1.5</text>
        <path d="M 80 387.685 L 90 387.685" />
        <path d="M 80 246.921 L 90 246.921" />
        <path d="M 80 70.9665 L 90 70.9665" />
        <path d="M 80 422.876 L 90 422.876" />
        <path d="M 80 176.539 L 90 176.539" />
        <path d="M 80 809.977 L 90 809.977" />
        <path d="M 80 106.157 L 90 106.157" />
        <path d="M 80 704.404 L 90 704.404" />
        <path d="M 80 493.258 L 100 493.258" />
        <text font-size="30" transform="translate(70, 503.258)" text-anchor="end" dominant-baseline="middle" stroke="none" fill="black">0.5</text>
        <path d="M 80 352.494 L 90 352.494" />
        <path d="M 80 563.64 L 90 563.64" />
        <path d="M 80 634.022 L 90 634.022" />
        <path d="M 80 598.831 L 90 598.831" />
        <path d="M 80 915.55 L 90 915.55" />
        <path d="M 80 528.449 L 90 528.449" />
        <path d="M 80 739.595 L 90 739.595" />
        <path d="M 80 211.73 L 90 211.73" />
        <path d="M 80 458.067 L 90 458.067" />
        <path d="M 80 317.303 L 100 317.303" />
        <text font-size="30" transform="translate(70, 327.303)" text-anchor="end" dominant-baseline="middle" stroke="none" fill="black">1</text>
        <path d="M 80 880.359 L 90 880.359" />
        <path d="M 80 774.786 L 90 774.786" />
        <path d="M 80 282.112 L 90 282.112" />
    </g>
    <g id="frame_0_topticks">
        <path d="M 110.426 50 L 110.426 70" />
        <path d="M 229.795 50 L 229.795 70" />
        <path d="M 301.416 50 L 301.416 60" />
        <path d="M 587.901 50 L 587.901 70" />
        <path d="M 468.532 50 L 468.532 70" />
        <path d="M 373.037 50 L 373.037 60" />
        <path d="M 516.279 50 L 516.279 60" />
        <path d="M 325.29 50 L 325.29 60" />
        <path d="M 396.911 50 L 396.911 60" />
        <path d="M 564.027 50 L 564.027 60" />
        <path d="M 134.3 50 L 134.3 60" />
        <path d="M 611.774 50 L 611.774 60" />
        <path d="M 205.921 50 L 205.921 60" />
        <path d="M 349.163 50 L 349.163 70" />
        <path d="M 253.668 50 L 253.668 60" />
        <path d="M 277.542 50 L 277.542 60" />
        <path d="M 182.047 50 L 182.047 60" />
        <path d="M 444.658 50 L 444.658 60" />
        <path d="M 540.153 50 L 540.153 60" />
        <path d="M 158.173 50 L 158.173 60" />
        <path d="M 492.406 50 L 492.406 60" />
        <path d="M 86.5523 50 L 86.5523 60" />
        <path d="M 420.785 50 L 420.785 60" />
    </g>
    <g id="frame_0_rightticks">
        <path d="M 633.333 845.168 L 613.333 845.168" />
        <path d="M 633.333 669.213 L 613.333 669.213" />
        <path d="M 633.333 141.348 L 613.333 141.348" />
        <path d="M 633.333 387.685 L 623.333 387.685" />
        <path d="M 633.333 246.921 L 623.333 246.921" />
        <path d="M 633.333 70.9665 L 623.333 70.9665" />
        <path d="M 633.333 422.876 L 623.333 422.876" />
        <path d="M 633.333 176.539 L 623.333 176.539" />
        <path d="M 633.333 809.977 L 623.333 809.977" />
        <path d="M 633.333 106.157 L 623.333 106.157" />
        <path d="M 633.333 704.404 L 623.333 704.404" />
        <path d="M 633.333 493.258 L 613.333 493.258" />
        <path d="M 633.333 352.494 L 623.333 352.494" />
        <path d="M 633.333 563.64 L 623.333 563.64" />
        <path d="M 633.333 634.022 L 623.333 634.022" />
        <path d="M 633.333 598.831 L 623.333 598.831" />
        <path d="M 633.333 915.55 L 623.333 915.55" />
        <path d="M 633.333 528.449 L 623.333 528.449" />
        <path d="M 633.333 739.595 L 623.333 739.595" />
        <path d="M 633.333 211.73 L 623.333 211.73" />
        <path d="M 633.333 458.067 L 623.333 458.067" />
        <path d="M 633.333 317.303 L 613.333 317.303" />
        <path d="M 633.333 880.359 L 623.333 880.359" />
        <path d="M 633.333 774.786 L 623.333 774.786" />
        <path d="M 633.333 282.112 L 623.333 282.112" />
    </g>
</g>
<g id="Scatter_1" clip-path="url(#Scatter_1_clip)">
    <use x="1015.03" y="467.537" xlink:href="#Scatter_1_mark" />
    <use x="989.739" y="605.116" xlink:href="#Scatter_1_mark" />
    <use x="1004.71" y="461.336" xlink:href="#Scatter_1_mark" />
    <use x="1076.35" y="542.033" xlink:href="#Scatter_1_mark" />
    <use x="1103" y="504.951" xlink:href="#Scatter_1_mark" />
    <use x="1018.04" y="649.285" xlink:href="#Scatter_1_mark" />
    <use x="986.636" y="611.33" xlink:href="#Scatter_1_mark" />
    <use x="1051.7" y="471.365" xlink:href="#Scatter_1_mark" />
    <use x="1049.99" y="420.558" xlink:href="#Scatter_1_mark" />
    <use x="927.347" y="544.942" xlink:href="#Scatter_1_mark" />
    <use x="957.824" y="587.911" xlink:href="#Scatter_1_mark" />
    <use x="1113.32" y="523.32" xlink:href="#Scatter_1_mark" />
    <use x="1110.88" y="438.223" xlink:href="#Scatter_1_mark" />
    <use x="1097.88" y="518.701" xlink:href="#Scatter_1_mark" />
    <use x="1026.57" y="583.102" xlink:href="#Scatter_1_mark" />
    <use x="1064.23" y="434.681" xlink:href="#Scatter_1_mark" />
    <use x="1052.09" y="504.823" xlink:href="#Scatter_1_mark" />
    <use x="1024.74" y="408.066" xlink:href="#Scatter_1_mark" />
    <use x="1057" y="545.553" xlink:href="#Scatter_1_mark" />
    <use x="1078.73" y="388.766" xlink:href="#Scatter_1_mark" />
    <use x="1033.14" y="448.452" xlink:href="#Scatter_1_mark" />
    <use x="1004.37" y="552.559" xlink:href="#Scatter_1_mark" />
    <use x="979.967" y="448.709" xlink:href="#Scatter_1_mark" />
    <use x="1106.66" y="514.335" xlink:href="#Scatter_1_mark" />
    <use x="951.834" y="517.337" xlink:href="#Scatter_1_mark" />
    <use x="1111.63" y="503.822" xlink:href="#Scatter_1_mark" />
    <use x="1014.93" y="390.994" xlink:href="#Scatter_1_mark" />
    <use x="976.211" y="559.922" xlink:href="#Scatter_1_mark" />
    <use x="975.561" y="527.361" xlink:href="#Scatter_1_mark" />
    <use x="1074.7" y="512.798" xlink:href="#Scatter_1_mark" />
    <use x="1099.97" y="521.481" xlink:href="#Scatter_1_mark" />
    <use x="1012.89" y="605.47" xlink:href="#Scatter_1_mark" />
    <use x="1013.84" y="479.756" xlink:href="#Scatter_1_mark" />
    <use x="1068.72" y="545.908" xlink:href="#Scatter_1_mark" />
    <use x="956.872" y="457.016" xlink:href="#Scatter_1_mark" />
    <use x="1009.56" y="330.977" xlink:href="#Scatter_1_mark" />
    <use x="1061.92" y="589.939" xlink:href="#Scatter_1_mark" />
    <use x="1086.31" y="503.82" xlink:href="#Scatter_1_mark" />
    <use x="1041.93" y="388.38" xlink:href="#Scatter_1_mark" />
    <use x="1022.07" y="589.399" xlink:href="#Scatter_1_mark" />
    <use x="1016.17" y="529.058" xlink:href="#Scatter_1_mark" />
    <use x="1024.08" y="452.956" xlink:href="#Scatter_1_mark" />
    <use x="966.815" y="419.614" xlink:href="#Scatter_1_mark" />
    <use x="1010.61" y="555.341" xlink:href="#Scatter_1_mark" />
    <use x="1090.18" y="552.646" xlink:href="#Scatter_1_mark" />
    <use x="1000.41" y="510.733" xlink:href="#Scatter_1_mark" />
    <use x="929.293" y="559.658" xlink:href="#Scatter_1_mark" />
    <use x="1126.41" y="418.973" xlink:href="#Scatter_1_mark" />
    <use x="1006.98" y="402.853" xlink:href="#Scatter_1_mark" />
    <use x="978.896" y="571.328" xlink:href="#Scatter_1_mark" />
    <use x="943.869" y="490.219" xlink:href="#Scatter_1_mark" />
    <use x="981.735" y="378.039" xlink:href="#Scatter_1_mark" />
    <use x="1054.19" y="400.95" xlink:href="#Scatter_1_mark" />
    <use x="1018.48" y="499.676" xlink:href="#Scatter_1_mark" />
    <use x="973.417" y="460.362" xlink:href="#Scatter_1_mark" />
    <use x="1065.72" y="533.472" xlink:href="#Scatter_1_mark" />
    <use x="1056.8" y="424.909" xlink:href="#Scatter_1_mark" />
    <use x="992.771" y="492.283" xlink:href="#Scatter_1_mark" />
    <use x="1072.33" y="553.488" xlink:href="#Scatter_1_mark" />
    <use x="1016.11" y="531.492" xlink:href="#Scatter_1_mark" />
    <use x="1055.67" y="465.023" xlink:href="#Scatter_1_mark" />
    <use x="993.599" y="503.15" xlink:href="#Scatter_1_mark" />
    <use x="992.176" y="456.119" xlink:href="#Scatter_1_mark" />
    <use x="1004.94" y="506.282" xlink:href="#Scatter_1_mark" />
    <use x="1017.47" y="512.185" xlink:href="#Scatter_1_mark" />
    <use x="1112.96" y="585.108" xlink:href="#Scatter_1_mark" />
    <use x="1018.38" y="524.606" xlink:href="#Scatter_1_mark" />
    <use x="1017.38" y="452.644" xlink:href="#Scatter_1_mark" />
    <use x="971.908" y="401.93" xlink:href="#Scatter_1_mark" />
    <use x="1004.54" y="495.016" xlink:href="#Scatter_1_mark" />
    <use x="1063.85" y="451.676" xlink:href="#Scatter_1_mark" />
    <use x="950.722" y="503.37" xlink:href="#Scatter_1_mark" />
    <use x="928.765" y="371.203" xlink:href="#Scatter_1_mark" />
    <use x="971.166" y="442.195" xlink:href="#Scatter_1_mark" />
    <use x="1044.24" y="564.85" xlink:href="#Scatter_1_mark" />
    <use x="985.65" y="492.306" xlink:href="#Scatter_1_mark" />
    <use x="1023.42" y="545.588" xlink:href="#Scatter_1_mark" />
    <use x="983.325" y="360.429" xlink:href="#Scatter_1_mark" />
    <use x="1041.87" y="461.511" xlink:href="#Scatter_1_mark" />
    <use x="1029.08" y="522.084" xlink:href="#Scatter_1_mark" />
    <use x="1018.04" y="437.134" xlink:href="#Scatter_1_mark" />
    <use x="991.165" y="664.456" xlink:href="#Scatter_1_mark" />
    <use x="1018.6" y="580" xlink:href="#Scatter_1_mark" />
    <use x="1044.22" y="483.205" xlink:href="#Scatter_1_mark" />
    <use x="1030.06" y="535.292" xlink:href="#Scatter_1_mark" />
    <use x="1074.35" y="447.021" xlink:href="#Scatter_1_mark" />
    <use x="1002.69" y="476.146" xlink:href="#Scatter_1_mark" />
    <use x="984.635" y="436.735" xlink:href="#Scatter_1_mark" />
    <use x="916.243" y="389.429" xlink:href="#Scatter_1_mark" />
    <use x="1065.27" y="428.86" xlink:href="#Scatter_1_mark" />
    <use x="1055.16" y="485.818" xlink:href="#Scatter_1_mark" />
    <use x="921.718" y="454.272" xlink:href="#Scatter_1_mark" />
    <use x="1019.36" y="497.28" xlink:href="#Scatter_1_mark" />
    <use x="947.607" y="452.681" xlink:href="#Scatter_1_mark" />
    <use x="1025.27" y="486.371" xlink:href="#Scatter_1_mark" />
    <use x="1013.65" y="523.541" xlink:href="#Scatter_1_mark" />
    <use x="964.58" y="484.339" xlink:href="#Scatter_1_mark" />
    <use x="981.114" y="643.724" xlink:href="#Scatter_1_mark" />
    <use x="1032.84" y="567.036" xlink:href="#Scatter_1_mark" />
    <use x="1017.6" y="625.585" xlink:href="#Scatter_1_mark" />
    <use x="1014.42" y="416.311" xlink:href="#Scatter_1_mark" />
    <use x="1071.64" y="482.284" xlink:href="#Scatter_1_mark" />
    <use x="963.979" y="596.854" xlink:href="#Scatter_1_mark" />
    <use x="1063.86" y="432.234" xlink:href="#Scatter_1_mark" />
    <use x="1001.66" y="396.654" xlink:href="#Scatter_1_mark" />
    <use x="1094.65" y="494.177" xlink:href="#Scatter_1_mark" />
    <use x="994.724" y="555.786" xlink:href="#Scatter_1_mark" />
    <use x="968.197" y="543.663" xlink:href="#Scatter_1_mark" />
    <use x="958.464" y="527.848" xlink:href="#Scatter_1_mark" />
    <use x="1017" y="405.545" xlink:href="#Scatter_1_mark" />
    <use x="997.613" y="491.903" xlink:href="#Scatter_1_mark" />
    <use x="1018.08" y="407.938" xlink:href="#Scatter_1_mark" />
    <use x="1048.31" y="497.407" xlink:href="#Scatter_1_mark" />
    <use x="1053.5" y="501.337" xlink:href="#Scatter_1_mark" />
    <use x="1029.43" y="531.591" xlink:href="#Scatter_1_mark" />
    <use x="1003.67" y="546.937" xlink:href="#Scatter_1_mark" />
    <use x="1039.36" y="513.732" xlink:href="#Scatter_1_mark" />
    <use x="1054.06" y="515.039" xlink:href="#Scatter_1_mark" />
    <use x="942.071" y="450.951" xlink:href="#Scatter_1_mark" />
    <use x="1039.58" y="536.049" xlink:href="#Scatter_1_mark" />
    <use x="1010.74" y="408.487" xlink:href="#Scatter_1_mark" />
    <use x="1003.58" y="501.344" xlink:href="#Scatter_1_mark" />
    <use x="1005.19" y="468.1" xlink:href="#Scatter_1_mark" />
    <use x="955.34" y="556.437" xlink:href="#Scatter_1_mark" />
    <use x="991.111" y="453.145" xlink:href="#Scatter_1_mark" />
    <use x="1003.19" y="438.232" xlink:href="#Scatter_1_mark" />
    <use x="1014.14" y="535.645" xlink:href="#Scatter_1_mark" />
    <use x="1014.34" y="522.525" xlink:href="#Scatter_1_mark" />
    <use x="1015.42" y="526.233" xlink:href="#Scatter_1_mark" />
    <use x="1047.21" y="615.641" xlink:href="#Scatter_1_mark" />
    <use x="977.989" y="474.005" xlink:href="#Scatter_1_mark" />
    <use x="1062.67" y="526.511" xlink:href="#Scatter_1_mark" />
    <use x="970.1" y="513.442" xlink:href="#Scatter_1_mark" />
    <use x="1029.08" y="517.778" xlink:href="#Scatter_1_mark" />
    <use x="1002.51" y="521.62" xlink:href="#Scatter_1_mark" />
    <use x="971.952" y="596.453" xlink:href="#Scatter_1_mark" />
    <use x="1084.64" y="393.846" xlink:href="#Scatter_1_mark" />
    <use x="1036.72" y="599.65" xlink:href="#Scatter_1_mark" />
    <use x="1014.26" y="382.902" xlink:href="#Scatter_1_mark" />
    <use x="1069.44" y="509.306" xlink:href="#Scatter_1_mark" />
    <use x="1014.49" y="523.596" xlink:href="#Scatter_1_mark" />
    <use x="964.893" y="450.277" xlink:href="#Scatter_1_mark" />
    <use x="1087.28" y="496.017" xlink:href="#Scatter_1_mark" />
    <use x="950.813" y="609.448" xlink:href="#Scatter_1_mark" />
    <use x="1089.92" y="522.788" xlink:href="#Scatter_1_mark" />
    <use x="1016.38" y="471.842" xlink:href="#Scatter_1_mark" />
    <use x="1009.62" y="580.754" xlink:href="#Scatter_1_mark" />
    <use x="1066.58" y="597.922" xlink:href="#Scatter_1_mark" />
    <use x="1016.42" y="538.376" xlink:href="#Scatter_1_mark" />
    <use x="999.768" y="435.369" xlink:href="#Scatter_1_mark" />
    <use x="1024.37" y="404.741" xlink:href="#Scatter_1_mark" />
    <use x="1089.87" y="591.498" xlink:href="#Scatter_1_mark" />
    <use x="974.181" y="480.507" xlink:href="#Scatter_1_mark" />
    <use x="1067.11" y="521.615" xlink:href="#Scatter_1_mark" />
    <use x="1003.27" y="440.413" xlink:href="#Scatter_1_mark" />
    <use x="1069.15" y="484.897" xlink:href="#Scatter_1_mark" />
    <use x="998.775" y="511.998" xlink:href="#Scatter_1_mark" />
    <use x="1033.49" y="449.455" xlink:href="#Scatter_1_mark" />
    <use x="1016.8" y="404.334" xlink:href="#Scatter_1_mark" />
    <use x="943.954" y="509.937" xlink:href="#Scatter_1_mark" />
    <use x="1007.38" y="527.568" xlink:href="#Scatter_1_mark" />
    <use x="973.054" y="347.027" xlink:href="#Scatter_1_mark" />
    <use x="960.644" y="437.629" xlink:href="#Scatter_1_mark" />
    <use x="1020.26" y="490.337" xlink:href="#Scatter_1_mark" />
    <use x="985.692" y="553.011" xlink:href="#Scatter_1_mark" />
    <use x="1039.01" y="464.371" xlink:href="#Scatter_1_mark" />
    <use x="958.638" y="419.063" xlink:href="#Scatter_1_mark" />
    <use x="975.649" y="537.1" xlink:href="#Scatter_1_mark" />
    <use x="983.474" y="428.388" xlink:href="#Scatter_1_mark" />
    <use x="1079.75" y="453.192" xlink:href="#Scatter_1_mark" />
    <use x="997.679" y="426.049" xlink:href="#Scatter_1_mark" />
    <use x="980.211" y="445.519" xlink:href="#Scatter_1_mark" />
    <use x="990.213" y="368.101" xlink:href="#Scatter_1_mark" />
    <use x="957.175" y="485.389" xlink:href="#Scatter_1_mark" />
    <use x="1010.22" y="492.01" xlink:href="#Scatter_1_mark" />
    <use x="1013.13" y="534.963" xlink:href="#Scatter_1_mark" />
    <use x="1061.99" y="568.466" xlink:href="#Scatter_1_mark" />
    <use x="1004.45" y="413.034" xlink:href="#Scatter_1_mark" />
    <use x="1015.59" y="549.804" xlink:href="#Scatter_1_mark" />
    <use x="922.472" y="453.002" xlink:href="#Scatter_1_mark" />
    <use x="1001.07" y="558.639" xlink:href="#Scatter_1_mark" />
    <use x="988.18" y="480.498" xlink:href="#Scatter_1_mark" />
    <use x="1049.03" y="571.34" xlink:href="#Scatter_1_mark" />
    <use x="1069.59" y="605.825" xlink:href="#Scatter_1_mark" />
    <use x="1033.36" y="563.599" xlink:href="#Scatter_1_mark" />
    <use x="1061.83" y="516.583" xlink:href="#Scatter_1_mark" />
    <use x="1005.81" y="481.609" xlink:href="#Scatter_1_mark" />
    <use x="1042.04" y="516.053" xlink:href="#Scatter_1_mark" />
    <use x="1022.19" y="494.417" xlink:href="#Scatter_1_mark" />
    <use x="1121.41" y="409.409" xlink:href="#Scatter_1_mark" />
    <use x="999.985" y="480.332" xlink:href="#Scatter_1_mark" />
    <use x="963.94" y="446.202" xlink:href="#Scatter_1_mark" />
    <use x="999.552" y="420.154" xlink:href="#Scatter_1_mark" />
    <use x="984.328" y="525.406" xlink:href="#Scatter_1_mark" />
    <use x="1046.52" y="345.358" xlink:href="#Scatter_1_mark" />
    <use x="1003.12" y="511.762" xlink:href="#Scatter_1_mark" />
    <use x="1092.53" y="426.636" xlink:href="#Scatter_1_mark" />
    <use x="979.863" y="563.317" xlink:href="#Scatter_1_mark" />
    <use x="986.622" y="443.083" xlink:href="#Scatter_1_mark" />
    <use x="1065.55" y="497.399" xlink:href="#Scatter_1_mark" />
</g>
<g id="frame_1">
    <rect id="frame_1_border" x="746.667" y="50" width="553.333" height="870" />
    <g id="frame_1_bottomticks">
        <path d="M 777.093 920 L 777.093 900" />
        <text font-size="30" transform="translate(777.093, 950)" text-anchor="middle" dominant-baseline="middle" stroke="none" fill="black">‒0.5</text>
        <path d="M 896.461 920 L 896.461 900" />
        <text font-size="30" transform="translate(896.461, 950)" text-anchor="middle" dominant-baseline="middle" stroke="none" fill="black">0</text>
        <path d="M 968.083 920 L 968.083 910" />
        <path d="M 1254.57 920 L 1254.57 900" />
        <text font-size="30" transform="translate(1254.57, 950)" text-anchor="middle" dominant-baseline="middle" stroke="none" fill="black">1.5</text>
        <path d="M 1135.2 920 L 1135.2 900" />
        <text font-size="30" transform="translate(1135.2, 950)" text-anchor="middle" dominant-baseline="middle" stroke="none" fill="black">1</text>
        <path d="M 1039.7 920 L 1039.7 910" />
        <path d="M 1182.95 920 L 1182.95 910" />
        <path d="M 991.956 920 L 991.956 910" />
        <path d="M 1063.58 920 L 1063.58 910" />
        <path d="M 1230.69 920 L 1230.69 910" />
        <path d="M 800.966 920 L 800.966 910" />
        <path d="M 1278.44 920 L 1278.44 910" />
        <path d="M 872.588 920 L 872.588 910" />
        <path d="M 1015.83 920 L 1015.83 900" />
        <text font-size="30" transform="translate(1015.83, 950)" text-anchor="middle" dominant-baseline="middle" stroke="none" fill="black">0.5</text>
        <path d="M 920.335 920 L 920.335 910" />
        <path d="M 944.209 920 L 944.209 910" />
        <path d="M 848.714 920 L 848.714 910" />
        <path d="M 1111.32 920 L 1111.32 910" />
        <path d="M 1206.82 920 L 1206.82 910" />
        <path d="M 824.84 920 L 824.84 910" />
        <path d="M 1159.07 920 L 1159.07 910" />
        <path d="M 753.219 920 L 753.219 910" />
        <path d="M 1087.45 920 L 1087.45 910" />
    </g>
    <g id="frame_1_leftticks">
        <path d="M 746.667 845.168 L 766.667 845.168" />
        <text font-size="30" transform="translate(736.667, 855.168)" text-anchor="end" dominant-baseline="middle" stroke="none" fill="black">‒0.5</text>
        <path d="M 746.667 669.213 L 766.667 669.213" />
        <text font-size="30" transform="translate(736.667, 679.213)" text-anchor="end" dominant-baseline="middle" stroke="none" fill="black">0</text>
        <path d="M 746.667 141.348 L 766.667 141.348" />
        <text font-size="30" transform="translate(736.667, 151.348)" text-anchor="end" dominant-baseline="middle" stroke="none" fill="black">1.5</text>
        <path d="M 746.667 387.685 L 756.667 387.685" />
        <path d="M 746.667 246.921 L 756.667 246.921" />
        <path d="M 746.667 70.9665 L 756.667 70.9665" />
        <path d="M 746.667 422.876 L 756.667 422.876" />
        <path d="M 746.667 176.539 L 756.667 176.539" />
        <path d="M 746.667 809.977 L 756.667 809.977" />
        <path d="M 746.667 106.157 L 756.667 106.157" />
        <path d="M 746.667 704.404 L 756.667 704.404" />
        <path d="M 746.667 493.258 L 766.667 493.258" />
        <text font-size="30" transform="translate(736.667, 503.258)" text-anchor="end" dominant-baseline="middle" stroke="none" fill="black">0.5</text>
        <path d="M 746.667 352.494 L 756.667 352.494" />
        <path d="M 746.667 563.64 L 756.667 563.64" />
        <path d="M 746.667 634.022 L 756.667 634.022" />
        <path d="M 746.667 598.831 L 756.667 598.831" />
        <path d="M 746.667 915.55 L 756.667 915.55" />
        <path d="M 746.667 528.449 L 756.667 528.449" />
        <path d="M 746.667 739.595 L 756.667 739.595" />
        <path d="M 746.667 211.73 L 756.667 211.73" />
        <path d="M 746.667 458.067 L 756.667 458.067" />
        <path d="M 746.667 317.303 L 766.667 317.303" />
        <text font-size="30" transform="translate(736.667, 327.303)" text-anchor="end" dominant-baseline="middle" stroke="none" fill="black">1</text>
        <path d="M 746.667 880.359 L 756.667 880.359" />
        <path d="M 746.667 774.786 L 756.667 774.786" />
        <path d="M 746.667 282.112 L 756.667 282.112" />
    </g>
    <g id="frame_1_topticks">
        <path d="M 777.093 50 L 777.093 70" />
        <path d="M 896.461 50 L 896.461 70" />
        <path d="M 968.083 50 L 968.083 60" />
        <path d="M 1254.57 50 L 1254.57 70" />
        <path d="M 1135.2 50 L 1135.2 70" />
        <path d="M 1039.7 50 L 1039.7 60" />
        <path d="M 1182.95 50 L 1182.95 60" />
        <path d="M 991.956 50 L 991.956 60" />
        <path d="M 1063.58 50 L 1063.58 60" />
        <path d="M 1230.69 50 L 1230.69 60" />
        <path d="M 800.966 50 L 800.966 60" />
        <path d="M 1278.44 50 L 1278.44 60" />
        <path d="M 872.588 50 L 872.588 60" />
        <path d="M 1015.83 50 L 1015.83 70" />
        <path d="M 920.335 50 L 920.335 60" />
        <path d="M 944.209 50 L 944.209 60" />
        <path d="M 848.714 50 L 848.714 60" />
        <path d="M 1111.32 50 L 1111.32 60" />
        <path d="M 1206.82 50 L 1206.82 60" />
        <path d="M 824.84 50 L 824.84 60" />
        <path d="M 1159.07 50 L 1159.07 60" />
        <path d="M 753.219 50 L 753.219 60" />
        <path d="M 1087.45 50 L 1087.45 60" />
    </g>
    <g id="frame_1_rightticks">
        <path d="M 1300 845.168 L 1280 845.168" />
        <path d="M 1300 669.213 L 1280 669.213" />
        <path d="M 1300 141.348 L 1280 141.348" />
        <path d="M 1300 387.685 L 1290 387.685" />
        <path d="M 1300 246.921 L 1290 246.921" />
        <path d="M 1300 70.9665 L 1290 70.9665" />
        <path d="M 1300 422.876 L 1290 422.876" />
        <path d="M 1300 176.539 L 1290 176.539" />
        <path d="M 1300 809.977 L 1290 809.977" />
        <path d="M 1300 106.157 L 1290 106.157" />
        <path d="M 1300 704.404 L 1290 704.404" />
        <path d="M 1300 493.258 L 1280 493.258" />
        <path d="M 1300 352.494 L 1290 352.494" />
        <path d="M 1300 563.64 L 1290 563.64" />
        <path d="M 1300 634.022 L 1290 634.022" />
        <path d="M 1300 598.831 L 1290 598.831" />
        <path d="M 1300 915.55 L 1290 915.55" />
        <path d="M 1300 528.449 L 1290 528.449" />
        <path d="M 1300 739.595 L 1290 739.595" />
        <path d="M 1300 211.73 L 1290 211.73" />
        <path d="M 1300 458.067 L 1290 458.067" />
        <path d="M 1300 317.303 L 1280 317.303" />
        <path d="M 1300 880.359 L 1290 880.359" />
        <path d="M 1300 774.786 L 1290 774.786" />
        <path d="M 1300 282.112 L 1290 282.112" />
    </g>
</g>
<g id="Scatter_2" clip-path="url(#Scatter_2_clip)">
    <use x="1806.06" y="623.71" xlink:href="#Scatter_2_mark" />
    <use x="1420.64" y="378.931" xlink:href="#Scatter_2_mark" />
    <use x="1628.69" y="169.896" xlink:href="#Scatter_2_mark" />
    <use x="1667.24" y="624.932" xlink:href="#Scatter_2_mark" />
    <use x="1575.46" y="659.287" xlink:href="#Scatter_2_mark" />
    <use x="1866.53" y="517.952" xlink:href="#Scatter_2_mark" />
    <use x="1952.24" y="743.824" xlink:href="#Scatter_2_mark" />
    <use x="1501.9" y="668.861" xlink:href="#Scatter_2_mark" />
    <use x="1570.5" y="751.04" xlink:href="#Scatter_2_mark" />
    <use x="1945.16" y="97.4203" xlink:href="#Scatter_2_mark" />
    <use x="1753.16" y="194.731" xlink:href="#Scatter_2_mark" />
    <use x="1676.16" y="468.267" xlink:href="#Scatter_2_mark" />
    <use x="1604.41" y="510.472" xlink:href="#Scatter_2_mark" />
    <use x="1751.73" y="475.249" xlink:href="#Scatter_2_mark" />
    <use x="1837.97" y="762.684" xlink:href="#Scatter_2_mark" />
    <use x="1456.29" y="163.646" xlink:href="#Scatter_2_mark" />
    <use x="1579.44" y="822.288" xlink:href="#Scatter_2_mark" />
    <use x="1455.23" y="871.924" xlink:href="#Scatter_2_mark" />
    <use x="1473.5" y="888.681" xlink:href="#Scatter_2_mark" />
    <use x="1730.62" y="485.824" xlink:href="#Scatter_2_mark" />
    <use x="1966.25" y="747.02" xlink:href="#Scatter_2_mark" />
    <use x="1652.74" y="667.209" xlink:href="#Scatter_2_mark" />
    <use x="1534.87" y="903.873" xlink:href="#Scatter_2_mark" />
    <use x="1493.86" y="253.884" xlink:href="#Scatter_2_mark" />
    <use x="1491.5" y="456.632" xlink:href="#Scatter_2_mark" />
    <use x="1843.56" y="567.308" xlink:href="#Scatter_2_mark" />
    <use x="1893.87" y="752.679" xlink:href="#Scatter_2_mark" />
    <use x="1773.7" y="487.431" xlink:href="#Scatter_2_mark" />
    <use x="1716.48" y="136.649" xlink:href="#Scatter_2_mark" />
    <use x="1901.78" y="458.09" xlink:href="#Scatter_2_mark" />
    <use x="1544.49" y="656.077" xlink:href="#Scatter_2_mark" />
    <use x="1925.96" y="117.826" xlink:href="#Scatter_2_mark" />
    <use x="1466.74" y="294.67" xlink:href="#Scatter_2_mark" />
    <use x="1819.45" y="553.029" xlink:href="#Scatter_2_mark" />
    <use x="1931.52" y="517.71" xlink:href="#Scatter_2_mark" />
    <use x="1834.06" y="789.739" xlink:href="#Scatter_2_mark" />
    <use x="1557.61" y="239.136" xlink:href="#Scatter_2_mark" />
    <use x="1717.75" y="740.834" xlink:href="#Scatter_2_mark" />
    <use x="1821.81" y="646.926" xlink:href="#Scatter_2_mark" />
    <use x="1675.82" y="452.472" xlink:href="#Scatter_2_mark" />
    <use x="1935.75" y="529.17" xlink:href="#Scatter_2_mark" />
    <use x="1502.23" y="685.452" xlink:href="#Scatter_2_mark" />
    <use x="1740.66" y="820.519" xlink:href="#Scatter_2_mark" />
    <use x="1843.67" y="328.13" xlink:href="#Scatter_2_mark" />
    <use x="1472.24" y="524.862" xlink:href="#Scatter_2_mark" />
    <use x="1493.25" y="645.623" xlink:href="#Scatter_2_mark" />
    <use x="1418.08" y="820.682" xlink:href="#Scatter_2_mark" />
    <use x="1721.03" y="305.95" xlink:href="#Scatter_2_mark" />
    <use x="1807.74" y="169.257" xlink:href="#Scatter_2_mark" />
    <use x="1543.28" y="521.667" xlink:href="#Scatter_2_mark" />
    <use x="1581.16" y="820.54" xlink:href="#Scatter_2_mark" />
    <use x="1832.59" y="158.151" xlink:href="#Scatter_2_mark" />
    <use x="1672.56" y="911.074" xlink:href="#Scatter_2_mark" />
    <use x="1733.72" y="896.421" xlink:href="#Scatter_2_mark" />
    <use x="1869.02" y="310.322" xlink:href="#Scatter_2_mark" />
    <use x="1790.57" y="641.934" xlink:href="#Scatter_2_mark" />
    <use x="1765.97" y="297.872" xlink:href="#Scatter_2_mark" />
    <use x="1553.81" y="735.304" xlink:href="#Scatter_2_mark" />
    <use x="1437.17" y="524.537" xlink:href="#Scatter_2_mark" />
    <use x="1686.41" y="481.719" xlink:href="#Scatter_2_mark" />
    <use x="1686.09" y="216.481" xlink:href="#Scatter_2_mark" />
    <use x="1506.75" y="311.317" xlink:href="#Scatter_2_mark" />
    <use x="1638.44" y="611.803" xlink:href="#Scatter_2_mark" />
    <use x="1899.33" y="412.535" xlink:href="#Scatter_2_mark" />
    <use x="1778.38" y="544.677" xlink:href="#Scatter_2_mark" />
    <use x="1773.88" y="670.78" xlink:href="#Scatter_2_mark" />
    <use x="1931" y="529.754" xlink:href="#Scatter_2_mark" />
    <use x="1710.8" y="554.982" xlink:href="#Scatter_2_mark" />
    <use x="1892.57" y="563.191" xlink:href="#Scatter_2_mark" />
    <use x="1956.5" y="849.672" xlink:href="#Scatter_2_mark" />
    <use x="1850.77" y="620.437" xlink:href="#Scatter_2_mark" />
    <use x="1782.92" y="283.596" xlink:href="#Scatter_2_mark" />
    <use x="1899.3" y="412.412" xlink:href="#Scatter_2_mark" />
    <use x="1469.19" y="714.031" xlink:href="#Scatter_2_mark" />
    <use x="1535.2" y="532.004" xlink:href="#Scatter_2_mark" />
    <use x="1737.38" y="112.458" xlink:href="#Scatter_2_mark" />
    <use x="1744.91" y="592.472" xlink:href="#Scatter_2_mark" />
    <use x="1707.35" y="481.336" xlink:href="#Scatter_2_mark" />
    <use x="1843.06" y="340.255" xlink:href="#Scatter_2_mark" />
    <use x="1503.64" y="796.893" xlink:href="#Scatter_2_mark" />
    <use x="1961.11" y="866.683" xlink:href="#Scatter_2_mark" />
    <use x="1679.54" y="278.71" xlink:href="#Scatter_2_mark" />
    <use x="1427.23" y="442.14" xlink:href="#Scatter_2_mark" />
    <use x="1816.58" y="704.602" xlink:href="#Scatter_2_mark" />
    <use x="1700.47" y="322.82" xlink:href="#Scatter_2_mark" />
    <use x="1899.05" y="53.0383" xlink:href="#Scatter_2_mark" />
    <use x="1567.05" y="122.589" xlink:href="#Scatter_2_mark" />
    <use x="1773.33" y="780.738" xlink:href="#Scatter_2_mark" />
    <use x="1871.49" y="609.809" xlink:href="#Scatter_2_mark" />
    <use x="1536.53" y="219.162" xlink:href="#Scatter_2_mark" />
    <use x="1799.74" y="285.88" xlink:href="#Scatter_2_mark" />
    <use x="1527.22" y="103.143" xlink:href="#Scatter_2_mark" />
    <use x="1783.81" y="185.708" xlink:href="#Scatter_2_mark" />
    <use x="1804.94" y="906.794" xlink:href="#Scatter_2_mark" />
    <use x="1521.34" y="603.156" xlink:href="#Scatter_2_mark" />
    <use x="1661.13" y="890.197" xlink:href="#Scatter_2_mark" />
    <use x="1610.25" y="753.541" xlink:href="#Scatter_2_mark" />
    <use x="1904.27" y="520.183" xlink:href="#Scatter_2_mark" />
    <use x="1674.16" y="262.09" xlink:href="#Scatter_2_mark" />
    <use x="1461.61" y="373.5" xlink:href="#Scatter_2_mark" />
    <use x="1644.61" y="470.642" xlink:href="#Scatter_2_mark" />
    <use x="1662.91" y="884.918" xlink:href="#Scatter_2_mark" />
    <use x="1886.04" y="181.814" xlink:href="#Scatter_2_mark" />
    <use x="1879.27" y="914.338" xlink:href="#Scatter_2_mark" />
    <use x="1585.68" y="290.249" xlink:href="#Scatter_2_mark" />
    <use x="1939.47" y="868.731" xlink:href="#Scatter_2_mark" />
    <use x="1939.56" y="302.178" xlink:href="#Scatter_2_mark" />
    <use x="1906.57" y="418.72" xlink:href="#Scatter_2_mark" />
    <use x="1762.08" y="809.05" xlink:href="#Scatter_2_mark" />
    <use x="1670.97" y="844.285" xlink:href="#Scatter_2_mark" />
    <use x="1502.08" y="902.628" xlink:href="#Scatter_2_mark" />
    <use x="1578.23" y="433.898" xlink:href="#Scatter_2_mark" />
    <use x="1825.67" y="271.975" xlink:href="#Scatter_2_mark" />
    <use x="1488.22" y="127.371" xlink:href="#Scatter_2_mark" />
    <use x="1443.16" y="359.991" xlink:href="#Scatter_2_mark" />
    <use x="1942.32" y="628.403" xlink:href="#Scatter_2_mark" />
    <use x="1487.17" y="215.324" xlink:href="#Scatter_2_mark" />
    <use x="1877.56" y="504.298" xlink:href="#Scatter_2_mark" />
    <use x="1568.85" y="208.343" xlink:href="#Scatter_2_mark" />
    <use x="1536.51" y="843.147" xlink:href="#Scatter_2_mark" />
    <use x="1833.52" y="444.662" xlink:href="#Scatter_2_mark" />
    <use x="1618.83" y="640.001" xlink:href="#Scatter_2_mark" />
    <use x="1885.96" y="410.035" xlink:href="#Scatter_2_mark" />
    <use x="1686.44" y="570.895" xlink:href="#Scatter_2_mark" />
    <use x="1898.6" y="673.342" xlink:href="#Scatter_2_mark" />
    <use x="1804" y="304.206" xlink:href="#Scatter_2_mark" />
    <use x="1755.55" y="519.911" xlink:href="#Scatter_2_mark" />
    <use x="1504.02" y="343.623" xlink:href="#Scatter_2_mark" />
    <use x="1460.47" y="390.218" xlink:href="#Scatter_2_mark" />
    <use x="1879.29" y="192.175" xlink:href="#Scatter_2_mark" />
    <use x="1802.21" y="466.774" xlink:href="#Scatter_2_mark" />
    <use x="1544.32" y="427.507" xlink:href="#Scatter_2_mark" />
    <use x="1944.95" y="657.599" xlink:href="#Scatter_2_mark" />
    <use x="1726.57" y="655.199" xlink:href="#Scatter_2_mark" />
    <use x="1719.37" y="602.19" xlink:href="#Scatter_2_mark" />
    <use x="1950.78" y="401.892" xlink:href="#Scatter_2_mark" />
    <use x="1942.51" y="200.133" xlink:href="#Scatter_2_mark" />
    <use x="1695.92" y="896.128" xlink:href="#Scatter_2_mark" />
    <use x="1482.66" y="352.611" xlink:href="#Scatter_2_mark" />
    <use x="1532.7" y="519.301" xlink:href="#Scatter_2_mark" />
    <use x="1547.63" y="524.197" xlink:href="#Scatter_2_mark" />
    <use x="1552.82" y="148.812" xlink:href="#Scatter_2_mark" />
    <use x="1712.47" y="393.192" xlink:href="#Scatter_2_mark" />
    <use x="1648.76" y="865.88" xlink:href="#Scatter_2_mark" />
    <use x="1541.9" y="195.199" xlink:href="#Scatter_2_mark" />
    <use x="1602.34" y="269.061" xlink:href="#Scatter_2_mark" />
    <use x="1494.06" y="344.649" xlink:href="#Scatter_2_mark" />
    <use x="1708.79" y="329.634" xlink:href="#Scatter_2_mark" />
    <use x="1586.45" y="302.06" xlink:href="#Scatter_2_mark" />
    <use x="1753.65" y="723.798" xlink:href="#Scatter_2_mark" />
    <use x="1790.68" y="826.089" xlink:href="#Scatter_2_mark" />
    <use x="1779.19" y="514.12" xlink:href="#Scatter_2_mark" />
    <use x="1490.7" y="129.059" xlink:href="#Scatter_2_mark" />
    <use x="1863.82" y="877.502" xlink:href="#Scatter_2_mark" />
    <use x="1521.06" y="501.162" xlink:href="#Scatter_2_mark" />
    <use x="1742.74" y="154.787" xlink:href="#Scatter_2_mark" />
    <use x="1610.79" y="768.56" xlink:href="#Scatter_2_mark" />
    <use x="1913.18" y="399.14" xlink:href="#Scatter_2_mark" />
    <use x="1450.11" y="912.704" xlink:href="#Scatter_2_mark" />
    <use x="1556.34" y="208.346" xlink:href="#Scatter_2_mark" />
    <use x="1727.43" y="387.208" xlink:href="#Scatter_2_mark" />
    <use x="1811.02" y="850.343" xlink:href="#Scatter_2_mark" />
    <use x="1840.25" y="835.85" xlink:href="#Scatter_2_mark" />
    <use x="1687.57" y="395.904" xlink:href="#Scatter_2_mark" />
    <use x="1901.78" y="354.999" xlink:href="#Scatter_2_mark" />
    <use x="1951.48" y="554.039" xlink:href="#Scatter_2_mark" />
    <use x="1817.92" y="694.87" xlink:href="#Scatter_2_mark" />
    <use x="1628.97" y="147.958" xlink:href="#Scatter_2_mark" />
    <use x="1420.47" y="680.52" xlink:href="#Scatter_2_mark" />
    <use x="1462.25" y="109.232" xlink:href="#Scatter_2_mark" />
    <use x="1644.41" y="887.517" xlink:href="#Scatter_2_mark" />
    <use x="1461.99" y="849.258" xlink:href="#Scatter_2_mark" />
    <use x="1624.28" y="513.311" xlink:href="#Scatter_2_mark" />
    <use x="1895.08" y="877.102" xlink:href="#Scatter_2_mark" />
    <use x="1843.74" y="529.761" xlink:href="#Scatter_2_mark" />
    <use x="1886.68" y="410.403" xlink:href="#Scatter_2_mark" />
    <use x="1873.37" y="326.202" xlink:href="#Scatter_2_mark" />
    <use x="1546.7" y="157.473" xlink:href="#Scatter_2_mark" />
    <use x="1566.02" y="795.757" xlink:href="#Scatter_2_mark" />
    <use x="1456.67" y="224.686" xlink:href="#Scatter_2_mark" />
    <use x="1481.07" y="122.19" xlink:href="#Scatter_2_mark" />
    <use x="1822.8" y="548.765" xlink:href="#Scatter_2_mark" />
    <use x="1662.42" y="647.796" xlink:href="#Scatter_2_mark" />
    <use x="1529.93" y="385.674" xlink:href="#Scatter_2_mark" />
    <use x="1807.63" y="548.833" xlink:href="#Scatter_2_mark" />
    <use x="1669.36" y="771.117" xlink:href="#Scatter_2_mark" />
    <use x="1791.89" y="729.743" xlink:href="#Scatter_2_mark" />
    <use x="1829.7" y="88.713" xlink:href="#Scatter_2_mark" />
    <use x="1544.93" y="325.441" xlink:href="#Scatter_2_mark" />
    <use x="1806.59" y="651.74" xlink:href="#Scatter_2_mark" />
    <use x="1480.02" y="299.413" xlink:href="#Scatter_2_mark" />
    <use x="1919.58" y="147.736" xlink:href="#Scatter_2_mark" />
    <use x="1637.58" y="183.573" xlink:href="#Scatter_2_mark" />
    <use x="1515.27" y="601.486" xlink:href="#Scatter_2_mark" />
    <use x="1735.21" y="771.802" xlink:href="#Scatter_2_mark" />
    <use x="1649.74" y="733.859" xlink:href="#Scatter_2_mark" />
    <use x="1669.11" y="830.315" xlink:href="#Scatter_2_mark" />
    <use x="1462.57" y="409.564" xlink:href="#Scatter_2_mark" />
    <use x="1675.65" y="805.648" xlink:href="#Scatter_2_mark" />
    <use x="1491.53" y="420.153" xlink:href="#Scatter_2_mark" />
</g>
<g id="frame_2">
    <rect id="frame_2_border" x="1413.33" y="50" width="553.333" height="870" />
    <g id="frame_2_bottomticks">
        <path d="M 1690 920 L 1690 900" />
        <text font-size="30" transform="translate(1690, 950)" text-anchor="middle" dominant-baseline="middle" stroke="none" fill="black">0.5</text>
        <path d="M 1883.67 920 L 1883.67 910" />
        <path d="M 1579.33 920 L 1579.33 910" />
        <path d="M 1468.67 920 L 1468.67 910" />
        <path d="M 1662.33 920 L 1662.33 910" />
        <path d="M 1828.33 920 L 1828.33 900" />
        <text font-size="30" transform="translate(1828.33, 950)" text-anchor="middle" dominant-baseline="middle" stroke="none" fill="black">0.505</text>
        <path d="M 1551.67 920 L 1551.67 900" />
        <text font-size="30" transform="translate(1551.67, 950)" text-anchor="middle" dominant-baseline="middle" stroke="none" fill="black">0.495</text>
        <path d="M 1441 920 L 1441 910" />
        <path d="M 1634.67 920 L 1634.67 910" />
        <path d="M 1773 920 L 1773 910" />
        <path d="M 1524 920 L 1524 910" />
        <path d="M 1800.67 920 L 1800.67 910" />
        <path d="M 1413.33 920 L 1413.33 900" />
        <text font-size="30" transform="translate(1413.33, 950)" text-anchor="middle" dominant-baseline="middle" stroke="none" fill="black">0.49</text>
        <path d="M 1745.33 920 L 1745.33 910" />
        <path d="M 1939 920 L 1939 910" />
        <path d="M 1966.67 920 L 1966.67 900" />
        <text font-size="30" transform="translate(1966.67, 950)" text-anchor="middle" dominant-baseline="middle" stroke="none" fill="black">0.51</text>
        <path d="M 1607 920 L 1607 910" />
        <path d="M 1717.67 920 L 1717.67 910" />
        <path d="M 1496.33 920 L 1496.33 910" />
        <path d="M 1911.33 920 L 1911.33 910" />
        <path d="M 1856 920 L 1856 910" />
    </g>
    <g id="frame_2_leftticks">
        <path d="M 1413.33 485 L 1433.33 485" />
        <text font-size="30" transform="translate(1403.33, 495)" text-anchor="end" dominant-baseline="middle" stroke="none" fill="black">0.5</text>
        <path d="M 1413.33 180.5 L 1423.33 180.5" />
        <path d="M 1413.33 659 L 1423.33 659" />
        <path d="M 1413.33 833 L 1423.33 833" />
        <path d="M 1413.33 528.5 L 1423.33 528.5" />
        <path d="M 1413.33 267.5 L 1433.33 267.5" />
        <text font-size="30" transform="translate(1403.33, 277.5)" text-anchor="end" dominant-baseline="middle" stroke="none" fill="black">0.505</text>
        <path d="M 1413.33 702.5 L 1433.33 702.5" />
        <text font-size="30" transform="translate(1403.33, 712.5)" text-anchor="end" dominant-baseline="middle" stroke="none" fill="black">0.495</text>
        <path d="M 1413.33 876.5 L 1423.33 876.5" />
        <path d="M 1413.33 572 L 1423.33 572" />
        <path d="M 1413.33 354.5 L 1423.33 354.5" />
        <path d="M 1413.33 746 L 1423.33 746" />
        <path d="M 1413.33 311 L 1423.33 311" />
        <path d="M 1413.33 920 L 1433.33 920" />
        <text font-size="30" transform="translate(1403.33, 930)" text-anchor="end" dominant-baseline="middle" stroke="none" fill="black">0.49</text>
        <path d="M 1413.33 398 L 1423.33 398" />
        <path d="M 1413.33 93.5 L 1423.33 93.5" />
        <path d="M 1413.33 50 L 1433.33 50" />
        <text font-size="30" transform="translate(1403.33, 60)" text-anchor="end" dominant-baseline="middle" stroke="none" fill="black">0.51</text>
        <path d="M 1413.33 615.5 L 1423.33 615.5" />
        <path d="M 1413.33 441.5 L 1423.33 441.5" />
        <path d="M 1413.33 789.5 L 1423.33 789.5" />
        <path d="M 1413.33 137 L 1423.33 137" />
        <path d="M 1413.33 224 L 1423.33 224" />
    </g>
    <g id="frame_2_topticks">
        <path d="M 1690 50 L 1690 70" />
        <path d="M 1883.67 50 L 1883.67 60" />
        <path d="M 1579.33 50 L 1579.33 60" />
        <path d="M 1468.67 50 L 1468.67 60" />
        <path d="M 1662.33 50 L 1662.33 60" />
        <path d="M 1828.33 50 L 1828.33 70" />
        <path d="M 1551.67 50 L 1551.67 70" />
        <path d="M 1441 50 L 1441 60" />
        <path d="M 1634.67 50 L 1634.67 60" />
        <path d="M 1773 50 L 1773 60" />
        <path d="M 1524 50 L 1524 60" />
        <path d="M 1800.67 50 L 1800.67 60" />
        <path d="M 1413.33 50 L 1413.33 70" />
        <path d="M 1745.33 50 L 1745.33 60" />
        <path d="M 1939 50 L 1939 60" />
        <path d="M 1966.67 50 L 1966.67 70" />
        <path d="M 1607 50 L 1607 60" />
        <path d="M 1717.67 50 L 1717.67 60" />
        <path d="M 1496.33 50 L 1496.33 60" />
        <path d="M 1911.33 50 L 1911.33 60" />
        <path d="M 1856 50 L 1856 60" />
    </g>
    <g id="frame_2_rightticks">
        <path d="M 1966.67 485 L 1946.67 485" />
        <path d="M 1966.67 180.5 L 1956.67 180.5" />
        <path d="M 1966.67 659 L 1956.67 659" />
        <path d="M 1966.67 833 L 1956.67 833" />
        <path d="M 1966.67 528.5 L 1956.67 528.5" />
        <path d="M 1966.67 267.5 L 1946.67 267.5" />
        <path d="M 1966.67 702.5 L 1946.67 702.5" />
        <path d="M 1966.67 876.5 L 1956.67 876.5" />
        <path d="M 1966.67 572 L 1956.67 572" />
        <path d="M 1966.67 354.5 L 1956.67 354.5" />
        <path d="M 1966.67 746 L 1956.67 746" />
        <path d="M 1966.67 311 L 1956.67 311" />
        <path d="M 1966.67 920 L 1946.67 920" />
        <path d="M 1966.67 398 L 1956.67 398" />
        <path d="M 1966.67 93.5 L 1956.67 93.5" />
        <path d="M 1966.67 50 L 1946.67 50" />
        <path d="M 1966.67 615.5 L 1956.67 615.5" />
        <path d="M 1966.67 441.5 L 1956.67 441.5" />
        <path d="M 1966.67 789.5 L 1956.67 789.5" />
        <path d="M 1966.67 137 L 1956.67 137" />
        <path d="M 1966.67 224 L 1956.67 224" />
    </g>
</g>
</g>
</svg>
