<?xml version="1.0" standalone="no"?>
<!DOCTYPE svg PUBLIC "-//W3C//DTD SVG 1.1//EN" "http://www.w3.org/Graphics/SVG/1.1/DTD/svg11.dtd">
<svg style="stroke-linejoin:miter; stroke:black; stroke-width:2.5; text-anchor:middle; fill:none" xmlns="http://www.w3.org/2000/svg" font-family="Helvetica, Arial, FreeSans, Sans, sans, sans-serif" width="1000px" height="1000px" version="1.1" xmlns:xlink="http://www.w3.org/1999/xlink" viewBox="0 0 1000 1000">
<defs>
    <clipPath id="Scatter_0_clip">
        <rect x="66.6667" y="25" width="250" height="435" />
    </clipPath>
    <circle id="Scatter_0_mark" cx="0" cy="0" r="7.5" stroke="none" stroke-opacity="1" fill="black" fill-opacity="1" />
    <clipPath id="Scatter_1_clip">
        <rect x="400" y="25" width="250" height="435" />
    </clipPath>
    <circle id="Scatter_1_mark" cx="0" cy="0" r="7.5" stroke="none" stroke-opacity="1" fill="black" fill-opacity="1" />
    <clipPath id="Scatter_2_clip">
        <rect x="733.333" y="25" width="250" height="435" />
    </clipPath>
    <circle id="Scatter_2_mark" cx="0" cy="0" r="7.5" stroke="none" stroke-opacity="1" fill="black" fill-opacity="1" />
    <clipPath id="Scatter_3_clip">
        <rect x="66.6667" y="525" width="250" height="435" />
    </clipPath>
    <clipPath id="Scatter_4_clip">
        <rect x="400" y="525" width="250" height="435" />
    </clipPath>
    <clipPath id="Scatter_5_clip">
        <rect x="733.333" y="525" width="250" height="435" />
    </clipPath>
</defs>
<g id="whole_document">
<rect id="background" x="0" y="0" width="1000" height="1000" stroke="none" fill="white" />
<g id="Scatter_0" clip-path="url(#Scatter_0_clip)">
    <use x="266.36" y="386.402" xlink:href="#Scatter_0_mark" />
    <use x="152.213" y="396.299" xlink:href="#Scatter_0_mark" />
    <use x="212.994" y="387.26" xlink:href="#Scatter_0_mark" />
    <use x="280.694" y="132.732" xlink:href="#Scatter_0_mark" />
    <use x="295.833" y="339.63" xlink:href="#Scatter_0_mark" />
    <use x="279.41" y="61.25" xlink:href="#Scatter_0_mark" />
    <use x="275.741" y="423.75" xlink:href="#Scatter_0_mark" />
    <use x="122.963" y="164.723" xlink:href="#Scatter_0_mark" />
    <use x="237.214" y="421.837" xlink:href="#Scatter_0_mark" />
    <use x="271.541" y="141.235" xlink:href="#Scatter_0_mark" />
    <use x="181.468" y="85.5897" xlink:href="#Scatter_0_mark" />
    <use x="87.5" y="93.1015" xlink:href="#Scatter_0_mark" />
    <use x="173.267" y="350.667" xlink:href="#Scatter_0_mark" />
    <use x="122.662" y="320.931" xlink:href="#Scatter_0_mark" />
    <use x="215.888" y="331.795" xlink:href="#Scatter_0_mark" />
    <use x="259.074" y="264.725" xlink:href="#Scatter_0_mark" />
    <use x="273.348" y="174.804" xlink:href="#Scatter_0_mark" />
    <use x="170.811" y="299.617" xlink:href="#Scatter_0_mark" />
    <use x="261.804" y="321.272" xlink:href="#Scatter_0_mark" />
    <use x="169.584" y="219.367" xlink:href="#Scatter_0_mark" />
</g>
<g id="frame_0">
    <rect id="frame_0_border" x="66.6667" y="25" width="250" height="435" />
    <g id="frame_0_bottomticks">
        <path d="M 201.568 460 L 201.568 450" />
        <path d="M 86.1657 460 L 86.1657 440" />
        <text font-size="30" transform="translate(86.1657, 490)" text-anchor="middle" dominant-baseline="middle" stroke="none" fill="black">0</text>
        <path d="M 270.809 460 L 270.809 440" />
        <text font-size="30" transform="translate(270.809, 490)" text-anchor="middle" dominant-baseline="middle" stroke="none" fill="black">0.8</text>
        <path d="M 109.246 460 L 109.246 450" />
        <path d="M 132.327 460 L 132.327 440" />
        <text font-size="30" transform="translate(132.327, 490)" text-anchor="middle" dominant-baseline="middle" stroke="none" fill="black">0.2</text>
        <path d="M 224.648 460 L 224.648 440" />
        <text font-size="30" transform="translate(224.648, 490)" text-anchor="middle" dominant-baseline="middle" stroke="none" fill="black">0.6</text>
        <path d="M 155.407 460 L 155.407 450" />
        <path d="M 178.487 460 L 178.487 440" />
        <text font-size="30" transform="translate(178.487, 490)" text-anchor="middle" dominant-baseline="middle" stroke="none" fill="black">0.4</text>
        <path d="M 293.889 460 L 293.889 450" />
        <path d="M 247.729 460 L 247.729 450" />
    </g>
    <g id="frame_0_leftticks">
        <path d="M 66.6667 247.388 L 76.6667 247.388" />
        <path d="M 66.6667 437.076 L 86.6667 437.076" />
        <text font-size="30" transform="translate(56.6667, 447.076)" text-anchor="end" dominant-baseline="middle" stroke="none" fill="black">0</text>
        <path d="M 66.6667 285.325 L 86.6667 285.325" />
        <text font-size="30" transform="translate(56.6667, 295.325)" text-anchor="end" dominant-baseline="middle" stroke="none" fill="black">0.4</text>
        <path d="M 66.6667 399.138 L 76.6667 399.138" />
        <path d="M 66.6667 57.7002 L 86.6667 57.7002" />
        <text font-size="30" transform="translate(56.6667, 67.7002)" text-anchor="end" dominant-baseline="middle" stroke="none" fill="black">1</text>
        <path d="M 66.6667 361.2 L 86.6667 361.2" />
        <text font-size="30" transform="translate(56.6667, 371.2)" text-anchor="end" dominant-baseline="middle" stroke="none" fill="black">0.2</text>
        <path d="M 66.6667 209.45 L 86.6667 209.45" />
        <text font-size="30" transform="translate(56.6667, 219.45)" text-anchor="end" dominant-baseline="middle" stroke="none" fill="black">0.6</text>
        <path d="M 66.6667 323.263 L 76.6667 323.263" />
        <path d="M 66.6667 133.575 L 86.6667 133.575" />
        <text font-size="30" transform="translate(56.6667, 143.575)" text-anchor="end" dominant-baseline="middle" stroke="none" fill="black">0.8</text>
        <path d="M 66.6667 95.6377 L 76.6667 95.6377" />
        <path d="M 66.6667 171.513 L 76.6667 171.513" />
    </g>
    <g id="frame_0_topticks">
        <path d="M 201.568 25 L 201.568 35" />
        <path d="M 86.1657 25 L 86.1657 45" />
        <path d="M 270.809 25 L 270.809 45" />
        <path d="M 109.246 25 L 109.246 35" />
        <path d="M 132.327 25 L 132.327 45" />
        <path d="M 224.648 25 L 224.648 45" />
        <path d="M 155.407 25 L 155.407 35" />
        <path d="M 178.487 25 L 178.487 45" />
        <path d="M 293.889 25 L 293.889 35" />
        <path d="M 247.729 25 L 247.729 35" />
    </g>
    <g id="frame_0_rightticks">
        <path d="M 316.667 247.388 L 306.667 247.388" />
        <path d="M 316.667 437.076 L 296.667 437.076" />
        <path d="M 316.667 285.325 L 296.667 285.325" />
        <path d="M 316.667 399.138 L 306.667 399.138" />
        <path d="M 316.667 57.7002 L 296.667 57.7002" />
        <path d="M 316.667 361.2 L 296.667 361.2" />
        <path d="M 316.667 209.45 L 296.667 209.45" />
        <path d="M 316.667 323.263 L 306.667 323.263" />
        <path d="M 316.667 133.575 L 296.667 133.575" />
        <path d="M 316.667 95.6377 L 306.667 95.6377" />
        <path d="M 316.667 171.513 L 306.667 171.513" />
    </g>
</g>
<g id="Scatter_1" clip-path="url(#Scatter_1_clip)">
    <path d="M 574.593 386.402 L 624.794 386.402 M 574.593 381.402 L 574.593 391.402 M 624.794 381.402 L 624.794 391.402" stroke="black" stroke-opacity="1" fill="none" />
    <path d="M 465.617 396.299 L 505.475 396.299 M 465.617 391.299 L 465.617 401.299 M 505.475 391.299 L 505.475 401.299" stroke="black" stroke-opacity="1" fill="none" />
    <path d="M 522.623 387.26 L 570.031 387.26 M 522.623 382.26 L 522.623 392.26 M 570.031 382.26 L 570.031 392.26" stroke="black" stroke-opacity="1" fill="none" />
    <path d="M 591.356 132.732 L 636.697 132.732 M 591.356 127.732 L 591.356 137.732 M 636.697 127.732 L 636.697 137.732" stroke="black" stroke-opacity="1" fill="none" />
    <path d="M 607.188 339.63 L 651.145 339.63 M 607.188 334.63 L 607.188 344.63 M 651.145 334.63 L 651.145 344.63" stroke="black" stroke-opacity="1" fill="none" />
    <path d="M 591.062 61.25 L 634.425 61.25 M 591.062 56.25 L 591.062 66.25 M 634.425 56.25 L 634.425 66.25" stroke="black" stroke-opacity="1" fill="none" />
    <path d="M 583.192 423.75 L 634.955 423.75 M 583.192 418.75 L 583.192 428.75 M 634.955 418.75 L 634.955 428.75" stroke="black" stroke-opacity="1" fill="none" />
    <path d="M 436.608 164.723 L 475.985 164.723 M 436.608 159.723 L 436.608 169.723 M 475.985 159.723 L 475.985 169.723" stroke="black" stroke-opacity="1" fill="none" />
    <path d="M 546.558 421.837 L 594.535 421.837 M 546.558 416.837 L 546.558 426.837 M 594.535 416.837 L 594.535 426.837" stroke="black" stroke-opacity="1" fill="none" />
    <path d="M 583.277 141.235 L 626.471 141.235 M 583.277 136.235 L 583.277 146.235 M 626.471 136.235 L 626.471 146.235" stroke="black" stroke-opacity="1" fill="none" />
    <path d="M 488.455 85.5897 L 541.148 85.5897 M 488.455 80.5897 L 488.455 90.5897 M 541.148 80.5897 L 541.148 90.5897" stroke="black" stroke-opacity="1" fill="none" />
    <path d="M 396.341 93.1015 L 445.326 93.1015 M 396.341 88.1015 L 396.341 98.1015 M 445.326 88.1015 L 445.326 98.1015" stroke="black" stroke-opacity="1" fill="none" />
    <path d="M 483.54 350.667 L 529.661 350.667 M 483.54 345.667 L 483.54 355.667 M 529.661 345.667 L 529.661 355.667" stroke="black" stroke-opacity="1" fill="none" />
    <path d="M 432.106 320.931 L 479.886 320.931 M 432.106 315.931 L 432.106 325.931 M 479.886 315.931 L 479.886 325.931" stroke="black" stroke-opacity="1" fill="none" />
    <path d="M 525.958 331.795 L 572.486 331.795 M 525.958 326.795 L 525.958 336.795 M 572.486 326.795 L 572.486 336.795" stroke="black" stroke-opacity="1" fill="none" />
    <path d="M 572.411 264.725 L 612.404 264.725 M 572.411 259.725 L 572.411 269.725 M 612.404 259.725 L 612.404 269.725" stroke="black" stroke-opacity="1" fill="none" />
    <path d="M 581.386 174.804 L 631.978 174.804 M 581.386 169.804 L 581.386 179.804 M 631.978 169.804 L 631.978 179.804" stroke="black" stroke-opacity="1" fill="none" />
    <path d="M 481.669 299.617 L 526.62 299.617 M 481.669 294.617 L 481.669 304.617 M 526.62 294.617 L 526.62 304.617" stroke="black" stroke-opacity="1" fill="none" />
    <path d="M 574.153 321.272 L 616.121 321.272 M 574.153 316.272 L 574.153 326.272 M 616.121 316.272 L 616.121 326.272" stroke="black" stroke-opacity="1" fill="none" />
    <path d="M 479.857 219.367 L 525.978 219.367 M 479.857 214.367 L 479.857 224.367 M 525.978 214.367 L 525.978 224.367" stroke="black" stroke-opacity="1" fill="none" />
    <path d="M 599.694 423.646 L 599.694 349.158 M 594.694 423.646 L 604.694 423.646 M 594.694 349.158 L 604.694 349.158" stroke="black" stroke-opacity="1" fill="none" />
    <path d="M 485.546 428.666 L 485.546 363.932 M 480.546 428.666 L 490.546 428.666 M 480.546 363.932 L 490.546 363.932" stroke="black" stroke-opacity="1" fill="none" />
    <path d="M 546.327 427.536 L 546.327 346.983 M 541.327 427.536 L 551.327 427.536 M 541.327 346.983 L 551.327 346.983" stroke="black" stroke-opacity="1" fill="none" />
    <path d="M 614.027 172.648 L 614.027 92.8166 M 609.027 172.648 L 619.027 172.648 M 609.027 92.8166 L 619.027 92.8166" stroke="black" stroke-opacity="1" fill="none" />
    <path d="M 629.167 377.959 L 629.167 301.302 M 624.167 377.959 L 634.167 377.959 M 624.167 301.302 L 634.167 301.302" stroke="black" stroke-opacity="1" fill="none" />
    <path d="M 612.744 97.1263 L 612.744 25.3737 M 607.744 97.1263 L 617.744 97.1263 M 607.744 25.3737 L 617.744 25.3737" stroke="black" stroke-opacity="1" fill="none" />
    <path d="M 609.074 457.094 L 609.074 390.406 M 604.074 457.094 L 614.074 457.094 M 604.074 390.406 L 614.074 390.406" stroke="black" stroke-opacity="1" fill="none" />
    <path d="M 456.297 203.249 L 456.297 126.197 M 451.297 203.249 L 461.297 203.249 M 451.297 126.197 L 461.297 126.197" stroke="black" stroke-opacity="1" fill="none" />
    <path d="M 570.547 464.961 L 570.547 378.713 M 565.547 464.961 L 575.547 464.961 M 565.547 378.713 L 575.547 378.713" stroke="black" stroke-opacity="1" fill="none" />
    <path d="M 604.874 181.915 L 604.874 100.556 M 599.874 181.915 L 609.874 181.915 M 599.874 100.556 L 609.874 100.556" stroke="black" stroke-opacity="1" fill="none" />
    <path d="M 514.801 120.39 L 514.801 50.7899 M 509.801 120.39 L 519.801 120.39 M 509.801 50.7899 L 519.801 50.7899" stroke="black" stroke-opacity="1" fill="none" />
    <path d="M 420.833 134.723 L 420.833 51.4803 M 415.833 134.723 L 425.833 134.723 M 415.833 51.4803 L 425.833 51.4803" stroke="black" stroke-opacity="1" fill="none" />
    <path d="M 506.6 387.241 L 506.6 314.093 M 501.6 387.241 L 511.6 387.241 M 501.6 314.093 L 511.6 314.093" stroke="black" stroke-opacity="1" fill="none" />
    <path d="M 455.996 357.578 L 455.996 284.284 M 450.996 357.578 L 460.996 357.578 M 450.996 284.284 L 460.996 284.284" stroke="black" stroke-opacity="1" fill="none" />
    <path d="M 549.222 367.598 L 549.222 295.992 M 544.222 367.598 L 554.222 367.598 M 544.222 295.992 L 554.222 295.992" stroke="black" stroke-opacity="1" fill="none" />
    <path d="M 592.408 304.487 L 592.408 224.964 M 587.408 304.487 L 597.408 304.487 M 587.408 224.964 L 597.408 224.964" stroke="black" stroke-opacity="1" fill="none" />
    <path d="M 606.682 212.028 L 606.682 137.58 M 601.682 212.028 L 611.682 212.028 M 601.682 137.58 L 611.682 137.58" stroke="black" stroke-opacity="1" fill="none" />
    <path d="M 504.144 338.583 L 504.144 260.652 M 499.144 338.583 L 509.144 338.583 M 499.144 260.652 L 509.144 260.652" stroke="black" stroke-opacity="1" fill="none" />
    <path d="M 595.137 360.184 L 595.137 282.36 M 590.137 360.184 L 600.137 360.184 M 590.137 282.36 L 600.137 282.36" stroke="black" stroke-opacity="1" fill="none" />
    <path d="M 502.917 260.136 L 502.917 178.598 M 497.917 260.136 L 507.917 260.136 M 497.917 178.598 L 507.917 178.598" stroke="black" stroke-opacity="1" fill="none" />
    <use x="599.694" y="386.402" xlink:href="#Scatter_1_mark" />
    <use x="485.546" y="396.299" xlink:href="#Scatter_1_mark" />
    <use x="546.327" y="387.26" xlink:href="#Scatter_1_mark" />
    <use x="614.027" y="132.732" xlink:href="#Scatter_1_mark" />
    <use x="629.167" y="339.63" xlink:href="#Scatter_1_mark" />
    <use x="612.744" y="61.25" xlink:href="#Scatter_1_mark" />
    <use x="609.074" y="423.75" xlink:href="#Scatter_1_mark" />
    <use x="456.297" y="164.723" xlink:href="#Scatter_1_mark" />
    <use x="570.547" y="421.837" xlink:href="#Scatter_1_mark" />
    <use x="604.874" y="141.235" xlink:href="#Scatter_1_mark" />
    <use x="514.801" y="85.5897" xlink:href="#Scatter_1_mark" />
    <use x="420.833" y="93.1015" xlink:href="#Scatter_1_mark" />
    <use x="506.6" y="350.667" xlink:href="#Scatter_1_mark" />
    <use x="455.996" y="320.931" xlink:href="#Scatter_1_mark" />
    <use x="549.222" y="331.795" xlink:href="#Scatter_1_mark" />
    <use x="592.408" y="264.725" xlink:href="#Scatter_1_mark" />
    <use x="606.682" y="174.804" xlink:href="#Scatter_1_mark" />
    <use x="504.144" y="299.617" xlink:href="#Scatter_1_mark" />
    <use x="595.137" y="321.272" xlink:href="#Scatter_1_mark" />
    <use x="502.917" y="219.367" xlink:href="#Scatter_1_mark" />
</g>
<g id="frame_1">
    <rect id="frame_1_border" x="400" y="25" width="250" height="435" />
    <g id="frame_1_bottomticks">
        <path d="M 534.901 460 L 534.901 450" />
        <path d="M 419.499 460 L 419.499 440" />
        <text font-size="30" transform="translate(419.499, 490)" text-anchor="middle" dominant-baseline="middle" stroke="none" fill="black">0</text>
        <path d="M 604.142 460 L 604.142 440" />
        <text font-size="30" transform="translate(604.142, 490)" text-anchor="middle" dominant-baseline="middle" stroke="none" fill="black">0.8</text>
        <path d="M 442.579 460 L 442.579 450" />
        <path d="M 465.66 460 L 465.66 440" />
        <text font-size="30" transform="translate(465.66, 490)" text-anchor="middle" dominant-baseline="middle" stroke="none" fill="black">0.2</text>
        <path d="M 557.982 460 L 557.982 440" />
        <text font-size="30" transform="translate(557.982, 490)" text-anchor="middle" dominant-baseline="middle" stroke="none" fill="black">0.6</text>
        <path d="M 488.74 460 L 488.74 450" />
        <path d="M 511.821 460 L 511.821 440" />
        <text font-size="30" transform="translate(511.821, 490)" text-anchor="middle" dominant-baseline="middle" stroke="none" fill="black">0.4</text>
        <path d="M 627.223 460 L 627.223 450" />
        <path d="M 581.062 460 L 581.062 450" />
    </g>
    <g id="frame_1_leftticks">
        <path d="M 400 247.388 L 410 247.388" />
        <path d="M 400 437.076 L 420 437.076" />
        <text font-size="30" transform="translate(390, 447.076)" text-anchor="end" dominant-baseline="middle" stroke="none" fill="black">0</text>
        <path d="M 400 285.325 L 420 285.325" />
        <text font-size="30" transform="translate(390, 295.325)" text-anchor="end" dominant-baseline="middle" stroke="none" fill="black">0.4</text>
        <path d="M 400 399.138 L 410 399.138" />
        <path d="M 400 57.7002 L 420 57.7002" />
        <text font-size="30" transform="translate(390, 67.7002)" text-anchor="end" dominant-baseline="middle" stroke="none" fill="black">1</text>
        <path d="M 400 361.2 L 420 361.2" />
        <text font-size="30" transform="translate(390, 371.2)" text-anchor="end" dominant-baseline="middle" stroke="none" fill="black">0.2</text>
        <path d="M 400 209.45 L 420 209.45" />
        <text font-size="30" transform="translate(390, 219.45)" text-anchor="end" dominant-baseline="middle" stroke="none" fill="black">0.6</text>
        <path d="M 400 323.263 L 410 323.263" />
        <path d="M 400 133.575 L 420 133.575" />
        <text font-size="30" transform="translate(390, 143.575)" text-anchor="end" dominant-baseline="middle" stroke="none" fill="black">0.8</text>
        <path d="M 400 95.6377 L 410 95.6377" />
        <path d="M 400 171.513 L 410 171.513" />
    </g>
    <g id="frame_1_topticks">
        <path d="M 534.901 25 L 534.901 35" />
        <path d="M 419.499 25 L 419.499 45" />
        <path d="M 604.142 25 L 604.142 45" />
        <path d="M 442.579 25 L 442.579 35" />
        <path d="M 465.66 25 L 465.66 45" />
        <path d="M 557.982 25 L 557.982 45" />
        <path d="M 488.74 25 L 488.74 35" />
        <path d="M 511.821 25 L 511.821 45" />
        <path d="M 627.223 25 L 627.223 35" />
        <path d="M 581.062 25 L 581.062 35" />
    </g>
    <g id="frame_1_rightticks">
        <path d="M 650 247.388 L 640 247.388" />
        <path d="M 650 437.076 L 630 437.076" />
        <path d="M 650 285.325 L 630 285.325" />
        <path d="M 650 399.138 L 640 399.138" />
        <path d="M 650 57.7002 L 630 57.7002" />
        <path d="M 650 361.2 L 630 361.2" />
        <path d="M 650 209.45 L 630 209.45" />
        <path d="M 650 323.263 L 640 323.263" />
        <path d="M 650 133.575 L 630 133.575" />
        <path d="M 650 95.6377 L 640 95.6377" />
        <path d="M 650 171.513 L 640 171.513" />
    </g>
</g>
<g id="Scatter_2" clip-path="url(#Scatter_2_clip)">
    <path d="M 920.433 386.402 L 958.128 386.402 M 920.433 381.402 L 920.433 391.402 M 958.128 381.402 L 958.128 391.402" stroke="black" stroke-opacity="1" fill="none" />
    <path d="M 808.5 396.299 L 838.808 396.299 M 808.5 391.299 L 808.5 401.299 M 838.808 391.299 L 838.808 401.299" stroke="black" stroke-opacity="1" fill="none" />
    <path d="M 869.629 387.26 L 903.365 387.26 M 869.629 382.26 L 869.629 392.26 M 903.365 382.26 L 903.365 392.26" stroke="black" stroke-opacity="1" fill="none" />
    <path d="M 933.768 132.732 L 970.031 132.732 M 933.768 127.732 L 933.768 137.732 M 970.031 127.732 L 970.031 137.732" stroke="black" stroke-opacity="1" fill="none" />
    <path d="M 948.928 339.63 L 984.479 339.63 M 948.928 334.63 L 948.928 344.63 M 984.479 334.63 L 984.479 344.63" stroke="black" stroke-opacity="1" fill="none" />
    <path d="M 930.607 61.25 L 967.758 61.25 M 930.607 56.25 L 930.607 66.25 M 967.758 56.25 L 967.758 66.25" stroke="black" stroke-opacity="1" fill="none" />
    <path d="M 929.464 423.75 L 968.289 423.75 M 929.464 418.75 L 929.464 428.75 M 968.289 418.75 L 968.289 428.75" stroke="black" stroke-opacity="1" fill="none" />
    <path d="M 776.732 164.723 L 809.318 164.723 M 776.732 159.723 L 776.732 169.723 M 809.318 159.723 L 809.318 169.723" stroke="black" stroke-opacity="1" fill="none" />
    <path d="M 893.291 421.837 L 927.869 421.837 M 893.291 416.837 L 893.291 426.837 M 927.869 416.837 L 927.869 426.837" stroke="black" stroke-opacity="1" fill="none" />
    <path d="M 924.727 141.235 L 959.804 141.235 M 924.727 136.235 L 924.727 146.235 M 959.804 136.235 L 959.804 146.235" stroke="black" stroke-opacity="1" fill="none" />
    <path d="M 834.514 85.5897 L 874.481 85.5897 M 834.514 80.5897 L 834.514 90.5897 M 874.481 80.5897 L 874.481 90.5897" stroke="black" stroke-opacity="1" fill="none" />
    <path d="M 739.94 93.1015 L 778.659 93.1015 M 739.94 88.1015 L 739.94 98.1015 M 778.659 88.1015 L 778.659 98.1015" stroke="black" stroke-opacity="1" fill="none" />
    <path d="M 824.292 350.667 L 862.994 350.667 M 824.292 345.667 L 824.292 355.667 M 862.994 345.667 L 862.994 355.667" stroke="black" stroke-opacity="1" fill="none" />
    <path d="M 779.874 320.931 L 813.219 320.931 M 779.874 315.931 L 779.874 325.931 M 813.219 315.931 L 813.219 325.931" stroke="black" stroke-opacity="1" fill="none" />
    <path d="M 872.089 331.795 L 905.819 331.795 M 872.089 326.795 L 872.089 336.795 M 905.819 326.795 L 905.819 336.795" stroke="black" stroke-opacity="1" fill="none" />
    <path d="M 916.013 264.725 L 945.738 264.725 M 916.013 259.725 L 916.013 269.725 M 945.738 259.725 L 945.738 269.725" stroke="black" stroke-opacity="1" fill="none" />
    <path d="M 928.297 174.804 L 965.311 174.804 M 928.297 169.804 L 928.297 179.804 M 965.311 169.804 L 965.311 179.804" stroke="black" stroke-opacity="1" fill="none" />
    <path d="M 825.741 299.617 L 859.953 299.617 M 825.741 294.617 L 825.741 304.617 M 859.953 294.617 L 859.953 304.617" stroke="black" stroke-opacity="1" fill="none" />
    <path d="M 918.474 321.272 L 949.454 321.272 M 918.474 316.272 L 918.474 326.272 M 949.454 316.272 L 949.454 326.272" stroke="black" stroke-opacity="1" fill="none" />
    <path d="M 824.685 219.367 L 859.311 219.367 M 824.685 214.367 L 824.685 224.367 M 859.311 214.367 L 859.311 224.367" stroke="black" stroke-opacity="1" fill="none" />
    <path d="M 933.027 401.851 L 933.027 349.158 M 928.027 401.851 L 938.027 401.851 M 928.027 349.158 L 938.027 349.158" stroke="black" stroke-opacity="1" fill="none" />
    <path d="M 818.879 414.906 L 818.879 363.932 M 813.879 414.906 L 823.879 414.906 M 813.879 363.932 L 823.879 363.932" stroke="black" stroke-opacity="1" fill="none" />
    <path d="M 879.661 403.562 L 879.661 346.983 M 874.661 403.562 L 884.661 403.562 M 874.661 346.983 L 884.661 346.983" stroke="black" stroke-opacity="1" fill="none" />
    <path d="M 947.36 156.361 L 947.36 92.8166 M 942.36 156.361 L 952.36 156.361 M 942.36 92.8166 L 952.36 92.8166" stroke="black" stroke-opacity="1" fill="none" />
    <path d="M 962.5 362.078 L 962.5 301.302 M 957.5 362.078 L 967.5 362.078 M 957.5 301.302 L 967.5 301.302" stroke="black" stroke-opacity="1" fill="none" />
    <path d="M 946.077 79.1568 L 946.077 25.3737 M 941.077 79.1568 L 951.077 79.1568 M 941.077 25.3737 L 951.077 25.3737" stroke="black" stroke-opacity="1" fill="none" />
    <path d="M 942.407 444.916 L 942.407 390.406 M 937.407 444.916 L 947.407 444.916 M 937.407 390.406 L 947.407 390.406" stroke="black" stroke-opacity="1" fill="none" />
    <path d="M 789.63 182.604 L 789.63 126.197 M 784.63 182.604 L 794.63 182.604 M 784.63 126.197 L 794.63 126.197" stroke="black" stroke-opacity="1" fill="none" />
    <path d="M 903.88 440.025 L 903.88 378.713 M 898.88 440.025 L 908.88 440.025 M 898.88 378.713 L 908.88 378.713" stroke="black" stroke-opacity="1" fill="none" />
    <path d="M 938.207 159.789 L 938.207 100.556 M 933.207 159.789 L 943.207 159.789 M 933.207 100.556 L 943.207 100.556" stroke="black" stroke-opacity="1" fill="none" />
    <path d="M 848.135 104.509 L 848.135 50.7899 M 843.135 104.509 L 853.135 104.509 M 843.135 50.7899 L 853.135 50.7899" stroke="black" stroke-opacity="1" fill="none" />
    <path d="M 754.167 109.604 L 754.167 51.4803 M 749.167 109.604 L 759.167 109.604 M 749.167 51.4803 L 759.167 51.4803" stroke="black" stroke-opacity="1" fill="none" />
    <path d="M 839.933 363.436 L 839.933 314.093 M 834.933 363.436 L 844.933 363.436 M 834.933 314.093 L 844.933 314.093" stroke="black" stroke-opacity="1" fill="none" />
    <path d="M 789.329 337.039 L 789.329 284.284 M 784.329 337.039 L 794.329 337.039 M 784.329 284.284 L 794.329 284.284" stroke="black" stroke-opacity="1" fill="none" />
    <path d="M 882.555 347.34 L 882.555 295.992 M 877.555 347.34 L 887.555 347.34 M 877.555 295.992 L 887.555 295.992" stroke="black" stroke-opacity="1" fill="none" />
    <path d="M 925.741 277.756 L 925.741 224.964 M 920.741 277.756 L 930.741 277.756 M 920.741 224.964 L 930.741 224.964" stroke="black" stroke-opacity="1" fill="none" />
    <path d="M 940.015 195.973 L 940.015 137.58 M 935.015 195.973 L 945.015 195.973 M 935.015 137.58 L 945.015 137.58" stroke="black" stroke-opacity="1" fill="none" />
    <path d="M 837.478 321.717 L 837.478 260.652 M 832.478 321.717 L 842.478 321.717 M 832.478 260.652 L 842.478 260.652" stroke="black" stroke-opacity="1" fill="none" />
    <path d="M 928.47 340.295 L 928.47 282.36 M 923.47 340.295 L 933.47 340.295 M 923.47 282.36 L 933.47 282.36" stroke="black" stroke-opacity="1" fill="none" />
    <path d="M 836.251 239.854 L 836.251 178.598 M 831.251 239.854 L 841.251 239.854 M 831.251 178.598 L 841.251 178.598" stroke="black" stroke-opacity="1" fill="none" />
    <use x="933.027" y="386.402" xlink:href="#Scatter_2_mark" />
    <use x="818.879" y="396.299" xlink:href="#Scatter_2_mark" />
    <use x="879.661" y="387.26" xlink:href="#Scatter_2_mark" />
    <use x="947.36" y="132.732" xlink:href="#Scatter_2_mark" />
    <use x="962.5" y="339.63" xlink:href="#Scatter_2_mark" />
    <use x="946.077" y="61.25" xlink:href="#Scatter_2_mark" />
    <use x="942.407" y="423.75" xlink:href="#Scatter_2_mark" />
    <use x="789.63" y="164.723" xlink:href="#Scatter_2_mark" />
    <use x="903.88" y="421.837" xlink:href="#Scatter_2_mark" />
    <use x="938.207" y="141.235" xlink:href="#Scatter_2_mark" />
    <use x="848.135" y="85.5897" xlink:href="#Scatter_2_mark" />
    <use x="754.167" y="93.1015" xlink:href="#Scatter_2_mark" />
    <use x="839.933" y="350.667" xlink:href="#Scatter_2_mark" />
    <use x="789.329" y="320.931" xlink:href="#Scatter_2_mark" />
    <use x="882.555" y="331.795" xlink:href="#Scatter_2_mark" />
    <use x="925.741" y="264.725" xlink:href="#Scatter_2_mark" />
    <use x="940.015" y="174.804" xlink:href="#Scatter_2_mark" />
    <use x="837.478" y="299.617" xlink:href="#Scatter_2_mark" />
    <use x="928.47" y="321.272" xlink:href="#Scatter_2_mark" />
    <use x="836.251" y="219.367" xlink:href="#Scatter_2_mark" />
</g>
<g id="frame_2">
    <rect id="frame_2_border" x="733.333" y="25" width="250" height="435" />
    <g id="frame_2_bottomticks">
        <path d="M 868.234 460 L 868.234 450" />
        <path d="M 752.832 460 L 752.832 440" />
        <text font-size="30" transform="translate(752.832, 490)" text-anchor="middle" dominant-baseline="middle" stroke="none" fill="black">0</text>
        <path d="M 937.476 460 L 937.476 440" />
        <text font-size="30" transform="translate(937.476, 490)" text-anchor="middle" dominant-baseline="middle" stroke="none" fill="black">0.8</text>
        <path d="M 775.913 460 L 775.913 450" />
        <path d="M 798.993 460 L 798.993 440" />
        <text font-size="30" transform="translate(798.993, 490)" text-anchor="middle" dominant-baseline="middle" stroke="none" fill="black">0.2</text>
        <path d="M 891.315 460 L 891.315 440" />
        <text font-size="30" transform="translate(891.315, 490)" text-anchor="middle" dominant-baseline="middle" stroke="none" fill="black">0.6</text>
        <path d="M 822.074 460 L 822.074 450" />
        <path d="M 845.154 460 L 845.154 440" />
        <text font-size="30" transform="translate(845.154, 490)" text-anchor="middle" dominant-baseline="middle" stroke="none" fill="black">0.4</text>
        <path d="M 960.556 460 L 960.556 450" />
        <path d="M 914.395 460 L 914.395 450" />
    </g>
    <g id="frame_2_leftticks">
        <path d="M 733.333 247.388 L 743.333 247.388" />
        <path d="M 733.333 437.076 L 753.333 437.076" />
        <text font-size="30" transform="translate(723.333, 447.076)" text-anchor="end" dominant-baseline="middle" stroke="none" fill="black">0</text>
        <path d="M 733.333 285.325 L 753.333 285.325" />
        <text font-size="30" transform="translate(723.333, 295.325)" text-anchor="end" dominant-baseline="middle" stroke="none" fill="black">0.4</text>
        <path d="M 733.333 399.138 L 743.333 399.138" />
        <path d="M 733.333 57.7002 L 753.333 57.7002" />
        <text font-size="30" transform="translate(723.333, 67.7002)" text-anchor="end" dominant-baseline="middle" stroke="none" fill="black">1</text>
        <path d="M 733.333 361.2 L 753.333 361.2" />
        <text font-size="30" transform="translate(723.333, 371.2)" text-anchor="end" dominant-baseline="middle" stroke="none" fill="black">0.2</text>
        <path d="M 733.333 209.45 L 753.333 209.45" />
        <text font-size="30" transform="translate(723.333, 219.45)" text-anchor="end" dominant-baseline="middle" stroke="none" fill="black">0.6</text>
        <path d="M 733.333 323.263 L 743.333 323.263" />
        <path d="M 733.333 133.575 L 753.333 133.575" />
        <text font-size="30" transform="translate(723.333, 143.575)" text-anchor="end" dominant-baseline="middle" stroke="none" fill="black">0.8</text>
        <path d="M 733.333 95.6377 L 743.333 95.6377" />
        <path d="M 733.333 171.513 L 743.333 171.513" />
    </g>
    <g id="frame_2_topticks">
        <path d="M 868.234 25 L 868.234 35" />
        <path d="M 752.832 25 L 752.832 45" />
        <path d="M 937.476 25 L 937.476 45" />
        <path d="M 775.913 25 L 775.913 35" />
        <path d="M 798.993 25 L 798.993 45" />
        <path d="M 891.315 25 L 891.315 45" />
        <path d="M 822.074 25 L 822.074 35" />
        <path d="M 845.154 25 L 845.154 45" />
        <path d="M 960.556 25 L 960.556 35" />
        <path d="M 914.395 25 L 914.395 35" />
    </g>
    <g id="frame_2_rightticks">
        <path d="M 983.333 247.388 L 973.333 247.388" />
        <path d="M 983.333 437.076 L 963.333 437.076" />
        <path d="M 983.333 285.325 L 963.333 285.325" />
        <path d="M 983.333 399.138 L 973.333 399.138" />
        <path d="M 983.333 57.7002 L 963.333 57.7002" />
        <path d="M 983.333 361.2 L 963.333 361.2" />
        <path d="M 983.333 209.45 L 963.333 209.45" />
        <path d="M 983.333 323.263 L 973.333 323.263" />
        <path d="M 983.333 133.575 L 963.333 133.575" />
        <path d="M 983.333 95.6377 L 973.333 95.6377" />
        <path d="M 983.333 171.513 L 973.333 171.513" />
    </g>
</g>
<g id="Scatter_3" clip-path="url(#Scatter_3_clip)">
    <path d="M 266.36 886.402 L 152.213 896.299 L 212.994 887.26 L 280.694 632.732 L 295.833 839.63 L 279.41 561.25 L 275.741 923.75 L 122.963 664.723 L 237.214 921.837 L 271.541 641.235 L 181.468 585.59 L 87.5 593.102 L 173.267 850.667 L 122.662 820.931 L 215.888 831.795 L 259.074 764.725 L 273.348 674.804 L 170.811 799.617 L 261.804 821.272 L 169.584 719.367" stroke-width="3" stroke-dasharray="" stroke="black" stroke-opacity="1" fill="none" />
</g>
<g id="frame_3">
    <rect id="frame_3_border" x="66.6667" y="525" width="250" height="435" />
    <g id="frame_3_bottomticks">
        <path d="M 201.568 960 L 201.568 950" />
        <path d="M 86.1657 960 L 86.1657 940" />
        <text font-size="30" transform="translate(86.1657, 990)" text-anchor="middle" dominant-baseline="middle" stroke="none" fill="black">0</text>
        <path d="M 270.809 960 L 270.809 940" />
        <text font-size="30" transform="translate(270.809, 990)" text-anchor="middle" dominant-baseline="middle" stroke="none" fill="black">0.8</text>
        <path d="M 109.246 960 L 109.246 950" />
        <path d="M 132.327 960 L 132.327 940" />
        <text font-size="30" transform="translate(132.327, 990)" text-anchor="middle" dominant-baseline="middle" stroke="none" fill="black">0.2</text>
        <path d="M 224.648 960 L 224.648 940" />
        <text font-size="30" transform="translate(224.648, 990)" text-anchor="middle" dominant-baseline="middle" stroke="none" fill="black">0.6</text>
        <path d="M 155.407 960 L 155.407 950" />
        <path d="M 178.487 960 L 178.487 940" />
        <text font-size="30" transform="translate(178.487, 990)" text-anchor="middle" dominant-baseline="middle" stroke="none" fill="black">0.4</text>
        <path d="M 293.889 960 L 293.889 950" />
        <path d="M 247.729 960 L 247.729 950" />
    </g>
    <g id="frame_3_leftticks">
        <path d="M 66.6667 747.388 L 76.6667 747.388" />
        <path d="M 66.6667 937.076 L 86.6667 937.076" />
        <text font-size="30" transform="translate(56.6667, 947.076)" text-anchor="end" dominant-baseline="middle" stroke="none" fill="black">0</text>
        <path d="M 66.6667 785.325 L 86.6667 785.325" />
        <text font-size="30" transform="translate(56.6667, 795.325)" text-anchor="end" dominant-baseline="middle" stroke="none" fill="black">0.4</text>
        <path d="M 66.6667 899.138 L 76.6667 899.138" />
        <path d="M 66.6667 557.7 L 86.6667 557.7" />
        <text font-size="30" transform="translate(56.6667, 567.7)" text-anchor="end" dominant-baseline="middle" stroke="none" fill="black">1</text>
        <path d="M 66.6667 861.2 L 86.6667 861.2" />
        <text font-size="30" transform="translate(56.6667, 871.2)" text-anchor="end" dominant-baseline="middle" stroke="none" fill="black">0.2</text>
        <path d="M 66.6667 709.45 L 86.6667 709.45" />
        <text font-size="30" transform="translate(56.6667, 719.45)" text-anchor="end" dominant-baseline="middle" stroke="none" fill="black">0.6</text>
        <path d="M 66.6667 823.263 L 76.6667 823.263" />
        <path d="M 66.6667 633.575 L 86.6667 633.575" />
        <text font-size="30" transform="translate(56.6667, 643.575)" text-anchor="end" dominant-baseline="middle" stroke="none" fill="black">0.8</text>
        <path d="M 66.6667 595.638 L 76.6667 595.638" />
        <path d="M 66.6667 671.513 L 76.6667 671.513" />
    </g>
    <g id="frame_3_topticks">
        <path d="M 201.568 525 L 201.568 535" />
        <path d="M 86.1657 525 L 86.1657 545" />
        <path d="M 270.809 525 L 270.809 545" />
        <path d="M 109.246 525 L 109.246 535" />
        <path d="M 132.327 525 L 132.327 545" />
        <path d="M 224.648 525 L 224.648 545" />
        <path d="M 155.407 525 L 155.407 535" />
        <path d="M 178.487 525 L 178.487 545" />
        <path d="M 293.889 525 L 293.889 535" />
        <path d="M 247.729 525 L 247.729 535" />
    </g>
    <g id="frame_3_rightticks">
        <path d="M 316.667 747.388 L 306.667 747.388" />
        <path d="M 316.667 937.076 L 296.667 937.076" />
        <path d="M 316.667 785.325 L 296.667 785.325" />
        <path d="M 316.667 899.138 L 306.667 899.138" />
        <path d="M 316.667 557.7 L 296.667 557.7" />
        <path d="M 316.667 861.2 L 296.667 861.2" />
        <path d="M 316.667 709.45 L 296.667 709.45" />
        <path d="M 316.667 823.263 L 306.667 823.263" />
        <path d="M 316.667 633.575 L 296.667 633.575" />
        <path d="M 316.667 595.638 L 306.667 595.638" />
        <path d="M 316.667 671.513 L 306.667 671.513" />
    </g>
</g>
<g id="Scatter_4" clip-path="url(#Scatter_4_clip)">
    <path d="M 420.833 593.102 L 455.996 820.931 L 456.297 664.723 L 485.546 896.299 L 502.917 719.367 L 504.144 799.617 L 506.6 850.667 L 514.801 585.59 L 546.327 887.26 L 549.222 831.795 L 570.547 921.837 L 592.408 764.725 L 595.137 821.272 L 599.694 886.402 L 604.874 641.235 L 606.682 674.804 L 609.074 923.75 L 612.744 561.25 L 614.027 632.732 L 629.167 839.63" stroke-width="3" stroke-dasharray="" stroke="black" stroke-opacity="1" fill="none" />
</g>
<g id="frame_4">
    <rect id="frame_4_border" x="400" y="525" width="250" height="435" />
    <g id="frame_4_bottomticks">
        <path d="M 534.901 960 L 534.901 950" />
        <path d="M 419.499 960 L 419.499 940" />
        <text font-size="30" transform="translate(419.499, 990)" text-anchor="middle" dominant-baseline="middle" stroke="none" fill="black">0</text>
        <path d="M 604.142 960 L 604.142 940" />
        <text font-size="30" transform="translate(604.142, 990)" text-anchor="middle" dominant-baseline="middle" stroke="none" fill="black">0.8</text>
        <path d="M 442.579 960 L 442.579 950" />
        <path d="M 465.66 960 L 465.66 940" />
        <text font-size="30" transform="translate(465.66, 990)" text-anchor="middle" dominant-baseline="middle" stroke="none" fill="black">0.2</text>
        <path d="M 557.982 960 L 557.982 940" />
        <text font-size="30" transform="translate(557.982, 990)" text-anchor="middle" dominant-baseline="middle" stroke="none" fill="black">0.6</text>
        <path d="M 488.74 960 L 488.74 950" />
        <path d="M 511.821 960 L 511.821 940" />
        <text font-size="30" transform="translate(511.821, 990)" text-anchor="middle" dominant-baseline="middle" stroke="none" fill="black">0.4</text>
        <path d="M 627.223 960 L 627.223 950" />
        <path d="M 581.062 960 L 581.062 950" />
    </g>
    <g id="frame_4_leftticks">
        <path d="M 400 747.388 L 410 747.388" />
        <path d="M 400 937.076 L 420 937.076" />
        <text font-size="30" transform="translate(390, 947.076)" text-anchor="end" dominant-baseline="middle" stroke="none" fill="black">0</text>
        <path d="M 400 785.325 L 420 785.325" />
        <text font-size="30" transform="translate(390, 795.325)" text-anchor="end" dominant-baseline="middle" stroke="none" fill="black">0.4</text>
        <path d="M 400 899.138 L 410 899.138" />
        <path d="M 400 557.7 L 420 557.7" />
        <text font-size="30" transform="translate(390, 567.7)" text-anchor="end" dominant-baseline="middle" stroke="none" fill="black">1</text>
        <path d="M 400 861.2 L 420 861.2" />
        <text font-size="30" transform="translate(390, 871.2)" text-anchor="end" dominant-baseline="middle" stroke="none" fill="black">0.2</text>
        <path d="M 400 709.45 L 420 709.45" />
        <text font-size="30" transform="translate(390, 719.45)" text-anchor="end" dominant-baseline="middle" stroke="none" fill="black">0.6</text>
        <path d="M 400 823.263 L 410 823.263" />
        <path d="M 400 633.575 L 420 633.575" />
        <text font-size="30" transform="translate(390, 643.575)" text-anchor="end" dominant-baseline="middle" stroke="none" fill="black">0.8</text>
        <path d="M 400 595.638 L 410 595.638" />
        <path d="M 400 671.513 L 410 671.513" />
    </g>
    <g id="frame_4_topticks">
        <path d="M 534.901 525 L 534.901 535" />
        <path d="M 419.499 525 L 419.499 545" />
        <path d="M 604.142 525 L 604.142 545" />
        <path d="M 442.579 525 L 442.579 535" />
        <path d="M 465.66 525 L 465.66 545" />
        <path d="M 557.982 525 L 557.982 545" />
        <path d="M 488.74 525 L 488.74 535" />
        <path d="M 511.821 525 L 511.821 545" />
        <path d="M 627.223 525 L 627.223 535" />
        <path d="M 581.062 525 L 581.062 535" />
    </g>
    <g id="frame_4_rightticks">
        <path d="M 650 747.388 L 640 747.388" />
        <path d="M 650 937.076 L 630 937.076" />
        <path d="M 650 785.325 L 630 785.325" />
        <path d="M 650 899.138 L 640 899.138" />
        <path d="M 650 557.7 L 630 557.7" />
        <path d="M 650 861.2 L 630 861.2" />
        <path d="M 650 709.45 L 630 709.45" />
        <path d="M 650 823.263 L 640 823.263" />
        <path d="M 650 633.575 L 630 633.575" />
        <path d="M 650 595.638 L 640 595.638" />
        <path d="M 650 671.513 L 640 671.513" />
    </g>
</g>
<g id="Scatter_5" clip-path="url(#Scatter_5_clip)">
    <path d="M 942.407 923.75 L 903.88 921.837 L 818.879 896.299 L 879.661 887.26 L 933.027 886.402 L 839.933 850.667 L 962.5 839.63 L 882.555 831.795 L 928.47 821.272 L 789.329 820.931 L 837.478 799.617 L 925.741 764.725 L 836.251 719.367 L 940.015 674.804 L 789.63 664.723 L 938.207 641.235 L 947.36 632.732 L 754.167 593.102 L 848.135 585.59 L 946.077 561.25" stroke-width="3" stroke-dasharray="" stroke="black" stroke-opacity="1" fill="none" />
</g>
<g id="frame_5">
    <rect id="frame_5_border" x="733.333" y="525" width="250" height="435" />
    <g id="frame_5_bottomticks">
        <path d="M 868.234 960 L 868.234 950" />
        <path d="M 752.832 960 L 752.832 940" />
        <text font-size="30" transform="translate(752.832, 990)" text-anchor="middle" dominant-baseline="middle" stroke="none" fill="black">0</text>
        <path d="M 937.476 960 L 937.476 940" />
        <text font-size="30" transform="translate(937.476, 990)" text-anchor="middle" dominant-baseline="middle" stroke="none" fill="black">0.8</text>
        <path d="M 775.913 960 L 775.913 950" />
        <path d="M 798.993 960 L 798.993 940" />
        <text font-size="30" transform="translate(798.993, 990)" text-anchor="middle" dominant-baseline="middle" stroke="none" fill="black">0.2</text>
        <path d="M 891.315 960 L 891.315 940" />
        <text font-size="30" transform="translate(891.315, 990)" text-anchor="middle" dominant-baseline="middle" stroke="none" fill="black">0.6</text>
        <path d="M 822.074 960 L 822.074 950" />
        <path d="M 845.154 960 L 845.154 940" />
        <text font-size="30" transform="translate(845.154, 990)" text-anchor="middle" dominant-baseline="middle" stroke="none" fill="black">0.4</text>
        <path d="M 960.556 960 L 960.556 950" />
        <path d="M 914.395 960 L 914.395 950" />
    </g>
    <g id="frame_5_leftticks">
        <path d="M 733.333 747.388 L 743.333 747.388" />
        <path d="M 733.333 937.076 L 753.333 937.076" />
        <text font-size="30" transform="translate(723.333, 947.076)" text-anchor="end" dominant-baseline="middle" stroke="none" fill="black">0</text>
        <path d="M 733.333 785.325 L 753.333 785.325" />
        <text font-size="30" transform="translate(723.333, 795.325)" text-anchor="end" dominant-baseline="middle" stroke="none" fill="black">0.4</text>
        <path d="M 733.333 899.138 L 743.333 899.138" />
        <path d="M 733.333 557.7 L 753.333 557.7" />
        <text font-size="30" transform="translate(723.333, 567.7)" text-anchor="end" dominant-baseline="middle" stroke="none" fill="black">1</text>
        <path d="M 733.333 861.2 L 753.333 861.2" />
        <text font-size="30" transform="translate(723.333, 871.2)" text-anchor="end" dominant-baseline="middle" stroke="none" fill="black">0.2</text>
        <path d="M 733.333 709.45 L 753.333 709.45" />
        <text font-size="30" transform="translate(723.333, 719.45)" text-anchor="end" dominant-baseline="middle" stroke="none" fill="black">0.6</text>
        <path d="M 733.333 823.263 L 743.333 823.263" />
        <path d="M 733.333 633.575 L 753.333 633.575" />
        <text font-size="30" transform="translate(723.333, 643.575)" text-anchor="end" dominant-baseline="middle" stroke="none" fill="black">0.8</text>
        <path d="M 733.333 595.638 L 743.333 595.638" />
        <path d="M 733.333 671.513 L 743.333 671.513" />
    </g>
    <g id="frame_5_topticks">
        <path d="M 868.234 525 L 868.234 535" />
        <path d="M 752.832 525 L 752.832 545" />
        <path d="M 937.476 525 L 937.476 545" />
        <path d="M 775.913 525 L 775.913 535" />
        <path d="M 798.993 525 L 798.993 545" />
        <path d="M 891.315 525 L 891.315 545" />
        <path d="M 822.074 525 L 822.074 535" />
        <path d="M 845.154 525 L 845.154 545" />
        <path d="M 960.556 525 L 960.556 535" />
        <path d="M 914.395 525 L 914.395 535" />
    </g>
    <g id="frame_5_rightticks">
        <path d="M 983.333 747.388 L 973.333 747.388" />
        <path d="M 983.333 937.076 L 963.333 937.076" />
        <path d="M 983.333 785.325 L 963.333 785.325" />
        <path d="M 983.333 899.138 L 973.333 899.138" />
        <path d="M 983.333 557.7 L 963.333 557.7" />
        <path d="M 983.333 861.2 L 963.333 861.2" />
        <path d="M 983.333 709.45 L 963.333 709.45" />
        <path d="M 983.333 823.263 L 973.333 823.263" />
        <path d="M 983.333 633.575 L 963.333 633.575" />
        <path d="M 983.333 595.638 L 973.333 595.638" />
        <path d="M 983.333 671.513 L 973.333 671.513" />
    </g>
</g>
</g>
</svg>
