<?xml version="1.0" standalone="no"?>
<!DOCTYPE svg PUBLIC "-//W3C//DTD SVG 1.1//EN" "http://www.w3.org/Graphics/SVG/1.1/DTD/svg11.dtd">
<svg style="stroke-linejoin:miter; stroke:black; stroke-width:2.5; text-anchor:middle; fill:none" xmlns="http://www.w3.org/2000/svg" font-family="Helvetica, Arial, FreeSans, Sans, sans, sans-serif" width="1000px" height="1000px" version="1.1" xmlns:xlink="http://www.w3.org/1999/xlink" viewBox="0 0 1000 1000">
<defs>
    <clipPath id="TimeSeries_0_clip">
        <rect x="120" y="50" width="830" height="870" />
    </clipPath>
</defs>
<g id="whole_document">
<rect id="background" x="0" y="0" width="1000" height="1000" stroke="none" fill="white" />
<g id="TimeSeries_0" clip-path="url(#TimeSeries_0_clip)">
    <path d="M 189.167 376.554 L 189.284 394.298 L 190.591 418.759 L 190.76 362.991 L 191.469 411.839 L 191.55 434.564 L 191.625 398.356 L 191.963 441.588 L 192.635 404.895 L 193.615 438.099 L 194.279 419.245 L 194.823 388.633 L 195.327 439.702 L 196.173 459.248 L 196.305 402.095 L 197.18 393.938 L 198.063 429.144 L 199.119 442.04 L 201.227 465.194 L 202.309 398.568 L 202.355 418.663 L 202.826 434.317 L 203.221 468.18 L 203.46 433.323 L 204.706 422.853 L 204.723 517.688 L 204.998 453.76 L 206.525 471.743 L 206.974 419.646 L 208.069 493.168 L 208.518 499.526 L 209.528 498.071 L 209.666 452.532 L 210.16 450.383 L 211.968 458.707 L 213.708 484.309 L 215.5 461.809 L 217.288 518.901 L 217.29 437.706 L 217.435 510.356 L 217.803 520.762 L 218.437 555.736 L 218.716 466.26 L 219.268 515.631 L 220.263 533.629 L 220.733 530.269 L 221.177 520.549 L 223.12 544.538 L 223.246 503.182 L 223.574 571.411 L 224.308 568.618 L 224.349 545.077 L 224.352 532.364 L 224.404 565.366 L 224.49 562.373 L 225.252 530.41 L 226.144 547.73 L 226.485 561.695 L 227.618 549.934 L 230.277 620.084 L 231 576.591 L 231.492 580.041 L 231.659 603.374 L 233.608 580.683 L 233.616 565.895 L 235.064 589.145 L 235.923 540.402 L 238.944 599.03 L 239.265 660.734 L 239.435 575.592 L 239.516 556.424 L 240.357 596.962 L 240.937 606.8 L 241.808 577.942 L 242.403 627.809 L 243.355 601.479 L 244.626 617.001 L 245.127 590.784 L 245.375 636.523 L 245.405 630.268 L 245.553 643.336 L 246.381 646.341 L 247.918 597.671 L 249.073 649.529 L 249.269 623.006 L 250.686 669.31 L 251.09 681.049 L 252.138 613.213 L 252.268 657.356 L 252.75 620.072 L 253.443 666.434 L 253.836 693.552 L 254.602 668.463 L 254.616 622.449 L 254.713 661.743 L 256.369 674.85 L 256.683 633.127 L 258.554 674.023 L 258.822 666.163 L 258.886 727.44 L 259.222 723.97 L 259.497 653.263 L 259.549 701.391 L 261.726 674.461 L 262.522 686.122 L 262.737 706.575 L 262.843 636.656 L 264.4 693.142 L 264.464 687.102 L 264.646 675.014 L 265.022 671.59 L 265.533 709.382 L 266.603 662.862 L 268.409 689.5 L 268.631 699.341 L 269.479 687.559 L 269.928 703.572 L 270.394 658.405 L 272.317 729.323 L 272.649 740.811 L 275.514 683.515 L 275.999 734.528 L 276.554 749.431 L 277.818 744.558 L 277.964 735.52 L 278.54 763.055 L 278.671 723.986 L 278.942 714.411 L 279.698 670.443 L 280.601 715.189 L 281.004 718.055 L 281.579 759.618 L 282.832 786.481 L 283.164 718.544 L 283.25 744.494 L 283.625 691.185 L 285.503 752.252 L 286.968 737.628 L 287.851 717.272 L 288.512 804.515 L 288.788 742.315 L 289.611 787.203 L 291.533 733.126 L 291.7 795.783 L 292.234 762.653 L 292.263 754.711 L 292.639 732.625 L 293.54 740.011 L 294.426 783.083 L 294.78 787.948 L 296.895 768.062 L 298.24 789.94 L 298.594 782.556 L 299.232 742.51 L 299.468 782.24 L 299.705 733.537 L 300.032 777.935 L 300.613 772.177 L 300.944 783.52 L 301.253 780.779 L 302.239 744.456 L 302.955 801.084 L 303.076 781.83 L 304.289 727.418 L 304.309 804.093 L 305.597 790.811 L 306.815 847.5 L 306.98 782.575 L 307.023 817.063 L 308.019 821.849 L 308.857 831.153 L 309.424 795.2 L 309.684 770.097 L 310.392 770.318 L 311.072 831.657 L 311.174 789.805 L 311.932 790.225 L 312.004 774.167 L 312.07 786.091 L 313.382 751.583 L 315.256 785.345 L 317.013 794.697 L 318.013 759.497 L 318.383 776.366 L 318.527 754.854 L 319.467 783.653 L 319.776 833.079 L 319.944 820.987 L 320.124 826.199 L 320.147 757.864 L 321.736 793.441 L 323.034 773.679 L 323.313 776.712 L 323.516 793.526 L 323.59 754.272 L 323.794 776.117 L 323.938 804.847 L 325.724 812.508 L 326.13 745.201 L 326.706 789.381 L 330.855 783.347 L 331.162 762.209 L 331.985 782.669 L 332.665 824.357 L 334.419 793.118 L 334.543 767.872 L 334.899 758.487 L 335.68 740.937 L 336.532 741.392 L 336.653 747.335 L 337.046 782.97 L 338.179 722.723 L 339.044 728.804 L 339.053 784.458 L 340.322 746.963 L 341.685 812.968 L 342.019 798.535 L 342.09 736.524 L 342.878 780.455 L 344.386 742.417 L 345.152 750.93 L 345.488 750.378 L 347.719 764.502 L 347.92 731.094 L 348.712 742.69 L 350.324 744.872 L 351.42 787.279 L 351.597 743.287 L 351.621 795.988 L 352.038 756.615 L 353.244 706.4 L 353.444 735.566 L 354.556 741.597 L 355.234 718.862 L 356.196 716.37 L 359.369 757.874 L 359.732 675.396 L 359.87 732.25 L 360.407 739.173 L 361.647 732.068 L 361.649 702.008 L 362.819 731.255 L 363.284 718.061 L 363.736 719.286 L 364.522 658.515 L 365.178 713.862 L 365.592 710.901 L 366.734 686.838 L 367.943 704.987 L 368.171 727.857 L 368.303 725.52 L 369.31 735.332 L 369.393 677.433 L 369.817 694.8 L 369.935 690.146 L 369.939 744.985 L 369.972 740.008 L 370.513 709.897 L 370.583 695.835 L 370.703 661.3 L 371.179 632.222 L 371.384 677.9 L 371.674 681.011 L 371.746 691.746 L 371.935 683.008 L 372.266 688.599 L 372.346 703.38 L 372.372 685.441 L 373.277 707.228 L 374.425 660.986 L 374.756 687.184 L 375.052 723.481 L 375.381 724.681 L 376.427 674.693 L 376.83 678.677 L 377.937 629.809 L 378.05 663.856 L 378.923 710.583 L 379.589 685.005 L 379.688 665.142 L 380.369 696.733 L 381.199 633.568 L 381.25 640.418 L 382.449 672.07 L 384.281 679.055 L 384.375 616.773 L 384.407 682.441 L 384.847 645.14 L 386.411 667.055 L 386.664 629.598 L 388.237 631.255 L 388.767 612.936 L 388.884 593.369 L 389.392 638.635 L 389.458 644.874 L 389.742 638.755 L 389.756 670.483 L 389.978 620.352 L 390.354 662.095 L 392.511 624.346 L 392.955 583.343 L 393.12 626.078 L 393.145 565.988 L 393.369 630.733 L 394.832 611.278 L 396.565 609.368 L 397.439 639.491 L 398.311 610.92 L 398.785 611.181 L 399.033 539.803 L 399.082 539.979 L 400.416 575.201 L 402.054 592.742 L 402.407 563.954 L 402.455 605.666 L 402.856 586.959 L 403.207 550.931 L 403.412 559.569 L 404.008 610.138 L 404.129 558.133 L 404.523 594.103 L 404.545 567.451 L 405.435 592.079 L 405.731 600.667 L 405.744 539.687 L 405.995 586.744 L 406.911 545.497 L 407.353 608.318 L 407.368 572.136 L 407.565 582.419 L 408.608 502.358 L 408.72 504.669 L 410.035 516.232 L 410.809 514.647 L 411.067 538.309 L 411.101 576.208 L 411.348 592.679 L 411.392 577.692 L 414.052 586.397 L 415.851 487.401 L 415.882 493.849 L 417.708 560.895 L 418.659 519.537 L 419.315 510.958 L 419.513 528.568 L 419.801 549.758 L 419.998 478.897 L 420.255 528.332 L 421.326 481.616 L 422.218 508.549 L 422.515 500.22 L 422.535 518.492 L 422.605 457.679 L 422.884 490.946 L 423.373 483.431 L 424.269 443.387 L 424.423 502.547 L 424.562 466.955 L 424.579 471.08 L 425.024 444.714 L 425.529 446.524 L 425.908 470.37 L 426.516 513.146 L 427.226 456.19 L 427.949 442.63 L 428.091 484.048 L 428.3 480.521 L 428.332 444.285 L 428.653 482.819 L 432.296 459.478 L 434.281 433.639 L 434.61 437.712 L 435.111 390.7 L 436.045 464.155 L 436.312 422.215 L 437.259 405.74 L 437.797 457.016 L 439.493 407.723 L 439.753 434.962 L 439.807 419.341 L 442.149 346.215 L 443.043 371.936 L 443.45 416.101 L 444.345 374.435 L 444.816 412.841 L 445.133 374.302 L 446.565 348.382 L 446.645 388.134 L 446.683 403.263 L 447.258 390.081 L 447.563 407.213 L 447.627 381.651 L 447.764 401.526 L 447.937 353.275 L 448.033 393.762 L 448.077 381.386 L 448.802 369.209 L 449.188 321.021 L 450.092 339.691 L 451.44 348.657 L 451.562 377.511 L 452.044 326.962 L 452.509 385.335 L 452.85 376.735 L 453.622 388.409 L 453.681 385.628 L 455.638 333.958 L 455.858 317.986 L 456.989 360.76 L 457.548 356.168 L 458.25 392.281 L 458.906 321.557 L 459.157 370.966 L 459.547 348.651 L 459.828 305.021 L 460.091 292.483 L 460.578 353.811 L 461.673 240.153 L 463.12 350.329 L 463.761 348.246 L 464.857 296.743 L 466.532 334.819 L 466.896 247.319 L 467.99 338.24 L 468.248 314.723 L 468.651 302.325 L 469.778 322.027 L 470.258 283.246 L 471.928 304.677 L 472.584 279.648 L 473.192 248.48 L 473.559 276.02 L 475.126 258.934 L 478.832 278.856 L 479.072 290.821 L 479.236 230.108 L 479.706 297.903 L 479.92 294.074 L 480.658 238.553 L 480.805 261.963 L 480.807 252.825 L 482.306 254.934 L 482.57 248.687 L 483.202 277.082 L 483.633 247.953 L 484.241 237.438 L 485.436 256.405 L 486.985 280.342 L 487.58 263.487 L 488.557 240.12 L 491.066 206.956 L 492.181 186.158 L 493.144 234.257 L 493.882 224.252 L 493.962 216.501 L 494.211 228.895 L 494.934 237.443 L 495.644 174.984 L 497.157 195.704 L 497.279 268.25 L 497.504 230.122 L 497.75 186.15 L 497.777 230.083 L 498.443 263.257 L 499.642 216.946 L 500.104 225.158 L 501.149 232.376 L 501.486 257.744 L 502.552 175.988 L 503.498 231.053 L 503.843 154.524 L 504.023 202.793 L 504.565 257.585 L 504.841 190.944 L 505.041 218.551 L 507.518 204.071 L 507.93 227.872 L 509.515 188.337 L 510.71 220.564 L 510.76 197.57 L 510.851 185.305 L 510.854 122.5 L 510.957 190.357 L 513.052 237.153 L 514.114 180.792 L 514.686 259.431 L 515.029 203.293 L 515.228 215.336 L 516.981 184.23 L 517.219 198.027 L 517.426 168.531 L 517.465 187.035 L 519.538 202.674 L 519.616 184.833 L 520.17 194.686 L 520.49 239.753 L 520.817 242.452 L 521.774 134.217 L 521.788 196.869 L 523.415 177.922 L 524.423 232.624 L 526.019 240.218 L 526.884 220.46 L 527.285 188.022 L 527.302 205.392 L 527.352 250.533 L 527.473 135.395 L 528.334 204.683 L 532.795 152.52 L 532.846 198.852 L 533.49 192.049 L 535.844 207.453 L 536.056 263.638 L 536.665 232.225 L 536.965 188.567 L 537.58 262.908 L 537.712 145.044 L 539.615 184.758 L 539.671 232.674 L 540.375 133.029 L 540.854 183.307 L 541.083 222.317 L 541.169 237.935 L 541.344 129.385 L 541.745 128.019 L 542.12 206.075 L 542.477 184.617 L 543.565 255.249 L 545.031 202.328 L 545.298 209.214 L 545.604 225.993 L 546.015 203.902 L 547.247 221.227 L 547.662 242.602 L 550.805 162.139 L 550.984 222.496 L 552.225 277.889 L 552.71 150.713 L 553.561 219.939 L 554.003 250.275 L 554.308 199.552 L 554.734 282.413 L 554.825 285.021 L 554.889 207.441 L 555.734 199.812 L 556.437 202.425 L 556.763 255.574 L 556.825 218.792 L 556.856 203.153 L 557.063 237.021 L 557.527 261.483 L 557.642 200.946 L 557.757 229.31 L 559.295 149.234 L 559.911 206.104 L 560.588 225.692 L 560.734 276.496 L 561.36 243.225 L 562.355 216.914 L 562.697 222.089 L 563.142 243.747 L 563.746 269.22 L 565.562 290.539 L 565.804 262.924 L 565.872 245.025 L 566.315 236.293 L 566.471 217.616 L 566.986 172.749 L 567.381 257.389 L 569.499 295.918 L 569.516 263.023 L 569.944 241.799 L 571.409 290.734 L 571.478 244.847 L 573.421 261.169 L 573.886 249.617 L 574.755 279.812 L 574.943 263.065 L 575.053 291.126 L 575.502 262.352 L 576.612 278.675 L 576.84 259.363 L 577.024 261.335 L 577.87 253.836 L 578.366 335.278 L 578.734 288.253 L 579.71 243.96 L 579.946 243.761 L 580.666 246.476 L 581.286 299.657 L 582.784 256.361 L 583.398 308.359 L 583.543 324.439 L 584.441 271.992 L 585.149 326.372 L 587.915 305.081 L 588.035 299.769 L 588.526 295.869 L 591.064 306.682 L 591.677 306.759 L 592.088 327.376 L 592.15 331.501 L 593.861 367.074 L 593.917 306.626 L 595.331 363.074 L 596.665 357.002 L 597.172 333.156 L 597.98 346.167 L 598.332 295.16 L 598.964 335.832 L 599.298 392.951 L 599.345 335.909 L 599.72 345.756 L 600.58 380.996 L 600.943 320.599 L 601.97 378.026 L 602.298 352.169 L 602.495 296.9 L 602.59 352.532 L 604.869 409.079 L 605.86 353.671 L 606.648 428.042 L 606.847 337.843 L 606.909 325.993 L 607.774 319.332 L 608.295 406.728 L 608.58 404.991 L 608.819 404.182 L 608.981 364.202 L 609.764 350.672 L 610.791 412.394 L 611.169 383.766 L 611.33 383.42 L 612.585 431.994 L 612.841 413.933 L 612.934 456.781 L 613.692 416.556 L 614.413 433.879 L 617.059 437.729 L 617.19 479.269 L 619.046 476.459 L 619.465 437.389 L 620.059 400.073 L 620.472 434.796 L 620.884 453.754 L 621.283 443.908 L 622.065 494.11 L 622.597 446.572 L 624.591 375.418 L 624.738 434.978 L 624.973 454.2 L 625.114 411.594 L 625.306 477.587 L 626.977 485.781 L 627.214 517.328 L 627.732 420.093 L 628.144 449.719 L 628.876 462.964 L 629.043 506.315 L 629.269 444.509 L 629.36 465.442 L 629.374 498.636 L 630.057 474.342 L 630.328 472.409 L 630.544 484.878 L 631.308 491.591 L 632.107 507.511 L 633.898 509.096 L 634.569 526.524 L 635.858 497.921 L 636.909 521.876 L 636.969 513.219 L 637.123 488.557 L 638.537 469.495 L 638.643 492.67 L 639.4 514.744 L 639.929 523.534 L 640.582 498.426 L 641.058 522.168 L 643.217 560.32 L 643.746 538.139 L 643.813 590.369 L 645.185 560.629 L 646.429 570.749 L 647.052 606.305 L 647.802 545.617 L 648.311 616.009 L 648.377 551.711 L 649.125 521.932 L 651.744 604.195 L 652.005 571.983 L 652.246 579.046 L 653.637 551.552 L 653.668 572.121 L 653.915 574.866 L 655.035 555.675 L 656.53 548.044 L 657.16 583.551 L 659.213 594.944 L 660.441 602.331 L 661.929 589.438 L 662.247 678.246 L 662.778 546.218 L 665.326 613.534 L 666.161 619.435 L 667.891 648.682 L 669.323 679.256 L 671.83 596.579 L 671.982 645.556 L 672.279 645.837 L 672.423 651.823 L 672.459 639.359 L 672.644 634.471 L 675.17 653.963 L 675.214 702.842 L 675.578 721.946 L 676.674 661.633 L 677.176 666.181 L 677.607 655.079 L 677.656 663.311 L 677.705 690.769 L 678.495 712.653 L 679.304 730.276 L 680.486 686.703 L 680.867 698.167 L 681.452 704.794 L 682.165 689.603 L 682.772 686.924 L 682.966 659.041 L 683.224 662.855 L 683.502 726.386 L 684.553 670.917 L 684.689 763.664 L 685.661 719.692 L 685.707 710.823 L 686.064 671.129 L 686.87 708.369 L 688.103 657.277 L 688.964 739.658 L 689.076 711.565 L 690.718 747.04 L 691.006 698.484 L 692.732 756.544 L 693.606 724.929 L 694.73 753.314 L 694.838 780.416 L 694.91 738.526 L 696.232 752.358 L 696.85 686.656 L 698.473 745.299 L 699.737 737.078 L 699.965 715.508 L 701.586 680.467 L 702.651 714.299 L 702.885 772.715 L 703.55 724.5 L 704.956 729.367 L 705.624 770.336 L 705.738 739.07 L 706.265 739.367 L 708.394 735.356 L 708.428 767.322 L 708.567 779.786 L 710.271 769.275 L 710.31 781.975 L 710.362 785.022 L 711.32 749.471 L 711.384 703.83 L 712.237 805.885 L 712.381 775.233 L 713.191 751.14 L 713.968 805.132 L 714.576 820.692 L 715.245 814.149 L 715.61 777.56 L 716.059 800.663 L 716.98 778.69 L 718.319 815.827 L 718.487 777.221 L 718.533 793.953 L 719.573 779.688 L 720.123 760.204 L 720.46 816.041 L 720.461 785.314 L 720.611 757.428 L 721.054 793.185 L 721.487 735.029 L 722.385 773.03 L 722.698 796.314 L 724.362 810.857 L 724.657 785.988 L 725.03 758.501 L 725.08 767.334 L 727.566 808.126 L 729.771 745.495 L 732.433 782.165 L 734.48 740.321 L 734.866 777.107 L 735.728 800.818 L 736.502 791.135 L 736.681 839.73 L 737.091 777.968 L 737.306 829.284 L 737.578 780.392 L 738.283 796.304 L 738.799 790.013 L 740.402 828.19 L 740.916 736.82 L 741.34 798.868 L 741.705 788.144 L 742.762 728.776 L 742.893 807.586 L 742.99 752.782 L 743.561 762.45 L 745.916 816.509 L 746.306 753.886 L 746.55 809.275 L 746.892 798.453 L 748.704 757.095 L 749.728 779.313 L 749.92 806.801 L 749.922 773.377 L 750.648 752.441 L 751.328 763.553 L 754.353 774.248 L 754.551 834.173 L 754.627 790.721 L 754.759 794.069 L 754.836 782.313 L 757.335 792.446 L 757.911 753.015 L 759.127 763.276 L 759.578 836.873 L 760.707 773.289 L 761.393 768.995 L 764.186 754.397 L 764.695 697.616 L 764.847 813.324 L 765.442 789.827 L 765.552 776.365 L 766.502 737.796 L 766.771 762.082 L 769.015 729.178 L 769.785 741.152 L 769.848 734.441 L 770.085 748.917 L 770.528 754.162 L 771.724 711.82 L 771.896 701.353 L 772.901 728.241 L 773.563 720.998 L 773.579 808.592 L 773.77 730.08 L 774.195 714.12 L 774.339 767.578 L 775.018 726.083 L 776.052 700.291 L 776.333 740.516 L 778.691 737.595 L 778.73 792.69 L 779.181 706.078 L 779.435 761.578 L 781.183 691.379 L 781.51 740.731 L 781.842 751.594 L 782.05 687.752 L 782.328 701.095 L 782.93 658.371 L 784.507 748.427 L 784.699 669.297 L 785.105 678.932 L 786.065 673.346 L 786.139 713.091 L 786.274 693.68 L 787.736 721.466 L 788.492 739.424 L 789.17 676.72 L 790.492 716.666 L 790.521 706.984 L 791.354 725.932 L 791.512 669.03 L 791.583 655.902 L 792.283 695.959 L 793.276 704.982 L 794.956 720.596 L 795.319 650.674 L 795.445 673.422 L 795.494 662.692 L 796.59 657.196 L 797.076 693.86 L 797.79 619.619 L 798.069 678.819 L 799.015 667.363 L 801.753 642.86 L 801.776 643.877 L 803.733 608.917 L 804.256 683.132 L 804.379 593.33 L 804.654 629.928 L 804.893 647.217 L 805.411 604.686 L 806.506 643.735 L 807.329 628.042 L 807.414 639.332 L 807.802 642.801 L 808.117 615.238 L 808.117 662.673 L 811.201 598.201 L 811.761 632.423 L 811.799 642.008 L 811.901 615.471 L 813.726 623.164 L 815.558 593.758 L 815.736 636.29 L 816.978 656.343 L 817.263 597.031 L 818.003 613.66 L 822.61 543.383 L 822.893 570.484 L 824.21 535.436 L 824.492 553.208 L 824.858 545.916 L 825.015 523.196 L 825.211 524.633 L 826.326 555.051 L 826.841 525.916 L 827.633 532.881 L 828.726 523.959 L 829.857 534.525 L 831.375 532.813 L 833.777 548.915 L 834.083 499.612 L 836.775 485.692 L 837.077 473.315 L 837.666 500.231 L 837.919 452.43 L 838.097 523.78 L 838.443 581.114 L 838.506 529.453 L 839.914 449.811 L 840.309 484.755 L 841.034 491.846 L 842.501 521.795 L 843.446 491.348 L 843.95 474.84 L 846.097 444.611 L 846.422 454.483 L 847.683 484.181 L 848.563 461.954 L 848.958 465.9 L 850.207 438.067 L 850.466 484.117 L 851.16 406.836 L 852.641 404.131 L 853.606 409.252 L 853.848 520.206 L 855.014 398.114 L 855.963 463.303 L 856.411 425.474 L 857.134 451.14 L 857.882 394.116 L 858.269 400.15 L 859.636 425.391 L 860.155 408.556 L 861.177 381.12 L 861.303 407.947 L 861.417 352.844 L 861.634 431.286 L 862.87 445.43 L 863.161 394.449 L 863.688 380.69 L 864.443 386.548 L 864.553 396.844 L 864.642 345.212 L 864.682 366.858 L 865.017 375.432 L 866.143 382.469 L 866.374 362.343 L 867.079 425.587 L 867.214 378.951 L 868.683 384.999 L 868.794 344.957 L 869.626 375.772 L 869.919 396.553 L 870.961 341.789 L 871.761 383.193 L 872.411 362.565 L 873.091 349.255 L 874.126 328.521 L 874.787 323.27 L 874.914 382.473 L 874.936 344.657 L 876.46 344.697 L 876.949 308.119 L 877.532 346.16 L 878.043 287.259 L 878.816 323.741 L 879.966 319.017 L 880.072 326.047 L 880.833 331.537" stroke-width="3" stroke-dasharray="" stroke="black" stroke-opacity="1" fill="none" />
</g>
<g id="frame_0">
    <rect id="frame_0_border" x="120" y="50" width="830" height="870" />
    <g id="frame_0_bottomticks">
        <path d="M 121.38 920 L 121.38 910" />
        <path d="M 259.966 920 L 259.966 910" />
        <path d="M 883.606 920 L 883.606 900" />
        <text font-size="30" transform="translate(883.606, 950)" text-anchor="middle" dominant-baseline="middle" stroke="none" fill="black">09/20/01</text>
        <path d="M 675.726 920 L 675.726 910" />
        <path d="M 329.26 920 L 329.26 900" />
        <text font-size="30" transform="translate(329.26, 950)" text-anchor="middle" dominant-baseline="middle" stroke="none" fill="black">09/11/01</text>
        <path d="M 467.846 920 L 467.846 900" />
        <text font-size="30" transform="translate(467.846, 950)" text-anchor="middle" dominant-baseline="middle" stroke="none" fill="black">09/13/01</text>
        <path d="M 814.312 920 L 814.312 910" />
        <path d="M 606.433 920 L 606.433 900" />
        <text font-size="30" transform="translate(606.433, 950)" text-anchor="middle" dominant-baseline="middle" stroke="none" fill="black">09/16/01</text>
        <path d="M 398.553 920 L 398.553 910" />
        <path d="M 190.673 920 L 190.673 900" />
        <text font-size="30" transform="translate(190.673, 950)" text-anchor="middle" dominant-baseline="middle" stroke="none" fill="black">09/09/01</text>
        <path d="M 745.019 920 L 745.019 900" />
        <text font-size="30" transform="translate(745.019, 950)" text-anchor="middle" dominant-baseline="middle" stroke="none" fill="black">09/18/01</text>
        <path d="M 537.139 920 L 537.139 910" />
    </g>
    <g id="frame_0_leftticks">
        <path d="M 120 901.094 L 130 901.094" />
        <path d="M 120 871.601 L 130 871.601" />
        <path d="M 120 842.107 L 130 842.107" />
        <path d="M 120 812.614 L 130 812.614" />
        <path d="M 120 783.121 L 140 783.121" />
        <text font-size="30" transform="translate(110, 793.121)" text-anchor="end" dominant-baseline="middle" stroke="none" fill="black">20</text>
        <path d="M 120 753.628 L 130 753.628" />
        <path d="M 120 724.135 L 130 724.135" />
        <path d="M 120 694.642 L 130 694.642" />
        <path d="M 120 665.148 L 130 665.148" />
        <path d="M 120 635.655 L 140 635.655" />
        <text font-size="30" transform="translate(110, 645.655)" text-anchor="end" dominant-baseline="middle" stroke="none" fill="black">25</text>
        <path d="M 120 606.162 L 130 606.162" />
        <path d="M 120 576.669 L 130 576.669" />
        <path d="M 120 547.176 L 130 547.176" />
        <path d="M 120 517.683 L 130 517.683" />
        <path d="M 120 488.189 L 140 488.189" />
        <text font-size="30" transform="translate(110, 498.189)" text-anchor="end" dominant-baseline="middle" stroke="none" fill="black">30</text>
        <path d="M 120 458.696 L 130 458.696" />
        <path d="M 120 429.203 L 130 429.203" />
        <path d="M 120 399.71 L 130 399.71" />
        <path d="M 120 370.217 L 130 370.217" />
        <path d="M 120 340.724 L 140 340.724" />
        <text font-size="30" transform="translate(110, 350.724)" text-anchor="end" dominant-baseline="middle" stroke="none" fill="black">35</text>
        <path d="M 120 311.23 L 130 311.23" />
        <path d="M 120 281.737 L 130 281.737" />
        <path d="M 120 252.244 L 130 252.244" />
        <path d="M 120 222.751 L 130 222.751" />
        <path d="M 120 193.258 L 140 193.258" />
        <text font-size="30" transform="translate(110, 203.258)" text-anchor="end" dominant-baseline="middle" stroke="none" fill="black">40</text>
        <path d="M 120 163.765 L 130 163.765" />
        <path d="M 120 134.271 L 130 134.271" />
        <path d="M 120 104.778 L 130 104.778" />
        <path d="M 120 75.285 L 130 75.285" />
    </g>
    <g id="frame_0_topticks">
        <path d="M 121.38 50 L 121.38 60" />
        <path d="M 259.966 50 L 259.966 60" />
        <path d="M 883.606 50 L 883.606 70" />
        <path d="M 675.726 50 L 675.726 60" />
        <path d="M 329.26 50 L 329.26 70" />
        <path d="M 467.846 50 L 467.846 70" />
        <path d="M 814.312 50 L 814.312 60" />
        <path d="M 606.433 50 L 606.433 70" />
        <path d="M 398.553 50 L 398.553 60" />
        <path d="M 190.673 50 L 190.673 70" />
        <path d="M 745.019 50 L 745.019 70" />
        <path d="M 537.139 50 L 537.139 60" />
    </g>
    <g id="frame_0_rightticks">
        <path d="M 950 901.094 L 940 901.094" />
        <path d="M 950 871.601 L 940 871.601" />
        <path d="M 950 842.107 L 940 842.107" />
        <path d="M 950 812.614 L 940 812.614" />
        <path d="M 950 783.121 L 930 783.121" />
        <path d="M 950 753.628 L 940 753.628" />
        <path d="M 950 724.135 L 940 724.135" />
        <path d="M 950 694.642 L 940 694.642" />
        <path d="M 950 665.148 L 940 665.148" />
        <path d="M 950 635.655 L 930 635.655" />
        <path d="M 950 606.162 L 940 606.162" />
        <path d="M 950 576.669 L 940 576.669" />
        <path d="M 950 547.176 L 940 547.176" />
        <path d="M 950 517.683 L 940 517.683" />
        <path d="M 950 488.189 L 930 488.189" />
        <path d="M 950 458.696 L 940 458.696" />
        <path d="M 950 429.203 L 940 429.203" />
        <path d="M 950 399.71 L 940 399.71" />
        <path d="M 950 370.217 L 940 370.217" />
        <path d="M 950 340.724 L 930 340.724" />
        <path d="M 950 311.23 L 940 311.23" />
        <path d="M 950 281.737 L 940 281.737" />
        <path d="M 950 252.244 L 940 252.244" />
        <path d="M 950 222.751 L 940 222.751" />
        <path d="M 950 193.258 L 930 193.258" />
        <path d="M 950 163.765 L 940 163.765" />
        <path d="M 950 134.271 L 940 134.271" />
        <path d="M 950 104.778 L 940 104.778" />
        <path d="M 950 75.285 L 940 75.285" />
    </g>
</g>
</g>
</svg>
