<?xml version="1.0" standalone="no"?>
<!DOCTYPE svg PUBLIC "-//W3C//DTD SVG 1.1//EN" "http://www.w3.org/Graphics/SVG/1.1/DTD/svg11.dtd">
<svg style="stroke-linejoin:miter; stroke:black; stroke-width:2.5; text-anchor:middle; fill:none" xmlns="http://www.w3.org/2000/svg" font-family="Helvetica, Arial, FreeSans, Sans, sans, sans-serif" width="1000px" height="1000px" version="1.1" xmlns:xlink="http://www.w3.org/1999/xlink" viewBox="0 0 1000 1000">
<defs>
    <clipPath id="Histogram_0_clip">
        <rect x="120" y="50" width="830" height="870" />
    </clipPath>
</defs>
<g id="whole_document">
<rect id="background" x="0" y="0" width="1000" height="1000" stroke="none" fill="white" />
<g id="Histogram_0" clip-path="url(#Histogram_0_clip)">
    <path d="M 120 920 L 120 920 L 122.767 920 L 122.767 920 L 125.533 920 L 125.533 920 L 128.3 920 L 128.3 920 L 131.067 920 L 131.067 920 L 133.833 920 L 133.833 920 L 136.6 920 L 136.6 920 L 139.367 920 L 139.367 920 L 142.133 920 L 142.133 920 L 144.9 920 L 144.9 920 L 147.667 920 L 147.667 920 L 150.433 920 L 150.433 920 L 153.2 920 L 153.2 920 L 155.967 920 L 155.967 920 L 158.733 920 L 158.733 920 L 161.5 920 L 161.5 920 L 164.267 920 L 164.267 920 L 167.033 920 L 167.033 920 L 169.8 920 L 169.8 920 L 172.567 920 L 172.567 920 L 175.333 920 L 175.333 920 L 178.1 920 L 178.1 920 L 180.867 920 L 180.867 920 L 183.633 920 L 183.633 920 L 186.4 920 L 186.4 920 L 189.167 920 L 189.167 920 L 191.933 920 L 191.933 920 L 194.7 920 L 194.7 920 L 197.467 920 L 197.467 920 L 200.233 920 L 200.233 920 L 203 920 L 203 920 L 205.767 920 L 205.767 920 L 208.533 920 L 208.533 920 L 211.3 920 L 211.3 920 L 214.067 920 L 214.067 920 L 216.833 920 L 216.833 920 L 219.6 920 L 219.6 920 L 222.367 920 L 222.367 920 L 225.133 920 L 225.133 920 L 227.9 920 L 227.9 920 L 230.667 920 L 230.667 920 L 233.433 920 L 233.433 920 L 236.2 920 L 236.2 920 L 238.967 920 L 238.967 920 L 241.733 920 L 241.733 920 L 244.5 920 L 244.5 920 L 247.267 920 L 247.267 920 L 250.033 920 L 250.033 920 L 252.8 920 L 252.8 920 L 255.567 920 L 255.567 920 L 258.333 920 L 258.333 920 L 261.1 920 L 261.1 920 L 263.867 920 L 263.867 920 L 266.633 920 L 266.633 920 L 269.4 920 L 269.4 920 L 272.167 920 L 272.167 920 L 274.933 920 L 274.933 920 L 277.7 920 L 277.7 920 L 280.467 920 L 280.467 917.31 L 283.233 917.31 L 283.233 920 L 286 920 L 286 920 L 288.767 920 L 288.767 920 L 291.533 920 L 291.533 920 L 294.3 920 L 294.3 917.31 L 297.067 917.31 L 297.067 917.31 L 299.833 917.31 L 299.833 917.31 L 302.6 917.31 L 302.6 917.31 L 305.367 917.31 L 305.367 920 L 308.133 920 L 308.133 917.31 L 310.9 917.31 L 310.9 920 L 313.667 920 L 313.667 917.31 L 316.433 917.31 L 316.433 914.62 L 319.2 914.62 L 319.2 920 L 321.967 920 L 321.967 911.929 L 324.733 911.929 L 324.733 911.929 L 327.5 911.929 L 327.5 898.479 L 330.267 898.479 L 330.267 909.239 L 333.033 909.239 L 333.033 898.479 L 335.8 898.479 L 335.8 903.859 L 338.567 903.859 L 338.567 893.098 L 341.333 893.098 L 341.333 898.479 L 344.1 898.479 L 344.1 895.788 L 346.867 895.788 L 346.867 882.338 L 349.633 882.338 L 349.633 882.338 L 352.4 882.338 L 352.4 882.338 L 355.167 882.338 L 355.167 860.816 L 357.933 860.816 L 357.933 860.816 L 360.7 860.816 L 360.7 855.436 L 363.467 855.436 L 363.467 828.534 L 366.233 828.534 L 366.233 828.534 L 369 828.534 L 369 831.224 L 371.767 831.224 L 371.767 790.872 L 374.533 790.872 L 374.533 790.872 L 377.3 790.872 L 377.3 769.351 L 380.067 769.351 L 380.067 769.351 L 382.833 769.351 L 382.833 731.688 L 385.6 731.688 L 385.6 702.096 L 388.367 702.096 L 388.367 691.336 L 391.133 691.336 L 391.133 621.391 L 393.9 621.391 L 393.9 683.265 L 396.667 683.265 L 396.667 645.603 L 399.433 645.603 L 399.433 562.208 L 402.2 562.208 L 402.2 508.404 L 404.967 508.404 L 404.967 535.306 L 407.733 535.306 L 407.733 543.377 L 410.5 543.377 L 410.5 486.883 L 413.267 486.883 L 413.267 457.291 L 416.033 457.291 L 416.033 425.009 L 418.8 425.009 L 418.8 355.065 L 421.567 355.065 L 421.567 368.516 L 424.333 368.516 L 424.333 338.924 L 427.1 338.924 L 427.1 333.544 L 429.867 333.544 L 429.867 328.163 L 432.633 328.163 L 432.633 271.67 L 435.4 271.67 L 435.4 309.332 L 438.167 309.332 L 438.167 290.501 L 440.933 290.501 L 440.933 217.866 L 443.7 217.866 L 443.7 258.219 L 446.467 258.219 L 446.467 271.67 L 449.233 271.67 L 449.233 207.106 L 452 207.106 L 452 145.232 L 454.767 145.232 L 454.767 129.091 L 457.533 129.091 L 457.533 166.753 L 460.3 166.753 L 460.3 255.529 L 463.067 255.529 L 463.067 322.783 L 465.833 322.783 L 465.833 244.768 L 468.6 244.768 L 468.6 298.571 L 471.367 298.571 L 471.367 201.725 L 474.133 201.725 L 474.133 338.924 L 476.9 338.924 L 476.9 320.093 L 479.667 320.093 L 479.667 384.657 L 482.433 384.657 L 482.433 355.065 L 485.2 355.065 L 485.2 411.558 L 487.967 411.558 L 487.967 430.39 L 490.733 430.39 L 490.733 503.024 L 493.5 503.024 L 493.5 500.334 L 496.267 500.334 L 496.267 572.968 L 499.033 572.968 L 499.033 583.729 L 501.8 583.729 L 501.8 572.968 L 504.567 572.968 L 504.567 586.419 L 507.333 586.419 L 507.333 586.419 L 510.1 586.419 L 510.1 642.913 L 512.867 642.913 L 512.867 672.505 L 515.633 672.505 L 515.633 707.477 L 518.4 707.477 L 518.4 688.646 L 521.167 688.646 L 521.167 753.21 L 523.933 753.21 L 523.933 731.688 L 526.7 731.688 L 526.7 766.66 L 529.467 766.66 L 529.467 815.083 L 532.233 815.083 L 532.233 817.774 L 535 817.774 L 535 828.534 L 537.767 828.534 L 537.767 833.915 L 540.533 833.915 L 540.533 847.365 L 543.3 847.365 L 543.3 852.746 L 546.067 852.746 L 546.067 874.267 L 548.833 874.267 L 548.833 871.577 L 551.6 871.577 L 551.6 898.479 L 554.367 898.479 L 554.367 874.267 L 557.133 874.267 L 557.133 885.028 L 559.9 885.028 L 559.9 893.098 L 562.667 893.098 L 562.667 885.028 L 565.433 885.028 L 565.433 906.549 L 568.2 906.549 L 568.2 911.929 L 570.967 911.929 L 570.967 909.239 L 573.733 909.239 L 573.733 911.929 L 576.5 911.929 L 576.5 911.929 L 579.267 911.929 L 579.267 917.31 L 582.033 917.31 L 582.033 917.31 L 584.8 917.31 L 584.8 914.62 L 587.567 914.62 L 587.567 917.31 L 590.333 917.31 L 590.333 920 L 593.1 920 L 593.1 920 L 595.867 920 L 595.867 920 L 598.633 920 L 598.633 920 L 601.4 920 L 601.4 920 L 604.167 920 L 604.167 920 L 606.933 920 L 606.933 920 L 609.7 920 L 609.7 920 L 612.467 920 L 612.467 917.31 L 615.233 917.31 L 615.233 917.31 L 618 917.31 L 618 920 L 620.767 920 L 620.767 920 L 623.533 920 L 623.533 920 L 626.3 920 L 626.3 920 L 629.067 920 L 629.067 920 L 631.833 920 L 631.833 920 L 634.6 920 L 634.6 920 L 637.367 920 L 637.367 920 L 640.133 920 L 640.133 920 L 642.9 920 L 642.9 920 L 645.667 920 L 645.667 920 L 648.433 920 L 648.433 920 L 651.2 920 L 651.2 920 L 653.967 920 L 653.967 920 L 656.733 920 L 656.733 920 L 659.5 920 L 659.5 920 L 662.267 920 L 662.267 920 L 665.033 920 L 665.033 920 L 667.8 920 L 667.8 920 L 670.567 920 L 670.567 920 L 673.333 920 L 673.333 920 L 676.1 920 L 676.1 920 L 678.867 920 L 678.867 920 L 681.633 920 L 681.633 920 L 684.4 920 L 684.4 920 L 687.167 920 L 687.167 920 L 689.933 920 L 689.933 920 L 692.7 920 L 692.7 920 L 695.467 920 L 695.467 920 L 698.233 920 L 698.233 920 L 701 920 L 701 920 L 703.767 920 L 703.767 920 L 706.533 920 L 706.533 920 L 709.3 920 L 709.3 920 L 712.067 920 L 712.067 920 L 714.833 920 L 714.833 920 L 717.6 920 L 717.6 920 L 720.367 920 L 720.367 920 L 723.133 920 L 723.133 920 L 725.9 920 L 725.9 920 L 728.667 920 L 728.667 920 L 731.433 920 L 731.433 920 L 734.2 920 L 734.2 920 L 736.967 920 L 736.967 920 L 739.733 920 L 739.733 920 L 742.5 920 L 742.5 920 L 745.267 920 L 745.267 920 L 748.033 920 L 748.033 920 L 750.8 920 L 750.8 920 L 753.567 920 L 753.567 920 L 756.333 920 L 756.333 920 L 759.1 920 L 759.1 920 L 761.867 920 L 761.867 920 L 764.633 920 L 764.633 920 L 767.4 920 L 767.4 920 L 770.167 920 L 770.167 920 L 772.933 920 L 772.933 920 L 775.7 920 L 775.7 920 L 778.467 920 L 778.467 920 L 781.233 920 L 781.233 920 L 784 920 L 784 920 L 786.767 920 L 786.767 920 L 789.533 920 L 789.533 920 L 792.3 920 L 792.3 920 L 795.067 920 L 795.067 920 L 797.833 920 L 797.833 920 L 800.6 920 L 800.6 920 L 803.367 920 L 803.367 920 L 806.133 920 L 806.133 920 L 808.9 920 L 808.9 920 L 811.667 920 L 811.667 920 L 814.433 920 L 814.433 920 L 817.2 920 L 817.2 920 L 819.967 920 L 819.967 920 L 822.733 920 L 822.733 920 L 825.5 920 L 825.5 920 L 828.267 920 L 828.267 920 L 831.033 920 L 831.033 920 L 833.8 920 L 833.8 920 L 836.567 920 L 836.567 920 L 839.333 920 L 839.333 920 L 842.1 920 L 842.1 920 L 844.867 920 L 844.867 920 L 847.633 920 L 847.633 920 L 850.4 920 L 850.4 920 L 853.167 920 L 853.167 920 L 855.933 920 L 855.933 920 L 858.7 920 L 858.7 920 L 861.467 920 L 861.467 920 L 864.233 920 L 864.233 920 L 867 920 L 867 920 L 869.767 920 L 869.767 920 L 872.533 920 L 872.533 920 L 875.3 920 L 875.3 920 L 878.067 920 L 878.067 920 L 880.833 920 L 880.833 920 L 883.6 920 L 883.6 920 L 886.367 920 L 886.367 920 L 889.133 920 L 889.133 920 L 891.9 920 L 891.9 920 L 894.667 920 L 894.667 920 L 897.433 920 L 897.433 920 L 900.2 920 L 900.2 920 L 902.967 920 L 902.967 920 L 905.733 920 L 905.733 920 L 908.5 920 L 908.5 920 L 911.267 920 L 911.267 920 L 914.033 920 L 914.033 920 L 916.8 920 L 916.8 920 L 919.567 920 L 919.567 920 L 922.333 920 L 922.333 920 L 925.1 920 L 925.1 920 L 927.867 920 L 927.867 920 L 930.633 920 L 930.633 920 L 933.4 920 L 933.4 920 L 936.167 920 L 936.167 920 L 938.933 920 L 938.933 920 L 941.7 920 L 941.7 920 L 944.467 920 L 944.467 920 L 947.233 920 L 947.233 920 L 950 920 L 950 920" stroke-width="3" stroke-dasharray="" stroke="black" stroke-opacity="1" fill="none" fill-opacity="1" />
</g>
<g id="frame_0">
    <rect id="frame_0_border" x="120" y="50" width="830" height="870" />
    <g id="frame_0_bottomticks">
        <path d="M 784 920 L 784 910" />
        <path d="M 120 920 L 120 900" />
        <text font-size="30" transform="translate(120, 950)" text-anchor="middle" dominant-baseline="middle" stroke="none" fill="black">0</text>
        <path d="M 659.5 920 L 659.5 910" />
        <path d="M 535 920 L 535 900" />
        <text font-size="30" transform="translate(535, 950)" text-anchor="middle" dominant-baseline="middle" stroke="none" fill="black">100</text>
        <path d="M 410.5 920 L 410.5 910" />
        <path d="M 286 920 L 286 910" />
        <path d="M 161.5 920 L 161.5 910" />
        <path d="M 701 920 L 701 910" />
        <path d="M 576.5 920 L 576.5 910" />
        <path d="M 452 920 L 452 910" />
        <path d="M 327.5 920 L 327.5 900" />
        <text font-size="30" transform="translate(327.5, 950)" text-anchor="middle" dominant-baseline="middle" stroke="none" fill="black">50</text>
        <path d="M 203 920 L 203 910" />
        <path d="M 908.5 920 L 908.5 910" />
        <path d="M 742.5 920 L 742.5 900" />
        <text font-size="30" transform="translate(742.5, 950)" text-anchor="middle" dominant-baseline="middle" stroke="none" fill="black">150</text>
        <path d="M 618 920 L 618 910" />
        <path d="M 867 920 L 867 910" />
        <path d="M 493.5 920 L 493.5 910" />
        <path d="M 369 920 L 369 910" />
        <path d="M 825.5 920 L 825.5 910" />
        <path d="M 244.5 920 L 244.5 910" />
        <path d="M 950 920 L 950 900" />
        <text font-size="30" transform="translate(950, 950)" text-anchor="middle" dominant-baseline="middle" stroke="none" fill="black">200</text>
    </g>
    <g id="frame_0_leftticks">
        <path d="M 120 920 L 140 920" />
        <text font-size="30" transform="translate(110, 930)" text-anchor="end" dominant-baseline="middle" stroke="none" fill="black">0</text>
        <path d="M 120 570.278 L 130 570.278" />
        <path d="M 120 220.557 L 130 220.557" />
        <path d="M 120 893.098 L 130 893.098" />
        <path d="M 120 543.377 L 130 543.377" />
        <path d="M 120 193.655 L 130 193.655" />
        <path d="M 120 866.197 L 130 866.197" />
        <path d="M 120 516.475 L 140 516.475" />
        <text font-size="30" transform="translate(110, 526.475)" text-anchor="end" dominant-baseline="middle" stroke="none" fill="black">150</text>
        <path d="M 120 166.753 L 130 166.753" />
        <path d="M 120 839.295 L 130 839.295" />
        <path d="M 120 489.573 L 130 489.573" />
        <path d="M 120 139.852 L 130 139.852" />
        <path d="M 120 812.393 L 130 812.393" />
        <path d="M 120 462.672 L 130 462.672" />
        <path d="M 120 112.95 L 140 112.95" />
        <text font-size="30" transform="translate(110, 122.95)" text-anchor="end" dominant-baseline="middle" stroke="none" fill="black">300</text>
        <path d="M 120 785.492 L 140 785.492" />
        <text font-size="30" transform="translate(110, 795.492)" text-anchor="end" dominant-baseline="middle" stroke="none" fill="black">50</text>
        <path d="M 120 435.77 L 130 435.77" />
        <path d="M 120 86.0482 L 130 86.0482" />
        <path d="M 120 758.59 L 130 758.59" />
        <path d="M 120 408.868 L 130 408.868" />
        <path d="M 120 59.1466 L 130 59.1466" />
        <path d="M 120 731.688 L 130 731.688" />
        <path d="M 120 381.967 L 140 381.967" />
        <text font-size="30" transform="translate(110, 391.967)" text-anchor="end" dominant-baseline="middle" stroke="none" fill="black">200</text>
        <path d="M 120 704.787 L 130 704.787" />
        <path d="M 120 355.065 L 130 355.065" />
        <path d="M 120 677.885 L 130 677.885" />
        <path d="M 120 328.163 L 130 328.163" />
        <path d="M 120 650.983 L 140 650.983" />
        <text font-size="30" transform="translate(110, 660.983)" text-anchor="end" dominant-baseline="middle" stroke="none" fill="black">100</text>
        <path d="M 120 301.262 L 130 301.262" />
        <path d="M 120 624.082 L 130 624.082" />
        <path d="M 120 274.36 L 130 274.36" />
        <path d="M 120 597.18 L 130 597.18" />
        <path d="M 120 247.458 L 140 247.458" />
        <text font-size="30" transform="translate(110, 257.458)" text-anchor="end" dominant-baseline="middle" stroke="none" fill="black">250</text>
    </g>
    <g id="frame_0_topticks">
        <path d="M 784 50 L 784 60" />
        <path d="M 120 50 L 120 70" />
        <path d="M 659.5 50 L 659.5 60" />
        <path d="M 535 50 L 535 70" />
        <path d="M 410.5 50 L 410.5 60" />
        <path d="M 286 50 L 286 60" />
        <path d="M 161.5 50 L 161.5 60" />
        <path d="M 701 50 L 701 60" />
        <path d="M 576.5 50 L 576.5 60" />
        <path d="M 452 50 L 452 60" />
        <path d="M 327.5 50 L 327.5 70" />
        <path d="M 203 50 L 203 60" />
        <path d="M 908.5 50 L 908.5 60" />
        <path d="M 742.5 50 L 742.5 70" />
        <path d="M 618 50 L 618 60" />
        <path d="M 867 50 L 867 60" />
        <path d="M 493.5 50 L 493.5 60" />
        <path d="M 369 50 L 369 60" />
        <path d="M 825.5 50 L 825.5 60" />
        <path d="M 244.5 50 L 244.5 60" />
        <path d="M 950 50 L 950 70" />
    </g>
    <g id="frame_0_rightticks">
        <path d="M 950 920 L 930 920" />
        <path d="M 950 570.278 L 940 570.278" />
        <path d="M 950 220.557 L 940 220.557" />
        <path d="M 950 893.098 L 940 893.098" />
        <path d="M 950 543.377 L 940 543.377" />
        <path d="M 950 193.655 L 940 193.655" />
        <path d="M 950 866.197 L 940 866.197" />
        <path d="M 950 516.475 L 930 516.475" />
        <path d="M 950 166.753 L 940 166.753" />
        <path d="M 950 839.295 L 940 839.295" />
        <path d="M 950 489.573 L 940 489.573" />
        <path d="M 950 139.852 L 940 139.852" />
        <path d="M 950 812.393 L 940 812.393" />
        <path d="M 950 462.672 L 940 462.672" />
        <path d="M 950 112.95 L 930 112.95" />
        <path d="M 950 785.492 L 930 785.492" />
        <path d="M 950 435.77 L 940 435.77" />
        <path d="M 950 86.0482 L 940 86.0482" />
        <path d="M 950 758.59 L 940 758.59" />
        <path d="M 950 408.868 L 940 408.868" />
        <path d="M 950 59.1466 L 940 59.1466" />
        <path d="M 950 731.688 L 940 731.688" />
        <path d="M 950 381.967 L 930 381.967" />
        <path d="M 950 704.787 L 940 704.787" />
        <path d="M 950 355.065 L 940 355.065" />
        <path d="M 950 677.885 L 940 677.885" />
        <path d="M 950 328.163 L 940 328.163" />
        <path d="M 950 650.983 L 930 650.983" />
        <path d="M 950 301.262 L 940 301.262" />
        <path d="M 950 624.082 L 940 624.082" />
        <path d="M 950 274.36 L 940 274.36" />
        <path d="M 950 597.18 L 940 597.18" />
        <path d="M 950 247.458 L 930 247.458" />
    </g>
</g>
</g>
</svg>
