<?xml version="1.0" standalone="no"?>
<!DOCTYPE svg PUBLIC "-//W3C//DTD SVG 1.1//EN" "http://www.w3.org/Graphics/SVG/1.1/DTD/svg11.dtd">
<svg style="stroke-linejoin:miter; stroke:black; stroke-width:2.5; text-anchor:middle; fill:none" xmlns="http://www.w3.org/2000/svg" font-family="Helvetica, Arial, FreeSans, Sans, sans, sans-serif" width="1000px" height="1000px" version="1.1" xmlns:xlink="http://www.w3.org/1999/xlink" viewBox="0 0 1000 1000">
<defs>
    <clipPath id="Scatter_0_clip">
        <rect x="120" y="50" width="830" height="870" />
    </clipPath>
    <circle id="Scatter_0_mark" cx="0" cy="0" r="7.5" stroke="none" stroke-opacity="1" fill="black" fill-opacity="1" />
</defs>
<g id="whole_document">
<rect id="background" x="0" y="0" width="1000" height="1000" stroke="none" fill="white" />
<g id="Scatter_0" clip-path="url(#Scatter_0_clip)">
    <use x="159.566" y="770.776" xlink:href="#Scatter_0_mark" />
    <use x="176.79" y="727.467" xlink:href="#Scatter_0_mark" />
    <use x="308.202" y="347.769" xlink:href="#Scatter_0_mark" />
    <use x="261.011" y="820.721" xlink:href="#Scatter_0_mark" />
    <use x="138.74" y="546.56" xlink:href="#Scatter_0_mark" />
    <use x="323.692" y="680.402" xlink:href="#Scatter_0_mark" />
    <use x="386.401" y="340.607" xlink:href="#Scatter_0_mark" />
    <use x="385.608" y="498.631" xlink:href="#Scatter_0_mark" />
    <use x="335.65" y="741.405" xlink:href="#Scatter_0_mark" />
    <use x="203.749" y="577.136" xlink:href="#Scatter_0_mark" />
    <use x="242.771" y="456.593" xlink:href="#Scatter_0_mark" />
    <use x="282.599" y="427.556" xlink:href="#Scatter_0_mark" />
    <use x="177.681" y="616.85" xlink:href="#Scatter_0_mark" />
    <use x="346.864" y="414.358" xlink:href="#Scatter_0_mark" />
    <use x="373.46" y="784.492" xlink:href="#Scatter_0_mark" />
    <use x="304.152" y="723.556" xlink:href="#Scatter_0_mark" />
    <use x="381.606" y="560.299" xlink:href="#Scatter_0_mark" />
    <use x="352.975" y="347.363" xlink:href="#Scatter_0_mark" />
    <use x="259.235" y="757.424" xlink:href="#Scatter_0_mark" />
    <use x="346.078" y="582.974" xlink:href="#Scatter_0_mark" />
    <use x="326.306" y="415.869" xlink:href="#Scatter_0_mark" />
    <use x="143.343" y="733.206" xlink:href="#Scatter_0_mark" />
    <use x="362.449" y="527.424" xlink:href="#Scatter_0_mark" />
    <use x="316.703" y="396.594" xlink:href="#Scatter_0_mark" />
    <use x="361.857" y="919.356" xlink:href="#Scatter_0_mark" />
    <use x="123.344" y="393.039" xlink:href="#Scatter_0_mark" />
    <use x="394.574" y="391.19" xlink:href="#Scatter_0_mark" />
    <use x="344.487" y="547.896" xlink:href="#Scatter_0_mark" />
    <use x="352.349" y="766.851" xlink:href="#Scatter_0_mark" />
    <use x="312.969" y="676.211" xlink:href="#Scatter_0_mark" />
    <use x="178.703" y="544.796" xlink:href="#Scatter_0_mark" />
    <use x="360.747" y="640.83" xlink:href="#Scatter_0_mark" />
    <use x="335.575" y="521.268" xlink:href="#Scatter_0_mark" />
    <use x="320.942" y="806.603" xlink:href="#Scatter_0_mark" />
    <use x="226.969" y="745.75" xlink:href="#Scatter_0_mark" />
    <use x="353.386" y="532.578" xlink:href="#Scatter_0_mark" />
    <use x="177.867" y="830.117" xlink:href="#Scatter_0_mark" />
    <use x="241.081" y="599.987" xlink:href="#Scatter_0_mark" />
    <use x="279.194" y="564.174" xlink:href="#Scatter_0_mark" />
    <use x="376.943" y="745.69" xlink:href="#Scatter_0_mark" />
    <use x="297.893" y="362.774" xlink:href="#Scatter_0_mark" />
    <use x="316.295" y="557.065" xlink:href="#Scatter_0_mark" />
    <use x="208.663" y="525.295" xlink:href="#Scatter_0_mark" />
    <use x="318.619" y="756.485" xlink:href="#Scatter_0_mark" />
    <use x="363.306" y="667.039" xlink:href="#Scatter_0_mark" />
    <use x="225.27" y="379.775" xlink:href="#Scatter_0_mark" />
    <use x="200.124" y="480.262" xlink:href="#Scatter_0_mark" />
    <use x="384.197" y="439.773" xlink:href="#Scatter_0_mark" />
    <use x="163.805" y="790.221" xlink:href="#Scatter_0_mark" />
    <use x="245.24" y="619.286" xlink:href="#Scatter_0_mark" />
    <use x="200.245" y="491.773" xlink:href="#Scatter_0_mark" />
    <use x="271.878" y="451.091" xlink:href="#Scatter_0_mark" />
    <use x="288.153" y="752.91" xlink:href="#Scatter_0_mark" />
    <use x="387.778" y="827.294" xlink:href="#Scatter_0_mark" />
    <use x="241.343" y="532.376" xlink:href="#Scatter_0_mark" />
    <use x="140.659" y="686.215" xlink:href="#Scatter_0_mark" />
    <use x="286.791" y="895.167" xlink:href="#Scatter_0_mark" />
    <use x="223.73" y="536.357" xlink:href="#Scatter_0_mark" />
    <use x="375.546" y="789.662" xlink:href="#Scatter_0_mark" />
    <use x="246.149" y="532.37" xlink:href="#Scatter_0_mark" />
    <use x="132.476" y="495.725" xlink:href="#Scatter_0_mark" />
    <use x="363.468" y="427.811" xlink:href="#Scatter_0_mark" />
    <use x="249.028" y="649.387" xlink:href="#Scatter_0_mark" />
    <use x="153.062" y="547.203" xlink:href="#Scatter_0_mark" />
    <use x="147.448" y="868.075" xlink:href="#Scatter_0_mark" />
    <use x="360.839" y="536.717" xlink:href="#Scatter_0_mark" />
    <use x="143.097" y="473.29" xlink:href="#Scatter_0_mark" />
    <use x="301.198" y="389.966" xlink:href="#Scatter_0_mark" />
    <use x="253.282" y="419.043" xlink:href="#Scatter_0_mark" />
    <use x="243.639" y="386.083" xlink:href="#Scatter_0_mark" />
    <use x="124.108" y="629.175" xlink:href="#Scatter_0_mark" />
    <use x="124.474" y="573.06" xlink:href="#Scatter_0_mark" />
    <use x="364.343" y="485.686" xlink:href="#Scatter_0_mark" />
    <use x="356.808" y="682.203" xlink:href="#Scatter_0_mark" />
    <use x="136.634" y="772.391" xlink:href="#Scatter_0_mark" />
    <use x="194.099" y="767.994" xlink:href="#Scatter_0_mark" />
    <use x="235.479" y="368.038" xlink:href="#Scatter_0_mark" />
    <use x="325.268" y="647.795" xlink:href="#Scatter_0_mark" />
    <use x="184.315" y="797.562" xlink:href="#Scatter_0_mark" />
    <use x="140.383" y="345.375" xlink:href="#Scatter_0_mark" />
    <use x="380.314" y="586.505" xlink:href="#Scatter_0_mark" />
    <use x="314.478" y="836.657" xlink:href="#Scatter_0_mark" />
    <use x="306.024" y="496.757" xlink:href="#Scatter_0_mark" />
    <use x="348.22" y="825.601" xlink:href="#Scatter_0_mark" />
    <use x="321.623" y="779.839" xlink:href="#Scatter_0_mark" />
    <use x="225.944" y="752.556" xlink:href="#Scatter_0_mark" />
    <use x="130.45" y="423.332" xlink:href="#Scatter_0_mark" />
    <use x="198.441" y="800.041" xlink:href="#Scatter_0_mark" />
    <use x="226.897" y="369.157" xlink:href="#Scatter_0_mark" />
    <use x="340.365" y="645.36" xlink:href="#Scatter_0_mark" />
    <use x="203.8" y="911.312" xlink:href="#Scatter_0_mark" />
    <use x="257.151" y="659.522" xlink:href="#Scatter_0_mark" />
    <use x="266.484" y="906.76" xlink:href="#Scatter_0_mark" />
    <use x="273.49" y="771.768" xlink:href="#Scatter_0_mark" />
    <use x="230.128" y="706.372" xlink:href="#Scatter_0_mark" />
    <use x="208.699" y="819.941" xlink:href="#Scatter_0_mark" />
    <use x="281.476" y="880.07" xlink:href="#Scatter_0_mark" />
    <use x="126.301" y="610.732" xlink:href="#Scatter_0_mark" />
    <use x="353.117" y="820.028" xlink:href="#Scatter_0_mark" />
    <use x="304.642" y="369.752" xlink:href="#Scatter_0_mark" />
</g>
<g id="frame_0">
    <rect id="frame_0_border" x="120" y="50" width="830" height="870" />
    <g id="frame_0_bottomticks">
        <path d="M 120 920 L 120 900" />
        <text font-size="30" transform="translate(120, 950)" text-anchor="middle" dominant-baseline="middle" stroke="none" fill="black">0</text>
        <path d="M 839.333 920 L 839.333 910" />
        <path d="M 673.333 920 L 673.333 900" />
        <text font-size="30" transform="translate(673.333, 950)" text-anchor="middle" dominant-baseline="middle" stroke="none" fill="black">100</text>
        <path d="M 507.333 920 L 507.333 910" />
        <path d="M 341.333 920 L 341.333 900" />
        <text font-size="30" transform="translate(341.333, 950)" text-anchor="middle" dominant-baseline="middle" stroke="none" fill="black">40</text>
        <path d="M 175.333 920 L 175.333 910" />
        <path d="M 894.667 920 L 894.667 900" />
        <text font-size="30" transform="translate(894.667, 950)" text-anchor="middle" dominant-baseline="middle" stroke="none" fill="black">140</text>
        <path d="M 728.667 920 L 728.667 910" />
        <path d="M 562.667 920 L 562.667 900" />
        <text font-size="30" transform="translate(562.667, 950)" text-anchor="middle" dominant-baseline="middle" stroke="none" fill="black">80</text>
        <path d="M 396.667 920 L 396.667 910" />
        <path d="M 230.667 920 L 230.667 900" />
        <text font-size="30" transform="translate(230.667, 950)" text-anchor="middle" dominant-baseline="middle" stroke="none" fill="black">20</text>
        <path d="M 950 920 L 950 910" />
        <path d="M 784 920 L 784 900" />
        <text font-size="30" transform="translate(784, 950)" text-anchor="middle" dominant-baseline="middle" stroke="none" fill="black">120</text>
        <path d="M 618 920 L 618 910" />
        <path d="M 452 920 L 452 900" />
        <text font-size="30" transform="translate(452, 950)" text-anchor="middle" dominant-baseline="middle" stroke="none" fill="black">60</text>
        <path d="M 286 920 L 286 910" />
    </g>
    <g id="frame_0_leftticks">
        <path d="M 120 920 L 140 920" />
        <text font-size="30" transform="translate(110, 930)" text-anchor="end" dominant-baseline="middle" stroke="none" fill="black">0</text>
        <path d="M 120 166 L 130 166" />
        <path d="M 120 340 L 140 340" />
        <text font-size="30" transform="translate(110, 350)" text-anchor="end" dominant-baseline="middle" stroke="none" fill="black">100</text>
        <path d="M 120 514 L 130 514" />
        <path d="M 120 688 L 140 688" />
        <text font-size="30" transform="translate(110, 698)" text-anchor="end" dominant-baseline="middle" stroke="none" fill="black">40</text>
        <path d="M 120 862 L 130 862" />
        <path d="M 120 108 L 140 108" />
        <text font-size="30" transform="translate(110, 118)" text-anchor="end" dominant-baseline="middle" stroke="none" fill="black">140</text>
        <path d="M 120 282 L 130 282" />
        <path d="M 120 456 L 140 456" />
        <text font-size="30" transform="translate(110, 466)" text-anchor="end" dominant-baseline="middle" stroke="none" fill="black">80</text>
        <path d="M 120 630 L 130 630" />
        <path d="M 120 804 L 140 804" />
        <text font-size="30" transform="translate(110, 814)" text-anchor="end" dominant-baseline="middle" stroke="none" fill="black">20</text>
        <path d="M 120 50 L 130 50" />
        <path d="M 120 224 L 140 224" />
        <text font-size="30" transform="translate(110, 234)" text-anchor="end" dominant-baseline="middle" stroke="none" fill="black">120</text>
        <path d="M 120 398 L 130 398" />
        <path d="M 120 572 L 140 572" />
        <text font-size="30" transform="translate(110, 582)" text-anchor="end" dominant-baseline="middle" stroke="none" fill="black">60</text>
        <path d="M 120 746 L 130 746" />
    </g>
    <g id="frame_0_topticks">
        <path d="M 120 50 L 120 70" />
        <path d="M 839.333 50 L 839.333 60" />
        <path d="M 673.333 50 L 673.333 70" />
        <path d="M 507.333 50 L 507.333 60" />
        <path d="M 341.333 50 L 341.333 70" />
        <path d="M 175.333 50 L 175.333 60" />
        <path d="M 894.667 50 L 894.667 70" />
        <path d="M 728.667 50 L 728.667 60" />
        <path d="M 562.667 50 L 562.667 70" />
        <path d="M 396.667 50 L 396.667 60" />
        <path d="M 230.667 50 L 230.667 70" />
        <path d="M 950 50 L 950 60" />
        <path d="M 784 50 L 784 70" />
        <path d="M 618 50 L 618 60" />
        <path d="M 452 50 L 452 70" />
        <path d="M 286 50 L 286 60" />
    </g>
    <g id="frame_0_rightticks">
        <path d="M 950 920 L 930 920" />
        <path d="M 950 166 L 940 166" />
        <path d="M 950 340 L 930 340" />
        <path d="M 950 514 L 940 514" />
        <path d="M 950 688 L 930 688" />
        <path d="M 950 862 L 940 862" />
        <path d="M 950 108 L 930 108" />
        <path d="M 950 282 L 940 282" />
        <path d="M 950 456 L 930 456" />
        <path d="M 950 630 L 940 630" />
        <path d="M 950 804 L 930 804" />
        <path d="M 950 50 L 940 50" />
        <path d="M 950 224 L 930 224" />
        <path d="M 950 398 L 940 398" />
        <path d="M 950 572 L 930 572" />
        <path d="M 950 746 L 940 746" />
    </g>
</g>
</g>
</svg>
