<?xml version="1.0" standalone="no"?>
<!DOCTYPE svg PUBLIC "-//W3C//DTD SVG 1.1//EN" "http://www.w3.org/Graphics/SVG/1.1/DTD/svg11.dtd">
<svg style="stroke-linejoin:miter; stroke:black; stroke-width:2.5; text-anchor:middle; fill:none" xmlns="http://www.w3.org/2000/svg" font-family="Helvetica, Arial, FreeSans, Sans, sans, sans-serif" width="1000px" height="1000px" version="1.1" xmlns:xlink="http://www.w3.org/1999/xlink" viewBox="0 0 1000 1000">
<defs>
    <clipPath id="Scatter_0_clip">
        <rect x="120" y="50" width="830" height="870" />
    </clipPath>
    <circle id="Scatter_0_mark" cx="0" cy="0" r="7.5" stroke="none" stroke-opacity="1" fill="black" fill-opacity="1" />
</defs>
<g id="whole_document">
<rect id="background" x="0" y="0" width="1000" height="1000" stroke="none" fill="white" />
<g id="Scatter_0" clip-path="url(#Scatter_0_clip)">
    <path d="M 366.735 750.679 L 418.494 704.64 L 872.274 353.375 L 307.046 479.516 L 634.697 806.346 L 474.742 311.969 L 880.833 144.347 L 691.978 146.467 L 401.836 280.006 L 598.156 632.579 L 742.218 528.271 L 776.92 421.811 L 550.693 702.258 L 792.693 250.029 L 350.343 178.94 L 423.168 364.199 L 618.278 157.164 L 872.759 233.695 L 382.693 484.264 L 591.179 252.13 L 790.887 304.982 L 411.636 794.044 L 657.567 208.372 L 813.923 330.652 L 189.167 209.952 L 818.171 847.5 L 820.381 122.5 L 633.101 256.383 L 371.426 235.369 L 479.751 340.631 L 636.805 699.524 L 522.035 212.921 L 664.924 280.206 L 323.919 319.321 L 396.645 570.511 L 651.408 232.596 L 295.816 701.761 L 570.847 532.79 L 613.647 430.912 L 396.716 169.628 L 854.341 380.931 L 622.143 331.74 L 660.112 619.441 L 383.815 325.53 L 490.713 206.08 L 834.024 575.051 L 713.931 642.268 L 762.32 150.24 L 343.496 739.348 L 547.782 521.671 L 700.174 641.944 L 748.793 450.469 L 388.087 406.964 L 299.19 140.665 L 651.648 532.089 L 467.794 801.218 L 218.075 410.606 L 646.891 579.167 L 344.165 173.362 L 651.656 519.242 L 695.451 823.09 L 776.616 205.647 L 511.808 511.547 L 633.93 768.064 L 250.452 783.071 L 646.461 212.674 L 722.262 794.702 L 821.844 372.096 L 787.094 500.175 L 826.485 525.952 L 535.963 845.458 L 603.027 844.481 L 707.448 203.309 L 472.59 223.45 L 364.805 811.977 L 370.061 658.373 L 848.05 547.763 L 513.711 307.756 L 334.723 684.526 L 875.136 801.955 L 586.959 160.618 L 288 336.598 L 694.217 359.195 L 301.214 246.404 L 355.904 317.5 L 388.51 573.249 L 781.968 828.507 L 331.761 646.765 L 846.713 570.704 L 516.621 267.402 L 198.781 632.44 L 499.696 489.834 L 204.22 464.885 L 365.55 446.159 L 443.705 562.067 L 307.978 619.346 L 236.118 424.814 L 558.006 839.596 L 307.874 233.316 L 846.002 362.889" stroke-width="3" stroke-dasharray="" stroke="black" stroke-opacity="1" fill="none" />
    <use x="366.735" y="750.679" xlink:href="#Scatter_0_mark" />
    <use x="418.494" y="704.64" xlink:href="#Scatter_0_mark" />
    <use x="872.274" y="353.375" xlink:href="#Scatter_0_mark" />
    <use x="307.046" y="479.516" xlink:href="#Scatter_0_mark" />
    <use x="634.697" y="806.346" xlink:href="#Scatter_0_mark" />
    <use x="474.742" y="311.969" xlink:href="#Scatter_0_mark" />
    <use x="880.833" y="144.347" xlink:href="#Scatter_0_mark" />
    <use x="691.978" y="146.467" xlink:href="#Scatter_0_mark" />
    <use x="401.836" y="280.006" xlink:href="#Scatter_0_mark" />
    <use x="598.156" y="632.579" xlink:href="#Scatter_0_mark" />
    <use x="742.218" y="528.271" xlink:href="#Scatter_0_mark" />
    <use x="776.92" y="421.811" xlink:href="#Scatter_0_mark" />
    <use x="550.693" y="702.258" xlink:href="#Scatter_0_mark" />
    <use x="792.693" y="250.029" xlink:href="#Scatter_0_mark" />
    <use x="350.343" y="178.94" xlink:href="#Scatter_0_mark" />
    <use x="423.168" y="364.199" xlink:href="#Scatter_0_mark" />
    <use x="618.278" y="157.164" xlink:href="#Scatter_0_mark" />
    <use x="872.759" y="233.695" xlink:href="#Scatter_0_mark" />
    <use x="382.693" y="484.264" xlink:href="#Scatter_0_mark" />
    <use x="591.179" y="252.13" xlink:href="#Scatter_0_mark" />
    <use x="790.887" y="304.982" xlink:href="#Scatter_0_mark" />
    <use x="411.636" y="794.044" xlink:href="#Scatter_0_mark" />
    <use x="657.567" y="208.372" xlink:href="#Scatter_0_mark" />
    <use x="813.923" y="330.652" xlink:href="#Scatter_0_mark" />
    <use x="189.167" y="209.952" xlink:href="#Scatter_0_mark" />
    <use x="818.171" y="847.5" xlink:href="#Scatter_0_mark" />
    <use x="820.381" y="122.5" xlink:href="#Scatter_0_mark" />
    <use x="633.101" y="256.383" xlink:href="#Scatter_0_mark" />
    <use x="371.426" y="235.369" xlink:href="#Scatter_0_mark" />
    <use x="479.751" y="340.631" xlink:href="#Scatter_0_mark" />
    <use x="636.805" y="699.524" xlink:href="#Scatter_0_mark" />
    <use x="522.035" y="212.921" xlink:href="#Scatter_0_mark" />
    <use x="664.924" y="280.206" xlink:href="#Scatter_0_mark" />
    <use x="323.919" y="319.321" xlink:href="#Scatter_0_mark" />
    <use x="396.645" y="570.511" xlink:href="#Scatter_0_mark" />
    <use x="651.408" y="232.596" xlink:href="#Scatter_0_mark" />
    <use x="295.816" y="701.761" xlink:href="#Scatter_0_mark" />
    <use x="570.847" y="532.79" xlink:href="#Scatter_0_mark" />
    <use x="613.647" y="430.912" xlink:href="#Scatter_0_mark" />
    <use x="396.716" y="169.628" xlink:href="#Scatter_0_mark" />
    <use x="854.341" y="380.931" xlink:href="#Scatter_0_mark" />
    <use x="622.143" y="331.74" xlink:href="#Scatter_0_mark" />
    <use x="660.112" y="619.441" xlink:href="#Scatter_0_mark" />
    <use x="383.815" y="325.53" xlink:href="#Scatter_0_mark" />
    <use x="490.713" y="206.08" xlink:href="#Scatter_0_mark" />
    <use x="834.024" y="575.051" xlink:href="#Scatter_0_mark" />
    <use x="713.931" y="642.268" xlink:href="#Scatter_0_mark" />
    <use x="762.32" y="150.24" xlink:href="#Scatter_0_mark" />
    <use x="343.496" y="739.348" xlink:href="#Scatter_0_mark" />
    <use x="547.782" y="521.671" xlink:href="#Scatter_0_mark" />
    <use x="700.174" y="641.944" xlink:href="#Scatter_0_mark" />
    <use x="748.793" y="450.469" xlink:href="#Scatter_0_mark" />
    <use x="388.087" y="406.964" xlink:href="#Scatter_0_mark" />
    <use x="299.19" y="140.665" xlink:href="#Scatter_0_mark" />
    <use x="651.648" y="532.089" xlink:href="#Scatter_0_mark" />
    <use x="467.794" y="801.218" xlink:href="#Scatter_0_mark" />
    <use x="218.075" y="410.606" xlink:href="#Scatter_0_mark" />
    <use x="646.891" y="579.167" xlink:href="#Scatter_0_mark" />
    <use x="344.165" y="173.362" xlink:href="#Scatter_0_mark" />
    <use x="651.656" y="519.242" xlink:href="#Scatter_0_mark" />
    <use x="695.451" y="823.09" xlink:href="#Scatter_0_mark" />
    <use x="776.616" y="205.647" xlink:href="#Scatter_0_mark" />
    <use x="511.808" y="511.547" xlink:href="#Scatter_0_mark" />
    <use x="633.93" y="768.064" xlink:href="#Scatter_0_mark" />
    <use x="250.452" y="783.071" xlink:href="#Scatter_0_mark" />
    <use x="646.461" y="212.674" xlink:href="#Scatter_0_mark" />
    <use x="722.262" y="794.702" xlink:href="#Scatter_0_mark" />
    <use x="821.844" y="372.096" xlink:href="#Scatter_0_mark" />
    <use x="787.094" y="500.175" xlink:href="#Scatter_0_mark" />
    <use x="826.485" y="525.952" xlink:href="#Scatter_0_mark" />
    <use x="535.963" y="845.458" xlink:href="#Scatter_0_mark" />
    <use x="603.027" y="844.481" xlink:href="#Scatter_0_mark" />
    <use x="707.448" y="203.309" xlink:href="#Scatter_0_mark" />
    <use x="472.59" y="223.45" xlink:href="#Scatter_0_mark" />
    <use x="364.805" y="811.977" xlink:href="#Scatter_0_mark" />
    <use x="370.061" y="658.373" xlink:href="#Scatter_0_mark" />
    <use x="848.05" y="547.763" xlink:href="#Scatter_0_mark" />
    <use x="513.711" y="307.756" xlink:href="#Scatter_0_mark" />
    <use x="334.723" y="684.526" xlink:href="#Scatter_0_mark" />
    <use x="875.136" y="801.955" xlink:href="#Scatter_0_mark" />
    <use x="586.959" y="160.618" xlink:href="#Scatter_0_mark" />
    <use x="288" y="336.598" xlink:href="#Scatter_0_mark" />
    <use x="694.217" y="359.195" xlink:href="#Scatter_0_mark" />
    <use x="301.214" y="246.404" xlink:href="#Scatter_0_mark" />
    <use x="355.904" y="317.5" xlink:href="#Scatter_0_mark" />
    <use x="388.51" y="573.249" xlink:href="#Scatter_0_mark" />
    <use x="781.968" y="828.507" xlink:href="#Scatter_0_mark" />
    <use x="331.761" y="646.765" xlink:href="#Scatter_0_mark" />
    <use x="846.713" y="570.704" xlink:href="#Scatter_0_mark" />
    <use x="516.621" y="267.402" xlink:href="#Scatter_0_mark" />
    <use x="198.781" y="632.44" xlink:href="#Scatter_0_mark" />
    <use x="499.696" y="489.834" xlink:href="#Scatter_0_mark" />
    <use x="204.22" y="464.885" xlink:href="#Scatter_0_mark" />
    <use x="365.55" y="446.159" xlink:href="#Scatter_0_mark" />
    <use x="443.705" y="562.067" xlink:href="#Scatter_0_mark" />
    <use x="307.978" y="619.346" xlink:href="#Scatter_0_mark" />
    <use x="236.118" y="424.814" xlink:href="#Scatter_0_mark" />
    <use x="558.006" y="839.596" xlink:href="#Scatter_0_mark" />
    <use x="307.874" y="233.316" xlink:href="#Scatter_0_mark" />
    <use x="846.002" y="362.889" xlink:href="#Scatter_0_mark" />
</g>
<g id="frame_0">
    <rect id="frame_0_border" x="120" y="50" width="830" height="870" />
    <g id="frame_0_bottomticks">
        <path d="M 188.397 920 L 188.397 900" />
        <text font-size="30" transform="translate(188.397, 950)" text-anchor="middle" dominant-baseline="middle" stroke="none" fill="black">0</text>
        <path d="M 881.559 920 L 881.559 900" />
        <text font-size="30" transform="translate(881.559, 950)" text-anchor="middle" dominant-baseline="middle" stroke="none" fill="black">100</text>
        <path d="M 673.61 920 L 673.61 910" />
        <path d="M 465.662 920 L 465.662 900" />
        <text font-size="30" transform="translate(465.662, 950)" text-anchor="middle" dominant-baseline="middle" stroke="none" fill="black">40</text>
        <path d="M 257.713 920 L 257.713 910" />
        <path d="M 742.926 920 L 742.926 900" />
        <text font-size="30" transform="translate(742.926, 950)" text-anchor="middle" dominant-baseline="middle" stroke="none" fill="black">80</text>
        <path d="M 534.978 920 L 534.978 910" />
        <path d="M 327.029 920 L 327.029 900" />
        <text font-size="30" transform="translate(327.029, 950)" text-anchor="middle" dominant-baseline="middle" stroke="none" fill="black">20</text>
        <path d="M 812.243 920 L 812.243 910" />
        <path d="M 604.294 920 L 604.294 900" />
        <text font-size="30" transform="translate(604.294, 950)" text-anchor="middle" dominant-baseline="middle" stroke="none" fill="black">60</text>
        <path d="M 396.345 920 L 396.345 910" />
    </g>
    <g id="frame_0_leftticks">
        <path d="M 120 856.439 L 140 856.439" />
        <text font-size="30" transform="translate(110, 866.439)" text-anchor="end" dominant-baseline="middle" stroke="none" fill="black">0</text>
        <path d="M 120 841.649 L 130 841.649" />
        <path d="M 120 826.858 L 130 826.858" />
        <path d="M 120 812.067 L 130 812.067" />
        <path d="M 120 797.277 L 130 797.277" />
        <path d="M 120 782.486 L 130 782.486" />
        <path d="M 120 767.695 L 130 767.695" />
        <path d="M 120 752.905 L 130 752.905" />
        <path d="M 120 738.114 L 130 738.114" />
        <path d="M 120 723.323 L 130 723.323" />
        <path d="M 120 708.533 L 140 708.533" />
        <text font-size="30" transform="translate(110, 718.533)" text-anchor="end" dominant-baseline="middle" stroke="none" fill="black">10</text>
        <path d="M 120 693.742 L 130 693.742" />
        <path d="M 120 678.951 L 130 678.951" />
        <path d="M 120 664.161 L 130 664.161" />
        <path d="M 120 649.37 L 130 649.37" />
        <path d="M 120 634.58 L 130 634.58" />
        <path d="M 120 619.789 L 130 619.789" />
        <path d="M 120 604.998 L 130 604.998" />
        <path d="M 120 590.208 L 130 590.208" />
        <path d="M 120 575.417 L 130 575.417" />
        <path d="M 120 560.626 L 140 560.626" />
        <text font-size="30" transform="translate(110, 570.626)" text-anchor="end" dominant-baseline="middle" stroke="none" fill="black">20</text>
        <path d="M 120 545.836 L 130 545.836" />
        <path d="M 120 531.045 L 130 531.045" />
        <path d="M 120 516.254 L 130 516.254" />
        <path d="M 120 501.464 L 130 501.464" />
        <path d="M 120 486.673 L 130 486.673" />
        <path d="M 120 471.883 L 130 471.883" />
        <path d="M 120 457.092 L 130 457.092" />
        <path d="M 120 442.301 L 130 442.301" />
        <path d="M 120 427.511 L 130 427.511" />
        <path d="M 120 412.72 L 140 412.72" />
        <text font-size="30" transform="translate(110, 422.72)" text-anchor="end" dominant-baseline="middle" stroke="none" fill="black">30</text>
        <path d="M 120 397.929 L 130 397.929" />
        <path d="M 120 383.139 L 130 383.139" />
        <path d="M 120 368.348 L 130 368.348" />
        <path d="M 120 353.557 L 130 353.557" />
        <path d="M 120 338.767 L 130 338.767" />
        <path d="M 120 323.976 L 130 323.976" />
        <path d="M 120 309.185 L 130 309.185" />
        <path d="M 120 294.395 L 130 294.395" />
        <path d="M 120 279.604 L 130 279.604" />
        <path d="M 120 264.814 L 140 264.814" />
        <text font-size="30" transform="translate(110, 274.814)" text-anchor="end" dominant-baseline="middle" stroke="none" fill="black">40</text>
        <path d="M 120 250.023 L 130 250.023" />
        <path d="M 120 235.232 L 130 235.232" />
        <path d="M 120 220.442 L 130 220.442" />
        <path d="M 120 205.651 L 130 205.651" />
        <path d="M 120 190.86 L 130 190.86" />
        <path d="M 120 176.07 L 130 176.07" />
        <path d="M 120 161.279 L 130 161.279" />
        <path d="M 120 146.488 L 130 146.488" />
        <path d="M 120 131.698 L 130 131.698" />
        <path d="M 120 116.907 L 140 116.907" />
        <text font-size="30" transform="translate(110, 126.907)" text-anchor="end" dominant-baseline="middle" stroke="none" fill="black">50</text>
        <path d="M 120 102.116 L 130 102.116" />
        <path d="M 120 87.3258 L 130 87.3258" />
        <path d="M 120 72.5352 L 130 72.5352" />
        <path d="M 120 57.7446 L 130 57.7446" />
        <path d="M 120 871.23 L 130 871.23" />
        <path d="M 120 915.602 L 130 915.602" />
        <path d="M 120 900.811 L 130 900.811" />
        <path d="M 120 886.02 L 130 886.02" />
    </g>
    <g id="frame_0_topticks">
        <path d="M 188.397 50 L 188.397 70" />
        <path d="M 881.559 50 L 881.559 70" />
        <path d="M 673.61 50 L 673.61 60" />
        <path d="M 465.662 50 L 465.662 70" />
        <path d="M 257.713 50 L 257.713 60" />
        <path d="M 742.926 50 L 742.926 70" />
        <path d="M 534.978 50 L 534.978 60" />
        <path d="M 327.029 50 L 327.029 70" />
        <path d="M 812.243 50 L 812.243 60" />
        <path d="M 604.294 50 L 604.294 70" />
        <path d="M 396.345 50 L 396.345 60" />
    </g>
    <g id="frame_0_rightticks">
        <path d="M 950 856.439 L 930 856.439" />
        <path d="M 950 841.649 L 940 841.649" />
        <path d="M 950 826.858 L 940 826.858" />
        <path d="M 950 812.067 L 940 812.067" />
        <path d="M 950 797.277 L 940 797.277" />
        <path d="M 950 782.486 L 940 782.486" />
        <path d="M 950 767.695 L 940 767.695" />
        <path d="M 950 752.905 L 940 752.905" />
        <path d="M 950 738.114 L 940 738.114" />
        <path d="M 950 723.323 L 940 723.323" />
        <path d="M 950 708.533 L 930 708.533" />
        <path d="M 950 693.742 L 940 693.742" />
        <path d="M 950 678.951 L 940 678.951" />
        <path d="M 950 664.161 L 940 664.161" />
        <path d="M 950 649.37 L 940 649.37" />
        <path d="M 950 634.58 L 940 634.58" />
        <path d="M 950 619.789 L 940 619.789" />
        <path d="M 950 604.998 L 940 604.998" />
        <path d="M 950 590.208 L 940 590.208" />
        <path d="M 950 575.417 L 940 575.417" />
        <path d="M 950 560.626 L 930 560.626" />
        <path d="M 950 545.836 L 940 545.836" />
        <path d="M 950 531.045 L 940 531.045" />
        <path d="M 950 516.254 L 940 516.254" />
        <path d="M 950 501.464 L 940 501.464" />
        <path d="M 950 486.673 L 940 486.673" />
        <path d="M 950 471.883 L 940 471.883" />
        <path d="M 950 457.092 L 940 457.092" />
        <path d="M 950 442.301 L 940 442.301" />
        <path d="M 950 427.511 L 940 427.511" />
        <path d="M 950 412.72 L 930 412.72" />
        <path d="M 950 397.929 L 940 397.929" />
        <path d="M 950 383.139 L 940 383.139" />
        <path d="M 950 368.348 L 940 368.348" />
        <path d="M 950 353.557 L 940 353.557" />
        <path d="M 950 338.767 L 940 338.767" />
        <path d="M 950 323.976 L 940 323.976" />
        <path d="M 950 309.185 L 940 309.185" />
        <path d="M 950 294.395 L 940 294.395" />
        <path d="M 950 279.604 L 940 279.604" />
        <path d="M 950 264.814 L 930 264.814" />
        <path d="M 950 250.023 L 940 250.023" />
        <path d="M 950 235.232 L 940 235.232" />
        <path d="M 950 220.442 L 940 220.442" />
        <path d="M 950 205.651 L 940 205.651" />
        <path d="M 950 190.86 L 940 190.86" />
        <path d="M 950 176.07 L 940 176.07" />
        <path d="M 950 161.279 L 940 161.279" />
        <path d="M 950 146.488 L 940 146.488" />
        <path d="M 950 131.698 L 940 131.698" />
        <path d="M 950 116.907 L 930 116.907" />
        <path d="M 950 102.116 L 940 102.116" />
        <path d="M 950 87.3258 L 940 87.3258" />
        <path d="M 950 72.5352 L 940 72.5352" />
        <path d="M 950 57.7446 L 940 57.7446" />
        <path d="M 950 871.23 L 940 871.23" />
        <path d="M 950 915.602 L 940 915.602" />
        <path d="M 950 900.811 L 940 900.811" />
        <path d="M 950 886.02 L 940 886.02" />
    </g>
</g>
</g>
</svg>
