<?xml version="1.0" standalone="no"?>
<!DOCTYPE svg PUBLIC "-//W3C//DTD SVG 1.1//EN" "http://www.w3.org/Graphics/SVG/1.1/DTD/svg11.dtd">
<svg style="stroke-linejoin:miter; stroke:black; stroke-width:2.5; text-anchor:middle; fill:none" xmlns="http://www.w3.org/2000/svg" font-family="Helvetica, Arial, FreeSans, Sans, sans, sans-serif" width="1000px" height="1000px" version="1.1" xmlns:xlink="http://www.w3.org/1999/xlink" viewBox="0 0 1000 1000">
<defs>
    <clipPath id="Scatter_0_clip">
        <rect x="120" y="50" width="830" height="870" />
    </clipPath>
    <circle id="Scatter_0_mark" cx="0" cy="0" r="7.5" stroke="none" stroke-opacity="1" fill="black" fill-opacity="1" />
</defs>
<g id="whole_document">
<rect id="background" x="0" y="0" width="1000" height="1000" stroke="none" fill="white" />
<g id="Scatter_0" clip-path="url(#Scatter_0_clip)">
    <use x="262.363" y="878.527" xlink:href="#Scatter_0_mark" />
    <use x="303.681" y="860.473" xlink:href="#Scatter_0_mark" />
    <use x="665.921" y="722.728" xlink:href="#Scatter_0_mark" />
    <use x="214.714" y="772.194" xlink:href="#Scatter_0_mark" />
    <use x="476.27" y="900.357" xlink:href="#Scatter_0_mark" />
    <use x="348.582" y="706.492" xlink:href="#Scatter_0_mark" />
    <use x="672.754" y="640.76" xlink:href="#Scatter_0_mark" />
    <use x="521.996" y="641.592" xlink:href="#Scatter_0_mark" />
    <use x="290.383" y="693.958" xlink:href="#Scatter_0_mark" />
    <use x="447.1" y="832.215" xlink:href="#Scatter_0_mark" />
    <use x="562.101" y="791.312" xlink:href="#Scatter_0_mark" />
    <use x="589.803" y="749.565" xlink:href="#Scatter_0_mark" />
    <use x="409.212" y="859.539" xlink:href="#Scatter_0_mark" />
    <use x="602.394" y="682.202" xlink:href="#Scatter_0_mark" />
    <use x="249.277" y="654.325" xlink:href="#Scatter_0_mark" />
    <use x="307.412" y="726.973" xlink:href="#Scatter_0_mark" />
    <use x="463.163" y="645.786" xlink:href="#Scatter_0_mark" />
    <use x="666.309" y="675.797" xlink:href="#Scatter_0_mark" />
    <use x="275.101" y="774.055" xlink:href="#Scatter_0_mark" />
    <use x="441.531" y="683.026" xlink:href="#Scatter_0_mark" />
    <use x="600.953" y="703.752" xlink:href="#Scatter_0_mark" />
    <use x="298.206" y="895.532" xlink:href="#Scatter_0_mark" />
    <use x="494.527" y="665.867" xlink:href="#Scatter_0_mark" />
    <use x="619.341" y="713.818" xlink:href="#Scatter_0_mark" />
    <use x="120.615" y="666.487" xlink:href="#Scatter_0_mark" />
    <use x="622.732" y="916.495" xlink:href="#Scatter_0_mark" />
    <use x="624.497" y="632.193" xlink:href="#Scatter_0_mark" />
    <use x="474.996" y="684.694" xlink:href="#Scatter_0_mark" />
    <use x="266.107" y="676.454" xlink:href="#Scatter_0_mark" />
    <use x="352.58" y="717.731" xlink:href="#Scatter_0_mark" />
    <use x="477.953" y="858.467" xlink:href="#Scatter_0_mark" />
    <use x="386.335" y="667.651" xlink:href="#Scatter_0_mark" />
    <use x="500.399" y="694.036" xlink:href="#Scatter_0_mark" />
    <use x="228.184" y="709.375" xlink:href="#Scatter_0_mark" />
    <use x="286.239" y="807.876" xlink:href="#Scatter_0_mark" />
    <use x="489.61" y="675.366" xlink:href="#Scatter_0_mark" />
    <use x="205.75" y="859.344" xlink:href="#Scatter_0_mark" />
    <use x="425.3" y="793.084" xlink:href="#Scatter_0_mark" />
    <use x="459.466" y="753.134" xlink:href="#Scatter_0_mark" />
    <use x="286.296" y="650.674" xlink:href="#Scatter_0_mark" />
    <use x="651.606" y="733.534" xlink:href="#Scatter_0_mark" />
    <use x="466.249" y="714.245" xlink:href="#Scatter_0_mark" />
    <use x="496.558" y="827.064" xlink:href="#Scatter_0_mark" />
    <use x="275.997" y="711.809" xlink:href="#Scatter_0_mark" />
    <use x="361.331" y="664.968" xlink:href="#Scatter_0_mark" />
    <use x="635.388" y="809.657" xlink:href="#Scatter_0_mark" />
    <use x="539.52" y="836.015" xlink:href="#Scatter_0_mark" />
    <use x="578.148" y="643.071" xlink:href="#Scatter_0_mark" />
    <use x="243.812" y="874.084" xlink:href="#Scatter_0_mark" />
    <use x="406.888" y="788.724" xlink:href="#Scatter_0_mark" />
    <use x="528.538" y="835.888" xlink:href="#Scatter_0_mark" />
    <use x="567.35" y="760.803" xlink:href="#Scatter_0_mark" />
    <use x="279.408" y="743.743" xlink:href="#Scatter_0_mark" />
    <use x="208.443" y="639.317" xlink:href="#Scatter_0_mark" />
    <use x="489.802" y="792.809" xlink:href="#Scatter_0_mark" />
    <use x="343.036" y="898.346" xlink:href="#Scatter_0_mark" />
    <use x="143.691" y="745.171" xlink:href="#Scatter_0_mark" />
    <use x="486.004" y="811.271" xlink:href="#Scatter_0_mark" />
    <use x="244.346" y="652.138" xlink:href="#Scatter_0_mark" />
    <use x="489.808" y="787.771" xlink:href="#Scatter_0_mark" />
    <use x="524.768" y="906.923" xlink:href="#Scatter_0_mark" />
    <use x="589.56" y="664.798" xlink:href="#Scatter_0_mark" />
    <use x="378.171" y="784.754" xlink:href="#Scatter_0_mark" />
    <use x="475.657" y="885.345" xlink:href="#Scatter_0_mark" />
    <use x="169.537" y="891.229" xlink:href="#Scatter_0_mark" />
    <use x="485.661" y="667.554" xlink:href="#Scatter_0_mark" />
    <use x="546.171" y="895.79" xlink:href="#Scatter_0_mark" />
    <use x="625.664" y="730.07" xlink:href="#Scatter_0_mark" />
    <use x="597.924" y="780.295" xlink:href="#Scatter_0_mark" />
    <use x="629.369" y="790.403" xlink:href="#Scatter_0_mark" />
    <use x="397.453" y="915.694" xlink:href="#Scatter_0_mark" />
    <use x="450.989" y="915.311" xlink:href="#Scatter_0_mark" />
    <use x="534.345" y="663.882" xlink:href="#Scatter_0_mark" />
    <use x="346.864" y="671.78" xlink:href="#Scatter_0_mark" />
    <use x="260.822" y="902.564" xlink:href="#Scatter_0_mark" />
    <use x="265.017" y="842.33" xlink:href="#Scatter_0_mark" />
    <use x="646.584" y="798.956" xlink:href="#Scatter_0_mark" />
    <use x="379.69" y="704.839" xlink:href="#Scatter_0_mark" />
    <use x="236.809" y="852.586" xlink:href="#Scatter_0_mark" />
    <use x="668.206" y="898.634" xlink:href="#Scatter_0_mark" />
    <use x="438.162" y="647.141" xlink:href="#Scatter_0_mark" />
    <use x="199.511" y="716.15" xlink:href="#Scatter_0_mark" />
    <use x="523.783" y="725.011" xlink:href="#Scatter_0_mark" />
    <use x="210.059" y="680.781" xlink:href="#Scatter_0_mark" />
    <use x="253.717" y="708.66" xlink:href="#Scatter_0_mark" />
    <use x="279.745" y="808.95" xlink:href="#Scatter_0_mark" />
    <use x="593.833" y="909.047" xlink:href="#Scatter_0_mark" />
    <use x="234.444" y="837.778" xlink:href="#Scatter_0_mark" />
    <use x="645.517" y="807.952" xlink:href="#Scatter_0_mark" />
    <use x="382.013" y="689.015" xlink:href="#Scatter_0_mark" />
    <use x="128.289" y="832.161" xlink:href="#Scatter_0_mark" />
    <use x="368.502" y="776.24" xlink:href="#Scatter_0_mark" />
    <use x="132.631" y="766.456" xlink:href="#Scatter_0_mark" />
    <use x="261.416" y="759.113" xlink:href="#Scatter_0_mark" />
    <use x="323.806" y="804.565" xlink:href="#Scatter_0_mark" />
    <use x="215.459" y="827.026" xlink:href="#Scatter_0_mark" />
    <use x="158.094" y="750.742" xlink:href="#Scatter_0_mark" />
    <use x="415.049" y="913.395" xlink:href="#Scatter_0_mark" />
    <use x="215.376" y="675.648" xlink:href="#Scatter_0_mark" />
    <use x="644.949" y="726.459" xlink:href="#Scatter_0_mark" />
</g>
<g id="frame_0">
    <rect id="frame_0_border" x="120" y="50" width="830" height="870" />
    <g id="frame_0_bottomticks">
        <path d="M 120 920 L 120 900" />
        <text font-size="30" transform="translate(120, 950)" text-anchor="middle" dominant-baseline="middle" stroke="none" fill="black">0</text>
        <path d="M 839.333 920 L 839.333 910" />
        <path d="M 673.333 920 L 673.333 900" />
        <text font-size="30" transform="translate(673.333, 950)" text-anchor="middle" dominant-baseline="middle" stroke="none" fill="black">100</text>
        <path d="M 507.333 920 L 507.333 910" />
        <path d="M 341.333 920 L 341.333 900" />
        <text font-size="30" transform="translate(341.333, 950)" text-anchor="middle" dominant-baseline="middle" stroke="none" fill="black">40</text>
        <path d="M 175.333 920 L 175.333 910" />
        <path d="M 894.667 920 L 894.667 900" />
        <text font-size="30" transform="translate(894.667, 950)" text-anchor="middle" dominant-baseline="middle" stroke="none" fill="black">140</text>
        <path d="M 728.667 920 L 728.667 910" />
        <path d="M 562.667 920 L 562.667 900" />
        <text font-size="30" transform="translate(562.667, 950)" text-anchor="middle" dominant-baseline="middle" stroke="none" fill="black">80</text>
        <path d="M 396.667 920 L 396.667 910" />
        <path d="M 230.667 920 L 230.667 900" />
        <text font-size="30" transform="translate(230.667, 950)" text-anchor="middle" dominant-baseline="middle" stroke="none" fill="black">20</text>
        <path d="M 950 920 L 950 910" />
        <path d="M 784 920 L 784 900" />
        <text font-size="30" transform="translate(784, 950)" text-anchor="middle" dominant-baseline="middle" stroke="none" fill="black">120</text>
        <path d="M 618 920 L 618 910" />
        <path d="M 452 920 L 452 900" />
        <text font-size="30" transform="translate(452, 950)" text-anchor="middle" dominant-baseline="middle" stroke="none" fill="black">60</text>
        <path d="M 286 920 L 286 910" />
    </g>
    <g id="frame_0_leftticks">
        <path d="M 120 920 L 140 920" />
        <text font-size="30" transform="translate(110, 930)" text-anchor="end" dominant-baseline="middle" stroke="none" fill="black">0</text>
        <path d="M 120 166 L 130 166" />
        <path d="M 120 340 L 140 340" />
        <text font-size="30" transform="translate(110, 350)" text-anchor="end" dominant-baseline="middle" stroke="none" fill="black">100</text>
        <path d="M 120 514 L 130 514" />
        <path d="M 120 688 L 140 688" />
        <text font-size="30" transform="translate(110, 698)" text-anchor="end" dominant-baseline="middle" stroke="none" fill="black">40</text>
        <path d="M 120 862 L 130 862" />
        <path d="M 120 108 L 140 108" />
        <text font-size="30" transform="translate(110, 118)" text-anchor="end" dominant-baseline="middle" stroke="none" fill="black">140</text>
        <path d="M 120 282 L 130 282" />
        <path d="M 120 456 L 140 456" />
        <text font-size="30" transform="translate(110, 466)" text-anchor="end" dominant-baseline="middle" stroke="none" fill="black">80</text>
        <path d="M 120 630 L 130 630" />
        <path d="M 120 804 L 140 804" />
        <text font-size="30" transform="translate(110, 814)" text-anchor="end" dominant-baseline="middle" stroke="none" fill="black">20</text>
        <path d="M 120 50 L 130 50" />
        <path d="M 120 224 L 140 224" />
        <text font-size="30" transform="translate(110, 234)" text-anchor="end" dominant-baseline="middle" stroke="none" fill="black">120</text>
        <path d="M 120 398 L 130 398" />
        <path d="M 120 572 L 140 572" />
        <text font-size="30" transform="translate(110, 582)" text-anchor="end" dominant-baseline="middle" stroke="none" fill="black">60</text>
        <path d="M 120 746 L 130 746" />
    </g>
    <g id="frame_0_topticks">
        <path d="M 120 50 L 120 70" />
        <path d="M 839.333 50 L 839.333 60" />
        <path d="M 673.333 50 L 673.333 70" />
        <path d="M 507.333 50 L 507.333 60" />
        <path d="M 341.333 50 L 341.333 70" />
        <path d="M 175.333 50 L 175.333 60" />
        <path d="M 894.667 50 L 894.667 70" />
        <path d="M 728.667 50 L 728.667 60" />
        <path d="M 562.667 50 L 562.667 70" />
        <path d="M 396.667 50 L 396.667 60" />
        <path d="M 230.667 50 L 230.667 70" />
        <path d="M 950 50 L 950 60" />
        <path d="M 784 50 L 784 70" />
        <path d="M 618 50 L 618 60" />
        <path d="M 452 50 L 452 70" />
        <path d="M 286 50 L 286 60" />
    </g>
    <g id="frame_0_rightticks">
        <path d="M 950 920 L 930 920" />
        <path d="M 950 166 L 940 166" />
        <path d="M 950 340 L 930 340" />
        <path d="M 950 514 L 940 514" />
        <path d="M 950 688 L 930 688" />
        <path d="M 950 862 L 940 862" />
        <path d="M 950 108 L 930 108" />
        <path d="M 950 282 L 940 282" />
        <path d="M 950 456 L 930 456" />
        <path d="M 950 630 L 940 630" />
        <path d="M 950 804 L 930 804" />
        <path d="M 950 50 L 940 50" />
        <path d="M 950 224 L 930 224" />
        <path d="M 950 398 L 940 398" />
        <path d="M 950 572 L 930 572" />
        <path d="M 950 746 L 940 746" />
    </g>
</g>
</g>
</svg>
